<?xml version="1.0" encoding="utf-8"?>
<!-- Generator: Adobe Illustrator 21.1.0, SVG Export Plug-In . SVG Version: 6.00 Build 0)  -->
<svg version="1.1" id="Слой_1" xmlns="http://www.w3.org/2000/svg" xmlns:xlink="http://www.w3.org/1999/xlink" x="0px" y="0px"
	 width="19.779px" height="15px" viewBox="0 0 19.779 15" style="enable-background:new 0 0 19.779 15;" xml:space="preserve">
<path style="fill:#0F74FB;" d="M8.093,14.407c0.154-0.173,0.315-0.338,0.49-0.49c0.098-0.085,0.054-0.143-0.023-0.221
	c-1.708-1.714-3.413-3.43-5.118-5.147C3.393,8.501,3.347,8.451,3.27,8.37c0.102,0,0.169,0,0.235,0c5.347,0,10.695,0,16.042,0
	c0.229,0,0.229,0,0.229-0.235c0-0.456-0.003-0.912,0.002-1.368c0.001-0.105-0.024-0.154-0.136-0.138
	c-0.04,0.006-0.082,0.001-0.123,0.001c-5.336,0-10.672,0-16.007,0c-0.068,0-0.135,0-0.239,0c0.07-0.075,0.114-0.126,0.161-0.173
	c1.701-1.712,3.402-3.425,5.107-5.134c0.104-0.104,0.121-0.158,0.005-0.269C8.208,0.732,7.881,0.397,7.556,0.062
	C7.477-0.02,7.434-0.021,7.352,0.061C4.924,2.509,2.493,4.954,0.06,7.398C-0.022,7.48-0.019,7.523,0.061,7.603
	c2.433,2.443,4.864,4.889,7.292,7.337c0.084,0.084,0.128,0.077,0.205-0.004C7.731,14.755,7.914,14.583,8.093,14.407z"/>
</svg>
