<?xml version="1.0" encoding="utf-8"?>
<!-- Generator: Adobe Illustrator 21.1.0, SVG Export Plug-In . SVG Version: 6.00 Build 0)  -->
<svg version="1.1" id="Слой_1" xmlns="http://www.w3.org/2000/svg" xmlns:xlink="http://www.w3.org/1999/xlink" x="0px" y="0px"
	 width="19.779px" height="15px" viewBox="0 0 19.779 15" style="enable-background:new 0 0 19.779 15;" xml:space="preserve">
<path style="fill:#0F74FB;" d="M11.686,14.407c-0.154-0.173-0.315-0.338-0.49-0.49c-0.098-0.085-0.054-0.143,0.023-0.221
	c1.708-1.714,3.413-3.43,5.118-5.147c0.048-0.048,0.094-0.099,0.171-0.18c-0.102,0-0.169,0-0.235,0c-5.347,0-10.695,0-16.042,0
	c-0.229,0-0.229,0-0.229-0.235c0-0.456,0.003-0.912-0.002-1.368c-0.001-0.105,0.024-0.154,0.136-0.138
	C0.176,6.635,0.217,6.63,0.258,6.63c5.336,0,10.672,0,16.007,0c0.068,0,0.135,0,0.239,0c-0.07-0.075-0.114-0.126-0.161-0.173
	c-1.701-1.712-3.402-3.425-5.107-5.134c-0.104-0.104-0.121-0.158-0.005-0.269c0.339-0.322,0.666-0.657,0.991-0.992
	c0.079-0.082,0.122-0.083,0.203-0.001c2.428,2.448,4.859,4.894,7.292,7.337c0.082,0.083,0.079,0.125-0.001,0.205
	c-2.433,2.443-4.864,4.889-7.292,7.337c-0.084,0.084-0.128,0.077-0.205-0.004C12.048,14.755,11.865,14.583,11.686,14.407z"/>
</svg>
