<svg height="480pt" viewBox="-96 0 480 480" width="480pt" xmlns="http://www.w3.org/2000/svg"><path d="m280 48h-80v-40c0-4.417969-3.582031-8-8-8h-96c-4.417969 0-8 3.582031-8 8v40h-80c-4.417969 0-8 3.582031-8 8v416c0 4.417969 3.582031 8 8 8h272c4.417969 0 8-3.582031 8-8v-416c0-4.417969-3.582031-8-8-8zm-176-32h80v32h-80zm168 448h-256v-400h256zm0 0"/><path d="m224.464844 232h-52.648438l32-80h-97.847656l-36.578125 128h56.847656l-20.636719 103.304688zm-133.855469 32 27.421875-96h62.152344l-32 80h43.351562l-57.136718 72.695312 11.363281-56.695312zm0 0"/><path d="m240 376c-4.417969 0-8 3.582031-8 8v40h-28.6875l2.34375-2.34375c3.03125-3.140625 2.988281-8.128906-.097656-11.214844-3.085938-3.085937-8.074219-3.128906-11.214844-.097656l-16 16c-3.121094 3.125-3.121094 8.1875 0 11.3125l16 16c3.140625 3.03125 8.128906 2.988281 11.214844-.097656 3.085937-3.085938 3.128906-8.074219.097656-11.214844l-2.34375-2.34375h36.6875c4.417969 0 8-3.582031 8-8v-48c0-4.417969-3.582031-8-8-8zm0 0"/><path d="m96 424h-40v-28.6875l2.34375 2.34375c3.140625 3.03125 8.128906 2.988281 11.214844-.097656 3.085937-3.085938 3.128906-8.074219.097656-11.214844l-16-16c-3.125-3.121094-8.1875-3.121094-11.3125 0l-16 16c-2.078125 2.007812-2.914062 4.984375-2.179688 7.78125.730469 2.796875 2.914063 4.980469 5.710938 5.710938 2.796875.734374 5.773438-.101563 7.78125-2.179688l2.34375-2.34375v36.6875c0 4.417969 3.582031 8 8 8h48c4.417969 0 8-3.582031 8-8s-3.582031-8-8-8zm0 0"/><path d="m48 152c4.417969 0 8-3.582031 8-8v-40h20.6875l-2.34375 2.34375c-2.078125 2.007812-2.914062 4.984375-2.179688 7.78125.730469 2.796875 2.914063 4.980469 5.710938 5.710938 2.796875.734374 5.773438-.101563 7.78125-2.179688l16-16c.070312-.070312.097656-.175781.167969-.25.667969-.679688 1.207031-1.472656 1.601562-2.34375 0-.0625 0-.140625.046875-.214844.300782-.804687.46875-1.652344.496094-2.511718 0-.265626-.019531-.535157-.046875-.800782-.042969-.667968-.171875-1.332031-.386719-1.96875-.074218-.269531-.167968-.539062-.277344-.796875-.382812-.894531-.925781-1.707031-1.601562-2.402343l-16-16c-3.140625-3.03125-8.128906-2.988282-11.214844.097656-3.085937 3.085937-3.128906 8.074218-.097656 11.214844l2.34375 2.34375h-28.6875c-4.417969 0-8 3.582031-8 8v48c.011719 4.410156 3.589844 7.976562 8 7.976562zm0 0"/><path d="m184 96c0 4.417969 3.582031 8 8 8h40v28.6875l-2.34375-2.34375c-3.140625-3.03125-8.128906-2.988281-11.214844.097656-3.085937 3.085938-3.128906 8.074219-.097656 11.214844l16 16c3.125 3.121094 8.1875 3.121094 11.3125 0l16-16c3.03125-3.140625 2.988281-8.128906-.097656-11.214844-3.085938-3.085937-8.074219-3.128906-11.214844-.097656l-2.34375 2.34375v-36.6875c0-4.417969-3.582031-8-8-8h-48c-4.417969 0-8 3.582031-8 8zm0 0"/></svg>