<svg height="480pt" viewBox="0 0 480 480" width="480pt" xmlns="http://www.w3.org/2000/svg"><path d="m472 160c4.417969 0 8-3.582031 8-8v-32c0-4.417969-3.582031-8-8-8h-64v-24c0-4.417969-3.582031-8-8-8h-80c-4.417969 0-8 3.582031-8 8v24h-144v-24c0-4.417969-3.582031-8-8-8h-80c-4.417969 0-8 3.582031-8 8v24h-64c-4.417969 0-8 3.582031-8 8v32c0 4.417969 3.582031 8 8 8h32v272h-32c-4.417969 0-8 3.582031-8 8v32c0 4.417969 3.582031 8 8 8h464c4.417969 0 8-3.582031 8-8v-32c0-4.417969-3.582031-8-8-8h-32v-272zm-144-64h64v16h-64zm-240 0h64v16h-64zm-72 32h448v16h-448zm448 336h-448v-16h448zm-40-32h-368v-272h368zm0 0"/><path d="m352 416h48c4.417969 0 8-3.582031 8-8v-48c0-4.417969-3.582031-8-8-8s-8 3.582031-8 8v40h-40c-4.417969 0-8 3.582031-8 8s3.582031 8 8 8zm0 0"/><path d="m80 240c4.417969 0 8-3.582031 8-8v-40h40c4.417969 0 8-3.582031 8-8s-3.582031-8-8-8h-48c-4.417969 0-8 3.582031-8 8v48c0 4.417969 3.582031 8 8 8zm0 0"/><path d="m112 64h16v-24h24v-16h-24v-24h-16v24h-24v16h24zm0 0"/><path d="m328 24h64v16h-64zm0 0"/><path d="m201.601562 415.304688 118.863282-151.304688h-52.648438l32-80h-97.847656l-36.578125 128h56.847656zm-14.992187-119.304688 27.421875-96h62.152344l-32 80h43.351562l-57.136718 72.695312 11.363281-56.695312zm0 0"/></svg>