<svg height="480pt" viewBox="0 -88 480.06274 480" width="480pt" xmlns="http://www.w3.org/2000/svg"><path d="m392.0625 128.03125c-6.769531.019531-13.511719.824219-20.09375 2.398438l-32.808594-98.398438h64.664063c2.878906.011719 5.53125 1.566406 6.941406 4.078125 1.414063 2.507813 1.367187 5.582031-.117187 8.050781l-4.800782 8c-1.441406 2.394532-4.03125 3.859375-6.824218 3.871094h-22.960938c-4.417969 0-8 3.582031-8 8s3.582031 8 8 8h22.960938c8.40625-.027344 16.191406-4.441406 20.535156-11.640625l4.800781-8c4.449219-7.40625 4.574219-16.636719.324219-24.160156-4.25-7.527344-12.21875-12.1875-20.859375-12.199219h-75.761719c-2.570312 0-4.984375 1.234375-6.488281 3.320312-1.503907 2.085938-1.914063 4.769532-1.101563 7.207032l12.488282 37.472656h-174.007813l-12.488281-48h37.597656c4.417969 0 8-3.582031 8-8s-3.582031-8-8-8h-72c-4.417969 0-8 3.582031-8 8s3.582031 8 8 8h17.816406l23.054688 88.304688-22.910156 34.398437c-32.511719-17.667969-72.601563-13.113281-100.320313 11.398437-27.71875 24.511719-37.140625 63.742188-23.582031 98.171876 13.5625 34.425781 47.210937 56.691406 84.199218 55.71875 36.988282-.976563 69.414063-24.984376 81.144532-60.078126 10.886718 11.25 27.359375 15.074219 42.089844 9.765626 14.730468-5.3125 24.976562-18.765626 26.179687-34.375l103.152344-125.519532 13.886719 41.65625c-41.21875 18.132813-62.070313 64.488282-48.285157 107.359375 13.785157 42.875 57.746094 68.390625 101.8125 59.101563 44.066407-9.292969 73.980469-50.382813 69.28125-95.171875-4.695312-44.789063-42.484375-78.785157-87.519531-78.730469zm-58.550781-48-13.152344 16h-153.046875l-4.183594-16zm-100.273438 113.6875c-.046875-.070312-.109375-.136719-.160156-.207031-1.257813-1.8125-2.667969-3.523438-4.207031-5.105469-.441406-.453125-.894532-.886719-1.359375-1.328125-1.34375-1.273437-2.773438-2.449219-4.28125-3.527344-.398438-.289062-.800781-.597656-1.175781-.871093-1.914063-1.261719-3.933594-2.359376-6.03125-3.28125-.472657-.207032-.976563-.359376-1.464844-.550782-1.738282-.675781-3.523438-1.230468-5.34375-1.65625-.648438-.152344-1.28125-.3125-1.945313-.433594-4.726562-.964843-9.597656-.964843-14.324219 0-.664062.121094-1.304687.265626-1.953124.417969-.800782.183594-1.601563.335938-2.351563.566407l-17.152344-65.710938h135.71875l-71.144531 86.542969c-.824219-1.683594-1.769531-3.304688-2.824219-4.855469zm-73.648437 14.3125h-56.574219l31.367187-47.039062c14.128907 11.863281 23.152344 28.707031 25.207032 47.039062zm-1.246094-82.96875 15.847656 60.6875c-.710937.59375-1.464844 1.136719-2.121094 1.777344-.207031.207031-.398437.425781-.605468.632812-5.34375-15.914062-15.113282-29.976562-28.160156-40.535156zm-70.28125 162.96875c-29.886719.054688-56.699219-18.359375-67.378906-46.273438-10.675782-27.914062-3-59.523437 19.289062-79.429687 22.292969-19.90625 54.566406-23.972656 81.097656-10.214844l-39.664062 59.476563c-1.636719 2.457031-1.789062 5.613281-.398438 8.214844 1.394532 2.601562 4.105469 4.226562 7.054688 4.226562h71.527344c-4.105469 36.414062-34.882813 63.949219-71.527344 64zm112-48c-7.355469.070312-14.332031-3.269531-18.886719-9.046875-4.558593-5.773437-6.1875-13.335937-4.410156-20.472656.144531-.609375.363281-1.183594.554687-1.769531.359376-1.152344.808594-2.273438 1.34375-3.359376.3125-.617187.625-1.214843.984376-1.800781.707031-1.128906 1.511718-2.203125 2.398437-3.199219.304687-.34375.550781-.71875.871094-1.046874 1.3125-1.332032 2.773437-2.507813 4.351562-3.503907 1.046875-.679687 2.144531-1.273437 3.28125-1.785156.289063-.121094.59375-.199219.878907-.320313 1.042968-.402343 2.113281-.730468 3.203124-.984374.398438-.09375.796876-.183594 1.199219-.253907 9.007813-1.777343 18.238281 1.746094 23.777344 9.066407 5.539063 7.324218 6.417969 17.164062 2.257813 25.351562-4.160157 8.183594-12.625 13.28125-21.804688 13.125zm192 48c-33.796875.027344-63.058594-23.480469-70.320312-56.488281-7.257813-33.011719 9.4375-66.625 40.128906-80.785157l22.601562 67.800782c1.394532 4.199218 5.929688 6.46875 10.125 5.074218 4.199219-1.398437 6.46875-5.933593 5.074219-10.128906l-22.640625-67.871094c26.9375-5.777343 54.8125 4.324219 71.792969 26.019532 16.980469 21.695312 20.09375 51.179687 8.015625 75.941406s-37.226563 40.460938-64.777344 40.4375zm0 0"/></svg>