<svg height="480pt" viewBox="-72 0 480 480.00016" width="480pt" xmlns="http://www.w3.org/2000/svg"><path d="m292.289062 369.457031 11.382813-273.457031h24.328125c4.417969 0 8-3.582031 8-8s-3.582031-8-8-8h-24.40625c-4.171875-45.277344-42.125-79.9414062-87.59375-80h-96c-45.46875.0585938-83.421875 34.722656-87.59375 80h-24.40625c-4.417969 0-8 3.582031-8 8s3.582031 8 8 8h24.328125l14.398437 345.695312c.871094 21.445313 18.539063 38.367188 40 38.304688h193.273438c28.519531.011719 52.484375-21.425781 55.636719-49.769531 3.148437-28.347657-15.523438-54.523438-43.347657-60.773438zm-172.289062-353.457031h96c36.652344.042969 67.441406 27.578125 71.558594 64h-239.117188c4.117188-36.421875 34.90625-63.957031 71.558594-64zm120.800781 448h-154.082031c-12.863281.011719-23.449219-10.121094-24-22.976562l-14.382812-345.023438h239.328124l-11.335937 272.121094c-.367187 0-.71875.085937-1.089844.117187-.839843.074219-1.679687.175781-2.511719.289063-.992187.128906-1.984374.273437-2.957031.457031-.800781.152344-1.601562.328125-2.457031.519531-.953125.222656-1.90625.464844-2.839844.726563-.800781.242187-1.601562.488281-2.402344.761719-.910156.304687-1.8125.632812-2.703124.992187-.886719.359375-1.535157.625-2.285157.96875-.753906.34375-1.730469.800781-2.570312 1.238281-.839844.441406-1.472657.761719-2.183594 1.175782-.710937.417968-1.601563.953124-2.398437 1.464843-.800782.511719-1.394532.894531-2.074219 1.375-.679688.480469-1.503907 1.097657-2.238281 1.671875-.738282.578125-1.304688 1.023438-1.9375 1.601563-.632813.574219-1.382813 1.238281-2.0625 1.878906-.679688.640625-1.199219 1.128906-1.777344 1.71875-.574219.59375-1.273438 1.386719-1.894532 2.089844-.625.703125-1.082031 1.222656-1.601562 1.863281s-1.136719 1.496094-1.6875 2.265625c-.550781.765625-.976562 1.320313-1.433594 2.007813-.453125.6875-.992187 1.597656-1.480468 2.398437-.484376.800781-.796876 1.394531-1.222657 2.113281-.457031.863282-.855469 1.75-1.269531 2.640625-.339844.726563-.699219 1.4375-1.011719 2.183594-.382812.925781-.703125 1.894531-1.039062 2.855469-.261719.726562-.542969 1.449218-.800781 2.191406-.308594 1.03125-.550782 2.089844-.796876 3.144531-.175781.703125-.386718 1.398438-.53125 2.121094-.230468 1.183594-.382812 2.398437-.550781 3.605469-.078125.617187-.207031 1.226562-.269531 1.839844-.1875 1.847656-.28125 3.714843-.28125 5.601562 0 1.921875.101562 3.847656.296875 5.761719.0625.621093.199219 1.222656.277344 1.847656.175781 1.253906.328125 2.511719.585937 3.734375.160156.800781.390625 1.511719.582032 2.273438.265624 1.039062.496093 2.09375.800781 3.117187.257812.800781.585937 1.601563.878906 2.402344.335937.925781.648437 1.871093 1.035156 2.773437.382813.90625.75 1.601563 1.125 2.347656.378907.742188.800781 1.734376 1.265625 2.574219.464844.839844.910156 1.503907 1.367188 2.257813.457031.75.953125 1.597656 1.472656 2.398437s1.070312 1.441407 1.601562 2.160157c.527344.71875 1.0625 1.464843 1.644532 2.160156.585937.695312 1.234375 1.359375 1.851562 2.039062.613282.679688 1.175782 1.328125 1.804688 1.953125.144531.039063.242187.128907.28125.199219zm39.199219 0c-22.089844 0-40-17.910156-40-40s17.910156-40 40-40c1.152344 0 2.296875.0625 3.382812.136719 21.394532 1.765625 37.578126 20.109375 36.671876 41.558593-.910157 21.445313-18.585938 38.351563-40.054688 38.304688zm0 0"/><path d="m146.34375 194.664062c3.773438 2.304688 8.699219 1.109376 11-2.664062l3.367188-5.496094c1.453124-2.375 4.039062-3.824218 6.824218-3.824218s5.371094 1.449218 6.824219 3.824218l37.578125 61.496094h-11.9375c-4.417969 0-8 3.582031-8 8s3.582031 8 8 8h32c4.417969 0 8-3.582031 8-8v-32c0-4.417969-3.582031-8-8-8s-8 3.582031-8 8v13.054688l-36-58.886719c-4.359375-7.136719-12.117188-11.488281-20.480469-11.488281-8.359375 0-16.121093 4.351562-20.480469 11.488281l-3.359374 5.496093c-2.304688 3.773438-1.109376 8.699219 2.664062 11zm0 0"/><path d="m112 296h-3.9375c-2.890625 0-5.558594-1.5625-6.972656-4.085938-1.414063-2.523437-1.355469-5.613281.148437-8.082031l31.050781-50.808593 1.390626 7.878906c.675781 3.820312 3.992187 6.605468 7.871093 6.609375.46875.003906.9375-.035157 1.402344-.121094 4.347656-.765625 7.253906-4.914063 6.488281-9.261719l-5.601562-31.519531c-.773438-4.347656-4.917969-7.246094-9.265625-6.480469l-31.519531 5.550782c-4.25.863281-7.039063 4.957031-6.289063 9.230468.753906 4.269532 4.777344 7.164063 9.066406 6.523438l16.519531-2.914063-34.808593 56.96875c-4.527344 7.414063-4.695313 16.695313-.441407 24.269531 4.257813 7.574219 12.273438 12.257813 20.960938 12.242188h3.9375c4.417969 0 8-3.582031 8-8s-3.582031-8-8-8zm0 0"/><path d="m155.320312 312h72.152344c8.679688 0 16.683594-4.6875 20.929688-12.257812 4.246094-7.570313 4.074218-16.847657-.449219-24.253907-2.304687-3.769531-7.230469-4.960937-11-2.65625-3.773437 2.304688-4.960937 7.230469-2.65625 11 1.507813 2.46875 1.5625 5.558594.148437 8.082031-1.414062 2.523438-4.082031 4.085938-6.972656 4.085938h-72.152344l8.96875-8.96875c2.078126-2.007812 2.914063-4.980469 2.179688-7.78125-.730469-2.796875-2.914062-4.980469-5.710938-5.710938-2.796874-.734374-5.773437.101563-7.78125 2.179688l-22.625 22.617188c-.738281.738281-1.324218 1.617187-1.726562 2.585937-.832031 1.96875-.832031 4.1875 0 6.15625.402344.96875.988281 1.847656 1.726562 2.585937l22.625 22.617188c2.007813 2.078125 4.984376 2.914062 7.78125 2.179688 2.796876-.730469 4.980469-2.914063 5.710938-5.710938.734375-2.800781-.101562-5.773438-2.179688-7.78125zm0 0"/></svg>