<svg height="480pt" viewBox="0 0 480.64008 480" width="480pt" xmlns="http://www.w3.org/2000/svg"><path d="m480.640625 167.9375c-.019531-.90625-.195313-1.804688-.519531-2.648438-.074219-.207031-.160156-.40625-.257813-.601562-.382812-.878906-.925781-1.679688-1.597656-2.359375-.699219-.671875-1.511719-1.214844-2.402344-1.601563-.199219-.09375-.382812-.175781-.589843-.253906-.855469-.324218-1.757813-.5-2.671876-.519531h-.152343c-.597657.003906-1.195313.074219-1.777344.207031-3.671875.894532-56.214844 13.855469-105.289063 31-.125.046875-.253906.078125-.382812.136719-19.042969 6.40625-37.625 14.113281-55.617188 23.0625-.257812.117187-.511718.242187-.757812.386719-8.269531 4.035156-15.925781 9.226562-22.738281 15.414062-32.152344 32.152344-44.886719 93.488282-16.574219 129.710938l-11.304688 11.304687c-7.386718 7.457031-13.378906 16.175781-17.695312 25.746094-4.347656-9.554687-10.367188-18.253906-17.777344-25.691406l-11.304687-11.300781c28.3125-36.226563 15.578125-97.5625-16.574219-129.714844-6.808594-6.1875-14.460938-11.375-22.726562-15.40625-.261719-.144532-.527344-.277344-.800782-.390625-17.988281-8.953125-36.574218-16.660157-55.617187-23.066407-.128907-.054687-.253907-.085937-.390625-.136718-49.03125-17.144532-101.578125-30.09375-105.210938-31-.574218-.132813-1.164062-.199219-1.757812-.199219h-.167969c-.921875.019531-1.835937.195313-2.695313.527344-.191406.074219-.367187.152343-.554687.234375-.890625.382812-1.703125.921875-2.398437 1.597656-.660157.6875-1.1875 1.484375-1.558594 2.359375-.097656.195313-.183594.398437-.257813.601563-.324219.847656-.4999998 1.742187-.519531 2.648437v.238281c-.00390625.578125.0585938 1.152344.183594 1.714844.90625 3.671875 13.863281 56.230469 31.007812 105.300781.046875.113281.074219.234375.128906.347657 6.40625 19.058593 14.117188 37.652343 23.078126 55.652343.105468.238281.222656.46875.355468.691407 4.035156 8.285156 9.230469 15.957031 15.429688 22.78125 21.636718 20.535156 50.277344 32.066406 80.105468 32.25 17.84375.476562 35.332032-5.046876 49.664063-15.6875l11.269531 11.269531c13.546875 13.476562 21.136719 31.808593 21.089844 50.914062v38.863281c0 4.417969 3.582031 8 8 8s8-3.582031 8-8v-38.863281c-.050781-19.105469 7.542969-37.4375 21.085938-50.914062l11.273437-11.269531c14.332031 10.640624 31.820313 16.164062 49.664063 15.6875 29.828124-.207032 58.460937-11.753907 80.089843-32.296876 6.195313-6.824218 11.390625-14.496093 15.429688-22.785156.128906-.222656.25-.449218.351562-.6875 8.960938-18.003906 16.671875-36.605468 23.082031-55.671875.054688-.121093.078126-.238281.128907-.359375 17.140625-49.0625 30.101562-101.601562 31.007812-105.296875.121094-.5625.183594-1.136719.183594-1.710937.007813-.054688.03125-.136719.03125-.214844zm-280.800781 180.582031-23.527344-23.511719v-89.0625c2.5 1.660157 4.855469 3.53125 7.03125 5.597657 26.265625 26.257812 37.863281 77.320312 16.480469 106.976562zm-149.785156-68.199219h58.945312l40 40h-82.238281c-6.28125-13.027343-11.855469-26.378906-16.707031-40zm-15.574219-97.144531c20.574219 5.640625 45.742187 13.0625 69.832031 21.265625v48.566406zm58.519531 81.144531h-48.566406c-8.203125-24.089843-15.632813-49.257812-21.265625-69.832031zm27.3125 4.6875v-58.945312c13.621094 4.851562 26.972656 10.425781 40 16.707031v82.238281zm-38.800781 74.34375c-2.0625-2.179687-3.933594-4.535156-5.601563-7.03125h89.089844l23.511719 23.511719c-29.648438 21.390625-80.726563 9.792969-107-16.480469zm354.6875-79.03125h-48.574219l69.832031-69.832031c-5.632812 20.574219-13.058593 45.742188-21.257812 69.832031zm-22.335938 56h-82.238281l40-40h58.941406c-4.839844 13.625-10.417968 26.976563-16.703125 40zm-53.550781-51.3125-40 40v-82.238281c13.023438-6.28125 26.378906-11.855469 40-16.707031zm16-64.566406c24.085938-8.203125 49.253906-15.625 69.832031-21.265625l-69.832031 69.832031zm-79.03125 37.085938c2.175781-2.066406 4.527344-3.941406 7.03125-5.597656v89.078124l-23.511719 23.511719c-21.382812-29.65625-9.785156-80.71875 16.480469-106.992187zm-5.167969 118.304687 23.511719-23.511719h89.070312c-1.664062 2.496094-3.539062 4.851563-5.597656 7.03125-26.257812 26.265626-77.328125 37.878907-106.984375 16.480469zm0 0"/><path d="m240.3125 144.320312c4.417969 0 8-3.582031 8-8v-128c0-4.417968-3.582031-8-8-8s-8 3.582032-8 8v128c0 4.417969 3.582031 8 8 8zm0 0"/><path d="m112.3125 144.320312h48c17.253906.050782 32.582031-11 37.988281-27.386718 5.402344-16.382813-.339843-34.386719-14.238281-44.613282 13.898438-10.226562 19.640625-28.230468 14.238281-44.613281-5.40625-16.386719-20.734375-27.4375-37.988281-27.386719h-48c-4.417969 0-8 3.582032-8 8v128c0 4.417969 3.582031 8 8 8zm72-40c0 13.253907-10.746094 24-24 24h-40v-48h40c13.253906 0 24 10.746094 24 24zm-64-88h40c13.253906 0 24 10.746094 24 24 0 13.253907-10.746094 24-24 24h-40zm0 0"/><path d="m312.3125 144.320312h32c17.671875 0 32-14.328124 32-32v-80c0-17.671874-14.328125-32-32-32h-32c-17.671875 0-32 14.328126-32 32v80c0 17.671876 14.328125 32 32 32zm-16-112c0-8.835937 7.164062-16 16-16h32c8.835938 0 16 7.164063 16 16v80c0 8.835938-7.164062 16-16 16h-32c-8.835938 0-16-7.164062-16-16zm0 0"/></svg>