<svg height="479pt" viewBox="0 0 479.44364 479" width="479pt" xmlns="http://www.w3.org/2000/svg"><path d="m479.445312 240.222656c-.003906-68.132812-28.957031-133.050781-79.652343-178.570312-50.691407-45.519532-118.339844-67.351563-186.078125-60.046875-7.832032.800781-15.566406 2.113281-23.199219 3.703125-1.476563.308594-2.953125.636718-4.433594.976562-44.964843 10.238282-86.023437 33.230469-118.253906 66.214844-2.996094 3.074219-5.929687 6.234375-8.800781 9.488281-85.199219 97.8125-77.261719 245.621094 17.921875 333.746094 95.183593 88.125 243.164062 84.671875 334.132812-7.792969 3.003907-3.074218 5.9375-6.234375 8.800781-9.488281 38.421876-43.753906 59.59375-100.003906 59.5625-158.230469zm-79.050781 155.71875c-1.261719 1.304688-2.566406 2.558594-3.855469 3.832032-1.488281 1.464843-2.976562 2.945312-4.503906 4.367187-1.328125 1.238281-2.695312 2.398437-4.054687 3.640625-1.554688 1.375-3.097657 2.75-4.679688 4.078125-1.402343 1.167969-2.824219 2.296875-4.25 3.433594-1.597656 1.28125-3.199219 2.558593-4.847656 3.792969-1.457031 1.09375-2.933594 2.160156-4.421875 3.199218-1.65625 1.183594-3.320312 2.398438-5.007812 3.503906-1.515626 1.023438-3.042969 2.015626-4.578126 2.992188-1.710937 1.105469-3.4375 2.171875-5.175781 3.199219-1.601562.9375-3.128906 1.847656-4.703125 2.753906-1.769531 1.007813-3.554687 1.992187-5.34375 2.949219-1.601562.855468-3.199218 1.6875-4.800781 2.503906-1.824219.921875-3.664063 1.808594-5.511719 2.679688-1.601562.761718-3.265625 1.523437-4.914062 2.242187-1.878906.800781-3.78125 1.597656-5.6875 2.398437-1.65625.671876-3.304688 1.34375-4.96875 1.976563-1.949219.746094-3.910156 1.441406-5.878906 2.121094-1.664063.582031-3.328126 1.167969-5.015626 1.710937-2 .648438-4 1.242188-6.039062 1.824219-1.671875.496094-3.351562.992187-5.039062 1.449219-.648438.167968-1.296876.304687-1.945313.472656 23.679687-22.996094 41.253906-51.53125 51.128906-83.027344 18.988281 5.007813 37.367188 12.082032 54.816407 21.097656-.265626.289063-.488282.566407-.722657.808594zm-223.621093 59.261719c-2.027344-.589844-4.058594-1.183594-6.058594-1.832031-1.6875-.542969-3.351563-1.125-5.015625-1.710938-1.96875-.679687-3.9375-1.375-5.878907-2.121094-1.664062-.628906-3.304687-1.292968-4.953124-1.964843-1.910157-.800781-3.824219-1.601563-5.71875-2.402344-1.632813-.71875-3.257813-1.460937-4.871094-2.222656-1.867188-.878907-3.722656-1.777344-5.601563-2.703125-1.601562-.800782-3.199219-1.601563-4.800781-2.472656-1.808594-.96875-3.597656-1.960938-5.390625-2.984376-1.601563-.886718-3.121094-1.800781-4.664063-2.726562-1.761718-1.058594-3.488281-2.144531-5.214843-3.257812-1.523438-.96875-3.042969-1.953126-4.539063-2.960938-1.703125-1.152344-3.390625-2.351562-5.0625-3.550781-1.464844-1.046875-2.929687-2.097657-4.367187-3.199219-1.65625-1.25-3.28125-2.535156-4.898438-3.832031-1.414062-1.128907-2.824219-2.25-4.207031-3.410157-1.601562-1.328124-3.144531-2.710937-4.695312-4.085937-1.359376-1.207031-2.726563-2.402344-4.054688-3.632813-1.53125-1.425781-3.007812-2.902343-4.496094-4.367187-1.289062-1.273437-2.601562-2.527344-3.867187-3.832031-.230469-.25-.453125-.503906-.6875-.746094 17.445312-9.015625 35.828125-16.09375 54.816406-21.101562 9.878906 31.492187 27.449219 60.027343 51.128906 83.023437-.648437-.167969-1.304687-.304687-1.953125-.480469-1.613281-.40625-3.285156-.9375-4.949218-1.425781zm-109.785157-357.824219c19.214844 10.414063 39.59375 18.523438 60.710938 24.160156-10.351563 35.996094-15.785157 73.230469-16.152344 110.683594h-95.917969c1.742188-49.390625 19.800782-96.808594 51.359375-134.84375zm11.503907-12.878906c1.261718-1.3125 2.574218-2.566406 3.863281-3.839844 1.488281-1.464844 2.96875-2.933594 4.488281-4.351562 1.335938-1.246094 2.710938-2.449219 4.078125-3.664063 1.546875-1.367187 3.082031-2.734375 4.664063-4.054687 1.394531-1.175782 2.824218-2.304688 4.25-3.441406 1.601562-1.28125 3.199218-2.558594 4.847656-3.792969 1.457031-1.09375 2.9375-2.160157 4.425781-3.199219 1.652344-1.183594 3.316406-2.398438 5.007813-3.503906 1.511718-1.023438 3.039062-2.015625 4.574218-3 1.710938-1.09375 3.433594-2.175782 5.167969-3.199219 1.5625-.933594 3.136719-1.851563 4.71875-2.753906 1.773437-1.007813 3.550781-1.992188 5.335937-2.949219 1.601563-.855469 3.203126-1.6875 4.800782-2.503906 1.824218-.921875 3.664062-1.808594 5.511718-2.679688 1.601563-.761718 3.265626-1.523437 4.914063-2.242187 1.878906-.800781 3.78125-1.597657 5.6875-2.398438 1.65625-.679687 3.304687-1.34375 4.976563-1.984375 1.933593-.738281 3.894531-1.425781 5.855468-2.113281 1.671875-.582031 3.34375-1.167969 5.039063-1.71875 1.992187-.640625 4-1.234375 6.015625-1.816406 1.6875-.488281 3.359375-.992188 5.058594-1.449219.644531-.167969 1.292968-.304688 1.941406-.472656-23.679688 22.996094-41.253906 51.53125-51.128906 83.027344-18.988282-5.007813-37.367188-12.082032-54.8125-21.097657.261718-.28125.484374-.558593.71875-.800781zm223.625-59.261719c2.023437.589844 4.054687 1.183594 6.054687 1.832031 1.6875.542969 3.351563 1.125 5.015625 1.710938 1.96875.679688 3.9375 1.375 5.878906 2.121094 1.664063.628906 3.304688 1.292968 4.953125 1.964844 1.910157.800781 3.824219 1.601562 5.71875 2.402343 1.632813.71875 3.257813 1.460938 4.875 2.222657 1.863281.878906 3.71875 1.777343 5.597657 2.703124 1.601562.800782 3.199218 1.601563 4.800781 2.472657 1.808593.96875 3.601562 1.960937 5.390625 2.984375 1.601562.886718 3.121094 1.800781 4.664062 2.726562 1.761719 1.058594 3.488282 2.144532 5.21875 3.257813 1.519532.96875 3.039063 1.953125 4.535156 2.960937 1.703126 1.152344 3.382813 2.34375 5.054688 3.542969 1.472656 1.046875 2.9375 2.105469 4.382812 3.199219 1.648438 1.242187 3.265626 2.527344 4.890626 3.824218 1.40625 1.121094 2.824218 2.242188 4.207031 3.410157 1.601562 1.328125 3.144531 2.710937 4.695312 4.085937 1.359375 1.207032 2.730469 2.402344 4.058594 3.632813 1.527344 1.425781 3.007813 2.902343 4.496094 4.367187 1.285156 1.273438 2.597656 2.527344 3.863281 3.832032.230469.25.453125.503906.6875.746093-17.445312 9.015625-35.828125 16.09375-54.816406 21.101563-9.894532-31.496094-27.492188-60.03125-51.191406-83.015625.648437.167969 1.304687.304687 1.949218.480469 1.683594.417968 3.355469.945312 5.019532 1.433593zm65.222656 206.984375c-.367188-37.453125-5.800782-74.6875-16.152344-110.683594 21.117188-5.636718 41.492188-13.746093 60.710938-24.160156 31.554687 38.035156 49.617187 85.453125 51.359374 134.84375zm-31.746094 122.710938c-26.632812-6.128906-53.800781-9.636719-81.117188-10.472656h-.265624c-4.417969-.070313-8.058594 3.453124-8.128907 7.871093-.070312 4.417969 3.457031 8.058594 7.875 8.128907 25.789063.792968 51.445313 4.054687 76.613281 9.742187-18.871093 52.777344-48.886718 88.523437-83.125 93.386719v-79.367188c0-4.421875-3.582031-8-8-8-4.421874 0-8 3.578125-8 8v79.367188c-34.234374-4.863282-64.25-40.601563-83.121093-93.378906 11.695312-2.652344 23.742187-4.949219 36.183593-6.542969 2.109376-.265625 4.023438-1.355469 5.324219-3.035157 1.300781-1.679687 1.882813-3.808593 1.613281-5.914062-.25-2.117188-1.339843-4.046875-3.023437-5.347656-1.6875-1.304688-3.828125-1.871094-5.9375-1.574219-13.164063 1.726563-26.234375 4.113281-39.160156 7.152344-10.773438-37.28125-16.125-75.921875-15.878907-114.726563-.253906-38.8125 5.085938-77.457031 15.855469-114.746094 31.53125 7.230469 63.789063 10.835938 96.144531 10.746094 32.351563.085938 64.605469-3.519531 96.140626-10.746094 10.769531 37.289063 16.109374 75.933594 15.859374 114.746094.253907 38.796875-5.085937 77.433594-15.851562 114.710938zm-104.148438-234.945313c-27.972656-.390625-55.824218-3.667969-83.121093-9.785156 18.878906-52.757813 48.886719-88.484375 83.121093-93.351563zm16 0v-103.136719c34.230469 4.867188 64.238282 40.59375 83.117188 93.351563-27.296875 6.113281-55.148438 9.394531-83.117188 9.785156zm-135.898437 128.234375c.367187 37.453125 5.800781 74.683594 16.152344 110.679688-21.117188 5.640625-41.492188 13.75-60.710938 24.160156-31.554687-38.035156-49.617187-85.453125-51.359375-134.839844zm239.640625 110.679688c10.351562-35.996094 15.785156-73.226563 16.152344-110.679688h95.917968c-1.742187 49.386719-19.800781 96.804688-51.359374 134.839844-19.214844-10.414062-39.59375-18.523438-60.710938-24.160156zm0 0"/><path d="m267.257812 232.222656 32-80h-97.847656l-36.574218 128h56.847656l-20.640625 103.300782 118.863281-151.300782zm-81.207031 32 27.425781-96h62.152344l-32 80h43.351563l-57.136719 72.695313 11.359375-56.695313zm0 0"/></svg>