<svg height="480pt" viewBox="-40 0 480 480" width="480pt" xmlns="http://www.w3.org/2000/svg"><path d="m392 0h-384c-4.417969 0-8 3.582031-8 8v464c0 4.417969 3.582031 8 8 8h384c4.417969 0 8-3.582031 8-8v-464c0-4.417969-3.582031-8-8-8zm-376 464v-448h48v448zm368 0h-304v-448h304zm0 0"/><path d="m94.328125 48.496094c3.097656 9 30.710937 88.414062 47.199219 104.878906 16.527344 16.574219 42.632812 18.726562 61.648437 5.082031l9.136719 9.136719c7.515625 7.488281 11.722656 17.675781 11.6875 28.285156v28.121094h-56c-4.417969 0-8 3.582031-8 8v32c.035156 30.914062 25.085938 55.964844 56 56h32c30.914062-.035156 55.964844-25.085938 56-56v-32c0-4.417969-3.582031-8-8-8h-56v-28.121094c-.027344-10.613281 4.191406-20.796875 11.710938-28.285156l9.144531-9.136719c19.019531 13.644531 45.121093 11.492188 61.648437-5.082031 16.457032-16.464844 44.070313-95.878906 47.199219-104.878906.996094-2.890625.253906-6.097656-1.90625-8.261719-2.164063-2.160156-5.367187-2.902344-8.261719-1.90625-9 3.097656-88.421875 30.703125-104.871094 47.199219-16.578124 16.542968-18.761718 42.648437-5.160156 61.710937l-9.105468 9.042969c-3.230469 3.261719-6.050782 6.902344-8.398438 10.847656-2.347656-3.945312-5.167969-7.585937-8.398438-10.847656l-9.074218-9.082031c13.601562-19.0625 11.417968-45.167969-5.160156-61.710938-16.445313-16.464843-95.871094-44.074219-104.871094-47.199219-2.890625-.996093-6.097656-.257812-8.261719 1.90625-2.160156 2.164063-2.902344 5.367188-1.90625 8.261719zm193.671875 191.503906v24c-.027344 22.082031-17.917969 39.972656-40 40h-32c-22.082031-.027344-39.972656-17.917969-40-40v-24zm-31.433594-120.566406c-.027344-8.496094 3.351563-16.648438 9.378906-22.632813 8.886719-8.890625 50.648438-25.96875 83.007813-37.761719-11.792969 32.359376-28.875 74.121094-37.761719 83.015626-10.324218 10.246093-26.261718 12.238281-38.792968 4.847656l55.769531-55.757813c3.125-3.125 3.125-8.195312 0-11.320312s-8.195313-3.125-11.320313 0l-55.769531 55.777343c-2.921875-4.890624-4.480469-10.472656-4.511719-16.167968zm-58.511718-22.632813c10.363281 10.265625 12.371093 26.285157 4.855468 38.792969l-55.757812-55.769531c-3.125-3.125-8.195313-3.125-11.320313 0s-3.125 8.195312 0 11.320312l55.769531 55.757813c-12.53125 7.390625-28.46875 5.398437-38.792968-4.847656-8.886719-8.886719-25.960938-50.65625-37.761719-83.015626 32.359375 11.800782 74.128906 28.882813 83.007813 37.761719zm0 0"/><path d="m336 352h-224c-4.417969 0-8 3.582031-8 8s3.582031 8 8 8h224c4.417969 0 8-3.582031 8-8s-3.582031-8-8-8zm0 0"/><path d="m336 384h-224c-4.417969 0-8 3.582031-8 8s3.582031 8 8 8h224c4.417969 0 8-3.582031 8-8s-3.582031-8-8-8zm0 0"/><path d="m336 416h-224c-4.417969 0-8 3.582031-8 8s3.582031 8 8 8h224c4.417969 0 8-3.582031 8-8s-3.582031-8-8-8zm0 0"/></svg>