<?xml version="1.0" encoding="utf-8"?>
<!-- Generator: Adobe Illustrator 21.1.0, SVG Export Plug-In . SVG Version: 6.00 Build 0)  -->
<svg version="1.1" id="Forma_1_1_" xmlns="http://www.w3.org/2000/svg" xmlns:xlink="http://www.w3.org/1999/xlink" x="0px" y="0px"
	 width="14.389px" height="16px" viewBox="0 0 14.389 16" style="enable-background:new 0 0 14.389 16;" xml:space="preserve">
<g id="Forma_1">
	<g>
		<path style="fill-rule:evenodd;clip-rule:evenodd;fill:#0D73FC;" d="M12.79,1.6h-0.799V0h-1.599v1.6H3.997V0H2.398v1.6H1.599
			c-0.883,0-1.591,0.716-1.591,1.6L0,14.4C0,15.284,0.715,16,1.599,16H12.79c0.883,0,1.599-0.716,1.599-1.6V3.2
			C14.389,2.316,13.673,1.6,12.79,1.6z M12.79,14.4H1.599V5.6H12.79V14.4z M10.816,8.048L9.968,7.2l-3.901,3.904L4.373,9.408
			l-0.847,0.848L6.067,12.8L10.816,8.048z"/>
	</g>
</g>
</svg>
