<svg height="479pt" viewBox="0 -47 479.41911 479" width="479pt" xmlns="http://www.w3.org/2000/svg"><path d="m383.796875 112.242188c-8.300781 0-16.5625 1.074218-24.585937 3.199218.394531-3.722656.589843-7.460937.585937-11.199218.015625-49.683594-35.113281-92.441407-83.855469-102.0625-48.742187-9.625-97.484375 16.570312-116.351562 62.53125-23.816406-13.578126-53.636719-10.503907-74.175782 7.65625-20.542968 18.15625-27.253906 47.371093-16.699218 72.671874-41.527344 5.917969-71.433594 42.910157-68.523438 84.757813 2.914063 41.847656 37.65625 74.335937 79.605469 74.445313 4.417969 0 8-3.582032 8-8 0-4.421876-3.582031-8-8-8-35.347656 0-64-28.65625-64-64 0-35.347657 28.652344-64 64-64h1.214844c3.125.3125 6.148437-1.207032 7.761719-3.898438 1.59375-2.714844 1.449218-6.109375-.367188-8.679688-5.652344-8.023437-8.660156-17.609374-8.609375-27.421874-.007813-18.617188 10.761719-35.558594 27.625-43.445313 16.867187-7.886719 36.769531-5.296875 51.054687 6.644531 2.066407 1.746094 4.878907 2.328125 7.46875 1.546875 2.59375-.78125 4.613282-2.820312 5.371094-5.417969 12.675782-46.925781 60.984375-74.6875 107.90625-62.015624 46.925782 12.675781 74.6875 60.988281 62.015625 107.910156-.734375 2.949218.261719 6.054687 2.574219 8.027344 2.316406 1.96875 5.542969 2.457031 8.335938 1.261718 29.035156-12.539062 62.730468-6.792968 85.972656 14.65625 23.238281 21.449219 31.660156 54.578125 21.488281 84.523438-10.175781 29.945312-37.035156 51.085937-68.53125 53.9375-2.402344.21875-4.800781.371094-7.28125.371094-4.417969 0-8 3.578124-8 8 0 4.417968 3.582031 8 8 8 2.96875 0 5.839844-.167969 8.710937-.433594 50.949219-4.84375 89.136719-48.804688 86.8125-99.929688-2.324218-51.125-44.347656-91.4375-95.523437-91.636718zm0 0"/><path d="m79.347656 176.242188c-26.253906.433593-47.363281 21.742187-47.550781 48 0 4.417968 3.582031 8 8 8s8-3.582032 8-8c.148437-17.53125 14.261719-31.738282 31.792969-32 4.417968-.066407 7.945312-3.703126 7.878906-8.121094.015625-2.136719-.839844-4.1875-2.375-5.675782-1.535156-1.488281-3.609375-2.285156-5.746094-2.203124zm0 0"/><path d="m383.796875 160.242188c26.5.023437 47.972656 21.5 48 48 0 4.417968 3.582031 8 8 8s8-3.582032 8-8c-.039063-35.332032-28.671875-63.960938-64-64-4.417969 0-8 3.578124-8 8 0 4.417968 3.582031 8 8 8zm0 0"/><path d="m317.652344 95.800781c.695312-.003906 1.390625-.097656 2.0625-.273437 4.273437-1.136719 6.8125-5.519532 5.671875-9.789063-5.785157-21.746093-21.40625-39.539062-42.222657-48.085937-20.816406-8.550782-44.429687-6.875-63.832031 4.523437-2.539062 1.414063-4.109375 4.09375-4.105469 7 .003907 2.90625 1.582032 5.578125 4.121094 6.988281 2.542969 1.40625 5.648438 1.328126 8.113282-.210937 15.089843-8.859375 33.449218-10.152344 49.632812-3.503906 16.183594 6.652343 28.328125 20.484375 32.832031 37.390625.925781 3.511718 4.097657 5.957031 7.726563 5.960937zm0 0"/><path d="m263.796875 240.242188h-32c-17.671875 0-32 14.324218-32 32v80c0 17.671874 14.328125 32 32 32h32c17.671875 0 32-14.328126 32-32v-80c0-17.675782-14.328125-32-32-32zm16 112c0 8.835937-7.164063 16-16 16h-32c-8.835937 0-16-7.164063-16-16v-80c0-8.839844 7.164063-16 16-16h32c8.835937 0 16 7.160156 16 16zm0 0"/><path d="m127.796875 256.242188h32c8.835937 0 16 7.160156 16 16 0 4.417968 3.582031 8 8 8s8-3.582032 8-8c0-17.675782-14.328125-32-32-32h-32c-17.671875 0-32 14.324218-32 32v80c0 17.671874 14.328125 32 32 32h32c17.671875 0 32-14.328126 32-32 0-4.421876-3.582031-8-8-8s-8 3.578124-8 8c0 8.835937-7.164063 16-16 16h-32c-8.835937 0-16-7.164063-16-16v-80c0-8.839844 7.164063-16 16-16zm0 0"/><path d="m343.796875 288.242188h-16c-13.253906 0-24 10.742187-24 24 0 4.417968 3.582031 8 8 8s8-3.582032 8-8c0-4.421876 3.582031-8 8-8h16c4.417969 0 8 3.578124 8 8v7.4375c0 2.675781-1.335937 5.171874-3.558594 6.65625l-33.753906 22.496093c-6.675781 4.453125-10.6875 11.945313-10.6875 19.96875v7.441407c0 4.417968 3.582031 8 8 8h48c4.417969 0 8-3.582032 8-8 0-4.421876-3.582031-8-8-8h-40c.171875-2.472657 1.480469-4.722657 3.542969-6.097657l33.753906-22.496093c6.679688-4.445313 10.699219-11.941407 10.703125-19.96875v-7.4375c0-13.257813-10.746094-24-24-24zm0 0"/></svg>