<svg height="480pt" viewBox="0 0 480.23214 480" width="480pt" xmlns="http://www.w3.org/2000/svg"><path d="m294.726562 160.117188h-52.839843c-4.417969 0-8 3.582031-8 8 0 4.417968 3.582031 8 8 8h44.488281l-2.277344 47.949218c-.214844 4.414063 3.191406 8.167969 7.605469 8.378906h.394531c4.273438.003907 7.796875-3.355468 8-7.625l2.679688-56.335937c.101562-2.1875-.695313-4.320313-2.207032-5.902344-1.511718-1.582031-3.605468-2.476562-5.792968-2.472656zm0 0"/><path d="m477.496094 106.042969-56-48c-2.152344-1.988281-5.21875-2.640625-7.996094-1.699219-2.773438.9375-4.8125 3.320312-5.316406 6.207031-.5 2.886719.617187 5.816407 2.914062 7.636719l53.191406 45.609375v12.320313h-39.378906c-8.007812-.011719-15.496094 3.976562-19.957031 10.628906s-5.3125 15.089844-2.265625 22.496094l21.855469 80.960937c.945312 3.496094 4.121093 5.921875 7.746093 5.914063h32v184c0 17.671874-14.328124 32-32 32-17.675781 0-32-14.328126-32-32v-88.082032c-.074218-30.863281-25.054687-55.878906-55.921874-56h-15.277344l6.863281-144.71875c18.757813-3.664062 32.308594-20.085937 32.335937-39.199218v-64c-.027343-22.082032-17.921874-39.976563-40-40h-240c-22.082031.023437-39.976562 17.917968-40 40v64c.027344 19.113281 13.574219 35.535156 32.335938 39.199218l1.765625 36.917969c-37.300781-11.535156-69.6875-19.527344-72.503906-20.222656-.558594-.125-1.128907-.1875-1.703125-.191407-.078125 0-.160156 0-.246094 0-.914062.015626-1.816406.191407-2.664062.519532-.203126.070312-.386719.152344-.578126.238281-1.785156.722656-3.203124 2.136719-3.925781 3.921875-.089843.207031-.175781.398438-.257812.617188-.316407.839843-.4921878 1.730468-.511719 2.632812v.285156c0 .5625.0625 1.125.183594 1.671875.894531 3.671875 13.855468 56.21875 31 105.289063.046875.121094.074218.246094.128906.367187 6.410156 19.046875 14.121094 37.632813 23.070312 55.625.113282.257813.242188.507813.386719.75 4.03125 8.277344 9.222657 15.933594 15.414063 22.746094 6.375 6.226563 13.527344 11.605469 21.28125 16l4.824218 102.007813c.199219 4.269531 3.722657 7.628906 8 7.625h208c4.273438.003906 7.796876-3.355469 8-7.625l8-168.457032h16c22.042969.089844 39.886719 17.953125 39.941407 40v88.082032c0 26.507812 21.492187 48 48 48 26.511719 0 48-21.492188 48-48v-320c.015625-2.328126-.984375-4.542969-2.734375-6.074219zm-413.207032-1.925781v-64c0-13.257813 10.742188-24 24-24h240c13.253907 0 24 10.742187 24 24v64c0 13.253906-10.746093 24-24 24h-240c-13.257812 0-24-10.746094-24-24zm96 122.445312v82.242188l-40-40v-58.945313c13.621094 4.851563 26.972657 10.425781 40 16.703125zm23.03125 14.761719c26.273438 26.273437 37.863282 77.335937 16.480469 106.992187l-23.511719-23.511718v-89.066407c2.5 1.65625 4.851563 3.523438 7.03125 5.585938zm-133.289062 38.792969h58.945312l40 40h-82.242187c-6.277344-13.027344-11.851563-26.378907-16.703125-40zm-26.886719-85.832032 69.832031 69.832032h-48.570312c-8.199219-24.089844-15.621094-49.257813-21.261719-69.832032zm81.144531 58.519532-69.832031-69.832032c20.574219 5.597656 45.742188 13.0625 69.832031 21.253906zm-28.378906 83.3125h89.066406l23.511719 23.511718c-29.65625 21.382813-80.71875 9.792969-106.992187-16.480468-2.0625-2.179688-3.929688-4.53125-5.585938-7.03125zm31.945313 42.34375c13.5 5.359374 27.875 8.171874 42.402343 8.296874 17.839844.472657 35.324219-5.050781 49.652344-15.691406l11.273438 11.273438c13.554687 13.472656 21.152344 31.804687 21.105468 50.914062v30.863282h-120.367187zm196.800781 85.65625h-56.367188v-30.863282c.0625-23.351562-9.21875-45.761718-25.777343-62.226562l-11.304688-11.304688c28.304688-36.222656 15.578125-97.558594-16.574219-129.710937-6.8125-6.191407-14.46875-11.382813-22.746093-15.414063-.242188-.144531-.492188-.273437-.75-.386718-18-8.953126-36.59375-16.660157-55.648438-23.070313-.121093-.054687-.25-.082031-.367187-.128906-5.480469-1.910157-10.992188-3.769531-16.488282-5.601563l-1.953124-41.292968h223.199218zm113.351562-307.585938c-.105468-.398438-.242187-.789062-.40625-1.167969-1.101562-2.472656-.875-5.335937.601563-7.609375 1.476563-2.269531 4-3.636718 6.707031-3.636718h39.378906v88h-25.875zm0 0"/><path d="m328.289062 112.117188c4.417969 0 8-3.582032 8-8v-64c0-4.417969-3.582031-8-8-8h-240c-4.417968 0-8 3.582031-8 8v64c0 4.417968 3.582032 8 8 8zm-232-64h224v48h-224zm0 0"/></svg>