<svg height="479pt" viewBox="0 1 479 479.99977" width="479pt" xmlns="http://www.w3.org/2000/svg"><path d="m477.042969 161.414062-232-160c-2.734375-1.886718-6.351563-1.886718-9.085938 0l-232 160c-2.882812 1.992188-4.136719 5.621094-3.09375 8.964844 1.039063 3.34375 4.136719 5.621094 7.636719 5.621094h40v296c0 4.417969 3.582031 8 8 8h368c4.417969 0 8-3.582031 8-8v-296h40c3.5 0 6.59375-2.277344 7.636719-5.621094s-.210938-6.972656-3.09375-8.964844zm-52.542969-1.414062c-4.417969 0-8 3.582031-8 8v296h-352v-296c0-4.417969-3.582031-8-8-8h-22.3125l206.3125-142.28125 206.3125 142.28125zm0 0"/><path d="m235.957031 40.289062-152 104.796876c-2.164062 1.496093-3.457031 3.957031-3.457031 6.585937v288.328125c0 4.417969 3.582031 8 8 8h304c4.417969 0 8-3.582031 8-8v-288.304688c0-2.628906-1.292969-5.089843-3.457031-6.582031l-152-104.800781c-2.730469-1.894531-6.347657-1.90625-9.085938-.023438zm148.542969 115.605469v276.105469h-264v-14.863281c-.054688-19.105469 7.539062-37.441407 21.085938-50.914063l11.273437-11.269531c14.328125 10.636719 31.816406 16.164063 49.65625 15.6875 29.828125-.203125 58.464844-11.75 80.089844-32.296875 6.191406-6.8125 11.378906-14.46875 15.414062-22.742188.144531-.242187.273438-.496093.382813-.753906 8.953125-18 16.664062-36.59375 23.074218-55.648437.054688-.121094.078126-.246094.128907-.367188 17.140625-49.070312 30.101562-101.601562 31-105.289062.117187-.546875.179687-1.109375.183593-1.671875 0-.09375 0-.191406 0-.289063-.023437-.898437-.195312-1.789062-.511718-2.628906-.082032-.21875-.167969-.410156-.257813-.617187-.386719-.875-.929687-1.671876-1.601562-2.351563-.699219-.671875-1.511719-1.210937-2.398438-1.601563-.191406-.085937-.375-.167968-.574219-.238281-.851562-.328125-1.753906-.503906-2.664062-.519531-.082031 0-.160156 0-.25 0-.574219.003906-1.144531.066406-1.703125.191406-3.671875.894532-56.214844 13.855469-105.289063 31-.121093.046875-.246093.070313-.367187.128906-19.046875 6.410157-37.632813 14.117188-55.625 23.070313-.257813.113281-.507813.242187-.75.382813-8.277344 4.035156-15.933594 9.226562-22.746094 15.417968-32.152343 32.152344-44.878906 93.488282-16.574219 129.710938l-11.304687 11.304687c-16.539063 16.503907-25.785156 38.941407-25.671875 62.304688v14.863281h-8v-276.105469l144-99.304687zm-215.03125 69.3125c2.175781-2.066406 4.527344-3.941406 7.03125-5.597656v89.078125l-23.511719 23.511719c-21.382812-29.65625-9.792969-80.71875 16.480469-106.992188zm63.03125-31.464843v58.945312l-40 40v-82.238281c13.023438-6.28125 26.378906-11.855469 40-16.707031zm85.832031-26.886719-69.832031 69.832031v-48.566406c24.085938-8.203125 49.253906-15.625 69.832031-21.265625zm-130.519531 153.144531h89.0625c-1.660156 2.5-3.53125 4.855469-5.597656 7.03125-26.273438 26.273438-77.335938 37.863281-106.992188 16.480469zm98.238281-16h-82.238281l40-40h58.941406c-4.847656 13.621094-10.421875 26.972656-16.703125 40zm22.335938-56h-48.574219l69.832031-69.832031c-5.632812 20.574219-13.066406 45.742187-21.257812 69.832031zm0 0"/></svg>