<svg height="480pt" viewBox="0 0 480.64808 480" width="480pt" xmlns="http://www.w3.org/2000/svg"><path d="m480.648438 167.941406c-.019532-.90625-.195313-1.804687-.519532-2.648437-.074218-.207031-.160156-.40625-.257812-.601563-.382813-.878906-.925782-1.679687-1.597656-2.359375-.699219-.671875-1.511719-1.214843-2.402344-1.601562l-.582032-.246094c-.859374-.324219-1.765624-.5-2.679687-.519531h-.152344c-.597656.003906-1.195312.074218-1.777343.207031-3.671876.894531-56.214844 13.855469-105.289063 31-.125.046875-.253906.082031-.382813.136719-19.042968 6.40625-37.625 14.113281-55.617187 23.0625-.257813.117187-.511719.246094-.757813.386718-8.269531 4.035157-15.925781 9.226563-22.738281 15.414063-32.152343 32.152344-44.886719 93.488281-16.574219 129.710937l-11.304687 11.304688c-7.382813 7.457031-13.378906 16.171875-17.695313 25.738281-4.347656-9.554687-10.367187-18.253906-17.777343-25.691406l-11.304688-11.300781c28.3125-36.226563 15.578125-97.5625-16.574219-129.714844-6.808593-6.1875-14.460937-11.375-22.726562-15.40625-.261719-.144531-.527344-.277344-.800781-.390625-17.988281-8.953125-36.570313-16.660156-55.617188-23.066406-.128906-.054688-.253906-.085938-.390625-.136719-49.03125-17.144531-101.578125-30.09375-105.207031-31-.582031-.132812-1.175781-.199219-1.769531-.199219h-.160156c-.921876.019531-1.828126.199219-2.6875.527344-.191407.074219-.375.152344-.570313.242187-.886719.382813-1.703125.925782-2.398437 1.597657-.660157.6875-1.1875 1.484375-1.558594 2.359375-.097656.195312-.183594.398437-.257813.601562-.324219.847656-.4999998 1.742188-.519531 2.648438v.238281c-.00390625.578125.0585938 1.152344.183594 1.714844.90625 3.671875 13.863281 56.230469 31.007812 105.304687.046875.109375.074219.230469.128906.34375 6.40625 19.058594 14.117188 37.652344 23.078126 55.65625.105468.234375.222656.464844.355468.6875 4.035156 8.285156 9.230469 15.957032 15.429688 22.78125 21.636718 20.535156 50.28125 32.0625 80.113281 32.242188 17.84375.476562 35.332031-5.046875 49.664063-15.6875l11.269531 11.269531c13.546875 13.476563 21.136719 31.808594 21.089843 50.914063v38.863281c0 4.417969 3.582032 8 8 8 4.417969 0 8-3.582031 8-8v-38.863281c-.050781-19.105469 7.542969-37.4375 21.085938-50.914063l11.273438-11.269531c14.332031 10.640625 31.820312 16.164062 49.664062 15.6875 29.828125-.207032 58.460938-11.753906 80.089844-32.296875 6.195312-6.824219 11.390625-14.496094 15.429687-22.785157.128907-.222656.25-.449218.351563-.6875 8.960937-18.003906 16.671875-36.605468 23.082031-55.671874.054687-.121094.078125-.238282.128906-.359376 17.140625-49.0625 30.101563-101.601562 31.007813-105.296874.121094-.5625.183594-1.136719.183594-1.710938.007812-.054688.03125-.136719.03125-.214844zm-280.800782 180.582032-23.527344-23.511719v-89.0625c2.5 1.660156 4.855469 3.53125 7.03125 5.597656 26.265626 26.257813 37.863282 77.320313 16.480469 106.976563zm-149.785156-68.199219h58.945312l40 40h-82.238281c-6.28125-13.027344-11.855469-26.378907-16.707031-40zm-15.574219-97.144531c20.574219 5.640624 45.742188 13.0625 69.832031 21.265624v48.566407zm58.519531 81.144531h-48.566406c-8.203125-24.089844-15.632812-49.257813-21.265625-69.832031zm27.3125 4.6875v-58.945313c13.621094 4.851563 26.972657 10.425782 40 16.707032v82.238281zm-38.800781 74.34375c-2.0625-2.179688-3.933593-4.535157-5.597656-7.03125h89.085937l23.511719 23.511719c-29.648437 21.390624-80.726562 9.792968-107-16.480469zm354.6875-79.03125h-48.574219l69.832032-69.832031c-5.632813 20.574218-13.058594 45.742187-21.257813 69.832031zm-22.335937 56h-82.238282l40-40h58.941407c-4.839844 13.625-10.417969 26.976562-16.703125 40zm-53.550782-51.3125-40 40v-82.238281c13.023438-6.28125 26.378907-11.855469 40-16.707032zm16-64.566407c24.085938-8.203124 49.253907-15.625 69.832032-21.265624l-69.832032 69.832031zm-79.03125 37.085938c2.175782-2.066406 4.53125-3.941406 7.03125-5.597656v89.078125l-23.511718 23.511719c-21.382813-29.65625-9.785156-80.71875 16.480468-106.992188zm-5.167968 118.304688 23.511718-23.511719h89.070313c-1.664063 2.496093-3.539063 4.851562-5.597656 7.03125-26.265625 26.265625-77.320313 37.878906-106.984375 16.480469zm0 0"/><path d="m120.320312 144.324219h48c4.417969 0 8-3.582031 8-8s-3.582031-8-8-8h-48c-4.417968 0-8-3.582031-8-8v-40h40c4.417969 0 8-3.582031 8-8s-3.582031-8-8-8h-40v-40c0-4.417969 3.582032-8 8-8h48c4.417969 0 8-3.582031 8-8s-3.582031-8-8-8h-48c-13.253906 0-24 10.746093-24 24v96c0 13.253906 10.746094 24 24 24zm0 0"/><path d="m336.320312 144.324219h32c17.671876 0 32-14.328125 32-32v-80c0-17.671875-14.328124-32-32-32h-32c-17.671874 0-32 14.328125-32 32v80c0 17.671875 14.328126 32 32 32zm-16-112c0-8.835938 7.164063-16 16-16h32c8.835938 0 16 7.164062 16 16v80c0 8.835937-7.164062 16-16 16h-32c-8.835937 0-16-7.164063-16-16zm0 0"/><path d="m224.320312 144.324219h32c17.671876 0 32-14.328125 32-32 0-4.417969-3.582031-8-8-8-4.417968 0-8 3.582031-8 8 0 8.835937-7.164062 16-16 16h-32c-8.835937 0-16-7.164063-16-16v-80c0-8.835938 7.164063-16 16-16h32c8.835938 0 16 7.164062 16 16 0 4.417969 3.582032 8 8 8 4.417969 0 8-3.582031 8-8 0-17.671875-14.328124-32-32-32h-32c-17.671874 0-32 14.328125-32 32v80c0 17.671875 14.328126 32 32 32zm0 0"/></svg>