<svg height="480pt" viewBox="0 0 480.504 480" width="480pt" xmlns="http://www.w3.org/2000/svg"><path d="m416.503906 280.605469v-144.472657c0-48.597656-39.398437-88-88-88-48.601562 0-88 39.402344-88 88v208c0 39.765626-32.234375 72-72 72s-72-32.234374-72-72v-55.460937c45.351563-5.953125 79.433594-58.121094 79.433594-103.402344-.441406-9.183593-2.183594-18.261719-5.175781-26.957031-.074219-.273438-.164063-.542969-.273438-.800781-6.386719-19.050781-14.074219-37.644531-23.007812-55.640625-.054688-.128906-.128907-.242188-.183594-.367188-19.96875-41.449218-44.160156-82.433594-50.792969-93.578125-.152344-3.730469-2.867187-6.863281-6.542968-7.539062-3.671876-.679688-7.328126 1.273437-8.800782 4.707031-1.960937 3.199219-29.953125 49.546875-52.527344 96.359375-.058593.128906-.128906.242187-.175781.371094-8.945312 18.003906-16.636719 36.601562-23.023437 55.664062-.09375.242188-.175782.492188-.242188.742188-3.003906 8.714843-4.75 17.808593-5.191406 27.015625 0 45.65625 34.65625 98.257812 80.566406 103.480468v55.40625c0 48.601563 39.402344 88 88 88 48.601563 0 88-39.398437 88-88v-208c0-39.761718 32.238282-72 72-72 39.765625 0 72 32.238282 72 72v144.472657c-36.4375 4.078125-64.007812 34.863281-64.0625 71.527343v64c0 4.421876 3.582032 8 8 8h8v48c0 4.421876 3.582032 8 8 8h24c4.417969 0 8-3.578124 8-8v-48h32v48c0 4.421876 3.582032 8 8 8h24c4.417969 0 8-3.578124 8-8v-48h8c4.417969 0 8-3.578124 8-8v-64c-.050781-36.644531-27.585937-67.417968-64-71.527343zm-378.246094-162.152344 42.246094 42.25v56.574219l-58.71875-58.742188c4.769532-13.644531 10.265625-27.023437 16.472656-40.082031zm115.847657 40.082031-57.601563 57.597656v-56.566406l41.105469-41.113281c6.210937 13.058594 11.714844 26.4375 16.496094 40.082031zm-57.601563-21.601562v-97.183594c10.449219 18.402344 22.742188 41 33.777344 63.417969zm-16 1.136718-34.910156-34.902343c11.429688-23.242188 24.230469-46.714844 34.910156-65.433594zm16 134.402344v-33.714844l62.398438-62.398437c.601562 2.933594.941406 5.917969 1.027344 8.910156.007812 36.953125-27.617188 80.960938-63.425782 87.183594zm-80.566406-87.203125c.082031-2.996093.425781-5.980469 1.023438-8.917969l63.542968 63.550782v32.800781c-36.367187-5.464844-64.566406-50.082031-64.566406-87.433594zm360.566406 278.863281h-8v-40h8zm72 0h-8v-40h8zm16-56h-112v-56c0-30.925781 25.070313-56 56-56 30.929688 0 56 25.074219 56 56zm0 0"/><path d="m408.503906 312.132812c-4.417968 0-8 3.582032-8 8 0 4.421876 3.582032 8 8 8 13.253906 0 24 10.746094 24 24v8c0 4.421876 3.582032 8 8 8 4.417969 0 8-3.578124 8-8v-8c-.027344-22.078124-17.917968-39.972656-40-40zm0 0"/></svg>