<svg height="480pt" viewBox="0 0 480 480" width="480pt" xmlns="http://www.w3.org/2000/svg"><path d="m280 128c4.417969 0 8-3.582031 8-8v-80c0-4.417969-3.582031-8-8-8h-240c-4.417969 0-8 3.582031-8 8v80c0 4.417969 3.582031 8 8 8zm-232-80h224v64h-224zm0 0"/><path d="m472 80h-8v-24c0-4.417969-3.582031-8-8-8s-8 3.582031-8 8v24h-16v-24c0-4.417969-3.582031-8-8-8s-8 3.582031-8 8v24h-8c-4.417969 0-8 3.582031-8 8v32c.023438 19 13.386719 35.371094 32 39.199219v224.800781c0 22.089844-17.910156 40-40 40s-40-17.910156-40-40v-152c-.027344-22.082031-17.917969-39.972656-40-40h-26.6875l1.550781-32.695312c19.117188-3.332032 33.085938-19.898438 33.136719-39.304688v-80c-.027344-22.082031-17.917969-39.9726562-40-40h-240c-22.082031.0273438-39.9726562 17.917969-40 40v80c.0507812 19.40625 14.019531 35.972656 33.136719 39.304688l14.863281 313.070312c.199219 4.273438 3.722656 7.628906 8 7.625h208c4.277344.003906 7.800781-3.351562 8-7.625l12.550781-264.375h27.449219c13.253906 0 24 10.746094 24 24v152c0 30.929688 25.070312 56 56 56s56-25.070312 56-56v-224.800781c18.613281-3.828125 31.976562-20.199219 32-39.199219v-32c0-4.417969-3.582031-8-8-8zm-456 40v-80c0-13.253906 10.746094-24 24-24h240c13.253906 0 24 10.746094 24 24v80c0 13.253906-10.746094 24-24 24h-240c-13.253906 0-24-10.746094-24-24zm240.367188 344h-192.734376l-14.441406-304h221.601563zm207.632812-344c0 13.253906-10.746094 24-24 24s-24-10.746094-24-24v-24h48zm0 0"/><path d="m219.816406 208h-97.847656l-36.578125 128h56.847656l-20.636719 103.304688 118.863282-151.304688h-52.648438zm-12.28125 96-57.136718 72.695312 11.363281-56.695312h-55.152344l27.421875-96h62.152344l-32 80zm0 0"/></svg>