<?xml version="1.0" encoding="utf-8"?>
<!-- Generator: Adobe Illustrator 21.1.0, SVG Export Plug-In . SVG Version: 6.00 Build 0)  -->
<svg version="1.1" id="Forma_1_1_" xmlns="http://www.w3.org/2000/svg" xmlns:xlink="http://www.w3.org/1999/xlink" x="0px" y="0px"
	 width="71.708px" height="70px" viewBox="0 0 71.708 70" style="enable-background:new 0 0 71.708 70;" xml:space="preserve">
<g id="Forma_1">
	<g>
		<path style="fill-rule:evenodd;clip-rule:evenodd;fill:#0D73FC;" d="M63.807,11.967c-0.004-0.005-0.009-0.009-0.013-0.014
			l-0.48-7.191c-0.027-0.411-0.293-0.768-0.679-0.913c-0.385-0.145-0.82-0.051-1.112,0.24l-2.907,2.906
			c-6.306-4.873-14.136-7.34-22.152-6.957c-8.367,0.399-16.239,3.882-22.167,9.808c-3.525,3.523-6.164,7.668-7.846,12.319
			c-0.001,0.003-0.002,0.006-0.003,0.009l-5.984,4.002c-0.343,0.229-0.519,0.637-0.452,1.044c0.067,0.406,0.366,0.736,0.764,0.843
			l3.971,1.066C4.099,33.993,4.521,39,5.982,43.673c1.607,5.14,4.483,9.884,8.317,13.717c6.359,6.357,14.951,9.845,23.8,9.845
			c1.961,0,3.934-0.171,5.899-0.521l6.467,3.178C50.613,69.965,50.771,70,50.929,70c0.239,0,0.475-0.081,0.667-0.239
			c0.318-0.262,0.454-0.685,0.347-1.083l-1.063-3.964c4.111-1.688,7.801-4.148,10.978-7.324c5.997-5.995,9.485-13.958,9.823-22.424
			C72.017,26.549,69.22,18.381,63.807,11.967z M15.785,11.332C27.011,0.109,44.594-1.031,57.118,8.494l-5.961,5.959
			c-0.41,0.41-0.41,1.075,0,1.485c0.41,0.41,1.075,0.41,1.486,0l8.73-8.727l0.918,13.765l-13.77-0.918l1.627-1.626
			c0.41-0.41,0.41-1.075,0-1.485c-0.053-0.053-0.11-0.098-0.17-0.138c-0.009-0.007-0.017-0.014-0.027-0.021
			c-3.918-2.769-8.725-4.08-13.534-3.695c-4.865,0.391-9.447,2.51-12.903,5.964c-1.478,1.478-2.704,3.14-3.662,4.959l-3.466-7.056
			c-0.133-0.272-0.378-0.473-0.67-0.551c-0.292-0.078-0.605-0.027-0.856,0.141l-5.253,3.513
			C11.14,16.835,13.209,13.906,15.785,11.332z M24.018,32.5l-2.984-6.074c0.927-2.199,2.259-4.176,3.965-5.882
			c6.109-6.108,15.504-7.159,22.755-2.689l-2.356,2.355c-0.292,0.291-0.386,0.726-0.241,1.112S45.66,21.973,46.071,22l6.752,0.45
			c5.581,7.338,4.899,17.681-1.665,24.243c-1.271,1.27-2.699,2.337-4.257,3.183l-0.863-3.218c-0.107-0.398-0.436-0.697-0.843-0.764
			c-0.406-0.067-0.815,0.109-1.044,0.452l-3.763,5.618C34.745,52.668,29.024,50.716,25,46.693
			c-3.616-3.615-5.549-8.506-5.409-13.579l3.212,0.863c0.09,0.024,0.182,0.036,0.273,0.036c0.309,0,0.609-0.137,0.811-0.383
			C24.148,33.312,24.2,32.87,24.018,32.5z M15.785,55.905C8.907,49.03,5.596,39.302,6.798,29.68l7.401,1.987
			c0.56,0.15,1.136-0.182,1.287-0.742c0.15-0.56-0.182-1.136-0.742-1.286L3.558,26.635l11.471-7.671l6.083,12.383l-2.222-0.597
			c-0.007-0.002-0.014-0.003-0.021-0.004c-0.023-0.005-0.045-0.011-0.068-0.015c-0.016-0.003-0.032-0.005-0.049-0.007
			c-0.012-0.001-0.023-0.004-0.034-0.005c-0.006-0.001-0.011,0-0.017-0.001c-0.024-0.002-0.047-0.003-0.071-0.003
			c-0.009,0-0.018,0-0.027,0c-0.031,0-0.062,0.002-0.092,0.005c-0.002,0-0.004,0-0.006,0.001c-0.418,0.045-0.786,0.34-0.901,0.771
			c-0.021,0.079-0.032,0.158-0.035,0.236c-0.561,6.116,1.604,12.109,5.946,16.45c2.317,2.316,5.181,4.064,8.282,5.054
			c2.027,0.647,4.162,0.975,6.296,0.975c0.268,0,0.535-0.006,0.803-0.016l-4.379,6.539c-0.168,0.252-0.22,0.564-0.142,0.856
			c0.078,0.292,0.279,0.537,0.551,0.67l5.655,2.779C31.426,65.757,22.339,62.457,15.785,55.905z M60.372,55.905
			c-2.915,2.914-6.289,5.183-10.042,6.761l-2.184-8.144c-0.15-0.56-0.727-0.892-1.287-0.742c-0.56,0.15-0.893,0.726-0.743,1.286
			l2.49,9.284c0,0,0,0.001,0,0.001l0.707,2.635l-12.385-6.086l7.678-11.463l0.596,2.221c0.145,0.539,0.683,0.866,1.223,0.756
			c0.018-0.003,0.035-0.007,0.052-0.011c0.004-0.001,0.008-0.001,0.012-0.003c0.005-0.001,0.009-0.003,0.014-0.005
			c0.056-0.015,0.112-0.033,0.166-0.058c2.221-1.018,4.231-2.418,5.974-4.16c6.887-6.885,7.958-17.509,2.859-25.55l7.846,0.523
			c0.023,0.002,0.047,0.002,0.07,0.002c0.278,0,0.545-0.11,0.743-0.307c0.214-0.214,0.325-0.51,0.305-0.812l-0.42-6.294
			C72.519,28.049,71.135,45.146,60.372,55.905z"/>
	</g>
</g>
</svg>
