<svg height="480pt" viewBox="0 0 480 480.16519" width="480pt" xmlns="http://www.w3.org/2000/svg"><path d="m65.035156 121.382812c15.976563-.074218 31.328125-6.230468 42.925782-17.21875 16.730468-16.726562 34.128906-86.398437 36.058593-94.261718.664063-2.71875-.136719-5.582032-2.113281-7.558594-1.976562-1.976562-4.84375-2.777344-7.558594-2.113281-7.863281 1.925781-77.546875 19.335937-94.265625 36.054687-9.3125 9.8125-15.207031 22.375-16.800781 35.808594-2.347656 13.632812 1.796875 27.582031 11.203125 37.726562 8.230469 7.78125 19.230469 11.941407 30.550781 11.5625zm-25.898437-47.371093c1.136719-9.890625 5.4375-19.148438 12.257812-26.398438 8.800781-8.800781 45.65625-20.855469 73.710938-28.457031-7.597657 28.058594-19.679688 64.929688-28.453125 73.714844-11.6875 11.214844-28.601563 15.085937-44 10.070312l18.542968-18.542968 18.65625 2.726562c.386719.0625.777344.089844 1.167969.089844 4.179688-.019532 7.644531-3.253906 7.945313-7.425782.304687-4.167968-2.65625-7.871093-6.792969-8.488281l-6.875-1.007812 17.027344-17.023438c2.078125-2.007812 2.910156-4.984375 2.179687-7.78125-.730468-2.796875-2.917968-4.980469-5.714844-5.710937-2.796874-.734375-5.769531.101562-7.777343 2.179687l-17.042969 17.007813-1.007812-6.871094c-.328126-2.898438-2.210938-5.390625-4.914063-6.496094-2.699219-1.109375-5.789063-.65625-8.058594 1.175782-2.269531 1.835937-3.363281 4.757812-2.851562 7.632812l2.738281 18.65625-18.519531 18.519531c-2.28125-5.558593-3.046875-11.621093-2.21875-17.570312zm0 0"/><path d="m193.035156 153.382812c15.976563-.074218 31.328125-6.230468 42.925782-17.21875 16.730468-16.726562 34.128906-86.398437 36.058593-94.261718.664063-2.71875-.136719-5.582032-2.113281-7.5625-1.988281-1.957032-4.84375-2.753906-7.558594-2.109375-7.863281 1.925781-77.546875 19.335937-94.265625 36.054687-9.3125 9.8125-15.207031 22.375-16.800781 35.808594-2.347656 13.632812 1.796875 27.582031 11.203125 37.726562 8.230469 7.78125 19.230469 11.941407 30.550781 11.5625zm-25.898437-47.371093c1.136719-9.890625 5.4375-19.148438 12.257812-26.398438 8.800781-8.800781 45.65625-20.855469 73.710938-28.457031-7.597657 28.058594-19.679688 64.929688-28.453125 73.714844-11.6875 11.214844-28.601563 15.085937-44 10.070312l18.542968-18.542968 18.65625 2.726562c.386719.0625.777344.089844 1.167969.089844 4.179688-.019532 7.644531-3.253906 7.945313-7.425782.304687-4.167968-2.65625-7.871093-6.792969-8.488281l-6.875-1.007812 17.027344-17.023438c3.03125-3.140625 2.988281-8.128906-.097657-11.214843-3.085937-3.085938-8.078124-3.128907-11.214843-.097657l-17.042969 17.007813-1.007812-6.871094c-.328126-2.898438-2.210938-5.390625-4.914063-6.496094-2.699219-1.109375-5.789063-.65625-8.058594 1.175782-2.269531 1.835937-3.363281 4.757812-2.851562 7.632812l2.738281 18.65625-18.519531 18.519531c-2.28125-5.558593-3.046875-11.621093-2.21875-17.570312zm0 0"/><path d="m477.738281 306.507812-96-96c-2.289062-2.285156-5.726562-2.96875-8.71875-1.730468-2.988281 1.238281-4.9375 4.152344-4.9375 7.386718v76.6875l-82.34375-82.34375c-2.289062-2.285156-5.726562-2.96875-8.71875-1.730468-2.988281 1.238281-4.9375 4.152344-4.9375 7.386718v88h-36.648437l-11.351563-96.472656v-31.527344c0-4.417968-3.582031-8-8-8h-64c-4.417969 0-8 3.582032-8 8v31.527344l-11.351562 96.472656h-21.535157l-15.113281-128.472656v-31.527344c0-4.417968-3.582031-8-8-8h-64c-4.417969 0-8 3.582032-8 8v31.527344l-15.945312 135.539063c0 .152343.050781.292969 0 .453125-.0468752.160156-.0546878.3125-.0546878.480468v160c0 4.417969 3.5820308 8 7.9999998 8h464c4.417969 0 8-3.582031 8-8v-160c0-2.121093-.84375-4.15625-2.34375-5.65625zm-317.65625-122.34375h48v16h-48zm-.886719 32h49.773438l10.363281 88h-70.496093zm-128-32h49.773438l14.113281 120h-78zm.886719-32h48v16h-48zm432 312h-448v-144h264c4.417969 0 8-3.582031 8-8v-76.6875l82.34375 82.34375c2.289063 2.289063 5.730469 2.972657 8.71875 1.734376 2.988281-1.238282 4.9375-4.15625 4.9375-7.390626v-76.6875l80 80zm0 0"/><path d="m312.082031 360.164062h-48c-4.417969 0-8 3.582032-8 8v48c0 4.417969 3.582031 8 8 8h48c4.417969 0 8-3.582031 8-8v-48c0-4.417968-3.582031-8-8-8zm-8 48h-32v-32h32zm0 0"/><path d="m352.082031 368.164062v48c0 4.417969 3.582031 8 8 8h48c4.417969 0 8-3.582031 8-8v-48c0-4.417968-3.582031-8-8-8h-48c-4.417969 0-8 3.582032-8 8zm16 8h32v32h-32zm0 0"/><path d="m216.082031 360.164062h-48c-4.417969 0-8 3.582032-8 8v48c0 4.417969 3.582031 8 8 8h48c4.417969 0 8-3.582031 8-8v-48c0-4.417968-3.582031-8-8-8zm-8 48h-32v-32h32zm0 0"/><path d="m120.082031 360.164062h-48c-4.417969 0-8 3.582032-8 8v48c0 4.417969 3.582031 8 8 8h48c4.417969 0 8-3.582031 8-8v-48c0-4.417968-3.582031-8-8-8zm-8 48h-32v-32h32zm0 0"/></svg>