<svg height="480pt" viewBox="0 0 480 480.16519" width="480pt" xmlns="http://www.w3.org/2000/svg"><path d="m217.355469 374.332031c1.054687 0 2.101562-.210937 3.070312-.621093 4.074219-1.703126 6-6.382813 4.304688-10.457032-19.558594-46.78125-30.519531-96.707031-32.359375-147.375-.015625-2.144531-.914063-4.183594-2.484375-5.640625-1.566407-1.460937-3.667969-2.210937-5.804688-2.074219-4.410156.160157-7.859375 3.867188-7.703125 8.28125 1.914063 52.589844 13.292969 104.402344 33.601563 152.953126 1.234375 2.980468 4.144531 4.929687 7.375 4.933593zm0 0"/><path d="m479.515625 469.195312-35.367187-88.484374c-18.59375-46.285157-28.121094-95.707032-28.066407-145.585938v-58.960938c0-4.417968-3.582031-8-8-8h-128c-4.417969 0-8 3.582032-8 8v58.960938c.015625 39.386719-5.941406 78.550781-17.671875 116.152344l-.144531-.34375c-19.96875-47.753906-30.230469-99.007813-30.183594-150.769532v-56c0-4.417968-3.582031-8-8-8h-128c-4.417969 0-8 3.582032-8 8v56c.050781 51.761719-10.210937 103.015626-30.183593 150.769532l-49.199219 118.152344c-1.03125 2.46875-.7578128 5.289062.726562 7.515624 1.484375 2.226563 3.980469 3.5625 6.65625 3.5625h464c2.65625.003907 5.136719-1.3125 6.625-3.511718 1.492188-2.195313 1.792969-4.988282.808594-7.457032zm-191.433594-285.03125h112v16h-112zm0 50.960938v-18.960938h112v18.960938c-.054687 51.917969 9.863281 103.359375 29.210938 151.535156l11.789062 29.503906h-159.628906l-17.65625-42.398437c16.117187-44.445313 24.335937-91.363281 24.285156-138.640625zm-192-82.960938h112v16h-112zm-31.414062 204.921876c20.789062-49.703126 31.46875-103.046876 31.414062-156.921876v-16h112v16c-.054687 53.878907 10.625 107.226563 31.417969 156.929688l24.582031 59.070312h-224zm-31.265625 75.078124h237.359375l12.226562 29.359376 1.09375 2.640624h-264zm268 32-13.320313-32h159.402344l12.800781 32zm0 0"/><path d="m407.027344 403.605469c1.019531 0 2.03125-.199219 2.976562-.585938 4.097656-1.644531 6.089844-6.296875 4.449219-10.398437-18.511719-46.078125-28.726563-95.0625-30.179687-144.695313-.125-4.417969-3.8125-7.898437-8.230469-7.769531s-7.894531 3.816406-7.769531 8.234375c1.511718 51.511719 12.113281 102.351563 31.320312 150.175781 1.214844 3.042969 4.15625 5.039063 7.433594 5.039063zm0 0"/><path d="m345.035156 153.382812c15.976563-.074218 31.328125-6.230468 42.929688-17.21875 16.726562-16.726562 34.125-86.398437 36.054687-94.261718.664063-2.71875-.136719-5.582032-2.113281-7.558594s-4.84375-2.777344-7.558594-2.113281c-7.863281 1.925781-77.542968 19.335937-94.265625 36.054687-9.3125 9.8125-15.207031 22.375-16.796875 35.808594-2.347656 13.632812 1.792969 27.582031 11.199219 37.726562 8.230469 7.78125 19.230469 11.941407 30.550781 11.5625zm-25.894531-47.371093c1.132813-9.890625 5.433594-19.148438 12.253906-26.398438 8.800781-8.800781 45.65625-20.855469 73.710938-28.457031-7.597657 28.058594-19.679688 64.929688-28.453125 73.714844-11.6875 11.214844-28.597656 15.085937-44 10.070312l18.542968-18.542968 18.65625 2.726562c.386719.0625.777344.089844 1.167969.089844 4.183594-.019532 7.644531-3.253906 7.949219-7.425782.300781-4.167968-2.660156-7.871093-6.796875-8.488281l-6.871094-1.007812 17.023438-17.023438c2.078125-2.007812 2.914062-4.984375 2.179687-7.78125-.730468-2.796875-2.914062-4.980469-5.710937-5.710937-2.796875-.734375-5.773438.101562-7.78125 2.179687l-17.039063 17.007813-1.007812-6.871094c-.332032-2.898438-2.214844-5.390625-4.914063-6.496094-2.703125-1.109375-5.789062-.65625-8.0625 1.175782-2.269531 1.835937-3.363281 4.757812-2.847656 7.632812l2.734375 18.65625-18.519531 18.519531c-2.28125-5.558593-3.042969-11.621093-2.214844-17.570312zm0 0"/><path d="m145.035156 121.382812c15.976563-.074218 31.328125-6.230468 42.929688-17.21875 16.726562-16.726562 34.125-86.398437 36.054687-94.261718.664063-2.71875-.136719-5.582032-2.113281-7.558594-1.976562-1.976562-4.84375-2.777344-7.558594-2.113281-7.863281 1.925781-77.542968 19.335937-94.265625 36.054687-9.3125 9.8125-15.207031 22.375-16.796875 35.808594-2.347656 13.632812 1.792969 27.582031 11.199219 37.726562 8.230469 7.78125 19.230469 11.941407 30.550781 11.5625zm-25.894531-47.371093c1.132813-9.890625 5.433594-19.148438 12.253906-26.398438 8.800781-8.800781 45.65625-20.855469 73.710938-28.457031-7.597657 28.058594-19.679688 64.929688-28.453125 73.714844-11.6875 11.214844-28.597656 15.085937-44 10.070312l18.542968-18.542968 18.65625 2.726562c.386719.0625.777344.089844 1.167969.089844 4.183594-.019532 7.644531-3.253906 7.949219-7.425782.300781-4.167968-2.660156-7.871093-6.796875-8.488281l-6.871094-1.007812 17.023438-17.023438c3.03125-3.140625 2.988281-8.128906-.097657-11.214843-3.085937-3.085938-8.078124-3.128907-11.214843-.097657l-17.039063 17.007813-1.007812-6.871094c-.332032-2.898438-2.214844-5.390625-4.914063-6.496094-2.703125-1.109375-5.789062-.65625-8.0625 1.175782-2.269531 1.835937-3.363281 4.757812-2.847656 7.632812l2.734375 18.65625-18.519531 18.519531c-2.28125-5.558593-3.042969-11.621093-2.214844-17.570312zm0 0"/></svg>