<svg height="479pt" viewBox="-4 0 479 479.13024" width="479pt" xmlns="http://www.w3.org/2000/svg"><path d="m332.375 341.242188 58.152344-21.152344c2.738281-.9375 4.757812-3.28125 5.277344-6.132813.523437-2.847656-.535157-5.753906-2.765626-7.597656-2.230468-1.847656-5.28125-2.347656-7.984374-1.304687l-58.703126 21.34375c-3.117187 1.136718-5.210937 4.074218-5.265624 7.390624-.050782 3.316407 1.945312 6.320313 5.023437 7.554688h.042969c2.003906.804688 4.253906.753906 6.222656-.136719zm0 0"/><path d="m411.519531 311.9375c.933594 0 1.859375-.164062 2.734375-.480469l19.425782-7.074219c4.066406-1.566406 6.125-6.101562 4.636718-10.199218-1.492187-4.09375-5.984375-6.242188-10.109375-4.832032l-19.421875 7.074219c-3.640625 1.332031-5.800781 5.082031-5.128906 8.898438.671875 3.820312 3.988281 6.605469 7.863281 6.613281zm0 0"/><path d="m139.183594 394.535156-41.6875 15.199219c-3.691406 1.304687-5.898438 5.085937-5.21875 8.941406.683594 3.855469 4.054687 6.648438 7.96875 6.605469.933594 0 1.859375-.160156 2.738281-.480469l41.703125-15.199219c4.15625-1.519531 6.292969-6.121093 4.773438-10.277343-1.523438-4.15625-6.121094-6.292969-10.277344-4.773438zm0 0"/><path d="m317.917969 389.464844-215.957031-78.570313c-2.703126-1.042969-5.757813-.542969-7.984376 1.304688-2.230468 1.84375-3.289062 4.75-2.769531 7.601562.523438 2.847657 2.542969 5.191407 5.28125 6.128907l215.941407 78.566406c2.703124 1.042968 5.753906.546875 7.984374-1.300782 2.230469-1.847656 3.289063-4.753906 2.769532-7.601562-.523438-2.847656-2.542969-5.191406-5.28125-6.128906zm0 0"/><path d="m70.800781 299.558594-28-10.183594c-4.113281-1.371094-8.570312.785156-10.050781 4.859375-1.480469 4.070313.550781 8.585937 4.585938 10.175781l28 10.183594c2.707031 1.066406 5.777343.578125 8.023437-1.273438 2.242187-1.851562 3.304687-4.773437 2.773437-7.632812s-2.574218-5.207031-5.332031-6.128906zm0 0"/><path d="m373.542969 409.703125-24.953125-9.078125c-4.121094-1.410156-8.617188.738281-10.105469 4.832031-1.492187 4.09375.570313 8.628907 4.636719 10.199219l24.246094 8.800781c1.070312.496094 2.234374.757813 3.417968.757813 3.914063.050781 7.289063-2.742188 7.972656-6.597656.6875-3.859376-1.519531-7.640626-5.214843-8.945313zm0 0"/><path d="m467.253906 422.214844c-4.472656-9.621094-12.597656-17.0625-22.574218-20.679688l-92.160157-33.535156 92.136719-33.519531c20.742188-7.582031 31.4375-30.519531 23.910156-51.28125-3.609375-9.992188-11.050781-18.132813-20.679687-22.625-9.628907-4.488281-20.648438-4.957031-30.625-1.300781l-181.742188 66.144531-181.734375-66.136719c-20.769531-7.566406-43.734375 3.132812-51.300781 23.898438-7.566406 20.765624 3.132813 43.734374 23.898437 51.300781l92.136719 33.519531-92.113281 33.519531c-20.765625 7.554688-31.476562 30.511719-23.921875 51.277344 7.550781 20.765625 30.507813 31.476563 51.273437 23.921875h.113282l181.648437-66.132812 181.679688 66.109374h.113281c9.980469 3.660157 21.007812 3.175782 30.628906-1.34375 19.972656-9.394531 28.601563-33.15625 19.3125-53.175781zm-208.34375-88.292969 163.808594-59.609375c12.464844-4.539062 26.25 1.882812 30.789062 14.347656 4.539063 12.464844-1.882812 26.25-14.347656 30.789063l-110.050781 40zm-228.992187 126.964844c-9.648438-4.390625-15.253907-14.609375-13.777344-25.105469 1.480469-10.496094 9.691406-18.769531 20.179687-20.324219.445313-.074219.894532-.074219 1.34375-.121093 1.0625-.117188 2.128907-.164063 3.199219-.144532.414063 0 .800781.066406 1.238281.097656 1.050782.085938 2.09375.246094 3.121094.472657.382813.085937.800782.160156 1.167969.269531 1.199219.324219 2.375.738281 3.511719 1.242188.144531.070312.304687.109374.457031.183593 1.308594.617188 2.558594 1.351563 3.734375 2.191407.203125.144531.386719.3125.578125.457031.945313.710937 1.835937 1.492187 2.664063 2.335937.269531.277344.527343.566406.800781.863282.730469.828124 1.402343 1.710937 2.015625 2.632812.207031.3125.429687.605469.621094.925781 1.566406 2.496094 2.589843 5.289063 3.011718 8.199219 0 .179688.109375.355469.132813.539062.882812 6.230469-.695313 12.558594-4.398438 17.648438-.207031.285156-.488281.519531-.710937.796875-.71875.949219-1.503906 1.84375-2.351563 2.671875-.355469.328125-.800781.578125-1.152343.882812-.816407.714844-1.679688 1.371094-2.585938 1.964844-.421875.265625-.925781.433594-1.375.664063-.960938.558593-1.960938 1.042969-2.992188 1.449219-6 2.222656-12.644531 1.9375-18.433593-.792969zm182.210937-58.804688-133.800781 48.6875c.109375-.386719.152344-.800781.253906-1.183593.203125-.730469.335938-1.472657.496094-2.226563.347656-1.621094.59375-3.265625.738281-4.917969.070313-.800781.125-1.601562.144532-2.402344.035156-1.75-.046876-3.5-.242188-5.238281-.078125-.703125-.101562-1.402343-.214844-2.105469-.378906-2.472656-.988281-4.902343-1.816406-7.261718v-.050782c-.878906-2.328124-1.972656-4.574218-3.265625-6.703124-.390625-.648438-.839844-1.230469-1.261719-1.847657-.945312-1.410156-1.980468-2.761719-3.097656-4.039062-.542969-.617188-1.101562-1.199219-1.6875-1.777344-1.171875-1.164063-2.414062-2.257813-3.71875-3.269531-.59375-.457032-1.152344-.929688-1.769531-1.355469-.34375-.238281-.648438-.535156-1-.796875l80-29.121094zm-180.265625-82.632812c-11.082031-3.886719-17.722656-15.214844-15.703125-26.78125 2.019532-11.566407 12.113282-19.972657 23.855469-19.867188 2.832031.003907 5.636719.503907 8.296875 1.480469l360.855469 131.359375c-.359375.230469-.664063.535156-1.015625.800781-.601563.414063-1.152344.878906-1.730469 1.328125-1.335937 1.027344-2.601563 2.140625-3.789063 3.335938-.554687.558593-1.089843 1.109375-1.601562 1.695312-1.15625 1.328125-2.226562 2.730469-3.199219 4.199219-.386719.578125-.800781 1.105469-1.160156 1.695312-1.300781 2.136719-2.398437 4.390626-3.28125 6.730469v.046875c-.832031 2.355469-1.4375 4.78125-1.816406 7.246094-.117188.761719-.152344 1.511719-.222657 2.273438-.183593 1.671874-.261718 3.355468-.230468 5.039062 0 .847656.070312 1.679688.148437 2.527344.140625 1.597656.378907 3.1875.714844 4.753906.167969.800781.3125 1.601562.519531 2.351562.101563.367188.136719.761719.246094 1.128907zm421.664063 127.886719c-2.234375 6.644531-7.328125 11.941406-13.878906 14.429687-6.554688 2.488281-13.878907 1.90625-19.960938-1.582031-.433594-.230469-.921875-.390625-1.335938-.648438-.839843-.566406-1.640624-1.1875-2.398437-1.855468-.433594-.34375-.914063-.625-1.3125-1-.570313-.527344-1.015625-1.152344-1.53125-1.726563-.511719-.578125-1.078125-1.121094-1.535156-1.753906-.191407-.261719-.3125-.566407-.496094-.839844-4.230469-6.339844-5.214844-14.308594-2.65625-21.488281l.058594-.117188c.511719-1.339844 1.140625-2.628906 1.878906-3.859375.230469-.382812.488281-.734375.734375-1.101562.574219-.839844 1.199219-1.640625 1.875-2.402344.300781-.34375.605469-.6875.925781-1.015625.769531-.769531 1.589844-1.488281 2.457031-2.152344.253907-.199218.496094-.421875.757813-.605468 1.160156-.824219 2.390625-1.546876 3.675781-2.152344.191406-.089844.398438-.152344.597656-.234375 1.082032-.488281 2.195313-.898438 3.335938-1.230469.410156-.105469.800781-.191406 1.214844-.28125 1.019531-.21875 2.046875-.371094 3.082031-.460938.414063 0 .800781-.082031 1.253906-.097656 1.070313-.019531 2.140625.027344 3.203125.144532.4375.046874.878906.046874 1.328125.113281 1.5.226562 2.976563.597656 4.40625 1.101562 5.988281 2.175781 10.867188 6.644531 13.558594 12.417969s2.976563 12.382812.792969 18.367188zm0 0"/><path d="m235.519531 288c35.328125-.039062 63.960938-28.667969 64-64 0-13.046875-7.832031-34.589844-23.953125-65.871094-11.519531-22.351562-4.101562-68.394531-.269531-84.25.847656-3.507812-.761719-7.152344-3.925781-8.890625-3.167969-1.738281-7.105469-1.140625-9.613282 1.460938-2.398437 2.4375-57.984374 60.222656-73.597656 90.398437-10.523437 20.851563-16.210937 43.800782-16.640625 67.152344.039063 35.332031 28.671875 63.960938 64 64zm-33.167969-123.824219c9.207032-17.75 34.910157-47.464843 52.695313-67.046875-2.527344 20.953125-3.414063 49.480469 6.304687 68.328125 19.289063 37.4375 22.167969 52.75 22.167969 58.542969 0 26.511719-21.492187 48-48 48-26.511719 0-48-21.488281-48-48 .386719-20.800781 5.457031-41.25 14.832031-59.824219zm0 0"/><path d="m83.519531 224c35.328125-.039062 63.960938-28.667969 64-64 0-13.046875-7.832031-34.589844-23.953125-65.871094-11.519531-22.351562-4.101562-68.394531-.269531-84.25.847656-3.507812-.761719-7.152344-3.925781-8.890625-3.167969-1.738281-7.105469-1.140625-9.613282 1.460938-2.398437 2.4375-57.984374 60.222656-73.597656 90.398437-10.523437 20.851563-16.210937 43.800782-16.640625 67.152344.039063 35.332031 28.671875 63.960938 64 64zm-33.167969-123.824219c9.207032-17.75 34.910157-47.464843 52.695313-67.046875-2.527344 20.953125-3.414063 49.480469 6.304687 68.328125 19.289063 37.4375 22.167969 52.75 22.167969 58.542969 0 26.511719-21.492187 48-48 48-26.511719 0-48-21.488281-48-48 .386719-20.800781 5.457031-41.25 14.832031-59.824219zm0 0"/><path d="m387.519531 224c35.328125-.039062 63.960938-28.667969 64-64 0-13.046875-7.832031-34.589844-23.953125-65.871094-11.519531-22.351562-4.101562-68.394531-.269531-84.25.847656-3.507812-.761719-7.152344-3.925781-8.890625-3.167969-1.738281-7.105469-1.140625-9.613282 1.460938-2.398437 2.4375-57.984374 60.222656-73.597656 90.398437-10.523437 20.851563-16.210937 43.800782-16.640625 67.152344.039063 35.332031 28.671875 63.960938 64 64zm-33.167969-123.824219c9.207032-17.75 34.910157-47.464843 52.695313-67.046875-2.527344 20.953125-3.414063 49.480469 6.304687 68.328125 19.289063 37.4375 22.167969 52.75 22.167969 58.542969 0 26.511719-21.492187 48-48 48-26.511719 0-48-21.488281-48-48 .386719-20.800781 5.457031-41.25 14.832031-59.824219zm0 0"/></svg>