<svg height="480pt" viewBox="0 0 480 480" width="480pt" xmlns="http://www.w3.org/2000/svg"><path d="m472 192h-48.367188c-3.4375.03125-6.492187-2.175781-7.535156-5.449219-3.46875-11.53125-8.078125-22.6875-13.761718-33.304687-1.566407-3.054688-.96875-6.777344 1.480468-9.191406l34.160156-34.160157c3.121094-3.121093 3.121094-8.1875 0-11.308593l-56.5625-56.5625c-3.121093-3.121094-8.1875-3.121094-11.308593 0l-34.167969 34.160156c-2.40625 2.453125-6.125 3.050781-9.175781 1.480468-10.617188-5.679687-21.773438-10.289062-33.304688-13.753906-3.277343-1.042968-5.488281-4.101562-5.457031-7.542968v-48.367188c0-4.417969-3.582031-8-8-8h-80c-4.417969 0-8 3.582031-8 8v48.367188c.03125 3.441406-2.179688 6.5-5.457031 7.542968-11.53125 3.464844-22.6875 8.074219-33.304688 13.753906-3.050781 1.5625-6.765625.964844-9.175781-1.480468l-34.167969-34.160156c-3.121093-3.121094-8.1875-3.121094-11.308593 0l-56.5625 56.5625c-3.121094 3.121093-3.121094 8.1875 0 11.308593l34.160156 34.160157c2.445312 2.414062 3.042968 6.132812 1.480468 9.191406-6.574218 12.285156-11.695312 25.289062-15.265624 38.753906h-54.398438c-4.417969 0-8 3.582031-8 8v80c0 4.417969 3.582031 8 8 8h48.367188c3.4375-.03125 6.492187 2.175781 7.535156 5.449219 3.46875 11.53125 8.078125 22.6875 13.761718 33.304687 1.566407 3.054688.96875 6.777344-1.480468 9.191406l-34.160156 34.160157c-3.121094 3.121093-3.121094 8.1875 0 11.308593l56.5625 56.5625c3.121093 3.121094 8.1875 3.121094 11.308593 0l34.167969-34.160156c2.414062-2.4375 6.121094-3.035156 9.175781-1.480468 10.617188 5.679687 21.773438 10.289062 33.304688 13.753906 3.277343 1.042968 5.488281 4.101562 5.457031 7.542968v48.367188c0 4.417969 3.582031 8 8 8h80c4.417969 0 8-3.582031 8-8v-48.367188c-.03125-3.441406 2.179688-6.5 5.457031-7.542968 11.53125-3.464844 22.6875-8.074219 33.304688-13.753906 3.050781-1.558594 6.765625-.960938 9.175781 1.480468l34.167969 34.160156c3.121093 3.121094 8.1875 3.121094 11.308593 0l56.5625-56.5625c3.121094-3.121093 3.121094-8.1875 0-11.308593l-34.160156-34.167969c-2.449218-2.40625-3.046875-6.125-1.480468-9.175781 5.683593-10.621094 10.292968-21.78125 13.761718-33.3125 1.050782-3.269531 4.101563-5.472657 7.535156-5.441407h48.367188c4.417969 0 8-3.582031 8-8v-80.007812c0-4.417969-3.582031-8-8-8zm-8 80h-40.367188c-10.484374.011719-19.738281 6.847656-22.832031 16.863281-3.171875 10.507813-7.382812 20.667969-12.578125 30.335938-4.949218 9.261719-3.210937 20.679687 4.273438 28.046875l28.511718 28.507812-45.246093 45.253906-28.515625-28.511718c-7.40625-7.367188-18.730469-9.09375-28-4.273438-9.683594 5.199219-19.863282 9.414063-30.390625 12.578125-10.007813 3.105469-16.835938 12.351563-16.855469 22.832031v40.367188h-64v-40.367188c-.019531-10.480468-6.847656-19.726562-16.855469-22.832031-10.511719-3.167969-20.675781-7.382812-30.34375-12.578125-9.269531-4.820312-20.59375-3.09375-28 4.273438l-28.5625 28.511718-45.246093-45.246093 28.503906-28.503907c7.492187-7.371093 9.234375-18.792968 4.28125-28.058593-5.195313-9.664063-9.410156-19.828125-12.578125-30.335938-3.09375-10.015625-12.347657-16.851562-22.832031-16.863281h-40.367188v-64h52.640625c3.738281.003906 6.980469-2.585938 7.808594-6.230469 3.25-14.28125 8.402343-28.0625 15.328125-40.96875 4.949218-9.265625 3.207031-20.683593-4.28125-28.046875l-28.503906-28.515625 45.246093-45.246093 28.515625 28.511718c7.40625 7.367188 18.730469 9.09375 28 4.273438 9.671875-5.183594 19.839844-9.382813 30.351563-12.539063 10.035156-3.09375 16.886719-12.367187 16.894531-22.871093v-40.367188h64v40.367188c.003906 10.492187 6.832031 19.765624 16.855469 22.871093 10.507812 3.15625 20.675781 7.355469 30.34375 12.539063 9.269531 4.820312 20.59375 3.09375 28-4.273438l28.5625-28.511718 45.246093 45.246093-28.511718 28.503907c-7.484375 7.371093-9.226563 18.792968-4.273438 28.058593 5.195313 9.664063 9.410156 19.828125 12.578125 30.335938 3.09375 10.015625 12.347657 16.851562 22.832031 16.863281h40.367188zm0 0"/><path d="m240 112c-70.691406 0-128 57.308594-128 128s57.308594 128 128 128 128-57.308594 128-128c-.082031-70.65625-57.34375-127.917969-128-128zm40 104v24c0 22.089844-17.910156 40-40 40s-40-17.910156-40-40v-24zm-32 135.59375v-56.234375c27.515625-3.992187 47.945312-27.554687 48-55.359375v-40h-24v-32h-16v32h-32v-32h-16v32h-24v40c.054688 27.804688 20.484375 51.367188 48 55.359375v56.234375c-60.144531-4.308594-106.082031-55.457031-103.929688-115.71875 2.15625-60.257812 51.632813-107.996094 111.929688-107.996094s109.773438 47.738282 111.929688 107.996094c2.152343 60.261719-43.785157 111.410156-103.929688 115.71875zm0 0"/></svg>