<svg height="481pt" viewBox="0 0 481 481.15376" width="481pt" xmlns="http://www.w3.org/2000/svg"><path d="m449.078125 315.21875c.054687-.121094.078125-.25.125-.367188 17.144531-49.074218 30.105469-101.601562 31-105.289062.121094-.550781.183594-1.109375.183594-1.671875 0-.097656 0-.191406 0-.289063-.019531-.898437-.191407-1.789062-.511719-2.632812-.078125-.214844-.167969-.40625-.253906-.613281-.726563-1.785157-2.144532-3.199219-3.929688-3.921875-.191406-.085938-.375-.167969-.574218-.238282-.851563-.328124-1.753907-.507812-2.664063-.523437-.089844 0-.167969 0-.257813 0-.570312.007813-1.136718.070313-1.695312.195313-3.671875.894531-56.214844 13.855468-105.289062 31-.117188.046874-.246094.070312-.367188.125-19.046875 6.414062-37.628906 14.121093-55.625 23.074218-.257812.109375-.507812.238282-.75.382813-8.273438 4.035156-15.933594 9.226562-22.746094 15.417969-32.152344 32.152343-44.878906 93.488281-16.574218 129.710937l-11.304688 11.304687c-3.578125 3.636719-6.839844 7.578126-9.742188 11.773438v-174.636719h40c4.417969 0 8-3.582031 8-8 0-4.421875-3.582031-8-8-8h-40v-104.203125c26.648438-.355468 53.214844-3.03125 79.398438-8 9.160156 31.289063 14.53125 63.5625 16 96.128906.222656 4.417969 3.980469 7.820313 8.398438 7.601563 4.421874-.222656 7.824218-3.984375 7.601562-8.402344-1.496094-33.421875-6.972656-66.550781-16.304688-98.679687 22.855469-5.136719 45.046876-12.875 66.144532-23.054688 21.75 25.023438 37.675781 54.558594 46.640625 86.480469.742187 2.78125 2.917969 4.949219 5.703125 5.679687 2.785156.730469 5.746094-.09375 7.753906-2.152343 2.011719-2.0625 2.757812-5.042969 1.957031-7.808594-23.429687-84.066406-90.640625-148.796875-175.527343-169.054687-84.890626-20.253907-174.085938 7.152343-232.949219 71.582031-63.679688 69.660156-80.601563 170.183593-43.242188 256.855469 37.355469 86.667968 122.058594 143.386718 216.425781 144.921874 1.195313.769532 2.578126 1.199219 4 1.238282 4.417969 0 8-3.582032 8-8-.054687-19.105469 7.539063-37.4375 21.085938-50.910156l11.273438-11.273438c14.328124 10.640625 31.8125 16.164062 49.65625 15.6875 29.828124-.199219 58.460937-11.746094 80.085937-32.292969 6.191406-6.8125 11.382813-14.472656 15.417969-22.746093.144531-.242188.269531-.492188.382812-.75 8.953125-18 16.660156-36.59375 23.074219-55.648438zm-269.945313 140.238281c-1.992187-.566406-4-1.136719-5.953124-1.757812-1.597657-.511719-3.238282-1.058594-4.855469-1.601563-1.945313-.664062-3.878907-1.335937-5.808594-2.046875-1.597656-.59375-3.199219-1.207031-4.800781-1.839843-1.902344-.753907-3.796875-1.53125-5.6875-2.335938-1.566406-.671875-3.128906-1.359375-4.6875-2.066406-1.859375-.851563-3.710938-1.726563-5.550782-2.621094-1.535156-.753906-3.066406-1.515625-4.578124-2.296875-1.824219-.945313-3.628907-1.921875-5.429688-2.914063-1.496094-.796874-2.976562-1.648437-4.449219-2.503906-1.792969-1.046875-3.558593-2.125-5.328125-3.199218-1.421875-.878907-2.855468-1.757813-4.253906-2.679688-1.769531-1.152344-3.515625-2.34375-5.25-3.550781-1.359375-.9375-2.71875-1.863281-4.0625-2.839844-1.738281-1.265625-3.441406-2.578125-5.144531-3.890625-1.289063-.992188-2.585938-1.957031-3.847657-2.976562-1.730468-1.390626-3.410156-2.839844-5.097656-4.285157-1.183594-1.015625-2.398437-2.007812-3.558594-3.050781-1.753906-1.597656-3.457031-3.199219-5.160156-4.796875-1.039062-1-2.113281-1.960937-3.136718-2.976563-.128907-.121093-.246094-.257812-.367188-.386718 19.121094-8.675782 39.082031-15.359375 59.574219-19.941406 9.21875 29.816406 25.507812 56.964843 47.472656 79.136718-1.71875-.402344-3.429687-.800781-5.136719-1.226562-1.703125-.421875-3.277344-.894532-4.902344-1.351563zm-108.273437-362.085937c21.019531 10.144531 43.125 17.859375 65.890625 23-10.671875 37.632812-16.238281 76.53125-16.554688 115.648437h-103.910156c1.765625-51.105469 21.03125-100.054687 54.574219-138.648437zm11.6875-12.5625c.9375-.917969 1.914063-1.789063 2.855469-2.695313 1.800781-1.710937 3.59375-3.429687 5.441406-5.078125 1.113281-.992187 2.265625-1.945312 3.402344-2.914062 1.734375-1.496094 3.46875-2.984375 5.253906-4.421875 1.222656-.984375 2.488281-1.929688 3.726562-2.890625 1.746094-1.335938 3.480469-2.679688 5.257813-4 1.320313-.949219 2.664063-1.871094 4-2.800782 1.761719-1.214843 3.511719-2.398437 5.296875-3.582031 1.398438-.910156 2.816406-1.785156 4.222656-2.65625 1.777344-1.105469 3.558594-2.199219 5.367188-3.246093 1.457031-.851563 2.9375-1.671876 4.410156-2.488282 1.808594-1 3.628906-1.976562 5.464844-2.929687 1.511718-.773438 3.03125-1.53125 4.558594-2.28125 1.839843-.902344 3.703124-1.78125 5.597656-2.628907 1.554687-.707031 3.113281-1.394531 4.683594-2.066406 1.878906-.800781 3.78125-1.597656 5.695312-2.34375 1.597656-.625 3.199219-1.238281 4.800781-1.832031 1.925781-.710937 3.863281-1.382813 5.8125-2.046875 1.601563-.542969 3.203125-1.089844 4.839844-1.601562 1.976563-.621094 4-1.191407 5.96875-1.757813 1.601563-.457031 3.199219-.929687 4.863281-1.351563 1.664063-.425781 3.417969-.800781 5.136719-1.226562-21.980469 22.175781-38.277344 49.335938-47.503906 79.167969-20.46875-4.570313-40.414063-11.242188-59.519531-19.902344.105468-.136719.234374-.289063.367187-.417969zm149.554687 31.015625c-24.871093-.359375-49.664062-2.808594-74.121093-7.320313 17.640625-49.03125 44.34375-82.566406 74.121093-87.6875zm-111.90625 136.195312c.316407 39.113281 5.882813 78.011719 16.554688 115.644531-22.769531 5.140626-44.878906 12.855469-65.898438 23-33.535156-38.597656-52.800781-87.542968-54.566406-138.644531zm37.785157 127.511719c24.457031-4.511719 49.25-6.957031 74.121093-7.320312v95.046874c-29.777343-5.160156-56.480468-38.695312-74.121093-87.726562zm74.121093-23.3125c-26.582031.363281-53.082031 3.039062-79.203124 8-10.652344-36.464844-16.273438-74.214844-16.703126-112.199219h95.90625zm-95.90625-120.199219c.433594-37.980469 6.054688-75.722656 16.703126-112.179687 26.121093 4.960937 52.621093 7.636718 79.203124 8v104.179687zm111.90625-120.195312v-95.0625c29.75 5.121093 56.640626 38.398437 74.335938 87.703125-24.53125 4.535156-49.394531 6.996094-74.335938 7.359375zm42.238282-90c1.960937.457031 3.914062.898437 5.855468 1.402343 1.601563.421876 3.25.894532 4.871094 1.351563 1.992188.566406 4 1.136719 5.953125 1.757813 1.601563.515624 3.242188 1.058593 4.855469 1.601562 1.945312.664062 3.882812 1.335938 5.808594 2.046875 1.601562.59375 3.199218 1.207031 4.800781 1.839844 1.902344.753906 3.800781 1.53125 5.6875 2.335937 1.570313.671875 3.132813 1.363282 4.6875 2.066406 1.867187.859376 3.71875 1.734376 5.554687 2.625 1.535157.75 3.0625 1.511719 4.574219 2.292969 1.824219.945313 3.632813 1.921875 5.433594 2.914063 1.496094.800781 2.972656 1.648437 4.445313 2.503906 1.792968 1.046875 3.5625 2.128906 5.328124 3.199219 1.425782.878906 2.855469 1.761719 4.257813 2.679687 1.765625 1.152344 3.511719 2.34375 5.246094 3.550782 1.359375.9375 2.722656 1.867187 4.066406 2.839843 1.734375 1.265625 3.4375 2.578125 5.144531 3.890625 1.285156.992188 2.582032 1.960938 3.847656 2.976563 1.726563 1.390625 3.40625 2.839843 5.09375 4.285156 1.183594 1.015625 2.402344 2.007813 3.5625 3.050781 1.75 1.597656 3.453126 3.199219 5.15625 4.796875 1.042969 1 2.113282 1.960938 3.136719 2.976563.128907.121094.25.257812.371094.386718-19.199219 8.707032-39.242187 15.410157-59.816406 20-9.390625-29.914062-25.824219-57.132812-47.921875-79.371093zm145.648437 282.195312h-48.574219l69.832032-69.832031c-5.632813 20.574219-13.066406 45.742188-21.257813 69.832031zm-59.886719-11.3125v-48.570312c24.085938-8.199219 49.253907-15.621094 69.832032-21.261719zm-16 16-40 40v-82.242187c13.023438-6.277344 26.375-11.855469 40-16.703125zm11.3125 11.3125h58.941407c-4.847657 13.621094-10.425781 26.972657-16.703125 40h-82.238282zm-74.347656-38.792969c2.179688-2.066406 4.53125-3.941406 7.035156-5.601562v89.082031l-23.511718 23.511719c-21.386719-29.65625-9.792969-80.722656 16.476562-106.992188zm-5.167968 118.304688 23.515624-23.511719h89.0625c-1.660156 2.5-3.535156 4.851563-5.601562 7.03125-26.246094 26.269531-77.320312 37.863281-106.976562 16.480469zm0 0"/></svg>