<?xml version="1.0" encoding="utf-8"?>
<!-- Generator: Adobe Illustrator 21.1.0, SVG Export Plug-In . SVG Version: 6.00 Build 0)  -->
<svg version="1.1" id="Forma_1_1_" xmlns="http://www.w3.org/2000/svg" xmlns:xlink="http://www.w3.org/1999/xlink" x="0px" y="0px"
	 width="40px" height="40px" viewBox="0 0 40 40" style="enable-background:new 0 0 40 40;" xml:space="preserve">
<g id="Forma_1">
	<g>
		<path style="fill-rule:evenodd;clip-rule:evenodd;fill:#0D73FC;" d="M16.683,33.802c0.349,0,0.667-0.236,0.757-0.59
			c0.106-0.418-0.147-0.843-0.565-0.949c-2.199-0.557-4.213-1.703-5.824-3.314C6.863,24.761,6.15,18.116,9.356,13.147
			c0.259-0.402,0.68-0.661,1.154-0.712c0.471-0.05,0.934,0.113,1.268,0.448c0.524,0.524,0.605,1.335,0.196,1.971
			c-2.437,3.793-1.855,8.831,1.382,11.98c1.781,1.732,4.14,2.686,6.643,2.686s4.862-0.954,6.643-2.686
			c3.237-3.149,3.819-8.187,1.382-11.98c-0.409-0.636-0.328-1.447,0.196-1.971c0.335-0.335,0.797-0.498,1.268-0.448
			c0.474,0.051,0.895,0.31,1.154,0.712c3.206,4.968,2.493,11.614-1.694,15.802c-1.602,1.602-3.603,2.744-5.787,3.305
			c-0.418,0.107-0.67,0.533-0.563,0.951c0.107,0.418,0.533,0.67,0.951,0.563c2.455-0.63,4.704-1.914,6.503-3.713
			c2.312-2.312,3.765-5.373,4.092-8.621c0.323-3.201-0.455-6.445-2.19-9.133c-0.517-0.8-1.355-1.317-2.301-1.418
			c-0.943-0.1-1.868,0.226-2.539,0.897c-1.048,1.048-1.215,2.66-0.406,3.92c2.037,3.17,1.55,7.383-1.157,10.015
			c-3.062,2.978-8.045,2.978-11.108,0c-2.707-2.633-3.194-6.845-1.157-10.016c0.809-1.26,0.643-2.872-0.406-3.92
			c-0.671-0.671-1.596-0.997-2.539-0.897C9.398,10.983,8.56,11.5,8.043,12.3c-1.735,2.688-2.513,5.932-2.19,9.133
			c0.327,3.247,1.781,6.309,4.092,8.621c1.81,1.81,4.073,3.098,6.545,3.724C16.555,33.794,16.62,33.802,16.683,33.802z
			 M20.037,32.652l-0.037,0c-0.431,0-0.781,0.35-0.781,0.781c0,0.431,0.35,0.781,0.781,0.781l0.045,0
			c0.431-0.002,0.779-0.354,0.777-0.786c-0.002-0.43-0.352-0.777-0.781-0.777H20.037z M6.41,30.28c-0.522,0-1.025,0.121-1.478,0.348
			C2.725,27.51,1.563,23.851,1.563,20C1.563,9.833,9.833,1.563,20,1.563c2.386,0,4.708,0.449,6.901,1.335
			c0.4,0.161,0.855-0.032,1.017-0.432c0.162-0.4-0.032-0.855-0.432-1.017C25.107,0.487,22.588,0,20,0
			C14.658,0,9.635,2.08,5.858,5.858C2.08,9.635,0,14.658,0,20c0,4.223,1.29,8.233,3.735,11.64C3.323,32.202,3.1,32.879,3.1,33.59
			c0,0.884,0.344,1.715,0.97,2.341S5.526,36.9,6.41,36.9c0.884,0,1.715-0.344,2.34-0.969c0.625-0.625,0.97-1.456,0.97-2.341
			c0-0.884-0.344-1.715-0.97-2.341C8.126,30.624,7.294,30.28,6.41,30.28z M7.646,34.825c-0.33,0.33-0.769,0.512-1.236,0.512
			s-0.906-0.182-1.236-0.512s-0.512-0.769-0.512-1.236c0-0.467,0.182-0.906,0.512-1.236c0.33-0.33,0.769-0.512,1.236-0.512
			c0.467,0,0.906,0.182,1.236,0.512s0.512,0.769,0.512,1.236C8.158,34.056,7.976,34.495,7.646,34.825z M36.265,8.36
			c0.944-1.294,0.833-3.123-0.334-4.29c-1.291-1.291-3.391-1.291-4.681,0C30.624,4.695,30.28,5.526,30.28,6.41
			c0,0.884,0.344,1.715,0.969,2.341c0.645,0.645,1.493,0.968,2.341,0.968c0.507,0,1.013-0.116,1.477-0.347
			c2.207,3.118,3.371,6.78,3.371,10.628c0,10.167-8.271,18.438-18.438,18.438c-2.374,0-4.685-0.445-6.868-1.322
			c-0.4-0.161-0.855,0.033-1.016,0.434c-0.161,0.4,0.033,0.855,0.434,1.016C14.918,39.517,17.425,40,20,40
			c5.342,0,10.365-2.08,14.142-5.858C37.92,30.365,40,25.342,40,20C40,15.78,38.71,11.767,36.265,8.36z M34.825,7.646
			c-0.681,0.682-1.79,0.681-2.471,0c-0.33-0.33-0.512-0.769-0.512-1.236c0-0.467,0.182-0.906,0.512-1.236
			c0.341-0.341,0.788-0.511,1.236-0.511c0.448,0,0.895,0.17,1.236,0.511C35.507,5.856,35.507,6.965,34.825,7.646z M23.125,8.216
			c0-1.723-1.402-3.125-3.125-3.125s-3.125,1.402-3.125,3.125v9.45c0,1.723,1.402,3.125,3.125,3.125s3.125-1.402,3.125-3.125v-1.442
			c0-0.431-0.35-0.781-0.781-0.781s-0.781,0.35-0.781,0.781v1.442c0,0.862-0.701,1.563-1.563,1.563s-1.563-0.701-1.563-1.563v-9.45
			c0-0.862,0.701-1.563,1.563-1.563s1.563,0.701,1.563,1.563v1.575c0,0.431,0.35,0.781,0.781,0.781s0.781-0.35,0.781-0.781V8.216z
			 M22.344,12.16c-0.205,0-0.407,0.083-0.552,0.228c-0.145,0.146-0.229,0.348-0.229,0.553s0.084,0.407,0.229,0.552
			c0.145,0.145,0.347,0.229,0.552,0.229s0.407-0.084,0.552-0.229c0.145-0.145,0.229-0.347,0.229-0.552s-0.084-0.407-0.229-0.553
			C22.751,12.243,22.549,12.16,22.344,12.16z"/>
	</g>
</g>
</svg>
