<svg height="480pt" viewBox="-104 0 480 480" width="480pt" xmlns="http://www.w3.org/2000/svg"><path d="m264 272h-16v-224c0-26.507812-21.492188-48-48-48s-48 21.492188-48 48v224h-32v-224c0-26.507812-21.492188-48-48-48s-48 21.492188-48 48v224h-16c-4.417969 0-8 3.582031-8 8v48c.0507812 36.644531 27.585938 67.421875 64 71.527344v40.472656c.027344 22.082031 17.917969 39.972656 40 40h64c22.082031-.027344 39.972656-17.917969 40-40v-40.472656c36.414062-4.105469 63.949219-34.882813 64-71.527344v-48c0-4.417969-3.582031-8-8-8zm-96-224c0-17.671875 14.328125-32 32-32s32 14.328125 32 32v224h-64zm-128 0c0-17.671875 14.328125-32 32-32s32 14.328125 32 32v224h-64zm40 384v-8h112v8zm112-24h-112v-8h112zm-24 56h-64c-10.132812-.042969-19.148438-6.445312-22.527344-16h109.054688c-3.378906 9.554688-12.394532 15.957031-22.527344 16zm88-136c-.039062 30.910156-25.089844 55.960938-56 56h-128c-30.910156-.039062-55.960938-25.089844-56-56v-40h240zm0 0"/><path d="m232 304c-4.417969 0-8 3.582031-8 8v16c0 13.253906-10.746094 24-24 24h-16c-4.417969 0-8 3.582031-8 8s3.582031 8 8 8h16c22.082031-.027344 39.972656-17.917969 40-40v-16c0-4.417969-3.582031-8-8-8zm0 0"/><path d="m200 32c-4.417969 0-8 3.582031-8 8s3.582031 8 8 8v200c0 4.417969 3.582031 8 8 8s8-3.582031 8-8v-200c0-8.835938-7.164062-16-16-16zm0 0"/><path d="m72 32c-4.417969 0-8 3.582031-8 8s3.582031 8 8 8v200c0 4.417969 3.582031 8 8 8s8-3.582031 8-8v-200c0-8.835938-7.164062-16-16-16zm0 0"/><path d="m88 296h-48c-4.417969 0-8 3.582031-8 8v24c0 4.417969 3.582031 8 8 8s8-3.582031 8-8v-16h40c4.417969 0 8-3.582031 8-8s-3.582031-8-8-8zm0 0"/></svg>