<?xml version="1.0" encoding="utf-8"?>
<!-- Generator: Adobe Illustrator 21.1.0, SVG Export Plug-In . SVG Version: 6.00 Build 0)  -->
<svg version="1.1" id="Forma_1_1_" xmlns="http://www.w3.org/2000/svg" xmlns:xlink="http://www.w3.org/1999/xlink" x="0px" y="0px"
	 width="35.657px" height="70px" viewBox="0 0 35.657 70" style="enable-background:new 0 0 35.657 70;" xml:space="preserve">
<g id="Forma_1">
	<g>
		<path style="fill-rule:evenodd;clip-rule:evenodd;fill:#0D73FC;" d="M34.702,24.561c0.808-1.154,1.118-2.552,0.874-3.939
			c-0.244-1.382-1.01-2.586-2.157-3.394c0.493-0.347,0.927-0.781,1.283-1.289c0.808-1.154,1.118-2.553,0.874-3.939
			c-0.245-1.387-1.015-2.595-2.169-3.403c-1.152-0.806-2.549-1.117-3.934-0.874c0.542-1.029,0.729-2.2,0.524-3.364
			c-0.245-1.387-1.015-2.595-2.169-3.403c-1.154-0.808-2.554-1.118-3.941-0.873L9.939,2.54C8.552,2.784,7.342,3.554,6.534,4.708
			C5.726,5.861,5.416,7.26,5.661,8.647c0.211,1.194,0.81,2.223,1.645,2.981L4.36,12.147c-2.864,0.505-4.784,3.245-4.278,6.107
			c0.252,1.428,1.06,2.62,2.162,3.395c-1.619,1.141-2.529,3.152-2.162,5.228c0.252,1.426,1.059,2.618,2.159,3.393
			c-0.494,0.348-0.929,0.782-1.286,1.291c-0.808,1.154-1.118,2.552-0.874,3.939c0.505,2.863,3.246,4.781,6.11,4.276l2.113-0.372
			V45.3H3.666c-0.567,0-1.026,0.459-1.026,1.025c0,0.566,0.459,1.025,1.026,1.025h1.807v3.214c0,0.003,0,0.005,0,0.008
			c0,0.003,0,0.005,0,0.008v4.231c0,0.003,0,0.005,0,0.008c0,0.003,0,0.005,0,0.008v4.231c0,0.003,0,0.005,0,0.008
			c0,0.006,0.001,0.011,0.001,0.017c0.009,3.68,3.007,6.67,6.69,6.67h0.39v0.39c0,2.127,1.731,3.857,3.858,3.857h2.832
			c2.128,0,3.858-1.73,3.858-3.857v-0.39h0.39c3.689,0,6.69-2.999,6.691-6.686V47.351h1.807c0.567,0,1.026-0.459,1.026-1.025
			c0-0.566-0.459-1.025-1.026-1.025h-4.639v-9.253l3.945-0.695c1.388-0.244,2.597-1.014,3.405-2.168
			c0.808-1.154,1.118-2.553,0.874-3.939c-0.252-1.426-1.059-2.618-2.159-3.392C33.91,25.504,34.345,25.07,34.702,24.561z
			 M8.215,5.884c0.494-0.705,1.233-1.175,2.08-1.325l13.947-2.458c0.189-0.033,0.378-0.05,0.567-0.05c0.655,0,1.294,0.2,1.841,0.583
			c0.705,0.493,1.176,1.232,1.325,2.079c0.149,0.847-0.04,1.702-0.534,2.407c-0.494,0.705-1.232,1.175-2.08,1.325l-13.95,2.458
			C9.663,11.21,7.99,10.04,7.681,8.291C7.532,7.444,7.722,6.589,8.215,5.884z M2.102,17.899c-0.309-1.749,0.864-3.423,2.614-3.732
			l7.052-1.243c0.001,0,0.001,0,0.002,0l13.947-2.458c0,0,0,0,0,0l4.103-0.723c0.189-0.033,0.378-0.05,0.567-0.05
			c0.655,0,1.294,0.2,1.842,0.583c0.705,0.493,1.176,1.232,1.325,2.079c0.15,0.847-0.04,1.702-0.534,2.407
			c-0.494,0.705-1.232,1.175-2.08,1.325l-1.406,0.248c-0.023,0.004-0.046,0.006-0.069,0.01L5.764,20.523
			C4.041,20.787,2.407,19.624,2.102,17.899z M19.245,67.949h-2.832c-0.996,0-1.807-0.81-1.807-1.806v-0.39h6.445v0.39h0
			C21.051,67.139,20.241,67.949,19.245,67.949z M28.133,47.351v2.196H24.91c-0.567,0-1.026,0.459-1.026,1.025
			s0.459,1.025,1.026,1.025h3.223v2.196H24.91c-0.567,0-1.026,0.459-1.026,1.025s0.459,1.025,1.026,1.025h3.223v2.196H24.91
			c-0.567,0-1.026,0.459-1.026,1.025s0.459,1.025,1.026,1.025h3.107c-0.469,2.065-2.318,3.611-4.523,3.611h-11.33
			c-2.205,0-4.055-1.546-4.523-3.611h12.688c0.567,0,1.026-0.459,1.026-1.025s-0.459-1.025-1.026-1.025H7.525v-2.196h12.804
			c0.567,0,1.026-0.459,1.026-1.025s-0.459-1.025-1.026-1.025H7.525v-2.196h12.804c0.567,0,1.026-0.459,1.026-1.025
			s-0.459-1.025-1.026-1.025H7.525v-2.196H28.133z M16.022,45.3v-7.256l3.613-0.637V45.3H16.022z M21.687,45.3v-8.254l3.613-0.637
			V45.3H21.687z M33.555,29.6c0.15,0.847-0.04,1.702-0.534,2.407c-0.494,0.705-1.233,1.175-2.08,1.325l-15.919,2.806
			c-0.04-0.001-0.08,0-0.121,0.004c-0.528,0.049-0.931,0.491-0.931,1.021V45.3h-3.613v-7.118c0-0.303-0.134-0.591-0.366-0.785
			c-0.232-0.195-0.539-0.278-0.838-0.224l-3.317,0.585c-1.75,0.309-3.425-0.864-3.733-2.613c-0.149-0.847,0.04-1.702,0.534-2.407
			s1.233-1.175,2.08-1.325l1.399-0.247c0.025-0.004,0.051-0.007,0.076-0.012l23.695-4.176C31.614,26.71,33.251,27.873,33.555,29.6z
			 M33.021,23.385c-0.494,0.705-1.233,1.175-2.08,1.325l-1.41,0.249c-0.022,0.004-0.044,0.006-0.065,0.01L5.771,29.144
			c-1.726,0.268-3.364-0.896-3.668-2.623c-0.309-1.749,0.864-3.423,2.614-3.732l1.394-0.246c0.027-0.004,0.054-0.008,0.082-0.013
			L29.86,18.36c0.176-0.029,0.353-0.045,0.528-0.045c0.655,0,1.294,0.2,1.842,0.584c0.705,0.493,1.176,1.232,1.325,2.079
			C33.705,21.825,33.515,22.68,33.021,23.385z"/>
	</g>
</g>
</svg>
