<?xml version="1.0" encoding="utf-8"?>
<!-- Generator: Adobe Illustrator 21.1.0, SVG Export Plug-In . SVG Version: 6.00 Build 0)  -->
<svg version="1.1" id="Forma_1_1_" xmlns="http://www.w3.org/2000/svg" xmlns:xlink="http://www.w3.org/1999/xlink" x="0px" y="0px"
	 width="11.933px" height="16px" viewBox="0 0 11.933 16" style="enable-background:new 0 0 11.933 16;" xml:space="preserve">
<g id="Forma_1">
	<g>
		<path style="fill-rule:evenodd;clip-rule:evenodd;fill:#0D73FC;" d="M5.966,0C2.677,0,0,2.678,0,5.969
			c0,4.904,5.373,9.692,5.601,9.893C5.706,15.954,5.836,16,5.966,16c0.13,0,0.261-0.046,0.365-0.138
			c0.229-0.201,5.601-4.99,5.601-9.893C11.933,2.678,9.256,0,5.966,0z M5.966,7.644c-0.914,0-1.657-0.752-1.657-1.676
			s0.744-1.676,1.657-1.676s1.657,0.752,1.657,1.676S6.88,7.644,5.966,7.644z"/>
	</g>
</g>
</svg>
