<?xml version="1.0" encoding="utf-8"?>
<!-- Generator: Adobe Illustrator 21.1.0, SVG Export Plug-In . SVG Version: 6.00 Build 0)  -->
<svg version="1.1" id="Objects" xmlns="http://www.w3.org/2000/svg" xmlns:xlink="http://www.w3.org/1999/xlink" x="0px" y="0px"
	 width="318.607px" height="374.858px" viewBox="0 0 318.607 374.858" style="enable-background:new 0 0 318.607 374.858;"
	 xml:space="preserve">
<g>
	<g>
		<path style="fill:#0D73FB;" d="M40.717,26.459L40.717,26.459L40.717,26.459C8.353,58.823,5.681,109.63,32.693,145.045
			c-8.863,11.621-14.53,24.898-17.002,38.638c-0.118,0.654-0.228,1.31-0.331,1.966c-1.548,9.844-1.465,19.894,0.249,29.715
			c0.114,0.655,0.236,1.308,0.365,1.961c3.348,16.967,11.595,33.159,24.743,46.307l0,0v0c3.034,3.034,6.23,5.807,9.561,8.319
			c0.555,0.419,1.114,0.83,1.676,1.234c8.436,6.063,17.682,10.495,27.302,13.296c7.055,2.054,14.311,3.231,21.596,3.531
			c1.325,0.055,2.65,0.08,3.976,0.077c0.663-0.002,1.326-0.011,1.988-0.027c2.651-0.065,5.299-0.246,7.936-0.542
			c1.978-0.223,3.95-0.51,5.913-0.863c4.58-0.824,9.108-2.003,13.541-3.536c0.633-0.219,1.265-0.446,1.894-0.679
			c8.18-3.037,16.009-7.299,23.203-12.786c25.401,19.373,58.719,23.476,87.472,12.307c0.156-0.06,0.311-0.122,0.466-0.184
			c11.161-4.407,21.623-11.121,30.649-20.147v0h0c32.364-32.364,35.035-83.172,8.024-118.587
			c8.863-11.62,14.53-24.898,17.002-38.638c0.118-0.654,0.228-1.31,0.331-1.966c1.548-9.843,1.465-19.894-0.249-29.715
			c-0.114-0.655-0.236-1.309-0.364-1.961c-3.348-16.967-11.595-33.159-24.743-46.307l0,0l0,0c-3.034-3.034-6.23-5.807-9.561-8.319
			c-0.555-0.419-1.114-0.83-1.676-1.234c-8.436-6.063-17.682-10.495-27.302-13.296c-7.055-2.054-14.311-3.231-21.596-3.531
			c-1.325-0.055-2.65-0.08-3.976-0.077c-0.663,0.002-1.326,0.011-1.988,0.027c-2.65,0.065-5.299,0.246-7.936,0.542
			c-1.978,0.222-3.95,0.51-5.913,0.863c-4.58,0.824-9.108,2.003-13.541,3.536c-0.633,0.219-1.265,0.446-1.894,0.679
			c-8.18,3.037-16.009,7.299-23.203,12.786C133.903-0.939,100.585-5.041,71.832,6.128c-0.156,0.061-0.311,0.122-0.466,0.183
			C60.205,10.719,49.743,17.432,40.717,26.459z M59.079,44.82c0.729-0.729,1.475-1.433,2.23-2.12
			c0.234-0.211,0.466-0.413,0.699-0.616c0.265-0.234,0.535-0.46,0.802-0.689c23.395-19.598,42.39,0.58,66.274,24.464
			c21.976,21.976,40.789,39.814,28.395,60.747c-11.987-8.53-24.728-13.314-32.918-14.981c0.001,0.004,0.002,0.007,0.003,0.011
			c-15.18-3.424-31.07-2.883-46.028,1.606C55.28,90.018,36.361,71.301,55.847,48.319c0.353-0.409,0.703-0.82,1.068-1.222
			c0.122-0.135,0.252-0.271,0.376-0.407C57.874,46.059,58.466,45.433,59.079,44.82L59.079,44.82L59.079,44.82z M256.019,41.579
			c0.41,0.354,0.823,0.705,1.226,1.071c0.141,0.127,0.283,0.263,0.425,0.393c0.628,0.58,1.25,1.168,1.859,1.778h0v0
			c0.729,0.729,1.433,1.475,2.12,2.23c0.211,0.233,0.413,0.466,0.616,0.698c0.234,0.265,0.46,0.535,0.689,0.803
			c19.598,23.395-0.58,42.389-24.464,66.274c-21.977,21.977-39.815,40.808-60.751,28.407c8.535-11.99,13.318-24.737,14.985-32.931
			c-0.004,0.001-0.008,0.002-0.011,0.003c3.424-15.18,2.883-31.069-1.608-46.025C214.326,41.027,233.041,22.107,256.019,41.579z
			 M261.692,242.994c-0.122,0.135-0.252,0.271-0.376,0.407c-0.583,0.631-1.174,1.257-1.787,1.869l0,0l0,0
			c-0.729,0.729-1.475,1.433-2.23,2.12c-0.234,0.211-0.466,0.413-0.699,0.616c-0.265,0.234-0.534,0.46-0.802,0.689
			c-23.395,19.598-42.39-0.58-66.274-24.464c-21.975-21.975-40.789-39.814-28.395-60.747c11.987,8.53,24.728,13.315,32.918,14.981
			c-0.001-0.004-0.002-0.007-0.003-0.011c15.18,3.424,31.07,2.883,46.028-1.606c23.255,23.225,42.175,41.942,22.688,64.924
			C262.407,242.181,262.058,242.592,261.692,242.994z M62.589,248.512c-0.41-0.354-0.823-0.705-1.226-1.071
			c-0.141-0.127-0.283-0.263-0.425-0.393c-0.627-0.58-1.25-1.169-1.86-1.778l0,0l0,0c-0.73-0.73-1.433-1.475-2.12-2.23
			c-0.211-0.233-0.413-0.466-0.616-0.698c-0.234-0.265-0.46-0.535-0.689-0.803c-19.597-23.395,0.58-42.389,24.464-66.274
			c21.977-21.977,39.815-40.808,60.751-28.407c-8.535,11.991-13.318,24.737-14.985,32.931c0.004-0.001,0.007-0.002,0.011-0.003
			c-3.424,15.18-2.883,31.069,1.609,46.025C104.282,249.063,85.566,267.983,62.589,248.512z"/>
	</g>
	<g>
		<g>
			<path style="fill:#3A3A3A;" d="M31.542,360.542c-2.225,0.798-6.617,2.11-11.807,2.11c-5.818,0-10.609-1.483-14.373-5.076
				C2.054,354.382,0,349.248,0,343.26c0.057-11.465,7.928-19.85,20.819-19.85c4.449,0,7.928,0.97,9.582,1.769l-1.198,4.05
				c-2.053-0.913-4.62-1.654-8.499-1.654c-9.354,0-15.457,5.817-15.457,15.457c0,9.754,5.875,15.515,14.83,15.515
				c3.251,0,5.476-0.457,6.616-1.027v-11.464h-7.814v-3.993h12.663V360.542z"/>
			<path style="fill:#3A3A3A;" d="M38.957,343.26c0-3.251-0.057-6.046-0.228-8.613h4.392l0.171,5.419h0.228
				c1.255-3.707,4.278-6.046,7.643-6.046c0.57,0,0.97,0.057,1.426,0.171v4.734c-0.514-0.114-1.027-0.171-1.711-0.171
				c-3.536,0-6.046,2.681-6.73,6.445c-0.114,0.684-0.228,1.482-0.228,2.338v14.716h-4.962V343.26z"/>
			<path style="fill:#3A3A3A;" d="M59.833,349.362c0.114,6.788,4.449,9.582,9.468,9.582c3.593,0,5.761-0.627,7.643-1.426
				l0.855,3.594c-1.768,0.799-4.791,1.711-9.183,1.711c-8.499,0-13.575-5.59-13.575-13.917s4.905-14.887,12.947-14.887
				c9.012,0,11.408,7.928,11.408,13.005c0,1.026-0.114,1.825-0.171,2.338H59.833z M74.548,345.769
				c0.057-3.194-1.312-8.156-6.958-8.156c-5.077,0-7.301,4.677-7.7,8.156H74.548z"/>
			<path style="fill:#3A3A3A;" d="M88.408,349.362c0.114,6.788,4.449,9.582,9.468,9.582c3.593,0,5.761-0.627,7.643-1.426
				l0.855,3.594c-1.768,0.799-4.791,1.711-9.183,1.711c-8.499,0-13.575-5.59-13.575-13.917s4.905-14.887,12.947-14.887
				c9.012,0,11.408,7.928,11.408,13.005c0,1.026-0.114,1.825-0.171,2.338H88.408z M103.124,345.769
				c0.057-3.194-1.312-8.156-6.958-8.156c-5.077,0-7.301,4.677-7.7,8.156H103.124z"/>
			<path style="fill:#3A3A3A;" d="M114.188,342.119c0-2.853-0.057-5.19-0.228-7.473h4.449l0.286,4.563h0.114
				c1.369-2.624,4.563-5.19,9.126-5.19c3.822,0,9.753,2.281,9.753,11.75v16.483h-5.019V346.34c0-4.449-1.654-8.156-6.388-8.156
				c-3.309,0-5.875,2.338-6.73,5.133c-0.229,0.628-0.342,1.483-0.342,2.339v16.598h-5.02V342.119z"/>
			<path style="fill:#3A3A3A;" d="M178.013,344.229h-14.944v13.859h16.655v4.164h-21.617V323.81h20.762v4.164h-15.8v12.148h14.944
				V344.229z"/>
			<path style="fill:#3A3A3A;" d="M185.997,342.119c0-2.853-0.058-5.19-0.229-7.473h4.449l0.285,4.563h0.114
				c1.368-2.624,4.563-5.19,9.126-5.19c3.821,0,9.753,2.281,9.753,11.75v16.483h-5.02V346.34c0-4.449-1.654-8.156-6.388-8.156
				c-3.309,0-5.875,2.338-6.73,5.133c-0.229,0.628-0.343,1.483-0.343,2.339v16.598h-5.019V342.119z"/>
			<path style="fill:#3A3A3A;" d="M220.448,349.362c0.113,6.788,4.448,9.582,9.468,9.582c3.594,0,5.761-0.627,7.643-1.426
				l0.856,3.594c-1.769,0.799-4.792,1.711-9.184,1.711c-8.498,0-13.575-5.59-13.575-13.917s4.905-14.887,12.948-14.887
				c9.012,0,11.407,7.928,11.407,13.005c0,1.026-0.114,1.825-0.171,2.338H220.448z M235.163,345.769
				c0.058-3.194-1.312-8.156-6.958-8.156c-5.076,0-7.301,4.677-7.7,8.156H235.163z"/>
			<path style="fill:#3A3A3A;" d="M246.229,343.26c0-3.251-0.058-6.046-0.229-8.613h4.392l0.172,5.419h0.228
				c1.255-3.707,4.278-6.046,7.644-6.046c0.57,0,0.97,0.057,1.426,0.171v4.734c-0.514-0.114-1.027-0.171-1.711-0.171
				c-3.537,0-6.046,2.681-6.73,6.445c-0.114,0.684-0.229,1.482-0.229,2.338v14.716h-4.962V343.26z"/>
			<path style="fill:#3A3A3A;" d="M288.207,334.646c-0.114,1.997-0.229,4.221-0.229,7.586v16.028c0,6.331-1.254,10.209-3.936,12.604
				c-2.681,2.51-6.559,3.309-10.038,3.309c-3.309,0-6.959-0.799-9.183-2.281l1.254-3.822c1.825,1.142,4.678,2.168,8.1,2.168
				c5.134,0,8.898-2.681,8.898-9.64v-3.08h-0.114c-1.54,2.567-4.506,4.62-8.784,4.62c-6.845,0-11.75-5.817-11.75-13.461
				c0-9.354,6.104-14.658,12.435-14.658c4.791,0,7.415,2.51,8.612,4.791h0.114l0.229-4.164H288.207z M283.017,345.541
				c0-0.855-0.057-1.597-0.285-2.281c-0.912-2.909-3.365-5.305-7.016-5.305c-4.791,0-8.213,4.05-8.213,10.438
				c0,5.419,2.737,9.925,8.156,9.925c3.08,0,5.875-1.939,6.958-5.134c0.285-0.855,0.399-1.825,0.399-2.681V345.541z"/>
			<path style="fill:#3A3A3A;" d="M298.132,334.646l6.046,16.313c0.627,1.825,1.312,3.992,1.768,5.646h0.114
				c0.514-1.654,1.084-3.765,1.769-5.761l5.476-16.199h5.304l-7.528,19.679c-3.594,9.468-6.046,14.315-9.469,17.282
				c-2.452,2.167-4.905,3.022-6.159,3.251l-1.255-4.221c1.255-0.399,2.908-1.198,4.392-2.453c1.369-1.083,3.08-3.022,4.221-5.59
				c0.229-0.513,0.399-0.912,0.399-1.197s-0.114-0.685-0.343-1.312l-10.209-25.439H298.132z"/>
		</g>
	</g>
</g>
</svg>
