<?xml version="1.0" encoding="utf-8"?>
<!-- Generator: Adobe Illustrator 21.1.0, SVG Export Plug-In . SVG Version: 6.00 Build 0)  -->
<svg version="1.1" id="Layer_1" xmlns="http://www.w3.org/2000/svg" xmlns:xlink="http://www.w3.org/1999/xlink" x="0px" y="0px"
	 width="328.113px" height="262.151px" viewBox="0 0 328.113 262.151" style="enable-background:new 0 0 328.113 262.151;"
	 xml:space="preserve">
<g>
	<g>
		<path style="fill:#061322;" d="M34.065,261.335h-8.448V242.04H8.448v19.295H0v-43.55h8.448v17.278h17.169v-17.278h8.448V261.335z"
			/>
		<path style="fill:#061322;" d="M72.327,245.528c0,0.509-0.027,1.036-0.082,1.58c-0.054,0.545-0.118,1.109-0.19,1.689H46.874
			c0.29,0.909,0.699,1.771,1.226,2.59c0.526,0.817,1.172,1.525,1.935,2.125c0.763,0.6,1.626,1.072,2.589,1.418
			c0.962,0.346,2.025,0.518,3.188,0.518c1.417,0,2.834-0.246,4.251-0.736c1.417-0.49,2.598-1.152,3.543-1.989l4.96,4.96
			c-2.18,1.635-4.315,2.789-6.404,3.461c-2.09,0.672-4.297,1.008-6.622,1.008c-2.362,0-4.57-0.436-6.622-1.308
			c-2.054-0.872-3.834-2.052-5.342-3.542c-1.508-1.49-2.698-3.244-3.57-5.26c-0.872-2.018-1.308-4.17-1.308-6.46
			c0-2.289,0.435-4.442,1.308-6.458s2.071-3.77,3.598-5.26c1.526-1.49,3.306-2.671,5.342-3.543c2.034-0.872,4.214-1.308,6.54-1.308
			c2.216,0,4.342,0.409,6.377,1.227c2.035,0.817,3.833,1.954,5.396,3.406c1.562,1.454,2.797,3.189,3.706,5.206
			C71.873,240.868,72.327,243.094,72.327,245.528z M64.097,242.476c-0.618-1.998-1.717-3.606-3.297-4.824
			c-1.581-1.217-3.371-1.826-5.369-1.826c-1.962,0-3.725,0.609-5.287,1.826c-1.563,1.218-2.652,2.826-3.269,4.824H64.097z"/>
		<path style="fill:#061322;" d="M103.395,261.389h-8.993l-6.54-10.084l-6.595,10.084h-8.994l11.229-16.516l-10.302-15.098h8.885
			l5.777,8.83l5.723-8.83h8.938l-10.355,15.098L103.395,261.389z"/>
		<path style="fill:#061322;" d="M131.137,261.335h-7.849v-1.69c-1.381,0.945-2.844,1.599-4.388,1.961
			c-1.545,0.363-3.134,0.545-4.769,0.545c-1.526,0-2.908-0.227-4.143-0.681c-1.236-0.454-2.308-1.108-3.216-1.962
			c-0.909-0.854-1.608-1.861-2.099-3.025c-0.49-1.162-0.735-2.453-0.735-3.869c0-1.78,0.39-3.334,1.172-4.66
			c0.78-1.327,1.844-2.435,3.188-3.325c1.344-0.89,2.916-1.554,4.714-1.99c1.799-0.436,3.734-0.654,5.805-0.654h4.524
			c0-1.853-0.6-3.325-1.799-4.415c-1.199-1.09-2.925-1.635-5.178-1.635c-1.09,0-2.217,0.2-3.379,0.599
			c-1.164,0.4-2.326,1.127-3.488,2.18l-4.634-4.687c1.671-1.599,3.606-2.834,5.805-3.706c2.198-0.872,4.461-1.308,6.786-1.308
			c2.181,0,4.121,0.346,5.823,1.036c1.702,0.691,3.076,1.581,4.123,2.671c1.371,1.381,2.336,2.925,2.895,4.633
			c0.559,1.708,0.839,3.889,0.839,6.54V261.335z M123.288,253.485v-5.832h-3.598c-1.09,0-2.116,0.074-3.079,0.219
			c-0.963,0.146-1.799,0.391-2.507,0.735c-0.709,0.347-1.272,0.79-1.689,1.335c-0.419,0.546-0.627,1.199-0.627,1.963
			c0,1.09,0.427,1.98,1.28,2.67c0.854,0.691,1.953,1.036,3.298,1.036c1.162,0,2.316-0.181,3.461-0.545
			C120.972,254.704,122.125,254.176,123.288,253.485z"/>
		<path style="fill:#061322;" d="M183.297,232.392c0,2.071-0.392,4.006-1.176,5.805c-0.783,1.799-1.849,3.361-3.195,4.688
			c-1.348,1.327-2.933,2.362-4.753,3.106c-1.822,0.746-3.753,1.117-5.792,1.117h-7.213v14.227h-8.448v-43.55h15.671
			c2.038,0,3.967,0.373,5.788,1.118c1.819,0.745,3.402,1.771,4.75,3.079c1.347,1.308,2.411,2.853,3.193,4.633
			C182.905,228.395,183.297,230.321,183.297,232.392z M174.849,232.283c0-1.126-0.21-2.18-0.627-3.162
			c-0.418-0.981-0.99-1.835-1.717-2.561c-0.727-0.727-1.581-1.308-2.561-1.744c-0.981-0.436-2.035-0.654-3.161-0.654h-5.614v16.46
			h5.614c1.126,0,2.18-0.227,3.161-0.681c0.98-0.454,1.834-1.063,2.561-1.826c0.727-0.763,1.299-1.644,1.717-2.644
			C174.639,234.473,174.849,233.41,174.849,232.283z"/>
		<path style="fill:#061322;" d="M218.778,245.582c0,2.363-0.436,4.551-1.309,6.568c-0.872,2.017-2.07,3.761-3.597,5.232
			c-1.526,1.472-3.316,2.636-5.369,3.488c-2.053,0.853-4.242,1.28-6.567,1.28c-2.326,0-4.506-0.427-6.541-1.28
			c-2.035-0.853-3.815-2.024-5.341-3.516c-1.526-1.489-2.726-3.243-3.598-5.26s-1.308-4.186-1.308-6.513
			c0-2.289,0.444-4.442,1.335-6.458c0.89-2.017,2.099-3.779,3.624-5.287c1.526-1.507,3.307-2.688,5.342-3.543
			c2.034-0.853,4.197-1.281,6.486-1.281c2.325,0,4.515,0.428,6.567,1.281c2.053,0.854,3.843,2.017,5.369,3.488
			c1.526,1.472,2.725,3.225,3.597,5.26C218.342,241.077,218.778,243.257,218.778,245.582z M210.93,245.582
			c0-1.344-0.236-2.597-0.707-3.761c-0.471-1.163-1.114-2.18-1.929-3.052c-0.815-0.872-1.767-1.553-2.854-2.044
			c-1.086-0.49-2.245-0.736-3.477-0.736c-1.231,0-2.392,0.246-3.479,0.736c-1.087,0.491-2.038,1.172-2.852,2.044
			c-0.816,0.872-1.458,1.89-1.93,3.052c-0.471,1.164-0.705,2.417-0.705,3.761c0,1.344,0.234,2.598,0.705,3.76
			c0.472,1.164,1.114,2.181,1.93,3.053c0.814,0.872,1.766,1.554,2.852,2.044c1.087,0.491,2.247,0.735,3.479,0.735
			c1.232,0,2.391-0.244,3.477-0.735c1.087-0.49,2.038-1.172,2.854-2.044c0.814-0.872,1.458-1.889,1.929-3.053
			C210.693,248.18,210.93,246.926,210.93,245.582z"/>
		<path style="fill:#061322;" d="M267.232,229.776l-10.573,31.613h-6.813l-6.268-18.805l-6.269,18.805h-6.813l-10.629-31.613h8.285
			l5.94,19.73l5.941-19.73h6.977l5.995,19.73l5.941-19.73H267.232z"/>
		<path style="fill:#061322;" d="M301.951,245.528c0,0.509-0.027,1.036-0.082,1.58c-0.055,0.545-0.118,1.109-0.19,1.689h-25.182
			c0.291,0.909,0.699,1.771,1.227,2.59c0.526,0.817,1.172,1.525,1.935,2.125c0.763,0.6,1.625,1.072,2.589,1.418
			c0.962,0.346,2.024,0.518,3.189,0.518c1.417,0,2.834-0.246,4.251-0.736c1.417-0.49,2.598-1.152,3.543-1.989l4.96,4.96
			c-2.181,1.635-4.315,2.789-6.404,3.461c-2.09,0.672-4.298,1.008-6.622,1.008c-2.362,0-4.57-0.436-6.623-1.308
			c-2.053-0.872-3.834-2.052-5.341-3.542c-1.509-1.49-2.698-3.244-3.57-5.26c-0.872-2.018-1.308-4.17-1.308-6.46
			c0-2.289,0.436-4.442,1.308-6.458c0.872-2.017,2.071-3.77,3.598-5.26c1.525-1.49,3.306-2.671,5.341-3.543
			c2.035-0.872,4.215-1.308,6.541-1.308c2.216,0,4.342,0.409,6.377,1.227c2.034,0.817,3.833,1.954,5.396,3.406
			c1.563,1.454,2.798,3.189,3.707,5.206C301.496,240.868,301.951,243.094,301.951,245.528z M293.721,242.476
			c-0.618-1.998-1.717-3.606-3.297-4.824c-1.581-1.217-3.371-1.826-5.369-1.826c-1.962,0-3.725,0.609-5.287,1.826
			c-1.563,1.218-2.652,2.826-3.271,4.824H293.721z"/>
		<path style="fill:#061322;" d="M328.113,233.101l-4.197,6.649c-0.763-0.835-1.607-1.571-2.534-2.207
			c-0.927-0.636-1.862-0.954-2.807-0.954c-0.51,0-1.064,0.119-1.662,0.355c-0.6,0.237-1.164,0.626-1.69,1.172
			c-0.526,0.545-0.973,1.263-1.335,2.153c-0.363,0.891-0.545,1.989-0.545,3.297v17.769h-7.849v-31.504h7.849v3.379
			c0.944-1.344,1.989-2.379,3.134-3.107c1.145-0.727,2.426-1.09,3.843-1.09c1.38,0,2.733,0.373,4.06,1.117
			C325.706,230.876,326.95,231.866,328.113,233.101z"/>
	</g>
	<g>
		<path style="fill:#0D73FB;" d="M250.235,49.755l-35.055-20.24l-2.302,6.023c13.57,4.354,26.223,11.095,37.356,20.229V49.755z"/>
		<path style="fill:#0D73FB;" d="M140.262,97.957l-4.267,18.488l32.217-4.654l-3.111,15.132c3.576-0.147,7.139-0.168,10.679-0.038
			l19.825-30.362C177.808,93.243,158.951,93.74,140.262,97.957z"/>
		<path style="fill:#0D73FB;" d="M165.1,126.923l-4.899,23.816l15.578-23.854C172.239,126.755,168.677,126.776,165.1,126.923z"/>
		<path style="fill:#0D73FB;" d="M104.924,78.703c-9.352,4.764-18.415,10.577-27.046,17.363v31.614
			c8.638-6.686,17.706-12.376,27.046-17.054V78.703z"/>
		<path style="fill:#0D73FB;" d="M223.189,133.651l-4.244,2.45c9.59,3.972,18.616,9.211,26.843,15.734l4.447-2.568v-27.003
			c-8.219-7.078-17.323-12.792-27.046-17.172V133.651z"/>
		<path style="fill:#0D73FB;" d="M223.189,65.37v6.87c9.708,4.262,18.808,9.85,27.046,16.776V55.768
			c-11.134-9.134-23.786-15.875-37.356-20.229l-7.48,19.557L223.189,65.37z"/>
		<path style="fill:#0D73FB;" d="M223.189,72.24v32.851c9.723,4.379,18.827,10.094,27.046,17.172V89.016
			C241.997,82.09,232.897,76.502,223.189,72.24z"/>
		<path style="fill:#0D73FB;" d="M148.056,64.178l-7.794,33.78c18.689-4.218,37.546-4.714,55.343-1.434l7.329-11.225l-30.514,3.008
			l9.952-26.014C171.116,61.49,159.583,62.136,148.056,64.178z"/>
		<path style="fill:#0D73FB;" d="M218.945,136.101l-40.504,23.386c13.528,0.872,26.662,3.782,38.899,8.771l28.447-16.423
			C237.561,145.312,228.535,140.072,218.945,136.101z"/>
		<path style="fill:#0D73FB;" d="M164.056,167.792l-12.728-7.348c-12.419,1.643-24.888,4.906-37.043,9.843l49.771,28.734
			l53.285-30.764c-12.237-4.989-25.371-7.899-38.899-8.771L164.056,167.792z"/>
		<path style="fill:#0D73FB;" d="M104.924,65.37l49.446-28.552l-6.314,27.359c11.527-2.042,23.061-2.687,34.316-1.886l6.421-16.784
			l5.496-14.365c-38.335-6.014-81.185,5.172-116.411,33.308v31.616c8.631-6.787,17.694-12.6,27.046-17.363V65.37z"/>
		<path style="fill:#0D73FB;" d="M194.289,31.143l4.289-11.212L164.056,0l-1.371,0.793L77.878,49.755v14.695
			C113.104,36.315,155.954,25.129,194.289,31.143z"/>
		<path style="fill:#0D73FB;" d="M113.54,138.626c-9.569,4.02-18.929,9.056-27.907,15.119l28.652,16.543
			c12.155-4.937,24.624-8.2,37.043-9.843L113.54,138.626z"/>
		<path style="fill:#0D73FB;" d="M104.924,133.651v-23.025c-9.34,4.678-18.408,10.368-27.046,17.054v21.586l7.755,4.478
			c8.979-6.063,18.338-11.099,27.907-15.119L104.924,133.651z"/>
	</g>
</g>
</svg>
