<?xml version="1.0" encoding="utf-8"?>
<!-- Generator: Adobe Illustrator 21.1.0, SVG Export Plug-In . SVG Version: 6.00 Build 0)  -->
<svg version="1.1" id="Layer_1" xmlns="http://www.w3.org/2000/svg" xmlns:xlink="http://www.w3.org/1999/xlink" x="0px" y="0px"
	 width="435.889px" height="383.185px" viewBox="0 0 435.889 383.185" style="enable-background:new 0 0 435.889 383.185;"
	 xml:space="preserve">
<g>
	<g>
		<g>
			<path style="fill:#0D73FC;" d="M312.345,79.799c-1.617-2.653-3.314-4.646-1.584-9.285c8.853-23.775-7.475-20.946-6.003-40.195
				c-8.378,10.304-2.817,16.196-3.964,24.457c-1.123,8.098-6.339,13.475-9.057,13.588c-4.191,0.175-4.444-5.982-4.299-6.309
				c5.549-12.342,5.546-18.488-3.739-32.529c3.851,24.684-17.23,32.531-21.513,32.95c-4.644,0.453-3.887-3.602-3.461-5.626
				c3.461-16.454-21.904-19.284,3.346-42.157c-39.741,13.135-31.478,40.196-44.075,37.652c-10.607-2.141,14.467-25.14-10.16-41.445
				c4.5,23.015-18.682,43.197-29.507,48.19c-119.419,55.093-93.034,197.671,6.403,226.498c-10.756-12.318-17.35-28.708-19.75-49.192
				l43.065-4.159c4.861,27.228,19.317,42.031,47.817,42.048c14.257,0.012,24.999-2.995,32.229-9.026
				c13.3-11.081,13.186-26.129,6.304-34.384c-14.196-17.006-74.414-16.712-101.273-40.813c-32.958-29.571-24.5-80.059,16.736-97.626
				c11.914-5.075,26.295-7.608,43.144-7.598c33.101,0.022,51.521,8.754,62.618,18.596C311.504,91.187,317.286,87.901,312.345,79.799
				z"/>
			<path style="fill:#0D73FC;" d="M335.211,151.358l-42.48,1.838c-3.894-23.241-16.232-31.711-40.2-31.726
				c-38-0.024-44.59,23.115-30.677,34.817c5.579,4.691,19.133,9.583,40.664,14.681c36.271,8.591,56.394,16.381,69.432,34.34
				C336.985,188.383,338.344,169.908,335.211,151.358z"/>
		</g>
		<path style="fill:#0D73FC;" d="M276.086,4.276c4.231,17.021-18.332,17.825-9.355,45.291
			C269.023,24.344,285.927,30.565,276.086,4.276z"/>
		<path style="fill:#0D73FC;" d="M237.504,0c-24.197,22.49-6.372,15.356-13.817,35.868C243.275,10.164,219.838,22.619,237.504,0z"/>
	</g>
	<path style="fill:#414042;" d="M0,362.771l11.688-1.136c0.702,3.923,2.131,6.806,4.281,8.644c2.151,1.841,5.053,2.761,8.706,2.761
		c3.869,0,6.784-0.817,8.746-2.455c1.962-1.637,2.942-3.552,2.942-5.744c0-1.405-0.413-2.603-1.238-3.592
		c-0.825-0.987-2.266-1.846-4.322-2.577c-1.407-0.487-4.613-1.353-9.619-2.596c-6.439-1.597-10.958-3.56-13.555-5.888
		c-3.652-3.272-5.478-7.264-5.478-11.971c0-3.03,0.857-5.865,2.576-8.504c1.718-2.637,4.194-4.647,7.427-6.026
		c3.233-1.379,7.137-2.07,11.709-2.07c7.469,0,13.089,1.638,16.863,4.912c3.774,3.273,5.758,7.642,5.946,13.108l-12.014,0.528
		c-0.514-3.057-1.617-5.256-3.307-6.597c-1.691-1.339-4.229-2.008-7.61-2.008c-3.49,0-6.224,0.717-8.198,2.15
		c-1.273,0.921-1.907,2.151-1.907,3.693c0,1.408,0.595,2.612,1.785,3.612c1.516,1.271,5.195,2.598,11.04,3.977
		c5.844,1.38,10.166,2.809,12.967,4.281c2.801,1.477,4.992,3.492,6.575,6.048c1.582,2.558,2.373,5.718,2.373,9.478
		c0,3.408-0.946,6.602-2.841,9.578c-1.895,2.978-4.572,5.189-8.035,6.635c-3.465,1.449-7.779,2.173-12.947,2.173
		c-7.521,0-13.299-1.737-17.33-5.216C3.192,374.492,0.784,369.427,0,362.771z"/>
	<path style="fill:#414042;" d="M58.483,382.129v-59.496H102.6v10.063H70.497v13.192h29.87v10.024h-29.87v16.192h33.239v10.024
		H58.483z"/>
	<path style="fill:#414042;" d="M114.044,382.129v-59.496h11.69l24.351,39.731v-39.731h11.16v59.496h-12.053l-23.986-38.799v38.799
		H114.044z"/>
	<path style="fill:#414042;" d="M174.07,382.129v-59.496h11.69l24.351,39.731v-39.731h11.16v59.496h-12.053l-23.986-38.799v38.799
		H174.07z"/>
	<path style="fill:#0D73FC;" d="M257.84,382.129v-59.496h40.139v7.02h-32.266v18.427h27.924v7.021h-27.924v27.029H257.84z"/>
	<path style="fill:#0D73FC;" d="M309.547,382.129v-59.496h7.873v59.496H309.547z"/>
	<path style="fill:#0D73FC;" d="M331.423,382.129v-59.496h26.38c5.303,0,9.334,0.532,12.094,1.602
		c2.761,1.068,4.966,2.956,6.616,5.662c1.649,2.706,2.475,5.696,2.475,8.969c0,4.221-1.366,7.78-4.1,10.675
		c-2.733,2.895-6.953,4.735-12.662,5.52c2.083,1.001,3.666,1.988,4.748,2.964c2.3,2.107,4.479,4.747,6.535,7.911l10.349,16.194
		h-9.903l-7.873-12.377c-2.3-3.573-4.194-6.306-5.682-8.198c-1.488-1.894-2.821-3.22-3.998-3.978
		c-1.178-0.758-2.374-1.286-3.592-1.582c-0.893-0.191-2.354-0.285-4.384-0.285h-9.131v26.42H331.423z M339.296,348.89h16.924
		c3.599,0,6.413-0.37,8.442-1.116c2.029-0.743,3.571-1.934,4.626-3.571c1.056-1.637,1.583-3.415,1.583-5.337
		c0-2.814-1.022-5.128-3.064-6.939c-2.044-1.812-5.271-2.72-9.681-2.72h-18.831V348.89z"/>
	<path style="fill:#0D73FC;" d="M391.489,382.129v-59.496h43.02v7.02h-35.146v18.224h32.914v6.979h-32.914v20.254h36.525v7.02
		H391.489z"/>
</g>
</svg>
