<?xml version="1.0" encoding="utf-8"?>
<!-- Generator: Adobe Illustrator 21.1.0, SVG Export Plug-In . SVG Version: 6.00 Build 0)  -->
<svg version="1.1" id="Forma_1_1_" xmlns="http://www.w3.org/2000/svg" xmlns:xlink="http://www.w3.org/1999/xlink" x="0px" y="0px"
	 width="40px" height="40px" viewBox="0 0 40 40" style="enable-background:new 0 0 40 40;" xml:space="preserve">
<g id="Forma_1">
	<g>
		<path style="fill-rule:evenodd;clip-rule:evenodd;fill:#0D73FC;" d="M39.219,15.715h-2.418c-0.409-1.614-1.046-3.151-1.899-4.584
			l1.703-1.703c0.147-0.147,0.229-0.345,0.229-0.553c0-0.207-0.082-0.406-0.229-0.552l-4.942-4.938c-0.305-0.305-0.8-0.305-1.105,0
			l-1.701,1.701c-1.432-0.854-2.969-1.491-4.583-1.899V0.781C24.274,0.35,23.924,0,23.493,0h-6.986c-0.431,0-0.781,0.35-0.781,0.781
			v2.406c-1.614,0.409-3.151,1.046-4.583,1.899L9.442,3.385c-0.305-0.305-0.799-0.305-1.105,0L3.396,8.324
			C3.249,8.47,3.167,8.669,3.166,8.876c0,0.207,0.082,0.406,0.229,0.553l1.703,1.703c-0.854,1.432-1.49,2.969-1.899,4.584H0.785
			c-0.431,0-0.781,0.35-0.781,0.781L0,23.483c0,0.207,0.082,0.406,0.229,0.553c0.147,0.147,0.345,0.229,0.553,0.229h2.417
			c0.409,1.614,1.046,3.151,1.899,4.584l-1.711,1.711c-0.305,0.305-0.305,0.799,0,1.105l4.938,4.942
			c0.147,0.147,0.345,0.229,0.552,0.229h0c0.207,0,0.406-0.082,0.552-0.229l1.713-1.713c1.432,0.854,2.969,1.491,4.583,1.9v2.426
			c0,0.431,0.35,0.781,0.781,0.781h6.986c0.431,0,0.781-0.35,0.781-0.781v-2.426c1.614-0.409,3.151-1.046,4.583-1.9l1.713,1.713
			c0.147,0.147,0.345,0.229,0.552,0.229c0.207,0,0.406-0.082,0.552-0.229l4.938-4.942c0.305-0.305,0.305-0.8,0-1.105l-1.711-1.711
			c0.854-1.432,1.49-2.969,1.899-4.584h2.417c0.431,0,0.781-0.35,0.781-0.781v-6.987C40,16.065,39.65,15.715,39.219,15.715z
			 M38.437,22.702h-2.255v0c-0.368,0-0.686,0.257-0.764,0.617c-0.4,1.861-1.127,3.618-2.163,5.22
			c-0.2,0.309-0.157,0.716,0.104,0.977l1.597,1.597l-3.834,3.837l-1.598-1.598c-0.26-0.26-0.667-0.304-0.976-0.104
			c-1.602,1.035-3.358,1.763-5.219,2.163c-0.36,0.077-0.617,0.396-0.617,0.764v2.264h-5.423v-2.264c0-0.368-0.257-0.686-0.617-0.764
			c-1.861-0.4-3.617-1.128-5.219-2.163c-0.309-0.2-0.716-0.157-0.976,0.104l-1.598,1.598l-3.834-3.837l1.597-1.597
			c0.26-0.26,0.304-0.667,0.104-0.977c-1.035-1.602-1.763-3.358-2.162-5.22c-0.077-0.36-0.396-0.617-0.764-0.617H1.563l0.003-5.424
			h2.252c0.368,0,0.686-0.257,0.764-0.617c0.4-1.861,1.128-3.617,2.163-5.219c0.2-0.309,0.157-0.716-0.104-0.977L5.053,8.877
			l3.836-3.834l1.587,1.587c0.26,0.26,0.667,0.304,0.976,0.104c1.602-1.035,3.358-1.763,5.219-2.163
			c0.36-0.077,0.617-0.396,0.617-0.764V1.563h5.424v2.244c0,0.368,0.257,0.687,0.617,0.764c1.861,0.4,3.617,1.128,5.219,2.163
			c0.309,0.2,0.716,0.157,0.976-0.104l1.587-1.587l3.836,3.834l-1.588,1.588c-0.26,0.26-0.304,0.667-0.104,0.977
			c1.035,1.602,1.763,3.358,2.163,5.219c0.077,0.36,0.396,0.617,0.764,0.617h2.256V22.702z M30.053,9.946
			c-0.914-0.914-2.401-0.914-3.314,0c-0.914,0.914-0.914,2.401,0,3.315c0.457,0.457,1.057,0.685,1.657,0.685
			c0.273,0,0.546-0.048,0.806-0.143c1.239,1.832,1.891,3.962,1.891,6.197c0,6.117-4.976,11.094-11.093,11.094
			c-0.599,0-1.201-0.048-1.788-0.143c-0.427-0.069-0.827,0.22-0.896,0.646c-0.069,0.426,0.22,0.827,0.646,0.896
			c0.67,0.108,1.355,0.163,2.038,0.163c6.978,0,12.655-5.678,12.655-12.656c0-2.602-0.774-5.079-2.245-7.198
			C30.945,11.902,30.826,10.719,30.053,9.946z M28.948,12.156c-0.305,0.305-0.8,0.305-1.105,0c-0.148-0.148-0.229-0.344-0.229-0.552
			s0.081-0.405,0.229-0.552c0.152-0.152,0.352-0.229,0.552-0.229c0.2,0,0.4,0.076,0.552,0.229c0.148,0.148,0.229,0.344,0.229,0.552
			S29.096,12.008,28.948,12.156z M10.798,26.197C9.559,24.365,8.907,22.236,8.907,20c0-6.117,4.976-11.094,11.093-11.094
			c0.508,0,1.019,0.035,1.518,0.103c0.427,0.058,0.821-0.241,0.88-0.668s-0.24-0.821-0.668-0.88C21.161,7.383,20.579,7.344,20,7.344
			C13.022,7.344,7.345,13.021,7.345,20c0,2.603,0.775,5.079,2.245,7.198c-0.535,0.9-0.417,2.083,0.357,2.856
			c0.457,0.457,1.057,0.685,1.657,0.685c0.6,0,1.2-0.228,1.657-0.685c0.914-0.914,0.914-2.401,0-3.315
			C12.596,26.075,11.628,25.894,10.798,26.197z M12.156,28.949c-0.148,0.148-0.344,0.229-0.552,0.229
			c-0.209,0-0.405-0.081-0.552-0.229c-0.147-0.148-0.229-0.344-0.229-0.552c0-0.209,0.081-0.405,0.229-0.552
			c0.148-0.148,0.344-0.229,0.552-0.229s0.405,0.081,0.552,0.229c0.148,0.148,0.229,0.344,0.229,0.552
			C12.385,28.606,12.304,28.802,12.156,28.949z M15.899,30.311l-0.034-0.013c-0.401-0.16-0.855,0.036-1.015,0.436
			c-0.16,0.401,0.036,0.855,0.436,1.015l0.037,0.015c0.094,0.037,0.192,0.055,0.288,0.055c0.311,0,0.605-0.187,0.726-0.494
			C16.497,30.924,16.301,30.47,15.899,30.311z M24.15,9.708c0,0,0.002,0.001,0.002,0.001c0.096,0.039,0.195,0.057,0.292,0.057
			c0.309,0,0.601-0.185,0.724-0.489c0.162-0.4-0.033-0.856-0.432-1.017L24.72,8.254c-0.401-0.159-0.852,0.039-1.011,0.439
			C23.55,9.094,23.749,9.55,24.15,9.708z M20,28.399c0.13,0,0.261-0.033,0.379-0.098l6.874-3.809
			c0.248-0.138,0.403-0.399,0.403-0.683v-7.618c0-0.284-0.154-0.546-0.403-0.683l-6.874-3.809c-0.236-0.131-0.522-0.131-0.757,0
			l-6.874,3.809c-0.248,0.138-0.403,0.399-0.403,0.683v7.618c0,0.284,0.154,0.546,0.403,0.683l6.874,3.809
			C19.739,28.367,19.87,28.399,20,28.399z M26.093,23.349l-5.312,2.943V20.46l5.312-2.943V23.349z M20,13.275l5.263,2.916L20,19.107
			l-5.262-2.916L20,13.275z M19.219,26.292l-5.312-2.943v-5.832l5.312,2.943V26.292z"/>
	</g>
</g>
</svg>
