<svg height="480pt" viewBox="0 0 480 480" width="480pt" xmlns="http://www.w3.org/2000/svg"><path d="m472 464h-16v-40c0-4.417969-3.582031-8-8-8h-24v-352h24c4.417969 0 8-3.582031 8-8v-40h16c4.417969 0 8-3.582031 8-8s-3.582031-8-8-8h-464c-4.417969 0-8 3.582031-8 8s3.582031 8 8 8h16v40c0 4.417969 3.582031 8 8 8h24v352h-24c-4.417969 0-8 3.582031-8 8v40h-16c-4.417969 0-8 3.582031-8 8s3.582031 8 8 8h464c4.417969 0 8-3.582031 8-8s-3.582031-8-8-8zm-432-448h400v32h-400zm32 392h104c4.417969 0 8-3.582031 8-8s-3.582031-8-8-8h-104v-304h104c4.417969 0 8-3.582031 8-8s-3.582031-8-8-8h-104v-8h336v8h-104c-4.417969 0-8 3.582031-8 8s3.582031 8 8 8h104v304h-104c-4.417969 0-8 3.582031-8 8s3.582031 8 8 8h104v8h-336zm-32 56v-32h400v32zm0 0"/><path d="m209.382812 204.695312c2.621094 2.613282 6.6875 3.089844 9.839844 1.152344 12.765625-7.757812 28.789063-7.757812 41.554688 0 3.152344 1.9375 7.21875 1.460938 9.839844-1.152344l57.199218-57.191406c1.585938-1.585937 2.433594-3.769531 2.335938-6.011718-.097656-2.242188-1.136719-4.339844-2.855469-5.78125-50.515625-42.285157-124.078125-42.285157-174.59375 0-1.71875 1.441406-2.757813 3.539062-2.855469 5.78125-.097656 2.242187.75 4.425781 2.335938 6.011718zm30.617188-84.695312c25.15625.007812 49.671875 7.90625 70.097656 22.59375l-46.601562 46.589844c-14.90625-6.910156-32.097656-6.910156-47 0l-46.59375-46.589844c20.425781-14.6875 44.941406-22.585938 70.097656-22.59375zm0 0"/><path d="m220.800781 275.054688c-13.144531-7.121094-21.183593-21.015626-20.800781-35.957032.105469-3.707031-2.347656-6.996094-5.929688-7.953125l-78.070312-20.945312c-2.167969-.582031-4.480469-.226563-6.371094.980469-1.894531 1.207031-3.191406 3.152343-3.582031 5.363281-11.363281 64.890625 25.417969 128.597656 87.296875 151.199219.878906.320312 1.808594.480468 2.746094.480468 3.617187 0 6.789062-2.429687 7.726562-5.925781l20.9375-78.136719c.949219-3.582031-.6875-7.351562-3.953125-9.105468zm-30.128906 74.402343c-47.027344-21.222656-75.242187-70.121093-70.078125-121.457031l63.644531 17.054688c1.460938 16.367187 10.0625 31.257812 23.503907 40.707031zm0 0"/><path d="m357.785156 308c15.949219-27.644531 21.675782-60.015625 16.183594-91.457031-.390625-2.210938-1.6875-4.15625-3.578125-5.363281-1.894531-1.207032-4.207031-1.5625-6.375-.980469l-78.136719 20.945312c-3.578125.957031-6.03125 4.246094-5.925781 7.953125.378906 14.941406-7.65625 28.835938-20.800781 35.957032-3.257813 1.765624-4.882813 5.535156-3.921875 9.113281l20.9375 78.136719c.9375 3.496093 4.105469 5.929687 7.726562 5.925781.9375 0 1.867188-.160157 2.746094-.476563 29.984375-10.964844 55.167969-32.113281 71.144531-59.753906zm-68.472656 41.414062-17.054688-63.652343c13.4375-9.453125 22.035157-24.34375 23.503907-40.707031l63.644531-17.054688c5.144531 51.328125-23.074219 100.203125-70.09375 121.414062zm0 0"/><path d="m264 240c0-13.253906-10.746094-24-24-24s-24 10.746094-24 24 10.746094 24 24 24 24-10.746094 24-24zm-24 8c-4.417969 0-8-3.582031-8-8s3.582031-8 8-8 8 3.582031 8 8-3.582031 8-8 8zm0 0"/></svg>