<svg height="480pt" viewBox="-80 0 480 480.03917" width="480pt" xmlns="http://www.w3.org/2000/svg"><path d="m319.203125 143.863281c-7.488281-73.890625-64.839844-132.910156-138.484375-142.519531-73.644531-9.605469-144.21875 32.722656-170.414062 102.21875-26.199219 69.496094-1.128907 147.878906 60.53125 189.277344 15.660156 10.382812 25.105468 27.902344 25.167968 46.695312v5.976563c-7.566406 2.617187-13.308594 8.867187-15.273437 16.628906-1.96875 7.761719.105469 15.992187 5.511719 21.898437-8.320313 9.042969-8.320313 22.957032 0 32-6.390626 7.007813-8.035157 17.132813-4.183594 25.800782 3.847656 8.667968 12.460937 14.242187 21.945312 14.199218h16c0 13.253907 10.746094 24 24 24h32c13.253906 0 24-10.746093 24-24h16c9.484375.042969 18.097656-5.53125 21.945313-14.199218 3.847656-8.667969 2.207031-18.792969-4.183594-25.800782 8.320313-9.042968 8.320313-22.957031 0-32 5.40625-5.90625 7.480469-14.136718 5.511719-21.898437-1.964844-7.761719-7.707032-14.011719-15.273438-16.628906v-5.960938c.160156-18.902343 9.714844-36.484375 25.488282-46.902343 48.820312-33.007813 75.59375-90.144532 69.710937-148.785157zm-215.199219 216.175781h112c4.417969 0 8 3.582032 8 8 0 4.417969-3.582031 8-8 8h-112c-4.417968 0-8-3.582031-8-8 0-4.417968 3.582032-8 8-8zm64-119.488281 18.527344-6.175781c4.199219-1.394531 6.46875-5.929688 5.074219-10.128906-1.398438-4.195313-5.933594-6.46875-10.128907-5.070313l-13.472656 4.511719v-23.136719l18.527344-6.175781c4.199219-1.394531 6.46875-5.929688 5.074219-10.128906-1.398438-4.195313-5.933594-6.46875-10.128907-5.070313l-13.472656 4.511719v-28.90625c0-4.417969-3.582031-8-8-8-4.417968 0-8 3.582031-8 8v28.90625l-13.472656-4.449219c-4.195312-1.394531-8.730469.875-10.128906 5.074219-1.394532 4.195312.875 8.730469 5.074218 10.125l18.527344 6.113281v23.136719l-13.472656-4.449219c-4.195312-1.394531-8.730469.875-10.128906 5.074219-1.394532 4.195312.875 8.730469 5.074218 10.125l18.527344 6.113281v33.601563c-27.519531-4.183594-40-29.832032-40-55.34375 0-23.714844 30.183594-81.210938 48-112.21875 17.816406 31.007812 48 88.496094 48 112.21875 0 25.511718-12.480468 51.199218-40 55.34375zm56 159.488281c0 4.417969-3.582031 8-8 8h-112c-4.417968 0-8-3.582031-8-8 0-4.417968 3.582032-8 8-8h112c4.417969 0 8 3.582032 8 8zm-48 64h-32c-4.417968 0-8-3.582031-8-8h48c0 4.417969-3.582031 8-8 8zm40-24h-112c-4.417968 0-8-3.582031-8-8 0-4.417968 3.582032-8 8-8h112c4.417969 0 8 3.582032 8 8 0 4.417969-3.582031 8-8 8zm24.527344-160.65625c-20.175781 13.398438-32.367188 35.949219-32.527344 60.167969v4.488281h-40v-53.761718c33.34375-3.902344 56-32.183594 56-71.496094 0-36.519531-51.304687-122.453125-57.160156-132.132812-1.550781-2.253907-4.105469-3.597657-6.839844-3.597657s-5.289062 1.34375-6.839844 3.597657c-5.855468 9.679687-57.160156 95.613281-57.160156 132.132812 0 39.3125 22.65625 67.59375 56 71.496094v53.761718h-40v-4.503906c-.070312-24.113281-12.164062-46.597656-32.238281-59.953125-52.59375-35.296875-75.945313-100.816406-57.53125-161.421875 18.410156-60.605468 74.261719-102.0625 137.601563-102.140625 63.339843-.078125 119.292968 41.238281 137.855468 101.796875s-4.625 126.136719-57.128906 161.566406zm0 0"/><path d="m174.964844 32.878906c-4.394532-.496094-8.355469 2.664063-8.847656 7.054688-.496094 4.394531 2.664062 8.355468 7.054687 8.847656 52.09375 6.113281 92.949219 47.589844 98.273437 99.769531.410157 4.085938 3.84375 7.195313 7.949219 7.199219h.800781c2.117188-.203125 4.0625-1.238281 5.414063-2.878906s1.992187-3.75 1.785156-5.863282c-6.09375-59.695312-52.835937-107.140624-112.429687-114.128906zm0 0"/></svg>