<svg height="482pt" viewBox="0 -3 482.97426 482" width="482pt" xmlns="http://www.w3.org/2000/svg"><path d="m481.878906 369.320312c-4.640625-17.132812-22.289062-27.265624-39.421875-22.632812l-43.777343 13.398438c5.824218-26.167969-7.953126-52.746094-32.695313-63.070313 4.007813-12.1875 1.925781-25.554687-5.59375-35.945313-7.515625-10.390624-19.5625-16.546874-32.390625-16.550781-.800781 0-1.601562 0-2.398438.070313-6.257812-20.878906-24.039062-36.242188-45.601562-39.40625v-11.410156c-.015625-6.367188 2.515625-12.480469 7.03125-16.972657l21.601562-21.601562c10.542969 8.519531 23.675782 13.179687 37.230469 13.214843 20.15625-.683593 39.203125-9.378906 52.921875-24.160156 25.816406-25.832031 50.3125-122.871094 53.015625-133.855468.667969-2.71875-.132812-5.589844-2.113281-7.566407-1.976562-1.980469-4.847656-2.7812498-7.566406-2.113281-10.984375 2.703125-108 27.199219-133.855469 53.015625-27.792969 27.800781-31.769531 63.816406-10.953125 90.160156l-21.601562 21.601563c-3.972657 4-7.050782 8.800781-9.03125 14.078125-3.082032-3.339844-6.621094-6.226563-10.511719-8.574219l-27.257813-16.320312c7.167969-14.558594 7.984375-31.433594 2.257813-46.617188-6.851563-16.867188-19.332031-30.839844-35.320313-39.542969-31.632812-18.25-131.726562-16.800781-143.007812-16.570312-2.800782.058593-5.367188 1.574219-6.765625 4-1.402344 2.421875-1.433594 5.40625-.082031 7.859375 5.464843 9.902344 54.230468 97.308594 85.855468 115.566406 12.445313 7.421875 26.617188 11.460938 41.105469 11.710938 3.617187.003906 7.230469-.292969 10.800781-.886719 14.570313-2.398438 27.691406-10.230469 36.71875-21.921875l27.488282 16.441406c7.566406 4.582031 12.992187 12 15.0625 20.601562-27.066407 4.417969-46.964844 27.773438-47.023438 55.199219v.558594c-16.078125-2.289063-32.359375 2.503906-44.632812 13.136719-12.273438 10.632812-19.339844 26.0625-19.367188 42.304687h-2.480469c-18.144531.011719-36.246093 1.722657-54.070312 5.113281-11.085938 2.179688-21.722657 6.230469-31.449219 11.972657v-25.085938c0-4.417969-3.582031-8-8-8h-48c-4.417969 0-8 3.582031-8 8v160c0 4.417969 3.582031 8 8 8h48c4.417969 0 8-3.582031 8-8v-25.601562c10.308594 6.414062 21.691406 10.902343 33.601562 13.257812 15.347657 2.894531 30.9375 4.347657 46.558594 4.34375h114.800782c14.730468-.015625 29.394531-1.957031 43.625-5.769531l156.695312-46.230469c17.0625-4.585937 27.179688-22.136719 22.597656-39.199219zm-162.285156-304.289062c16.796875-16.800781 78.773438-36.0625 113.285156-45.390625-9.320312 34.476563-28.621094 96.503906-45.390625 113.285156-18.046875 18.03125-45 27.335938-67.425781 10.839844l23.746094-23.742187 17.464844 8.734374c3.949218 1.988282 8.765624.398438 10.753906-3.554687 1.988281-3.953125.398437-8.769531-3.554688-10.757813l-12.703125-6.34375 16.320313-16.382812 17.511718 8.800781c3.949219 1.988281 8.765626.394531 10.753907-3.554687 1.988281-3.953125.398437-8.769532-3.554688-10.757813l-12.800781-6.382812 20.441406-20.449219c2.078125-2.007812 2.914063-4.984375 2.179688-7.78125-.730469-2.796875-2.914063-4.980469-5.714844-5.710938-2.796875-.734374-5.769531.101563-7.777344 2.179688l-20.433594 20.457031-6.34375-12.71875c-1.976562-3.953125-6.785156-5.554687-10.734374-3.578125-3.953126 1.976563-5.554688 6.785156-3.578126 10.734375l8.761719 17.472657-16.359375 16.359374-6.34375-12.703124c-1.980468-3.949219-6.785156-5.550782-10.738281-3.574219-3.953125 1.976562-5.550781 6.78125-3.574219 10.734375l8.734375 17.464844-23.742187 23.742187c-16.53125-22.414063-7.175782-49.382813 10.816406-67.421875zm-138.503906 109.382812c-14.363282 1.878907-28.929688-1.265624-41.242188-8.894531-20.527344-11.847656-55.199218-66.746093-73.175781-97.679687 35.761719.085937 100.648437 2.695312 121.175781 14.542968 22.59375 13.046876 38.863282 37.449219 27.28125 64.054688l-28.730468-17.167969 4.195312-20.503906c.765625-4.273437-2.019531-8.378906-6.277344-9.25-4.253906-.867187-8.425781 1.816406-9.394531 6.050781l-3.074219 15-20-11.933594 4.0625-19.867187c.769532-4.273437-2.015625-8.378906-6.273437-9.25-4.253907-.867187-8.425781 1.816406-9.398438 6.050781l-2.941406 14.402344-24.800781-14.851562c-3.792969-2.265626-8.707032-1.03125-10.976563 2.761718-2.269531 3.792969-1.03125 8.707032 2.761719 10.976563l24.796875 14.824219-10.269531 9.109374c-3.3125 2.933594-3.625 7.996094-.691406 11.308594 2.929687 3.316406 7.992187 3.625 11.308593.691406l14.054688-12.460937 19.757812 11.816406-9.78125 8.679688c-3.316406 2.929687-3.625 7.988281-.695312 11.300781 2.925781 3.316406 7.988281 3.628906 11.300781.699219l13.601562-12 28.953126 17.320312c-6.5625 7.617188-15.605469 12.671875-25.527344 14.269531zm26.910156 102.105469c4.929688-.039062 9.820312.878907 14.398438 2.703125 2.785156 1.125 5.96875.597656 8.238281-1.371094 2.273437-1.964843 3.25-5.039062 2.53125-7.957031-.765625-3.066406-1.15625-6.214843-1.167969-9.375-.007812-20.964843 16.1875-38.371093 37.097656-39.875 20.910156-1.5 39.425782 13.410157 42.414063 34.164063.316406 2.308594 1.628906 4.367187 3.585937 5.632812 1.960938 1.265625 4.378906 1.613282 6.613282.949219 2.042968-.589844 4.164062-.882813 6.289062-.871094 13.253906 0 24 10.746094 24 24 .007812 4.585938-1.324219 9.078125-3.832031 12.917969-1.425781 2.195312-1.6875 4.945312-.707031 7.367188.980468 2.421874 3.085937 4.210937 5.636718 4.792968 18.046875 4.285156 30.820313 20.371094 30.902344 38.921875.03125 5.980469-1.300781 11.890625-3.894531 17.28125l-39.304688 12.039063c-1.960937-12.5-11.144531-22.652344-23.386719-25.847656l-35.167968-9.394532-68.167969-20c-4.796875-1.398437-9.703125-2.472656-14.621094-3.390625.335938-.859375.519531-1.765625.542969-2.6875 0-4.417969 3.582031-8 8-8 .816406-.03125 1.628906.09375 2.398438.367188 4.089843 1.621093 8.71875-.359375 10.367187-4.4375 1.648437-4.074219-.300781-8.71875-4.367187-10.394531-2.671876-1.050782-5.523438-1.574219-8.398438-1.535157-13.253906 0-24 10.746094-24 24 0 .207031.105469.382813.121094.589844-4.242188-.359375-8.496094-.589844-12.761719-.589844h-3.359375c.027344-22.082031 17.917969-39.972656 40-40zm-160 184h-32v-144h32zm406.9375-67.433593-156.671875 46.265624c-12.824219 3.414063-26.035156 5.152344-39.304687 5.167969h-114.800782c-14.609375-.007812-29.1875-1.382812-43.542968-4.105469-10.285157-2.03125-20.101563-5.953124-28.953126-11.566406l-7.664062-4.800781v-71.441406l.871094-.621094c10.015625-7.25 21.476562-12.25 33.601562-14.664063 16.828125-3.191406 33.917969-4.796874 51.046875-4.800781h21.839844c12.9375-.003906 25.808594 1.828125 38.234375 5.4375l68.34375 20.050781 35.335938 9.4375c8.480468 2.214844 13.566406 10.878907 11.367187 19.363282v.109375l-.046875.097656v.070313c-1.910156 6.976562-8.242188 11.820312-15.472656 11.832031-1.382813.007812-2.761719-.167969-4.097656-.527344l-95.03125-25.441406c-2.789063-.828125-5.808594-.078125-7.886719 1.960937-2.074219 2.039063-2.878907 5.042969-2.101563 7.847656.777344 2.804688 3.015625 4.964844 5.84375 5.640626l95.046875 25.449218c2.683594.71875 5.449219 1.078125 8.226563 1.070313 12.878906-.046875 24.480468-7.796875 29.453125-19.679688l108.257812-33.121093c8.558594-2.246094 17.324219 2.851562 19.609375 11.402343.355469 1.351563.53125 2.746094.519532 4.144531-.050782 7.269532-4.984376 13.601563-12.023438 15.421876zm0 0"/><path d="m256.433594 272.183594c2.457031 0 4.777344-1.132813 6.296875-3.066406 1.515625-1.933594 2.058593-4.460938 1.46875-6.847657-.136719-.574219-.203125-1.160156-.199219-1.75 0-4.417969 3.582031-8 8-8 3.894531-.03125 7.222656 2.800781 7.816406 6.648438.265625 2.113281 1.371094 4.027343 3.070313 5.3125 1.695312 1.289062 3.839843 1.835937 5.945312 1.519531 4.367188-.609375 7.421875-4.636719 6.824219-9.007812-1.804688-12.449219-12.929688-21.378907-25.472656-20.453126-12.542969.929688-22.230469 11.402344-22.183594 23.980469-.011719 1.886719.214844 3.769531.671875 5.597657.890625 3.5625 4.089844 6.066406 7.761719 6.066406zm0 0"/><path d="m339.9375 331.214844c-.480469 2.070312-.113281 4.246094 1.015625 6.046875s2.925781 3.082031 5 3.554687c3.535156.886719 6.023437 4.054688 6.046875 7.703125 0 4.417969 3.582031 8 8 8s8-3.582031 8-8c-.039062-11.109375-7.679688-20.75-18.488281-23.320312-4.304688-.980469-8.589844 1.710937-9.574219 6.015625zm0 0"/><path d="m286.496094 297.199219c-11.460938-3.101563-23.460938 2.695312-28.160156 13.601562-1.714844 4.070313.195312 8.765625 4.269531 10.480469 4.070312 1.71875 8.765625-.191406 10.484375-4.265625 1.550781-3.578125 5.511718-5.457031 9.261718-4.394531 2.054688.550781 3.804688 1.898437 4.863282 3.742187s1.34375 4.03125.785156 6.082031c-1.144531 4.269532 1.386719 8.65625 5.65625 9.800782.679688.179687 1.378906.273437 2.078125.273437 3.621094-.003906 6.785156-2.433593 7.722656-5.929687 3.40625-12.796875-4.175781-25.9375-16.960937-29.390625zm0 0"/><path d="m320 284.519531c4.417969 0 8 3.582031 8 8s3.582031 8 8 8 8-3.582031 8-8c0-13.253906-10.746094-24-24-24-4.417969 0-8 3.582031-8 8s3.582031 8 8 8zm0 0"/></svg>