<svg height="480pt" viewBox="-128 0 480 480" width="480pt" xmlns="http://www.w3.org/2000/svg"><path d="m217.765625 232c8.703125-9.5 8.246094-24.210938-1.035156-33.152344.65625-.714844 1.265625-1.46875 1.824219-2.261718 4.382812-7.0625 4.757812-15.898438.992187-23.304688-.226563-.449219-.496094-.875-.796875-1.273438l-65.089844-84.574218c-1.074218-1.402344-1.65625-3.117188-1.65625-4.882813v-18.550781h16c4.417969 0 8-3.582031 8-8v-32c0-13.253906-10.746094-24-24-24h-80c-13.253906 0-24 10.746094-24 24v32c0 4.417969 3.582032 8 8 8h16v18.550781c0 1.769531-.582031 3.488281-1.664062 4.890625l-65.078125 84.558594c-.304688.398438-.570313.824219-.800781 1.273438-3.765626 7.40625-3.386719 16.242187.992187 23.300781.558594.792969 1.167969 1.550781 1.824219 2.265625-9.285156 8.941406-9.746094 23.65625-1.03125 33.160156-8.320313 9.042969-8.320313 22.957031 0 32-8.320313 9.042969-8.320313 22.957031 0 32-3.996094 4.375-6.2226565 10.078125-6.24218775 16v128c.02734375 22.082031 17.92187475 39.972656 39.99999975 40h144c22.082032-.027344 39.972656-17.917969 40-40v-128c-.019531-5.921875-2.246094-11.625-6.238281-16 8.320313-9.042969 8.320313-22.957031 0-32 8.320313-9.042969 8.320313-22.957031 0-32zm-9.761719 48c0 4.417969-3.582031 8-8 8h-176c-4.417968 0-8-3.582031-8-8s3.582032-8 8-8h176c4.417969 0 8 3.582031 8 8zm-184-24c-4.417968 0-8-3.582031-8-8s3.582032-8 8-8h176c4.417969 0 8 3.582031 8 8s-3.582031 8-8 8zm-8-40c0-4.417969 3.582032-8 8-8h176c4.417969 0 8 3.582031 8 8s-3.582031 8-8 8h-176c-4.417968 0-8-3.582031-8-8zm48-192c0-4.417969 3.582032-8 8-8h80c4.417969 0 8 3.582031 8 8v24h-96zm-45.519531 157.0625 64.535156-83.871094c3.226563-4.199218 4.976563-9.34375 4.984375-14.640625v-18.550781h48v18.550781c.007813 5.292969 1.757813 10.433594 4.976563 14.632813l64.542969 83.878906c.96875 2.332031.753906 4.988281-.582032 7.128906-1.453125 2.390625-4.058594 3.835938-6.855468 3.808594h-172.160157c-2.796875.027344-5.402343-1.417969-6.855469-3.808594-1.335937-2.140625-1.554687-4.796875-.585937-7.128906zm189.519531 258.9375c0 13.253906-10.746094 24-24 24h-144c-13.253906 0-24-10.746094-24-24v-128c0-4.417969 3.582032-8 8-8h176c4.417969 0 8 3.582031 8 8zm0 0"/><path d="m184.003906 376c-4.417968 0-8 3.582031-8 8v40c0 4.417969-3.582031 8-8 8h-48c-4.417968 0-8 3.582031-8 8s3.582032 8 8 8h48c13.253906 0 24-10.746094 24-24v-40c0-4.417969-3.582031-8-8-8zm0 0"/></svg>