<?xml version="1.0" encoding="utf-8"?>
<!-- Generator: Adobe Illustrator 21.1.0, SVG Export Plug-In . SVG Version: 6.00 Build 0)  -->
<svg version="1.1" id="Forma_1_1_" xmlns="http://www.w3.org/2000/svg" xmlns:xlink="http://www.w3.org/1999/xlink" x="0px" y="0px"
	 width="58.667px" height="70px" viewBox="0 0 58.667 70" style="enable-background:new 0 0 58.667 70;" xml:space="preserve">
<g id="Forma_1">
	<g>
		<path style="fill-rule:evenodd;clip-rule:evenodd;fill:#0D73FC;" d="M57.922,22.688l-19.07-5.449V7.716h12.099v2.192h-1.804
			c-0.567,0-1.027,0.46-1.027,1.027v4.247c0,0.567,0.46,1.027,1.027,1.027h5.661c0.567,0,1.027-0.46,1.027-1.027v-4.247
			c0-0.567-0.46-1.027-1.027-1.027h-1.804V7.716h4.635c0.512,0,0.946-0.377,1.017-0.885c0.071-0.507-0.242-0.989-0.735-1.13
			L38.131,0.047c-0.001,0-0.002-0.001-0.003-0.001L38.107,0.04c-0.008-0.002-0.016-0.004-0.024-0.006
			c-0.022-0.006-0.044-0.011-0.067-0.015C38,0.016,37.984,0.014,37.967,0.011c-0.016-0.002-0.032-0.005-0.049-0.006
			c-0.023-0.002-0.045-0.003-0.068-0.003C37.842,0.001,37.834,0,37.825,0H20.842c-0.008,0-0.015,0.001-0.023,0.001
			c-0.023,0.001-0.047,0.001-0.071,0.004c-0.016,0.001-0.031,0.004-0.047,0.006c-0.017,0.002-0.034,0.005-0.051,0.008
			c-0.022,0.004-0.044,0.01-0.065,0.015c-0.008,0.002-0.017,0.003-0.025,0.006l-0.021,0.006c-0.001,0-0.002,0-0.003,0.001
			L0.745,5.702C0.252,5.842-0.061,6.324,0.01,6.832s0.505,0.885,1.017,0.885h4.634v2.192H3.858c-0.567,0-1.027,0.46-1.027,1.027
			v4.247c0,0.567,0.46,1.027,1.027,1.027h5.661c0.567,0,1.027-0.46,1.027-1.027v-4.247c0-0.567-0.46-1.027-1.027-1.027H7.715V7.716
			h12.1v9.523l-19.07,5.449c-0.492,0.141-0.806,0.623-0.735,1.13c0.071,0.507,0.505,0.885,1.017,0.885h4.634v2.192H3.858
			c-0.567,0-1.027,0.46-1.027,1.027v4.247c0,0.567,0.46,1.027,1.027,1.027h5.661c0.567,0,1.027-0.46,1.027-1.027v-4.247
			c0-0.567-0.46-1.027-1.027-1.027H7.715v-2.192h12.1v10.154l-4.2,14.701c0,0.001,0,0.001-0.001,0.002l-0.008,0.029
			c0,0,0,0.001,0,0.001l-0.002,0.007c0,0.001-0.001,0.002-0.001,0.004l-4.028,14.1H9.519c-0.567,0-1.027,0.46-1.027,1.027v3.22
			H6.393c-0.567,0-1.027,0.46-1.027,1.027S5.826,70,6.393,70h45.88c0.567,0,1.027-0.46,1.027-1.027s-0.46-1.027-1.027-1.027h-2.098
			v-3.22c0-0.567-0.46-1.027-1.027-1.027h-2.056L43.064,49.6c-0.001-0.002-0.001-0.004-0.002-0.006l-0.009-0.033
			c-0.001-0.002-0.001-0.003-0.001-0.005l-4.199-14.7V24.703h12.099v2.192h-1.804c-0.567,0-1.027,0.46-1.027,1.027v4.247
			c0,0.567,0.46,1.027,1.027,1.027h5.661c0.567,0,1.027-0.46,1.027-1.027v-4.247c0-0.567-0.46-1.027-1.027-1.027h-1.804v-2.192
			h4.635c0.512,0,0.946-0.377,1.017-0.885C58.728,23.311,58.414,22.829,57.922,22.688z M53.782,11.963v2.193h-3.608v-2.193H53.782z
			 M38.852,2.389l11.456,3.273H38.852V2.389z M8.492,11.963v2.193H4.884v-2.193H8.492z M8.492,28.949v2.193H4.884v-2.193H8.492z
			 M21.868,2.054h14.93v3.608h-14.93V2.054z M36.798,7.716v8.378L24.233,7.716H36.798z M21.868,8.608l12.565,8.378H21.868V8.608z
			 M21.868,19.041h14.93v3.608h-14.93V19.041z M19.853,48.836l9.48-6.637l9.48,6.637H19.853z M37.722,50.89l-8.388,4.195
			l-8.388-4.195H37.722z M29.333,39.691l-5.234-3.664h10.468L29.333,39.691z M36.798,24.703v8.378l-12.565-8.378H36.798z
			 M21.868,25.595l12.566,8.378H21.868V25.595z M8.359,5.662l11.456-3.273v3.273H8.359z M8.359,22.649l11.456-3.274v3.274H8.359z
			 M21.433,36.668l6.11,4.277l-9.164,6.416L21.433,36.668z M17.243,51.335l9.794,4.898l-13.059,6.531L17.243,51.335z M46.317,65.754
			L46.317,65.754c0.002,0,0.003,0,0.004,0h1.801v2.193H10.546v-2.193h1.801c0.001,0,0.003,0,0.004,0c0.002,0,0.003,0,0.005,0h9.692
			c0.567,0,1.027-0.46,1.027-1.027s-0.46-1.027-1.027-1.027h-5.348l12.634-6.318l12.634,6.318H26.625
			c-0.567,0-1.027,0.46-1.027,1.027s0.46,1.027,1.027,1.027h19.687C46.313,65.753,46.315,65.754,46.317,65.754z M44.689,62.764
			l-13.059-6.531l9.794-4.898L44.689,62.764z M40.289,47.361l-9.165-6.416l6.11-4.277L40.289,47.361z M38.852,22.649v-3.274
			l11.456,3.274H38.852z M53.782,28.949v2.193h-3.608v-2.193H53.782z"/>
	</g>
</g>
</svg>
