<svg height="488pt" viewBox="0 -6 488.68765 488" width="488pt" xmlns="http://www.w3.org/2000/svg"><path d="m155.382812 153c-2.179687-1.261719-4.828124-1.421875-7.144531-.429688l-71.742187 30.644532c-2.789063 1.191406-4.667969 3.851562-4.851563 6.878906-.183593 3.027344 1.359375 5.894531 3.984375 7.410156l20.105469 11.609375-88.382813 153.078125c-9.765624 16.910156-9.804687 37.738282-.097656 54.683594 9.707032 16.945312 27.6875 27.449219 47.214844 27.582031l100.664062.757813h.058594c4.417969 0 8-3.578125 8-8v-32c0-4.417969-3.582031-8-8-8h-100.472656c-2.722656.0625-5.246094-1.417969-6.519531-3.820313-1.398438-2.34375-1.398438-5.261719 0-7.601562l88.414062-153.074219 20.105469 11.601562c2.625 1.519532 5.882812 1.421876 8.414062-.253906 2.53125-1.671875 3.898438-4.632812 3.53125-7.640625l-9.335937-77.457031c-.304687-2.5-1.765625-4.710938-3.945313-5.96875zm-17.695312 61.855469c-3.828125-2.207031-8.71875-.898438-10.929688 2.929687l-92.367187 160.007813c-4.222656 7.285156-4.242187 16.269531-.050781 23.574219 4.191406 7.304687 11.957031 11.820312 20.378906 11.847656h92.472656v15.9375l-92.609375-.695313c-13.832031-.09375-26.570312-7.53125-33.445312-19.535156-6.875-12-6.847657-26.753906.070312-38.730469l92.382813-160c2.210937-3.824218.898437-8.71875-2.925782-10.925781l-13.179687-7.648437 47.203125-20.175782 6.152344 50.984375zm0 0"/><path d="m481.351562 361.503906-55.035156-96.878906c-1.050781-1.855469-2.800781-3.210938-4.859375-3.769531-2.058593-.558594-4.253906-.273438-6.097656.792969l-28.417969 16.367187c-1.839844 1.0625-3.179687 2.8125-3.730468 4.863281-.550782 2.050782-.261719 4.234375.804687 6.074219l55.605469 96.34375c1.503906 2.445313 1.480468 5.527344-.054688 7.953125-1.394531 2.511719-4.0625 4.050781-6.9375 4h-181.4375v-24.035156c0-3.027344-1.714844-5.796875-4.421875-7.152344-2.710937-1.355469-5.957031-1.0625-8.378906.753906l-64 48c-2.015625 1.511719-3.199219 3.882813-3.199219 6.398438 0 2.519531 1.183594 4.890625 3.199219 6.402344l64 48c1.382813 1.039062 3.070313 1.597656 4.800781 1.597656 4.417969 0 8-3.578125 8-8v-24h181.4375c19.960938.023437 38.417969-10.582032 48.457032-27.828125 10.039062-17.25 10.140624-38.539063.265624-55.882813zm-14.160156 47.847656c-7.113281 12.355469-20.308594 19.9375-34.5625 19.863282h-189.4375c-4.417968 0-8 3.582031-8 8v16l-42.664062-32 42.664062-32v16c0 4.421875 3.582032 8 8 8h189.4375c8.5625.007812 16.476563-4.546875 20.777344-11.949219 4.296875-7.40625 4.324219-16.539063.070312-23.96875l-51.605468-89.382813 14.511718-8.386718 51.046876 89.875c7.113281 12.390625 7.023437 27.644531-.238282 39.949218zm0 0"/><path d="m176.972656 148.945312c2.050782-.550781 3.796875-1.890624 4.859375-3.730468l54.230469-93.933594c1.265625-2.34375 3.734375-3.785156 6.398438-3.738281 2.785156-.113281 5.386718 1.378906 6.695312 3.832031l88.433594 153.042969-20.105469 11.605469c-2.628906 1.515624-4.175781 4.386718-3.992187 7.417968.183593 3.027344 2.066406 5.691406 4.859374 6.878906l71.75 30.648438c2.316407.988281 4.960938.828125 7.140626-.433594 2.179687-1.257812 3.636718-3.46875 3.941406-5.964844l9.335937-77.472656c.359375-3.007812-1.011719-5.960937-3.539062-7.632812-2.527344-1.667969-5.78125-1.761719-8.40625-.25l-20.105469 11.609375-88.382812-153.054688c-9.671876-16.984375-27.726563-27.457031-47.273438-27.425781h-.214844c-19.488281-.105469-37.542968 10.234375-47.3125 27.097656l-54.992187 93.726563c-1.078125 1.839843-1.378907 4.03125-.835938 6.089843.542969 2.0625 1.886719 3.820313 3.734375 4.886719l27.710938 16c1.835937 1.0625 4.023437 1.347657 6.070312.800781zm-18.804687-26.625 50.910156-86.777343c6.996094-11.929688 19.804687-19.242188 33.636719-19.195313 13.832031.046875 26.59375 7.441406 33.507812 19.421875l92.382813 160c1.0625 1.839844 2.8125 3.179688 4.863281 3.726563 2.050781.539062 4.226562.253906 6.066406-.800782l13.175782-7.613281-6.144532 50.992188-47.199218-20.167969 13.175781-7.609375c3.824219-2.210937 5.136719-7.101563 2.925781-10.929687l-92.382812-160c-4.132813-7.285157-11.847657-11.796876-20.222657-11.832032-8.484375-.082031-16.359375 4.402344-20.625 11.738282l-50.25 87.015624zm0 0"/></svg>