<svg height="486pt" viewBox="-3 0 486 486.98969" width="486pt" xmlns="http://www.w3.org/2000/svg"><path d="m384.292969 112.03125c-8.300781 0-16.5625 1.074219-24.585938 3.199219.394531-3.71875.589844-7.457031.585938-11.199219.011719-49.683594-35.117188-92.4375-83.855469-102.0625-48.742188-9.621094-97.484375 16.574219-116.355469 62.535156-23.816406-13.582031-53.632812-10.507812-74.171875 7.652344-20.542968 18.15625-27.253906 47.371094-16.699218 72.675781-41.527344 5.914063-71.4375 42.90625-68.523438 84.753907 2.914062 41.847656 37.65625 74.339843 79.605469 74.445312.070312-.011719.144531-.027344.214843-.046875 2.171876 42.488281 22.105469 82.105469 54.925782 109.175781 2.777344 2.292969 6.742187 2.449219 9.691406.382813l27.511719-19.28125c2.136719-1.496094 3.410156-3.941407 3.410156-6.550781 0-2.609376-1.273437-5.054688-3.410156-6.550782-32.304688-22.640625-49.019531-61.609375-43.160157-100.617187 5.859376-39.011719 33.285157-71.347657 70.816407-83.496094v35.542969c0 2.988281 1.660156 5.722656 4.3125 7.097656 2.648437 1.378906 5.84375 1.164062 8.285156-.550781l80.550781-56.554688c2.140625-1.496093 3.410156-3.941406 3.410156-6.550781s-1.269531-5.054688-3.410156-6.550781l-80.550781-56.554688c-2.441406-1.714843-5.636719-1.929687-8.285156-.554687-2.652344 1.378906-4.3125 4.113281-4.3125 7.101562v28c-67.214844 14.230469-116.371094 72.003906-119.65625 140.628906-.121094 0-.226563-.070312-.34375-.070312-35.347657 0-64-28.652344-64-64s28.652343-64 64-64c.402343-.023438.808593-.023438 1.214843 0 3.121094.308594 6.140626-1.210938 7.757813-3.894531 1.597656-2.714844 1.453125-6.113281-.367187-8.683594-5.648438-8.023437-8.660157-17.609375-8.605469-27.421875-.011719-18.617188 10.761719-35.554688 27.625-43.441406 16.863281-7.890625 36.769531-5.300782 51.054687 6.640625 2.066406 1.746093 4.878906 2.328125 7.46875 1.546875s4.613282-2.820313 5.371094-5.417969c12.671875-46.921875 60.984375-74.6875 107.90625-62.011719 46.921875 12.671875 74.6875 60.984375 62.011719 107.90625-.734375 2.949219.265625 6.058594 2.578125 8.027344s5.542968 2.457031 8.335937 1.261719c29.035157-12.535157 62.730469-6.792969 85.96875 14.660156 23.242188 21.449219 31.664063 54.578125 21.488281 84.523437-10.171874 29.941407-37.03125 51.082032-68.53125 53.9375-2.398437.214844-4.800781.367188-7.277343.367188-.242188.035156-.480469.082031-.714844.144531-3.707031-40.167969-23.289063-77.191406-54.398437-102.863281-2.773438-2.296875-6.738282-2.457031-9.6875-.394531l-27.511719 19.28125c-2.136719 1.496093-3.410157 3.941406-3.410157 6.550781s1.273438 5.054688 3.410157 6.554688c32.300781 22.640624 49.011719 61.613281 43.144531 100.625-5.867188 39.011718-33.300781 71.34375-70.832031 83.484374v-35.542968c-.003907-2.984375-1.664063-5.722656-4.3125-7.097656-2.652344-1.375-5.847657-1.164063-8.289063.554687l-80.550781 56.550781c-2.136719 1.496094-3.410156 3.941406-3.410156 6.550782 0 2.609374 1.273437 5.054687 3.410156 6.554687l80.550781 56.550781c2.441406 1.714844 5.636719 1.929688 8.289063.554688 2.648437-1.375 4.308593-4.113282 4.3125-7.097656v-28c69.542969-14.71875 119.453125-75.878907 119.925781-146.960938h.074219c2.964843 0 5.839843-.167969 8.710937-.433594 50.945313-4.84375 89.136719-48.804687 86.8125-99.929687-2.328125-51.125-44.347656-91.4375-95.523437-91.636719zm-174.683594 49.96875c3.855469-.644531 6.679687-3.980469 6.683594-7.890625v-19.238281l58.621093 41.160156-58.621093 41.167969v-30.609375c0-2.421875-1.097657-4.71875-2.988281-6.238282-1.890626-1.515624-4.367188-2.097656-6.734376-1.578124-44.527343 9.78125-79.664062 43.949218-90.691406 88.183593s3.964844 90.898438 38.691406 120.433594l-13.480468 9.441406c-38.640625-34.945312-53.910156-88.902343-39.3125-138.914062 14.601562-50.015625 56.5-87.28125 107.875-95.949219zm45.363281 274.464844c-3.855468.644531-6.679687 3.976562-6.679687 7.886718v19.238282l-58.625-41.160156 58.625-41.167969v30.609375c-.003907 2.421875 1.09375 4.714844 2.984375 6.234375 1.886718 1.519531 4.359375 2.101562 6.726562 1.582031 44.527344-9.78125 79.667969-43.949219 90.691406-88.183594 11.027344-44.234375-3.964843-90.898437-38.691406-120.433594l13.519532-9.472656c38.640624 34.945313 53.910156 88.902344 39.3125 138.914063-14.601563 50.015625-56.5 87.28125-107.871094 95.953125zm0 0"/><path d="m328.292969 296.03125c0-4.417969-3.582031-8-8-8h-176c-4.421875 0-8 3.582031-8 8s3.578125 8 8 8h176c4.417969 0 8-3.582031 8-8zm0 0"/><path d="m318.148438 95.589844c.695312-.003906 1.390624-.09375 2.0625-.269532 4.269531-1.136718 6.8125-5.523437 5.671874-9.792968-5.785156-21.746094-21.40625-39.535156-42.222656-48.085938-20.816406-8.550781-44.433594-6.875-63.832031 4.527344-2.539063 1.410156-4.109375 4.089844-4.109375 6.996094.003906 2.90625 1.582031 5.582031 4.125 6.988281 2.542969 1.410156 5.648438 1.328125 8.113281-.210937 15.085938-8.855469 33.449219-10.152344 49.632813-3.5 16.183594 6.648437 28.328125 20.480468 32.828125 37.390624.925781 3.507813 4.097656 5.953126 7.730469 5.957032zm0 0"/></svg>