<?xml version="1.0" encoding="UTF-8"?>
<svg width="20px" height="22px" viewBox="0 0 20 22" version="1.1" xmlns="http://www.w3.org/2000/svg" xmlns:xlink="http://www.w3.org/1999/xlink">
    <!-- Generator: Sketch 59.1 (86144) - https://sketch.com -->
    <title>Shape</title>
    <desc>Created with Sketch.</desc>
    <g id="Page-1" stroke="none" stroke-width="1" fill="none" fill-rule="evenodd">
        <path d="M5,0 L5,2 L15,2 L15,0 L17,0 L17,2 L18,2 C19.05,2 19.9177686,2.82004132 19.9944872,3.85130541 L20,4 L20,20 C20,21.05 19.1799587,21.9177686 18.1486946,21.9944872 L18,22 L2,22 C0.95,22 0.082231405,21.1799587 0.00551277235,20.1486946 L0,20 L0,4 C0,2.95 0.820041322,2.0822314 1.85130541,2.00551277 L2,2 L3,2 L3,0 L5,0 Z M18,7 L2,7 L2,20 L18,20 L18,7 Z M14.6984615,9 L16,10.3566879 L8.61538462,18 L4,13.2229299 L5.30153846,11.8757962 L8.61538462,15.2961783 L14.6984615,9 Z" id="Shape" fill="#000000" fill-rule="nonzero"></path>
    </g>
</svg>