<svg height="484pt" viewBox="-38 0 484 484.04779" width="484pt" xmlns="http://www.w3.org/2000/svg"><path d="m405.777344 2.34375c-1.980469-1.980469-4.851563-2.78125-7.570313-2.113281-10.984375 2.714843-108 27.203125-133.855469 53.023437-13.1875 12.546875-21.628906 29.269532-23.878906 47.328125-1.535156 15.429688 3.105469 30.832031 12.910156 42.839844l-22.160156 22.160156c-11.902344 11.902344-21.152344 26.1875-27.152344 41.914063-5.996093-15.726563-15.25-30.011719-27.152343-41.914063l-22.160157-22.160156c9.808594-12.007813 14.449219-27.410156 12.914063-42.839844-2.253906-18.058593-10.691406-34.78125-23.878906-47.328125-25.832031-25.820312-122.875-50.308594-133.855469-53.023437-2.71875-.667969-5.589844.132812-7.570312 2.113281-1.980469 1.980469-2.78125 4.847656-2.113282 7.566406 2.707032 10.984375 27.203125 108 53.019532 133.851563 13.714843 14.78125 32.761718 23.480469 52.917968 24.167969 13.554688-.035157 26.691406-4.699219 37.230469-13.21875l22.1875 22.183593c17.960937 17.917969 28.695313 41.824219 30.148437 67.152344h-63.6875c-4.417968 0-8 3.582031-8 8s3.582032 8 8 8h16v168c0 30.929687 25.074219 56 56 56 30.929688 0 56-25.070313 56-56v-168h16c4.417969 0 8-3.582031 8-8s-3.582031-8-8-8h-63.6875c1.457032-25.328125 12.1875-49.234375 30.152344-67.152344l22.183594-22.183593c10.542969 8.519531 23.679688 13.183593 37.234375 13.21875 20.152344-.6875 39.203125-9.386719 52.917969-24.167969 25.816406-25.824219 50.3125-122.867188 53.015625-133.851563.667969-2.71875-.132813-5.585937-2.109375-7.566406zm-341.195313 130.105469c-16.796875-16.800781-36.0625-78.761719-45.390625-113.28125 34.480469 9.328125 96.519532 28.640625 113.289063 45.398437 18.039062 18.042969 27.351562 45 10.839843 67.417969l-23.746093-23.738281 8.738281-17.46875c1.976562-3.953125.375-8.761719-3.578125-10.738282-3.949219-1.976562-8.757813-.375-10.734375 3.578126l-6.34375 12.703124-16.382812-16.359374 8.796874-17.472657c1.304688-2.558593 1.136719-5.621093-.441406-8.023437-1.574218-2.402344-4.320312-3.773438-7.1875-3.59375-2.867187.179687-5.417968 1.886718-6.683594 4.464844l-6.390624 12.710937-20.441407-20.445313c-2.007812-2.082031-4.980469-2.914062-7.777343-2.183593-2.796876.730469-4.980469 2.917969-5.714844 5.714843-.730469 2.796876.101562 5.769532 2.183594 7.777344l20.453124 20.433594-12.703124 6.351562c-3.960938 1.972657-5.578126 6.785157-3.601563 10.75 1.972656 3.960938 6.78125 5.574219 10.746094 3.601563l17.472656-8.800781 16.359375 16.363281-12.703125 6.351563c-3.953125 1.976562-5.554687 6.78125-3.578125 10.734374 1.976562 3.953126 6.785156 5.554688 10.738281 3.578126l17.464844-8.738282 23.742187 23.738282c-22.425781 16.527343-49.390624 7.175781-67.425781-10.824219zm179.488281 295.597656c0 22.09375-17.90625 40-40 40-22.089843 0-40-17.90625-40-40v-168h32v24c0 4.417969 3.582032 8 8 8 4.417969 0 8-3.582031 8-8v-24h32zm99.488282-295.597656c-18.039063 18.03125-45 27.351562-67.421875 10.847656l23.742187-23.738281 17.464844 8.738281c3.953125 1.988281 8.769531.394531 10.757812-3.558594 1.988282-3.949219.394532-8.765625-3.558593-10.753906l-12.703125-6.351563 16.320312-16.386718 17.511719 8.800781c3.953125 1.988281 8.769531.398437 10.753906-3.554687 1.988281-3.953126.398438-8.769532-3.554687-10.757813l-12.800782-6.390625 20.441407-20.433594c2.078125-2.007812 2.914062-4.980468 2.179687-7.777344-.730468-2.796874-2.914062-4.984374-5.710937-5.714843s-5.773438.101562-7.78125 2.183593l-20.421875 20.445313-6.355469-12.703125c-1.261719-2.578125-3.8125-4.285156-6.679687-4.464844-2.867188-.179687-5.613282 1.191406-7.1875 3.59375-1.578126 2.402344-1.746094 5.464844-.441407 8.023438l8.757813 17.464844-16.359375 16.359374-6.34375-12.703124c-1.976563-3.953126-6.785157-5.554688-10.734375-3.578126-3.953125 1.976563-5.554688 6.785157-3.578125 10.738282l8.734375 17.46875-23.742188 23.738281c-16.511718-22.402344-7.199218-49.375 10.839844-67.417969 16.746094-16.757812 78.785156-36.070312 113.265625-45.398437-9.328125 34.519531-28.632813 96.519531-45.394531 113.28125zm0 0"/><path d="m204.070312 308.046875c-4.417968 0-8 3.582031-8 8v80c0 4.417969 3.582032 8 8 8 4.417969 0 8-3.582031 8-8v-80c0-4.417969-3.582031-8-8-8zm0 0"/><path d="m204.070312 420.046875c-4.417968 0-8 3.582031-8 8v16c0 4.417969 3.582032 8 8 8 4.417969 0 8-3.582031 8-8v-16c0-4.417969-3.582031-8-8-8zm0 0"/></svg>