<?xml version="1.0" encoding="utf-8"?>
<!-- Generator: Adobe Illustrator 21.1.0, SVG Export Plug-In . SVG Version: 6.00 Build 0)  -->
<svg version="1.1" id="Forma_1_1_" xmlns="http://www.w3.org/2000/svg" xmlns:xlink="http://www.w3.org/1999/xlink" x="0px" y="0px"
	 width="16px" height="16px" viewBox="0 0 16 16" style="enable-background:new 0 0 16 16;" xml:space="preserve">
<g id="Forma_1">
	<g>
		<path style="fill-rule:evenodd;clip-rule:evenodd;" d="M15.804,14.864l-3.847-3.847c0.953-1.162,1.528-2.651,1.528-4.274
			C13.486,3.02,10.465,0,6.743,0C3.017,0,0,3.02,0,6.743c0,3.722,3.017,6.743,6.743,6.743c1.623,0,3.109-0.571,4.271-1.525
			l3.847,3.843c0.261,0.261,0.682,0.261,0.944,0C16.065,15.546,16.065,15.122,15.804,14.864z M6.743,12.144
			c-2.981,0-5.404-2.423-5.404-5.401c0-2.978,2.423-5.404,5.404-5.404c2.978,0,5.404,2.426,5.404,5.404
			C12.147,9.721,9.721,12.144,6.743,12.144z"/>
	</g>
</g>
</svg>
