<svg height="480pt" viewBox="-40 0 480 480" width="480pt" xmlns="http://www.w3.org/2000/svg"><path d="m392 144h-56v-8c0-75.109375-60.890625-136-136-136s-136 60.890625-136 136v8h-56c-4.417969 0-8 3.582031-8 8v272c.0351562 30.914062 25.085938 55.964844 56 56h288c30.914062-.035156 55.964844-25.085938 56-56v-272c0-4.417969-3.582031-8-8-8zm-312-8c0-66.273438 53.726562-120 120-120s120 53.726562 120 120v8h-240zm304 288c-.027344 22.082031-17.917969 39.972656-40 40h-288c-22.082031-.027344-39.972656-17.917969-40-40v-264h48v56c0 4.417969 3.582031 8 8 8s8-3.582031 8-8v-56h240v56c0 4.417969 3.582031 8 8 8s8-3.582031 8-8v-56h48zm0 0"/><path d="m268.953125 344.800781c-3.773437 2.304688-4.960937 7.226563-2.65625 11 1.523437 2.46875 1.589844 5.570313.171875 8.105469-1.417969 2.53125-4.09375 4.097656-6.996094 4.09375h-72.152344l8.96875-8.96875c2.078126-2.007812 2.914063-4.980469 2.179688-7.78125-.730469-2.796875-2.914062-4.980469-5.710938-5.710938-2.796874-.734374-5.773437.101563-7.78125 2.179688l-22.625 22.617188c-.738281.738281-1.324218 1.617187-1.726562 2.585937-.832031 1.96875-.832031 4.1875 0 6.15625.402344.96875.988281 1.847656 1.726562 2.585937l22.625 22.617188c2.007813 2.078125 4.984376 2.914062 7.78125 2.179688 2.796876-.730469 4.980469-2.914063 5.710938-5.710938.734375-2.800781-.101562-5.773438-2.179688-7.78125l-8.96875-8.96875h72.152344c8.679688 0 16.683594-4.6875 20.929688-12.257812 4.246094-7.570313 4.074218-16.847657-.449219-24.253907-1.101563-1.816406-2.878906-3.121093-4.945313-3.625-2.0625-.503906-4.242187-.167969-6.054687.9375zm0 0"/><path d="m178.34375 266.664062c3.773438 2.304688 8.699219 1.109376 11-2.664062l3.367188-5.496094c1.453124-2.375 4.039062-3.824218 6.824218-3.824218s5.371094 1.449218 6.824219 3.824218l37.578125 61.496094h-11.9375c-4.417969 0-8 3.582031-8 8s3.582031 8 8 8h32c4.417969 0 8-3.582031 8-8v-32c0-4.417969-3.582031-8-8-8s-8 3.582031-8 8v13.054688l-36-58.886719c-4.359375-7.136719-12.117188-11.488281-20.480469-11.488281-8.359375 0-16.121093 4.351562-20.480469 11.488281l-3.359374 5.496093c-2.304688 3.773438-1.109376 8.699219 2.664062 11zm0 0"/><path d="m144 368h-3.9375c-2.890625 0-5.558594-1.5625-6.972656-4.085938-1.414063-2.523437-1.355469-5.613281.148437-8.082031l31.050781-50.808593 1.390626 7.878906c.675781 3.820312 3.992187 6.605468 7.871093 6.609375.46875.003906.9375-.035157 1.402344-.121094 4.347656-.765625 7.25-4.914063 6.488281-9.261719l-5.601562-31.519531c-.773438-4.347656-4.917969-7.246094-9.265625-6.480469l-31.519531 5.550782c-4.25.863281-7.039063 4.957031-6.289063 9.230468.753906 4.269532 4.777344 7.164063 9.066406 6.523438l16.519531-2.914063-34.808593 56.96875c-4.527344 7.414063-4.695313 16.695313-.441407 24.269531 4.257813 7.574219 12.273438 12.257813 20.960938 12.242188h3.9375c4.417969 0 8-3.582031 8-8s-3.582031-8-8-8zm0 0"/></svg>