<?xml version="1.0" encoding="utf-8"?>
<!-- Generator: Adobe Illustrator 21.1.0, SVG Export Plug-In . SVG Version: 6.00 Build 0)  -->
<svg version="1.1" id="Shape_1_1_" xmlns="http://www.w3.org/2000/svg" xmlns:xlink="http://www.w3.org/1999/xlink" x="0px" y="0px"
	 width="16px" height="11.937px" viewBox="0 0 16 11.937" style="enable-background:new 0 0 16 11.937;" xml:space="preserve">
<g id="Shape_1">
	<g>
		<polygon style="fill-rule:evenodd;clip-rule:evenodd;fill:#0D73FC;" points="13.422,5.159 16,2.579 13.422,0 12.52,0.903 
			13.558,1.941 9.659,1.941 7.655,4.857 5.652,1.941 0,1.941 0,3.218 4.981,3.218 6.881,5.984 4.981,8.751 0,8.751 0,10.028 
			5.652,10.028 7.655,7.111 9.659,10.028 13.558,10.028 12.52,11.066 13.391,11.937 13.454,11.937 16,9.389 13.422,6.81 
			12.52,7.713 13.558,8.751 10.33,8.751 8.429,5.984 10.33,3.218 13.558,3.218 12.52,4.256 		"/>
	</g>
</g>
</svg>
