<svg height="479pt" viewBox="0 -12 479.6 479" width="479pt" xmlns="http://www.w3.org/2000/svg"><path d="m362.695312 160.300781 40-136h-144.527343l-77.136719 240h113.746094l-27.304688 191.144531 212.128906-295.144531zm-49.472656 88h-110.253906l66.863281-208h111.472657l-40 136h107.09375l-155.871094 216.855469zm0 0"/><path d="m208 96.300781c5.042969 0 10.082031.335938 15.078125 1.007813l2.121094-15.855469c-5.699219-.765625-11.445313-1.148437-17.199219-1.152344-54.421875 0-102.894531 34.414063-120.839844 85.792969-17.945312 51.378906-1.4375 108.488281 41.152344 142.371094 42.585938 33.882812 101.945312 37.132812 147.976562 8.097656l-8.5625-13.511719c-40.28125 25.386719-92.210937 22.53125-129.464843-7.121093-37.253907-29.652344-51.6875-79.617188-35.984375-124.566407s58.109375-75.058593 105.722656-75.0625zm0 0"/><path d="m200 .300781h16v64h-16zm0 0"/><path d="m97.070312 32.160156 13.855469-8 32.003907 55.425782-13.855469 8zm0 0"/><path d="m23.863281 111.230469 8-13.855469 55.425781 32-8 13.859375zm0 0"/><path d="m0 200.300781h64v16h-64zm0 0"/><path d="m23.867188 305.371094 55.425781-31.996094 8 13.855469-55.429688 31.996093zm0 0"/><path d="m97.074219 384.441406 31.996093-55.425781 13.855469 7.996094-31.992187 55.429687zm0 0"/><path d="m200 352.300781h16v64h-16zm0 0"/></svg>