<?xml version="1.0" encoding="utf-8"?>
<!-- Generator: Adobe Illustrator 21.1.0, SVG Export Plug-In . SVG Version: 6.00 Build 0)  -->
<svg version="1.1" id="Forma_1_1_" xmlns="http://www.w3.org/2000/svg" xmlns:xlink="http://www.w3.org/1999/xlink" x="0px" y="0px"
	 width="70px" height="70px" viewBox="0 0 70 70" style="enable-background:new 0 0 70 70;" xml:space="preserve">
<g id="Forma_1">
	<g>
		<path style="fill-rule:evenodd;clip-rule:evenodd;fill:#0D73FC;" d="M34.486,48.242c0.003,0.001,0.005,0.002,0.008,0.004
			c0.036,0.021,0.074,0.04,0.113,0.056c0.002,0.001,0.004,0.001,0.006,0.002c0.036,0.014,0.072,0.027,0.11,0.037
			c0.01,0.003,0.02,0.005,0.031,0.008c0.03,0.008,0.061,0.014,0.093,0.018c0.01,0.002,0.021,0.004,0.032,0.005
			c0.04,0.005,0.081,0.008,0.122,0.008c0.041,0,0.082-0.003,0.122-0.008c0.011-0.001,0.021-0.003,0.031-0.005
			c0.031-0.005,0.063-0.011,0.093-0.018c0.01-0.002,0.02-0.005,0.03-0.008c0.038-0.011,0.074-0.023,0.11-0.037
			c0.002-0.001,0.004-0.001,0.006-0.002c0.039-0.016,0.077-0.035,0.113-0.056c0.003-0.002,0.005-0.003,0.008-0.004
			c4.716-2.729,7.646-7.803,7.646-13.242c0-5.439-2.93-10.513-7.646-13.242c-0.318-0.184-0.709-0.184-1.027,0
			C29.77,24.487,26.84,29.561,26.84,35C26.84,40.438,29.77,45.513,34.486,48.242z M35,23.846c3.783,2.426,6.109,6.645,6.109,11.154
			c0,4.086-1.91,7.934-5.083,10.425v-6.703l2.521-1.261c0.507-0.253,0.712-0.869,0.459-1.376c-0.253-0.507-0.869-0.712-1.376-0.459
			l-1.605,0.802v-4.518c0-0.566-0.459-1.025-1.025-1.025c-0.566,0-1.025,0.459-1.025,1.025v1.43l-1.605-0.803
			c-0.506-0.253-1.122-0.048-1.376,0.459c-0.253,0.507-0.048,1.122,0.459,1.376l2.522,1.261v9.791
			c-3.173-2.491-5.083-6.339-5.083-10.425C28.891,30.491,31.217,26.272,35,23.846z M35,51.468c9.081,0,16.468-7.388,16.468-16.468
			S44.08,18.532,35,18.532c-9.081,0-16.468,7.388-16.468,16.468S25.919,51.468,35,51.468z M35,20.582
			c7.95,0,14.418,6.468,14.418,14.417c0,7.95-6.468,14.417-14.418,14.417c-7.95,0-14.417-6.468-14.417-14.417
			C20.582,27.05,27.05,20.582,35,20.582z M69.223,27.635l-6.273-1.568c-0.496-1.555-1.123-3.068-1.87-4.514l3.327-5.545
			c0.242-0.403,0.178-0.92-0.154-1.253l-9.009-9.009c-0.333-0.332-0.849-0.396-1.253-0.154l-5.544,3.327
			c-1.445-0.746-2.959-1.373-4.514-1.87l-1.568-6.273C42.251,0.32,41.84,0,41.37,0H28.63c-0.47,0-0.881,0.32-0.995,0.777
			L26.067,7.05c-1.555,0.497-3.069,1.124-4.514,1.87l-5.545-3.327c-0.403-0.242-0.92-0.179-1.253,0.154l-9.009,9.009
			c-0.333,0.333-0.396,0.849-0.154,1.253l3.327,5.545c-0.746,1.445-1.373,2.959-1.869,4.514l-6.273,1.568
			C0.32,27.749,0,28.159,0,28.63V41.37c0,0.47,0.32,0.881,0.777,0.995l6.273,1.568c0.496,1.555,1.123,3.068,1.869,4.514
			l-3.327,5.545c-0.242,0.403-0.179,0.92,0.154,1.253l9.009,9.009c0.333,0.333,0.849,0.396,1.253,0.154l5.545-3.327
			c1.445,0.746,2.959,1.373,4.514,1.869l1.568,6.273C27.749,69.68,28.159,70,28.63,70h12.74c0.47,0,0.881-0.32,0.995-0.777
			l1.568-6.273c1.555-0.496,3.068-1.123,4.514-1.869l5.545,3.327c0.403,0.242,0.92,0.178,1.253-0.154l9.009-9.009
			c0.333-0.333,0.396-0.849,0.154-1.253l-3.327-5.545c0.746-1.445,1.373-2.959,1.869-4.514l6.273-1.568
			C69.68,42.251,70,41.841,70,41.37V28.63C70,28.159,69.679,27.749,69.223,27.635z M67.949,33.974h-2.063
			c-0.566,0-1.025,0.459-1.025,1.025c0,0.566,0.459,1.025,1.025,1.025h2.063v4.544l-6.058,1.514
			c-0.352,0.088-0.631,0.355-0.734,0.703c-0.536,1.805-1.262,3.555-2.155,5.203c-0.173,0.319-0.164,0.705,0.022,1.016l3.212,5.354
			l-3.213,3.213l-1.459-1.459c-0.401-0.4-1.05-0.4-1.45,0c-0.4,0.401-0.4,1.05,0,1.45l1.459,1.459l-3.213,3.213l-5.354-3.212
			c-0.311-0.186-0.698-0.195-1.016-0.022c-1.648,0.894-3.398,1.619-5.203,2.155c-0.348,0.103-0.615,0.383-0.703,0.734l-1.514,6.058
			h-4.544v-2.063c0-0.566-0.459-1.025-1.025-1.025c-0.566,0-1.025,0.459-1.025,1.025v2.063H29.43l-1.514-6.058
			c-0.088-0.352-0.355-0.631-0.703-0.734c-1.805-0.537-3.556-1.262-5.203-2.155c-0.319-0.173-0.705-0.164-1.016,0.022l-5.354,3.212
			l-3.213-3.213l1.459-1.459c0.4-0.401,0.4-1.05,0-1.45c-0.4-0.4-1.05-0.4-1.45,0l-1.459,1.459L7.763,54.36l3.212-5.354
			c0.187-0.311,0.195-0.698,0.022-1.016c-0.894-1.648-1.619-3.398-2.155-5.203c-0.103-0.348-0.382-0.615-0.734-0.703l-6.057-1.514
			v-4.544h2.063c0.566,0,1.025-0.459,1.025-1.025c0-0.566-0.459-1.025-1.025-1.025H2.051V29.43l6.057-1.514
			c0.352-0.088,0.631-0.355,0.734-0.703c0.536-1.805,1.262-3.556,2.155-5.203c0.173-0.319,0.165-0.705-0.022-1.016l-3.213-5.354
			l3.213-3.213l1.459,1.459c0.2,0.2,0.463,0.3,0.725,0.3c0.262,0,0.525-0.1,0.725-0.3c0.4-0.401,0.4-1.05,0-1.45l-1.459-1.459
			l3.213-3.213l5.354,3.212c0.311,0.187,0.698,0.195,1.016,0.022c1.647-0.893,3.398-1.619,5.203-2.155
			c0.348-0.103,0.615-0.383,0.703-0.734l1.514-6.057h4.544v2.063c0,0.566,0.459,1.025,1.025,1.025c0.566,0,1.025-0.459,1.025-1.025
			V2.051h4.544l1.514,6.057c0.088,0.352,0.355,0.631,0.703,0.734c1.806,0.537,3.556,1.262,5.203,2.155
			c0.319,0.173,0.705,0.164,1.017-0.022l5.354-3.212l3.213,3.213l-1.459,1.459c-0.4,0.401-0.4,1.05,0,1.45
			c0.2,0.2,0.463,0.3,0.725,0.3c0.262,0,0.525-0.1,0.725-0.3l1.459-1.459l3.213,3.213l-3.212,5.354
			c-0.186,0.311-0.195,0.698-0.022,1.016c0.894,1.648,1.619,3.398,2.155,5.203c0.103,0.348,0.383,0.615,0.734,0.703l6.057,1.514
			V33.974z M35,13.898c-4.834,0-9.382,1.591-13.153,4.6c-0.443,0.353-0.515,0.998-0.162,1.441c0.353,0.442,0.998,0.515,1.441,0.162
			c3.404-2.716,7.509-4.152,11.874-4.152c10.505,0,19.051,8.546,19.051,19.051c0,10.505-8.546,19.051-19.051,19.051
			c-10.505,0-19.051-8.546-19.051-19.051c0-4.195,1.337-8.173,3.865-11.505c0.342-0.451,0.254-1.094-0.197-1.437
			c-0.451-0.342-1.094-0.254-1.437,0.197c-2.802,3.692-4.282,8.099-4.282,12.745c0,11.635,9.466,21.102,21.102,21.102
			c11.635,0,21.101-9.466,21.101-21.102C56.101,23.365,46.635,13.898,35,13.898z"/>
	</g>
</g>
</svg>
