<?xml version="1.0" encoding="utf-8"?>
<!-- Generator: Adobe Illustrator 21.1.0, SVG Export Plug-In . SVG Version: 6.00 Build 0)  -->
<svg version="1.1" id="Слой_1" xmlns="http://www.w3.org/2000/svg" xmlns:xlink="http://www.w3.org/1999/xlink" x="0px" y="0px"
	 width="21.999px" height="22px" viewBox="0 0 21.999 22" style="enable-background:new 0 0 21.999 22;" xml:space="preserve">
<path style="fill:#82868A;" d="M10.977,21.995c-3.576,0-7.152-0.002-10.729,0.005c-0.207,0-0.248-0.06-0.248-0.255
	C0.006,14.585,0.006,7.425,0,0.266C0,0.058,0.044,0,0.26,0C7.42,0.006,14.58,0.006,21.74,0c0.218,0,0.26,0.059,0.26,0.266
	c-0.006,7.16-0.006,14.32-0.001,21.479c0,0.196-0.043,0.255-0.249,0.254C18.159,21.993,14.568,21.995,10.977,21.995z M9.996,7.009
	c0-1.597-0.002-3.194,0.004-4.792C10,2.047,9.957,1.994,9.781,1.994C7.261,2,4.74,1.999,2.22,1.995c-0.169,0-0.226,0.042-0.226,0.22
	c0.005,3.187,0.005,6.374,0,9.561c0,0.183,0.053,0.234,0.235,0.233c2.513-0.006,5.026-0.006,7.539,0
	c0.183,0,0.233-0.048,0.232-0.231C9.993,10.188,9.996,8.599,9.996,7.009z M12.004,15.006c0,1.59,0.003,3.18-0.004,4.77
	c-0.001,0.184,0.051,0.231,0.233,0.231c2.513-0.006,5.026-0.006,7.539,0c0.184,0,0.234-0.053,0.234-0.235
	C20,16.591,20,13.412,20.006,10.232c0-0.2-0.062-0.241-0.25-0.241c-2.506,0.006-5.011,0.007-7.517-0.001
	c-0.199-0.001-0.241,0.058-0.24,0.246C12.007,11.826,12.004,13.416,12.004,15.006z M16.013,1.998c-1.268,0-2.536,0.003-3.803-0.004
	C12.046,1.993,12,2.038,12,2.204c0.006,1.861,0.006,3.723,0,5.584C12,7.959,12.043,8.009,12.219,8.009
	c2.521-0.006,5.042-0.005,7.563-0.001c0.167,0,0.225-0.036,0.224-0.216c-0.007-1.854-0.007-3.708-0.001-5.562
	c0.001-0.18-0.047-0.238-0.233-0.236C18.52,2.001,17.266,1.998,16.013,1.998z M6.01,20.003c1.253,0,2.506-0.004,3.759,0.004
	c0.186,0.001,0.231-0.053,0.231-0.234c-0.006-1.854-0.006-3.708,0-5.562c0.001-0.174-0.048-0.22-0.221-0.219
	c-2.521,0.005-5.042,0.005-7.563,0c-0.17,0-0.223,0.04-0.223,0.218C2,16.064,2,17.918,1.994,19.772
	c-0.001,0.183,0.052,0.236,0.234,0.235C3.489,19.999,4.749,20.003,6.01,20.003z"/>
</svg>
