<svg height="479pt" viewBox="-16 0 479 479.62712" width="479pt" xmlns="http://www.w3.org/2000/svg"><path d="m152.3125 367.476562 68.582031 7.582032c3.234375.359375 6.367188-1.273438 7.917969-4.132813 1.554688-2.859375 1.21875-6.375-.84375-8.890625l-21.257812-25.976562-39.878907-51.71875 38.152344 7.199218c3.128906.585938 6.3125-.742187 8.097656-3.378906 1.785157-2.640625 1.832031-6.085937.125-8.773437l-54.160156-85.007813c-1.488281-2.507812-4.226563-4.007812-7.140625-3.910156-2.917969.097656-5.550781 1.773438-6.871094 4.375-1.320312 2.601562-1.117187 5.714844.523438 8.128906l44.210937 69.453125-29.800781-5.597656c-4.3125-.8125-8.472656 2-9.328125 6.304687-.648437.265626-1.261719.617188-1.816406 1.046876-3.484375 2.695312-4.132813 7.703124-1.449219 11.199218l46.785156 60.648438 9 10.992187-49.96875-5.527343c-.585937-.058594-1.171875-.058594-1.757812 0l-69.527344 7.703124c-4.222656.464844-7.347656 4.148438-7.113281 8.386719.230469 4.242188 3.734375 7.5625 7.984375 7.566407.296875 0 .59375-.011719.886718-.042969zm0 0"/><path d="m163.257812 118.957031c1.976563 3.949219 6.78125 5.550781 10.734376 3.574219 3.953124-1.976562 5.554687-6.785156 3.574218-10.734375l-18.054687-36.167969c-1.976563-3.957031-6.785157-5.558594-10.738281-3.582031-3.957032 1.976563-5.558594 6.785156-3.582032 10.742187zm0 0"/><path d="m147.617188 144.554688c-1.726563 1.246093-2.882813 3.128906-3.214844 5.230468-.335938 2.101563.183594 4.25 1.4375 5.96875l29.945312 41.183594c2.597656 3.574219 7.601563 4.367188 11.175782 1.769531 3.574218-2.597656 4.367187-7.601562 1.765624-11.175781l-29.933593-41.207031c-2.597657-3.574219-7.601563-4.367188-11.175781-1.769531zm0 0"/><path d="m407.199219 362.21875 31.792969 5.296875c3.117187.523437 6.246093-.839844 7.992187-3.472656 1.742187-2.632813 1.777344-6.046875.078125-8.710938l-48.175781-75.703125h25.425781c3.078125 0 5.878906-1.761718 7.214844-4.535156 1.332031-2.773438.957031-6.066406-.96875-8.464844l-49.199219-61.496094 9.007813 2.253907c3.039062.78125 6.253906-.28125 8.222656-2.722657 1.96875-2.441406 2.328125-5.808593.921875-8.613281l-72-144c-1.503907-2.523437-4.222657-4.066406-7.160157-4.066406s-5.65625 1.542969-7.160156 4.066406l-72 144c-1.398437 2.796875-1.039062 6.148438.917969 8.585938s5.15625 3.511719 8.1875 2.75l9-2.253907-12.585937 15.6875-35.878907-49.335937 19.921875 4c2.996094.625 6.085938-.539063 7.925782-2.984375 1.855468-2.429688 2.164062-5.699219.800781-8.433594l-80-160c-1.503907-2.519531-4.222657-4.066406-7.160157-4.066406s-5.65625 1.546875-7.160156 4.066406l-80 160c-1.363281 2.734375-1.054687 6.003906.800782 8.433594 1.839843 2.445312 4.929687 3.609375 7.925781 2.984375l19.914062-4-51.953125 71.4375c-1.933594 2.664063-2.039062 6.242187-.261718 9.015625 1.757812 2.796875 5.070312 4.203125 8.300781 3.53125l21.601562-4.320312-45.929687 72.183593c-1.695313 2.664063-1.664063 6.078125.082031 8.710938 1.746094 2.632812 4.875 3.996093 7.992187 3.472656l27.023438-4.503906-58.535156 71.550781c-1.957032 2.394531-2.359375 5.699219-1.035156 8.492188 1.320312 2.792968 4.136718 4.570312 7.226562 4.574218.296875 0 .59375-.019531.886719-.050781l111.113281-12.351563v68.402344c0 4.417969 3.582031 8 8 8h48c4.417969 0 8-3.582031 8-8v-68.402344l22.191406 2.472657-13.511718 30.726562c-1.164063 2.648438-.808594 5.714844.925781 8.027344 1.738281 2.3125 4.585937 3.507813 7.449219 3.125l86.945312-11.613281v35.664062c0 4.417969 3.582031 8 8 8h48c4.417969 0 8-3.582031 8-8v-35.664062l86.945312 11.589844c.347657.046874.703126.074218 1.054688.074218 2.824219 0 5.4375-1.488281 6.878906-3.917968 1.441406-2.429688 1.496094-5.4375.144532-7.914063zm-320.695313-37.527344c1.957032-2.394531 2.359375-5.699218 1.035156-8.492187-1.324218-2.792969-4.136718-4.570313-7.226562-4.570313-.441406 0-.882812.039063-1.320312.109375l-30.296876 5.050781 46.402344-72.867187c1.710938-2.699219 1.652344-6.160156-.152344-8.796875-1.804687-2.691406-5.066406-4.015625-8.234374-3.335938l-19.910157 4 51.953125-71.441406c1.945313-2.664062 2.054688-6.25.273438-9.03125-1.777344-2.777344-5.082032-4.179687-8.316406-3.527344l-23.957032 4.796876 65.558594-131.070313 65.527344 131.054687-23.960938-4.800781c-3.226562-.644531-6.523437.757813-8.300781 3.53125-1.773437 2.769531-1.671875 6.347657.261719 9.015625l51.90625 71.40625-18.449219-3.671875-1.382813-.261719c-.789062-.183593-1.597656-.238281-2.402343-.160156-.496094.070313-.988281.191406-1.464844.359375-.269531.042969-.535156.109375-.796875.191407-.25.101562-.464844.289062-.707031.414062-.453125.222656-.882813.488281-1.277344.800781-.046875.039063-.085937.082031-.121094.128907-.5625.464843-1.0625 1-1.480469 1.601562-.128906.226562-.242187.460938-.34375.703125-.273437.441406-.5.910156-.679687 1.398437-.46875 1.480469-.496094 3.066407-.082031 4.5625.214844.753907.535156 1.476563.953125 2.140626l46.402343 72.875-28.945312-4.800782-1.183594-.226562c-3.261718-.613282-6.5625.851562-8.296875 3.675781-1.738281 2.828125-1.550781 6.429687.472657 9.0625l.800781.976563c.054687.078124.078125.175781.144531.253906l58.757812 71.753906-58.558593-6.535156c-.078125-.003906-.15625-.003906-.234375 0l-41.597656-4.617188-.128907-.039062-24-2.640625c-.578125-.066407-1.164062-.066407-1.746093 0l-24 2.640625-.132813.039062-100.335937 11.152344zm81.808594 138.9375h-32v-62.179687l16-1.773438 16 1.773438zm168 0h-32v-29.800781l16-2.128906 16 2.128906zm9.3125-44.699218c-.429688-.128907-.867188-.214844-1.3125-.261719-.097656 0-.175781.046875-.273438.054687l-22.671874-3.023437c-.699219-.097657-1.410157-.097657-2.109376 0l-22.671874 3.023437c-.097657 0-.175782-.054687-.273438-.054687-.445312.050781-.886719.140625-1.320312.261719l-81.601563 10.882812 9.800781-22.265625 72.257813 8c3.234375.363281 6.367187-1.269531 7.921875-4.128906 1.554687-2.859375 1.222656-6.378907-.84375-8.894531l-58.566406-71.527344 27.0625 4.488281c.769531.125 1.554687.136719 2.328124.039063 2.308594-.292969 4.371094-1.574219 5.65625-3.511719.414063-.628907.734376-1.3125.953126-2.03125v-.066407c.128906-.5.207031-1.011718.230468-1.527343 0-.246094.113282-.480469.113282-.71875 0-.242188-.046876-.273438-.054688-.402344-.039062-1.414063-.449219-2.792969-1.195312-4l-18.046876-28.359375-27.894531-43.75 20.527344 4.09375 1.078125.21875c3.230469.628906 6.515625-.78125 8.28125-3.554688 1.765625-2.773437 1.65625-6.347656-.28125-9.007812l-6.308594-8.671875 30.09375-37.597656c2.148438-2.683594 2.34375-6.433594.488282-9.324219-1.855469-2.890625-5.347657-4.273438-8.679688-3.4375l-15.121094 3.785156 57.121094-114.144531 57.0625 114.113281-15.117188-3.785156c-3.332031-.835938-6.824218.546875-8.679687 3.4375s-1.660156 6.640625.484375 9.320312l53.601562 67.027344h-23.351562c-2.921875-.003906-5.609375 1.585938-7.015625 4.148438-1.40625 2.558594-1.304687 5.683594.261719 8.144531l46.402344 72.867187-30.296876-5.050781c-3.019531-.503906-6.0625.757813-7.835937 3.25-1.777344 2.496094-1.972656 5.785157-.507813 8.472657l40.449219 74.148437zm0 0"/><path d="m322.710938 149.835938c1.355468 2.710937 4.128906 4.425781 7.160156 4.421874 2.773437 0 5.347656-1.4375 6.804687-3.792968 1.453125-2.359375 1.585938-5.300782.347657-7.78125l-9.511719-19.054688c-1.976563-3.957031-6.785157-5.558594-10.738281-3.582031-3.957032 1.976563-5.558594 6.785156-3.582032 10.742187zm0 0"/><path d="m373.472656 324.15625c3.113282.515625 6.242188-.84375 7.984375-3.476562 1.742188-2.632813 1.773438-6.042969.078125-8.707032l-40.941406-64.34375h17.144531c3.074219-.003906 5.875-1.769531 7.207031-4.539062 1.328126-2.773438.953126-6.0625-.96875-8.460938l-37.417968-46.777344c-2.757813-3.449218-7.796875-4.011718-11.246094-1.25-3.449219 2.761719-4.007812 7.800782-1.25 11.25l27.050781 33.777344h-15.097656c-2.917969 0-5.605469 1.589844-7.007813 4.152344-1.40625 2.558594-1.304687 5.679688.265626 8.140625l39.136718 61.503906-24.347656-4.054687c-3.015625-.5-6.054688.761718-7.828125 3.253906s-1.96875 5.78125-.507813 8.464844l41.714844 76.464844-41.527344-5.535157c-2.867187-.445312-5.75.691407-7.539062 2.976563-1.785156 2.285156-2.195312 5.359375-1.066406 8.03125 1.125 2.675781 3.609375 4.527344 6.492187 4.847656l57.175781 7.625c.351563.046875.703126.070312 1.054688.070312 2.824219 0 5.433594-1.488281 6.875-3.914062s1.5-5.429688.148438-7.910156l-41.390626-75.894532zm0 0"/></svg>