<svg height="480pt" viewBox="0 0 480 480.14373" width="480pt" xmlns="http://www.w3.org/2000/svg"><path d="m294.472656 112.144531h-84.648437l-28 112h42.246093v65.375l79.371094-113.375h-48.96875zm-21.761718 80-32.640626 46.625v-30.625h-37.75l20-80h43.351563l-40 64zm0 0"/><path d="m400.070312 464.144531c-13.101562.085938-25.699218-5.039062-35.023437-14.25-25.332031-23.667969-64.671875-23.667969-90.007813 0-19.464843 19-50.53125 19-70 0-25.324218-23.667969-64.660156-23.667969-89.984374 0-19.453126 19-50.511719 19-69.96875 0-12.144532-11.515625-28.277344-17.878906-45.0156255-17.75v16c13.0898435-.082031 25.6757815 5.042969 34.9843755 14.246094 25.320312 23.671875 64.648437 23.671875 89.96875 0 19.464843-18.996094 50.527343-18.996094 69.992187 0 25.328125 23.667969 64.664063 23.667969 89.992187 0 19.472657-18.992187 50.542969-18.992187 70.015626 0 25.339843 23.667969 64.683593 23.667969 90.023437 0 9.324219-9.207031 21.921875-14.332031 35.023437-14.246094v-16c-16.734374-.117187-32.863281 6.242188-45.015624 17.75-9.3125 9.199219-21.894532 14.324219-34.984376 14.25zm0 0"/><path d="m400.070312 400.144531c-13.101562.085938-25.699218-5.039062-35.023437-14.25-25.332031-23.667969-64.671875-23.667969-90.007813 0-19.464843 19-50.53125 19-70 0-25.324218-23.667969-64.660156-23.667969-89.984374 0-19.453126 19-50.511719 19-69.96875 0-12.144532-11.515625-28.277344-17.878906-45.0156255-17.75v16c13.0898435-.082031 25.6757815 5.042969 34.9843755 14.246094 25.320312 23.671875 64.648437 23.671875 89.96875 0 19.464843-18.996094 50.527343-18.996094 69.992187 0 25.328125 23.667969 64.664063 23.667969 89.992187 0 19.472657-18.992187 50.542969-18.992187 70.015626 0 25.339843 23.667969 64.683593 23.667969 90.023437 0 9.324219-9.207031 21.921875-14.332031 35.023437-14.246094v-16c-16.734374-.117187-32.863281 6.242188-45.015624 17.75-9.3125 9.199219-21.894532 14.324219-34.984376 14.25zm0 0"/><path d="m435.054688 321.894531c-19.480469 19-50.558594 19-70.039063 0-25.332031-23.667969-64.671875-23.667969-90.007813 0-19.464843 19-50.535156 19-70 0-25.324218-23.667969-64.660156-23.667969-89.984374 0-19.453126 19-50.515626 19-69.96875 0-12.136719-11.507812-28.257813-17.867187-44.9843755-17.75v16c13.0898435-.082031 25.6757815 5.042969 34.9843755 14.246094 25.320312 23.671875 64.648437 23.671875 89.96875 0 19.464843-18.996094 50.527343-18.996094 69.992187 0 25.328125 23.667969 64.664063 23.667969 89.992187 0 19.472657-18.992187 50.542969-18.992187 70.015626 0 25.339843 23.667969 64.683593 23.667969 90.023437 0 9.324219-9.207031 21.921875-14.332031 35.023437-14.246094v-16c-16.734374-.117187-32.863281 6.242188-45.015624 17.75zm0 0"/><path d="m359.710938 212.71875c.128906-.734375.257812-1.445312.328124-2.054688l.183594-1.367187c3.246094-22.636719-.0625-45.730469-9.535156-66.542969-3.46875-7.808594-7.804688-15.199218-12.925781-22.035156-13.714844-18.488281-32.472657-32.621094-54.027344-40.703125-6.933594-2.65625-14.109375-4.636719-21.421875-5.917969-.34375-.066406-3.335938-.53125-3.375-.53125-22.777344-3.355468-46.035156-.066406-66.984375 9.472656-7.808594 3.46875-15.199219 7.804688-22.035156 12.929688-18.492188 13.707031-32.625 32.46875-40.703125 54.023438-2.714844 7.105468-4.730469 14.457031-6.023438 21.953124-.121094.679688-.238281 1.335938-.304687 1.917969l-.191407 1.375c-3.238281 22.625.074219 45.707031 9.542969 66.503907 3.46875 7.8125 7.804688 15.207031 12.929688 22.050781 18.246093 24.636719 45.257812 41.324219 75.457031 46.621093 23.8125 4.203126 48.339844 1.078126 70.34375-8.957031 7.808594-3.464843 15.203125-7.796875 22.039062-12.921875 18.484376-13.703125 32.617188-32.449218 40.703126-53.992187 2.695312-7.066407 4.703124-14.375 6-21.824219zm-15.328126-5.65625-.503906 3.257812c-1.113281 6.332032-2.832031 12.546876-5.136718 18.550782-7.003907 18.707031-19.265626 34.984375-35.308594 46.882812-5.902344 4.414063-12.28125 8.152344-19.019532 11.132813-19.074218 8.726562-40.355468 11.445312-61.015624 7.800781-26.179688-4.59375-49.597657-19.066406-65.414063-40.429688-4.421875-5.90625-8.164063-12.289062-11.152344-19.035156-8.238281-18.0625-11.117187-38.109375-8.296875-57.757812l.496094-3.257813c1.121094-6.332031 2.839844-12.542969 5.136719-18.550781 7.007812-18.703125 19.273437-34.980469 35.320312-46.871094 5.886719-4.421875 12.253907-8.160156 18.984375-11.144531 18.152344-8.285156 38.3125-11.148437 58.054688-8.25l2.960937.457031c6.332031 1.113282 12.546875 2.832032 18.550781 5.128906 18.703126 7.011719 34.980469 19.28125 46.871094 35.328126 4.425782 5.890624 8.171875 12.265624 11.160156 19 8.242188 18.0625 11.125 38.105468 8.3125 57.757812zm0 0"/><path d="m77.824219 293.335938 44.800781-6.617188c2.023438 2.539062 4 5.113281 6.175781 7.519531 2.960938 3.28125 8.019531 3.535157 11.300781.574219 3.277344-2.964844 3.53125-8.023438.570313-11.300781-2.929687-3.238281-5.734375-6.65625-8.34375-10.167969-5.835937-7.789062-10.773437-16.21875-14.710937-25.121094v-.054687c-10.78125-23.785157-14.457032-50.175781-10.585938-76 .136719-1.191407.335938-2.296875.542969-3.488281 1.472656-8.351563 3.742187-16.542969 6.777343-24.464844 9.152344-24.371094 25.152344-45.578125 46.082032-61.0625 7.789062-5.839844 16.214844-10.777344 25.117187-14.71875h.058594c23.746094-10.792969 50.105469-14.503906 75.910156-10.691406 1.136719.136718 2.265625.335937 3.550781.5625 8.351563 1.476562 16.539063 3.746093 24.457032 6.773437 24.367187 9.152344 45.570312 25.152344 61.054687 46.074219 5.84375 7.792968 10.78125 16.222656 14.722657 25.128906v.054688c10.785156 23.78125 14.460937 50.175781 10.582031 76-.125 1.175781-.328125 2.265624-.535157 3.480468-1.476562 8.34375-3.746093 16.527344-6.777343 24.441406v.046876c-5.972657 16.003906-14.964844 30.714843-26.488281 43.328124-1.980469 2.101563-2.671876 5.109376-1.8125 7.871094.863281 2.757813 3.144531 4.835938 5.96875 5.4375 2.828124.605469 5.757812-.367187 7.667968-2.535156 10.496094-11.542969 19.113282-24.664062 25.539063-38.878906l40.488281 30.03125 8.664062-49.132813-36.273437-26.867187c2.78125-23.730469-.113281-47.785156-8.441406-70.183594l49.824219-7.359375-28.640626-40.886719-44.71875 6.605469c-14.792968-18.699219-33.804687-33.632813-55.480468-43.574219l29.945312-40.417968-49.144531-8.636719-26.921875 36.261719c-23.710938-2.753907-47.738281.140624-70.117188 8.457031l-7.351562-49.824219-40.890625 28.625 6.601563 44.726562c-18.730469 14.796876-33.683594 33.820313-43.640626 55.511719l-40.390624-29.960937-8.664063 49.136718 36.269531 26.863282c-2.773437 23.738281.121094 47.792968 8.449219 70.195312l-49.816406 7.351563zm330.878906-36-23.03125-17.078126c.457031-1.355468.800781-2.761718 1.183594-4.128906.617187-2.023437 1.214843-4.039062 1.753906-6.097656.230469-.910156.550781-1.792969.796875-2.710938l21.792969 16.136719zm-11.03125-148.863282 8.097656 11.566406-28.425781 4.199219c-1-2.023437-2.183594-3.941406-3.273438-5.910156-.796874-1.449219-1.550781-2.914063-2.398437-4.320313-.3125-.511718-.558594-1.0625-.871094-1.601562zm-105.023437-85.929687 13.894531 2.449219-17.09375 23.078124c-1.363281-.453124-2.785157-.796874-4.167969-1.191406-2.015625-.605468-4-1.207031-6.082031-1.734375-.917969-.242187-1.808594-.558593-2.734375-.800781zm-123.417969 5.386719 4.203125 28.429687c-2.019532.992187-3.921875 2.167969-5.882813 3.257813-1.453125.796874-2.933593 1.558593-4.359375 2.398437-.511718.304687-1.054687.550781-1.597656.863281l-3.921875-26.816406zm-83.972657 248.132812-8.097656-11.574219 28.421875-4.191406c1 2.015625 2.1875 3.925781 3.273438 5.894531.800781 1.449219 1.550781 2.914063 2.402343 4.328125.300782.519531.550782 1.066407.863282 1.601563zm-11.035156-148.886719 23.050782 17.105469c-.457032 1.34375-.800782 2.75-1.1875 4.109375-.613282 2.035156-1.214844 4.058594-1.742188 6.113281-.238281.910156-.558594 1.792969-.800781 2.703125l-21.792969-16.136719zm0 0"/></svg>