<?xml version="1.0" encoding="utf-8"?>
<!-- Generator: Adobe Illustrator 21.1.0, SVG Export Plug-In . SVG Version: 6.00 Build 0)  -->
<svg version="1.1" id="Shape_1_1_" xmlns="http://www.w3.org/2000/svg" xmlns:xlink="http://www.w3.org/1999/xlink" x="0px" y="0px"
	 width="33.996px" height="39.883px" viewBox="0 0 33.996 39.883" style="enable-background:new 0 0 33.996 39.883;"
	 xml:space="preserve">
<g id="Shape_1">
	<g>
		<path style="fill-rule:evenodd;clip-rule:evenodd;fill:#0D73FC;" d="M19.109,33.83l-0.048,0.028
			c-0.402,0.233-0.539,0.747-0.306,1.149c0.156,0.269,0.438,0.42,0.728,0.42c0.143,0,0.288-0.036,0.42-0.113l0.056-0.033
			c0.401-0.235,0.535-0.75,0.301-1.15C20.025,33.73,19.51,33.595,19.109,33.83z M9.587,8.255c-0.17-0.432-0.658-0.644-1.09-0.474
			C6.996,8.373,5.455,8.917,3.917,9.4c-0.35,0.11-0.589,0.435-0.589,0.802v3.246c0,0.464,0.376,0.841,0.84,0.841
			c0.464,0,0.84-0.376,0.84-0.841v-2.632c1.38-0.446,2.758-0.94,4.105-1.471C9.545,9.175,9.758,8.687,9.587,8.255z M11.184,8.415
			c0.113,0,0.227-0.023,0.337-0.071l0.015-0.007c0.425-0.186,0.617-0.681,0.43-1.107c-0.186-0.425-0.684-0.618-1.109-0.431
			l-0.014,0.006c-0.425,0.186-0.618,0.68-0.432,1.106C10.55,8.227,10.86,8.415,11.184,8.415z M33.456,6.9
			c-5.497-1.506-11.027-3.852-15.991-6.784c-0.264-0.156-0.591-0.156-0.855,0C11.503,3.132,6.272,5.351,0.618,6.9
			C0.253,7,0,7.332,0,7.711V16.3c0,8.845,4.08,14.699,7.502,18.053c3.273,3.208,7.021,5.138,8.911,5.53h1.248
			c1.889-0.392,5.637-2.322,8.911-5.53c3.159-3.096,6.87-8.328,7.424-16.07V7.378C33.896,7.151,33.706,6.969,33.456,6.9z
			 M32.393,16.3c0,8.261-3.805,13.724-6.998,16.852c-3.623,3.551-7.497,5.127-8.358,5.127c-0.861,0-4.735-1.577-8.359-5.127
			C5.486,30.024,1.681,24.561,1.681,16.3V8.349c5.406-1.535,10.441-3.678,15.356-6.535c4.793,2.781,10.079,5.03,15.356,6.534V16.3z
			 M27.051,27.105c-0.388-0.254-0.909-0.145-1.163,0.244c-0.693,1.06-1.505,2.076-2.415,3.017c-0.749,0.774-1.56,1.496-2.411,2.145
			c-0.369,0.281-0.44,0.809-0.159,1.178c0.165,0.217,0.416,0.331,0.669,0.331c0.178,0,0.357-0.056,0.509-0.172
			c0.918-0.7,1.793-1.479,2.6-2.313c0.984-1.018,1.864-2.117,2.614-3.266C27.549,27.88,27.439,27.359,27.051,27.105z M11.308,18.265
			c-0.516-0.516-1.202-0.8-1.932-0.8c-0.73,0-1.416,0.284-1.933,0.8c-1.065,1.066-1.065,2.8,0,3.866l4.963,4.963
			c0.516,0.516,1.203,0.8,1.932,0.8c0.73,0,1.416-0.284,1.933-0.8l10.36-10.362c1.065-1.066,1.065-2.8,0-3.866
			c-0.516-0.516-1.202-0.8-1.933-0.8c-0.73,0-1.416,0.284-1.933,0.8l-8.428,8.429L11.308,18.265z M23.955,14.055
			c0.199-0.199,0.463-0.308,0.744-0.308c0.281,0,0.545,0.109,0.744,0.308c0.41,0.41,0.41,1.078,0,1.488l-10.36,10.362
			c-0.199,0.199-0.463,0.308-0.744,0.308c-0.281,0-0.545-0.109-0.744-0.308l-4.963-4.963c-0.41-0.41-0.41-1.078,0-1.488
			c0.199-0.199,0.463-0.308,0.744-0.308c0.281,0,0.545,0.109,0.744,0.308l3.624,3.625c0.158,0.158,0.371,0.246,0.594,0.246
			s0.437-0.089,0.594-0.246L23.955,14.055z"/>
	</g>
</g>
</svg>
