<svg height="480pt" viewBox="0 -5 480.56794 480" width="480pt" xmlns="http://www.w3.org/2000/svg"><path d="m471.152344 316.683594-22.730469-39.957032c-2.179687-3.84375-7.066406-5.1875-10.90625-3.003906-3.84375 2.179688-5.1875 7.066406-3.003906 10.90625l22.734375 39.960938c9.863281 17.332031 9.765625 38.605468-.261719 55.847656s-28.464844 27.847656-48.410156 27.847656h-198.640625l31.601562-31.601562c3.03125-3.136719 2.988282-8.128906-.097656-11.214844s-8.074219-3.128906-11.214844-.097656l-44.449218 44.449218c-2.199219 1.414063-3.53125 3.847657-3.53125 6.464844 0 2.617188 1.332031 5.050782 3.53125 6.464844l44.449218 44.445312c3.140625 3.035157 8.128906 2.988282 11.214844-.097656 3.085938-3.082031 3.128906-8.074218.097656-11.210937l-31.601562-31.601563h198.640625c25.640625-.003906 49.34375-13.640625 62.234375-35.804687 12.890625-22.164063 13.019531-49.507813.34375-71.796875zm0 0"/><path d="m133.574219 130.558594c-.121094-2.613282-1.566407-4.984375-3.835938-6.289063-2.265625-1.304687-5.042969-1.367187-7.363281-.160156l-60.710938 16.261719c-4.136718 1.25-6.535156 5.554687-5.417968 9.730468 1.117187 4.171876 5.347656 6.707032 9.554687 5.71875l43.167969-11.535156-99.320312 172c-12.824219 22.207032-12.867188 49.554688-.117188 71.800782 12.75 22.25 36.371094 36.035156 62.011719 36.199218l45.976562.289063h.046875c4.417969.015625 8.011719-3.554688 8.027344-7.972657.015625-4.417968-3.550781-8.011718-7.972656-8.027343l-45.972656-.289063c-19.945313-.125-38.316407-10.847656-48.234376-28.152344-9.917968-17.304687-9.882812-38.574218.089844-55.847656l99.320313-172 11.566406 43.199219c.9375 3.496094 4.101563 5.925781 7.71875 5.929687.71875-.015624 1.425781-.125 2.113281-.328124 4.269532-1.144532 6.800782-5.53125 5.65625-9.800782zm0 0"/><path d="m169.589844 83.652344 23.242187-39.671875c9.894531-17.394531 28.484375-28.007813 48.496094-27.695313 19.972656-.054687 38.433594 10.644532 48.320313 28l99.320312 172-43.203125-11.558594c-2.792969-.84375-5.824219-.097656-7.90625 1.941407-2.085937 2.042969-2.894531 5.058593-2.109375 7.867187.785156 2.8125 3.039062 4.972656 5.882812 5.636719l60.117188 16.113281c1.21875.699219 2.597656 1.070313 4 1.070313 4.15625.027343 7.597656-3.210938 7.824219-7.359375l16.25-60.710938c.828125-2.789062.078125-5.808594-1.960938-7.886718-2.039062-2.074219-5.042969-2.878907-7.847656-2.101563-2.800781.777344-4.960937 3.015625-5.640625 5.84375l-11.550781 43.144531-99.320313-172c-12.714844-22.3125-36.449218-36.0625-62.128906-36h-.238281c-25.59375-.140625-49.300781 13.445313-62.113281 35.601563l-23.199219 39.671875c-1.472657 2.464844-1.511719 5.53125-.097657 8.03125 1.414063 2.503906 4.058594 4.054687 6.929688 4.066406 2.875.015625 5.53125-1.515625 6.964844-4.003906zm0 0"/><path d="m238.621094 336.285156c39.75-.042968 71.957031-32.253906 72-72 0-37.167968-59.117188-109.054687-65.855469-117.128906-1.570313-1.738281-3.800781-2.730469-6.144531-2.730469-2.339844 0-4.570313.992188-6.140625 2.730469-6.738281 8.074219-65.859375 79.960938-65.859375 117.128906.046875 39.746094 32.253906 71.957032 72 72zm0-171.3125c19.914062 25.0625 56 75.441406 56 99.3125 0 30.929688-25.070313 56-56 56-30.925782 0-56-25.070312-56-56 0-23.847656 36.089844-74.238281 56-99.3125zm0 0"/><path d="m238.621094 304.285156c22.074218 0 39.976562-17.878906 40-39.953125 0-4.417969-3.578125-8-8-8-4.417969 0-8 3.582031-8 8-.023438 13.238281-10.761719 23.953125-24 23.953125-4.417969 0-8 3.582032-8 8 0 4.417969 3.582031 8 8 8zm0 0"/></svg>