<svg height="472pt" viewBox="0 -12 472 472" width="472pt" xmlns="http://www.w3.org/2000/svg"><path d="m368 280c0 4.417969 3.582031 8 8 8h80c4.417969 0 8-3.582031 8-8v-72c-.042969-39.746094-32.253906-71.957031-72-72h-78.238281c-11.628907-17.804688-29.300781-30.804688-49.761719-36.601562v-35.398438h16c10.332031 13.773438 28.316406 19.390625 44.648438 13.949219 16.335937-5.445313 27.351562-20.730469 27.351562-37.949219s-11.015625-32.503906-27.351562-37.949219c-16.332032-5.441406-34.316407.175781-44.648438 13.949219h-80c-10.332031-13.773438-28.316406-19.390625-44.648438-13.949219-16.335937 5.445313-27.351562 20.730469-27.351562 37.949219s11.015625 32.503906 27.351562 37.949219c16.332032 5.441406 34.316407-.175781 44.648438-13.949219h16v35.40625c-20.460938 5.789062-38.136719 18.789062-49.761719 36.59375h-102.238281v-8c.070312-14.851562-5.839844-29.105469-16.398438-39.550781-10.453124-10.585938-24.726562-16.515625-39.601562-16.449219-4.417969 0-8 3.582031-8 8v208c0 4.417969 3.582031 8 8 8 30.910156-.039062 55.960938-25.089844 56-56v-8h102.246094c16.238281 24.945312 43.988281 39.992188 73.753906 39.992188s57.515625-15.046876 73.753906-39.992188h54.246094zm-172.320312-232c-2.859376-.003906-5.503907 1.523438-6.9375 4-5.429688 9.40625-16.503907 13.992188-26.996094 11.183594-10.492188-2.8125-17.785156-12.320313-17.785156-23.183594s7.292968-20.371094 17.785156-23.183594c10.492187-2.808594 21.566406 1.777344 26.996094 11.183594 1.433593 2.476562 4.078124 4.003906 6.9375 4h88.640624c2.859376.003906 5.503907-1.523438 6.9375-4 5.429688-9.40625 16.503907-13.992188 26.996094-11.183594 10.492188 2.8125 17.785156 12.320313 17.785156 23.183594s-7.292968 20.371094-17.785156 23.183594c-10.492187 2.808594-21.566406-1.777344-26.996094-11.183594-1.433593-2.476562-4.078124-4.003906-6.9375-4zm52.320312 16v32.359375c-2.65625-.238281-5.328125-.359375-8-.359375s-5.34375.121094-8 .359375v-32.359375zm-200 176c-.019531 19-13.386719 35.375-32 39.199219v-190.398438c7.703125 1.546875 14.769531 5.363281 20.289062 10.960938 7.539063 7.453125 11.761719 17.632812 11.710938 28.238281zm261.28125-24c-2.855469.003906-5.492188 1.527344-6.921875 4-12.859375 22.28125-36.632813 36.011719-62.359375 36.011719s-49.5-13.730469-62.359375-36.011719c-1.429687-2.472656-4.066406-3.996094-6.921875-4h-106.71875v-64h106.71875c2.859375 0 5.5-1.523438 6.929688-4 15.523437-26.816406 46.4375-40.722656 76.800781-34.550781h.046875c20.15625 4.148437 37.574218 16.722656 47.855468 34.550781 1.429688 2.476562 4.070313 4 6.929688 4h82.71875c30.910156.039062 55.960938 25.089844 56 56v64h-64v-48c0-4.417969-3.582031-8-8-8zm0 0"/><path d="m422.585938 291.457031c-1.574219-2.046875-4.007813-3.246093-6.585938-3.246093s-5.011719 1.199218-6.585938 3.246093c-5.054687 7.320313-49.414062 72.359375-49.414062 100.542969 0 30.929688 25.070312 56 56 56s56-25.070312 56-56c0-28.183594-44.359375-93.222656-49.414062-100.542969zm-6.585938 140.542969c-22.082031-.027344-39.972656-17.917969-40-40 0-15.472656 22.398438-54.753906 40-81.65625 17.601562 26.902344 40 66.175781 40 81.65625-.027344 22.082031-17.917969 39.972656-40 40zm0 0"/></svg>