<svg height="480pt" viewBox="-31 0 480 480" width="480pt" xmlns="http://www.w3.org/2000/svg"><path d="m416.386719 351.59375-18.640625-28.242188c-14.363282-21.695312-33.546875-39.78125-56.046875-52.847656l-89.945313-51.855468c-.878906-1.738282-1.855468-3.421876-2.929687-5.046876v-104c-.039063-25.980468-6.078125-51.601562-17.644531-74.867187l-15.203126-30.320313c-1.355468-2.703124-4.125-4.414062-7.152343-4.414062-3.03125.00390625-5.796875 1.71875-7.148438 4.433594l-15.113281 30.300781c-11.640625 23.269531-17.714844 48.925781-17.738281 74.945313v103.921874c-1.070313 1.613282-2.042969 3.292969-2.917969 5.023438l-89.96875 51.886719c-22.472656 13.066406-41.632812 31.132812-56 52.800781l-18.640625 28.320312c-1.597656 2.449219-1.730469 5.578126-.34375 8.15625 1.386719 2.574219 4.066406 4.191407 6.992187 4.210938h.472657l33.785156-2c25.960937-1.605469 51.199219-9.195312 73.742187-22.167969l59.558594-34.398437-15.414062 174.566406h97.472656l-15.417969-174.574219 59.554688 34.398438c22.527343 12.972656 47.75 20.5625 73.695312 22.175781l33.847657 2h.464843c2.945313 0 5.652344-1.613281 7.046875-4.207031 1.394532-2.59375 1.253906-5.742188-.367187-8.199219zm-188.417969-85.992188c-4.558594 3.476563-9.984375 5.628907-15.6875 6.222657-1.371094.199219-2.757812.273437-4.144531.214843-1.023438-.027343-2.046875-.117187-3.0625-.261718l-.367188-.066406c-5.496093-.660157-10.710937-2.789063-15.097656-6.167969-8.097656-5.984375-12.847656-15.476563-12.785156-25.542969 0-4.277344.84375-8.511719 2.480469-12.464844 1.046874-2.378906 2.359374-4.636718 3.914062-6.71875 6.0625-8.039062 15.539062-12.78125 25.605469-12.816406 2.484375 0 4.957031.292969 7.371093.871094 7.273438 1.742187 13.71875 5.960937 18.230469 11.929687 1.539063 2.066407 2.84375 4.300781 3.878907 6.664063 1.667968 3.96875 2.523437 8.230468 2.519531 12.535156.058593 10.097656-4.722657 19.613281-12.855469 25.601562zm-43.144531-155.921874c.007812-23.53125 5.488281-46.738282 16-67.792969l8-16 8 16c10.480469 21.039062 15.957031 44.210937 16 67.714843v88.871094c-.375-.214844-.796875-.367187-1.160157-.578125-1.03125-.558593-2.070312-1.070312-3.132812-1.550781-.753906-.335938-1.496094-.671875-2.257812-.96875-1.121094-.4375-2.253907-.800781-3.40625-1.167969-.746094-.230469-1.472657-.480469-2.226563-.671875-1.285156-.328125-2.582031-.566406-3.894531-.800781-.648438-.109375-1.289063-.261719-1.945313-.351563-3.964843-.53125-7.984375-.53125-11.949219 0-.65625.089844-1.296874.242188-1.953124.351563-1.304688.21875-2.601563.457031-3.878907.800781-.800781.191406-1.503906.449219-2.25.671875-1.144531.359375-2.273437.730469-3.382812 1.160157-.800781.304687-1.527344.640624-2.28125.984374-1.046875.480469-2.078125.984376-3.09375 1.527344-.386719.21875-.800781.367188-1.1875.59375zm-76.886719 216.28125c-20.394531 11.730468-43.222656 18.59375-66.703125 20.054687l-17.839844 1.054687 9.863281-14.964843c13.003907-19.59375 30.347657-35.925781 50.679688-47.738281l76.886719-44.328126c0 .800782.105469 1.601563.144531 2.402344.058594 1.0625.066406 2.144532.183594 3.199219.050781.367187.144531.726563.195312 1.101563 1.71875 12.578124 8.433594 23.929687 18.621094 31.496093 1.554688 1.191407 3.1875 2.28125 4.882812 3.265625l-3.007812 1.742188-4.617188 2.65625zm132.152344 138.039062h-62.527344l14.863281-168.34375 13.425781-7.753906c.542969.042968 1.09375 0 1.644532 0 .554687 0 .882812.097656 1.328125.097656 1.019531 0 2.027343 0 2.976562-.089844l13.425781 7.746094zm136.265625-117.984375c-23.464844-1.464844-46.277344-8.328125-66.648438-20.0625l-69.28125-40-7.601562-4.402344c1.664062-.96875 3.265625-2.039062 4.800781-3.199219 10.242188-7.589843 16.984375-18.992187 18.703125-31.625.050781-.351562.144531-.6875.1875-1.03125.117187-1.054687.132813-2.144531.183594-3.199218.039062-.800782.144531-1.601563.144531-2.398438l76.871094 44.316406c20.355468 11.816407 37.703125 28.179688 50.6875 47.808594l9.847656 14.90625zm0 0"/><path d="m224.824219 240c0 8.835938-7.160157 16-16 16-8.835938 0-16-7.164062-16-16s7.164062-16 16-16c8.839843 0 16 7.164062 16 16zm0 0"/><path d="m42.539062 272.121094c2.320313 0 4.53125-1.003906 6.054688-2.761719 1.519531-1.753906 2.203125-4.085937 1.871094-6.382813-1.089844-7.609374-1.640625-15.289062-1.640625-22.976562-.128907-64.816406 38.953125-123.273438 98.898437-147.921875 3.964844-1.757813 5.804688-6.355469 4.148438-10.363281-1.65625-4.007813-6.203125-5.96875-10.253906-4.417969-65.941407 27.105469-108.9375 91.40625-108.792969 162.703125.003906 8.449219.605469 16.890625 1.800781 25.257812.566406 3.933594 3.9375 6.859376 7.914062 6.863282zm0 0"/><path d="m155.464844 390.886719c-16.546875-5.851563-32.015625-14.398438-45.78125-25.285157-3.472656-2.671874-8.445313-2.058593-11.160156 1.375-2.714844 3.4375-2.164063 8.417969 1.238281 11.175782 15.152343 11.988281 32.183593 21.386718 50.398437 27.824218 4.125 1.324219 8.550782-.867187 9.996094-4.949218 1.441406-4.085938-.625-8.574219-4.667969-10.132813zm0 0"/><path d="m308.113281 365.480469c-13.765625 10.917969-29.238281 19.488281-45.800781 25.359375-2.726562.929687-4.742188 3.253906-5.277344 6.085937-.535156 2.828125.492188 5.730469 2.691406 7.589844 2.199219 1.863281 5.226563 2.398437 7.929688 1.40625 18.222656-6.460937 35.253906-15.886719 50.402344-27.898437 3.464844-2.742188 4.046875-7.777344 1.304687-11.238282-2.746093-3.464844-7.777343-4.050781-11.242187-1.304687zm0 0"/><path d="m269.90625 92.0625c59.957031 24.644531 99.050781 83.113281 98.917969 147.9375.015625 7.6875-.519531 15.363281-1.597657 22.976562-.628906 4.375 2.40625 8.429688 6.777344 9.058594 4.375.628906 8.433594-2.40625 9.0625-6.777344 1.183594-8.367187 1.773438-16.808593 1.757813-25.257812.148437-71.304688-42.847657-135.613281-108.796875-162.71875-4.050782-1.550781-8.601563.410156-10.253906 4.417969-1.65625 4.007812.183593 8.605469 4.148437 10.363281zm0 0"/></svg>