<svg xmlns="http://www.w3.org/2000/svg" viewBox="0 0 76.86 79.62"><defs><style>.cls-1{isolation:isolate;}.cls-2{fill:#95968b;}.cls-3{fill:#c1bbc5;opacity:0.75;}.cls-3,.cls-5,.cls-8{mix-blend-mode:multiply;}.cls-4{fill:#b9d117;}.cls-5{fill:#cfcad2;}.cls-5,.cls-8{opacity:0.65;}.cls-6{fill:#daeaea;}.cls-7{fill:#fff;}.cls-9{fill:#a1bfa1;}.cls-10{fill:#a1bf1a;}.cls-11{fill:#727465;}.cls-12{fill:#bbbcb5;}</style></defs><title>Ресурс 2</title><g class="cls-1"><g id="Слой_2" data-name="Слой 2"><g id="Layer_1" data-name="Layer 1"><polygon class="cls-2" points="13.03 6.95 14.98 23.02 21.5 21.28 18.89 4.99 13.03 6.95"/><polygon class="cls-3" points="18.89 4.99 13.03 6.95 13.64 11.97 20.14 12.81 18.89 4.99"/><polygon class="cls-4" points="8.4 27.25 14.77 74.77 59.93 76.64 69.48 29.14 8.4 27.25"/><rect class="cls-2" x="11.09" y="72.52" width="53.52" height="7.1"/><polygon class="cls-5" points="30.35 41.62 26.25 41.62 19.04 41.62 19.58 49.5 19.86 53.74 20.44 62.27 27.03 62.27 30.35 62.27 36.78 62.27 37.39 53.74 37.69 49.5 38.26 41.62 30.35 41.62"/><polygon class="cls-6" points="36.87 48.31 37.44 40.43 29.53 40.43 29.53 48.31 36.87 48.31"/><polygon class="cls-6" points="19.04 52.55 19.62 61.08 26.21 61.08 25.89 52.55 19.04 52.55"/><polygon class="cls-6" points="25.43 40.43 18.22 40.43 18.76 48.31 25.73 48.31 25.43 40.43"/><polygon class="cls-6" points="29.53 61.08 35.96 61.08 36.57 52.55 29.53 52.55 29.53 61.08"/><polygon class="cls-7" points="29.53 48.31 29.53 40.43 25.43 40.43 25.73 48.31 18.76 48.31 19.04 52.55 25.89 52.55 26.21 61.08 29.53 61.08 29.53 52.55 36.57 52.55 36.87 48.31 29.53 48.31"/><g class="cls-8"><polygon class="cls-9" points="8.4 27.25 8.48 27.86 9.19 27.27 8.4 27.25"/><polygon class="cls-3" points="69.48 29.14 9.19 27.27 8.48 27.86 9.19 33.2 67.61 38.43 69.48 29.14"/></g><polygon class="cls-10" points="38 0 0 31.16 76.86 31.16 38 0"/><polygon class="cls-5" points="45.47 50.75 46.05 72.52 57.48 72.52 59.07 51.24 45.47 50.75"/><polygon class="cls-6" points="44.15 50.75 44.73 72.52 56.16 72.52 57.76 51.24 44.15 50.75"/><ellipse class="cls-11" cx="52.98" cy="62.14" rx="1.74" ry="1.77"/><path class="cls-2" d="M44,18.27c-1.14-2.14-2.3-3.23-3.41-3.58v3.58Z"/><path class="cls-2" d="M34,19.77A28.54,28.54,0,0,0,32.43,23h6.08l.07-3.19Z"/><path class="cls-2" d="M40.54,23h5.34c-.38-1.18-.76-2.21-1.14-3.11l-4.2-.06Z"/><path class="cls-2" d="M38.68,14.75a8.66,8.66,0,0,0-3.78,3.53H38.6Z"/><path class="cls-6" d="M44,18.27H40.54V14.7a2.91,2.91,0,0,0-1.87.05l-.07,3.53H34.9c-.33.5-.64,1-.91,1.49l4.59.06L38.51,23h2V19.85l4.2.06C44.48,19.3,44.22,18.77,44,18.27Z"/><polygon class="cls-5" points="61.68 54.58 63.99 52.62 51.98 39.81 51.2 40.69 50.95 40.43 42.47 49.93 42.47 50.47 40.55 52.62 43.44 54.58 45 52.84 59.91 52.84 61.68 54.58"/><polygon class="cls-2" points="50.95 38.43 39.52 51.24 42.41 53.2 50.95 43.64 60.65 53.2 62.97 51.24 50.95 38.43"/><polygon class="cls-12" points="9.34 4.99 10.64 11.07 21.5 8.03 20.41 2.23 9.34 4.99"/></g></g></g></svg>