<svg xmlns="http://www.w3.org/2000/svg" viewBox="0 0 72.69 91.62"><defs><style>.cls-1{isolation:isolate;}.cls-2{fill:#393c27;}.cls-3,.cls-6{fill:#8a8b7f;}.cls-4,.cls-6{opacity:0.65;}.cls-4,.cls-6,.cls-9{mix-blend-mode:multiply;}.cls-5{fill:#4e3c36;}.cls-7{fill:#daeaea;}.cls-8{fill:#fff;}.cls-9{fill:#aac8cf;}.cls-10{fill:#b3b4ac;}.cls-11{fill:#c7c8c2;}.cls-12{fill:#e5e6e3;opacity:0.55;mix-blend-mode:screen;}</style></defs><title>Ресурс 11</title><g class="cls-1"><g id="Слой_2" data-name="Слой 2"><g id="Layer_1" data-name="Layer 1"><path class="cls-2" d="M36.22,85.11l19.31-2.9,1.32,1.44V86s-26,8.23-43,.35l.71-2,1.76-1.06A72.55,72.55,0,0,0,36.22,85.11Z"/><path class="cls-3" d="M23.67,44.66a89.55,89.55,0,0,1-.33,12.47c-.92,9.89-3.58,22-9.23,29.61,0,0,17.21,5.85,43.81-.11,0,0-11.92-18.8-8.94-40.82Z"/><g class="cls-4"><path class="cls-3" d="M49,45.81l-25.3-1.15s-.17,8.06-.2,10.89l25.41,4.18C49,58.44,48.79,47.13,49,45.81Z"/></g><polygon class="cls-5" points="36.51 28.23 16.71 45.98 55.69 46.73 36.51 28.23"/><polygon class="cls-6" points="37.61 64.19 41.83 64.19 41.5 59.05 41.36 56.95 41.15 53.65 37.31 53.65 35.33 53.65 31.83 53.65 31.6 56.95 31.46 59.05 30.42 63.48 31.1 64.19 35.43 64.19 37.61 64.19"/><polygon class="cls-6" points="42.98 75.64 42.65 73.27 42.17 69.76 37.5 69.76 35.08 69.76 30.82 69.76 30.32 73.27 29.98 75.64 28.41 81.25 29.09 81.96 35.04 81.96 38.04 81.96 43.84 81.96 42.98 75.64"/><polygon class="cls-7" points="40.68 56.24 40.47 52.94 36.63 52.94 36.73 56.24 40.68 56.24"/><polygon class="cls-7" points="30.78 58.33 30.42 63.48 34.75 63.48 34.7 58.33 30.78 58.33"/><polygon class="cls-7" points="34.64 52.94 31.15 52.94 30.92 56.24 34.68 56.24 34.64 52.94"/><polygon class="cls-7" points="36.93 63.48 41.15 63.48 40.82 58.33 36.78 58.33 36.93 63.48"/><polygon class="cls-8" points="36.73 56.24 36.63 52.94 34.64 52.94 34.68 56.24 30.92 56.24 30.78 58.33 34.7 58.33 34.75 63.48 36.93 63.48 36.78 58.33 40.82 58.33 40.68 56.24 36.73 56.24"/><path class="cls-9" d="M40.68,56.24l-.21-3.3H31.15l-.23,3.3-.14,2.09-.21,3A12.66,12.66,0,0,1,40.92,59.9l-.1-1.56Z"/><polygon class="cls-7" points="41.97 72.56 41.49 69.05 36.82 69.05 36.97 72.56 41.97 72.56"/><polygon class="cls-7" points="29.3 74.92 28.41 81.25 34.36 81.25 34.38 74.92 29.3 74.92"/><polygon class="cls-7" points="34.4 69.05 30.14 69.05 29.64 72.56 34.38 72.56 34.4 69.05"/><polygon class="cls-7" points="37.36 81.25 43.16 81.25 42.3 74.92 37.08 74.92 37.36 81.25"/><polygon class="cls-8" points="36.97 72.56 36.82 69.05 34.4 69.05 34.38 72.56 29.64 72.56 29.3 74.92 34.38 74.92 34.36 81.25 37.36 81.25 37.08 74.92 42.3 74.92 41.97 72.56 36.97 72.56"/><path class="cls-10" d="M61.52,1.55,36.78,34.7l1,1.62,4.81-3.7,4.87,3.23L72.69,9.11S67.42,3.51,61.52,1.55Zm7.11,5.22L67.08,8.62c-.54-.41-.82-.61-1.39-1L66.77,6A16.91,16.91,0,0,1,68.64,6.77ZM49.34,28l.84-1.18,1.34.27L50.3,28.51Zm.5,1-1.2,1.37L47.72,30l.83-1.17Zm1.14-3,.85-1.2,1.4.3L52,26.56Zm1.67-2,.87-1.22,1.46.34-1.26,1.41ZM54.35,22l.88-1.26c.61.14.92.22,1.52.38l-1.29,1.45Zm1.74-2.12.9-1.31c.64.16,1,.24,1.58.43l-1.33,1.5Zm1.79-2.2.93-1.37c.67.17,1,.27,1.64.48l-1.37,1.57Zm1.85-2.31,1-1.45c.7.19,1,.3,1.71.53L61,16.1C60.49,15.8,60.23,15.65,59.73,15.37Zm1.91-2.44,1-1.54c.72.22,1.08.34,1.77.6l-1.46,1.74C62.43,13.39,62.17,13.23,61.64,12.92Zm2-2.58,1-1.62a19.23,19.23,0,0,1,1.83.69L65,11.22C64.44,10.86,64.17,10.68,63.62,10.34Zm.72-5.86A19,19,0,0,1,66.2,5L64.67,7c-.54-.32-.81-.48-1.38-.78Zm-2,2.91c.73.16,1.09.25,1.8.45L62.64,9.78c-.52-.29-.79-.44-1.33-.71Zm-1.94,2.77c.7.14,1,.22,1.72.4l-1.4,1.83c-.5-.27-.75-.4-1.27-.66Zm-1.85,2.62c.67.13,1,.21,1.65.37l-1.35,1.73-1.21-.61Zm-1.78,2.47c.64.13,1,.2,1.58.34L57,17.24l-1.16-.58ZM55,17.59l1.51.32-1.26,1.56-1.1-.54Zm-1.67,2.23,1.44.3-1.23,1.5-1-.51ZM51.71,22l1.38.28-1.2,1.45-1-.49ZM50.12,24l1.31.26-1.18,1.42-.95-.47Zm-1.57,2,1.26.25-1.16,1.4-.9-.45Zm-1.54,2,1.2.23L47.07,29.7l-.85-.44Zm-2.31,3.17.79-1.18,1.15.22L45.5,31.68Zm1.43.74.82-1.17,1.24.22L47,32.41Zm2.47,1.11-1-.42.86-1.15,1.33.22Zm1.7-1.91-1-.44.87-1.15,1.38.26ZM52,29.3l-1-.48.88-1.15,1.43.31Zm1.76-1.88-1.09-.53.89-1.16,1.48.36Zm1.79-1.89-1.13-.58.9-1.18c.62.16.93.24,1.54.42Zm1.82-1.92L56.22,23l.92-1.22c.64.18,1,.28,1.59.49Zm1.87-2c-.48-.29-.73-.44-1.21-.71L59,19.67c.67.21,1,.32,1.65.57Zm1.92-2c-.5-.33-.75-.49-1.26-.79l1-1.33c.69.24,1,.37,1.71.65Zm2-2.12c-.51-.36-.77-.54-1.3-.88l1-1.4c.72.27,1.07.42,1.76.74Zm2-2.22c-.53-.41-.8-.6-1.34-1l1-1.48c.74.31,1.11.48,1.81.84ZM67.27,13c-.54-.45-.81-.67-1.38-1.09L67,10.33a18.75,18.75,0,0,1,1.85,1ZM68,9.35l1.1-1.58A17.38,17.38,0,0,1,71,8.92c-.61.63-.93,1-1.57,1.65C68.87,10.07,68.59,9.82,68,9.35Z"/><path class="cls-11" d="M64.5,2.85a31.25,31.25,0,0,0-3-1.3L36.78,34.7l1,1.62,4.81-3.7Z"/><path class="cls-10" d="M71.51,61.57,38.36,36.83l-1.62,1,3.7,4.81L37.2,47.54l26.75,25.2S69.56,67.47,71.51,61.57Zm-5.22,7.11-1.85-1.56c.41-.54.61-.82,1-1.39l1.68,1.08A16.92,16.92,0,0,1,66.29,68.69ZM45,49.38l1.18.84c-.1.54-.16.81-.27,1.34l-1.37-1.21Zm-1,.5-1.37-1.2.44-.92,1.17.83ZM47,51l1.19.85c-.12.56-.18.84-.3,1.4L46.51,52Zm2,1.67,1.22.87c-.13.59-.2.88-.34,1.46l-1.41-1.26Zm2.05,1.7,1.26.88c-.14.61-.22.91-.38,1.52L50.49,55.5Zm2.12,1.74,1.31.9c-.16.64-.24,1-.43,1.58l-1.5-1.33C52.81,56.84,52.94,56.61,53.18,56.14Zm2.2,1.79,1.38.93c-.17.67-.27,1-.48,1.64l-1.57-1.37C55,58.66,55.12,58.42,55.38,57.93Zm2.31,1.85,1.45,1c-.19.7-.3,1-.53,1.71L57,61C57.27,60.54,57.41,60.28,57.7,59.77Zm2.44,1.91,1.54,1c-.22.72-.34,1.08-.6,1.77L59.34,63C59.67,62.48,59.83,62.22,60.14,61.69Zm2.58,2,1.62,1a19.33,19.33,0,0,1-.69,1.83L61.84,65C62.2,64.49,62.38,64.22,62.72,63.67Zm5.86.72a18.78,18.78,0,0,1-.53,1.86l-2-1.53c.32-.54.48-.81.78-1.38Zm-2.91-2c-.16.73-.25,1.09-.45,1.8l-1.93-1.46c.29-.52.44-.79.71-1.33Zm-2.77-1.94c-.14.7-.22,1-.4,1.72l-1.83-1.4c.27-.5.4-.75.66-1.27Zm-2.62-1.85c-.14.67-.21,1-.37,1.65l-1.73-1.35c.25-.48.37-.72.61-1.21Zm-2.47-1.78c-.13.64-.2,1-.34,1.58l-1.64-1.3c.23-.46.35-.69.58-1.16Zm-2.34-1.72c-.12.61-.18.91-.32,1.51l-1.56-1.26.54-1.1Zm-2.23-1.67c-.11.58-.17.87-.3,1.44l-1.5-1.23.52-1ZM51.1,51.76c-.11.55-.16.83-.28,1.38l-1.46-1.2.49-1ZM49,50.17c-.1.53-.15.79-.26,1.31L47.34,50.3l.47-.95ZM47,48.6l-.25,1.26-1.4-1.16.45-.9Zm-2-1.54c-.09.48-.14.72-.23,1.2l-1.39-1.14.44-.85Zm-3.17-2.31,1.18.79c-.09.46-.14.69-.22,1.15l-1.39-1.12C41.55,45.23,41.64,45.06,41.82,44.74Zm-.74,1.43,1.17.82c-.09.49-.13.74-.22,1.24l-1.38-1.18C40.82,46.7,40.9,46.53,41.07,46.17ZM40,48.64c.16-.39.25-.58.41-1l1.15.86-.22,1.33Zm1.91,1.71.44-1,1.15.87c-.1.55-.15.83-.26,1.38Zm1.89,1.73.48-1,1.15.88c-.12.57-.18.86-.31,1.43Zm1.88,1.76.53-1.09,1.16.89c-.14.6-.21.89-.36,1.48Zm1.89,1.79.58-1.13,1.18.9c-.16.62-.24.93-.42,1.54Zm1.91,1.83c.26-.47.39-.7.64-1.17l1.22.92c-.18.64-.28,1-.49,1.59Zm2,1.87c.29-.48.44-.72.71-1.21l1.27.95c-.21.67-.32,1-.57,1.65Zm2,1.92c.33-.5.49-.75.79-1.26l1.33,1c-.24.69-.37,1-.65,1.71Zm2.12,2c.37-.51.54-.77.88-1.3l1.4,1c-.27.72-.42,1.07-.74,1.76Zm2.22,2c.41-.53.6-.8,1-1.34l1.48,1c-.31.74-.48,1.1-.84,1.81Zm2.32,2.09c.45-.54.67-.81,1.09-1.38L62.73,67a18.71,18.71,0,0,1-1,1.85Zm3.62.75,1.58,1.1A17.26,17.26,0,0,1,64.14,71c-.63-.61-1-.93-1.65-1.57C63,68.92,63.24,68.64,63.71,68.07Z"/><path class="cls-11" d="M70.21,64.55a31.16,31.16,0,0,0,1.3-3L38.36,36.83l-1.62,1,3.7,4.81Z"/><path class="cls-10" d="M11.17,71.19,35.91,38l-1-1.62-4.81,3.7L25.2,36.88,0,63.63S5.27,69.24,11.17,71.19ZM4.05,66c.61-.71.92-1.09,1.56-1.85.54.41.82.61,1.39,1L5.92,66.78A17,17,0,0,1,4.05,66Zm19.3-21.27-.84,1.18-1.34-.27,1.21-1.37Zm-.5-1L24,42.28l.93.44-.83,1.17Zm-1.14,3-.85,1.19-1.4-.3,1.24-1.38Zm-1.67,2-.87,1.22-1.46-.34L19,48.16Zm-1.7,2.05L17.46,52c-.61-.14-.92-.22-1.52-.38l1.29-1.45ZM16.6,52.86l-.9,1.31c-.64-.16-1-.24-1.58-.43l1.33-1.5Zm-1.79,2.2-.93,1.38c-.67-.17-1-.27-1.64-.48l1.37-1.57ZM13,57.37l-1,1.45c-.7-.19-1-.3-1.71-.53l1.41-1.65C12.21,56.94,12.46,57.09,13,57.37Zm-1.91,2.44-1,1.54c-.72-.22-1.08-.34-1.77-.6L9.75,59C10.26,59.35,10.52,59.51,11.06,59.82Zm-2,2.58L8,64a19.31,19.31,0,0,1-1.83-.69l1.51-1.82C8.25,61.88,8.52,62.06,9.07,62.4Zm-.72,5.86a19.11,19.11,0,0,1-1.86-.53l1.53-2c.54.32.81.48,1.38.78Zm2-2.92c-.74-.16-1.09-.25-1.8-.45L10.06,63c.52.29.79.44,1.33.71Zm1.94-2.77c-.7-.14-1-.22-1.72-.4L12,60.34c.5.27.76.4,1.27.66ZM14.18,60c-.67-.13-1-.21-1.65-.37l1.35-1.73,1.21.61ZM16,57.49c-.64-.13-1-.2-1.58-.34l1.3-1.64,1.16.58Zm1.72-2.34-1.51-.32,1.26-1.56,1.1.54Zm1.67-2.23-1.44-.3,1.23-1.5,1,.51ZM21,50.78,19.6,50.5,20.8,49l1,.49Zm1.6-2.08-1.31-.26L22.44,47l.95.47Zm1.57-2-1.26-.24L24,45l.9.45Zm1.54-2-1.2-.23L25.63,43l.85.44ZM28,41.49l-.79,1.18-1.15-.22,1.12-1.39Zm-1.43-.74-.82,1.17-1.24-.22,1.18-1.38ZM24.1,39.64l1,.42-.86,1.15L22.87,41Zm-1.7,1.91,1,.44-.87,1.15-1.38-.26Zm-1.73,1.89,1,.48-.88,1.15-1.43-.31Zm-1.76,1.88,1.09.53L19.11,47l-1.49-.36Zm-1.79,1.89,1.13.58L17.34,49c-.62-.16-.93-.24-1.54-.42ZM15.3,49.13l1.17.64L15.54,51c-.64-.18-1-.28-1.59-.49Zm-1.87,2,1.21.71-.95,1.27c-.67-.21-1-.32-1.65-.57Zm-1.92,2c.5.33.75.49,1.26.79l-1,1.33c-.69-.24-1-.37-1.71-.65Zm-2,2.12c.51.36.77.54,1.3.88l-1,1.4c-.72-.27-1.07-.42-1.76-.74Zm-2,2.22c.53.41.8.6,1.34,1l-1,1.48A19.91,19.91,0,0,1,6,59.06ZM5.42,59.77c.54.45.81.67,1.38,1.09L5.72,62.41a18.47,18.47,0,0,1-1.85-1Zm-.75,3.62L3.57,65A17.21,17.21,0,0,1,1.7,63.82c.61-.63.93-1,1.57-1.65C3.82,62.67,4.1,62.92,4.67,63.39Z"/><path class="cls-11" d="M8.19,69.89a31.23,31.23,0,0,0,3,1.3L35.91,38l-1-1.62-4.81,3.7Z"/><path class="cls-10" d="M1.18,11.17,34.33,35.91l1.62-1-3.7-4.81,3.23-4.87L8.74,0S3.13,5.27,1.18,11.17ZM6.4,4.05,8.25,5.61c-.41.54-.61.82-1,1.39L5.59,5.92A17,17,0,0,1,6.4,4.05Zm21.27,19.3-1.18-.84c.11-.54.16-.81.27-1.34l1.37,1.21Zm1-.5L30.09,24l-.44.92-1.17-.83Zm-3-1.14-1.2-.85c.12-.56.18-.84.3-1.4l1.38,1.24Zm-2-1.67-1.22-.87c.13-.59.2-.88.34-1.46L24.21,19Zm-2.05-1.7-1.26-.88c.14-.61.22-.91.38-1.52l1.45,1.29ZM19.51,16.6l-1.31-.9c.16-.64.24-1,.43-1.58l1.5,1.33C19.88,15.9,19.76,16.14,19.51,16.6Zm-2.2-1.79-1.38-.93c.18-.67.27-1,.48-1.64L18,13.6C17.7,14.08,17.57,14.32,17.31,14.81ZM15,13l-1.45-1c.19-.7.3-1,.53-1.71l1.65,1.41C15.42,12.21,15.28,12.46,15,13Zm-2.44-1.91-1.54-1c.22-.72.34-1.08.6-1.77l1.74,1.46C13,10.26,12.86,10.52,12.55,11.06ZM10,9.07,8.35,8A19.3,19.3,0,0,1,9,6.2l1.82,1.51C10.49,8.25,10.31,8.52,10,9.07ZM4.11,8.35A19,19,0,0,1,4.64,6.5L6.64,8c-.32.54-.48.81-.78,1.38Zm2.91,2c.16-.74.25-1.09.45-1.8L9.4,10.06c-.29.52-.44.79-.71,1.33ZM9.8,12.33c.14-.7.22-1,.4-1.72L12,12c-.27.5-.4.75-.66,1.27Zm2.62,1.85c.13-.67.21-1,.37-1.65l1.73,1.35c-.25.48-.37.72-.61,1.21ZM14.88,16c.13-.64.2-1,.34-1.58l1.64,1.3c-.24.46-.35.69-.58,1.16Zm2.34,1.72c.12-.61.18-.91.32-1.51l1.56,1.26-.54,1.1Zm2.23,1.67c.11-.58.17-.87.3-1.44l1.5,1.23-.51,1ZM21.59,21c.11-.55.16-.83.28-1.38l1.45,1.2-.49,1Zm2.08,1.6.26-1.31,1.42,1.18-.47.95Zm2,1.57.25-1.26L27.35,24l-.45.9Zm2,1.54c.09-.48.14-.72.23-1.2l1.39,1.14-.44.85ZM30.87,28l-1.18-.79c.09-.46.14-.69.22-1.15l1.39,1.12C31.14,27.51,31.05,27.68,30.87,28Zm.74-1.43-1.17-.82c.09-.49.13-.74.22-1.24L32,25.68C31.87,26,31.79,26.22,31.62,26.57Zm1.11-2.47c-.16.39-.25.58-.42,1l-1.15-.86.22-1.33Zm-1.91-1.7-.44,1-1.15-.87c.1-.55.15-.83.26-1.38Zm-1.89-1.73-.48,1-1.15-.88c.12-.57.18-.86.31-1.43ZM27,18.91,26.52,20l-1.16-.89c.14-.6.21-.89.36-1.48Zm-1.89-1.79-.58,1.13-1.18-.9c.16-.62.24-.93.42-1.54ZM23.24,15.3c-.26.47-.39.7-.64,1.17l-1.22-.92c.18-.64.28-1,.49-1.59Zm-2-1.87c-.29.48-.44.73-.71,1.21L19.3,13.7c.21-.67.32-1,.57-1.65Zm-2-1.92c-.33.5-.49.75-.79,1.26l-1.33-1c.24-.69.37-1,.65-1.71Zm-2.12-2c-.36.51-.54.77-.88,1.3l-1.4-1c.27-.72.42-1.07.74-1.76Zm-2.22-2c-.41.53-.6.8-1,1.34l-1.48-1c.31-.74.48-1.11.84-1.81ZM12.6,5.42c-.45.54-.67.81-1.09,1.38L10,5.72a18.7,18.7,0,0,1,1-1.85ZM9,4.67,7.4,3.57A17.21,17.21,0,0,1,8.55,1.7c.63.61,1,.93,1.65,1.57C9.7,3.82,9.45,4.1,9,4.67Z"/><path class="cls-11" d="M2.48,8.19a31.24,31.24,0,0,0-1.3,3L34.33,35.91l1.62-1-3.7-4.81Z"/><path class="cls-12" d="M56.51,13.73a44.06,44.06,0,0,1-4.43.48L50.75,16c1.29,0,4.34-.33,4.34-.33Z"/><path class="cls-12" d="M49.59,17.55l-.89,1.2c1.56-.16,3.1-.4,4.62-.67L54.11,17Z"/><path class="cls-12" d="M49.83,22.82a40.48,40.48,0,0,1-4.29.15l-.76,1H49Z"/><path class="cls-12" d="M44,25l-.46.61h4.21l.45-.61Z"/><path class="cls-12" d="M53.1,47.86l-1.31-1a26.91,26.91,0,0,1,1,4.9l1,.76Z"/><path class="cls-12" d="M59,52.2l-1.75-1.3c.23,1.54.37,3,.45,4.47l1.91,1.4C59.36,55.22,59.12,53.68,59,52.2Z"/><path class="cls-12" d="M60,53c.13,1.44.25,2.89.36,4.35l2.07,1.52c-.34-1.55-.69-3.11-.9-4.73Z"/><path class="cls-12" d="M20.61,53l-1.39,1.89c1.63-.2,4.39-.36,4.39-.36L24.75,53Z"/><path class="cls-12" d="M26.79,50.26c-1.49.17-3,.28-4.5.44L21.34,52H25.5Z"/><path class="cls-12" d="M16,59.23,14.71,61c1.25,0,2.57.15,3.91.19l1.73-2.32A16.73,16.73,0,0,1,16,59.23Z"/><path class="cls-12" d="M15.21,17.54l-2.63-1.93c.18,1.56.55,3.12.83,4.68l2.66,2C15.67,20.7,15.21,17.54,15.21,17.54Z"/><path class="cls-12" d="M22.85,23.16,21.26,22s.42,3,.52,4.55l1.55,1.16C23.24,26.22,23.09,24.73,22.85,23.16Z"/><ellipse class="cls-7" cx="36.41" cy="36.42" rx="2.62" ry="2.39" transform="matrix(0.98, -0.19, 0.19, 0.98, -6.34, 7.7)"/><path class="cls-11" d="M14.56,84.32,13,87.59s16.86,9.17,45.49-.16l-1.62-3.77S39.39,92,14.56,84.32Z"/></g></g></g></svg>