<svg xmlns="http://www.w3.org/2000/svg" viewBox="0 0 65.63 63.69"><defs><style>.cls-1{isolation:isolate;}.cls-2{fill:#95968b;}.cls-3{fill:#afafa7;}.cls-4{fill:#a1bf1a;}.cls-5{fill:#b9d117;}.cls-6{fill:#90ae00;}.cls-7{opacity:0.35;mix-blend-mode:multiply;}.cls-8{fill:#9fb800;}.cls-9{fill:#934e46;}</style></defs><title>Ресурс 12</title><g class="cls-1"><g id="Слой_2" data-name="Слой 2"><g id="Layer_1" data-name="Layer 1"><path class="cls-2" d="M58.34,58.33s-12.06-7-25.26-7-25.4,6.18-25.4,6.18,12.2,6.18,25.4,6.18S58.34,58.33,58.34,58.33Z"/><path class="cls-3" d="M17.72,61.31a55.85,55.85,0,0,0,15.36,2.38c10.73,0,20.71-3.54,24.07-4.87A49.7,49.7,0,0,0,17.72,61.31Z"/><path class="cls-4" d="M17.38,42.9c-.62,2-.17,3-3,4.51a6,6,0,0,1-5.13-.06c-5-3-.72-8.37-.72-8.37C4.4,41.91,1,40.55.15,37A3.73,3.73,0,0,1,3,32.11c2.62-.58,3.9.47,3.9.47-1.74-1.22-4.32-5.47.22-7.73a3.9,3.9,0,0,1,5.08,1.35A7.67,7.67,0,0,1,13.09,30s.62-5.57,5.66-3.92c2.94,1,3,5.42.64,7.67,1.37-1.08,4-.69,5.08.21,2.29,1.84,2.47,3.65,2.29,5.83a4.58,4.58,0,0,1-4.17,4.33A7,7,0,0,1,17.38,42.9Z"/><path class="cls-4" d="M52.27,43.38a3.73,3.73,0,0,0,1.54,4,5.89,5.89,0,0,0,4.61.41,4.4,4.4,0,0,0,3.69-4.22,3.27,3.27,0,0,0-1.89-3.35,3.68,3.68,0,0,0,4.44-.82,5.51,5.51,0,0,0,.82-4.48c-1.14-4.15-5.77-2.57-5.77-2.57a4.59,4.59,0,0,0,.83-6.2,5.09,5.09,0,0,0-4.38-2c-3.45,0-4.1,4.07-2.8,6.56,0,0-5-6.52-7.48-1.35-1.33,2.78,2.77,4.41,2.77,4.41-2.48-1.18-5.54.38-5.66,2.85a2.88,2.88,0,0,0,1.56,3,3.8,3.8,0,0,0,3.2,0s-3.88,1.67-1.86,4.19C48,46.51,52.27,43.38,52.27,43.38Z"/><path class="cls-5" d="M32.22,33.19s-1,10.35,10.5,7.29c2.91-.78,4.67-3.87,3.75-8.22-.6-2.86-3.79-3.78-3.79-3.78s9.62,2.72,8.6-4.91c-.69-5.12-8.69-3.94-8.69-3.94s8.67-.6,8.69-5.69c0-3.5-1.56-5.88-5.57-5.75-3,.09-4.2,3.15-4.2,3.15a9.87,9.87,0,0,0,.93-3.9,8.63,8.63,0,0,0-1.34-5C39.68.12,35.84-.44,33,.31c-6.9,1.8-6.69,8.75-2.62,12.5,0,0-2.79-3.5-6.33-4.38a5.67,5.67,0,0,0-6.67,2.81,4.58,4.58,0,0,0,2.08,6.1,7,7,0,0,0,3.49.84,35.51,35.51,0,0,0-5.19,1.2C14.44,20.7,11.15,25,14.8,29.48a6,6,0,0,0,4.67,2,11.26,11.26,0,0,0,7.22-2.35s-8.55,4.89-3,9.77c1.83,1.61,4.92.67,6.75-1.16C31.94,36.29,32.22,33.19,32.22,33.19Z"/><path class="cls-6" d="M7.63,40.49c-.9,1.81-1.68,4.85,1.64,6.86a6,6,0,0,0,5.13.06c2.81-1.47,2.36-2.46,3-4.51a7,7,0,0,0,5.2,1.2,4.58,4.58,0,0,0,4.17-4.33c.18-2.18,0-4-2.29-5.83a4.87,4.87,0,0,0-2.86-.85C19.3,37.94,13.78,40.84,7.63,40.49Z"/><path class="cls-6" d="M57.69,35.43c-2.66-1.14-4-2.86-4.46-4.83-.77-.94-5.11-5.9-7.36-1.21-1.33,2.78,2.77,4.41,2.77,4.41-2.48-1.18-5.54.38-5.66,2.85a2.88,2.88,0,0,0,1.56,3,3.8,3.8,0,0,0,3.2,0s-3.88,1.67-1.86,4.19c2.17,2.69,6.4-.44,6.4-.44a3.73,3.73,0,0,0,1.54,4,5.89,5.89,0,0,0,4.61.41,4.4,4.4,0,0,0,3.69-4.22,3.27,3.27,0,0,0-1.89-3.35,3.68,3.68,0,0,0,4.44-.82,5.11,5.11,0,0,0,1-3.33A13.66,13.66,0,0,1,57.69,35.43Z"/><g class="cls-7"><path class="cls-5" d="M29.42,11.81a9.1,9.1,0,0,0,.92,1S30,12.39,29.42,11.81Z"/></g><g class="cls-7"><path class="cls-5" d="M43.17,19.57l-.58.06Z"/></g><g class="cls-7"><path class="cls-5" d="M41.59,11.16l-.08.18Z"/></g><g class="cls-7"><path class="cls-5" d="M26.69,29.18l-.08,0h0Z"/></g><path class="cls-8" d="M26.63,29.23a9,9,0,0,1-1.2.8c-2.15,1.61-5.89,5.26-1.73,8.91,1.83,1.61,4.92.67,6.75-1.16,1.5-1.49,1.77-4.6,1.77-4.6s-1,10.35,10.5,7.29c2.91-.78,4.67-3.87,3.75-8.22-.6-2.86-3.79-3.78-3.79-3.78s9.62,2.72,8.6-4.91a4.36,4.36,0,0,0-.15-.65C43,27,34.2,32.7,26.63,29.23Z"/><g class="cls-7"><path class="cls-5" d="M26.61,29.22c-.17.1-.62.38-1.19.81a9,9,0,0,0,1.2-.8Z"/></g><path class="cls-9" d="M34.17,16.06S28.34,31.39,28.84,55.9c0,0,2.67,1.16,7,0C35.84,55.9,33.17,39.56,34.17,16.06Z"/><path class="cls-9" d="M55.47,37.56S46.59,45.49,45,54.47c0,0,1.5,2.26,5.87,1.43C50.84,55.9,49.59,49.93,55.47,37.56Z"/><path class="cls-9" d="M13.47,37.56s5.88,6.75,2.87,17.76c0,0,3.87.93,6-.85C22.34,54.47,20.72,41.3,13.47,37.56Z"/></g></g></g></svg>