<svg xmlns="http://www.w3.org/2000/svg" viewBox="0 0 72.17 67.62"><defs><style>.cls-1{isolation:isolate;}.cls-2{fill:#b9d117;}.cls-3{fill:#a1bf1a;}.cls-4{opacity:0.85;}.cls-10,.cls-4{mix-blend-mode:multiply;}.cls-5{fill:#9fac16;}.cls-6{fill:#95968b;}.cls-10,.cls-7{fill:#c3c3bd;}.cls-8{fill:#7c7e70;}.cls-10,.cls-8{opacity:0.55;}.cls-9{fill:#f6f6f5;opacity:0.35;mix-blend-mode:screen;}</style></defs><title>Ресурс 13</title><g class="cls-1"><g id="Слой_2" data-name="Слой 2"><g id="Layer_1" data-name="Layer 1"><path class="cls-2" d="M32.84,50.17S49.14,26.7,72.17,39C72.17,39,61.28,65.27,32.84,50.17Z"/><path class="cls-2" d="M0,39.31s3.34,25.08,32.84,13.2C32.84,52.51,27,37.7,0,39.31Z"/><path class="cls-3" d="M32.84,50.17S51.6,51.41,72.17,39C72.17,39,61.28,65.27,32.84,50.17Z"/><path class="cls-3" d="M0,39.31s3.34,25.08,32.84,13.2C32.84,52.51,16.42,51.41,0,39.31Z"/><polygon class="cls-2" points="29.34 29.34 30.22 67.62 36.46 67.62 35.2 29.34 29.34 29.34"/><g class="cls-4"><path class="cls-5" d="M29.34,29.34l.17,7.32a7.11,7.11,0,0,0,6,1.25l-.29-8.57Z"/></g><path class="cls-6" d="M15.69,13.64l30.79-.73s4.84,21.56-15.4,21.56S15.69,13.64,15.69,13.64Z"/><path class="cls-7" d="M15.69,13.64l30.79-.73s-4.17,6.84-15.4,8C25.82,21.51,15.69,13.64,15.69,13.64Z"/><path class="cls-8" d="M44.71,15a19.08,19.08,0,0,1-3.82,2.89c.34,9.36-2,11.94-6.13,16.32a17.16,17.16,0,0,0,3.47-.9C39.19,32.94,46.71,25.18,44.71,15Z"/><path class="cls-9" d="M20.17,16.72c-.74-.47-2.29-1.51-2.64-1.74-2.63,8.47,3.54,16.89,3.54,16.89A13.64,13.64,0,0,0,24,33.35C17.43,26.06,20.17,16.72,20.17,16.72Z"/><path class="cls-10" d="M30.63,16.13c-.1.49-3.33.87-4.85.55,0,0-.84-.73-.74-1.22s1.41-.63,2.92-.32S30.73,15.64,30.63,16.13Z"/><path class="cls-10" d="M41.09,16.13c-.1.49-3.33.87-4.84.55,0,0-.84-.73-.74-1.22s1.41-.63,2.92-.32S41.19,15.64,41.09,16.13Z"/><path class="cls-6" d="M23,0h5l.5,14.77a1.88,1.88,0,0,1-1.88,1.95h-.52A1.88,1.88,0,0,1,24.25,15Z"/><path class="cls-7" d="M23,0h5l0,0a2.88,2.88,0,0,1-4.8.21Z"/><path class="cls-6" d="M33.67,0h5l0,14.83a1.88,1.88,0,0,1-1.88,1.89h0A1.89,1.89,0,0,1,34.89,15Z"/><path class="cls-7" d="M33.67,0h5l0,0a2.88,2.88,0,0,1-4.8.21Z"/></g></g></g></svg>