<svg xmlns="http://www.w3.org/2000/svg" viewBox="0 0 85.64 61.98"><defs><style>.cls-1{isolation:isolate;}.cls-2{fill:#d1d7dd;}.cls-3{fill:#64b0bd;}.cls-4{fill:#86c2cc;}.cls-5{fill:#e7eaed;}.cls-14,.cls-6{fill:#e0e4e8;}.cls-6{opacity:0.75;mix-blend-mode:screen;}.cls-7{fill:#b3bdc7;}.cls-8{fill:#bec6cf;opacity:0.45;mix-blend-mode:multiply;}.cls-9{fill:#95a2b1;}.cls-10{fill:#bac2cc;}.cls-11{fill:#d1d8de;}.cls-12{fill:#e9ecef;}.cls-13{fill:#c8cfd6;}</style></defs><title>Ресурс 14</title><g class="cls-1"><g id="Слой_2" data-name="Слой 2"><g id="Layer_1" data-name="Layer 1"><polygon class="cls-2" points="51.57 0 42.82 5.24 51.57 5.01 70.16 14.58 70.16 10.29 54.98 2.71 51.57 0"/><path class="cls-3" d="M68.32,12c-.69-1.28-3.62-4.22-5.17-4.63-3.85-1-5.79-1.68-8.7-4.54L51.57,0H14.24s2.08,16.33,19.53,15.09h8.34c5.19,0,10.37-.18,15.56-.18,3.51,0,7,.46,10.48.46a12.71,12.71,0,0,0,1.83-.1C69.44,14.16,68.87,13.07,68.32,12Z"/><path class="cls-4" d="M63.77,23.45s45.45,23.12,5.32,34.76S-15,52.47,5,34.24,54.65,20.58,63.77,23.45Z"/><path class="cls-3" d="M12.2,45.21c6.65-.23,7.33,6.12,11.08,8.93,3.9,2.93,14.7,3.59,6-4.33-.37-.33-1.16-1.5-.33-2.08,3.9-2.73,8.4,2.22,11.68,5a15.06,15.06,0,0,0,11.82,3c1.43-.32,4-1.3,2.5-2.63-3.43-3-8.5-5.08-6.42-6.92,2.53-2.23,8,0,10.67,2,5.36,4,17.94,5.4,14.58,1.25C64.58,38,84.29,51,85.33,43c-2.63-10-21.56-19.59-21.56-19.59C54.65,20.58,25,16,5,34.24-.29,39-1.11,43.8,1.27,48c4.18-2.41,8.31,4.32,10.93,4.71C19.2,53.73,6.89,45.4,12.2,45.21Z"/><path class="cls-5" d="M5,34.24l14.33,7.48L29.38,12.46S18.32,7.38,15.07,2.08Z"/><path class="cls-6" d="M24.86,10.09c-3.45-2-7.92-5-9.79-8L6.17,30.48l.13,0A22.34,22.34,0,0,0,23.47,15.21C24,13.56,24.44,11.85,24.86,10.09Z"/><path class="cls-7" d="M26.58,41.64l3.61-13.19L33,29,31.79,39.64l1.9,2h6.38l1.29-12.7,4.27.08-.83,10.71,1.73,1.92h6.32l0-12.38H57l.42,10,1.85,2.33h5.38l-.35-12.06H68l1.42,9.81,2.37,2.25H77.4c-.77-2.7-4.65-16.39-8.07-28.7l-39.95-.49S21.44,36.81,18.86,41.4l.36.24Z"/><path class="cls-2" d="M26.58,41.64l3.61-13.19h5.1L33.68,41.64h6.38l1.29-12.7h6l-.79,12.7h6.32l0-12.38h6l.49,12.38h5.38l-.35-12.06h5.1l2.39,12.06H77.4c-.77-2.7-4.65-16.39-8.07-28.7l-39.95-.49S21.44,36.81,18.86,41.4l.36.24Z"/><polygon class="cls-8" points="29.38 13 14.24 2.08 13.24 7.03 27.41 17.45 71.91 22.17 69.23 12.46 29.38 13"/><polygon class="cls-9" points="19.71 2.58 19.76 6.8 22.94 6.79 22.92 5.08 26.04 5.16 25.76 6.47 26.67 6.77 31.71 6.86 31.69 5.11 35.28 5.24 34.98 6.49 35.96 6.94 41.18 7.05 41.09 5.18 44.74 5.22 44.54 6.66 45.54 7.12 49.72 7.14 49.7 5.43 53.26 5.44 52.99 6.81 53.95 7.28 57.38 7.34 57.39 5.46 59.6 5.48 59.39 7.14 60.25 7.4 63.15 7.4 63.1 2.98 19.71 2.58"/><polygon class="cls-10" points="19.71 2.58 19.76 6.8 22.94 6.79 22.92 5.08 26.7 5.17 26.67 6.77 31.71 6.86 31.69 5.11 35.94 5.25 35.96 6.94 41.18 7.05 41.09 5.18 45.4 5.22 45.54 7.12 49.72 7.14 49.7 5.43 53.93 5.45 53.95 7.28 57.38 7.34 57.39 5.46 60.26 5.48 60.25 7.4 63.15 7.4 63.1 2.98 19.71 2.58"/><polygon class="cls-11" points="16.66 4.71 18.16 1.69 19.71 2.58 19.76 6.8 16.66 4.71"/><polygon class="cls-12" points="18.16 1.69 19.71 2.58 63.1 2.98 58.88 1.86 18.16 1.69"/><polygon class="cls-13" points="70.16 14.58 27.41 15.37 13.24 4.95 14.24 0 17.19 3.15 29.38 10.92 70.16 10.29 70.16 14.58"/><polygon class="cls-14" points="27.41 15.37 13.24 4.95 14.24 0 17.19 3.15 29.38 10.92 27.41 15.37"/></g></g></g></svg>