<svg xmlns="http://www.w3.org/2000/svg" viewBox="0 0 65.38 79.71"><defs><style>.cls-1{isolation:isolate;}.cls-2{fill:#411b00;}.cls-3{fill:#6d5e59;}.cls-4{fill:#4e3c36;}.cls-5{fill:#6f7062;}.cls-6{fill:#2d1811;}.cls-7{fill:#86baba;}.cls-8{fill:#c0dbdb;}.cls-9{fill:#daeaea;}.cls-10,.cls-17{opacity:0.55;}.cls-10,.cls-14,.cls-16,.cls-17{mix-blend-mode:multiply;}.cls-11{fill:#cad4d4;}.cls-12{fill:#272813;}.cls-13,.cls-14,.cls-17{fill:#8a8b7f;}.cls-14{opacity:0.35;}.cls-15,.cls-16,.cls-18{fill:#c7c8c2;}.cls-16{opacity:0.65;}.cls-18{opacity:0.45;mix-blend-mode:screen;}</style></defs><title>Ресурс 15</title><g class="cls-1"><g id="Слой_2" data-name="Слой 2"><g id="Layer_1" data-name="Layer 1"><path class="cls-2" d="M48.25,74.8l-.11,1.71s4.47,3.74,8.27-.33l-.24-1.43A25.44,25.44,0,0,0,48.25,74.8Z"/><path class="cls-3" d="M49.51,54.49l-1.05,22s4.17,3.8,7.61-.22L52.37,54A1.73,1.73,0,0,0,49.51,54.49Z"/><path class="cls-4" d="M48.9,67.34l-.44,9.1s4.17,3.8,7.61-.22L54.21,65.05Z"/><path class="cls-4" d="M48.9,67.34l-.44,9.1s4.17,3.8,7.61-.22L54.21,65.05Z"/><path class="cls-5" d="M48.25,74.8l-.11,1.71s4.47,3.74,8.27-.33l-.24-1.43C52.94,77.48,49.46,75.61,48.25,74.8Z"/><path class="cls-6" d="M52.35,53.94a1.8,1.8,0,0,1-2.79.47S50.22,52.39,52.35,53.94Z"/><path class="cls-7" d="M54.14,48.23a2.63,2.63,0,0,1-3-.07c-2-1.37-2.31-5.87-.26-6.33-1.62.72-4.33,1.39-4.5-2.5-.12-2.79,2.92-3.56,2.92-3.56-2.91,1-4.25-3.31-2.47-5.3a3.48,3.48,0,0,1,1.81-.94c-1.56,0-2.52-1-2.62-2.95-.13-2.57.91-3.68,2.4-4,2.16-.44,3.38,2.49,3.38,2.49.2-2.8,2.57-3.46,3.84-2.63.69.45,1.81,1.41,1.46,3.89,0,0,.32-2.31,1.68-2.91a2,2,0,0,1,2.48.88c1.28,2.58-2,3.72-2,3.72a2.33,2.33,0,0,1,3.3,1.33c1,2.34-1.08,4.5-1.08,4.5a2.22,2.22,0,0,1,1.3-.79,2.07,2.07,0,0,1,2.31,1.61,4.18,4.18,0,0,1-.41,4c-1.11,1.42-3.59-.31-3.59-.31a3.31,3.31,0,0,1,1.22,1.47,3.36,3.36,0,0,1,.07,2.65A2.23,2.23,0,0,1,60,44.1a2.13,2.13,0,0,1-1.43-1.16c.15.33,1,2,.06,3.12a1.5,1.5,0,0,1-1.22.58c-.77-.1-1.64-1.48-1.67-2.52C55.82,46.06,55.21,47.54,54.14,48.23Z"/><path class="cls-8" d="M58.9,36.28A3.37,3.37,0,0,0,56.12,34a2.12,2.12,0,0,0-1.27.26c0,.07,1.1-1.6-.18-2.52-1.51-1.08-3.09.89-3.09.89.69-.9,3.68-4.08,1.79-6.77a3.28,3.28,0,0,0-6.08,2.26c-.87-3.26-2.5-6.8-6.68-6.32C38.79,22,35,23.19,37,28.16c-.92,0-2.72.2-3,.13-2.06-.65-3.67,1.17-4,3-.79,4.13,2.63,6,5.81,7.13a3.28,3.28,0,0,0-2.7,5.9c2.55,2.08,5.93-.67,6.88-1.29,0,0-2.08,1.43-1.11,3,.82,1.34,2.57.32,2.5.37a2.12,2.12,0,0,0-.35,1.25,3.38,3.38,0,0,0,2.09,2.94c1.78.62,3.69.42,4.32-1.07,0-.06.06-.16.1-.27a29.86,29.86,0,0,1,2.7,4.71s.71.56,1-.41a48.75,48.75,0,0,1-.89-6,2.59,2.59,0,0,0,1.24-1.34A5.09,5.09,0,0,0,52,44.6a5.1,5.1,0,0,0,1.89-.18,3,3,0,0,0,1.73-3.93,2.78,2.78,0,0,0,1.92,0C59,40,59.38,38.11,58.9,36.28Z"/><path class="cls-8" d="M50.5,53.52S49.66,46,47.71,43.4s9.19-4.74,7.71,1.18c0,0-3-.42-4.1,9.18C51.33,53.76,51.11,54.34,50.5,53.52Z"/><path class="cls-9" d="M51.33,53.76s-.79-7,1.28-9.54-7-5.61-5.77.38c0,0,2.82-.3,3.47,9.33C50.3,53.93,51,54.47,51.33,53.76Z"/><path class="cls-9" d="M49.47,49c2.36-.65,3.76-1.91,4.24-4,.28-1.2.06-2.74-1.41-3,0,0,4.51,1.11,6.73-1.64a6.08,6.08,0,0,0,1.59-4,5.17,5.17,0,0,0-5.93-5c4.51-.73,4.74-3.3,4.06-5.14-.38-1-2-2.23-5.5-1.12,0,0,2.3-.65,2.58-2.54a2.64,2.64,0,0,0-2.33-3.25c-2.91-.37-4.42,1.38-4.19,3.26a3,3,0,0,0-3.57-1.68,3.07,3.07,0,0,0-2.46,2.23C43.14,25.56,46,25.49,46,25.49c-5.53-.92-12.93,6.81-.88,6.79,0,0-5.62.6-5.68,4.73-.05,3.69,6,2.25,6,2.25s-5,.89-3.53,4.9c.48,1.29,2.65,1,4.18-.41C46,43.74,43.72,50.55,49.47,49Z"/><path class="cls-2" d="M15.47,74.83l0,1.71s-4.63,3.55-8.25-.68l.3-1.42A25.47,25.47,0,0,1,15.47,74.83Z"/><path class="cls-3" d="M15.08,54.48l.11,22s-4.33,3.61-7.59-.54l4.66-22A1.73,1.73,0,0,1,15.08,54.48Z"/><path class="cls-4" d="M15.14,67.35l0,9.11s-4.33,3.61-7.59-.54L9.94,64.84Z"/><path class="cls-4" d="M15.14,67.35l0,9.11s-4.33,3.61-7.59-.54L9.94,64.84Z"/><path class="cls-5" d="M15.47,74.83l0,1.71s-4.63,3.55-8.25-.68l.3-1.42C10.67,77.3,14.23,75.59,15.47,74.83Z"/><path class="cls-6" d="M12.26,53.82A1.8,1.8,0,0,0,15,54.4S14.47,52.36,12.26,53.82Z"/><path class="cls-7" d="M10.73,48a2.64,2.64,0,0,0,3,.06c2.07-1.28,2.56-5.76.53-6.31,1.59.79,4.27,1.57,4.6-2.31.24-2.78-2.76-3.68-2.76-3.68,2.87,1.07,4.38-3.12,2.7-5.19a3.49,3.49,0,0,0-1.77-1c1.56.12,2.56-.91,2.74-2.83C20,24.19,19,23,17.54,22.67,15.39,22.13,14.06,25,14.06,25c-.08-2.8-2.42-3.56-3.73-2.79-.71.42-1.87,1.33-1.62,3.82,0,0-.23-2.32-1.55-3a2,2,0,0,0-2.51.77c-1.39,2.52,1.85,3.8,1.85,3.8a2.33,2.33,0,0,0-3.35,1.19C2,31.11,4,33.36,4,33.36a2.22,2.22,0,0,0-1.26-.85A2.07,2.07,0,0,0,.39,34a4.18,4.18,0,0,0,.24,4c1,1.46,3.6-.15,3.6-.15a3.31,3.31,0,0,0-1.28,1.42,3.36,3.36,0,0,0-.18,2.65A2.23,2.23,0,0,0,5,43.65a2.13,2.13,0,0,0,1.48-1.1c-.17.33-1.05,2-.2,3.12a1.49,1.49,0,0,0,1.19.63c.78-.07,1.7-1.41,1.77-2.45C9.14,45.8,9.68,47.29,10.73,48Z"/><path class="cls-8" d="M6.49,35.89a3.37,3.37,0,0,1,2.88-2.18,2.12,2.12,0,0,1,1.26.31c0,.07-1-1.65.29-2.51,1.56-1,3.05,1,3.05,1-.65-.93-3.51-4.23-1.5-6.84a3.28,3.28,0,0,1,6,2.52c1-3.21,2.79-6.68,6.95-6,1.81.29,5.52,1.64,3.29,6.53.92,0,2.71.32,3,.25,2.08-.56,3.61,1.32,3.88,3.13C36.12,36.27,32.62,38,29.4,39a3.28,3.28,0,0,1,2.45,6c-2.63,2-5.9-.92-6.82-1.59,0,0,2,1.52,1,3.06-.87,1.31-2.58.21-2.51.26a2.12,2.12,0,0,1,.3,1.26,3.38,3.38,0,0,1-2.22,2.85c-1.81.54-3.7.26-4.27-1.26,0-.06-.06-.16-.08-.27a29.9,29.9,0,0,0-2.9,4.59s-.73.53-1-.45a48.68,48.68,0,0,0,1.15-6,2.59,2.59,0,0,1-1.18-1.39A5.09,5.09,0,0,1,13,44.5a5.13,5.13,0,0,1-1.88-.26,3,3,0,0,1-1.56-4,2.77,2.77,0,0,1-1.92-.06C6.18,39.6,5.92,37.69,6.49,35.89Z"/><path class="cls-8" d="M14.13,53.48s1.17-7.44,3.22-10-9-5.13-7.76.85c0,0,3-.29,3.7,9.35C13.3,53.68,13.49,54.27,14.13,53.48Z"/><path class="cls-9" d="M13.3,53.68s1.09-7-.86-9.59,7.19-5.31,5.74.62c0,0-2.8-.42-3.87,9.18C14.32,53.89,13.59,54.4,13.3,53.68Z"/><path class="cls-9" d="M15.37,49c-2.33-.75-3.68-2.07-4.07-4.14-.23-1.2.06-2.74,1.54-2.89,0,0-4.55.91-6.66-1.93a6.08,6.08,0,0,1-1.42-4.1,5.17,5.17,0,0,1,6.14-4.74c-4.48-.92-4.6-3.5-3.84-5.31.42-1,2.11-2.14,5.54-.88,0,0-2.27-.74-2.47-2.65a2.63,2.63,0,0,1,2.46-3.15c2.92-.24,4.36,1.57,4,3.43a3,3,0,0,1,3.64-1.53,3.07,3.07,0,0,1,2.36,2.34c.05,2.43-2.76,2.23-2.76,2.23,5.56-.68,12.63,7.36.59,6.82,0,0,5.59.84,5.47,5-.11,3.68-6.05,2-6.05,2s5,1.11,3.31,5c-.54,1.27-2.69.9-4.16-.59C19.05,43.9,21,50.8,15.37,49Z"/><g class="cls-10"><path class="cls-11" d="M54.55,26c-.61-2.93-3.79-3.95-5.81-4.3A44,44,0,0,1,42.5,23a37.34,37.34,0,0,0-4.73,5.86c-1.84,2.87-3.72,5.83-3.67,9.37,0,1.48.06,3,.06,4.42a35.67,35.67,0,0,0,8.73,8c.24.11.47.24.7.38a3.82,3.82,0,0,0,0-1.2A2.27,2.27,0,0,0,43,48.58c-.09,0,2,.65,2.54-.94.66-1.88-1.84-2.92-1.84-2.92,1.14.44,5.3,2.58,7.51-.18a3.59,3.59,0,0,0,.3-4.59,3.49,3.49,0,0,0-1.37-1.06,6.77,6.77,0,0,0,.35-2.64,5.4,5.4,0,0,0,1.44-4.9C53.87,30.75,55.23,29.27,54.55,26Z"/></g><g class="cls-10"><path class="cls-11" d="M17.61,42.64c-.61.4-1.94,1.47-1.29,2.9s2.69.68,2.61.71a2.27,2.27,0,0,0-.54,1.28,3.63,3.63,0,0,0,1.78,3.37c.4.35,1.94-.43,2.24-.49a6.53,6.53,0,0,1,1.77-.17,4,4,0,0,1,.84,0c0-.06.07-.13.11-.22l.15.27.23,0a5,5,0,0,1,2.4-3.6l.21-.11a20.9,20.9,0,0,1,.09-2.35A58.73,58.73,0,0,1,26.82,37a5.63,5.63,0,0,1-1.1-2c-.21-.67-.41-1.34-.65-2-.11-.29-.17-.45-.18-.49-.1-.21-.2-.43-.31-.64-.21-.38-.45-.74-.68-1.1a5.06,5.06,0,0,1-2.44-2.18c-1.54-2.58-3.75-4.52-4.93-7.26a3.27,3.27,0,0,0-3.59-2,9.87,9.87,0,0,0,3,2.6,5.34,5.34,0,0,0-2.67-.58c-2.19.15-3.68,1.23-4.1,3.31a6.16,6.16,0,0,0,.13,3,4.71,4.71,0,0,0-.51,1.08c-1.34,4.19,1.85,6.63,5,8.23l0,0a3.52,3.52,0,0,0-3.44,6c2.26,2.36,5.82.4,7.2-.33Z"/></g><path class="cls-12" d="M21,75.26l-.43,1.39s7.94,6,20.41.49l-.49-1.66S36.63,75,21,75.26Z"/><path class="cls-13" d="M21.48,76.47s.88-13.8,10-13.13,8.64,13.51,8.64,13.51A21.83,21.83,0,0,1,21.48,76.47Z"/><path class="cls-14" d="M36.25,65.3c-1.22,6-8.72,8.33-14.2,7.62a24.48,24.48,0,0,0-.57,3.55,21.83,21.83,0,0,0,18.65.38S40.43,69.06,36.25,65.3Z"/><path class="cls-15" d="M27.17,60.21l-.31,4.29s4.62,2.36,8.8.32l.16-4.33S31,58.44,27.17,60.21Z"/><path class="cls-16" d="M35.31,60.3c-.64,3.42-4.33,3.9-8.36,3.06l-.08,1.14s4.62,2.36,8.8.32l.16-4.33Z"/><path class="cls-13" d="M27.17,60.21s4.7,2.7,8.65.29C35.82,60.49,32.48,57.9,27.17,60.21Z"/><path class="cls-5" d="M21,75.26l-.43,1.39s7.94,6,20.41.49l-.49-1.66S32.81,81.13,21,75.26Z"/><path class="cls-17" d="M28.68,71l-1.22,8.11s4,1.15,7,0l-.38-7.39s-.21-.34-.41-.4A14.21,14.21,0,0,0,28.68,71Z"/><path class="cls-15" d="M28.27,70.85l-1.16,8.31s3.88,1.21,6.95,0l-.34-7.86A13.78,13.78,0,0,0,28.27,70.85Z"/><path class="cls-18" d="M32.73,71.08l-5,3.43-.27,1.89,6-5.13C33.33,71.23,33.08,71.16,32.73,71.08Z"/><path class="cls-18" d="M33.88,75.2l-6.62,2.89-.08.57c2.39-.46,6.77-1.94,6.77-1.94Z"/><ellipse class="cls-4" cx="32.43" cy="74.77" rx="0.59" ry="0.54" transform="translate(-3.27 1.51) rotate(-2.53)"/><path class="cls-7" d="M41.66,37.72A3.62,3.62,0,0,0,39,34.91a2.28,2.28,0,0,0-1.38.11c-.06.07,1.38-1.56.13-2.7-1.47-1.35-3.41.54-3.41.54.86-.87,4.45-3.86,2.79-7a3.52,3.52,0,0,0-6.76,1.62c-.5-3.58-1.78-7.56-6.29-7.59-2,0-6.12.76-4.63,6.32-1-.15-2.92-.14-3.17-.25-2.11-1-4.06.77-4.65,2.64-1.38,4.3,2,6.75,5.26,8.34a3.52,3.52,0,0,0-3.64,5.92c2.44,2.55,6.4.06,7.49-.48,0,0-2.4,1.25-1.57,3.07.69,1.54,2.69.68,2.61.71a2.28,2.28,0,0,0-.54,1.28,3.62,3.62,0,0,0,1.84,3.41c1.82.89,3.87.93,4.74-.58,0-.07.1-.17.15-.3a34.82,34.82,0,0,1,2.62,5.92s.31.16.77-.83a52.29,52.29,0,0,1-.16-6.55,2.78,2.78,0,0,0,1.49-1.26,5.46,5.46,0,0,0,.52-1.6,5.48,5.48,0,0,0,2,.05,3.25,3.25,0,0,0,2.35-4,3,3,0,0,0,2,.28C41.34,41.69,41.94,39.72,41.66,37.72Z"/><path class="cls-7" d="M20.35,41.06a3.62,3.62,0,0,1,2.41-3,2.27,2.27,0,0,1,1.39,0c.07.06-1.51-1.44-.37-2.68,1.35-1.47,3.44.24,3.44.24-.93-.79-4.77-3.46-3.39-6.7a3.52,3.52,0,0,1,6.88,1c.18-3.61,1.11-7.69,5.6-8.11,2-.19,6.17.23,5.16,5.9,1-.24,2.9-.39,3.13-.53,2-1.14,4.11.41,4.87,2.22,1.75,4.16-1.41,6.91-4.51,8.77a3.52,3.52,0,0,1,4.15,5.58c-2.21,2.75-6.37.62-7.51.18,0,0,2.5,1,1.84,2.92-.56,1.59-2.62.91-2.54.94A2.27,2.27,0,0,1,41.56,49,3.62,3.62,0,0,1,40,52.54c-1.73,1-3.78,1.26-4.77-.16,0-.07-.11-.16-.18-.29A30.6,30.6,0,0,0,32.88,58s-.2.41-.74-.53a52.25,52.25,0,0,0-.41-6.54,2.78,2.78,0,0,1-1.59-1.13,5.46,5.46,0,0,1-.66-1.54,5.51,5.51,0,0,1-2,.23,3.25,3.25,0,0,1-2.69-3.74,3,3,0,0,1-2,.45C21,45,20.25,43.08,20.35,41.06Z"/><path class="cls-9" d="M33,59.88c0-.43,0-.86,0-1.28.06-1.4.19-2.81.39-4.2a32.87,32.87,0,0,1,1.18-5.29A18.82,18.82,0,0,1,37,44l.26-.36c4.52-6.06-12.75-6.75-10.17-1,0,0,4.41,9.11,3.39,17.06A1.15,1.15,0,0,0,31.43,61C32.85,61.12,33,60,33,59.88Z"/><path class="cls-9" d="M36.2,33.17c-4.82-1.47-9.83-2.36-14.27-5-.41-.19-3.18,1.41-3.53,1.43-2.35.17-3.25,2.67-2.87,4.65.86,4.54,5.09,5.09,8.76,4.93a3.63,3.63,0,0,0-3.21,3.36,3.68,3.68,0,0,0,2.84,3.75c3.42,1.1,5.75-3.08,6.46-4.1,0,0-1.53,2.3.09,3.53,1.37,1,2.74-.71,2.68-.63a2.35,2.35,0,0,0,.15,1.41,3.69,3.69,0,0,0,3.31,2.16c2.06-.09,3.91-1.06,4-2.84a3.07,3.07,0,0,0-.65-2,3.32,3.32,0,0,0,3.53-3.1,6.05,6.05,0,0,0-1.37-3.65C39.63,37,38.68,33.93,36.2,33.17Z"/><path class="cls-8" d="M40.2,41.72a6.94,6.94,0,0,0,6.13-1.16c3.58-2.82,2.34-9.9-2.08-9.9,3.64.55,9.52.63,8.25-5.46-.91-4.36-7.5-4.49-7.5-4.49,6.4.45,7.39-6.62,2.91-9.07a9.17,9.17,0,0,0-4.12-.82C47,10.34,48.55,8.34,48,5.33c-.8-4-3.4-5.38-6.6-5.33-4.65.08-5.94,5-5.94,5C33.85.78,28.68.6,26.4,2.33c-1.24.94-3.16,2.82-1.39,6.53,0,0-1.63-3.46-4.67-3.93-1.8-.35-4.22.74-4.75,2.24-1.57,4.45,5.7,5.06,5.7,5.06s-5-1-6.26,3.22c-1.19,4,4.09,6.58,4.09,6.58a5.47,5.47,0,0,0-3-.77c-2.19.15-3.68,1.23-4.1,3.31a5.58,5.58,0,0,0,2.5,6c2.88,1.81,7.28-1.74,7.28-1.74a5.32,5.32,0,0,0-1.91,2.71,4.23,4.23,0,0,0,1,4.13,5.28,5.28,0,0,0,5.52,1.71,3.75,3.75,0,0,0,2.46-2.3c-.18.57-1.15,3.49,1.16,4.86a3.89,3.89,0,0,0,2.75.46c1.56-.42,2.77-2.86,2.4-4.49A7.31,7.31,0,0,0,40.2,41.72Z"/><path class="cls-9" d="M31,33.56c2.2-.33,3.61-1.31,4.27-3.11.38-1,.36-2.46-1-2.82,0,0,3.95,1.5,6.26-.74a5.54,5.54,0,0,0,1.88-3.47,4.71,4.71,0,0,0-4.81-5.17c4.16-.16,4.65-2.46,4.24-4.19-.23-1-1.58-2.23-4.84-1.62,0,0,2.14-.33,2.61-2A2.4,2.4,0,0,0,38,7.22c-2.59-.66-4.15.76-4.14,2.48a2.7,2.7,0,0,0-3-1.91,2.79,2.79,0,0,0-2.47,1.75C27.92,11.71,30.47,12,30.47,12c-4.89-1.44-12.43,4.72-1.54,6,0,0-5.14-.08-5.65,3.64-.45,3.32,5.14,2.69,5.14,2.69s-4.64.25-3.73,4c.29,1.22,2.28,1.21,3.82.09C28.5,28.45,25.69,34.35,31,33.56Z"/></g></g></g></svg>