<svg xmlns="http://www.w3.org/2000/svg" xmlns:xlink="http://www.w3.org/1999/xlink" viewBox="0 0 70.3 82.6"><defs><style>.cls-1{fill:none;}.cls-2{isolation:isolate;}.cls-3,.cls-4{fill:#4e3c36;}.cls-4{opacity:0.75;}.cls-4,.cls-6{mix-blend-mode:multiply;}.cls-5,.cls-6{fill:#818275;}.cls-6{opacity:0.65;}.cls-7{fill:#42a4a4;}.cls-8{fill:#93c8d1;}.cls-9{clip-path:url(#clip-path);}.cls-10,.cls-12{fill:#64b0bd;}.cls-11{fill:#ffe4a9;}.cls-12{opacity:0.55;mix-blend-mode:screen;}.cls-13{fill:#e7a216;}</style><clipPath id="clip-path"><polygon class="cls-1" points="19.18 38.01 14.18 58.67 55.01 62.01 63.34 26.84 19.18 38.01"/></clipPath></defs><title>Ресурс 16</title><g class="cls-2"><g id="Слой_2" data-name="Слой 2"><g id="Layer_1" data-name="Layer 1"><polygon class="cls-3" points="40.15 60.98 38.03 59.1 35.58 80.81 29.53 82.6 29.7 82.6 35.86 82.6 37.62 81.39 40.15 60.98"/><path class="cls-4" d="M38,59.1,36.86,69.44a3.4,3.4,0,0,1,2.43-1.52l.86-7Z"/><polygon class="cls-5" points="29.53 82.6 31.86 59.1 38.03 59.1 35.86 82.6 29.53 82.6"/><path class="cls-6" d="M31.86,59.1,30.81,69.74c2.1-.63,6.24,0,6.24,0L38,59.1Z"/><polygon class="cls-7" points="19.18 38.01 14.18 58.67 55.01 62.01 63.34 26.84 19.18 38.01"/><polygon class="cls-8" points="67.03 27.95 63.34 26.84 55.01 62.01 14.18 58.67 16.89 60.62 57.01 65.34 67.03 27.95"/><g class="cls-9"><polygon class="cls-10" points="19.18 38.01 14.18 58.67 55.01 62.01 63.34 26.84 19.18 38.01"/><path class="cls-11" d="M67.74,44.92l-.06-1L53,44.76,54.88,37,70.3,34.33l-.17-1-15,2.56,2.19-9-1-.24-2.29,9.41-7,1.2,2.18-9.47-1-.22L46,37.48l-6.63,1.13,2.42-9.9-1-.24L38.25,38.79,31.35,40,33.7,27.33l-1-.18-2.41,13-6,1,2.5-13.53-1-.18L23.28,41.35l-8,1.37.17,1,7.66-1.31-.76,4.1L14.15,47l.06,1,7.93-.45-1,5.29-7-.34,0,1,6.82.33L19.26,63l1,.18L22,53.84l5.74.28-1.59,8.6,1,.18,1.62-8.73,5.69.27-1.69,6.9,1,.24,1.74-7.09,6.52.32-1.85,8,1,.22L43,54.86l6.45.31L47,65.22l1,.24,2.49-10.24,12.87.62,0-1-12.68-.61,2.06-8.45ZM53.81,37.15l-1.87,7.67-6.75.38,1.58-6.85Zm-8.1,1.38-1.55,6.73-6.55.37,1.46-6ZM38,39.85l-1.43,5.84-6.33.36.93-5ZM24.13,42.22l6-1-.91,4.91-5.85.33Zm-2,10.63,1-5.4L29,47.12l-1.11,6Zm6.75.33L30,47.06l6.27-.36-1.65,6.75Zm6.77.33,1.68-6.85,6.57-.37-1.74,7.54Zm14,.68-6.46-.31L45,46.22l6.73-.38Z"/><path class="cls-12" d="M33.11,34.48c-5,2.75-10,5.44-15.07,8.21L16.8,47.81,50.12,30.18Z"/><polygon class="cls-12" points="60.33 39.55 15.58 52.87 14.8 56.08 58.46 47.42 60.33 39.55"/></g><ellipse class="cls-13" cx="15.11" cy="15.1" rx="9.89" ry="9.33"/><polygon class="cls-13" points="26.13 13.31 26.13 15.1 26.13 16.9 30.23 15.1 26.13 13.31"/><polygon class="cls-13" points="4.1 13.31 4.1 15.1 4.1 16.9 0 15.1 4.1 13.31"/><polygon class="cls-13" points="24.65 9.31 25.32 10.98 26 12.65 29.13 9.44 24.65 9.31"/><polygon class="cls-13" points="4.23 17.56 4.9 19.23 5.58 20.9 1.1 20.77 4.23 17.56"/><polygon class="cls-13" points="21.79 6.16 23.04 7.45 24.28 8.75 25.98 4.61 21.79 6.16"/><polygon class="cls-13" points="5.94 21.46 7.19 22.75 8.44 24.05 4.24 25.6 5.94 21.46"/><polygon class="cls-13" points="17.95 4.31 19.59 5.04 21.23 5.78 21.26 1.3 17.95 4.31"/><polygon class="cls-13" points="8.99 24.43 10.63 25.16 12.28 25.89 8.97 28.91 8.99 24.43"/><polygon class="cls-13" points="13.7 4.04 15.5 4.1 17.3 4.16 15.64 0 13.7 4.04"/><polygon class="cls-13" points="12.93 26.05 14.73 26.11 16.53 26.17 14.59 30.21 12.93 26.05"/><polygon class="cls-13" points="9.66 5.37 11.35 4.76 13.04 4.14 9.94 0.9 9.66 5.37"/><polygon class="cls-13" points="17.19 26.07 18.88 25.45 20.57 24.84 20.28 29.31 17.19 26.07"/><polygon class="cls-13" points="6.41 8.12 7.75 6.92 9.08 5.72 5 3.87 6.41 8.12"/><polygon class="cls-13" points="21.14 24.49 22.48 23.29 23.82 22.08 25.23 26.34 21.14 24.49"/><polygon class="cls-13" points="4.43 11.89 5.22 10.28 6 8.66 1.53 8.48 4.43 11.89"/><polygon class="cls-13" points="24.22 21.55 25.01 19.93 25.8 18.32 28.7 21.73 24.22 21.55"/></g></g></g></svg>