<svg xmlns="http://www.w3.org/2000/svg" viewBox="0 0 88.05 66.77"><defs><style>.cls-1{isolation:isolate;}.cls-2{fill:#818275;}.cls-3{fill:#5f6050;}.cls-4{fill:#e7a216;}.cls-5{fill:#c4a290;opacity:0.45;mix-blend-mode:multiply;}.cls-6{fill:#e59300;}.cls-7{fill:#4e3c36;}.cls-8{fill:#ffcd5e;}.cls-9{fill:#b9d117;}.cls-10{fill:#a1bf1a;}.cls-11{fill:#d67a00;}.cls-12{fill:#d0df8b;}</style></defs><title>Ресурс 17</title><g class="cls-1"><g id="Слой_2" data-name="Слой 2"><g id="Layer_1" data-name="Layer 1"><polygon class="cls-2" points="32.06 10.02 24.72 0 7.92 3.1 8.85 5.94 21.67 3.85 26.57 12.25 32.06 10.02"/><path class="cls-3" d="M7.92,3.1s-1.47,2.08.93,2.84C8.85,5.94,10.93,4.12,7.92,3.1Z"/><polygon class="cls-4" points="49.99 7.01 45.16 18.56 48.66 19.24 53.33 10.86 73.41 13.11 75.92 8.9 49.99 7.01"/><polygon class="cls-5" points="46.65 15 45.16 18.56 48.66 19.24 51.02 15 46.65 15"/><path class="cls-4" d="M74.67,7,72,14l-17.5,5.19-8.17-2.63L26.49,22.9s-5.33,23.69,0,39.1c0,0,21.46,10.31,56.73.61A178.31,178.31,0,0,0,87.49,7,20,20,0,0,0,74.67,7Z"/><path class="cls-6" d="M66.29,45.33c-13,7.43-29.46,5.37-42.16-1.38-.08,6.11.47,12.59,2.36,18,0,0,21.46,10.32,56.73.61A177,177,0,0,0,87.9,13.83C84.83,26.85,78.79,38.51,66.29,45.33Z"/><polygon class="cls-4" points="27.66 14.93 32.49 23.61 40.66 20.36 35.33 11.74 27.66 14.93"/><polygon class="cls-5" points="35.33 11.74 27.66 14.93 29.91 18.96 38.61 17.05 35.33 11.74"/><polygon class="cls-7" points="20.83 11.74 24.12 18.56 39.99 12.09 36.99 5.94 20.83 11.74"/><path class="cls-8" d="M57,54.36c-8.62,0-15.62-5.84-15.62-13s7-13,15.62-13,15.62,5.84,15.62,13S65.65,54.36,57,54.36Z"/><path class="cls-9" d="M62,31.24s-16.17,4-9.5,19C52.49,50.22,72.49,45.9,62,31.24Z"/><path class="cls-10" d="M62,31.24a54.7,54.7,0,0,1-9.5,19S72.49,45.9,62,31.24Z"/><path class="cls-11" d="M32.26,56.57l-.19-.46a18,18,0,0,0,7.65-6.52c-3.87-8.76,1.69-17,2.62-18.34l-4.61-5,.37-.34L43,31.22l-.13.17c-.07.09-6.81,8.87-2.64,18.12l.05.12-.07.11A18.54,18.54,0,0,1,32.26,56.57Z"/><path class="cls-11" d="M37.65,59.2,37.17,59c.43-1.22,2.63-7.29,4.11-7.29.32,0,.67.29,1.25.78,2.52,2.13,9.2,7.79,28,.13.19,0,4-.93,7.27,4.82l-.43.25c-3.11-5.4-6.54-4.63-6.68-4.6-19,7.76-25.85,2-28.43-.23a3.34,3.34,0,0,0-.92-.66C40.53,52.24,38.84,55.78,37.65,59.2Z"/><path class="cls-11" d="M81.28,52.24c-.26,0-6.3-.16-7.1-3.19a7.13,7.13,0,0,1,.17-3.11c.52-2.74,1.3-6.89-2.17-14.6l0-.06v-.07c0-.19.55-4.6,8.24-4.85l0,.5c-6.82.22-7.66,3.8-7.75,4.34,3.5,7.82,2.7,12,2.17,14.84a6.83,6.83,0,0,0-.18,2.89c.7,2.66,6.57,2.81,6.63,2.81Z"/><path class="cls-11" d="M44.56,28.89c-1.21,0-2.38-1.34-3.09-2.67s-.42-1.51-.31-1.58l.26.43A.18.18,0,0,0,41.5,25a6.19,6.19,0,0,0,2.12,3.1,1.39,1.39,0,0,0,1.43.22c12.64-6.1,17.36-3.37,20.8-1.37a8.08,8.08,0,0,0,3.21,1.33c4.14.34,7.54-5.81,7.57-5.87l.44.24c-.14.27-3.56,6.53-8.05,6.13a8.42,8.42,0,0,1-3.41-1.4c-3.34-1.94-7.92-4.6-20.33,1.39A1.62,1.62,0,0,1,44.56,28.89Z"/><path class="cls-10" d="M7.42,9.17S-7,18.65,4.39,24.54a5.08,5.08,0,0,0,6-8C8.17,13.71,7.13,10.94,7.42,9.17Z"/><path class="cls-12" d="M5.48,16.29c1.13,2.82-1.69,3.41-2.75,2.94a2.36,2.36,0,0,1-.91-3.17,9.65,9.65,0,0,1,2.76-2.8A11.4,11.4,0,0,0,5.48,16.29Z"/></g></g></g></svg>