<svg xmlns="http://www.w3.org/2000/svg" viewBox="0 0 78.52 66.53"><defs><style>.cls-1{fill:#c2e0e5;}.cls-2{fill:#64b0bd;}.cls-3{fill:#e7a216;}</style></defs><title>Ресурс 3</title><g id="Слой_2" data-name="Слой 2"><g id="Layer_1" data-name="Layer 1"><path class="cls-1" d="M.1,20.45C.92,16.24,9,16.31,12.75,18.94c-2.34-1-6.12-4.62-3.09-7.07,2-1.58,5-.45,7.28,2.69a20.72,20.72,0,0,1-3.25-4.75C12.28,7.36,12,2.67,15.38.7,18.23-1,22.55.37,24.68,4.4c2,3.85,2,9.23,2,9.23,0-2.21.06-6.42,3.86-6.08,4,.35,3,6,3.05,8.87,0,0-.15-8.21,4.19-11.25a6.2,6.2,0,0,1,6.56-.74,6,6,0,0,1,3.06,7c-.75,3.31-3.82,6.19-3.82,6.19a27,27,0,0,1,5.16-2.48c3.5-.84,9.17-1.08,11.42,2.51s-1,8.7-7.5,8.92c-4.28.15-40.63.32-44.92.32C4.34,26.92-.76,24.86.1,20.45Z"/><path class="cls-2" d="M77.47,27.08c-.82-4.21-8.94-4.14-12.66-1.52,2.34-1,6.12-4.62,3.09-7.07-2-1.58-5-.45-7.28,2.69a20.73,20.73,0,0,0,3.25-4.75C65.28,14,65.56,9.3,62.18,7.32,59.34,5.67,55,7,52.89,11c-2,3.85-2,9.23-2,9.23,0-2.21-.06-6.42-3.86-6.08-4,.35-3,6-3.05,8.87,0,0,.15-8.21-4.19-11.25a6.2,6.2,0,0,0-6.56-.74,6,6,0,0,0-3.06,7C30.9,21.4,34,24.27,34,24.27a27,27,0,0,0-5.16-2.48c-3.5-.84-9.17-1.08-11.42,2.51s1,8.7,7.5,8.92c4.28.15,40.63.32,44.92.32C73.23,33.55,78.33,31.49,77.47,27.08Z"/><polygon class="cls-3" points="61.24 23.3 44.21 28.29 53.47 28.86 33.4 38.55 44.8 38.55 30.42 47.67 50.75 38.55 43.11 36.27 58.39 28.58 53.47 27.01 61.24 23.3"/><path class="cls-2" d="M19.49,36.06s-2.87,3-3.32,5.14c-.25,1.16.07,2.86,2.49,2.29a1.86,1.86,0,0,0,1.16-2.69A6.31,6.31,0,0,1,19.49,36.06Z"/><path class="cls-2" d="M24.43,46s1.73,3.77,1.46,5.94c-.15,1.17-1,2.68-3.1,1.35a1.86,1.86,0,0,1-.21-2.92A6.3,6.3,0,0,0,24.43,46Z"/><path class="cls-2" d="M40.24,45s-2.87,3-3.32,5.14c-.25,1.16.07,2.86,2.49,2.29a1.86,1.86,0,0,0,1.16-2.69A6.31,6.31,0,0,1,40.24,45Z"/><path class="cls-2" d="M45.18,54.94s1.73,3.77,1.46,5.94c-.15,1.17-1,2.68-3.1,1.35a1.86,1.86,0,0,1-.21-2.92A6.31,6.31,0,0,0,45.18,54.94Z"/><path class="cls-2" d="M30.35,57.85s1.73,3.77,1.46,5.94c-.15,1.17-1,2.68-3.1,1.35a1.86,1.86,0,0,1-.21-2.92A6.31,6.31,0,0,0,30.35,57.85Z"/><path class="cls-2" d="M53.51,38s-2.87,3-3.32,5.14c-.25,1.16.07,2.86,2.49,2.29a1.86,1.86,0,0,0,1.16-2.69A6.31,6.31,0,0,1,53.51,38Z"/><path class="cls-2" d="M58.45,47.94s1.73,3.77,1.46,5.94c-.15,1.17-1,2.68-3.1,1.35a1.86,1.86,0,0,1-.21-2.92A6.31,6.31,0,0,0,58.45,47.94Z"/><path class="cls-2" d="M67.39,35.78s-2.87,3-3.32,5.14c-.25,1.16.07,2.86,2.49,2.29a1.86,1.86,0,0,0,1.16-2.69A6.31,6.31,0,0,1,67.39,35.78Z"/><path class="cls-2" d="M77,38.67s1.73,3.77,1.46,5.94c-.15,1.17-1,2.68-3.1,1.35A1.86,1.86,0,0,1,75.17,43,6.31,6.31,0,0,0,77,38.67Z"/><path class="cls-2" d="M69.41,46.49s1.73,3.77,1.46,5.94c-.15,1.17-1,2.68-3.1,1.35a1.86,1.86,0,0,1-.21-2.92A6.31,6.31,0,0,0,69.41,46.49Z"/><path class="cls-2" d="M30.91,36.81s1.73,3.77,1.46,5.94c-.15,1.17-1,2.68-3.1,1.35A1.86,1.86,0,0,1,29,41.18,6.31,6.31,0,0,0,30.91,36.81Z"/><path class="cls-1" d="M11.63,46.62s-2.87,3-3.32,5.14c-.25,1.16.07,2.86,2.49,2.29A1.86,1.86,0,0,0,12,51.36,6.31,6.31,0,0,1,11.63,46.62Z"/><path class="cls-1" d="M18.16,59s-2.87,3-3.32,5.14c-.25,1.16.07,2.86,2.49,2.29a1.86,1.86,0,0,0,1.16-2.69A6.31,6.31,0,0,1,18.16,59Z"/><path class="cls-1" d="M6.17,34S7.9,37.82,7.63,40c-.15,1.17-1,2.68-3.1,1.35a1.86,1.86,0,0,1-.21-2.92A6.31,6.31,0,0,0,6.17,34Z"/></g></g></svg>