<svg xmlns="http://www.w3.org/2000/svg" viewBox="0 0 51.55 70.15"><defs><style>.cls-1{isolation:isolate;}.cls-2{fill:#838477;}.cls-3{fill:#cbe2e1;}.cls-11,.cls-4{fill:#e5f1f0;mix-blend-mode:screen;}.cls-4{opacity:0.35;}.cls-5,.cls-6{fill:#b9d117;}.cls-6{opacity:0.42;}.cls-6,.cls-8{mix-blend-mode:multiply;}.cls-7{fill:#89ac00;}.cls-8,.cls-9{fill:#95968b;}.cls-8{opacity:0.65;}.cls-10{fill:#727465;}</style></defs><title>Ресурс 4</title><g class="cls-1"><g id="Слой_2" data-name="Слой 2"><g id="Layer_1" data-name="Layer 1"><path class="cls-2" d="M16.49,63s.77,7.1,6.83,7.11c7.63,0,8.84-1.23,11.17-7.11C34.49,63,18.82,64.29,16.49,63Z"/><path class="cls-3" d="M14.37,55.83s.17-3.5-2.67-9C9.38,42.33-2.38,37.16.43,20.66,2.09,10.94,10.26,3.42,19.79.89,28.5-1.41,44.26-.31,50.2,17.16c5.54,16.31-7.51,25.51-11.75,30.42a11.66,11.66,0,0,0-2.42,9S21.37,60.5,14.37,55.83Z"/><path class="cls-4" d="M31.76,29.9C39.44,27,44.81,20.67,48.44,13,41.57-.47,27.74-1.21,19.79.89,10.38,3.38,2.31,10.76.51,20.3,8.91,28.31,21,33.2,31.76,29.9Z"/><path class="cls-5" d="M32.87,6.73s-7,8.93-15.62,11.43-15.62,15.25,7,30.25a33.85,33.85,0,0,1,10-10C53.12,27,30.7,19,32.87,6.73Z"/><path class="cls-6" d="M32.76,31.9c-7.47,3-17.18,2.62-23.69-2.34.44,5.23,4.52,11.79,15.17,18.86a33.85,33.85,0,0,1,10-10c7.77-4.71,8.52-8.84,6.87-12.93A13.07,13.07,0,0,1,32.76,31.9Z"/><path class="cls-7" d="M33.7,30.43s-4.64,7.82-10.33,9a41.33,41.33,0,0,1,0-6.67c6-2.11,7.7-11.44,7.77-11.85,0,0-2.43,8.55-7.66,10.76C24.77,21,30,15.16,30,15.16c-5.86,4.55-8,11.08-8.43,17.58-5.14-5.69-4.17-11.13-4.17-11.13-.09.25-2.17,6.13,4.11,12.51a45.53,45.53,0,0,0,.46,7.4C13.4,37.19,12.52,29.4,12.52,29.4s-.09,8.79,9.64,13.33a61.56,61.56,0,0,0,3.62,12.93c.66,1.68,1.59,0,1.59,0a53.11,53.11,0,0,1-3.92-15.21C29.6,39.22,33.53,30.81,33.7,30.43Z"/><path class="cls-8" d="M16.49,63A11,11,0,0,0,17.34,66,91.64,91.64,0,0,0,32.6,67c.43-.82,1.43-2.81,1.89-4C34.49,63,18.82,64.29,16.49,63Z"/><path class="cls-9" d="M13,53.16a125.56,125.56,0,0,0,24.17,0s1,11.17-5.83,11.5c-4.13.2-8,.16-10.45.09a7.7,7.7,0,0,1-7.13-5.25A18.46,18.46,0,0,1,13,53.16Z"/><path class="cls-10" d="M35.15,58.74s-15.41,3-20.66-.61c0,0,1.58,6.52,20,2.65A3.49,3.49,0,0,0,35.15,58.74Z"/><path class="cls-10" d="M35.15,55.09s-15.41,3-20.66-.61c0,0,1.58,6.52,20,2.65A3.49,3.49,0,0,0,35.15,55.09Z"/><ellipse class="cls-11" cx="14.02" cy="11.04" rx="7.01" ry="4.84" transform="matrix(0.97, -0.26, 0.26, 0.97, -2.4, 4.05)"/></g></g></g></svg>