<svg xmlns="http://www.w3.org/2000/svg" viewBox="0 0 69.02 61.03"><defs><style>.cls-1{isolation:isolate;}.cls-2,.cls-3{fill:#95968b;}.cls-3{mix-blend-mode:multiply;}.cls-4{fill:#64b0bd;}.cls-5{fill:#fff;}.cls-6{fill:#e7a216;}.cls-7{fill:#4e3c36;}.cls-8{fill:#b9d117;}</style></defs><title>Ресурс 6</title><g class="cls-1"><g id="Слой_2" data-name="Слой 2"><g id="Layer_1" data-name="Layer 1"><path class="cls-2" d="M49.51,58c-7.76,0-18.22-8.33-26-20.73-4.62-7.32-7.66-15-8.56-21.74-.93-6.93.54-12,4.15-14.27A8.41,8.41,0,0,1,23.62,0c7.76,0,18.22,8.33,26,20.73,9.82,15.56,11.76,31.38,4.41,36A8.41,8.41,0,0,1,49.51,58ZM23.62,1.69a6.76,6.76,0,0,0-3.66,1c-3,1.9-4.21,6.38-3.37,12.62.87,6.47,3.82,13.95,8.31,21.07C32.3,48.1,42.43,56.3,49.51,56.3a6.75,6.75,0,0,0,3.66-1c6.33-4,4.06-19.42-4.94-33.69C40.83,9.89,30.71,1.69,23.62,1.69Z"/><path class="cls-2" d="M45.31,45.26a67.4,67.4,0,0,1-11.36-1c-8.53-1.47-16.31-4.37-21.89-8.19C6.28,32.13,3.5,27.64,4.22,23.44c1.12-6.51,10.38-10.71,23.6-10.71a67.44,67.44,0,0,1,11.36,1C57.32,16.85,70.38,26,68.91,34.55,67.79,41.06,58.53,45.26,45.31,45.26ZM27.83,14.42c-12.17,0-21,3.74-21.94,9.31-.6,3.51,1.92,7.4,7.12,10.95,5.38,3.68,12.92,6.49,21.22,7.92a65.46,65.46,0,0,0,11.08,1c12.16,0,21-3.74,21.93-9.31,1.27-7.37-11.71-16-28.34-18.87A65.62,65.62,0,0,0,27.83,14.42Z"/><path class="cls-2" d="M20.81,55.4a9.18,9.18,0,0,1-6.43-2.23C11.24,50.3,10.7,45,12.85,38.39,14.93,32,19.3,24.9,25.15,18.52,34,8.85,44.7,2.59,52.32,2.59a9.17,9.17,0,0,1,6.43,2.23c6.4,5.87,1.67,21.09-10.77,34.65C39.1,49.15,28.44,55.4,20.81,55.4ZM52.32,4.28c-7.17,0-17.35,6-25.92,15.38-5.69,6.2-9.93,13-11.94,19.24-1.93,6-1.56,10.61,1.07,13a7.55,7.55,0,0,0,5.29,1.78c7.17,0,17.35-6,25.92-15.38C58.14,25.9,63.12,11.12,57.61,6.06A7.55,7.55,0,0,0,52.32,4.28Z"/><path class="cls-3" d="M61.39,9.93a5.77,5.77,0,0,0-1.72.22,18.22,18.22,0,0,1-.79,8.09,6,6,0,0,0,1.67.57A19.85,19.85,0,0,0,61.39,9.93Z"/><path class="cls-3" d="M7.22,29.08a7.55,7.55,0,0,1-1.32-5.36,6.74,6.74,0,0,1,1.65-3.27A6.24,6.24,0,0,0,5.94,20H5.72a8.15,8.15,0,0,0-1.5,3.45,8.89,8.89,0,0,0,1.18,5.89A6,6,0,0,0,7.22,29.08Z"/><ellipse class="cls-4" cx="62.25" cy="13.09" rx="4.5" ry="5.23" transform="translate(40.42 72.84) rotate(-81.81)"/><ellipse class="cls-5" cx="60.67" cy="11.24" rx="1.61" ry="1.82" transform="translate(40.91 69.69) rotate(-81.82)"/><ellipse class="cls-6" cx="53.26" cy="56.65" rx="4.36" ry="5.29" transform="translate(-10.4 101.29) rotate(-81.81)"/><ellipse class="cls-5" cx="51.98" cy="54.38" rx="1.4" ry="1.59" transform="translate(-9.25 98.08) rotate(-81.81)"/><ellipse class="cls-7" cx="36.57" cy="29.35" rx="6.26" ry="6.4" transform="translate(2.3 61.37) rotate(-81.81)"/><ellipse class="cls-5" cx="34.63" cy="26.85" rx="2.2" ry="2.28" transform="translate(3.12 57.3) rotate(-81.81)"/><ellipse class="cls-8" cx="5.43" cy="23.31" rx="4.69" ry="5.45" transform="translate(-18.41 25.37) rotate(-81.81)"/><ellipse class="cls-5" cx="3.91" cy="21.64" rx="1.43" ry="1.74" transform="translate(-18.07 22.43) rotate(-81.81)"/></g></g></g></svg>