<svg xmlns="http://www.w3.org/2000/svg" viewBox="0 0 75.91 52.68"><defs><style>.cls-1{isolation:isolate;}.cls-2{fill:#b9d117;}.cls-3{fill:#a1bf1a;}.cls-4{fill:#90b800;}.cls-5{fill:#80a926;}.cls-6{fill:#dead45;}.cls-7{fill:#d7a94e;}.cls-8{fill:#e0b24f;}.cls-9{fill:#f0c56e;}.cls-10{fill:#d9c5ae;opacity:0.65;mix-blend-mode:multiply;}.cls-11{fill:#faecd0;}</style></defs><title>Ресурс 7</title><g class="cls-1"><g id="Слой_2" data-name="Слой 2"><g id="Layer_1" data-name="Layer 1"><path class="cls-2" d="M72.94,6.7a33.93,33.93,0,0,0-6.55,5.7c-4.5,5.34-10.41,9.17-14.45,9.69-5.57.72-12.94-1.7-21-11.48A60.88,60.88,0,0,0,41.37,4C54.4-6.72,60.59,7.59,72.94,6.7Z"/><path class="cls-3" d="M72.94,6.7a33.93,33.93,0,0,0-6.55,5.7c-4.5,5.34-10.41,9.17-14.45,9.69-5.57.72-12.94-1.7-21-11.48C30.93,10.61,39.23,17,72.94,6.7Z"/><path class="cls-4" d="M46.45,13.35c6.5.06,13.12-1.13,17.94-5.05,0,0-6.06,3.4-16.81,3.73,2.46-3.6,11.1-4.87,11.1-4.87-.42,0-9.84.72-12.21,4.89a58,58,0,0,1-6.64-.33c1.46-4,9.49-6.86,9.49-6.86-.38.1-9,2.44-10.48,6.76a70.56,70.56,0,0,1-15-3.6s-1.72.58-.07,1.13A80.57,80.57,0,0,0,36.52,12.4C40.6,19.54,49.28,20,49.36,20s-7.73-1-11.66-7.36a63.48,63.48,0,0,0,7.36.72A15.82,15.82,0,0,0,57.37,16.9,18,18,0,0,1,46.45,13.35Z"/><path class="cls-5" d="M46.45,13.35a33.34,33.34,0,0,0,13.12-2.2c-7.77,3.31-23,1.26-23,1.26C40.6,19.54,49.28,20,49.36,20s-7.73-1-11.66-7.36a63.48,63.48,0,0,0,7.36.72A15.82,15.82,0,0,0,57.37,16.9,18,18,0,0,1,46.45,13.35Z"/><path class="cls-6" d="M64.51,25.75c-1.22-.07-2.68.77-4.11,1.67-4.53,2.87-8,9.15-13.83,9.09-2.65,0-6.89-1.87-11.21-3.48l-.46,4.54a56.44,56.44,0,0,1,6.25,1.81,80,80,0,0,0,10.82,3c2.91-1.83,7.1-5.76,13.63-13C66.58,28.28,66,25.83,64.51,25.75Z"/><path class="cls-7" d="M45.29,37.94a80,80,0,0,0,10.82,3c2.91-1.83,7.1-5.76,13.63-13,1-1.08.35-3.52-1.1-3.61-1.22-.07-2.68.77-4.11,1.67-4.53,2.87-8,9.15-13.83,9.09S31.38,26.15,26.2,30.39l0-.06-.37,3.72C32.39,34.76,39,35.68,45.29,37.94Z"/><path class="cls-8" d="M50.33,36.88a80.11,80.11,0,0,0,10.82,3C64.07,38,68.5,34.39,75,27.13a1.75,1.75,0,0,0-1.17-2.91,9.79,9.79,0,0,0-4.29.7c-4,1.61-8,9.15-13.83,9.09s-19.32-8.93-24.51-4.68l0-.06L30.81,33C37.43,33.69,44,34.62,50.33,36.88Z"/><path class="cls-9" d="M0,41.57A12.78,12.78,0,0,0,11.59,52.68s9.43-10.13,11.53-11c5.74-2.38,14.79.67,17.26.87,4,.32,13,.5,17.61,1.28a2,2,0,0,0,1.6-.4,87,87,0,0,1,8.46-6c2.42-1.45,4.46-4.52,7.42-7.82a1.75,1.75,0,0,0-1.17-2.91,9.79,9.79,0,0,0-4.29.7c-4,1.61-8,9.15-13.83,9.09s-19.32-8.93-24.51-4.68c0,0-6.21-7.72-11.62-4.45S8.29,37,0,41.57Z"/><path class="cls-10" d="M40.42,31.51l-7.26-4.38c-13-4.48-11.81,1.21-13.67,2.37l8.74,5s6.46-2.89,23.11,1C51.35,35.42,40.88,31.55,40.42,31.51Z"/><path class="cls-9" d="M56.67,30.18a.71.71,0,0,0-.55-1C52.52,28.9,39,27.54,31,24.78c-13-4.48-12,3.42-13.89,4.58l11.12,5.09S30,29,48.49,34.37C48.49,34.37,55.46,35,56.67,30.18Z"/><path class="cls-11" d="M51.31,28.94s-2.22,1-1,2.28c.61.68,1.67,1.11,3.61.72A2.8,2.8,0,0,0,56.22,30a.53.53,0,0,0-.47-.62Z"/><path class="cls-11" d="M74.72,28c-1.31-.19-3.59.66-3.53,3.79,0,.73,1.06,1,1.79.46a32.71,32.71,0,0,0,2.36-2.33A1.1,1.1,0,0,0,74.72,28Z"/></g></g></g></svg>