<svg xmlns="http://www.w3.org/2000/svg" viewBox="0 0 62.44 66.25"><defs><style>.cls-1{isolation:isolate;}.cls-2{fill:#95968b;}.cls-3{fill:#4e3c36;}.cls-4{fill:#64b0bd;}.cls-5{opacity:0.55;}.cls-12,.cls-14,.cls-5{mix-blend-mode:multiply;}.cls-6{fill:#6fa4b3;}.cls-7{fill:#e7a216;}.cls-8{fill:#e7eaed;}.cls-9{fill:#a7dae5;}.cls-10{fill:#b9d117;}.cls-11{fill:#a1bf1a;}.cls-12{fill:#d5d5dc;opacity:0.75;}.cls-13{fill:#faf8f5;}.cls-14{fill:#8a98a7;opacity:0.45;}.cls-15{fill:#656757;}</style></defs><title>Ресурс 8</title><g class="cls-1"><g id="Слой_2" data-name="Слой 2"><g id="Layer_1" data-name="Layer 1"><path class="cls-2" d="M9.2,31.06a36,36,0,0,0-.62,5.75c-.3,3.22-3.75,6.68-5.66,9.07C.58,48.83,0,51.88,0,55.55,0,61.79,3.29,65.63,9,64c6.6-1.9,5.52-9.89,4.73-15.11-1.53-10.21,9.91-12.2,10.6-21.45.06-.77-1-.35-1,.33-.45,6-6.25,9.07-9.62,13.47-3.17,4.15-.2,10.29-.06,15,.08,2.57-1.23,4.14-3.26,5.87-5.16,4.4-7-.93-7.86-4-1.07-4-1.2-8.8,1.15-12.07,1.46-2,3.63-3.42,4.93-5.57,1.6-2.67.79-6,1.31-8.86.13-.74-1.35-.57-1.47.1Z"/><path class="cls-3" d="M22.5,13.64l-1.06-2.23L6.63,20.66l2.75,3.92,1.5-1.79,1.5,2.29-4.75,6L10,33.45l4.12-4,.62-3.28,5-3.42L17.5,18.91ZM15.06,24.2l-1.25-2.32,2.25-1.23.62,1.4Z"/><polygon class="cls-4" points="23.19 1 23.78 62.25 58.07 62.25 61.19 1 23.19 1"/><g class="cls-5"><polygon class="cls-6" points="23.43 25.86 23.48 31.63 59.45 35.18 59.92 25.86 23.43 25.86"/></g><polygon class="cls-7" points="22.11 0 22.11 29.5 61.19 29.53 62.44 0 22.11 0"/><rect class="cls-2" x="21.68" y="60.54" width="38.03" height="5.71"/><ellipse class="cls-8" cx="41.44" cy="44.3" rx="13.06" ry="9.72"/><ellipse class="cls-9" cx="41.44" cy="44.3" rx="11.43" ry="8.51"/><path class="cls-10" d="M44.27,37.83S33.77,40.4,38.1,50.15C38.1,50.15,51.08,47.35,44.27,37.83Z"/><path class="cls-11" d="M44.27,37.83A35.48,35.48,0,0,1,38.1,50.15S51.08,47.35,44.27,37.83Z"/><path class="cls-12" d="M47.8,35.82c-2.3,7.65-10.48,11.69-18.46,12.12C31.28,51.5,36,54,41.44,54c7.21,0,13.06-4.35,13.06-9.72C54.5,40.65,51.8,37.48,47.8,35.82Z"/><path class="cls-13" d="M29.49,8.61l-.15,14.44A2.73,2.73,0,0,0,32,25.82L50.9,26a2.72,2.72,0,0,0,2.74-2.58l.83-13.9a2.73,2.73,0,0,0-2.61-2.9L32.3,5.9A2.73,2.73,0,0,0,29.49,8.61Z"/><path class="cls-8" d="M30.19,9l-.14,13.62a2.57,2.57,0,0,0,2.53,2.61l17.8.18A2.57,2.57,0,0,0,53,23l.78-13.11a2.57,2.57,0,0,0-2.46-2.74L32.85,6.48A2.57,2.57,0,0,0,30.19,9Z"/><path class="cls-14" d="M46,25c-1.14,0-12.72-.94-12.72-.94-1.41,0-2.62-.6-2.61-2,0,0-.66-13.69.33-14.9A2.58,2.58,0,0,0,30.19,9l-.14,13.62a2.57,2.57,0,0,0,2.53,2.61l17.8.18Z"/><polygon class="cls-15" points="33.57 12.75 33.57 18.42 36.79 18.38 36.79 12.75 33.57 12.75"/><polygon class="cls-15" points="37.97 12.75 37.97 18.42 41.29 18.38 41.29 12.75 37.97 12.75"/><polygon class="cls-15" points="42.53 12.75 42.53 18.42 45.87 18.38 45.87 12.75 42.53 12.75"/><polygon class="cls-15" points="46.81 12.75 46.81 18.42 50.44 18.38 50.44 12.75 46.81 12.75"/><polygon class="cls-15" points="33.92 21.2 33.91 22.24 49.75 22.43 49.77 21.31 33.92 21.2"/><polygon class="cls-15" points="33.41 8.83 33.41 10.75 50.6 10.75 50.6 9.13 33.41 8.83"/><path class="cls-8" d="M35.75,13.81h-1a.42.42,0,0,0-.42.42v2.58a.42.42,0,0,0,.42.42h1a.42.42,0,0,0,.42-.42V14.23A.42.42,0,0,0,35.75,13.81Zm0,2.6a.27.27,0,0,1-.25.29h-.61a.27.27,0,0,1-.25-.29V14.63a.27.27,0,0,1,.25-.29h.61a.27.27,0,0,1,.25.29Z"/><path class="cls-8" d="M40.15,13.81h-1a.42.42,0,0,0-.42.42v2.58a.42.42,0,0,0,.42.42h1a.42.42,0,0,0,.42-.42V14.23A.42.42,0,0,0,40.15,13.81Zm0,2.6a.27.27,0,0,1-.25.29h-.61a.27.27,0,0,1-.25-.29V14.63a.27.27,0,0,1,.25-.29h.61a.27.27,0,0,1,.25.29Z"/><path class="cls-8" d="M44.61,17.23h-.54a.13.13,0,0,1-.12-.14l.06-3a.13.13,0,0,1,.13-.13l.48,0a.13.13,0,0,1,.11.13v3A.13.13,0,0,1,44.61,17.23Z"/><path class="cls-8" d="M47.94,17.19l-.17-.47c1.89-.41,1.39-.72,1.39-.73a4,4,0,0,0-1.32-.24H47.6L47.7,14l1.73.1v.4H48.1v.78c.63.05,1.48.21,1.55.68C49.76,16.68,49.36,17.07,47.94,17.19Z"/><path class="cls-12" d="M51.86,6.64H51.6c-.21,4.63-2.28,8.86-6.22,11.23-4.56,3.26-10.82,4.82-16,3l0,2.18A2.73,2.73,0,0,0,32,25.82L50.9,26a2.72,2.72,0,0,0,2.74-2.58l.83-13.9A2.73,2.73,0,0,0,51.86,6.64Z"/></g></g></g></svg>