<svg xmlns="http://www.w3.org/2000/svg" viewBox="0 0 54.11 85"><defs><style>.cls-1{isolation:isolate;}.cls-2,.cls-3{fill:#95968b;}.cls-3{opacity:0.27;}.cls-3,.cls-7{mix-blend-mode:multiply;}.cls-4{fill:#dce0e5;}.cls-5{fill:#e9ecef;}.cls-6,.cls-7{fill:#b9d117;}.cls-7{opacity:0.42;}.cls-8{fill:#81a200;}</style></defs><title>Ресурс 9</title><g class="cls-1"><g id="Слой_2" data-name="Слой 2"><g id="Layer_1" data-name="Layer 1"><path class="cls-2" d="M19,83.55s6.71,3.26,18,0c0,0-2.88-13.25,0-18.62C39.46,60.43,61.73,49.63,49,31.29c-7.09-10.21-20.47-14.36-31.62-8.88C9.47,26.3,1.79,34.68,0,52.31l7.55-.2S1.41,71.39,21.76,66.78C21.76,66.78,25.88,65.38,19,83.55Z"/><path class="cls-3" d="M49,31.29a26.22,26.22,0,0,0-17.46-11c8.3,14.81,13.06,34.4-3.18,44a62.56,62.56,0,0,1-5.59,3.2c.53,1.33.38,5.17-3.75,16.11,0,0,6.71,3.26,18,0,0,0-2.88-13.25,0-18.62C39.46,60.43,61.73,49.63,49,31.29Z"/><path class="cls-4" d="M9.78,59.06a6,6,0,0,1-3.1-.66l0-1.75c1.66.82,3.29,1.09,4.23.61a3.21,3.21,0,0,0,1.46-2.12l1.51.25a4.73,4.73,0,0,1-2.26,3.23A4.08,4.08,0,0,1,9.78,59.06Z"/><path class="cls-4" d="M16,46.79h-.1a3.1,3.1,0,0,1-2.34-1.1c-1.71-2-1.22-6-1.16-6.49l1.52.21c-.14,1-.27,4,.8,5.29a1.54,1.54,0,0,0,1.21.56,1.54,1.54,0,0,0,1.32-.52c1.12-1.17,1.22-3.94,1.16-4.9L20,39.73c0,.17.23,4.18-1.59,6.06A3.16,3.16,0,0,1,16,46.79Z"/><path class="cls-5" d="M22.82,23.36c-3,.69-6.55,2.09-7.78,5.12a6.92,6.92,0,0,0-.56,3.45c.14,1.9,2.27,2.8,4,3.07,2.48.38,5.3.54,7.67,1.57,1.53.66,3.44,3.31,4.23,4.68A10.62,10.62,0,0,0,36,46.41a8,8,0,0,0,6.67-.58,7.32,7.32,0,0,0,3.75-4.94c.76-3.34.53-7.34-1.66-10.16A21.67,21.67,0,0,0,22.82,23.36Z"/><path class="cls-6" d="M40,7.9s-4.21,4.63-9,5.65-9.2,7.75,2.63,16.9a18.66,18.66,0,0,1,5.92-5.09C50.27,19.85,38.27,14.55,40,7.9Z"/><path class="cls-7" d="M38.88,21.72c-4.23,1.34-9.54.75-12.93-2.24,0,2.89,2,6.66,7.58,11a18.66,18.66,0,0,1,5.92-5.09c4.46-2.28,5-4.52,4.29-6.83A7.2,7.2,0,0,1,38.88,21.72Z"/><path class="cls-8" d="M39.46,21s-2.86,4.11-6,4.54a22.83,22.83,0,0,1,.29-3.67c3.39-.92,4.69-6,4.75-6.2,0,0-1.68,4.6-4.64,5.61A17.45,17.45,0,0,1,38,12.42c-3.4,2.27-4.86,5.77-5.34,9.32-2.59-3.33-1.84-6.28-1.84-6.28s-1.44,3.28,1.75,7a25,25,0,0,0,0,4.08,9.28,9.28,0,0,1-4.71-7s-.4,4.83,4.76,7.71c.37,4.07,1.73,10.33,1.73,10.33.16.53.41.51.63.43.42-.15.15-.72.11-.91a70.93,70.93,0,0,1-1.68-11.05C36.86,25.62,39.35,21.16,39.46,21Z"/><path class="cls-6" d="M21.39,28.51A9.31,9.31,0,0,1,23.58,33c.18,2.21,3.23,4.72,8.62.37a9.05,9.05,0,0,1-2.13-3C28.07,25.07,24.59,29.84,21.39,28.51Z"/><path class="cls-7" d="M28.21,30.22a5.46,5.46,0,0,1-2,5.45c1.45.25,3.47-.28,6-2.33a9.05,9.05,0,0,1-2.13-3c-.83-2.16-1.9-2.61-3.11-2.49A3.29,3.29,0,0,1,28.21,30.22Z"/><path class="cls-8" d="M30.54,33.46c.84.08,2.07.13,3.23.15,0-.12,0-.25,0-.37-1.54,0-3.06-.12-3.74-.23,0-1.54-2-3-2.12-3.1s1.85,1.62,1.85,3.05a13.22,13.22,0,0,1-1.81-.46c-.22-1.56-2.66-2.59-2.76-2.63S27.33,31,27.62,32.4a9.53,9.53,0,0,1-4.11-2.64,6.85,6.85,0,0,0,4.28,3.17,4.34,4.34,0,0,1-3.26.24A3.79,3.79,0,0,0,28.16,33a14.6,14.6,0,0,0,2,.39,4.76,4.76,0,0,1-3.84,1.43A4.41,4.41,0,0,0,30.54,33.46Z"/><path class="cls-6" d="M45.88,28.25a9.31,9.31,0,0,0-1.82,4.63c0,2.22-2.83,5-8.56,1.07a9,9,0,0,0,1.87-3.21C38.94,25.37,42.8,29.84,45.88,28.25Z"/><path class="cls-7" d="M45.88,28.25a3.5,3.5,0,0,1-1.74.36c0,3.88-4.27,4.71-7.76,4.18A9.82,9.82,0,0,1,35.5,34c5.73,3.9,8.57,1.14,8.56-1.07A9.31,9.31,0,0,1,45.88,28.25Z"/><path class="cls-8" d="M37.17,33.93c-.83.15-2,.3-3.21.41,0-.12,0-.25,0-.37,1.53-.17,3-.37,3.71-.54-.15-1.54,1.78-3.19,1.86-3.26s-1.71,1.77-1.59,3.19a13.25,13.25,0,0,0,1.77-.6c.09-1.58,2.43-2.8,2.54-2.85S40.17,31.23,40,32.64a9.53,9.53,0,0,0,3.88-3,6.85,6.85,0,0,1-4,3.51,4.34,4.34,0,0,0,3.27,0,3.79,3.79,0,0,1-3.63.16,14.55,14.55,0,0,1-2,.55A4.76,4.76,0,0,0,41.45,35,4.41,4.41,0,0,1,37.17,33.93Z"/><path class="cls-6" d="M52.39,25.82a17.06,17.06,0,0,0-3.73-1.19,1.07,1.07,0,0,0-.77,0,1.35,1.35,0,0,0-.66.9.61.61,0,0,0,.37.65,13.32,13.32,0,0,0,4.13,1.87.79.79,0,0,0,.38,0,1.54,1.54,0,0,0,.85-.93c.16-.44.09-.86-.16-1Z"/><path class="cls-6" d="M52.86,15.18a17.76,17.76,0,0,0-3.88.94,1.09,1.09,0,0,0-.65.43,1.32,1.32,0,0,0-.1,1.11.63.63,0,0,0,.67.36,13.9,13.9,0,0,0,4.6-.56.82.82,0,0,0,.33-.19A1.52,1.52,0,0,0,54.08,16c-.09-.46-.38-.78-.65-.73Z"/><path class="cls-6" d="M48.24,6.18a17.24,17.24,0,0,0-3.31,2.14,1.08,1.08,0,0,0-.46.62A1.34,1.34,0,0,0,44.74,10a.62.62,0,0,0,.74.13,13.47,13.47,0,0,0,4.09-2,.79.79,0,0,0,.25-.29,1.53,1.53,0,0,0-.18-1.25c-.24-.4-.61-.61-.84-.48Z"/><path class="cls-6" d="M30.24,1.44A17.81,17.81,0,0,0,31.82,5a1.08,1.08,0,0,0,.53.55,1.24,1.24,0,0,0,1.07-.1.62.62,0,0,0,.22-.71A13.94,13.94,0,0,0,32.28.43.81.81,0,0,0,32,.14a1.43,1.43,0,0,0-1.21,0c-.42.17-.67.5-.57.75Z"/><path class="cls-6" d="M21.31,7a17.63,17.63,0,0,0,3,2.58,1.09,1.09,0,0,0,.73.27,1.33,1.33,0,0,0,1-.57.63.63,0,0,0-.1-.75,13.75,13.75,0,0,0-3.14-3.37A.82.82,0,0,0,22.44,5a1.52,1.52,0,0,0-1.14.53c-.31.34-.41.76-.21.95Z"/><path class="cls-6" d="M17.09,17.24a18.81,18.81,0,0,0,4.11.29,1.14,1.14,0,0,0,.77-.22,1.29,1.29,0,0,0,.43-1,.65.65,0,0,0-.55-.55,14.76,14.76,0,0,0-4.7-.86.85.85,0,0,0-.38.08,1.48,1.48,0,0,0-.61,1.11c0,.46.14.86.42.89Z"/></g></g></g></svg>