<svg xmlns="http://www.w3.org/2000/svg" viewBox="0 0 64.64 59.9"><defs><style>.cls-1{isolation:isolate;}.cls-2{fill:#fff;}.cls-3{fill:#2494c6;}.cls-4{fill:#64b0bd;}.cls-5{fill:#eaeaea;}.cls-6{fill:#cbcbcb;opacity:0.65;}.cls-10,.cls-6,.cls-8{mix-blend-mode:multiply;}.cls-7,.cls-8{fill:#b9d117;}.cls-8{opacity:0.45;}.cls-10,.cls-9{fill:#90b800;}.cls-10{opacity:0.55;}</style></defs><title>Ресурс 10</title><g class="cls-1"><g id="Слой_2" data-name="Слой 2"><g id="Layer_1" data-name="Layer 1"><path class="cls-2" d="M34.25,59.84c-.63,0-1.27.06-1.92.06C33,59.9,33.61,59.87,34.25,59.84Z"/><path class="cls-3" d="M57.92,48.2c-.29.49-.08.32,1.54-2q-.61.87-1.27,1.69Z"/><path class="cls-4" d="M60.35,17.06c-.75-.24-1.54-.14-2.29-.34-.44-.12-.43-.37-.43-.73s-.42-.74-.86-.9a3.1,3.1,0,0,1-1.58-1.23c-.26-.4-1.24-1.75-1.71-.82s-.88,1.67-2.12,1.63a2,2,0,0,1-1.83-1.86c0-1.12,1.61-1.05,1.48-2.24s-1.77-2-2.86-2.6c0,0-.78-.4-.68-.46.36-.21,1.3.14,1.61.3.67.32,1.62,1.65,2.51,1.14S50.6,7,50.18,6.82s-1.11-.16-1.44-.53-.27-.81-.44-1.18a4.25,4.25,0,0,0-3-1.87c-.83-.14-1.95-.59-2-1.47l-.83-.27c-1,.43-1.92,1-2.92,1.39-.45.19-1.31.6-1.8.3-.79-.48.15-1.93-.48-2.56C36.77.16,35.72.56,35.14.55c-.15,0-.69-.17-.77,0s.11.43.17.58c.27.58.22,1.11-.65,1a2.56,2.56,0,0,1-1.58-1l-1.43.57c.79,1.77-4.16-.11-4.42.79-.08.29.51.64.77.63s.51-.33.66-.21c.32.26.33,1,.37,1.37,0,.06,0,.54.09.44C29.15,4,30.16,3.61,31,2.94a2.38,2.38,0,0,1,.88-.6c.45-.11.88.29,1.17.55,1,.95,2.23,2.34,2.07,3.8,0,.22-.13.67-.47.61s-.72-.83-1-1.1c-.63-.59-2.3-1.26-2.8-.16-.34.74.81,1.11,1.35,1.35.19.08.59.21.65.43s-.69.47-.88.5c-1,.13-1.78-.65-2.48-1.2s-.31.52-.07.78c.07.07.33.26.25.38s-.94.22-1.19.24a8.5,8.5,0,0,0-4.13,1.35,11.77,11.77,0,0,0-2.2,1.87l-.13.14A16.65,16.65,0,0,1,20.9,15c-.28.54-.41.23-.43-.22,0-1,.28-2.26-.42-3.16-1.27-1.61-4.12.69-5.07,1.55-.76.69-2,2.11-1.12,3.13s1.83-.45,2.73-.53a1.83,1.83,0,0,1,1.05.22c-.53.46-1.11.87-1.65,1.32-.25.21-.42.41,0,.52s1.06,0,1.37.37,0,.78-.14,1.07c-.25.66-.72,2.19,0,2.76.53.42,1.84-.12,2.4-.24,2.77-.57,5.81-.46,7.46,2a4.42,4.42,0,0,0,.79,1.13,5.26,5.26,0,0,0,1.41.7,2,2,0,0,1,1,.6c.31.48-.23,1.09-.45,1.49-.37.66-1.17,1.75-1,2.56a.26.26,0,0,0,.36.19,12.52,12.52,0,0,1,6.26,1.79,2.31,2.31,0,0,1,1.27,1.85c-.06,1.11-1.31,1.8-2.11,2.46a7,7,0,0,0-2.77,4c-.34,1.52-1.85,2.1-3.39,2.32C27.06,47.22,24,46.53,24,46.53c-.34.79-.86,2.18-1.9,2.41-.43.1-.92-.1-1.24.25-.66.72-.35,1.91-.18,2.75.09.46.61,2-.25,2.16A1.65,1.65,0,0,1,18.65,53a8.61,8.61,0,0,1-.08-3.55,10.74,10.74,0,0,0-.45-4.37c-.27-.85-.85-2-.49-2.89.18-.45.65-.65,1-1a3.68,3.68,0,0,0,.93-1.68c.21-.83.31-2.11-.51-2.7s-2-.74-2.43-1.53c-.27-.49.17-.88.42-1.27A2,2,0,0,0,17.14,32c-.52-1-1.85-1.69-2.12-2.78s1.34-2.34,2.15-3.06c.61-.55,1.21-1.1,1.78-1.69A5.21,5.21,0,0,0,20,23c.14-.32-.08-.42-.41-.37a6.21,6.21,0,0,1-2.18.24,3.08,3.08,0,0,1-1.68-.83,12.26,12.26,0,0,0-.32-1.88,1.09,1.09,0,0,0-.36-.66c-.41-.26-.71-.27-1-.73a5.24,5.24,0,0,0-.75-1.15A4.56,4.56,0,0,0,12.29,17c-.68-.36-1.23-.74-1.11-1.54.21-1.38,1.29-2.54,1.63-3.91.1-.39.16-1.52-.55-.86a4.07,4.07,0,0,0-.82,1.21c-.12.25-.29.65-.58.78-.47.2-.13-1.16-.09-1.27.82-2.48,3.14-3.84,5.15-5.45.17-.14,1.41-1,1.23-1.27a2.38,2.38,0,0,1-1.38-.41,31.14,31.14,0,0,0-13,13.63A28,28,0,0,0,.66,36C3,46.46,11.46,55.18,22.41,58.46a34.91,34.91,0,0,0,19.31.15A32.72,32.72,0,0,0,57.92,48.2c.35-.59,1.41-2.15,1.54-2-.36-.37-.72-.74-1.28-.47a4.65,4.65,0,0,0-1.24,1c-1.07,1.07-2,2.23-3.17,3.24-.56.49-1.16.94-1.69,1.47A7.73,7.73,0,0,1,51,52.47c-.8.53-1.38-1.42-1.47-1.84a3,3,0,0,1,1.34-2.82c.58-.48,2-1.13,2.1-1.93s-1-1.62-.64-2.46c.21-.51.9-.66,1.28-1a3.2,3.2,0,0,0,.78-1.56,4.07,4.07,0,0,1,.4-1.27c.23-.35.65-.58.9-.93.59-.84,1-2.13.2-3-.28-.3-.91-.46-1-.87s.27-.55.49-.71c.69-.51,1.54-1.06,1.25-2-.24-.79-1,.14-1.5.1-.66-.05-.46-1.31-.57-1.73s-1.8.19-2,.26c-1,.26-2.51.71-3.4-.08s-.85-1.78-1.23-2.63a17,17,0,0,0-2.13-2.82c-.56-.76.72-.53,1.21-.7,1-.34,1.11-1.39,1.12-2.22s-.13-1.5-.18-2.26A2.59,2.59,0,0,1,48,18.61c.33-.6,1.27-.38,1.83-.61s.44-.6.5-1c.09-.59.5-.69,1.06-.82,1.09-.25,2.15-.92,3.29-.92a.84.84,0,0,1,.89.6c.08.28,0,.93.19,1.16s.4.07.53.13a5.34,5.34,0,0,1,1.57,1.49c.15.17.44.66.72.68s.6-.35.79-.46c.52-.3,1.28-.44,1.64-.93S60.72,17.18,60.35,17.06Z"/><path class="cls-3" d="M57.92,48.2l.27-.32q.67-.83,1.27-1.69C59.33,46.05,58.27,47.61,57.92,48.2Z"/><path class="cls-2" d="M3.42,16.54q-.28.51-.53,1Q3.15,17,3.42,16.54Z"/><path class="cls-2" d="M3.48,16.43l-.06.11Z"/><path class="cls-2" d="M2.89,17.57l-.08.17Z"/><path class="cls-2" d="M2.26,18.93c-.17.4-.33.8-.48,1.2Q2,19.53,2.26,18.93Z"/><path class="cls-2" d="M2.81,17.73q-.24.51-.47,1C2.49,18.41,2.65,18.07,2.81,17.73Z"/><path class="cls-5" d="M3.48,16.43A31.23,31.23,0,0,1,15.76,4.24a2.38,2.38,0,0,0,1.38.41s.62,0-3.34,2.87-3.59,6.85-2.36,4.34,2.36-1.59.37,2,1,2.41,2.07,4.59,1.4-.46,1.89,3.67a3.35,3.35,0,0,0,3.47.69c2.23-.69-.37,1.83-2.72,3.9s-1.61,2.75-.37,4,1.74,2.29.62,3.67S18.51,36.2,19.25,37s.62,3.44-1.11,4.59.87,3.67.49,7.23-.28,5,1.47,5.28-.23-3.1.51-4.59,1.61,1,3.34-3c0,0,3.1.69,4.46-3.67,0,0,2.72-.35,3.22-1.72s-.12-2.29,3.84-5.28-2.72-5.28-6.31-5.39c0,0-1.32.5,1-3.33,1-1.67-2-1.26-2.72-2.75S25,21.17,21.48,21.51,17,23,16.9,21.06s1.48-2.87-.25-3.1-.87-.35,1-2a1.86,1.86,0,0,0-2.23.35c-1.12,1-3.1-.57-.74-2.87s6.07-4,5.82.34,1.49-2,1.49-2,2.6-3.08,5.82-3.31S29,8.2,29,7.17s1.48,1.72,3.28,1-1.92-.92-1.55-2.06,2.48-.81,3.34.69S36,6,33.74,3.61s-1.86-.91-4,.12-1.24,1.61-1.61-.12-.49.12-1.48-.8,1.77-.5,3.22-.35,1-.8,1-.8l1.43-.57s.93,1.26,2,1S33.62.28,34.73.51s2.6-.69,2.73.69-.87,3.21,3.22,1.15c.82-.42,1.37-.69,1.75-.85A34.62,34.62,0,0,0,32.32,0C19.72,0,8.81,6.69,3.48,16.43Z"/><path class="cls-2" d="M2.34,18.75l-.08.18Z"/><path class="cls-5" d="M43.26,1.77a1.11,1.11,0,0,0,.64.92c1.61.92,1.12.11,3.22,1.26s.74,2.41,2.35,2.64S52.56,8.89,51.33,9,50,7.75,48.11,7.51s.74.57,2,1.61,1.24,2.25,0,2.73-.32,3.12,1.7,2.77,1.27-2.29,2.39-1.83.74,1.6,2.6,2.29-.25,1.6,2,1.72,3.34.92,1.36,1.72-1,1.49-2.72-.46-1.56-.08-1.73-1.95-3-.12-4.46.12-.25,1.61-1.61,1.83-2-.11-1.61,2.87-.49,3.67-2,3.67,1.24,1.61,2,3.67.87,3.33,4.09,2.53,2.23-.8,2.6.8,1.73-.92,2,.69-3.09,2-1.24,3,.5,3.44-.37,4-.25,2.64-2.1,3.56.87,2.52-.25,3.56-4.09,2.29-3,4.82,1.12,1,3.47-.81,4.33-4.93,5.45-4.82c.4,0,.59.33.83.57A32.1,32.1,0,0,1,44.39,57.73c11.87-4.43,20.25-15.2,20.25-27.78C64.64,17,55.72,5.93,43.26,1.77Z"/><path class="cls-2" d="M42.71,1.59l.54.18h0Z"/><path class="cls-4" d="M3.67,16.1l-.18.33.13-.22Z"/><path class="cls-4" d="M4.59,14.58l-.41.69h0C4.32,15,4.44,14.8,4.59,14.58Z"/><path class="cls-4" d="M4.9,14.13l-.26.37.26-.37Z"/><path class="cls-4" d="M57.83,48.3h0c-.4.47-.81.93-1.23,1.38Q57.23,49,57.83,48.3Z"/><path class="cls-4" d="M3.48,16.43h0Z"/><path class="cls-4" d="M57.85,48.28l0,0h0Z"/><path class="cls-4" d="M57.91,48.21l-.09.1s0,.09,0,.11A.52.52,0,0,1,57.91,48.21Z"/><path class="cls-4" d="M5.83,12.81l-.42.6h0C5.55,13.21,5.68,13,5.83,12.81Z"/><path class="cls-4" d="M42.71,1.59l.06,0h.06Z"/><path class="cls-6" d="M27.26,37.49c-8.82,2.65-18.34,1.09-26.89-3a29.29,29.29,0,0,0,8.47,16,34.21,34.21,0,0,0,31,8.6,33.39,33.39,0,0,0,6-2c-.51.22-1,.45-1.53.64a33,33,0,0,0,4.05-1.85c-.53.28-1.06.56-1.6.81.68-.32,1.34-.65,2-1l-.18.1a18.23,18.23,0,0,0,3.86-2.48,31.58,31.58,0,0,0,5.31-5,14.1,14.1,0,0,1,1.6-2.06A25,25,0,0,0,62,41.67a28,28,0,0,0,2.59-11.73A27.5,27.5,0,0,0,61,16.28C54,27.82,40.3,34,27.26,37.49Z"/><path class="cls-4" d="M8.68,9.55l-.35.38h0Z"/><path class="cls-4" d="M10.27,8.07c-.06.05-.19.18-.27.24l.14-.11Z"/><path class="cls-4" d="M13.24,5.81c-.34.23-.69.47-1,.71.24-.18.49-.34.74-.51Z"/><path class="cls-4" d="M12,6.7l-.15.11.05,0Z"/><path class="cls-4" d="M56.27,50a15.55,15.55,0,0,1-1.39,1.34q.72-.65,1.39-1.34l-.19.2.19-.2Z"/><path class="cls-4" d="M56.4,49.9Z"/><path class="cls-4" d="M46.66,56.78l-.22.09Z"/><path class="cls-7" d="M38.23,9s-3.17,6.33-16,14.84S33.48,39.69,27.54,48.4c0,0,25.87-9.36,16.75-21.76C37.44,17.32,38.3,13,38.23,9Z"/><path class="cls-8" d="M44.29,26.64a42.86,42.86,0,0,1-3.67-5.8,38.39,38.39,0,0,1-3.34,10,13,13,0,0,1-15.84,4.33c3.77,4.29,9.29,8.57,6.1,13.26C27.54,48.4,53.42,39,44.29,26.64Z"/><path class="cls-9" d="M42.27,33.37A13.59,13.59,0,0,1,35,36.5a29.1,29.1,0,0,0,.2-4.54c0-.75,0-1.45,0-2.13.43-1.12,3.2-2.73,4.85-3.48a17.11,17.11,0,0,0-4.84,1.93,44.35,44.35,0,0,1,1-9.84c-.08.13-1.57,2.67-2,8.8-2-2.5-4-5.14-4-5.14a30.87,30.87,0,0,0,3.92,6.8c0,1,0,2,0,3.09a25.49,25.49,0,0,1-.26,4.39C31.4,35.21,25.74,28,25.74,28c.83,1.51,4.78,8.49,7.92,9.53A21.34,21.34,0,0,1,30.85,45c1.53-2,3.24-3.49,4-7.33A9.66,9.66,0,0,0,42.27,33.37Z"/><path class="cls-10" d="M35,36.5a26.84,26.84,0,0,0,.21-3.29,8.17,8.17,0,0,1-1.16.86c0,.8-.12,1.58-.22,2.31A8.75,8.75,0,0,1,32,35q-.59.23-1.18.43a7.56,7.56,0,0,0,2.8,2.09A21.34,21.34,0,0,1,30.85,45c1.53-2,3.24-3.49,4-7.33a9.66,9.66,0,0,0,7.44-4.27A13.59,13.59,0,0,1,35,36.5Z"/></g></g></g></svg>