<?xml version="1.0" encoding="UTF-8"?>
<svg width="83px" height="108px" viewBox="0 0 83 108" version="1.1" xmlns="http://www.w3.org/2000/svg" xmlns:xlink="http://www.w3.org/1999/xlink">
    <!-- Generator: Sketch 54.1 (76490) - https://sketchapp.com -->
    <title>1</title>
    <desc>Created with Sketch.</desc>
    <defs>
        <linearGradient x1="-0.00933333333%" y1="49.9305238%" x2="100.653333%" y2="49.9305238%" id="linearGradient-1">
            <stop stop-color="#DADADA" offset="0%"></stop>
            <stop stop-color="#ECECEC" offset="100%"></stop>
        </linearGradient>
        <linearGradient x1="-0.741930519%" y1="50.3691548%" x2="98.8196561%" y2="50.3691548%" id="linearGradient-2">
            <stop stop-color="#DADADA" offset="0%"></stop>
            <stop stop-color="#ECECEC" offset="100%"></stop>
        </linearGradient>
        <linearGradient x1="0.511428571%" y1="50.6074368%" x2="99.9666667%" y2="50.6074368%" id="linearGradient-3">
            <stop stop-color="#DADADA" offset="0%"></stop>
            <stop stop-color="#ECECEC" offset="100%"></stop>
        </linearGradient>
        <linearGradient x1="-0.157333333%" y1="49.3708333%" x2="99.6066667%" y2="49.3708333%" id="linearGradient-4">
            <stop stop-color="#DADADA" offset="0%"></stop>
            <stop stop-color="#ECECEC" offset="100%"></stop>
        </linearGradient>
        <linearGradient x1="-1.17090909%" y1="50.1662665%" x2="99.1072727%" y2="50.1662665%" id="linearGradient-5">
            <stop stop-color="#DADADA" offset="0%"></stop>
            <stop stop-color="#ECECEC" offset="100%"></stop>
        </linearGradient>
        <linearGradient x1="45.0319393%" y1="52.7017847%" x2="52.3161711%" y2="47.2574206%" id="linearGradient-6">
            <stop stop-color="#DADADA" offset="0%"></stop>
            <stop stop-color="#F3F3F3" offset="100%"></stop>
        </linearGradient>
        <linearGradient x1="63.2862745%" y1="14.6644558%" x2="26.5745098%" y2="76.5780191%" id="linearGradient-7">
            <stop stop-color="#F3F3F3" offset="0%"></stop>
            <stop stop-color="#EAEAEA" offset="19.74%"></stop>
            <stop stop-color="#DEDEDE" offset="60.07%"></stop>
            <stop stop-color="#DADADA" offset="100%"></stop>
        </linearGradient>
        <radialGradient cx="75.48125%" cy="3.30911598%" fx="75.48125%" fy="3.30911598%" r="123.078125%" gradientTransform="translate(0.754813,0.033091),scale(1.000000,0.916134),translate(-0.754813,-0.033091)" id="radialGradient-8">
            <stop stop-color="#FFFFFF" offset="0%"></stop>
            <stop stop-color="#DADADA" offset="100%"></stop>
        </radialGradient>
        <linearGradient x1="44.3234704%" y1="123.1696%" x2="53.9120768%" y2="-10.3584%" id="linearGradient-9">
            <stop stop-color="#DADADA" offset="0%"></stop>
            <stop stop-color="#F3F3F3" offset="100%"></stop>
        </linearGradient>
        <linearGradient x1="92.1500523%" y1="17.0486039%" x2="55.8136571%" y2="45.5425026%" id="linearGradient-10">
            <stop stop-color="#DADADA" offset="0%"></stop>
            <stop stop-color="#DDDDDD" offset="8.551061%"></stop>
            <stop stop-color="#EDEDED" offset="59.97%"></stop>
            <stop stop-color="#F3F3F3" offset="100%"></stop>
        </linearGradient>
        <linearGradient x1="26.380629%" y1="103.336007%" x2="68.7049618%" y2="13.9994796%" id="linearGradient-11">
            <stop stop-color="#DADADA" offset="0%"></stop>
            <stop stop-color="#F3F3F3" offset="100%"></stop>
        </linearGradient>
    </defs>
    <g id="Page-1" stroke="none" stroke-width="1" fill="none" fill-rule="evenodd">
        <g id="20220-[преобразованный]" transform="translate(-306.000000, 0.000000)" fill-rule="nonzero">
            <g id="Group">
                <g id="1" transform="translate(306.000000, 0.000000)">
                    <polygon id="Path" fill="#2A5C70" points="29.4 74.7 0.4 91.5 28.5 107.7 55.7 107.7 57 74.7"></polygon>
                    <g id="Axonometric_Cube_28_" transform="translate(29.000000, 73.000000)">
                        <polygon id="Cube_face_-_left_647_" fill="#C3BBA6" points="26.7 34.7 0.6 19.6 0.6 16.2 26.7 31.2"></polygon>
                        <polygon id="Cube_face_-_right_647_" fill="#DCD6C1" points="53.6 19.2 26.7 34.7 26.7 31.2 53.6 15.7"></polygon>
                        <polygon id="Cube_face_-_top_647_" fill="#DCD6C1" points="26.7 31.2 0.6 16.2 27.5 0.6 53.6 15.7"></polygon>
                    </g>
                    <g id="Group" transform="translate(45.000000, 55.000000)">
                        <path d="M16,29.8 C12.5,27.7 6.8,27.7 3.3,29.7 C-0.3,31.7 -0.3,35 3.1,37.1 C6.6,39.2 12.3,39.2 15.8,37.2 C19.4,35.1 19.5,31.8 16,29.8 Z" id="Path" fill="#A39C8D" opacity="0.3"></path>
                        <g transform="translate(2.000000, 3.000000)" id="Path">
                            <path d="M14.5,32.3 C11.2,34.1 5.9,34.1 2.7,32.2 C1.1,31.3 0.3,30 0.3,28.8 L0.3,30.4 C0.3,31.6 1.1,32.8 2.7,33.8 C5.9,35.7 11.2,35.8 14.5,33.9 C16.2,33 17,31.7 17,30.5 L17,28.9 C17,30.2 16.2,31.4 14.5,32.3 Z" fill="#A5A097"></path>
                            <path d="M14.7,25.5 C11.5,23.6 6.2,23.5 2.9,25.4 C-0.4,27.2 -0.5,30.3 2.7,32.2 C5.9,34.1 11.2,34.2 14.5,32.3 C17.8,30.5 17.9,27.4 14.7,25.5 Z" fill="#D1CEC4"></path>
                            <path d="M9.3,24.1 C7,24 4.7,24.5 3,25.4 C-0.3,27.2 -0.4,30.3 2.8,32.2 L9.3,32.2 L9.3,24.1 Z" fill="#A5A097" opacity="0.6"></path>
                            <g transform="translate(3.000000, 17.000000)">
                                <path d="M9.4,0.8 C9.4,0.8 9.4,0.8 9.4,0.8 L8.4,0.2 C8.4,0.2 8.4,0.2 8.4,0.2 L3.1,0.1 L2.2,0.6 C0.2,1.7 0.1,3.6 2.1,4.8 C2.9,5.3 4,5.6 5.1,5.7 C6.6,5.8 8.1,5.5 9.3,4.9 C9.5,4.8 9.7,4.6 9.9,4.5 C11.3,3.5 11.2,1.9 9.4,0.8 Z" fill="#F3F3F3"></path>
                                <path d="M8.8,3.1 C8.7,3.2 8.5,3.3 8.4,3.4 C7.5,3.9 6.4,4.1 5.3,4 L5.1,5.8 C6.6,5.9 8.1,5.6 9.3,5 C9.5,4.9 9.7,4.7 9.9,4.6 L8.8,3.1 Z" fill="#FFFFFF"></path>
                            </g>
                            <path d="M12.5,0.8 L5,0.8 L5,18.8 C5,19.4 5.4,19.9 6.1,20.3 C7.6,21.2 9.9,21.2 11.4,20.4 C12.2,20 12.5,19.4 12.5,18.8 L12.5,0.8 Z" fill="url(#linearGradient-1)"></path>
                            <path d="M13.9,19.8 C14,20.6 13.4,21.4 12.4,22 C10.4,23.1 7.2,23.1 5.2,21.9 C4.2,21.3 3.7,20.5 3.8,19.7 L2.9,28.7 C2.8,29.6 3.4,30.5 4.6,31.2 C6.9,32.6 10.6,32.6 13,31.3 C14.3,30.6 14.9,29.6 14.8,28.7 L13.9,19.8 Z" fill="url(#linearGradient-2)"></path>
                        </g>
                        <g transform="translate(5.000000, 0.000000)" id="Path">
                            <path d="M9.4,5.4 C7.3,6.6 4,6.5 2,5.3 C1,4.7 0.5,3.9 0.5,3.2 L0.5,3.8 C0.5,4.6 1,5.3 2,5.9 C4,7.1 7.3,7.1 9.4,6 C10.5,5.4 11,4.6 11,3.8 L11,3.2 C11,4 10.5,4.8 9.4,5.4 Z" fill="url(#linearGradient-3)"></path>
                            <path d="M9.5,1.1 C7.5,-0.1 4.2,-0.1 2.1,1 C0,2.2 0,4.1 2,5.3 C4,6.5 7.3,6.5 9.4,5.4 C11.5,4.3 11.5,2.3 9.5,1.1 Z" fill="#F3F3F3"></path>
                        </g>
                    </g>
                    <g id="Axonometric_Cube_16_" transform="translate(29.000000, 43.000000)">
                        <polygon id="Cube_face_-_left_646_" fill="#3D98AD" opacity="0.6" points="26.7 61.2 0.6 46.2 0.6 16.4 26.7 31.5"></polygon>
                        <polygon id="Cube_face_-_right_646_" fill="#61B6C1" opacity="0.4" points="53.6 45.7 26.7 61.2 26.7 31.5 53.6 15.9"></polygon>
                        <polygon id="Cube_face_-_top_646_" fill="#91DEE2" opacity="0.6" points="26.7 31.5 0.6 16.4 27.5 0.9 53.6 15.9"></polygon>
                    </g>
                    <path d="M48.3,68.9 C48.4,68.9 48.5,68.8 48.7,68.8 C48.8,68.8 48.9,68.9 48.9,69 C48.9,69.2 48.7,69.3 48.6,69.4 C48.6,69.4 48.5,69.4 48.4,69.4 C48.1,69.3 48.1,69 48.3,68.9 Z M47.6,69.3 C47.5,69.4 47.3,69.5 47.5,69.6 C47.6,69.7 47.6,69.6 47.7,69.6 C47.8,69.5 47.9,69.4 47.8,69.3 C47.7,69.2 47.6,69.3 47.6,69.3 Z M48.6,66.3 C48.6,66.3 48.6,66.3 48.6,66.3 C48.5,66.2 48.4,66.2 48.4,66.3 C48.3,66.3 48.3,66.3 48.3,66.3 C48.3,66.2 48.4,66.1 48.6,66 C48.6,66 48.7,66 48.7,66 C48.7,66 48.7,66 48.6,66 C48.4,66 48.5,65.9 48.5,65.9 C48.5,65.9 48.6,65.9 48.6,65.8 C48.4,65.9 48.2,65.9 48.1,66 C48.2,66.1 48.2,66.2 48.2,66.4 C48.3,66.5 48.5,66.6 48.5,66.7 C48.5,66.7 48.5,66.7 48.5,66.7 C48.5,66.5 48.7,66.5 48.6,66.3 Z M47.9,65.1 C47.9,65 47.8,65 47.9,64.9 C47.9,64.9 48,64.8 47.9,64.8 C47.8,64.8 47.6,64.8 47.7,64.8 C47.7,64.9 47.6,65 47.7,65.1 C47.7,65.1 47.7,65.1 47.7,65.2 C47.7,65.2 47.8,65.2 47.8,65.2 C47.8,65.2 48,65.1 47.9,65.1 Z M48.1,64.7 C48.1,64.7 48.2,64.7 48.3,64.7 C48.4,64.6 48.3,64.6 48.2,64.5 C48.2,64.5 48.1,64.4 48,64.5 C47.9,64.6 48.1,64.6 48.1,64.7 Z M47.9,67 C48.2,67 48.3,66.8 48.6,66.7 C48.7,66.7 48.6,66.6 48.6,66.6 C48.5,66.6 48.5,66.6 48.4,66.6 C48.3,66.7 48.1,66.6 48,66.8 C48,66.8 48,66.9 47.9,66.9 C47.8,66.9 47.8,66.9 47.9,67 C47.9,67 47.9,67 47.9,67 Z M50.9,69.4 C50.9,69.4 50.7,69.5 50.8,69.5 C50.8,69.5 50.9,69.5 50.9,69.5 C50.9,69.5 51.1,69.4 51,69.4 C51,69.3 50.9,69.3 50.9,69.4 Z M54,70.6 C54,70.6 54.1,70.7 54.1,70.6 C54.3,70.5 54.1,70.5 54.1,70.4 C54.1,70.4 54.1,70.4 54.1,70.4 C53.9,70.5 53.9,70.5 54,70.6 Z M54.8,69.3 C54.8,69.3 54.7,69.3 54.7,69.2 C54.6,69.2 54.5,69.2 54.5,69.3 C54.5,69.3 54.5,69.4 54.3,69.4 C54.3,69.4 54.3,69.4 54.3,69.3 C54.3,69.2 54.3,69.2 54.2,69.2 C54.2,69.2 54.1,69.2 54.1,69.2 C54,69.2 54,69.3 54.1,69.3 C54.2,69.4 54,69.4 53.9,69.5 C53.7,69.6 53.7,69.7 53.9,69.8 C54,69.9 54.1,69.8 54.3,69.8 C54.3,69.8 54.4,69.8 54.4,69.7 C54.2,69.6 54.4,69.6 54.5,69.5 C54.6,69.5 54.6,69.5 54.7,69.4 C54.7,69.5 54.8,69.4 54.8,69.3 Z M53.6,71.5 C53.5,71.4 53.4,71.5 53.4,71.5 C53.2,71.5 53.1,71.6 53,71.7 C53,71.7 52.9,71.8 53,71.8 C53.1,71.8 53.1,71.8 53.2,71.8 C53.3,71.8 53.3,71.7 53.4,71.7 C53.4,71.7 53.4,71.7 53.4,71.7 C53.4,71.7 53.5,71.7 53.5,71.6 C53.6,71.6 53.7,71.6 53.6,71.5 Z M54.4,70.1 C54.4,70.1 54.5,70.1 54.4,70.1 C54.4,70 54.3,70 54.3,70 C54.2,70 54.1,70.1 53.9,70 C53.8,70 53.7,70 53.7,70 C53.7,70 53.8,70.1 53.8,70.1 C53.9,70.1 54,70.1 53.9,70.2 C53.9,70.3 54,70.3 54,70.4 C54.3,70.4 54.2,70.2 54.4,70.1 Z M51.9,71.6 C51.9,71.6 52.1,71.6 52,71.5 C51.9,71.5 51.8,71.5 51.8,71.5 C51.6,71.6 51.7,71.7 51.7,71.9 C51.7,71.9 51.7,72 51.8,72 C51.9,72 52,72 52,72 C52,72 52,71.9 52,71.9 C51.7,71.8 51.8,71.7 51.9,71.6 Z M51,66.7 C50.6,66.7 50.8,66.6 50.8,66.5 C50.8,66.4 50.9,66.4 50.9,66.3 C50.9,66.3 51,66.2 50.9,66.2 C50.8,66.2 50.7,66.2 50.7,66.2 C50.6,66.3 50.5,66.3 50.4,66.4 C50.4,66.4 50.4,66.4 50.4,66.5 C50.4,66.6 50.7,66.8 50.5,66.9 C50.5,66.9 50.5,67 50.6,67 C50.7,67 50.8,67 50.9,67 C51.1,67 51.1,66.9 51.2,66.9 C51.1,66.8 51.1,66.7 51,66.7 Z M50.2,50.3 C50.3,50.3 50.3,50.4 50.3,50.4 C50.3,50.4 50.2,50.5 50.4,50.5 C50.5,50.5 50.7,50.5 50.7,50.4 C50.7,50.3 50.7,50.3 50.8,50.3 C50.9,50.3 50.9,50.3 51,50.4 C51,50.4 51.1,50.4 51.2,50.4 C51.3,50.4 51.2,50.3 51.2,50.3 C51.1,50.3 51.1,50.2 51,50.1 C50.9,50 50.8,50.1 50.7,50.1 C50.7,50.2 50.6,50.2 50.5,50.1 C50.2,50.2 50.2,50.2 50.2,50.3 C50.2,50.3 50.1,50.3 50.2,50.3 Z M49.5,56.3 C49.6,56.3 49.6,56.3 49.7,56.2 C49.7,56.2 49.8,56.1 49.7,56.1 C49.6,56.1 49.6,56.1 49.5,56.2 C49.5,56.2 49.5,56.3 49.4,56.3 C49.3,56.3 49.3,56.2 49.3,56.2 C49.3,56.3 49.3,56.4 49.3,56.5 C49.3,56.3 49.3,56.3 49.5,56.3 Z M48.4,51.3 C48.4,51.4 48.4,51.4 48.4,51.3 C48.6,51.4 48.6,51.4 48.5,51.5 C48.5,51.5 48.5,51.6 48.6,51.6 C48.7,51.6 48.7,51.6 48.8,51.5 C48.8,51.5 48.8,51.5 48.9,51.4 C48.9,51.4 49,51.3 49,51.3 C48.9,51.2 48.9,51.3 48.8,51.3 C48.7,51.3 48.6,51.3 48.5,51.2 C48.6,51.3 48.6,51.3 48.4,51.3 C48.5,51.3 48.4,51.3 48.4,51.3 Z M48.9,51 C48.9,51 49,50.9 48.9,51 C48.8,50.9 48.7,50.9 48.6,51 C48.6,51 48.5,51.1 48.6,51.1 C48.7,51 48.8,51 48.9,51 Z M48.2,52.1 C48.2,52.1 48.3,52.1 48.3,52.1 C48.4,52 48.4,52 48.6,52 C48.7,51.9 48.6,51.9 48.6,51.8 C48.6,51.8 48.5,51.7 48.5,51.7 C48.4,51.7 48.4,51.7 48.3,51.8 C48.4,51.9 48.2,51.9 48.2,52.1 C48.2,52 48.2,52.1 48.2,52.1 Z M50,54.8 C50.1,54.8 50.1,54.7 50,54.7 C49.9,54.7 49.9,54.7 49.8,54.7 C49.7,54.7 49.7,54.8 49.8,54.9 C49.9,54.8 49.9,54.8 50,54.8 Z M47.4,53.1 C47.3,53.2 47.2,53.2 47.2,53.4 C47.3,53.3 47.4,53.3 47.4,53.1 Z M49.7,55.2 C49.8,55.2 49.8,55.1 49.7,55.2 C49.6,55.1 49.5,55 49.4,55.1 C49.3,55.1 49.4,55.2 49.4,55.2 C49.6,55.2 49.6,55.2 49.7,55.2 Z M49.3,55.6 C49.2,55.6 49.2,55.7 49.3,55.6 C49.4,55.7 49.4,55.7 49.4,55.7 C49.4,55.7 49.5,55.7 49.5,55.7 C49.7,55.8 49.8,55.6 50,55.6 C50.1,55.5 50.1,55.4 50,55.3 C50,55.3 49.9,55.3 49.9,55.3 C49.8,55.4 49.7,55.3 49.6,55.4 C49.5,55.4 49.4,55.4 49.4,55.5 C49.4,55.5 49.4,55.6 49.3,55.6 Z M46.7,65 C46.8,65 46.9,64.9 46.9,64.8 C46.9,64.7 47,64.6 47.1,64.5 C47.1,64.5 47.2,64.5 47.2,64.4 C47,64.3 46.8,64.4 46.6,64.5 C46.7,64.6 46.7,64.6 46.7,64.7 C46.7,64.9 46.6,65 46.7,65 Z M46.4,66.1 C46.3,66.1 46.3,66.1 46.2,66.2 C46.1,66.3 46.1,66.4 46.3,66.4 C46.3,66.4 46.3,66.4 46.3,66.4 C46.3,66.4 46.3,66.4 46.3,66.4 C46.3,66.3 46.2,66.3 46.3,66.2 C46.4,66.2 46.4,66.2 46.4,66.1 Z M46.1,63.5 C46.2,63.4 46.4,63.4 46.2,63.3 C46.2,63.3 46.1,63.3 46.1,63.3 C46.1,63.3 46.1,63.4 46.1,63.5 C46,63.5 46.1,63.5 46.1,63.5 Z M48.4,63 C48.1,63 47.9,63 47.7,63.1 C47.7,63.1 47.6,63.1 47.6,63.1 C47.4,63.1 47.3,63.2 47.5,63.3 C47.5,63.3 47.6,63.4 47.5,63.4 C47.4,63.4 47.4,63.4 47.3,63.4 C47.3,63.4 47.3,63.4 47.3,63.4 C47.4,63.4 47.5,63.4 47.6,63.5 C47.6,63.5 47.6,63.5 47.6,63.5 C47.6,63.5 47.6,63.5 47.6,63.6 C47.6,63.6 47.7,63.6 47.7,63.6 C47.9,63.6 48,63.6 48.1,63.5 L48.1,63.5 C48.1,63.5 48,63.5 48,63.5 C47.9,63.5 47.7,63.5 47.7,63.4 C47.7,63.3 47.8,63.3 47.9,63.2 C48.1,63.1 48.3,63.1 48.5,63.2 C48.5,63.2 48.6,63.2 48.6,63.2 C48.6,63.2 48.6,63.2 48.7,63.2 C48.7,63.2 48.8,63.2 48.8,63.2 C48.8,63.2 48.9,63.2 48.9,63.2 C48.9,63.2 49,63.2 49,63.1 C48.8,63.1 48.6,63 48.4,63 Z M47.1,54.1 C47.2,54.2 47.3,54 47.4,54 C47.4,54 47.4,54.1 47.3,54.1 C47.3,54.1 47.3,54.2 47.3,54.2 C47.3,54.2 47.4,54.2 47.4,54.2 C47.4,54.1 47.6,54 47.7,53.9 C47.7,53.9 47.8,53.8 47.7,53.8 C47.6,53.8 47.6,53.8 47.5,53.8 C47.4,53.9 47.3,53.9 47.2,53.9 C47.1,53.9 47,53.9 47,54 C47.1,54 47.1,54.1 47.1,54.1 Z M46.7,60.4 C46.8,60.4 46.8,60.4 46.9,60.3 C46.9,60.3 46.9,60.2 46.9,60.2 C46.9,60.2 47,60.1 46.9,60.1 C46.8,60.1 46.8,60.1 46.7,60.1 C46.7,60.1 46.6,60.2 46.6,60.2 C46.6,60.2 46.5,60.3 46.5,60.3 C46.6,60.4 46.6,60.4 46.7,60.4 Z M46.6,63.8 C46.6,63.7 46.5,63.7 46.4,63.8 C46.3,63.8 46.2,63.9 46.4,63.9 L46.4,63.9 L46.4,63.9 C46.4,63.8 46.5,63.8 46.6,63.8 C46.6,63.8 46.6,63.8 46.6,63.8 Z M46.3,57.7 C46.3,57.6 46.3,57.6 46.3,57.7 C46.3,57.6 46.2,57.6 46.2,57.6 C46.2,57.6 46.1,57.6 46.2,57.7 C46.2,57.7 46.2,57.7 46.3,57.7 Z M54.5,73.1 C54.6,73.2 54.6,73.2 54.5,73.1 C54.7,73 54.6,73 54.6,72.9 C54.5,73 54.5,73.1 54.5,73.1 Z M61.2,59.7 C61.2,59.7 61.2,59.8 61.2,59.7 C61.3,59.8 61.4,59.8 61.5,59.8 C61.5,59.8 61.5,59.8 61.5,59.7 C61.4,59.7 61.3,59.7 61.2,59.7 Z M61.4,63.8 C61.5,63.8 61.5,63.7 61.4,63.6 C61.3,63.6 61.2,63.6 61.2,63.6 C61.1,63.6 61.1,63.7 61.2,63.8 C61.2,63.8 61.3,63.8 61.4,63.8 Z M61.6,65.9 C61.7,65.9 61.7,65.8 61.6,65.9 C61.7,65.8 61.7,65.6 61.8,65.5 C61.8,65.5 61.8,65.4 61.7,65.4 C61.6,65.4 61.6,65.4 61.5,65.4 C61.5,65.5 61.4,65.5 61.3,65.6 C61.4,65.6 61.6,65.9 61.6,65.9 Z M61.5,60 C61.3,60 61.4,60.1 61.4,60.2 C61.5,60.2 61.7,60.2 61.7,60.1 C61.7,60 61.6,60 61.5,60 Z M62,59.1 C61.8,59.1 61.8,59.3 61.5,59.3 C61.5,59.3 61.5,59.3 61.5,59.3 C61.5,59.4 61.6,59.4 61.6,59.5 C61.7,59.5 61.8,59.5 61.8,59.5 C61.9,59.5 62,59.4 62,59.4 C62.1,59.3 62.2,59.3 62.2,59.2 C62.2,59.2 62.2,59.1 62.2,59.1 C62.1,59.1 62.1,59.1 62,59.1 Z M61.9,64.2 C61.8,64.2 61.8,64.2 61.7,64.2 C61.6,64.2 61.5,64.3 61.6,64.3 C61.7,64.3 61.7,64.3 61.8,64.3 C61.8,64.3 62,64.3 61.9,64.2 Z M62.2,64.7 C62.3,64.6 62.2,64.5 62.3,64.5 C62.2,64.5 62,64.4 61.9,64.5 C61.8,64.6 61.8,64.6 61.9,64.7 C62.1,64.7 62.1,64.8 62.2,64.7 Z M62.1,60.4 C62,60.3 61.8,60.4 61.8,60.4 C61.7,60.5 61.6,60.6 61.7,60.6 C61.8,60.7 61.9,60.6 62,60.5 C62,60.5 62.2,60.5 62.1,60.4 Z M62.5,60 C62.2,60 62.1,59.9 61.8,59.9 C61.7,59.9 61.7,59.9 61.7,59.9 C61.7,59.9 61.8,59.9 61.8,60 C61.9,60 62,60 62.1,60 C62.3,60.1 62.3,60 62.5,60 Z M62.1,50.2 C62.3,50.2 62.3,50.2 62.5,50.1 C62.6,50.1 62.6,50.1 62.5,50 C62.4,50.1 62.1,50 62.1,50.2 Z M61.2,57.8 C61.3,57.8 61.2,57.7 61.2,57.8 C61.1,57.7 61,57.7 60.9,57.8 C60.9,57.8 60.8,57.8 60.9,57.9 C61,57.8 61.1,57.8 61.2,57.8 Z M62,55.7 C62,55.7 62.1,55.7 62.2,55.7 C62.3,55.7 62.4,55.6 62.6,55.6 C62.6,55.6 62.7,55.6 62.7,55.6 C62.7,55.6 62.7,55.6 62.7,55.6 C62.4,55.6 62.3,55.5 62,55.7 C62.1,55.6 62,55.6 62,55.7 Z M62.3,47.3 C62.3,47.3 62.4,47.3 62.4,47.3 L62.3,47.2 C62.3,47.2 62.3,47.3 62.3,47.3 Z M60.6,58.5 C60.4,58.6 60.3,58.8 60.1,58.9 C59.9,59 60,59 60.1,59.1 C60.3,59 60.5,58.9 60.6,58.7 C60.7,58.6 60.7,58.5 60.9,58.5 C60.8,58.3 60.7,58.4 60.6,58.5 Z M62.5,61.8 C62.5,61.7 62.5,61.7 62.5,61.8 C62.4,61.8 62.3,61.8 62.3,61.7 C62.3,61.7 62.4,61.6 62.3,61.6 C62.2,61.6 62.1,61.6 62.1,61.7 C62.1,61.8 62.1,61.9 62,61.9 C62.1,61.8 62.2,61.8 62.4,61.8 C62.5,61.8 62.5,61.8 62.5,61.8 Z M61.4,58.9 C61.5,58.9 61.4,58.9 61.4,58.9 C61.3,58.9 61.3,58.7 61.1,58.8 C61,58.8 61,58.9 61.1,58.9 C61.2,59 61.3,59 61.4,58.9 Z M61.9,60.1 C61.8,60.2 61.8,60.2 61.9,60.1 C62,60.2 62.1,60.2 62.2,60.1 C62.2,60.1 62.2,60.1 62.2,60 C62,60.1 62,60.1 61.9,60.1 Z M60.2,50.1 C60.1,50.2 60.1,50.2 60.2,50.1 C60.2,50.3 60.2,50.3 60.2,50.1 C60.3,50.2 60.4,50.1 60.4,50.1 C60.3,50.1 60.2,50.1 60.2,50.1 Z M63,65.6 C63.1,65.6 63,65.5 63,65.4 C62.9,65.3 62.9,65.4 62.8,65.4 C62.8,65.4 62.6,65.5 62.7,65.6 C62.8,65.6 62.9,65.6 63,65.6 Z M61.2,65 C61.2,64.9 61.3,64.9 61.2,64.8 C61.1,64.8 61.1,64.8 61,64.8 C60.9,64.9 60.9,64.9 61,65 C61.1,65 61.2,65 61.2,65 Z M62.8,62.9 C62.8,62.9 62.7,62.9 62.8,62.9 C62.7,62.8 62.7,62.8 62.6,62.9 C62.5,63 62.5,63.1 62.3,63.1 C62.2,63.1 62.3,63.2 62.3,63.2 C62.3,63.2 62.4,63.2 62.4,63.2 C62.5,63.1 62.7,63 62.8,62.9 Z M58.4,71.4 C58.5,71.3 58.6,71.3 58.5,71.2 C58.4,71.1 58.4,71.3 58.3,71.3 C58,71.4 58,71.6 58,71.7 C58,71.8 57.9,71.8 58.1,71.9 C58.2,71.9 58.2,71.9 58.3,71.9 C58.4,71.8 58.4,71.7 58.4,71.7 C58,71.5 58.3,71.4 58.4,71.4 Z M63.3,52 C63.2,52 63.1,52 63.1,52 C63.1,52 63,52.1 63.1,52.1 C63.2,52.1 63.2,52.1 63.3,52 C63.3,52.1 63.4,52 63.3,52 Z M58.5,70.6 C58.5,70.6 58.4,70.6 58.3,70.6 C58.2,70.7 58.1,70.7 58.3,70.8 C58.4,70.8 58.4,70.8 58.5,70.8 C58.5,70.7 58.6,70.6 58.5,70.6 Z M56,69 C56.2,69.1 56.5,69 56.6,68.8 C56.7,68.7 56.8,68.6 56.9,68.6 C56.9,68.6 57.1,68.6 57,68.5 C56.9,68.4 56.8,68.4 56.7,68.5 C56.6,68.6 56.4,68.6 56.4,68.7 C56.3,68.6 56.2,68.6 56.1,68.7 C56,68.7 55.9,68.8 55.8,68.8 C55.4,68.9 55.4,69.1 55.7,69.2 C55.8,69.2 55.8,69.2 55.8,69.3 C55.8,69.4 56.2,69.5 56.2,69.5 C56.3,69.4 56.5,69.4 56.6,69.3 C56.6,69.3 56.6,69.3 56.6,69.2 C56.6,69.2 56.5,69.2 56.5,69.2 C56.3,69.3 56.1,69.2 55.9,69.2 C55.7,69.2 55.6,69.1 55.6,69 C55.7,68.9 55.8,69 56,69 Z M61.6,47.6 C61.6,47.7 61.5,47.7 61.5,47.8 C61.6,47.8 61.7,47.8 61.7,47.8 C61.8,47.8 61.7,47.7 61.7,47.7 C61.7,47.6 61.6,47.6 61.6,47.6 Z M58.9,69.6 C58.8,69.6 58.8,69.6 58.7,69.6 C58.4,69.7 58.3,69.8 58,69.8 C57.9,69.8 57.8,69.9 57.8,69.9 C57.8,70 57.9,70 58,70 C58.1,70 58.2,69.9 58.1,69.9 C58.1,69.8 58.1,69.8 58.3,69.8 C58.5,69.8 58.7,69.8 58.9,69.7 C58.9,69.7 58.9,69.7 58.9,69.6 Z M60.9,60.2 C60.9,60.2 61.1,60.1 61,60.1 C60.9,60.1 60.7,60.1 60.6,60.1 C60.5,60.1 60.5,60.2 60.6,60.2 C60.7,60.3 60.8,60.3 60.9,60.2 Z M54.5,71.8 C54.5,71.8 54.6,71.9 54.5,71.8 C54.7,71.8 54.6,71.7 54.6,71.7 C54.6,71.8 54.5,71.8 54.5,71.8 Z M61.4,55.3 C61.3,55.4 61.3,55.4 61.4,55.5 C61.5,55.5 61.6,55.6 61.7,55.5 C61.8,55.4 61.7,55.4 61.6,55.3 C61.5,55.3 61.5,55.3 61.4,55.3 Z M60.2,57.8 C60.1,57.8 60,57.9 60.1,58 C60.2,58 60.2,58 60.3,58 C60.3,57.9 60.5,57.9 60.4,57.8 C60.4,57.7 60.3,57.8 60.2,57.8 Z M60.5,62.4 C60.5,62.5 60.5,62.5 60.6,62.6 C60.6,62.6 60.7,62.6 60.7,62.6 C60.7,62.4 60.6,62.4 60.5,62.4 Z M60.3,67.9 C60.5,67.9 60.4,67.8 60.5,67.7 C60.5,67.7 60.6,67.7 60.6,67.6 C60.5,67.6 60.3,67.6 60.3,67.5 C60.3,67.5 60.2,67.5 60.2,67.5 C60.1,67.6 60,67.6 60.1,67.7 C60.3,67.8 60.2,67.9 60.3,67.9 Z M59.9,58.6 C60.1,58.5 60.1,58.4 60.2,58.4 C60.2,58.4 60.3,58.3 60.2,58.3 C60.1,58.3 60.1,58.3 60,58.3 C59.9,58.3 59.8,58.4 59.9,58.6 Z M50.5,48.1 C50.6,48.1 50.6,48.1 50.5,48.1 C50.4,48 50.3,48 50.2,48.1 C50.2,48.1 50.2,48.1 50.2,48.2 C50.3,48.2 50.4,48.2 50.5,48.1 Z M52.9,68.2 C52.8,68.2 52.7,68.1 52.6,68.2 C52.5,68.3 52.6,68.4 52.6,68.5 C52.7,68.6 52.8,68.5 52.8,68.5 C52.9,68.4 53,68.3 52.9,68.2 Z M53.4,55.4 C53.4,55.4 53.3,55.4 53.3,55.4 C53.3,55.4 53.3,55.4 53.3,55.5 C53.3,55.5 53.4,55.5 53.4,55.4 C53.4,55.5 53.4,55.5 53.4,55.4 Z M53.2,70.6 C53.2,70.6 53.1,70.6 53.1,70.7 C53.1,70.7 53.2,70.7 53.2,70.7 C53.2,70.6 53.2,70.6 53.2,70.6 Z M53.5,59.7 C53.5,59.7 53.7,59.6 53.7,59.5 C53.5,59.6 53.5,59.6 53.5,59.7 Z M53.3,68.1 C53.3,68.1 53.4,68 53.3,67.9 C53.2,67.9 53.2,67.8 53.1,67.8 C53,67.9 53,68 53.3,68 C53.2,68 53.2,68.1 53.3,68.1 Z M53.7,61.6 C53.8,61.5 53.9,61.4 53.9,61.3 C53.6,61.3 53.6,61.4 53.5,61.5 C53.5,61.5 53.5,61.6 53.6,61.6 C53.6,61.7 53.7,61.6 53.7,61.6 Z M53.6,59.9 C53.7,59.9 53.7,59.9 53.8,59.9 C53.9,59.9 53.8,59.8 53.8,59.7 C53.7,59.7 53.7,59.7 53.7,59.7 C53.5,59.8 53.5,59.9 53.6,59.9 Z M52.6,53.6 C52.5,53.7 52.5,53.8 52.7,53.8 C52.8,53.9 53,53.9 53,53.8 C53.1,53.7 53.2,53.7 53.2,53.6 C53.1,53.5 52.7,53.5 52.6,53.6 Z M52.6,60.9 C52.6,60.9 52.5,60.9 52.6,60.9 C52.5,60.9 52.4,60.9 52.5,61 C52.5,61 52.5,61 52.6,60.9 C52.6,60.9 52.6,60.9 52.6,60.9 Z M52.5,63.2 C52.4,63.1 52.3,63.2 52.2,63.2 C52.1,63.3 52.1,63.3 52.1,63.4 C52.2,63.5 52.3,63.4 52.4,63.4 C52.5,63.3 52.5,63.2 52.5,63.2 Z M52.8,63.4 L52.8,63.4 C52.8,63.4 52.9,63.3 52.7,63.3 C52.7,63.3 52.7,63.3 52.7,63.3 C52.6,63.3 52.5,63.4 52.6,63.4 C52.6,63.5 52.7,63.4 52.8,63.4 Z M53,56.6 C53.1,56.6 53.1,56.6 53,56.6 C53,56.5 53.1,56.4 53.1,56.3 C53.1,56.3 53.2,56.2 53.1,56.2 C53,56.2 53,56.2 52.9,56.2 C52.9,56.2 52.9,56.2 52.8,56.3 C52.8,56.3 52.7,56.4 52.7,56.4 C52.9,56.5 52.9,56.6 53,56.6 Z M53.2,69.6 C53.1,69.5 53.3,69.4 53.1,69.4 C53,69.4 52.9,69.4 52.9,69.5 C52.9,69.6 53.1,69.6 53.2,69.6 Z M53.3,51 C53.2,51 53.2,51 53.1,51 C53.1,51 53,51 53.1,51.1 C53.1,51.1 53.2,51 53.3,51 C53.3,51 53.3,51 53.3,51 Z M54.1,65.7 C54.1,65.7 54.1,65.7 54.1,65.7 C54,65.7 53.9,65.7 53.9,65.7 C54,65.7 54,65.7 54.1,65.7 Z M54.2,64.6 C54.3,64.6 54.2,64.6 54.2,64.6 C54.2,64.7 54.1,64.7 54.1,64.7 C54.1,64.7 54.1,64.8 54,64.7 C54.1,64.7 54,64.8 54,64.8 C54.1,64.7 54.2,64.7 54.3,64.7 C54.4,64.7 54.5,64.7 54.6,64.6 C54.5,64.7 54.5,64.5 54.2,64.6 Z M54.1,60.4 C54,60.4 53.9,60.5 54,60.5 C54.1,60.5 54.3,60.5 54.3,60.5 C54.4,60.5 54.5,60.4 54.4,60.3 C54.3,60.2 54.2,60.3 54.1,60.4 Z M54.9,56.1 C54.9,56 54.9,56 54.8,56 C54.6,56 54.6,56.1 54.5,56.2 C54.8,56.3 54.9,56.2 54.9,56.1 Z M54.6,65 C54.6,65 54.5,65 54.5,65 C54.5,65.1 54.3,65.1 54.3,65.2 L54.3,65.2 C54.4,65.3 54.6,65.2 54.7,65.2 C54.8,65.1 54.7,65.1 54.6,65 Z M52.3,63.7 C52.4,63.6 52.3,63.6 52.3,63.5 C52.2,63.5 52.1,63.5 52,63.5 C51.9,63.6 51.9,63.6 52,63.7 C52.1,63.8 52.2,63.8 52.3,63.7 Z M54.1,60.9 C54.1,61 54.2,61 54.2,61.1 C54.2,61.1 54.2,61.1 54.3,61.1 C54.3,61 54.3,61 54.3,60.9 C54.3,60.8 54.3,60.8 54.1,60.9 C54.1,60.8 54.1,60.8 54.1,60.9 Z M53.9,63.3 C54,63.2 54.3,63.2 54.4,63 L54.4,63 C54.4,63 54.4,62.9 54.4,62.9 C54.4,62.9 54.4,62.9 54.4,62.9 C54.3,62.9 54.3,62.8 54.4,62.7 C54.4,62.7 54.4,62.7 54.4,62.7 C54.4,62.7 54.3,62.7 54.3,62.7 C54.3,62.8 54.2,62.8 54.1,62.8 C54,62.9 54.1,62.9 54.1,63 C54.1,63.1 54,63.1 53.9,63.1 C53.9,63.1 53.9,63.2 53.9,63.2 C53.7,63.3 53.8,63.4 53.9,63.3 Z M54,64.2 C54,64.2 54,64.2 54,64.2 C54,64.1 53.9,64.2 54,64.2 C53.9,64.2 53.7,64.2 53.9,64.3 C54,64.3 54,64.2 54,64.2 Z M54.2,66.1 C54.2,66.1 54.1,66.2 54.2,66.2 C54.3,66.2 54.3,66.2 54.4,66.2 C54.4,66.2 54.5,66.2 54.4,66.1 C54.4,66 54.3,66 54.2,66.1 Z M55.8,57.9 C55.8,57.9 55.8,57.9 55.8,57.9 C55.6,57.9 55.7,58 55.6,58 C55.8,58.1 55.9,58 55.8,57.9 Z M54.9,67 C54.8,67 54.8,67 54.7,67.1 C54.7,67.1 54.7,67.1 54.7,67.1 C54.7,67.2 54.7,67.3 54.7,67.3 C54.7,67.3 54.7,67.4 54.8,67.4 C54.8,67.4 54.9,67.4 54.9,67.4 C55,67.3 55.1,67.2 55.4,67.3 C55.4,67.2 55.2,67.2 55.2,67.1 C55.2,66.9 55.2,66.9 54.9,67 Z M55.6,66.9 C55.7,66.9 55.7,66.9 55.7,66.8 C55.7,66.7 55.8,66.6 55.8,66.5 L55.8,66.5 C55.7,66.6 55.7,66.7 55.6,66.9 C55.6,66.8 55.6,66.8 55.6,66.9 Z M55.4,61.7 C55.5,61.8 55.4,61.8 55.6,61.8 C55.7,61.8 55.7,61.7 55.7,61.7 C55.6,61.6 55.5,61.7 55.4,61.7 Z M54.5,57.5 C54.5,57.6 54.5,57.6 54.5,57.5 C54.6,57.6 54.7,57.5 54.7,57.5 C54.8,57.5 54.8,57.4 54.8,57.4 C54.7,57.4 54.6,57.4 54.6,57.4 C54.5,57.4 54.5,57.5 54.5,57.5 Z M55.9,67 C56,67 56,67 56.1,67 C56.1,67 56.2,66.9 56.2,66.8 C56.1,66.8 56.1,66.8 56,66.8 C55.9,66.9 55.8,66.9 55.9,67 Z M54.5,65.4 C54.4,65.4 54.3,65.4 54.1,65.3 C54.1,65.3 54.1,65.3 54.1,65.3 C54.1,65.3 54,65.4 54.1,65.4 C54.3,65.4 54.4,65.5 54.5,65.4 C54.6,65.4 54.6,65.4 54.5,65.4 Z M59.4,66.7 C59.4,66.7 59.3,66.7 59.3,66.7 C59.2,66.7 59.2,66.7 59.1,66.8 C59,66.8 59,66.9 59,66.9 C59,66.9 59,67 59,67 C59.1,67 59.2,67 59.2,67 C59.3,67 59.3,66.9 59.2,66.9 C59.3,66.8 59.3,66.8 59.4,66.7 C59.4,66.8 59.5,66.7 59.4,66.7 Z M55.2,70.6 C55.1,70.6 55,70.6 55,70.6 C55,70.6 54.9,70.7 55,70.7 C55.1,70.7 55.1,70.7 55.2,70.6 C55.2,70.6 55.2,70.6 55.2,70.6 Z M56.4,66.5 C56.4,66.5 56.5,66.5 56.5,66.5 C56.5,66.4 56.5,66.4 56.5,66.3 C56.5,66.3 56.4,66.3 56.4,66.3 C56.4,66.4 56.4,66.5 56.4,66.5 Z M55,70.8 C54.9,70.8 54.9,70.8 54.8,70.8 C54.7,70.8 54.8,70.9 54.8,70.9 C54.8,70.9 54.9,70.9 54.9,70.9 C54.9,70.9 55.1,70.9 55,70.8 Z M55.9,68 C56,68 56,68 55.9,68 C55.8,67.9 55.8,67.9 55.7,68 C55.6,68.1 55.5,68.1 55.3,68.1 C55.1,68.1 54.8,68.1 54.9,68.4 C54.9,68.4 54.9,68.4 54.9,68.4 C54.9,68.4 54.8,68.5 54.9,68.5 C55,68.5 55.1,68.5 55.1,68.4 C55.2,68.2 55.5,68.1 55.8,68.1 C55.9,68.1 55.9,68 55.9,68 Z M55.2,68.5 C55.1,68.6 55.3,68.6 55.3,68.7 C55.4,68.7 55.5,68.7 55.5,68.7 C55.7,68.6 55.5,68.6 55.5,68.5 C55.4,68.4 55.2,68.5 55.2,68.5 Z M52.5,56.8 C52.4,56.8 52.3,56.8 52.3,56.8 C52,56.9 52,57.2 52,57.4 C52,57.4 52.1,57.5 52.1,57.4 C52.2,57.2 52.7,57.2 52.5,56.9 C52.4,57 52.5,57 52.5,56.8 C52.5,56.9 52.5,56.9 52.5,56.8 Z M52.4,61.8 C52.3,61.8 52.3,61.8 52.2,61.8 C52.1,61.9 52,62.1 52.2,62.2 C52.2,62.2 52.3,62.3 52.4,62.2 C52.5,62.2 52.4,62.1 52.4,62.1 C52.3,62.1 52.3,62 52.4,61.8 C52.4,61.9 52.4,61.9 52.4,61.8 Z M53.4,70.4 C53.5,70.4 53.5,70.4 53.5,70.4 C53.5,70.4 53.6,70.4 53.5,70.3 C53.5,70.3 53.5,70.3 53.4,70.4 C53.4,70.4 53.4,70.4 53.4,70.4 Z M53.6,64.3 C53.6,64.3 53.5,64.2 53.4,64.2 C53.3,64.2 53.3,64.3 53.2,64.2 C53,64.3 53,64.4 52.9,64.6 C53,64.6 53,64.5 53.1,64.5 C53.1,64.5 53.2,64.5 53.2,64.5 C53.2,64.5 53.2,64.5 53.2,64.5 C53.2,64.5 53.1,64.4 53.2,64.4 C53.3,64.4 53.3,64.3 53.5,64.4 C53.4,64.4 53.5,64.4 53.6,64.3 C53.6,64.4 53.6,64.3 53.6,64.3 Z M56.8,65.4 C56.8,65.4 56.7,65.5 56.8,65.4 C56.6,65.5 56.5,65.5 56.4,65.5 C56.4,65.5 56.4,65.5 56.4,65.5 C56.4,65.5 56.4,65.6 56.4,65.6 C56.4,65.6 56.4,65.6 56.4,65.7 C56.7,65.8 56.8,65.7 56.9,65.6 C57,65.5 57,65.5 56.8,65.4 Z M57.6,49.2 C57.5,49.2 57.4,49.2 57.4,49.2 C57.4,49.3 57.3,49.4 57.4,49.4 C57.5,49.5 57.6,49.4 57.7,49.4 C57.8,49.3 58.1,49.4 58,49.3 C57.9,49.2 57.8,49.3 57.6,49.3 C57.7,49.3 57.7,49.2 57.6,49.2 Z M51.9,52.5 C51.9,52.4 52,52.4 52.1,52.3 C52.3,52.2 52.5,52.2 52.6,52 C52.7,51.9 52.7,51.9 52.6,51.8 C52.5,51.8 52.4,51.8 52.3,51.8 C52.2,51.8 52.2,51.9 52.2,51.9 C52.2,52 52.2,52 52.1,52 C52,52.3 51.8,52.4 51.9,52.5 Z M52.6,46.8 C52.6,46.8 52.6,46.8 52.6,46.8 C52.3,46.8 52.2,46.9 52.1,47 C52.3,47 52.4,46.9 52.6,46.8 C52.6,46.9 52.7,46.9 52.6,46.8 Z M57.9,66.5 C57.9,66.5 58,66.5 58.1,66.5 C58.2,66.5 58.2,66.4 58.1,66.4 C58.1,66.4 58,66.4 58,66.4 C58,66.4 57.9,66.5 57.9,66.5 Z M62.3,51.3 C62.1,51.3 62.2,51.4 62.1,51.5 C62.2,51.4 62.3,51.4 62.3,51.3 C62.4,51.3 62.3,51.3 62.3,51.3 Z M58.3,65.1 C58.3,65.1 58.3,65.1 58.3,65.1 C58.3,64.9 58.1,64.8 57.9,64.8 C57.8,64.9 58,65 58.1,65.1 C58.1,65.2 58.2,65.2 58.3,65.1 Z M51.8,60.1 C52,60 52,59.9 52.2,59.8 C52.3,59.8 52.2,59.7 52.1,59.7 C52.1,59.7 52,59.7 52,59.7 L52,59.7 L52,59.7 C51.8,59.8 51.7,59.9 51.8,60.1 Z M51.1,58.1 C51.1,58.2 51.2,58.2 51.3,58.2 C51.6,58.2 51.4,58 51.5,57.9 C51.2,57.9 51,57.9 51.1,58.1 Z M51.3,53.2 C51.2,53.3 51.2,53.3 51.3,53.4 C51.3,53.4 51.4,53.4 51.4,53.4 C51.4,53.3 51.3,53.2 51.3,53.2 Z M51.3,57.2 C51.3,57.3 51.3,57.3 51.5,57.3 C51.6,57.3 51.6,57.3 51.6,57.2 C51.5,57.2 51.4,57.3 51.3,57.2 Z M51.5,61.4 C51.6,61.4 51.6,61.4 51.7,61.4 C51.8,61.4 51.8,61.3 51.7,61.3 C51.6,61.3 51.6,61.3 51.5,61.3 C51.5,61.3 51.4,61.3 51.5,61.4 Z M51.5,64.5 C51.5,64.5 51.6,64.5 51.5,64.4 C51.4,64.4 51.3,64.4 51.3,64.4 C51.2,64.4 51.2,64.5 51.2,64.5 C51.3,64.6 51.4,64.6 51.5,64.5 Z M51.9,58.3 C52,58.3 52,58.3 52,58.3 C52.1,58.2 52.2,58.2 52.3,58.1 C52.1,58.1 52,58.1 51.9,58.3 C51.8,58.2 51.8,58.3 51.9,58.3 Z M51.9,64.1 C52.1,64.1 52.1,63.9 52.1,63.8 C52.1,63.8 52,63.8 52,63.8 C51.7,63.9 51.7,64 51.9,64.1 L51.9,64.1 Z M51.9,64.7 C52,64.6 51.9,64.6 51.8,64.6 C51.7,64.6 51.5,64.6 51.4,64.7 C51.4,64.7 51.3,64.7 51.4,64.8 C51.5,64.7 51.9,64.7 51.9,64.7 Z M52.1,66.7 C52.2,66.7 52.1,66.6 52.1,66.6 C52,66.6 52,66.6 51.9,66.6 C51.8,66.6 51.8,66.7 51.9,66.7 C51.9,66.7 52,66.8 52.1,66.7 Z M52,64.9 C51.9,64.9 51.9,65 52,64.9 C52.1,65 52.1,64.9 52.2,64.9 C52.1,64.9 52,64.9 52,64.9 Z M52.1,58.3 C52.1,58.4 52.1,58.4 52.1,58.3 C52,58.4 52,58.4 51.9,58.4 C51.8,58.5 51.9,58.5 51.9,58.6 C51.9,58.6 51.9,58.6 52,58.6 C52.1,58.6 52.1,58.5 52.1,58.5 C52,58.5 52.1,58.4 52.1,58.3 C52.2,58.3 52.3,58.3 52.2,58.3 C52.2,58.3 52.1,58.3 52.1,58.3 Z M51.9,57.9 C52,57.9 52.1,57.9 52.2,57.9 C52.1,57.8 52,57.8 51.9,57.9 Z M51.9,62.2 C52,62.2 52,62.1 51.9,62.1 C51.9,62.1 51.8,62.1 51.8,62.1 C51.7,62.1 51.8,62.2 51.7,62.2 C51.6,62.3 51.6,62.4 51.4,62.4 C51.4,62.4 51.4,62.4 51.4,62.4 C51.4,62.4 51.4,62.5 51.4,62.5 L51.4,62.5 C51.5,62.5 51.7,62.5 51.7,62.4 C51.7,62.3 51.7,62.2 51.9,62.2 Z M51.7,63.4 C51.8,63.4 51.8,63.3 51.7,63.3 C51.6,63.3 51.6,63.4 51.5,63.4 C51.5,63.4 51.4,63.5 51.5,63.5 C51.6,63.5 51.7,63.4 51.7,63.4 Z M51.7,54.1 C51.6,54.1 51.6,54.2 51.7,54.2 C51.8,54.2 51.9,54.2 51.9,54.2 C52,54.2 51.9,54.1 51.8,54.1 C51.8,54.1 51.8,54.1 51.7,54.1 Z M51.7,61.1 C51.8,61.2 51.8,61.1 51.9,61 C52,61 52.1,60.9 51.9,60.9 C51.8,60.9 51.7,60.8 51.6,60.9 C51.5,60.9 51.6,61 51.7,61.1 Z M69.5,58.1 C69.5,58.1 69.5,58.2 69.6,58.2 C69.7,58.2 69.9,58.1 70,58.1 C70,58.1 70,58.1 70,58.1 C69.9,58.1 69.8,58 69.7,58 C69.7,58 69.6,58 69.5,58 C69.4,58 69.5,58.1 69.5,58.1 Z M70,65.4 C70.1,65.4 70.1,65.4 70.1,65.4 C70.1,65.4 70.1,65.4 70.1,65.3 C70.1,65.3 70.1,65.3 70,65.4 C70,65.3 70,65.3 70,65.4 Z M66.3,65.5 C66.1,65.6 66.1,65.7 65.9,65.9 C65.9,65.9 65.9,66 66,66 C66.1,66 66.1,66 66.2,66 C66.5,65.8 66.3,65.7 66.3,65.5 Z M68.1,65.8 C68,65.7 68,65.9 67.8,65.9 C67.8,65.9 67.7,65.9 67.7,65.9 C67.7,66 67.6,66 67.7,66.1 C67.8,66.1 67.8,66.1 67.9,66 C67.9,66 68,66 68,66 C68,66 67.9,66 67.8,66 C68,65.9 68.3,65.9 68.1,65.8 Z M71.8,64.1 C71.8,64 71.7,64 71.6,64.1 C71.5,64.2 71.3,64.3 71.2,64.4 C71.2,64.4 71.1,64.5 71.2,64.5 C71.3,64.5 71.3,64.5 71.4,64.5 C71.4,64.5 71.4,64.5 71.4,64.5 C71.3,64.6 71.4,64.7 71.3,64.7 C71.2,64.7 71.2,64.8 71.3,64.8 C71.4,64.8 71.5,64.8 71.5,64.8 C71.6,64.7 71.6,64.6 71.7,64.6 C71.7,64.6 71.7,64.5 71.7,64.5 C71.7,64.5 71.6,64.5 71.6,64.5 C71.7,64.5 71.7,64.4 71.8,64.4 C72.1,64.2 72.1,64.2 71.8,64.1 Z M65.6,67.7 C65.6,67.7 65.6,67.7 65.6,67.7 C65.7,67.8 65.8,67.8 65.9,67.8 C66,67.8 65.9,67.7 65.9,67.7 C65.8,67.6 65.7,67.6 65.6,67.7 Z M65.7,60.8 C65.6,60.8 65.5,60.8 65.5,60.9 C65.5,60.9 65.5,60.9 65.5,60.9 C65.7,60.9 65.7,60.9 65.7,60.8 Z M65.6,62.8 C65.6,62.8 65.7,62.8 65.7,62.8 C65.7,62.8 65.8,62.8 65.8,62.7 C65.8,62.6 66,62.6 65.9,62.5 C65.8,62.4 65.7,62.5 65.6,62.5 C65.6,62.7 65.5,62.7 65.6,62.8 C65.5,62.8 65.5,62.8 65.6,62.8 Z M66.2,68.3 C66.2,68.3 66.3,68.3 66.2,68.3 C66.4,68.3 66.3,68.2 66.3,68.2 C66.2,68.2 66.2,68.2 66.2,68.3 Z M70.6,63.4 C70.5,63.3 70.5,63.3 70.6,63.3 C70.7,63.3 70.6,63.2 70.6,63.2 C70.4,63.1 70.5,63.1 70.7,63 C70.5,63 70.3,63 70.3,63 C70.3,63.1 70.1,63.2 70.2,63.3 C70.2,63.3 70.3,63.4 70.2,63.4 C70.2,63.4 70.1,63.5 70,63.4 C69.8,63.4 69.8,63.4 69.7,63.5 C69.6,63.6 69.6,63.6 69.6,63.7 C69.5,63.8 69.6,63.8 69.7,63.8 C69.8,63.8 70,63.8 70,63.7 C70,63.5 70.3,63.5 70.5,63.4 C70.6,63.5 70.7,63.5 70.6,63.4 Z M73.1,54.3 C73,54.3 73,54.4 73,54.5 C73.1,54.4 73.2,54.4 73.1,54.3 Z M71.7,52.6 C71.7,52.6 71.7,52.7 71.7,52.7 C71.6,52.9 71.9,52.9 71.9,53.1 C71.9,53.1 72,53.1 72,53.1 C72.1,53.1 72.1,53.1 72.1,53 C72.1,52.9 72.2,52.8 72,52.8 C71.9,52.8 71.9,52.7 71.9,52.7 L71.7,52.6 Z M72.5,64.3 C72.5,64.2 72.6,64.2 72.7,64.2 C72.5,64.2 72.4,64.2 72.3,64.3 C72.2,64.3 72.2,64.4 72.3,64.4 C72.4,64.4 72.5,64.3 72.5,64.3 Z M73,60.9 C73.1,60.9 73.3,60.9 73.3,60.8 C73.3,60.8 73.3,60.8 73.3,60.7 C73.2,60.7 73.2,60.7 73.2,60.7 C73.1,60.8 73,60.8 73,60.9 C72.9,60.9 72.9,60.9 73,60.9 Z M73.4,63.6 C73.4,63.6 73.5,63.6 73.4,63.6 C73.4,63.4 73.2,63.5 73.1,63.5 C73.1,63.5 73.1,63.5 73,63.5 C73,63.6 73.2,63.6 73.4,63.6 Z M72.5,53.5 C72.5,53.5 72.5,53.5 72.5,53.5 C72.4,53.4 72.3,53.4 72.3,53.4 C72.2,53.4 72.1,53.4 72.2,53.5 L72.5,53.6 C72.4,53.6 72.5,53.6 72.5,53.5 Z M66.9,57.7 C67,57.5 67,57.5 66.7,57.5 C66.6,57.5 66.5,57.5 66.5,57.5 C66.6,57.6 66.6,57.6 66.5,57.7 C66.4,57.8 66.4,57.8 66.4,57.9 C66.4,57.9 66.3,58 66.4,58 C66.5,58 66.6,58 66.6,58 C66.7,57.9 66.8,57.8 66.9,57.7 Z M65.9,58.4 C66.3,58.4 66.2,58.2 66.4,58.1 C66,58.1 66,58.3 65.9,58.4 Z M66,62.1 C66.1,62.1 66.1,62.1 66.1,62 C66.1,62 65.9,62 66,62.1 C66,62.1 66,62.1 66,62.1 Z M66.4,51.6 C66.3,51.6 66.3,51.7 66.4,51.7 C66.5,51.7 66.6,51.7 66.6,51.7 C66.7,51.6 66.7,51.5 66.8,51.5 C66.8,51.5 66.8,51.4 66.8,51.4 C66.7,51.4 66.7,51.4 66.6,51.4 C66.4,51.4 66.6,51.6 66.4,51.6 Z M66.4,50.3 C66.4,50.3 66.3,50.4 66.3,50.4 C66.4,50.4 66.4,50.4 66.5,50.4 C66.6,50.4 66.5,50.3 66.5,50.3 C66.5,50.2 66.4,50.3 66.4,50.3 Z M66.2,56.3 C66.2,56.3 66.1,56.4 66.2,56.4 C66.3,56.4 66.3,56.4 66.4,56.4 C66.4,56.4 66.6,56.3 66.5,56.3 C66.3,56.3 66.2,56.3 66.2,56.3 Z M67.1,51 C67.1,51 67,51 66.9,51 C66.8,51.1 66.7,51.1 66.8,51.2 C66.8,51.2 66.9,51.2 67,51.2 C67.1,51.2 67.2,51.1 67.1,51 Z M66.1,53.3 C66.1,53.3 66,53.3 66.1,53.3 C66.2,53.4 66.2,53.4 66.3,53.4 C66.3,53.4 66.4,53.4 66.3,53.3 C66.2,53.2 66.2,53.2 66.1,53.3 Z M74.5,54.3 C74.4,54.4 74.3,54.5 74.2,54.6 C74.1,54.7 74.2,54.8 74.3,54.9 C74.4,54.9 74.4,54.9 74.4,54.9 C74.4,54.9 74.3,55 74.3,55 C74.2,55 74.2,55 74.2,55.1 C74.3,55.2 74.4,55.2 74.2,55.3 C74.2,55.4 74.2,55.4 74.2,55.4 C74.2,55.4 74.2,55.5 74.3,55.5 C74.4,55.5 74.4,55.5 74.4,55.5 C74.4,55.4 74.5,55.4 74.6,55.4 C74.7,55.3 74.8,55.2 74.6,55.1 C74.5,55 74.4,55 74.6,54.9 C74.6,54.9 74.6,54.8 74.6,54.8 C74.5,54.7 74.5,54.6 74.6,54.5 L74.5,54.3 Z M66.3,52.1 C66.4,52.1 66.4,52.1 66.5,52.1 C66.5,52.1 66.6,52 66.5,52 C66.4,52 66.4,52 66.3,52 C66.3,52 66.3,52.1 66.3,52.1 Z M65.4,49.6 C65.3,49.6 65.3,49.6 65.3,49.6 C65.2,49.7 65.1,49.7 65.1,49.8 C65.1,49.8 65.1,49.8 65.1,49.9 C65.1,49.9 65.2,49.9 65.2,49.9 C65.2,49.8 65.3,49.8 65.4,49.6 C65.5,49.7 65.6,49.6 65.5,49.6 C65.4,49.6 65.4,49.6 65.4,49.6 Z M65.1,63 C65.1,63.1 65,63.1 65.1,63.2 C65.1,63.2 65.2,63.2 65.2,63.2 C65.2,63.2 65.2,63.1 65.1,63 C65.2,63 65.1,63 65.1,63 Z M65.6,66.2 C65.6,66.2 65.5,66.2 65.5,66.2 C65.5,66.2 65.4,66.3 65.5,66.3 C65.5,66.3 65.5,66.3 65.6,66.2 C65.6,66.2 65.7,66.2 65.6,66.2 Z M65.8,68.1 C65.9,68.1 65.9,68 65.8,68 C65.7,68 65.6,67.9 65.5,68 C65.4,68 65.5,68.1 65.5,68.1 C65.6,68.1 65.7,68.1 65.8,68.1 Z M65.4,65.7 C65.5,65.6 65.5,65.6 65.4,65.7 C65.3,65.6 65.2,65.6 65.1,65.7 C65.1,65.7 65.1,65.8 65.1,65.8 C65.2,65.7 65.3,65.7 65.4,65.7 Z M65.9,68.5 C66,68.5 66.1,68.5 66.1,68.4 C66.1,68.4 66,68.3 66,68.3 C65.9,68.3 65.8,68.3 65.8,68.4 C65.8,68.4 65.7,68.5 65.8,68.5 C65.8,68.5 65.9,68.5 65.9,68.5 Z M65.5,66.9 C65.4,66.9 65.3,66.9 65.2,66.9 C65.2,66.9 65.2,66.9 65.2,66.9 C65.4,67 65.4,67 65.5,66.9 Z M74.6,58.8 L74.6,58.8 C74.6,58.8 74.6,58.7 74.6,58.8 C74.5,58.7 74.5,58.8 74.4,58.8 C74.5,58.8 74.6,58.8 74.6,58.8 L74.6,58.8 Z M77.2,57.1 C77.1,57.1 77,57 76.9,57.1 C76.8,57.2 76.8,57.2 76.9,57.3 C77,57.4 77,57.3 77.1,57.2 C77.2,57.2 77.3,57.2 77.2,57.1 Z M79.6,57.3 C79.5,57.3 79.5,57.4 79.6,57.4 C79.7,57.5 79.8,57.4 79.9,57.4 C79.9,57.4 79.9,57.4 79.9,57.4 L79.9,57.4 L79.6,57.3 C79.6,57.2 79.6,57.3 79.6,57.3 Z M78.9,58.4 C79,58.3 79.1,58.2 79,58.2 C78.8,58.1 78.8,58.3 78.7,58.3 C78.7,58.3 78.5,58.3 78.6,58.4 C78.6,58.5 78.8,58.5 78.9,58.4 Z M78.9,61.1 C78.9,61 79,61 78.9,61.1 C78.7,61 78.7,61.2 78.5,61.2 C78.6,61.2 78.7,61.2 78.7,61.2 L78.9,61.1 Z M79.1,58.8 C79.1,58.8 79.1,58.9 79.1,58.8 C79.2,58.9 79.3,58.8 79.3,58.8 C79.4,58.7 79.3,58.4 79.3,58.3 C79.2,58.3 79.2,58.3 79.2,58.3 C79.1,58.4 79,58.4 79,58.5 C79,58.5 79,58.6 79,58.6 C79,58.7 79.1,58.7 79.1,58.8 Z M77.5,57.4 C77.6,57.4 77.6,57.3 77.6,57.3 C77.5,57.3 77.4,57.3 77.4,57.3 C77.3,57.3 77.3,57.4 77.4,57.4 C77.3,57.4 77.4,57.5 77.5,57.4 Z M78,58.8 C78.1,58.8 78.3,58.6 78.3,58.5 C78.3,58.5 78.2,58.5 78.1,58.5 C78.1,58.5 78,58.6 78,58.5 C77.9,58.6 77.9,58.6 77.8,58.6 C77.8,58.6 77.7,58.7 77.7,58.7 C77.9,58.8 78,58.8 78,58.8 Z M78.1,57.2 C78.1,57.1 78.2,57 78.2,56.9 C78,56.9 78,57 77.9,57.1 C77.8,57.1 77.8,57.2 77.9,57.2 C77.9,57.2 78,57.2 78,57.2 C78,57.2 78.1,57.2 78.1,57.2 Z M79.6,58.2 C79.7,58.2 79.8,58.1 79.7,58.1 C79.6,58 79.5,58.1 79.4,58.2 C79.3,58.2 79.2,58.3 79.3,58.3 C79.5,58.4 79.5,58.3 79.6,58.2 Z M81.9,58.7 C81.8,58.7 81.7,58.7 81.7,58.8 C81.7,58.8 81.7,58.9 81.6,58.9 C81.7,59 81.5,59 81.7,59.1 C81.9,59.1 82,59.1 81.9,59 C81.9,58.9 81.9,58.9 81.9,58.9 C81.9,58.7 82,58.7 81.9,58.7 Z M80,59.7 C80,59.7 80,59.7 80,59.7 C80,59.8 80,59.8 80,59.7 C80,59.8 80,59.9 80.2,59.9 L80.2,59.9 C80.4,59.8 80.5,59.7 80.3,59.5 C80.2,59.4 80.1,59.5 80,59.4 C79.9,59.4 79.9,59.3 79.8,59.4 C79.7,59.4 79.8,59.5 79.8,59.5 C80,59.6 80,59.7 80,59.7 L80,59.7 Z M55.9,70 C56,69.9 56.2,69.9 56.2,69.7 C56.2,69.6 56.3,69.6 56.4,69.5 C56.5,69.5 56.5,69.5 56.6,69.4 C56.3,69.5 56.1,69.4 55.9,69.4 C55.8,69.4 55.7,69.4 55.7,69.5 C55.7,69.6 55.8,69.7 55.8,69.8 C55.8,70 55.9,70 55.9,70 Z M80.7,59.7 C80.8,59.6 80.7,59.6 80.7,59.5 C80.7,59.5 80.6,59.5 80.6,59.5 C80.5,59.6 80.5,59.6 80.6,59.7 C80.6,59.7 80.7,59.7 80.7,59.7 Z M79.9,58.2 C79.9,58.3 79.8,58.3 80,58.3 C80.1,58.3 80.2,58.4 80.2,58.3 C80.3,58.3 80.3,58.2 80.2,58.1 C80.1,58 80.1,58 80.2,58 C80.2,57.9 80.3,57.9 80.3,57.8 C80,57.9 80,58.1 79.9,58.2 Z M80.5,60.1 C80.6,60.1 80.6,60 80.5,60.1 C80.4,60 80.3,60 80.2,60 C80.2,60 80.2,60 80.1,60 C80.1,60 80.2,60.1 80.3,60.1 C80.4,60.1 80.5,60.1 80.5,60.1 Z M80.3,57.7 C80.2,57.7 80.2,57.7 80.2,57.7 C80.2,57.7 80.1,57.8 80.2,57.8 C80.2,57.8 80.3,57.8 80.3,57.8 C80.4,57.7 80.4,57.7 80.3,57.7 Z M75.8,59.3 C75.6,59.3 75.5,59.3 75.6,59.4 C75.7,59.5 75.7,59.4 75.8,59.3 Z M75.1,62.9 C74.9,62.9 74.8,62.9 74.7,63 C74.7,63 74.7,63 74.7,63 C75,63.1 75,62.9 75.1,62.9 Z M75.1,56.8 C75,56.8 74.9,56.9 74.9,57 C74.9,57 75,57 75,57 C75.1,56.9 75.1,56.8 75.1,56.8 Z M74.8,56.7 C74.8,56.7 74.9,56.6 74.8,56.6 C74.8,56.6 74.7,56.6 74.7,56.6 C74.7,56.6 74.6,56.7 74.7,56.7 C74.7,56.8 74.8,56.7 74.8,56.7 Z M75,58.9 C75.1,58.9 75.2,58.8 75.3,58.7 C75.3,58.7 75.3,58.7 75.3,58.7 C75.2,58.7 75.1,58.8 75,58.7 L75,58.7 C75.1,58.8 74.8,58.9 75,58.9 Z M75.5,63 L75.7,62.9 C75.7,62.9 75.7,62.9 75.7,62.9 C75.7,62.9 75.8,62.8 75.7,62.8 C75.6,62.8 75.5,62.8 75.5,62.9 C75.5,62.9 75.5,62.9 75.4,63 C75.4,63 75.3,63.1 75.3,63.1 C75.4,63.1 75.4,63.1 75.5,63 Z M75.9,62.7 C75.9,62.7 76,62.6 76,62.6 C75.9,62.6 75.8,62.6 75.7,62.6 C75.6,62.6 75.6,62.7 75.7,62.7 C75.8,62.8 75.9,62.7 75.9,62.7 Z M75.2,56.2 C75.2,56.1 75.2,56 74.9,55.9 C74.8,55.9 74.8,55.9 74.8,55.8 C74.8,55.8 74.9,55.7 74.7,55.7 C74.6,55.7 74.6,55.8 74.6,55.8 C74.6,55.9 74.6,56 74.5,56.2 C74.6,56.2 74.8,56.2 74.9,56.2 C75.1,56.3 75.2,56.3 75.2,56.2 Z M75.3,62.1 C75.4,62.1 75.5,61.8 75.4,61.8 C75.4,61.8 75.3,61.8 75.3,61.8 C75.2,61.8 75.2,61.9 75.1,61.9 C75,61.9 74.9,61.9 75,62 C75,62 75.1,62 75.2,62 C75.1,62 75,62 75,62.1 C75.2,62.1 75.2,62.1 75.3,62.1 Z M76.1,61.1 C76.1,61.1 76.1,61.2 76.2,61.2 C76.3,61.2 76.4,61.1 76.3,61.1 C76.2,61 76.2,61.1 76.1,61.1 Z M77.6,58.2 C77.6,58.2 77.8,58.1 77.7,58.1 C77.6,58.1 77.5,58.1 77.5,58.1 C77.4,58.1 77.4,58.2 77.4,58.2 C77.4,58.3 77.5,58.3 77.6,58.2 Z M76.7,55.8 C76.7,55.8 76.7,55.8 76.7,55.8 C76.6,55.9 76.5,56 76.6,56.1 C76.6,56.2 76.7,56.3 76.9,56.3 C76.9,56.3 77,56.3 77,56.3 C77,56.3 77,56.3 77,56.2 C76.7,56.1 76.9,56 77.1,56 C77.1,56 77.2,56 77.2,55.9 C77.2,55.8 77.2,55.8 77.3,55.8 L77.1,55.7 C77,55.8 76.9,55.9 76.7,55.8 Z M73.9,59.7 C73.7,59.8 73.8,59.9 73.9,60 C73.9,60 74.4,60 74.5,59.9 C74.6,59.9 74.6,59.8 74.5,59.8 C74.4,59.7 73.9,59.7 73.9,59.7 Z M67.2,58.9 C67.3,58.9 67.4,58.9 67.3,58.8 C67.3,58.8 67.2,58.8 67.2,58.8 C67.2,58.8 67.1,58.8 67.1,58.8 C67.1,58.8 67.1,58.8 67.2,58.9 C67.1,58.8 67.1,58.8 67.1,58.8 C67.1,58.9 67.1,58.9 67.2,58.9 Z M76.5,61.5 C76.5,61.5 76.5,61.5 76.5,61.5 C76.4,61.4 76.3,61.5 76.2,61.5 C76.2,61.5 76.2,61.5 76.1,61.5 C76.1,61.5 76.1,61.6 76.2,61.6 C76.3,61.6 76.4,61.6 76.5,61.5 Z M68.2,52.8 C68.1,52.9 68.1,52.9 68.2,52.8 C68.3,52.9 68.4,52.9 68.4,52.9 C68.5,52.9 68.4,52.8 68.4,52.8 C68.3,52.8 68.2,52.8 68.2,52.8 Z M63.2,56.5 C63.2,56.5 63,56.5 63,56.6 C63.1,56.6 63.1,56.6 63.2,56.5 C63.2,56.5 63.2,56.5 63.2,56.5 Z M63.2,56.7 C63.3,56.7 63.4,56.7 63.4,56.6 C63.2,56.6 63.2,56.7 63.2,56.7 Z M59.8,66.6 C59.7,66.7 59.7,66.7 59.8,66.8 C59.8,66.8 59.9,66.8 59.9,66.8 C60,66.7 59.9,66.7 59.8,66.6 Z M61.7,66.6 C61.7,66.6 61.7,66.7 61.7,66.6 C61.8,66.7 61.8,66.7 61.9,66.7 C61.9,66.7 61.9,66.7 61.9,66.6 C61.9,66.6 61.8,66.6 61.7,66.6 Z M59.6,67.9 C59.6,67.9 59.5,68 59.6,67.9 C59.7,68 59.8,68 59.8,68 C59.9,68 59.8,67.9 59.8,67.9 C59.8,67.8 59.7,67.9 59.6,67.9 Z M62.2,66.3 C62.2,66.2 62.2,66.1 62.3,66 C62.3,66 62.4,65.9 62.3,65.9 C62.2,65.9 62.2,65.8 62.1,65.8 C62,65.8 62,65.8 62,65.9 C62,65.9 62,66 62,66 C62,66 62,66.1 61.8,66.1 C61.7,66.1 61.5,66.1 61.5,66 C61.5,65.9 61.4,65.8 61.4,65.7 C61.4,65.6 61.3,65.6 61.2,65.6 C61.1,65.6 61.1,65.7 61.1,65.7 C61.1,65.7 61.1,65.8 61.1,65.8 C61.1,65.9 61.1,65.9 61.2,65.9 C61.4,65.9 61.4,66 61.4,66.1 C61.4,66.1 61.3,66.2 61.3,66.2 C61.3,66.2 61.2,66.3 61.3,66.3 C61.3,66.3 61.4,66.3 61.4,66.3 C61.5,66.3 61.5,66.2 61.6,66.3 C61.8,66.4 61.9,66.4 62,66.3 C62.2,66.3 62.2,66.3 62.2,66.3 Z M71.8,62.1 C71.9,62.1 71.9,62.1 72,62.1 C72,62.1 72,62.1 72,62 C71.9,62 71.8,62 71.8,62.1 C71.7,62.1 71.7,62.1 71.8,62.1 Z M71.8,58.1 C71.8,58.2 71.6,58.2 71.7,58.3 C71.7,58.3 71.8,58.3 71.8,58.3 C71.8,58.3 71.9,58.2 71.9,58.2 C71.9,58 71.8,58 71.8,58.1 Z M71.2,65.2 C71.3,65.2 71.3,65.2 71.4,65.2 C71.4,65.2 71.5,65.1 71.4,65.1 C71.3,65.1 71.3,65.1 71.2,65.1 C71.3,65 71.2,65.1 71.2,65.2 Z M71.6,63.2 C71.7,63.2 71.7,63.1 71.6,63 C71.5,62.9 71.4,63 71.2,63 C71.2,63.1 71.1,63.1 71.2,63.2 C71.3,63.2 71.5,63.2 71.6,63.2 Z M66.6,49.7 C66.6,49.7 66.6,49.8 66.7,49.8 C66.7,49.8 66.7,49.8 66.8,49.8 L66.8,49.8 L66.6,49.7 Z M63.5,62.2 C63.5,62.1 63.6,62.1 63.6,62 C63.4,62.1 63.4,62.1 63.5,62.2 Z M69.5,51.6 C69.4,51.7 69.5,51.7 69.5,51.8 C69.5,51.9 69.6,51.9 69.7,51.8 C69.7,51.8 69.7,51.8 69.7,51.7 C69.8,51.6 69.8,51.6 69.9,51.5 L69.7,51.4 C69.6,51.5 69.5,51.5 69.5,51.6 Z M71.3,59.7 C71.3,59.7 71.3,59.7 71.3,59.7 C71.2,59.6 71.1,59.6 71.1,59.6 C71,59.6 71,59.7 71.1,59.7 C71.1,59.8 71.2,59.7 71.3,59.7 Z M63.1,53.4 C63,53.4 63.1,53.4 63.1,53.4 C63.4,53.5 63.3,53.4 63.3,53.3 C63.3,53.3 63.3,53.3 63.3,53.2 C63.1,53.2 63.1,53.3 63.1,53.4 Z M63,53.5 C62.9,53.5 62.9,53.5 62.9,53.5 C62.9,53.6 62.9,53.7 63,53.7 C63,53.7 63.1,53.7 63.1,53.7 C63.1,53.8 63.1,53.6 63,53.5 Z M63.2,56.3 C63.2,56.3 63.1,56.3 63.1,56.3 C63.1,56.3 63,56.4 63.1,56.4 C63.1,56.4 63.2,56.4 63.2,56.5 C63.2,56.5 63.2,56.4 63.2,56.3 C63.3,56.4 63.3,56.4 63.2,56.3 Z M63.3,52.6 C63,52.5 63,52.5 62.9,52.7 C63,52.7 63,52.7 63.1,52.7 C63.1,52.6 63.2,52.6 63.3,52.6 Z M62.7,49.3 C62.4,49.3 62.3,49.5 62.3,49.6 C62.5,49.4 62.9,49.3 63.1,49.1 C62.9,49.2 62.9,49.3 62.7,49.3 Z M62.5,56.8 C62.5,56.7 62.7,56.7 62.6,56.6 C62.5,56.6 62.5,56.6 62.4,56.6 C62.3,56.7 62.3,56.7 62.4,56.8 C62.4,56.8 62.5,56.8 62.5,56.8 Z M62.3,57.5 C62.3,57.5 62.3,57.6 62.2,57.6 C62.2,57.6 62.1,57.7 62.2,57.7 C62.3,57.7 62.4,57.7 62.4,57.6 C62.4,57.5 62.4,57.5 62.5,57.5 C62.5,57.4 62.6,57.4 62.6,57.3 C62.6,57.3 62.5,57.3 62.5,57.3 C62.4,57.3 62.3,57.3 62.3,57.5 C62.3,57.4 62.3,57.4 62.3,57.5 Z M62,54.7 C62,54.7 61.9,54.7 61.9,54.7 C61.9,54.7 61.9,54.7 61.9,54.8 C61.9,54.8 62,54.8 62,54.7 C62,54.8 62,54.8 62,54.7 Z M60.1,59.4 C60.1,59.3 60.2,59.2 60.1,59 C60.1,59 60,59.1 59.9,59.1 C59.9,59.1 59.8,59.1 59.8,59.1 C59.9,59.2 59.8,59.3 59.9,59.4 C59.9,59.4 60,59.5 60,59.5 C60,59.4 60.1,59.4 60.1,59.4 Z M60.5,56.4 C60.6,56.4 60.6,56.4 60.7,56.4 C60.9,56.3 61.1,56.1 61.3,56 C61.4,56 61.3,55.9 61.3,55.9 C61.3,55.9 61.2,55.9 61.2,55.9 C61.1,56 60.9,56 60.8,56.1 C60.7,56.2 60.7,56.3 60.5,56.3 C60.5,56.3 60.4,56.4 60.5,56.4 Z M61.8,58.9 C61.8,58.9 61.8,58.9 61.8,58.9 C62,58.8 62.1,58.7 62.4,58.8 C62.5,58.8 62.6,58.8 62.7,58.8 C62.8,58.8 62.8,58.7 62.7,58.7 C62.6,58.6 62.5,58.6 62.4,58.6 C62.2,58.6 62.1,58.7 61.9,58.7 C61.7,58.7 61.8,58.8 61.8,58.9 Z M60.7,46.6 C60.6,46.6 60.5,46.7 60.5,46.7 C60.5,46.7 60.5,46.7 60.6,46.7 C60.6,46.7 60.6,46.7 60.7,46.6 Z M60.7,48.5 C60.8,48.5 60.9,48.4 61,48.4 C60.8,48.3 60.7,48.4 60.7,48.5 Z M70.5,64.4 C70.6,64.4 70.8,64.4 70.8,64.3 C70.8,64.3 70.8,64.3 70.8,64.2 C70.7,64.2 70.5,64.2 70.4,64.3 C70.4,64.3 70.3,64.4 70.3,64.4 C70.3,64.4 70.4,64.4 70.5,64.4 Z M68.3,62.1 C68.3,62.1 68.2,62.1 68.2,62.1 C68.1,62.2 68,62.3 68.1,62.4 C68.2,62.4 68.2,62.4 68.3,62.4 C68.3,62.3 68.4,62.2 68.3,62.1 Z M68.9,61.6 C69.1,61.5 69,61.4 68.9,61.4 C68.9,61.4 68.8,61.4 68.7,61.4 C68.6,61.5 68.6,61.6 68.7,61.6 C68.8,61.7 68.8,61.7 68.9,61.6 Z M68.7,64.9 C68.8,64.9 68.8,64.8 68.8,64.8 C68.7,64.8 68.6,64.8 68.6,64.8 C68.6,64.9 68.3,64.9 68.5,65 C68.5,65.1 68.6,65 68.7,64.9 Z M69.1,58 C69.2,57.9 69.1,57.9 69.1,57.9 C69.1,57.9 69,57.8 68.9,57.9 C68.8,58 68.9,58 68.9,58.1 C68.9,58 69,58 69.1,58 Z M69.3,58.6 C69.4,58.6 69.4,58.6 69.3,58.6 C69.2,58.5 69.1,58.5 68.9,58.5 C68.9,58.5 68.8,58.6 68.8,58.6 C69.1,58.7 69.2,58.6 69.3,58.6 Z M70.4,56.7 C70.3,56.7 70.3,56.8 70.3,56.9 C70.3,56.9 70.4,56.9 70.4,56.9 C70.5,56.9 70.5,56.8 70.5,56.9 C70.7,57 70.8,56.9 71,56.8 C70.9,56.8 70.7,56.8 70.6,56.7 C70.6,56.6 70.4,56.6 70.4,56.7 Z M54.2,68.6 C54.2,68.6 54.3,68.5 54.2,68.5 C54.1,68.5 54,68.5 54,68.5 C53.9,68.5 53.9,68.6 54,68.6 C54.1,68.7 54.1,68.7 54.2,68.6 Z M69.6,53.8 C69.5,53.9 69.6,53.9 69.7,54 C69.7,53.9 69.7,53.8 69.6,53.8 Z M62.5,54.4 C62.6,54.4 62.5,54.3 62.4,54.3 C62.3,54.3 62.3,54.2 62.2,54.3 C62.2,54.3 62.1,54.4 62.2,54.5 C62.3,54.5 62.4,54.4 62.5,54.4 Z M71.1,64.6 C70.9,64.6 70.9,64.8 70.7,64.8 C70.7,64.8 70.6,64.8 70.6,64.9 C70.6,64.9 70.7,64.9 70.7,64.9 C71,64.8 71.1,64.7 71.1,64.6 Z M67.9,50.8 C67.9,50.7 67.9,50.7 68,50.6 C68,50.6 68,50.6 67.9,50.6 C67.8,50.6 67.7,50.6 67.7,50.7 C67.7,50.8 67.7,50.8 67.7,50.9 C67.8,50.8 67.9,50.8 67.9,50.8 Z M67.7,56.2 C67.6,56.2 67.4,56.2 67.3,56.3 C67.2,56.3 67.2,56.4 67.3,56.4 C67.4,56.4 67.5,56.3 67.7,56.2 C67.7,56.3 67.8,56.2 67.7,56.2 Z M68.6,52.2 C68.6,52.1 68.6,52.1 68.6,52.2 C68.4,52.1 68.3,52 68.2,52.1 C68.1,52.2 68,52.3 68.1,52.4 C68.2,52.5 68.2,52.4 68.4,52.4 C68.4,52.4 68.5,52.4 68.5,52.4 C68.6,52.3 68.6,52.2 68.6,52.2 Z M67.9,51.7 C67.8,51.8 67.7,51.8 67.7,51.9 C67.7,51.9 67.7,52 67.8,52 C67.9,52 67.9,52 67.9,51.9 C67.9,51.8 68,51.8 68,51.7 C68,51.6 68.2,51.6 68,51.5 C68.1,51.6 68,51.7 67.9,51.7 Z M70.7,53.4 C70.7,53.4 70.7,53.4 70.7,53.4 C70.6,53.4 70.6,53.5 70.5,53.5 C70.5,53.5 70.6,53.5 70.6,53.5 C70.7,53.5 70.7,53.4 70.7,53.4 Z M67.8,62 C67.8,61.9 68,61.9 67.9,61.8 C67.8,61.7 67.7,61.8 67.7,61.8 C67.6,61.8 67.5,61.9 67.6,61.9 C67.7,62.1 67.8,62.1 67.8,62 Z M67.8,51.6 C67.8,51.6 67.8,51.6 67.8,51.6 C68,51.4 68.1,51.3 68.1,51.1 C68.1,51.1 68.1,51 68.1,51 C68.1,51 68,51 68,51.1 C67.6,51.2 67.7,51.4 67.8,51.6 C67.7,51.6 67.7,51.6 67.8,51.6 Z M69.4,65.4 C69.5,65.4 69.4,65.3 69.4,65.3 C69.3,65.3 69.2,65.3 69.2,65.3 C69.2,65.3 69.1,65.4 69.2,65.4 C69.2,65.5 69.3,65.5 69.4,65.4 Z M70,57.2 C70.1,57.2 70.2,57.3 70.3,57.2 C70.2,57.2 70.1,57.2 70,57.2 Z M69.2,59.1 C69.3,59.1 69.4,59.1 69.5,59.2 C69.5,59.2 69.6,59.3 69.7,59.3 C69.8,59.3 69.8,59.3 69.8,59.3 C69.8,59.3 69.9,59.3 69.8,59.2 C69.8,59.2 69.7,59.2 69.7,59.2 C69.5,59.2 69.5,59.1 69.5,59.1 C69.5,59 69.5,59 69.6,59 C69.6,59 69.7,59 69.7,59 C69.6,58.8 69.8,58.9 70,58.9 C69.7,58.8 69.5,58.7 69.2,58.9 C69.4,58.9 69.4,59 69.2,59.1 Z M70.2,57.6 C70.1,57.6 70.1,57.7 70.2,57.6 C70.3,57.7 70.4,57.6 70.4,57.6 C70.7,57.6 70.7,57.5 70.7,57.4 C70.7,57.4 70.7,57.4 70.6,57.4 C70.5,57.4 70.4,57.5 70.4,57.6 C70.4,57.6 70.4,57.6 70.4,57.6 C70.3,57.6 70.2,57.6 70.2,57.6 Z M70.9,56.5 C70.9,56.5 70.9,56.5 70.9,56.5 C71,56.5 71,56.5 71,56.5 C71,56.4 71,56.4 70.9,56.5 C70.9,56.4 70.8,56.4 70.9,56.5 Z M67.5,66.9 C67.5,66.9 67.6,66.8 67.5,66.8 C67.4,66.8 67.4,66.8 67.3,66.8 C67.3,66.8 67.2,66.9 67.3,66.9 C67.4,66.9 67.5,66.9 67.5,66.9 Z M69.6,63.2 C69.5,63.3 69.5,63.3 69.6,63.2 C69.5,63.3 69.6,63.3 69.6,63.2 C69.7,63.2 69.8,63.2 69.9,63.2 C69.8,63.2 69.7,63.2 69.6,63.2 Z M69.2,64.9 C69.2,64.9 69.1,64.9 69.1,64.9 C69.1,65 69,65 69,65.1 C69,65.2 69.1,65.2 69.2,65.2 C69.3,65.2 69.3,65.2 69.4,65.2 C69.4,65.1 69.6,65.1 69.7,65 C69.4,65 69.3,65 69.2,64.9 Z M70.2,62.9 C70.1,62.9 70.1,62.9 70.2,62.9 C69.9,62.9 69.8,62.9 69.7,63 C69.8,63.1 70,63.1 70.2,62.9 C70.1,63 70.2,63 70.2,62.9 Z M69.3,61.2 C69.3,61.1 69.3,61.1 69.3,61.2 C69.3,61.1 69.2,61.1 69.2,61.1 C69.2,61.1 69.2,61.1 69.2,61.2 C69.2,61.2 69.2,61.2 69.3,61.2 Z M69.7,62.7 C69.8,62.6 69.6,62.5 69.6,62.5 C69.5,62.5 69.4,62.4 69.3,62.5 C69.2,62.6 69.2,62.7 69.3,62.7 C69.4,62.7 69.6,62.8 69.7,62.7 Z M69.3,63.4 C69.4,63.4 69.4,63.4 69.3,63.4 C69.3,63.3 69.2,63.3 69.1,63.3 C69.2,63.4 69.2,63.4 69.3,63.4 Z M70.7,61.2 C70.8,61.2 70.7,61.1 70.7,61.2 C70.6,61.1 70.5,61.1 70.4,61.1 C70.4,61.1 70.4,61.2 70.4,61.2 C70.5,61.2 70.6,61.2 70.7,61.2 Z M70.5,57.9 C70.5,57.9 70.6,57.9 70.5,57.9 C70.4,57.8 70.4,57.8 70.3,57.8 C70.2,57.8 70.2,57.9 70.3,57.9 C70.3,58 70.4,57.9 70.5,57.9 Z M70.2,58.5 C70.2,58.4 70,58.4 69.9,58.4 C69.9,58.4 69.8,58.4 69.8,58.4 C69.8,58.4 69.8,58.5 69.8,58.5 C70.1,58.5 69.9,58.6 69.9,58.7 C70.2,58.7 70.3,58.6 70.2,58.5 Z M71,57.3 C70.9,57.3 70.8,57.3 70.8,57.4 C70.8,57.5 71,57.4 71,57.5 C71,57.6 70.9,57.6 70.8,57.6 C70.8,57.6 70.7,57.6 70.7,57.7 C70.7,57.7 70.8,57.7 70.8,57.7 C70.9,57.7 70.9,57.7 71,57.7 C71.1,57.6 71.2,57.7 71.3,57.6 C71.2,57.5 71.3,57.4 71.4,57.3 C71.2,57.3 71.1,57.3 71,57.3 Z M58.2,53.7 C58.1,53.7 58.1,53.7 58.2,53.7 C58.3,53.8 58.4,53.8 58.4,53.8 C58.5,53.8 58.4,53.8 58.4,53.7 C58.3,53.6 58.2,53.6 58.2,53.7 Z M44.2,59.7 C44.2,59.7 44.1,59.6 44.2,59.7 C44,59.7 44,59.8 43.9,59.9 C44.1,59.8 44.1,59.7 44.2,59.7 Z M43,59.4 C42.9,59.4 42.9,59.4 42.9,59.4 C42.9,59.5 43,59.5 43,59.4 C43.1,59.5 43.2,59.4 43,59.4 Z M43.9,60.7 C43.9,60.6 43.8,60.6 43.7,60.6 C43.6,60.6 43.6,60.6 43.5,60.7 C43.5,60.7 43.5,60.7 43.6,60.8 C43.6,60.8 43.7,60.8 43.7,60.8 C43.8,60.8 43.9,60.8 43.9,60.7 Z M43.9,61.1 C44,61.1 43.9,61 43.9,61 C43.9,61 43.9,61 43.9,61 C44,61 44,60.9 43.9,60.9 C43.8,60.9 43.7,60.9 43.6,60.9 C43.5,60.9 43.6,61 43.6,61 C43.6,61 43.6,61 43.6,61 C43.6,61 43.6,61 43.6,61 C43.6,61 43.6,61 43.6,61 C43.7,61.1 43.8,61.1 43.9,61.1 Z M42.6,65.6 C42.7,65.6 42.8,65.6 42.9,65.6 C42.9,65.6 43,65.6 42.9,65.5 C42.8,65.5 42.7,65.5 42.6,65.6 C42.6,65.5 42.6,65.6 42.6,65.6 Z M44.2,55.9 L44.2,55.9 C44.2,55.9 44.3,55.9 44.2,55.9 C44.2,55.8 44.1,55.8 44.1,55.9 C44.1,55.9 44.1,55.9 44.2,55.9 Z M43,64.2 C43,64.2 42.9,64.2 42.8,64.2 C42.6,64.2 42.6,64.3 42.5,64.4 C42.5,64.4 42.6,64.4 42.6,64.5 C42.7,64.5 42.8,64.4 42.9,64.4 C43.1,64.3 43.1,64.2 43,64.2 Z M43.9,61.8 C44,61.8 44,61.7 44.1,61.7 C44.1,61.7 44.2,61.7 44.2,61.6 C43.9,61.6 43.9,61.6 43.9,61.8 Z M54.4,69.1 C54.4,69 54.6,69 54.5,68.9 C54.4,68.9 54.3,68.9 54.2,68.9 C54.1,69 54.1,69 54.2,69.1 C54.3,69.1 54.4,69.1 54.4,69.1 Z M45.3,62.4 C45.1,62.4 45.1,62.5 44.9,62.6 C44.9,62.6 44.9,62.7 45,62.7 C45.3,62.6 45.4,62.5 45.3,62.4 Z M45.1,66.1 C45,66 44.9,65.9 44.7,66 C44.7,66.1 44.7,66.2 44.6,66.3 C44.6,66.3 44.6,66.3 44.6,66.3 C44.6,66.3 44.6,66.3 44.6,66.3 C44.8,66.4 44.9,66.3 45,66.3 C45.1,66.2 45.2,66.1 45.1,66.1 Z M44.8,57.1 C44.8,57.1 44.9,57.2 44.8,57.1 C44.9,57.3 45,57.3 45.1,57.2 C45.2,57.2 45.2,57.1 45.2,57.1 C45.2,57 45,57.1 44.9,57 C44.9,57.1 44.8,57.1 44.8,57.1 Z M43.8,62 C43.8,62 43.8,62.1 43.8,62.1 C43.8,62.2 44,62.3 43.8,62.4 C43.9,62.4 44,62.4 43.9,62.3 C43.8,62.2 43.9,62.2 44,62.1 C44.2,62 44.1,62 43.8,62 Z M44.2,58.4 C44.3,58.5 44.4,58.6 44.6,58.5 C44.6,58.3 44.4,58.4 44.2,58.4 Z M44.3,59.9 C44.2,59.9 44,59.9 44,60.1 C44,60.2 43.9,60.2 43.8,60.2 C43.8,60.2 43.9,60.3 43.8,60.3 L43.8,60.3 C44.1,60.3 44.2,60.3 44.1,60.2 C44,60.2 44.1,60.1 44.1,60.1 L44.1,60.1 L44.1,60.1 C44,60 44.3,60 44.3,59.9 Z M41.4,60.7 C41.3,60.7 41.2,60.7 41.2,60.8 C41.2,60.9 41.4,60.9 41.5,60.9 C41.5,60.9 41.5,60.9 41.5,60.9 C41.5,60.8 41.5,60.8 41.4,60.7 C41.5,60.7 41.4,60.7 41.4,60.7 Z M41.3,60.5 C41.3,60.5 41.3,60.6 41.3,60.5 C41.3,60.7 41.4,60.6 41.5,60.6 C41.5,60.6 41.6,60.6 41.6,60.6 C41.5,60.5 41.5,60.5 41.3,60.5 Z M41.7,58.2 C41.6,58.2 41.6,58.3 41.7,58.3 C41.7,58.3 41.8,58.3 41.8,58.3 C41.9,58.3 41.8,58.2 41.8,58.2 C41.8,58.2 41.8,58.2 41.7,58.2 Z M41.8,56.7 C41.7,56.7 41.7,56.8 41.8,56.8 C41.9,56.8 42,56.8 42.1,56.8 C42.2,56.8 42.1,56.7 42.1,56.7 C42,56.7 41.9,56.7 41.8,56.7 Z M41.7,54.7 C41.9,54.7 42,54.6 42,54.5 C41.8,54.5 41.7,54.6 41.7,54.7 C41.6,54.6 41.6,54.7 41.7,54.7 Z M42,55 C41.9,55 41.9,55.1 41.9,55.2 C42,55.1 42,55.1 42,55 C42.1,55 42.1,55 42,55 Z M42,57.2 C42.1,57.3 42.2,57.2 42.2,57.2 C42.2,57.2 42.2,57.2 42.3,57.1 C42.3,57.1 42.5,57 42.4,57 C42.3,56.9 42.2,57.1 42.1,57.1 C42.1,57.1 42.1,57.1 42,57.1 C42,57.1 41.9,57.2 42,57.2 Z M42.9,55.8 C42.9,55.7 43,55.7 43,55.6 C42.8,55.6 42.8,55.7 42.9,55.8 Z M42.4,57.9 C42.3,57.9 42.3,57.9 42.3,57.9 C42.3,57.7 42.1,57.8 42,57.8 C41.9,57.8 41.9,57.8 41.8,57.8 C41.7,57.8 41.7,57.7 41.6,57.8 C41.5,57.8 41.7,57.9 41.7,57.9 C41.7,58 41.8,57.9 41.9,57.9 C42,57.9 42.1,57.8 42.1,58 C42.1,58 42.1,58 42.2,58.1 C42.3,58.1 42.4,58.2 42.5,58.3 C42.6,58.3 42.7,58.4 42.7,58.3 C42.8,58.1 42.6,57.9 42.4,57.9 Z M43.3,59.1 C43.2,59.1 43.1,59.2 43.2,59.3 C43.4,59.2 43.4,59.1 43.3,59.1 Z M43.2,57.5 C43.1,57.6 43,57.7 42.9,57.8 C42.9,57.8 42.8,57.9 42.9,58 C43,58 43.1,58 43.2,58 C43.5,57.9 43.1,57.7 43.3,57.7 C43.3,57.7 43.3,57.6 43.3,57.6 C43.3,57.4 43.2,57.4 43.2,57.5 Z M42.4,55.6 C42.3,55.7 42.2,55.8 42.1,55.8 C42,55.9 41.9,55.9 42,56.1 C42.2,55.9 42.4,55.8 42.5,55.7 C42.5,55.7 42.7,55.7 42.6,55.6 C42.5,55.5 42.4,55.5 42.4,55.6 Z M42.7,56.7 C42.7,56.7 42.8,56.7 42.9,56.7 C43,56.7 43.1,56.7 43.2,56.7 C43.3,56.7 43.3,56.6 43.3,56.5 C43.2,56.5 43.1,56.4 43,56.5 C43,56.5 43,56.6 42.9,56.6 C42.8,56.6 42.7,56.7 42.7,56.7 Z M42.2,59.1 C42.2,59.1 42.2,59.1 42.2,59.1 C42.1,59.1 42,59.1 42,59.2 C42,59.3 42.1,59.2 42.2,59.2 C42.3,59.2 42.3,59.2 42.4,59.2 C42.4,59.2 42.4,59.3 42.5,59.3 C42.6,59.3 42.5,59.2 42.5,59.2 C42.5,59.2 42.4,59.2 42.4,59.1 C42.4,59.1 42.5,59 42.6,59.1 C42.7,59.1 42.7,59.1 42.8,59.1 C42.4,59 42.4,59 42.2,59.1 Z M42.6,58.3 C42.6,58.3 42.5,58.3 42.6,58.3 C42.4,58.3 42.2,58.2 42,58.3 C42.1,58.4 42.3,58.5 42.4,58.4 C42.5,58.4 42.6,58.4 42.6,58.3 Z M58,67.1 C58,67 58,67 58,67.1 C57.9,67 57.9,67 57.8,67 C57.8,67 57.8,67.1 57.8,67.1 C57.9,67.1 58,67.1 58,67.1 Z M57.6,64.9 C57.5,64.9 57.4,64.9 57.4,64.9 C57.3,65.1 57.1,65.1 56.9,65.2 C56.8,65.2 56.8,65.3 56.9,65.3 C56.9,65.3 57,65.4 57.1,65.3 C57.2,65.2 57.4,65.2 57.5,65.1 C57.6,65 57.7,65 57.7,64.9 C57.7,65 57.7,65 57.6,64.9 Z M59,69 C58.9,68.9 58.7,69 58.5,69 C58.4,69.1 58.7,69.2 58.8,69.3 C58.8,69.4 59,69.3 59,69.3 C59.1,69.2 59.1,69.1 59,69 Z M57.4,69.4 C57.5,69.4 57.5,69.3 57.4,69.3 C57.3,69.3 57.2,69.3 57.1,69.4 C57,69.4 57,69.5 57.1,69.5 C57.3,69.5 57.4,69.5 57.4,69.4 Z M56.3,44.1 C56.5,44.2 56.5,44.2 56.7,44 L56.7,44 L56.7,44 C56.7,44 56.7,44 56.7,44 C56.7,44 56.6,44 56.6,44 C56.6,44 56.6,44 56.6,44 C56.6,44 56.5,44 56.5,44 C56.4,44 56.4,44 56.3,44.1 Z M59.5,67.4 C59.5,67.4 59.6,67.3 59.5,67.3 C59.4,67.3 59.3,67.3 59.3,67.3 C59.2,67.3 59.3,67.4 59.3,67.4 C59.4,67.5 59.4,67.5 59.5,67.4 Z M59.4,68.5 C59.4,68.5 59.3,68.5 59.2,68.4 C59.1,68.4 59,68.4 59,68.4 C59,68.4 59,68.3 59,68.3 C59,68.3 58.9,68.3 58.8,68.3 C58.8,68.4 58.7,68.4 58.8,68.5 C58.8,68.5 58.8,68.5 58.8,68.5 C58.8,68.5 58.7,68.6 58.7,68.6 C58.7,68.6 58.6,68.7 58.7,68.7 C58.8,68.7 58.8,68.7 58.9,68.7 C59.1,68.7 59.1,68.6 59.2,68.5 C59.3,68.5 59.4,68.5 59.4,68.5 Z M44.4,67.3 C44.4,67.4 44.4,67.4 44.3,67.5 C44.4,67.5 44.5,67.5 44.5,67.5 C44.5,67.4 44.6,67.3 44.7,67.2 C44.9,67 44.9,67 44.6,66.8 C44.6,66.9 44.6,66.9 44.5,66.9 C44.4,67 44.4,67.2 44.4,67.3 Z M54.8,68.8 C54.9,68.8 54.9,68.7 54.8,68.8 C54.7,68.7 54.7,68.7 54.6,68.7 C54.6,68.7 54.6,68.7 54.6,68.8 C54.7,68.8 54.8,68.8 54.8,68.8 Z M53.9,69.4 C54,69.3 53.9,69.3 53.9,69.2 C53.9,69.2 53.8,69.2 53.7,69.2 C53.6,69.3 53.6,69.3 53.7,69.3 C53.8,69.4 53.8,69.4 53.9,69.4 Z M53.8,67.2 C53.9,67.1 53.6,67 53.6,66.9 C53.2,67.1 53.5,67.3 53.5,67.4 C53.7,67.4 53.8,67.3 53.8,67.2 Z M57.2,70.2 C57.3,70.3 57.3,70.2 57.3,70.1 C57.3,70.1 57.4,70 57.4,70 C57.5,70 57.5,69.9 57.4,69.9 C57.4,69.9 57.3,69.9 57.3,69.8 C57.3,69.9 57.2,70 57.1,70 C57,70.2 57.2,70.2 57.2,70.2 Z M57.1,67.1 C57.1,67 57.2,67 57.1,67 C57,67 56.9,66.9 56.8,67 C56.7,67 56.7,67.1 56.6,67.1 C56.5,67.1 56.4,67.2 56.4,67.2 C56.4,67.2 56.5,67.3 56.5,67.3 C56.8,67.3 57,67.2 57.1,67.1 Z M55.5,69.9 C55.4,69.8 55.3,69.9 55.2,69.9 C55.1,69.9 55.1,70 55.2,70 C55.3,70 55.4,70 55.5,70.1 C55.6,70 55.6,69.9 55.5,69.9 Z M55,72.9 C55.1,72.9 55.2,72.8 55.3,72.8 C55.3,72.8 55.4,72.8 55.4,72.7 C55.4,72.7 55.3,72.7 55.2,72.7 C55.1,72.7 54.9,72.8 54.8,72.8 C54.7,72.8 54.7,72.9 54.8,73 C54.9,73 55,72.9 55,72.9 Z M57.7,65.8 C57.8,65.8 57.8,65.8 57.7,65.8 C57.8,65.7 57.8,65.7 57.7,65.8 C57.8,65.7 57.7,65.7 57.7,65.8 C57.6,65.7 57.5,65.7 57.5,65.8 C57.6,65.8 57.7,65.8 57.7,65.8 Z M43.5,58.9 C43.6,58.9 43.7,58.8 43.7,58.8 C43.8,58.7 44,58.7 44.1,58.6 C44.1,58.6 44.2,58.5 44.1,58.5 C44.1,58.5 44,58.5 44,58.5 C43.9,58.6 43.7,58.6 43.6,58.6 C43.5,58.7 43.3,58.8 43.5,58.9 Z M41.7,62.6 C41.7,62.6 41.8,62.5 41.7,62.6 C41.8,62.5 42,62.4 41.9,62.4 C41.8,62.3 41.7,62.4 41.5,62.4 C41.4,62.4 41.3,62.5 41.3,62.5 C41.2,62.7 41.1,62.8 41,63 C41,63 41,63.1 41,63.1 C41.1,63.1 41.1,63.1 41.1,63.1 C41.1,63 41.2,63 41.3,63.1 C41.4,63.1 41.4,63.1 41.4,63.1 C41.4,63.1 41.4,63.1 41.5,63.1 C41.5,63.1 41.5,63.1 41.5,63.1 C41.7,62.8 41.7,62.7 41.7,62.6 Z M43.2,52.4 C43.2,52.4 43.2,52.3 43.1,52.2 C43.1,52.3 43.1,52.4 43.2,52.4 C43.2,52.4 43.2,52.4 43.2,52.4 Z M43,55.8 C43.1,55.8 43.1,55.8 43.1,55.7 C43.1,55.7 43.1,55.7 43,55.8 C43,55.7 43,55.8 43,55.8 Z M45.1,65.6 C45,65.6 44.9,65.7 44.8,65.7 C44.8,65.7 44.7,65.8 44.8,65.8 C45.1,65.7 45.1,65.7 45.1,65.6 Z M44.6,51.3 C44.7,51.3 44.8,51.3 44.8,51.2 C44.8,51.1 44.9,51.1 45,51.1 C45.1,51.1 45.1,51 45.2,51 C45.2,51 45.2,50.9 45.2,50.9 C45.1,50.9 45.1,50.9 45,50.9 C44.8,50.9 44.8,51.1 44.7,51.1 C44.7,51.1 44.7,51.1 44.7,51.1 C44.7,51.1 44.7,51.1 44.7,51.1 C44.5,51.2 44.4,51.3 44.6,51.3 Z M44.5,58.9 C44.4,59 44.4,59.1 44.5,59.1 C44.5,59.1 44.6,59.1 44.6,59.1 C44.7,59 44.8,59 44.7,58.9 C44.7,58.9 44.6,58.9 44.5,58.9 Z M43.6,57.2 C43.7,57.2 43.8,57.2 43.9,57.1 C43.7,57.1 43.6,57.1 43.6,57.2 Z M40.9,62.4 C41,62.4 41,62.5 41.1,62.4 C41.2,62.2 40.9,62.2 40.8,62.1 C40.6,62.2 40.7,62.4 40.6,62.5 C40.7,62.6 40.8,62.6 40.9,62.6 C41,62.5 41,62.4 40.9,62.4 Z M40.8,64.1 C40.8,64.2 40.7,64.2 40.8,64.1 C40.9,64.2 40.9,64.2 40.9,64.1 C40.9,64.1 40.9,64 41,64 C40.9,64 40.9,64.1 40.8,64.1 Z M41.2,63.2 C41.2,63.2 41.1,63.3 41.2,63.3 C41.3,63.3 41.3,63.3 41.4,63.3 C41.4,63.3 41.5,63.2 41.4,63.2 C41.3,63.2 41.3,63.2 41.2,63.2 Z M43.1,56.1 C43.1,56.2 43.1,56.2 43.3,56.2 C43.4,56.2 43.4,56.2 43.4,56.1 C43.4,56 43.5,55.9 43.6,55.8 C43.4,55.8 43.2,55.8 43,55.8 C43,55.9 43.2,56 43.1,56.1 C43.2,56.1 43.2,56.1 43.1,56.1 Z M41.1,54.2 C41.3,54.1 41.5,54 41.7,54.1 C42,54.2 42.1,54.1 42.3,54 C42.4,54 42.4,54 42.4,53.9 C42.4,53.9 42.3,53.9 42.3,53.9 C42.2,53.9 42.1,53.9 41.9,53.9 C41.5,53.9 41.2,54 41.1,54.2 Z M41.9,53.3 C41.8,53.3 41.6,53.3 41.5,53.4 C41.6,53.5 41.7,53.5 41.8,53.5 C41.9,53.5 42,53.5 42,53.5 C42,53.4 42,53.3 41.9,53.3 Z M37.7,60.9 C37.6,61 37.6,61 37.7,60.9 C37.7,61 37.8,61 37.8,61 C37.8,60.9 38,60.8 37.8,60.8 C37.8,60.8 37.8,60.8 37.8,60.8 C37.8,60.8 37.8,60.8 37.8,60.8 C37.8,60.9 37.8,60.9 37.7,60.9 Z M36,59.8 C35.9,59.8 35.9,59.7 35.8,59.8 C35.8,59.8 35.8,59.9 35.8,59.9 C35.9,59.9 35.9,59.8 36,59.8 Z M34.8,60.2 C34.8,60.2 34.8,60.3 34.9,60.3 C35.1,60.2 35.3,60 35.2,59.8 C35,59.9 35.1,60 34.9,60 C34.9,60 34.9,60 34.8,60.1 C34.9,60.2 34.9,60.2 34.8,60.2 C34.8,60.2 34.8,60.2 34.8,60.2 Z M36.2,59.8 C36.2,59.7 36.4,59.7 36.4,59.6 C36.4,59.5 36.4,59.4 36.5,59.3 C36.6,59.2 36.4,59.1 36.5,59 C36.5,59 36.4,59 36.4,59 C36.3,59.1 36.2,59.1 36.3,59.2 C36.4,59.3 36.3,59.3 36.3,59.3 C36.2,59.4 36.1,59.5 36.2,59.6 C36.2,59.7 36.1,59.7 36.1,59.8 C36,59.8 36.1,59.8 36.2,59.8 Z M36.6,61.8 C36.4,61.7 36.3,61.7 36.2,61.8 C36.2,61.8 36.1,61.9 36.1,61.9 C36.1,61.9 36.1,62 36.1,62 C36.4,62.1 36.3,61.8 36.6,61.8 Z M37,57.3 C37,57.3 37,57.3 37,57.3 C37.1,57.2 37.2,57.2 37.2,57.1 C37.1,57.1 37.1,57.1 37,57.1 C36.9,57.1 36.9,57.2 36.8,57.2 C36.7,57.3 36.6,57.5 36.3,57.5 C36.2,57.5 36.2,57.6 36.1,57.7 C36.3,57.7 36.3,57.6 36.4,57.6 C36.7,57.6 36.9,57.5 37,57.3 Z M37.6,60.8 C37.7,60.8 37.7,60.8 37.8,60.8 C37.8,60.8 37.8,60.7 37.9,60.7 C38,60.6 38.1,60.6 38.3,60.7 C38.5,60.7 38.2,60.6 38.3,60.6 C38.3,60.5 38.2,60.5 38.1,60.5 C38,60.6 37.7,60.6 37.6,60.8 Z M36.3,60.2 C36.3,60.2 36.3,60.2 36.3,60.2 C36.2,60.1 36.1,60.2 36,60.2 C35.9,60.2 35.9,60.3 36,60.3 C36.1,60.3 36.2,60.2 36.3,60.2 Z M40,59.2 C40.1,59.1 40.2,59 40.3,59 C40.3,59 40.4,58.9 40.4,58.9 C40.3,58.9 40.3,58.8 40.2,58.8 C40.1,58.9 40,59 40,59.2 Z M38.3,64.2 C38.2,64.2 38.1,64.2 38.1,64.2 L38.2,64.3 C38.2,64.3 38.2,64.2 38.3,64.2 Z M38.9,64.6 C38.9,64.5 38.9,64.5 38.9,64.6 C38.7,64.6 38.7,64.6 38.6,64.6 L38.8,64.7 C38.8,64.7 38.8,64.7 38.8,64.7 C38.8,64.6 38.9,64.6 38.9,64.6 Z M36,56.9 C36.1,56.9 36.2,56.9 36.3,56.9 C36.4,56.9 36.3,56.9 36.3,56.8 C36.2,56.8 36.1,56.8 36,56.9 C36,56.9 36,56.9 36,56.9 Z M38.1,55 C38.2,55 38.2,55 38.3,54.9 C38.4,54.8 38.4,54.7 38.5,54.6 C38.1,54.6 38.1,54.7 38.1,54.9 C38,55 38,55 38.1,55 Z M35.9,57.3 C36,57.3 36,57.2 35.9,57.3 C35.9,57.2 35.8,57.2 35.8,57.2 C35.7,57.2 35.6,57.3 35.5,57.3 C35.6,57.4 35.8,57.3 35.9,57.3 Z M35.9,55.9 C35.8,56 35.7,56.1 35.8,56.1 C35.9,56.1 36,56.1 36.1,56.1 C36.1,56 36.2,56 36.1,55.9 C36.1,55.8 35.9,55.8 35.9,55.9 Z M35.3,57.8 C35.4,57.8 35.4,57.7 35.5,57.7 C35.4,57.6 35.3,57.7 35.3,57.8 C35.3,57.7 35.3,57.8 35.3,57.8 Z M36,57.9 C35.6,57.9 35.6,57.9 35.7,58.1 C35.8,58 35.9,57.9 36,57.9 Z M69.1,66.7 C69.1,66.7 69.1,66.7 69.1,66.7 C69,66.6 68.9,66.6 68.8,66.6 C68.8,66.6 68.8,66.7 68.8,66.7 C68.8,66.7 68.9,66.7 68.9,66.7 L69.1,66.7 Z M67.8,67.3 C67.8,67.3 67.8,67.3 67.8,67.3 C68,67.4 68.1,67.3 68.1,67.3 C68,67.2 67.9,67.2 67.8,67.3 Z M69.5,66.5 C69.5,66.5 69.4,66.5 69.4,66.4 C69.3,66.3 69.1,66.3 69,66.3 C68.8,66.3 68.8,66.3 68.9,66.2 C68.9,66.2 68.9,66.1 68.8,66.1 C68.6,66.1 68.5,66.1 68.5,66.2 C68.5,66.3 68.4,66.3 68.4,66.3 C68.3,66.3 68.3,66.3 68.2,66.3 C68.2,66.3 68.1,66.2 68.1,66.3 C68,66.4 67.8,66.4 67.7,66.4 C67.6,66.4 67.5,66.4 67.6,66.5 C67.7,66.6 68.1,66.6 68.2,66.5 C68.3,66.5 68.3,66.4 68.4,66.5 C68.5,66.6 68.7,66.5 68.8,66.5 C69,66.4 69.1,66.4 69.1,66.6 C69.1,66.7 69.2,66.7 69.3,66.7 C69.3,66.7 69.4,66.7 69.4,66.7 L69.5,66.5 L69.5,66.5 Z M56.7,73.9 C56.6,73.9 56.5,73.9 56.5,73.9 C56.5,73.9 56.4,74 56.4,74 C56.4,74 56.4,74 56.4,74 L56.4,74 L56.7,73.9 C56.7,73.9 56.7,73.9 56.7,73.9 Z M76.8,62.2 C76.7,62.2 76.5,62.2 76.4,62.2 C76.3,62.3 76.3,62.3 76.4,62.4 C76.5,62.4 76.5,62.4 76.5,62.4 C76.6,62.3 76.7,62.3 76.8,62.2 C76.8,62.3 76.8,62.3 76.8,62.2 L76.8,62.2 L76.8,62.2 C76.8,62.3 76.8,62.2 76.8,62.2 Z M56.2,72.4 C56.2,72.4 56.1,72.5 56.2,72.5 C56.3,72.6 56.3,72.5 56.4,72.5 C56.5,72.5 56.5,72.4 56.4,72.4 C56.4,72.3 56.3,72.4 56.2,72.4 Z M72.9,64.4 C73,64.4 73,64.4 73.1,64.4 L73.3,64.3 C73.3,64.3 73.3,64.3 73.3,64.2 C73.2,64.2 73.1,64.2 73,64.2 C73,64.2 73,64.1 73,64.1 C73,64.1 73,64 73,64 C73,64 72.9,64 72.9,64.1 C72.6,64.2 72.7,64.4 72.7,64.6 C72.7,64.6 72.7,64.6 72.8,64.6 C72.8,64.6 72.8,64.6 72.8,64.6 L72.9,64.6 L72.9,64.6 C72.8,64.6 72.8,64.5 72.9,64.4 Z M70.1,66.1 C70.1,66.1 70,66.1 70.1,66.1 C70.1,66.2 70.1,66.2 70.1,66.1 L70.3,66.1 C70.2,66.1 70.2,66.1 70.1,66.1 Z M40.5,65.6 L40.6,65.7 C40.6,65.7 40.6,65.7 40.5,65.6 C40.5,65.6 40.5,65.6 40.5,65.6 Z M34.7,58.1 C34.8,58.1 34.8,58 34.7,58.1 C34.6,58 34.6,58 34.6,58.1 C34.6,58.2 34.5,58.2 34.4,58.2 C34.4,58.2 34.4,58.2 34.4,58.3 C34.4,58.3 34.5,58.3 34.5,58.3 C34.6,58.2 34.6,58.1 34.7,58.1 Z M37.5,63.6 C37.4,63.6 37.2,63.6 37.1,63.7 C37.1,63.7 37.1,63.7 37.1,63.8 L37.2,63.8 C37.5,63.8 37.4,63.7 37.5,63.6 Z M51,71.3 C51,71.4 51.1,71.4 51.2,71.4 C51.3,71.4 51.4,71.4 51.3,71.3 C51.2,71.3 51.3,71.2 51.3,71.2 C51.3,71.1 51.3,71 51.1,71 C51,71 50.9,71 51,70.9 C51,70.8 51,70.8 50.9,70.8 C50.8,70.8 50.8,70.8 50.9,70.7 C51.1,70.6 51,70.5 50.9,70.4 C50.9,70.4 50.9,70.3 50.9,70.3 C51.1,70.1 50.9,69.9 51.3,69.7 C51.2,69.7 51.2,69.7 51.2,69.7 C51,69.8 50.9,69.9 50.6,69.9 C50.4,69.9 50.5,70.1 50.4,70.2 C50.4,70.2 50.4,70.2 50.4,70.3 C50.4,70.4 50.2,70.4 50.3,70.5 C50.4,70.6 50.5,70.7 50.7,70.6 C50.8,70.6 50.9,70.6 50.8,70.6 C50.8,70.7 50.9,70.7 50.9,70.8 C50.9,70.9 51,71 50.7,71 C50.6,71 50.6,71 50.5,71.1 C50.4,71.1 50.4,71.2 50.3,71.2 L50.5,71.3 C50.6,71.3 50.7,71.2 50.8,71.2 C50.8,71.2 51,71.2 51,71.3 Z M38.9,61.1 C38.8,61.1 38.7,61.3 38.8,61.3 C38.9,61.4 39,61.3 39.1,61.2 C39.1,61.2 39.1,61.2 39.1,61.2 C39.1,61.2 39.1,61.2 39.1,61.2 C39.1,61.1 39.1,61 38.9,61.1 Z M39.5,57 C39.5,57 39.5,56.9 39.4,56.9 C39.2,56.9 39.4,57 39.3,57.1 C39.4,57.1 39.5,57.1 39.5,57 Z M40,57.6 C40,57.4 40.3,57.5 40.4,57.4 C40.3,57.4 40.2,57.5 40.1,57.5 C40,57.5 40,57.4 39.9,57.5 C39.8,57.5 40,57.5 40,57.6 Z M40.6,55 C40.6,55 40.7,54.9 40.6,54.9 C40.6,54.9 40.5,54.9 40.5,54.9 C40.5,54.9 40.4,55 40.5,55 C40.5,55.1 40.6,55 40.6,55 Z M40.5,58.3 C40.6,58.2 40.6,58.2 40.7,58.2 C40.5,58.2 40.5,58.2 40.5,58.3 Z M40.2,55.8 C40.3,55.8 40.3,55.8 40.2,55.8 C40.1,55.7 40,55.7 40,55.8 C39.9,55.8 39.9,55.9 40,55.9 C40.1,55.9 40.1,55.8 40.2,55.8 Z M40,63.6 C39.9,63.6 39.7,63.6 39.6,63.6 C39.5,63.7 39.5,63.7 39.6,63.8 C39.7,63.8 39.7,63.8 39.7,63.8 C39.7,63.7 39.8,63.7 40,63.6 C40,63.7 40,63.6 40,63.6 Z M39.9,59.7 C40,59.7 40.1,59.7 40.2,59.7 C40.2,59.7 40.2,59.7 40.2,59.7 C40.2,59.7 40.1,59.7 40.1,59.6 C40.1,59.6 40,59.6 39.9,59.7 C39.8,59.6 39.8,59.6 39.9,59.7 Z M45.7,52 C45.9,51.9 46,51.8 46,51.7 C46,51.7 45.9,51.7 45.9,51.7 C45.6,51.7 45.7,51.9 45.7,52 Z M42,62.1 C42.2,62.1 42.2,62 42.2,61.9 C42.1,62 42,62 42,62.1 Z M42.3,59.9 C42.2,59.9 42.1,59.9 42,60 C42,60 41.9,60.1 42,60.1 C42,60.1 42.2,60.1 42.3,59.9 C42.3,60 42.3,60 42.3,59.9 Z M40.9,60.6 C41,60.5 41.2,60.6 41.1,60.4 C41.1,60.3 40.9,60.3 40.8,60.3 C40.9,60.4 40.7,60.5 40.9,60.6 Z M41.2,53.4 C41.1,53.4 41,53.5 41.1,53.6 C41.2,53.7 41.3,53.6 41.4,53.6 C41.4,53.6 41.5,53.6 41.5,53.6 L41.5,53.6 C41.5,53.6 41.5,53.6 41.5,53.6 C41.4,53.5 41.3,53.4 41.2,53.4 Z M42.4,61.5 C42.3,61.5 42.2,61.4 42.2,61.5 C42.1,61.6 42.1,61.6 42.1,61.7 C42.1,61.7 42.3,61.7 42.4,61.7 C42.4,61.6 42.4,61.6 42.4,61.5 Z M43.4,67.2 C43.5,67.1 43.6,67.1 43.5,67 C43.4,67 43.3,66.9 43.3,67 C43.2,67 43.2,67.1 43.2,67.2 L43.3,67.3 C43.3,67.2 43.3,67.2 43.4,67.2 Z M39.8,63.8 C39.7,63.8 39.6,63.9 39.6,64 C39.8,63.9 39.8,63.8 39.8,63.8 Z M43.9,67.4 C44,67.4 44,67.3 43.9,67.3 C43.8,67.3 43.7,67.3 43.7,67.4 C43.7,67.4 43.6,67.5 43.6,67.5 C43.6,67.5 43.6,67.5 43.6,67.5 L43.8,67.6 C43.8,67.5 43.8,67.4 43.9,67.4 Z M39.7,60.1 C39.7,60.1 39.7,60 39.7,60.1 C39.6,60 39.6,60 39.5,60.1 C39.6,60.1 39.5,60.2 39.7,60.1 C39.7,60.2 39.7,60.1 39.7,60.1 Z M38.7,54.4 C38.7,54.5 38.5,54.5 38.6,54.6 C38.7,54.7 38.8,54.6 38.8,54.6 C38.8,54.5 39,54.5 38.9,54.4 C38.9,54.4 38.8,54.4 38.7,54.4 Z M39.1,64 C39.1,64 39.2,63.9 39.2,63.9 C39.1,63.9 39,63.9 38.9,63.9 C38.8,63.9 38.8,64 38.9,64 C38.9,64.1 39,64.1 39.1,64 Z M37.9,61.4 C38,61.4 38,61.4 38.1,61.3 C38.2,61.3 38.1,61.2 38,61.2 L38,61.2 C37.9,61.3 37.9,61.3 37.9,61.4 C37.7,61.4 37.8,61.4 37.9,61.4 Z M38,61.7 C38,61.7 38.1,61.8 38.2,61.7 C38.3,61.7 38.4,61.6 38.5,61.5 C38.3,61.5 38.2,61.5 38.1,61.5 C38.1,61.6 38,61.6 38,61.7 Z M38.5,62.5 C38.7,62.6 38.6,62.4 38.7,62.4 C38.7,62.4 38.7,62.4 38.7,62.4 C38.8,62.4 38.8,62.3 38.8,62.3 C38.8,62.3 38.8,62.3 38.7,62.3 C38.6,62.3 38.5,62.4 38.5,62.4 C38.5,62.4 38.4,62.4 38.5,62.5 Z M52.8,71.4 C53,71.4 53.1,71.3 53.3,71.2 C53.4,71.2 53.5,71 53.4,71 C53.3,70.9 53.2,71 53,71.1 C53,71.1 52.9,71.1 52.8,71.2 C52.7,71.2 52.7,71.3 52.6,71.4 C52.6,71.4 52.5,71.4 52.6,71.5 C52.6,71.4 52.7,71.4 52.8,71.4 Z M38.1,62.1 C38.1,62.1 38.1,62 38.1,62 C38.1,62 38,62 38,62 C37.8,62.1 37.9,61.9 37.8,61.9 C37.8,61.9 37.7,62 37.6,62 C37.5,62 37.5,62.1 37.6,62.1 C37.9,62.1 38,62.1 38.1,62.1 C38.1,62.1 38.1,62.1 38.1,62.1 Z M37.8,62.6 C37.9,62.6 37.9,62.6 38,62.6 C38.1,62.6 38.2,62.6 38.1,62.5 C38,62.4 37.9,62.5 37.8,62.6 C37.8,62.5 37.8,62.6 37.8,62.6 Z M39.5,54.2 C39.5,54.2 39.5,54.3 39.5,54.2 C39.7,54.3 39.7,54.2 39.8,54.1 C39.7,54.1 39.6,54.1 39.5,54.2 Z M39.5,59.5 C39.6,59.5 39.7,59.5 39.7,59.5 C39.7,59.5 39.7,59.4 39.7,59.4 C39.6,59.3 39.5,59.4 39.5,59.5 C39.4,59.4 39.4,59.5 39.5,59.5 Z M39.7,62.4 C39.7,62.4 39.7,62.5 39.7,62.5 C39.7,62.5 39.7,62.5 39.8,62.5 C39.8,62.5 39.9,62.5 39.9,62.5 C39.9,62.5 40,62.4 40,62.4 C40,62.4 40,62.4 40,62.4 C39.8,62.5 39.9,62.3 39.7,62.4 Z M38.7,64.3 C38.8,64.3 38.8,64.3 38.7,64.3 C38.8,64.2 38.9,64.1 38.8,64.1 C38.7,64.1 38.6,64.1 38.6,64.2 C38.6,64.2 38.6,64.2 38.5,64.3 C38.5,64.3 38.4,64.4 38.4,64.4 C38.6,64.4 38.7,64.4 38.7,64.3 Z M38.8,63.6 C38.9,63.5 39.1,63.4 38.9,63.3 C38.9,63.3 38.7,63.2 38.6,63.2 C38.5,63.2 38.5,63.3 38.4,63.4 C38.4,63.5 38.6,63.4 38.6,63.5 C38.7,63.6 38.8,63.6 38.8,63.6 Z M39.2,58.6 C39.2,58.6 39.1,58.7 39.2,58.8 C39.2,58.8 39.3,58.8 39.3,58.8 C39.4,58.8 39.4,58.7 39.3,58.7 C39.3,58.6 39.2,58.6 39.2,58.6 Z M38.6,63 C38.6,63 38.7,63 38.7,63.1 C38.8,63.1 38.8,63.1 38.9,63.1 C39.1,63 39.2,62.9 39.2,62.8 C39.1,62.8 39,62.9 38.7,62.9 C38.7,62.9 38.6,63 38.6,63 Z M44.9,63.5 C45,63.4 45.1,63.4 45.2,63.4 C45.1,63.3 45,63.4 44.9,63.5 Z M55.5,58.5 C55.5,58.4 55.6,58.4 55.5,58.3 C55.5,58.3 55.4,58.3 55.4,58.3 C55.4,58.4 55.4,58.4 55.5,58.5 Z M55.6,51.8 C55.6,51.8 55.4,51.9 55.5,51.9 C55.5,51.9 55.7,51.9 55.7,51.9 C55.7,51.9 55.8,51.8 55.7,51.7 C55.7,51.7 55.6,51.7 55.6,51.8 Z M55.1,60.3 C55,60.3 55,60.4 55.1,60.3 C55.2,60.4 55.3,60.4 55.4,60.4 C55.5,60.4 55.5,60.3 55.4,60.3 C55.3,60.2 55.2,60.3 55.1,60.3 Z M50.6,58.6 C50.5,58.6 50.5,58.5 50.4,58.5 C50.3,58.5 50.3,58.5 50.3,58.6 C50.3,58.6 50.2,58.7 50.3,58.7 C50.3,58.7 50.3,58.7 50.3,58.7 C50.5,58.8 50.5,58.7 50.6,58.6 C50.7,58.7 50.7,58.6 50.6,58.6 Z M54.4,55.7 C54.3,55.7 54.3,55.8 54.4,55.8 C54.5,55.9 54.6,55.8 54.6,55.8 C54.7,55.8 54.7,55.7 54.6,55.7 C54.6,55.6 54.5,55.6 54.4,55.7 Z M55.1,59.8 C55,59.8 55.1,59.9 55.1,59.9 C55.1,59.9 55.2,59.9 55.2,59.9 C55.3,59.9 55.2,59.8 55.2,59.8 C55.2,59.8 55.1,59.8 55.1,59.8 Z M54.8,57.2 C54.8,57.2 54.8,57.3 54.8,57.2 C54.9,57.3 55,57.3 55.1,57.2 C55,57.2 54.9,57.2 54.8,57.2 Z M54.7,45.3 C54.7,45.4 54.6,45.4 54.7,45.3 C54.7,45.4 54.8,45.4 54.8,45.4 C54.8,45.4 54.9,45.3 54.9,45.3 C54.8,45.3 54.8,45.3 54.7,45.3 Z M57.3,52.1 C57.4,52.1 57.5,52.2 57.5,52.1 C57.6,52.1 57.6,52 57.5,52 C57.4,52 57.4,51.9 57.3,52.1 C57.2,52 57.2,52 57.3,52.1 Z M57.1,47.2 C57.1,47.4 56.8,47.4 56.6,47.5 C56.6,47.5 56.6,47.6 56.5,47.6 C56.5,47.6 56.3,47.6 56.4,47.7 C56.5,47.8 56.5,47.7 56.6,47.7 C56.7,47.7 56.8,47.6 56.9,47.5 C57.1,47.5 57.1,47.4 57.2,47.3 C57.2,47.3 57.2,47.3 57.2,47.2 C57.2,47.1 57.1,47.1 57.1,47.2 Z M58,51.8 C57.9,51.8 57.8,51.7 57.8,51.8 C57.8,51.8 57.7,51.9 57.8,51.9 C57.9,51.9 58,52 58.1,51.9 C58.1,51.9 58.1,51.8 58,51.8 Z M58,60.6 C58.1,60.6 58.4,60.6 58.5,60.5 C58.5,60.5 58.5,60.4 58.4,60.4 C58.3,60.5 58.2,60.6 58,60.6 C57.9,60.6 58,60.6 58,60.6 Z M56.6,51.9 C56.7,51.8 56.9,51.7 57.1,51.7 C57.2,51.7 57.2,51.6 57.1,51.6 C56.9,51.6 56.8,51.6 56.6,51.7 C56.5,51.7 56.4,51.8 56.5,51.8 C56.5,51.8 56.5,51.8 56.4,51.9 C56.3,51.9 56.2,51.9 56.2,52 C56.4,52 56.6,52 56.6,51.9 Z M56.7,50.2 C56.6,50.2 56.5,50.2 56.5,50.3 C56.5,50.3 56.4,50.3 56.5,50.4 C56.6,50.4 56.6,50.4 56.7,50.4 C56.8,50.4 56.8,50.4 56.9,50.4 C57,50.4 57.1,50.4 57.1,50.3 C57,50.2 56.8,50.2 56.7,50.2 Z M56.9,53.5 C57,53.5 57.1,53.5 57.1,53.5 C57.1,53.5 57.1,53.5 57.1,53.4 C57,53.4 56.9,53.4 56.9,53.5 C56.8,53.4 56.8,53.5 56.9,53.5 Z M56.1,54.3 C56.1,54.3 56.2,54.2 56.2,54.2 C56.3,54.1 56.4,54 56.6,54 C56.7,54 56.8,54.1 56.9,54.1 C57,54.1 57.1,54.1 57.2,54.1 C57.2,54.1 57.2,54.1 57.2,54 C57.1,53.9 57,53.9 56.9,53.9 C56.9,53.9 56.8,53.9 56.8,53.9 C56.6,54 56.5,53.9 56.5,53.8 C56.5,53.8 56.5,53.8 56.4,53.7 C56.4,53.7 56.3,53.7 56.3,53.7 C56.3,53.9 56.2,54.1 56.1,54.3 C56.1,54.3 56.1,54.3 56.1,54.3 Z M53.8,51.5 C53.9,51.5 53.9,51.5 54,51.5 C54.1,51.4 54.3,51.4 54.3,51.3 C54.1,51.3 53.9,51.3 53.8,51.5 C53.8,51.4 53.7,51.4 53.8,51.5 Z M52.8,49.4 C52.8,49.4 52.8,49.5 52.8,49.5 C52.9,49.5 52.9,49.5 53,49.5 C53.1,49.5 53,49.4 53,49.4 C52.9,49.4 52.8,49.3 52.8,49.4 Z M52.5,52.8 C52.7,52.9 52.8,52.8 52.9,52.7 C52.9,52.7 53,52.7 52.9,52.6 C52.8,52.6 52.7,52.7 52.5,52.8 C52.5,52.7 52.5,52.8 52.5,52.8 Z M53,47.3 C53,47.3 52.9,47.3 53,47.3 C53.1,47.4 53.1,47.4 53.1,47.3 C53.1,47.3 53.2,47.2 53.1,47.2 C53.1,47.2 53,47.2 53,47.3 Z M53,49.9 C52.9,49.9 52.9,50 52.9,50 C53,50 53.1,50 53.2,50 C53.2,50 53.3,50 53.3,49.9 C53.2,49.8 53.1,49.8 53,49.9 Z M50.9,51 C51,51 51.2,51.1 51.2,51 C51.3,50.9 51.4,50.9 51.6,50.8 C51.7,50.8 51.8,50.7 51.8,50.6 C51.8,50.6 51.8,50.5 51.7,50.5 C51.6,50.5 51.3,50.6 51.3,50.7 C51.3,50.9 51.2,50.9 50.9,51 Z M53.1,54.6 C53.3,54.6 53.3,54.5 53.4,54.5 C53.4,54.5 53.5,54.5 53.4,54.4 C53.4,54.4 53.3,54.4 53.3,54.4 C53.2,54.4 53.1,54.5 53.1,54.6 Z M52,49.6 C51.9,49.6 51.9,49.6 51.8,49.6 C51.7,49.6 51.6,49.7 51.6,49.7 C51.6,49.7 51.5,49.8 51.6,49.8 C51.7,49.8 51.8,49.9 51.8,49.8 C51.9,49.8 52,49.7 52,49.6 C52,49.6 52.1,49.6 52,49.6 Z M51.5,48.1 C51.5,48.1 52,48 52,48 C51.8,47.9 52.1,47.9 52.1,47.8 C51.9,47.8 51.7,47.9 51.5,48.1 C51.5,48 51.4,48.1 51.5,48.1 Z M53.7,50.4 C53.6,50.5 53.7,50.5 53.8,50.5 C53.9,50.6 54,50.5 54.1,50.5 C54.2,50.5 54.1,50.4 54.1,50.4 C53.9,50.4 53.9,50.3 53.7,50.4 Z M58.5,48.5 C58.4,48.5 58.4,48.6 58.5,48.6 C58.6,48.6 58.6,48.6 58.7,48.6 C58.7,48.6 58.8,48.6 58.7,48.5 C58.6,48.4 58.6,48.5 58.5,48.5 Z M54.3,54.3 C54.4,54.3 54.6,54.3 54.6,54.2 C54.6,54.2 54.6,54.2 54.5,54.2 C54.3,54.2 54.3,54.2 54.3,54.3 Z M54.1,56.1 C54,56.1 53.9,56.2 53.7,56.2 C53.6,56.2 53.5,56.2 53.6,56.3 C53.7,56.3 53.8,56.4 53.9,56.3 C54,56.3 54.1,56.2 54.2,56.2 C54.2,56.2 54.2,56.2 54.3,56.1 C54.3,56.1 54.5,56.1 54.4,56 C54.3,56.1 54.2,56.1 54.1,56.1 Z M53.8,47.8 C53.7,47.9 53.6,47.9 53.5,48 C53.7,48 53.8,48 54,47.9 C54.1,47.9 54.1,47.9 54.2,47.8 C54.2,47.8 54.2,47.7 54.2,47.7 C54,47.7 53.9,47.7 53.8,47.8 Z M53.5,49.3 C53.6,49.3 53.7,49.4 53.8,49.3 C53.8,49.2 53.8,49.2 53.7,49.1 C53.6,49.1 53.5,49 53.4,49.1 C53.4,49.1 53.4,49.2 53.5,49.3 Z M53.9,50 C53.8,50.1 53.9,50.1 54,50.1 C54,50 53.9,50 53.9,50 Z M53.4,47.1 C53.4,47 53.4,47 53.4,46.9 C53.4,46.9 53.3,47 53.4,47.1 Z M55.6,56.9 C55.5,56.9 55.6,56.9 55.6,56.9 C55.7,57 55.7,57 55.8,57 C55.8,57 55.9,56.9 56,57 C56.2,57.1 56.3,57 56.4,57 C56.1,56.8 55.8,56.9 55.6,56.9 C55.6,56.8 55.6,56.8 55.6,56.9 Z M57,58.9 C57.1,58.9 57.1,58.9 57,58.9 C57,58.8 56.9,58.8 56.8,58.9 C56.8,58.9 56.7,58.9 56.7,59 C56.8,59 56.8,58.9 56.9,58.9 C56.9,58.9 57,58.9 57,58.9 Z M57.5,57.1 C57.4,57.1 57.3,57.1 57.3,57.2 C57.2,57.3 57.3,57.3 57.4,57.3 C57.5,57.3 57.4,57.4 57.5,57.4 C57.7,57.4 57.6,57.3 57.6,57.2 C57.6,57.2 57.7,57.1 57.5,57.1 Z M57.2,59.2 C57.3,59.1 57.3,59 57.2,59 C57.1,58.9 57,59 56.9,59 C56.8,59 56.8,59.1 56.9,59.1 C57,59.3 57.1,59.3 57.2,59.2 Z M56.6,65.1 C56.7,65.1 56.7,65.1 56.8,65.1 C56.8,65.1 56.9,65 56.8,65 C56.7,65 56.7,65 56.6,65 C56.6,65.1 56.5,65.1 56.6,65.1 Z M57.2,64.8 C57.3,64.8 57.3,64.8 57.3,64.7 C57.3,64.7 57.3,64.7 57.3,64.7 C57.4,64.7 57.5,64.8 57.6,64.7 C57.6,64.7 57.6,64.7 57.6,64.6 C57.5,64.5 57.5,64.5 57.4,64.6 C57.4,64.6 57.3,64.6 57.2,64.6 C57.2,64.6 57.1,64.6 57.1,64.6 C57.1,64.8 57.1,64.8 57.2,64.8 Z M57.3,61.2 C57.3,61.2 57.3,61.3 57.3,61.3 C57.4,61.3 57.4,61.3 57.5,61.3 C57.5,61.3 57.5,61.2 57.5,61.2 C57.5,61.2 57.5,61.1 57.5,61.1 C57.4,61.1 57.3,61.1 57.3,61.2 Z M56.1,63.5 C56,63.5 56,63.6 56.1,63.7 C56.1,63.7 56.2,63.7 56.3,63.7 C56.4,63.6 56.4,63.6 56.4,63.5 C56.3,63.4 56.2,63.5 56.1,63.5 Z M57.2,54.5 C57.2,54.5 57.1,54.6 57.2,54.5 C57.2,54.6 57.3,54.6 57.2,54.5 C57.3,54.5 57.3,54.5 57.3,54.5 C57.3,54.5 57.2,54.5 57.2,54.5 Z M56,68.3 C56.1,68.2 56.2,68.2 56.3,68.2 C56.1,68.1 55.9,68.1 56,68.3 Z M52.7,69.8 C52.8,69.7 52.9,69.7 52.8,69.6 C52.7,69.5 52.6,69.6 52.6,69.6 C52.5,69.7 52.5,69.7 52.5,69.8 C52.6,69.9 52.6,69.9 52.7,69.8 Z M56,67.6 C56,67.5 55.9,67.5 56,67.6 C55.9,67.6 55.9,67.6 55.9,67.6 C55.9,67.7 55.9,67.7 55.8,67.8 C55.8,67.9 55.8,67.9 55.9,67.9 C56,67.9 56.1,67.9 56.1,67.9 C56.2,67.9 56.2,67.8 56.2,67.7 C56.1,67.6 55.9,67.8 56,67.6 Z M54.6,68.2 C54.7,68.1 55,68.1 55.2,68.1 C55.4,68.1 55.6,68 55.6,67.9 C55.6,67.8 55.6,67.7 55.6,67.6 C55.6,67.6 55.6,67.6 55.6,67.6 C55.6,67.6 55.5,67.6 55.5,67.6 C55.1,67.7 54.9,67.8 54.6,68 C54.5,68 54.5,68.1 54.5,68.2 C54.5,68.2 54.6,68.2 54.6,68.2 Z M56.2,64.6 C56.2,64.7 56.2,64.7 56.2,64.6 L56.2,64.6 L56.2,64.6 C56.1,64.7 56.1,64.7 56.1,64.7 C56.1,64.7 56.2,64.8 56,64.8 C56,64.8 55.9,64.9 56,64.9 C56.2,64.8 56.3,64.6 56.6,64.5 C56.5,64.7 56.4,64.6 56.2,64.6 Z M56.6,54.9 C56.6,54.9 56.6,54.9 56.6,54.9 C56.6,54.8 56.5,54.8 56.5,54.8 C56.5,54.8 56.4,54.8 56.4,54.9 C56.4,55 56.3,55.2 56.2,55.3 C56.2,55.3 56.1,55.4 56.2,55.4 C56.3,55.4 56.4,55.4 56.5,55.3 C56.5,55.2 56.7,55.1 56.6,54.9 Z M56.1,61 C55.9,61 56.1,61.1 56.1,61.2 C56.2,61.3 56.2,61.2 56.3,61.2 C56.3,61.1 56.3,61.1 56.3,61 C56.2,60.9 56.2,61 56.1,61 Z M56.3,58.8 C56.3,58.8 56.4,58.8 56.4,58.8 C56.5,58.8 56.5,58.7 56.4,58.7 C56.4,58.7 56.3,58.7 56.3,58.7 C56.2,58.7 56.2,58.7 56.3,58.8 Z M58.7,66.3 C58.8,66.3 58.7,66.2 58.7,66.1 C58.6,66 58.5,66.1 58.5,66.1 C58.4,66.1 58.4,66.2 58.5,66.2 C58.5,66.3 58.6,66.4 58.7,66.3 Z M59,62.1 C59,62.2 58.9,62.2 58.9,62.3 C58.9,62.3 59,62.3 59,62.3 C59,62.2 59.1,62.2 59.1,62.1 C59.1,62.1 59,62 59,62.1 Z M59,63.6 C59,63.6 59.1,63.6 59.1,63.6 C59.1,63.6 59.1,63.5 59.1,63.5 C59.1,63.5 59,63.5 59,63.6 C59,63.6 59,63.6 59,63.6 Z M59,66.4 C59,66.4 58.9,66.4 58.9,66.4 C58.9,66.4 58.7,66.5 58.8,66.5 C58.8,66.5 58.9,66.5 59,66.5 C59,66.5 59.1,66.4 59,66.4 Z M59.3,60.3 C59.4,60.3 59.4,60.3 59.5,60.2 C59.3,60.2 59.2,60.2 59.3,60.3 C59.2,60.3 59.2,60.3 59.3,60.3 Z M58.9,67.2 C59,67.2 59,67.1 59,67.1 C58.9,67.1 58.9,67.1 58.8,67.1 C58.7,67.1 58.7,67.2 58.8,67.2 C58.7,67.3 58.8,67.2 58.9,67.2 Z M57.7,62.8 C57.7,62.8 57.6,62.8 57.6,62.8 C57.5,62.8 57.5,62.9 57.5,62.9 C57.5,63 57.5,63.1 57.3,63.1 C57.3,63.1 57.3,63.2 57.3,63.2 L57.3,63.2 C57.3,63.3 57.5,63.3 57.5,63.4 C57.5,63.3 57.7,63.3 57.6,63.2 C57.6,63.1 57.6,63.1 57.7,63 C57.7,62.9 57.7,62.9 57.7,62.8 Z M58.8,51.9 C58.8,51.9 58.8,52 58.8,51.9 C58.9,52 58.9,51.9 59,51.9 C59,51.9 59,51.9 59,51.8 C58.9,51.9 58.9,51.9 58.8,51.9 Z M59.3,47 C59.3,47 59.2,47 59.2,47 C59.2,47.1 59.3,47.1 59.4,47.1 C59.4,47 59.4,47 59.3,47 Z M59,54.2 C59.1,54.2 59.2,54.2 59.3,54.2 C59.3,54.2 59.4,54.2 59.3,54.1 C59.2,54.2 59.1,54.2 59,54.2 C59,54.2 59,54.2 59,54.2 Z M58.8,54.5 C58.6,54.5 58.5,54.5 58.5,54.6 C58.6,54.6 58.8,54.6 58.8,54.5 Z M58,64.7 C58.1,64.7 58.1,64.6 58,64.6 C57.9,64.6 57.9,64.6 57.8,64.6 C57.7,64.6 57.7,64.7 57.8,64.7 C57.9,64.7 58,64.7 58,64.7 Z M57.9,62.6 C57.9,62.6 57.9,62.5 57.9,62.6 C57.8,62.5 57.7,62.5 57.6,62.5 C57.6,62.5 57.6,62.6 57.6,62.6 C57.7,62.6 57.8,62.6 57.9,62.6 Z M58.4,66.9 C58.5,66.9 58.5,66.8 58.4,66.8 C58.3,66.8 58.3,66.7 58.2,66.8 C58.1,66.8 58.1,66.9 58.2,67 C58.3,67 58.3,67 58.4,66.9 Z M58.5,68.5 C58.6,68.4 58.7,68.3 58.8,68.2 C58.6,68.1 58.5,68.3 58.4,68.3 C58.3,68.3 58.5,68.4 58.5,68.5 Z M58.3,66.6 C58.5,66.6 58.5,66.5 58.3,66.4 C58.3,66.5 58.2,66.6 58.3,66.6 Z M58.4,61.9 C58.3,61.9 58.3,61.9 58.4,61.9 C58.3,61.9 58.3,62 58.4,61.9 C58.3,62 58.4,62.1 58.5,62 C58.6,62 58.7,62 58.6,61.9 C58.6,61.9 58.4,62 58.4,61.9 Z M57.5,64.4 C57.5,64.4 57.7,64.3 57.6,64.3 C57.5,64.2 57.4,64.3 57.4,64.3 C57.3,64.3 57.3,64.4 57.4,64.5 C57.4,64.5 57.4,64.5 57.5,64.4 Z M47.5,49.7 C47.5,49.7 47.6,49.8 47.5,49.7 C47.7,49.6 47.9,49.6 47.9,49.4 C47.7,49.5 47.6,49.6 47.5,49.7 C47.4,49.7 47.4,49.7 47.5,49.7 Z M48.7,52.3 C48.7,52.3 48.9,52.2 48.8,52.2 C48.8,52.2 48.7,52.2 48.6,52.2 C48.6,52.2 48.5,52.3 48.5,52.3 C48.6,52.3 48.7,52.3 48.7,52.3 Z M49,55.6 C48.8,55.6 48.8,55.7 48.8,55.9 C48.9,55.8 49,55.8 49,55.6 C49.1,55.7 49.1,55.7 49,55.6 C49.1,55.6 49,55.6 49,55.6 Z M48.4,54 C48.5,54 48.5,54 48.5,53.9 C48.6,53.8 48.4,53.7 48.3,53.6 C48.3,53.7 48.3,53.7 48.3,53.8 C48.4,53.8 48.4,53.9 48.4,54 C48.3,54 48.3,54 48.4,54 Z M48.8,54.8 C48.8,54.9 48.6,55 48.6,55.1 C48.8,55 48.9,54.9 48.8,54.8 Z M47.8,51.7 C47.9,51.7 47.8,51.6 47.8,51.6 C47.7,51.6 47.7,51.6 47.6,51.6 C47.5,51.6 47.6,51.7 47.6,51.7 C47.6,51.7 47.7,51.8 47.8,51.7 Z M47.8,55.6 C47.7,55.7 47.8,55.7 47.9,55.7 C48,55.7 48.1,55.7 48.1,55.7 C48.1,55.5 48.3,55.5 48.5,55.4 C48.5,55.4 48.6,55.4 48.5,55.3 C48.5,55.3 48.4,55.2 48.3,55.3 C48.2,55.4 48,55.3 47.9,55.4 C47.9,55.6 47.9,55.6 47.8,55.6 Z M47.7,52.3 C47.6,52.3 47.7,52.4 47.7,52.4 C47.8,52.4 47.8,52.4 47.9,52.4 C48,52.3 47.9,52.3 47.9,52.3 C47.8,52.2 47.7,52.2 47.7,52.3 Z M50.3,65.2 C50.3,65.3 50.3,65.3 50.4,65.4 C50.4,65.4 50.4,65.4 50.5,65.4 C50.5,65.4 50.5,65.4 50.6,65.4 L50.6,65.4 C50.6,65.4 50.6,65.3 50.6,65.3 C50.6,65.3 50.7,65.2 50.6,65.2 C50.5,65.2 50.4,65.2 50.3,65.2 C50.3,65.2 50.3,65.2 50.3,65.2 Z M48.5,58.9 C48.5,58.9 48.4,58.9 48.4,58.9 C48.4,58.9 48.3,59 48.4,59 C48.4,59 48.5,59 48.5,59 C48.6,59 48.6,59 48.5,58.9 Z M48.4,61.8 C48.3,61.8 48.3,61.8 48.2,61.8 C48.2,61.8 48,61.9 48.1,61.9 C48.2,61.9 48.3,61.9 48.3,61.9 C48.4,61.9 48.5,61.9 48.4,61.8 Z M48.1,61.7 C48,61.6 47.8,61.7 47.7,61.7 C47.7,61.7 47.7,61.7 47.7,61.8 C47.8,61.8 48,61.8 48.1,61.7 C48.2,61.7 48.1,61.7 48.1,61.7 Z M48.3,62.4 C48.2,62.4 48.1,62.3 48,62.4 C48.1,62.4 48.2,62.4 48.3,62.4 Z M48.5,59.5 C48.4,59.5 48.4,59.5 48.4,59.5 C48.4,59.5 48.3,59.6 48.4,59.6 C48.4,59.6 48.5,59.6 48.5,59.6 C48.5,59.6 48.5,59.6 48.5,59.5 Z M48.4,60.4 C48.2,60.4 48.1,60.4 47.9,60.4 C47.8,60.4 47.8,60.6 47.9,60.7 C48,60.7 48.2,60.7 48.3,60.7 C48.4,60.7 48.5,60.4 48.4,60.4 Z M49,62.9 C49,62.8 49.1,62.8 49.1,62.7 L49.1,62.7 C49,62.7 49,62.6 48.9,62.6 C48.7,62.6 48.8,62.7 48.8,62.8 C48.8,62.8 48.8,62.9 48.9,62.9 C49,63 49,63 49,62.9 Z M51.5,65.1 C51.5,65.1 51.6,65.1 51.6,65.1 C51.6,65.1 51.6,65.1 51.6,65.1 C51.6,65 51.6,65 51.5,64.9 C51.3,64.9 51.2,64.8 51,64.8 C51,64.8 51,64.8 51,64.8 C51,64.9 50.9,65 50.7,65 C50.6,65 50.6,65.1 50.7,65.1 C50.8,65.1 50.9,65.2 51,65.1 C51.2,65.1 51.3,65 51.5,65.1 Z M50.3,68 C50.3,68 50.4,67.9 50.3,67.9 C50.2,67.9 50.2,67.9 50.1,67.9 C50.1,67.9 50,68 50.1,68 C50.2,68 50.3,68 50.3,68 Z M50.4,67.3 C50.4,67.3 50.3,67.3 50.3,67.3 C50.2,67.4 49.9,67.4 49.8,67.5 C50,67.5 50.2,67.5 50.4,67.3 C50.4,67.4 50.4,67.3 50.4,67.3 Z M51.8,69.1 C51.7,69.1 51.4,69 51.4,69.1 C51.4,69.3 51.3,69.5 51.4,69.7 C51.5,69.6 51.7,69.4 51.8,69.3 C51.9,69.2 51.9,69.1 51.8,69.1 Z M52.3,68.3 C52.4,68.2 52.4,68.2 52.3,68.3 C52.1,68.2 52,68.1 51.9,68 C51.8,68.1 51.7,68.2 51.5,68.2 C51.4,68.1 51.6,68.1 51.6,68 C51.4,68 51.3,68.1 51.3,68.2 C51.3,68.3 51.4,68.2 51.5,68.3 C51.4,68.4 51.3,68.4 51.5,68.5 C51.6,68.5 51.8,68.5 51.8,68.4 C51.8,68.2 52,68.3 52.1,68.3 C52.2,68.4 52.3,68.3 52.3,68.3 Z M49.9,59.3 C49.9,59.3 49.9,59.3 49.9,59.3 C49.9,59.2 49.9,59.2 49.9,59.3 L49.9,59.3 L49.9,59.3 C49.7,59.3 49.5,59.4 49.3,59.4 C49.3,59.4 49.2,59.5 49.2,59.5 C49.2,59.5 49.3,59.6 49.3,59.6 C49.4,59.6 49.4,59.6 49.5,59.5 C49.7,59.4 49.8,59.3 49.9,59.3 C49.9,59.3 49.9,59.3 49.9,59.3 Z M52.6,67.1 C52.7,67.1 52.7,67 52.6,67.1 C52.5,67 52.5,67 52.4,67 C52.4,67 52.4,67.1 52.4,67.1 C52.5,67.1 52.6,67.1 52.6,67.1 Z M52.6,65.8 C52.6,65.8 52.6,65.8 52.6,65.8 C52.8,65.8 52.9,65.6 52.8,65.5 C52.7,65.5 52.7,65.5 52.6,65.5 C52.5,65.6 52.5,65.7 52.3,65.7 C52.2,65.7 52.2,65.8 52.2,65.8 C52.2,65.9 52.4,65.9 52.4,65.8 C52.5,65.9 52.8,65.9 52.6,65.8 Z M47.1,55.4 C47.2,55.4 47.2,55.3 47.2,55.3 C47.2,55.2 47.2,55.2 47.3,55.1 C47.2,55.1 47.1,55.1 47.1,55.1 C47,55.2 47,55.3 47.1,55.4 C47,55.4 47,55.4 47.1,55.4 Z M46.7,56.1 C46.7,56.1 46.7,56.1 46.7,56.1 C46.7,56.1 46.7,56.2 46.7,56.1 C46.9,56.2 46.9,56.1 46.9,56.1 C46.9,56.1 46.9,56 46.8,56 C46.7,56 46.7,56 46.7,56.1 Z M46.9,55.6 C46.9,55.6 46.9,55.7 46.8,55.7 L46.8,55.7 C46.8,55.7 46.8,55.7 46.8,55.7 C46.8,55.7 46.9,55.7 46.9,55.7 C47,55.7 47.1,55.6 47.1,55.5 C47.1,55.5 47.1,55.4 47,55.4 C46.9,55.5 46.9,55.5 46.9,55.6 Z M49.5,61.8 C49.6,61.8 49.6,61.7 49.5,61.8 C49.6,61.7 49.7,61.7 49.6,61.6 C49.5,61.5 49.4,61.6 49.4,61.7 C49.3,61.8 49.3,61.9 49.4,61.9 C49.5,61.9 49.4,61.8 49.5,61.8 Z M46.6,57.6 C46.7,57.6 46.8,57.6 46.9,57.6 C47,57.6 46.8,57.5 46.8,57.5 C46.8,57.5 46.7,57.5 46.6,57.6 C46.6,57.6 46.5,57.6 46.6,57.6 Z M49.3,68.7 C49.4,68.7 49.5,68.6 49.4,68.5 C49.3,68.4 49.2,68.5 49.2,68.5 C49.1,68.5 49,68.6 49.1,68.7 C49.1,68.8 49.2,68.8 49.3,68.7 Z M47.9,62.5 C47.7,62.3 47.5,62.4 47.3,62.4 L47.3,62.4 C47.5,62.6 47.7,62.5 47.9,62.5 Z M47.4,66.4 C47.4,66.3 47.2,66.3 47.1,66.3 C47,66.4 47,66.4 47,66.5 C47.1,66.5 47.2,66.4 47.4,66.4 C47.4,66.4 47.4,66.4 47.4,66.4 Z M49,52.8 C49,52.8 49,52.7 49,52.8 C48.9,52.7 48.8,52.8 48.8,52.8 C48.8,52.8 48.9,52.8 49,52.8 Z M49.3,58.6 C49.2,58.6 49.2,58.6 49.1,58.6 C48.9,58.7 48.8,58.8 48.7,58.9 C48.8,58.9 49,58.9 49.1,58.9 C49.2,58.9 49.2,58.9 49.2,58.9 C49.1,58.8 49.3,58.7 49.3,58.7 C49.4,58.7 49.4,58.6 49.3,58.6 Z M49.4,57.8 C49.4,57.8 49.3,57.8 49.3,57.8 C49.2,57.8 49.3,57.8 49.3,57.9 C49.3,58 49.5,58.1 49.2,58.2 C49.2,58.2 49.2,58.3 49.2,58.3 C49.2,58.3 49.3,58.4 49.3,58.3 C49.7,58.2 49.7,58 49.4,57.8 Z M47.1,57.2 C47.1,57.1 47.3,57.1 47.2,57 C47.2,57 47.1,57 47.1,57 C47.1,57.1 46.9,57.1 47,57.2 C47,57.3 47,57.3 47.1,57.2 Z M49.2,57.3 C49.3,57.3 49.4,57.2 49.4,57.2 C49.4,57.2 49.4,57.2 49.4,57.1 C49.3,57.1 49.3,57.1 49.3,57.1 C49.3,57.1 49.2,57.1 49.2,57.2 C49.1,57.3 49.1,57.3 49.2,57.3 Z M47.2,64.1 C47.1,64.1 47.1,64.2 47,64.2 C47,64.2 46.9,64.3 46.9,64.3 C47,64.3 47.1,64.3 47.1,64.3 C47.2,64.2 47.4,64.2 47.2,64.1 L47.2,64.1 Z M48.7,57.8 C48.8,57.7 49,57.7 49,57.7 C49.2,57.6 49.2,57.7 49.4,57.7 C49.5,57.7 49.5,57.7 49.6,57.7 C49.6,57.6 49.6,57.5 49.6,57.5 C49.6,57.5 49.6,57.5 49.5,57.5 C49.5,57.5 49.4,57.5 49.4,57.5 C49.4,57.7 49,57.7 48.8,57.7 C48.5,57.7 48.7,57.8 48.7,57.8 Z M49.3,60.9 C49.3,60.8 49.3,60.8 49.3,60.9 C49.2,60.8 49.2,60.9 49.1,60.9 C49.1,60.9 49.1,60.9 49,60.9 C49,60.9 49,60.9 48.9,60.9 C48.9,60.9 49,60.9 49.1,60.9 C49.2,61 49.3,60.9 49.3,60.9 Z M47.1,66.1 C47.1,66 47.2,66 47.3,66 C47.4,66 47.4,65.9 47.4,65.9 C47.4,65.9 47.3,65.8 47.3,65.8 C47.2,65.8 47.2,65.9 47.2,65.9 C47.1,65.9 47.2,66 47.1,66.1 C47.1,66.1 47.1,66.1 47.1,66.1 Z M48.8,59 C48.7,59 48.7,59.1 48.8,59.1 C48.9,59.1 48.9,59.1 49,59.1 C49,59.1 49.1,59.1 49.1,59 C48.9,59 48.8,59 48.8,59 Z M51,59.7 C51.1,59.6 51,59.6 50.9,59.5 C50.9,59.5 50.8,59.5 50.8,59.5 C50.7,59.6 50.8,59.6 50.9,59.7 C50.9,59.7 50.9,59.7 51,59.7 Z M51,58.1 C50.9,58.1 50.9,58.1 50.8,58.1 C50.7,58.2 50.7,58.2 50.8,58.3 C50.8,58.3 50.9,58.3 50.9,58.3 C51,58.3 51.1,58.2 51,58.1 Z M50.7,60.2 C50.8,60.2 50.9,60.2 50.8,60.1 C50.8,60 50.8,59.8 50.8,59.7 C50.5,59.9 50.7,60 50.7,60.2 C50.6,60.2 50.6,60.3 50.7,60.2 Z M50,57.5 C50,57.6 50.1,57.5 50.2,57.5 C50.4,57.5 50.2,57.4 50.3,57.3 C50,57.4 49.9,57.5 50,57.5 Z M49.8,56.5 C49.8,56.5 49.8,56.6 49.8,56.6 C49.9,56.6 49.9,56.6 50,56.6 C50,56.6 50.1,56.5 50,56.5 C49.9,56.5 49.8,56.5 49.8,56.5 Z M50,62.6 C50.1,62.5 50.2,62.5 50.2,62.5 C50.2,62.5 50.1,62.5 50,62.5 C50.1,62.5 50,62.5 50,62.6 Z M47.1,56.3 C47.1,56.2 46.9,56.2 46.8,56.2 C46.8,56.3 46.8,56.3 46.8,56.4 C46.8,56.4 46.8,56.4 46.9,56.4 C47.1,56.4 47.1,56.4 47.1,56.3 Z M47.2,58.1 C47.3,58.1 47.3,58.1 47.4,58.1 C47.5,58 47.5,57.9 47.4,57.8 C47.4,57.8 47.3,57.8 47.3,57.8 C47.2,57.8 47.2,57.8 47.1,57.8 C47,57.9 47.2,57.9 47.2,57.9 C47.3,57.9 47.3,57.9 47.2,58.1 C47.2,58 47.1,58.1 47.2,58.1 Z M47.7,57.8 C47.7,57.8 47.8,57.8 47.7,57.8 C47.7,57.7 47.6,57.7 47.5,57.7 C47.4,57.7 47.3,57.7 47.4,57.8 C47.6,57.8 47.6,57.8 47.7,57.8 Z M47.4,57.4 C47.5,57.3 47.5,57.3 47.6,57.2 C47.7,57.2 47.7,57.1 47.6,57.1 C47.5,57.1 47.5,57.1 47.4,57.1 C47.3,57.2 47.3,57.2 47.2,57.3 C47.2,57.3 47.1,57.4 47.2,57.4 C47.3,57.4 47.4,57.4 47.4,57.4 Z M47.7,57.6 C47.6,57.6 47.4,57.6 47.6,57.7 C47.6,57.6 47.7,57.6 47.7,57.6 Z M47.2,56.7 C47.2,56.7 47.2,56.7 47.2,56.7 C47.3,56.8 47.3,56.7 47.4,56.7 C47.4,56.7 47.6,56.7 47.5,56.6 C47.4,56.6 47.3,56.7 47.2,56.7 Z M48,55.9 C48,55.8 48,55.8 48,55.9 C47.7,56 47.7,56.1 47.6,56.2 C48.1,56.1 48.1,56 48,55.9 L48,55.9 Z M47.5,55.8 C47.5,55.8 47.3,55.9 47.4,55.9 C47.5,55.9 47.5,55.9 47.6,55.9 C47.7,55.9 47.7,55.8 47.7,55.8 C47.6,55.7 47.6,55.8 47.5,55.8 Z M48.4,56.9 C48.4,57 48.3,57 48.4,57.1 C48.5,57 48.5,57 48.4,56.9 Z M48,58.5 C48,58.6 48.2,58.8 48.3,58.8 C48.5,58.8 48.5,58.7 48.6,58.6 C48.6,58.6 48.7,58.5 48.6,58.5 C48.5,58.5 48.5,58.6 48.4,58.6 C48.3,58.6 48.2,58.7 48.2,58.6 C48.2,58.6 48.2,58.5 48.3,58.5 C48.4,58.5 48.5,58.4 48.6,58.3 C48.6,58.3 48.6,58.3 48.6,58.3 C48.6,58.3 48.5,58.3 48.5,58.3 C48.3,58.3 48,58.3 48,58.5 Z M47.6,61.4 C47.5,61.4 47.5,61.5 47.6,61.4 C47.7,61.5 47.8,61.5 47.8,61.5 C47.8,61.5 47.9,61.4 47.8,61.4 C47.7,61.4 47.6,61.4 47.6,61.4 Z M48.2,58.1 C48.2,58.1 48.1,58.1 48.1,58.2 C48.2,58.2 48.2,58.2 48.2,58.1 C48.3,58.2 48.4,58.1 48.4,58.1 C48.4,58.1 48.4,58.1 48.3,58.1 C48.3,58 48.2,58.1 48.2,58.1 Z M47.5,62.7 C47.5,62.7 47.5,62.6 47.4,62.6 C47.3,62.6 47.2,62.6 47.2,62.7 C47.2,62.7 47.2,62.8 47.2,62.8 C47.2,62.8 47.3,62.8 47.3,62.8 C47.4,62.8 47.5,62.8 47.5,62.7 Z M47.8,57.9 C47.8,57.9 47.7,57.9 47.7,58 C47.7,58 47.7,58 47.7,58 C47.7,58 47.6,58 47.6,58.1 C47.5,58.2 47.5,58.2 47.6,58.3 C47.7,58.4 47.8,58.3 47.8,58.2 C47.9,58.2 47.9,58.1 48,58 C48,58 48.1,57.9 48,57.9 C48,57.8 47.9,57.9 47.8,57.9 Z M48.2,60.2 C48.3,60.2 48.4,60.3 48.4,60.3 C48.4,60.2 48.4,60.1 48.4,60.1 C48.4,60.1 48.3,60.1 48.3,60.1 C48.2,60.1 48.1,60.1 48.2,60.2 Z M48.3,59.2 C48.3,59.2 48.2,59.2 48.1,59.2 C48,59.3 48,59.3 48,59.4 C48,59.4 48.1,59.4 48.1,59.4 C48.3,59.3 48.4,59.3 48.3,59.2 Z" id="Shape" fill="#A6C7C9" opacity="0.6"></path>
                    <g id="Group" transform="translate(42.000000, 0.000000)">
                        <g transform="translate(9.000000, 48.000000)" id="Path">
                            <path d="M7.4,3.9 C5.9,4.7 3.6,4.7 2.1,3.9 C1.4,3.5 1,2.9 1,2.4 L1,9.9 C1,10.5 1.4,11 2.1,11.4 C3.6,12.2 5.9,12.2 7.4,11.4 C8.1,11 8.5,10.4 8.5,9.9 L8.5,2.4 C8.5,2.9 8.1,3.4 7.4,3.9 Z" fill="url(#linearGradient-4)"></path>
                            <path d="M7.4,0.8 C8.9,1.6 8.9,3 7.4,3.9 C5.9,4.7 3.6,4.7 2.1,3.9 C0.6,3.1 0.6,1.7 2.1,0.8 C3.5,-0.1 5.9,-0.1 7.4,0.8 Z" fill="#F3F3F3"></path>
                        </g>
                        <g transform="translate(11.000000, 20.000000)" id="Path">
                            <path d="M1.3,1 C0.9,9.8 0.5,13.4 0.1,30.1 C0.1,30.5 0.3,30.9 0.9,31.2 C2,31.8 3.7,31.9 4.8,31.2 C5.4,30.9 5.6,30.5 5.6,30 C5.3,13.3 5,9.7 4.7,0.9 L1.3,0.9 L1.3,1 Z" fill="url(#linearGradient-5)"></path>
                            <path d="M3.9,3.3 C3.4,3 2.7,3 2.2,3.3 C1.7,3.6 1.7,4 2.2,4.3 C2.7,4.6 3.4,4.6 3.9,4.3 C4.3,4 4.3,3.6 3.9,3.3 Z" fill="#DADADA"></path>
                        </g>
                        <g>
                            <g transform="translate(7.000000, 18.000000)" id="Path">
                                <path d="M6.6,0.8 C5.7,0.3 4.9,0.2 4.3,0.6 L1.2,2.4 C1.8,2.1 2.6,2.1 3.5,2.6 L7.7,5 L10.8,3.2 L6.6,0.8 Z" fill="#F3F3F3"></path>
                                <path d="M10.8,3.2 L7.7,5 C8.5,5.5 9.2,6.6 9.2,7.6 L9.2,10.1 C9.2,10.5 9.1,10.8 8.8,11 L11.9,9.2 C12.1,9.1 12.3,8.8 12.3,8.3 L12.3,5.8 C12.2,4.8 11.6,3.7 10.8,3.2 Z" fill="#ECECEC"></path>
                                <path d="M10.8,3.2 L7.7,5 C8.5,5.5 9.2,6.6 9.2,7.6 L12.3,5.8 C12.2,4.8 11.6,3.7 10.8,3.2 Z" fill="#F3F3F3" opacity="0.6"></path>
                                <path d="M7.6,5 L3.4,2.6 C1.6,1.6 0.1,2.4 0.1,4.5 L0.1,4.9 C0.1,5.7 0.7,6.8 1.4,7.2 L7.7,10.8 C8.4,11.2 9,10.9 9,10 L9,7.5 C9.1,6.7 8.4,5.5 7.6,5 Z" fill="#DADADA"></path>
                            </g>
                            <path d="M16.5,27 C16.5,27.9 17.1,28.2 17.9,27.8 C18.7,27.4 19.3,26.3 19.3,25.4 C19.3,24.5 18.7,24.2 17.9,24.6 C17.1,25.1 16.5,26.1 16.5,27 Z" id="Path" fill="#DADADA"></path>
                            <path d="M11.1,24.1 L8.1,22.4 L8.1,22 L11.1,23.7 L11.1,24.1 Z M11.1,24.6 L8.1,22.9 L8.1,23.3 L11.1,25 L11.1,24.6 Z M12.4,24.2 C12,24 11.7,24.2 11.7,24.6 C11.7,25 12,25.6 12.4,25.8 C12.8,26 13.1,25.8 13.1,25.4 C13.1,25 12.8,24.4 12.4,24.2 Z" id="Shape" fill="#39393D" opacity="0.7"></path>
                            <path d="M39.5,27.4 C39.5,27.4 39.5,27.4 39.5,27.4 L39.5,27.4 C39.5,27.4 39.5,27.4 39.5,27.4 L20.8,26.6 L20.5,27.5 L23.6,30.1 C23.6,30.1 23.7,30.2 23.7,30.2 L23.8,30.2 C23.8,30.2 23.7,30.2 23.7,30.1 C23.9,30.2 24.1,30.3 24.3,30.3 L39.2,28.8 C39.3,28.6 39.8,27.4 39.5,27.4 Z" id="Path" fill="url(#linearGradient-6)"></path>
                            <g transform="translate(16.000000, 24.000000)" id="Path">
                                <path d="M4.9,1.8 C4.9,1.8 4.9,1.8 4.9,1.8 L2.9,0.6 C2.7,0.5 2.3,0.5 1.9,0.7 C1.2,1.1 0.6,2.2 0.6,3 C0.6,3.4 0.8,3.7 1,3.8 L3,5 C3,5 3,5 3,5 L3.8,5.5 C3.6,5.4 3.4,5.1 3.4,4.7 C3.4,3.9 4,2.8 4.7,2.4 C5.1,2.2 5.4,2.2 5.7,2.3 L4.9,1.8 Z" fill="url(#linearGradient-7)"></path>
                                <path d="M5.7,2.3 C5.5,2.2 5.1,2.2 4.7,2.4 C4,2.8 3.4,3.9 3.4,4.7 C3.4,5.1 3.6,5.4 3.8,5.5 C4,5.6 4.3,5.8 4.7,5.7 C5,5.7 5.4,5.6 5.7,5.4 C6.4,5 6.6,4.3 6.6,3.8 C6.6,3.5 6.5,2.7 5.7,2.3 Z" fill="url(#radialGradient-8)"></path>
                            </g>
                            <path d="M21.9,18.2 L20.2,0.8 C20.2,0.8 20.2,0.7 20.2,0.7 C20.2,0.7 20.2,0.7 20.2,0.7 L20.1,0.7 C20,0.7 19.8,0.7 19.6,0.8 C19.3,1 19,1.2 19,1.4 L19.1,25.7 L19.2,25.7 L19.9,25.3 L21.8,19.1 C21.9,18.8 21.9,18.4 21.9,18.2 Z" id="Path" fill="url(#linearGradient-9)"></path>
                            <path d="M18.2,28.2 L13.4,32 C13.1,32.2 12.9,32.5 12.7,32.8 L0.3,51.6 C0.2,51.8 0.4,52.2 0.6,52.3 L0.7,52.3 C0.7,52.3 0.7,52.3 0.7,52.3 C0.8,52.4 0.9,52.4 1,52.3 C1,52.3 1.1,52.3 1.1,52.2 L18.7,28.6 L18.2,28.2 L18.2,28.2 Z" id="Path" fill="url(#linearGradient-10)"></path>
                            <path d="M22.2,27 C22.4,27.4 22.3,27.8 22,28 C21.7,28.2 21.2,28 21,27.6 C20.8,27.2 20.9,26.8 21.2,26.6 C21.5,26.4 22,26.6 22.2,27 Z" id="Path" fill="url(#linearGradient-11)" opacity="0.6"></path>
                        </g>
                    </g>
                </g>
            </g>
        </g>
    </g>
</svg>