<?xml version="1.0" encoding="UTF-8"?>
<svg width="81px" height="82px" viewBox="0 0 81 82" version="1.1" xmlns="http://www.w3.org/2000/svg" xmlns:xlink="http://www.w3.org/1999/xlink">
    <!-- Generator: Sketch 54.1 (76490) - https://sketchapp.com -->
    <title>2</title>
    <desc>Created with Sketch.</desc>
    <defs>
        <linearGradient x1="74.1491541%" y1="14.3292603%" x2="39.9723059%" y2="97.9588099%" id="linearGradient-1">
            <stop stop-color="#7DA91A" offset="24.9%"></stop>
            <stop stop-color="#84AF20" offset="38.96%"></stop>
            <stop stop-color="#97C12F" offset="59.02%"></stop>
            <stop stop-color="#A4CE3A" offset="70.11%"></stop>
        </linearGradient>
        <linearGradient x1="85.96747%" y1="8.23383007%" x2="12.5091006%" y2="93.1051522%" id="linearGradient-2">
            <stop stop-color="#221E1E" offset="0%"></stop>
            <stop stop-color="#332D2D" offset="52.17%"></stop>
            <stop stop-color="#221E1E" offset="52.96%"></stop>
        </linearGradient>
    </defs>
    <g id="Page-1" stroke="none" stroke-width="1" fill="none" fill-rule="evenodd">
        <g id="20220-[преобразованный]" transform="translate(-139.000000, -13.000000)" fill-rule="nonzero">
            <g id="Group">
                <g id="2" transform="translate(139.000000, 13.000000)">
                    <path d="M35.2,64.6 C29.1,64.6 17.6,68.4 12.9,71.1 L3.5,76.5 C-1.1,79.2 0.1,81.3 6.2,81.3 L51.1,81.2 L80,64.5 L35.2,64.6 Z" id="Path" fill="#2A5C70"></path>
                    <g id="Axonometric_Cube_27_" transform="translate(38.000000, 50.000000)">
                        <polygon id="Cube_face_-_left_657_" fill="#B7B3A9" points="13.1 31.2 0.9 24.2 0.9 17.5 13.1 24.5"></polygon>
                        <polygon id="Cube_face_-_right_657_" fill="#D1CEC4" points="42.1 14.5 13.1 31.2 13.1 24.5 42.1 7.8"></polygon>
                        <polygon id="Cube_face_-_top_657_" fill="#EAE6DA" points="13.1 24.5 0.9 17.5 29.9 0.7 42.1 7.8"></polygon>
                        <polygon id="Path" fill="#B7B3A9" opacity="0.7" points="12.8 23.1 29.1 7.5 29.9 0.7 0.9 17.5 10.6 23.1"></polygon>
                    </g>
                    <g id="Group" transform="translate(41.000000, 0.000000)">
                        <path d="M32.9,34 C32.9,33.1 32.6,32.4 32,32.1 L22.3,26.5 C22.8,26.8 23.2,27.5 23.2,28.4 L23.3,47.7 C23.3,49.6 22,51.9 20.3,52.9 L6.5,60.9 C5.7,61.4 4.9,61.4 4.4,61.1 L14.1,66.7 C14.6,67 15.4,67 16.2,66.5 L30,58.5 C31.7,57.5 33,55.2 33,53.3 L32.9,34 Z" id="Path" fill="url(#linearGradient-1)"></path>
                        <path d="M27.9,7.7 L18.2,2.1 C20.5,0.8 22.6,0.6 24.1,1.5 L33.8,7.1 C32.3,6.2 30.2,6.3 27.9,7.7 L27.9,7.7 Z" id="Path" fill="#F3F3F3"></path>
                        <polygon id="Path" fill="#D3D3D3" points="9.8 73.1 0.1 67.5 0 22.2 9.7 27.8"></polygon>
                        <polygon id="Path" fill="#ECECEC" points="18 13.4 8.3 7.8 18.2 2 27.9 7.7"></polygon>
                        <path d="M27.9,7.7 C32.5,5 36.2,7.2 36.3,12.5 L36.4,57.8 L9.8,73.2 L9.7,27.9 C9.7,22.6 13.4,16.2 18,13.5 L27.9,7.7 Z M33,53.3 L32.9,34 C32.9,32.1 31.5,31.3 29.9,32.3 L16.1,40.3 C14.4,41.3 13.1,43.6 13.1,45.5 L13.2,64.8 C13.2,66.7 14.6,67.5 16.2,66.5 L30,58.5 C31.7,57.6 33,55.2 33,53.3 L33,53.3 Z" id="Shape" fill="#E5E5E5"></path>
                        <path d="M9.7,27.8 L0,22.2 C0,16.9 3.7,10.5 8.3,7.8 L18,13.4 C13.4,16.1 9.7,22.5 9.7,27.8 L9.7,27.8 Z" id="Path" fill="#F3F3F3"></path>
                    </g>
                    <g id="Group" transform="translate(42.000000, 49.000000)" fill="#669506">
                        <path d="M2.2,6.5 C1.1,5.2 0.4,3.6 0.4,2.4 C0.4,0.5 1.9,-0.2 3.8,0.9 C4.4,1.3 5,1.8 5.5,2.4 C6.6,3.7 7.3,5.3 7.3,6.5 C7.3,8.4 5.8,9.1 3.9,8 C3.3,7.7 2.7,7.2 2.2,6.5 L2.2,6.5 Z M5.4,2.8 C4.9,2.3 4.4,1.8 3.9,1.5 C2.2,0.5 0.8,1.1 0.8,2.8 C0.8,3.9 1.3,5.1 2.3,6.2 C2.8,6.7 3.3,7.2 3.8,7.5 C5.5,8.5 6.9,7.9 6.9,6.2 C6.9,5.1 6.4,3.9 5.4,2.8 Z" id="Shape"></path>
                        <path d="M3.8,7 C3.8,6.9 3.7,6.9 3.7,6.8 L4.2,4.6 L3.1,4.6 C3.1,4.6 3.1,4.6 3,4.6 C3,4.6 3,4.6 3,4.6 C3,4.5 2.9,4.5 3,4.5 L3.5,1.8 L4.3,2.2 C4.3,2.2 4.3,2.2 4.3,2.2 C4.3,2.2 4.3,2.2 4.3,2.3 C4.3,2.4 4.3,2.4 4.3,2.4 L3.6,4.1 L4.6,4.1 C4.6,4.1 4.6,4.1 4.7,4.1 C4.7,4.1 4.7,4.1 4.7,4.2 C4.7,4.3 4.8,4.3 4.7,4.3 L3.8,7 C3.8,7.1 3.8,7.1 3.8,7 C3.8,7.1 3.8,7.1 3.8,7 Z" id="Path"></path>
                    </g>
                    <g id="Group" transform="translate(43.000000, 28.000000)">
                        <path d="M3.4,1.7 C3.3,1.4 3.1,1.2 2.9,1 C2.7,0.8 2.6,0.7 2.4,0.6 C2.1,0.4 1.8,0.4 1.5,0.5 L0.4,1.2 C0.6,1.1 0.9,1.1 1.3,1.3 C1.5,1.4 1.7,1.6 1.8,1.7 C2,1.9 2.2,2.2 2.3,2.4 C2.4,2.7 2.5,3 2.5,3.3 C2.5,3.7 2.4,4 2.1,4.1 L3.2,3.4 C3.4,3.3 3.6,3 3.6,2.6 C3.6,2.3 3.5,2 3.4,1.7 Z" id="Path" fill="#48484D"></path>
                        <path d="M1.2,1.1 C0.5,0.7 0,1 0,1.8 C0,2.6 0.5,3.5 1.2,3.9 C1.9,4.3 2.4,4 2.4,3.2 C2.4,2.5 1.9,1.5 1.2,1.1 Z" id="Path" fill="#2B2B2D"></path>
                    </g>
                    <g id="Group" transform="translate(43.000000, 36.000000)">
                        <path d="M3.4,1.9 C3.3,1.6 3.1,1.4 2.9,1.2 C2.7,1 2.6,0.9 2.4,0.8 C2.1,0.6 1.8,0.6 1.5,0.7 L0.4,1.4 C0.6,1.3 0.9,1.3 1.3,1.5 C1.5,1.6 1.7,1.8 1.8,1.9 C2,2.1 2.2,2.4 2.3,2.6 C2.4,2.9 2.5,3.2 2.5,3.5 C2.5,3.9 2.4,4.2 2.1,4.3 L3.2,3.6 C3.4,3.5 3.6,3.2 3.6,2.8 C3.6,2.5 3.5,2.2 3.4,1.9 Z" id="Path" fill="#48484D"></path>
                        <path d="M1.2,1.4 C0.5,1 0,1.3 0,2.1 C0,2.9 0.5,3.8 1.2,4.2 C1.9,4.6 2.4,4.3 2.4,3.5 C2.4,2.7 1.9,1.8 1.2,1.4 Z" id="Path" fill="#2B2B2D"></path>
                    </g>
                    <g id="Group" transform="translate(57.000000, 15.000000)">
                        <path d="M13.2,8.9 L1.8,15.5 C1.2,15.8 0.8,15.6 0.8,15.1 L0.8,8.5 C0.8,7.9 1.3,7.2 1.8,6.9 L13.2,0.3 C13.8,0 14.2,0.2 14.2,0.7 L14.2,7.3 C14.2,7.9 13.7,8.6 13.2,8.9 Z" id="Path" fill="url(#linearGradient-2)"></path>
                        <polygon id="Path" fill="#6E9F14" points="12.8 2.2 2.2 8.3 2.2 13.7 12.8 7.6"></polygon>
                        <polygon id="Path" fill="#221E1E" opacity="0.6" points="12.5 2.4 12.5 7.4 2.2 13.3 2.2 13.7 12.8 7.6 12.8 2.2"></polygon>
                    </g>
                </g>
            </g>
        </g>
    </g>
</svg>