<?xml version="1.0" encoding="UTF-8"?>
<svg width="85px" height="84px" viewBox="0 0 85 84" version="1.1" xmlns="http://www.w3.org/2000/svg" xmlns:xlink="http://www.w3.org/1999/xlink">
    <!-- Generator: Sketch 54.1 (76490) - https://sketchapp.com -->
    <title>3</title>
    <desc>Created with Sketch.</desc>
    <defs>
        <linearGradient x1="15.5418502%" y1="49.9464217%" x2="97.6759912%" y2="49.9464217%" id="linearGradient-1">
            <stop stop-color="#669506" offset="27.59%"></stop>
            <stop stop-color="#7AA817" offset="34.99%"></stop>
            <stop stop-color="#8DB927" offset="44.72%"></stop>
            <stop stop-color="#9AC532" offset="56.18%"></stop>
            <stop stop-color="#A2CC38" offset="70.86%"></stop>
            <stop stop-color="#A4CE3A" offset="100%"></stop>
        </linearGradient>
        <linearGradient x1="4.98494845%" y1="49.8193377%" x2="105.079381%" y2="49.8193377%" id="linearGradient-2">
            <stop stop-color="#6FA206" offset="27.59%"></stop>
            <stop stop-color="#7FB015" offset="33.79%"></stop>
            <stop stop-color="#92C126" offset="43.7%"></stop>
            <stop stop-color="#9FCC33" offset="55.36%"></stop>
            <stop stop-color="#A7D33A" offset="70.32%"></stop>
            <stop stop-color="#A9D53C" offset="100%"></stop>
        </linearGradient>
        <linearGradient x1="-21.5811977%" y1="127.16626%" x2="66.8926428%" y2="34.6845544%" id="linearGradient-3">
            <stop stop-color="#BBBBBB" offset="0%"></stop>
            <stop stop-color="#7F7F7F" offset="100%"></stop>
        </linearGradient>
        <linearGradient x1="1.12903226%" y1="50.1753717%" x2="96.6870968%" y2="50.1753717%" id="linearGradient-4">
            <stop stop-color="#BBBBBB" offset="0%"></stop>
            <stop stop-color="#A8A8A8" offset="100%"></stop>
        </linearGradient>
    </defs>
    <g id="Page-1" stroke="none" stroke-width="1" fill="none" fill-rule="evenodd">
        <g id="20220-[преобразованный]" transform="translate(-6.000000, -301.000000)" fill-rule="nonzero">
            <g id="Group">
                <g id="3" transform="translate(6.000000, 301.000000)">
                    <path d="M60.3,55 L33.1,55 C31.9,55 30.6,55.3 29.6,56 L1,72.5 C0,73.1 0,74.5 1,75.1 L12.7,81.9 C14,82.7 15.6,83.1 17.1,83.1 L55.6,83.1 C56,83.1 56.3,83 56.6,82.8 L78.6,70.1 C79.4,69.6 79.5,68.5 78.7,67.9 L60.3,55 Z" id="Path" fill="#2A5C70"></path>
                    <g id="Group" transform="translate(56.000000, 63.000000)">
                        <g transform="translate(0.000000, 11.000000)" id="Path">
                            <polygon fill="#53534F" points="3.6 2.8 5.1 2 5.1 6.7 3.6 7.5"></polygon>
                            <polygon fill="#5D5D59" points="0.6 1.1 2.1 0.2 5.1 2 3.6 2.8"></polygon>
                            <polygon fill="#3A3A37" points="3.6 2.8 3.6 7.5 1.8 6.5 0.6 1.1"></polygon>
                        </g>
                        <g transform="translate(19.000000, 0.000000)" id="Path">
                            <polygon fill="#53534F" points="3.4 3 4.9 2.1 4.9 6.8 3.3 7.7"></polygon>
                            <polygon fill="#5D5D59" points="0.4 1.3 1.9 0.4 4.9 2.1 3.4 3"></polygon>
                            <polygon fill="#3A3A37" points="3.4 3 3.3 7.7 1.6 6.7 0.4 1.3"></polygon>
                        </g>
                    </g>
                    <g id="Group" transform="translate(37.000000, 3.000000)">
                        <path d="M14.1,73.1 L2.9,66.6 C2.4,66.3 2.1,65.8 2.1,65.3 L2.1,49.9 L14.1,56.8 L14.1,73.1 Z" id="Path" fill="#5D8813"></path>
                        <path d="M44.5,12.6 L22.3,25.5 C20.4,26.6 17.4,26.6 15.5,25.5 L1.9,17.7 C0.9,17.1 0.5,16.4 0.5,15.7 L0.5,53.7 C0.5,54.6 1,55.4 1.7,55.8 L9.2,60.1 C9.9,60.5 10.3,61.2 10.3,62 L10.3,71.5 C10.3,71.9 10.5,72.3 10.9,72.5 L15.5,75.2 C17.4,76.3 20.5,76.3 22.3,75.2 L44.5,62.3 C45.4,61.8 45.9,61 45.9,60.3 L45.9,10.7 C45.9,11.4 45.5,12.1 44.5,12.6 Z" id="Path" fill="url(#linearGradient-1)"></path>
                        <path d="M44.5,8.7 L30.9,0.9 C29,-0.2 25.9,-0.2 24.1,0.9 L1.9,13.8 C7.16093851e-15,14.9 7.16093851e-15,16.7 1.9,17.8 L15.5,25.6 C17.4,26.7 20.5,26.7 22.3,25.6 L44.5,12.7 C46.4,11.5 46.4,9.8 44.5,8.7 Z" id="Path" fill="#7DA91A"></path>
                    </g>
                    <g id="Group" transform="translate(36.000000, 0.000000)">
                        <path d="M45.6,10.3 L31.7,2.3 C30.1,1.4 27.5,1.4 25.9,2.3 L2.9,15.7 C2.1,16.2 1.7,16.8 1.7,17.4 L1.7,19.5 C1.7,18.9 2.1,18.3 2.9,17.8 L25.9,4.4 C27.5,3.5 30.1,3.5 31.7,4.4 L45.6,12.4 C46.4,12.9 46.8,13.5 46.8,14.1 L46.8,12 C46.8,11.4 46.4,10.8 45.6,10.3 Z" id="Path" fill="#7DA91A"></path>
                        <path d="M46.8,9.6 L32.9,1.6 C30.6,0.3 27,0.3 24.7,1.6 L1.7,15 C-0.6,16.3 -0.5,18.4 1.7,19.7 L15.6,27.7 C17.9,29 21.5,29 23.8,27.7 L46.8,14.3 C49,13 49,10.9 46.8,9.6 Z M45.6,13.7 L22.6,27.1 C21,28 18.4,28 16.8,27.1 L2.9,19.1 C1.3,18.2 1.3,16.7 2.9,15.7 L25.9,2.3 C27.5,1.4 30.1,1.4 31.7,2.3 L45.6,10.3 C47.2,11.2 47.2,12.7 45.6,13.7 Z" id="Shape" fill="#BEE344"></path>
                        <path d="M46.8,14.4 L23.8,27.8 C21.5,29.1 17.9,29.1 15.6,27.8 L1.7,19.8 C0.6,19.1 -7.10542736e-15,18.3 -7.10542736e-15,17.4 L-7.10542736e-15,19.5 C-7.10542736e-15,20.4 0.6,21.2 1.7,21.9 L15.6,29.9 C17.9,31.2 21.5,31.2 23.8,29.9 L46.8,16.5 C47.9,15.8 48.5,15 48.5,14.1 L48.5,12 C48.5,12.9 47.9,13.7 46.8,14.4 Z" id="Path" fill="url(#linearGradient-2)"></path>
                    </g>
                    <path d="M73.1,29.2 L68.5,31.9 C69,31.8 69.3,31.9 69.6,32.3 L71.6,34.6 L70.3,36 L74.4,33.7 L76.4,29 L75.2,30.5 L74.1,29.2 C73.8,29 73.5,29 73.1,29.2 L73.1,29.2 Z M67.4,32.7 C66.7,33.1 66.1,33.8 65.7,34.6 L64,38.5 L67.6,38.5 L69.2,34.8 C69.6,33.9 69.6,33.1 69.2,32.7 C68.8,32.3 68.2,32.2 67.4,32.7 L67.4,32.7 Z M76.8,32.4 L73.2,36.5 L74.8,38.3 C75.2,38.7 75.9,38.7 76.7,38.3 C77.1,38.1 77.5,37.7 77.8,37.4 C78.4,36.7 78.8,35.7 78.8,35.1 C78.8,34.8 78.7,34.5 78.5,34.3 L76.8,32.4 L76.8,32.4 Z M65.2,40 L61.1,42.4 L62.4,42.4 L61.3,45 C61.2,45.2 61.2,45.4 61.2,45.6 C61.2,45.8 61.3,45.9 61.3,46 L63.7,48.7 C63.7,48.6 63.7,48.5 63.7,48.4 C63.7,48.1 63.9,47.5 64,47 L66,42.3 L67.3,42.3 L65.2,40 L65.2,40 Z M72.7,39.7 L70.6,44.4 L72.7,46.7 L72.7,45.2 L74.9,43.9 C75.3,43.7 75.6,43.3 75.8,42.9 L78.1,37.5 C77.7,38 77.2,38.5 76.7,38.8 L76.7,38.8 L72.7,41.1 L72.7,39.7 L72.7,39.7 Z M69.4,43 L66.2,44.9 C65.4,45.3 64.7,46.2 64.4,47 L64.4,47 C64.2,47.4 64.1,48 64.1,48.3 C64.1,49.4 65,49.7 66.1,49.1 L66.1,49.1 L69.5,47.1 L69.5,43 L69.4,43 Z" id="Shape" fill="#FFFFFF"></path>
                    <g id="_x36__1_" transform="translate(32.000000, 60.000000)">
                        <g id="Group">
                            <g id="Path">
                                <path d="M13.7,6.9 C13.2,5.7 12.4,4.5 11.5,3.5 C10.8,2.7 9.9,2 9.1,1.5 C7.6,0.6 6.2,0.5 5.1,1.1 L2,2.9 L9.9,16.4 L13,14.6 C14,14 14.6,12.8 14.6,11 C14.7,9.8 14.3,8.3 13.7,6.9 Z" fill="#3D3C3A"></path>
                                <path d="M6.1,3.3 C3,1.5 0.5,3 0.5,6.5 C0.5,10 3,14.3 6,16.1 C9.1,17.9 11.6,16.4 11.6,12.9 C11.6,9.3 9.1,5 6.1,3.3 Z" fill="#2D2C2B"></path>
                            </g>
                            <path d="M6.1,5.1 C3.9,3.8 2.1,4.8 2.1,7.4 C2.1,9.9 3.9,13 6.1,14.3 C8.3,15.6 10.1,14.6 10.1,12 C10,9.4 8.3,6.4 6.1,5.1 Z" id="Path" fill="#2D2C2B"></path>
                            <g transform="translate(2.000000, 4.000000)">
                                <path d="M7.6,7.6 C7.6,5.4 6.1,2.6 4.2,1.4 C3.9,1.2 3.7,1.1 3.4,1 C2.8,1.2 2.3,1.9 2.3,3 C2.3,4.9 3.6,7.2 5.2,8.2 C6.1,8.8 7,8.8 7.5,8.3 C7.5,8.1 7.5,7.9 7.6,7.6 Z" id="Path" fill="url(#linearGradient-3)"></path>
                                <path d="M6.4,4.4 L6.4,4.4 L6.4,4.4 C6.1,3.9 5.7,3.4 5.3,3.1 C5.2,3 5.1,3 5,3 C4.3,2.7 3.8,3.1 3.7,3.9 L3.7,4.1 C3.7,4.9 4.2,6 5,6.4 C5.1,6.4 5.1,6.4 5.2,6.5 C5.2,6.5 5.1,6.5 5.1,6.4 L5.3,6.5 C6.1,7 6.8,6.6 6.8,5.7 C6.7,5.3 6.6,4.9 6.4,4.4 Z" id="Path" fill="url(#linearGradient-4)"></path>
                                <path d="M7.6,8.3 C7,8.8 6.1,8.9 5.2,8.3 C3.6,7.3 2.3,5 2.3,3.1 C2.3,2 2.8,1.3 3.5,1.1 C3.7,1.1 3.4,1 3.4,1 L2.5,1 C1.3,1 0.5,1.9 0.5,3.5 C0.5,5.7 2,8.5 3.9,9.7 C5.3,10.6 6.6,10.3 7.1,9.3 L7.4,8.7 C7.5,8.5 7.7,8.2 7.6,8.3 Z" id="Path" fill="#A8A8A8"></path>
                                <path d="M4.1,1.2 C2,-4.4408921e-16 0.3,0.9 0.3,3.3 C0.2,5.7 1.9,8.6 3.9,9.9 C6,11.1 7.7,10.2 7.7,7.8 C7.8,5.4 6.2,2.4 4.1,1.2 Z M3.9,9.5 C2,8.3 0.4,5.6 0.5,3.3 C0.5,1.1 2.2,0.2 4.1,1.4 C6,2.6 7.6,5.3 7.5,7.6 C7.5,9.8 5.9,10.7 3.9,9.5 Z" id="Shape" fill="#CACACA"></path>
                                <path d="M5.1,3.4 C5.8,3.8 6.4,4.9 6.4,5.7 C6.4,6.5 5.8,6.8 5.1,6.4 C4.4,6 3.8,4.9 3.8,4.1 C3.8,3.3 4.4,3 5.1,3.4 Z" id="Path" fill="#CACACA"></path>
                            </g>
                        </g>
                    </g>
                </g>
            </g>
        </g>
    </g>
</svg>