<?xml version="1.0" encoding="UTF-8"?>
<svg width="85px" height="75px" viewBox="0 0 85 75" version="1.1" xmlns="http://www.w3.org/2000/svg" xmlns:xlink="http://www.w3.org/1999/xlink">
    <!-- Generator: Sketch 54.1 (76490) - https://sketchapp.com -->
    <title>6</title>
    <desc>Created with Sketch.</desc>
    <defs>
        <linearGradient x1="-0.125603865%" y1="50.0442549%" x2="99.8057971%" y2="50.0442549%" id="linearGradient-1">
            <stop stop-color="#669506" offset="43.94%"></stop>
            <stop stop-color="#7DAA19" offset="67.26%"></stop>
            <stop stop-color="#A4CE3A" offset="100%"></stop>
        </linearGradient>
        <linearGradient x1="0.013800905%" y1="50.0974074%" x2="99.9337104%" y2="50.0974074%" id="linearGradient-2">
            <stop stop-color="#84C107" offset="0%"></stop>
            <stop stop-color="#7EB907" offset="7.780024%"></stop>
            <stop stop-color="#74AA06" offset="26.21%"></stop>
            <stop stop-color="#70A506" offset="41.64%"></stop>
            <stop stop-color="#79AC0E" offset="56.18%"></stop>
            <stop stop-color="#90C024" offset="79.38%"></stop>
            <stop stop-color="#AAD73C" offset="100%"></stop>
        </linearGradient>
        <linearGradient x1="0.0418604651%" y1="50.0361868%" x2="99.9048837%" y2="50.0361868%" id="linearGradient-3">
            <stop stop-color="#5A7320" offset="0%"></stop>
            <stop stop-color="#A8D43B" offset="97.4%"></stop>
            <stop stop-color="#AAD73C" offset="100%"></stop>
        </linearGradient>
        <linearGradient x1="-0.212443439%" y1="50.0297872%" x2="99.5993213%" y2="50.0297872%" id="linearGradient-4">
            <stop stop-color="#70A506" offset="41.64%"></stop>
            <stop stop-color="#79AC0E" offset="56.18%"></stop>
            <stop stop-color="#90C024" offset="79.38%"></stop>
            <stop stop-color="#AAD73C" offset="100%"></stop>
        </linearGradient>
        <linearGradient x1="0.274418605%" y1="50.5666667%" x2="100.026512%" y2="50.5666667%" id="linearGradient-5">
            <stop stop-color="#000000" offset="0%"></stop>
            <stop stop-color="#131807" offset="14.08%"></stop>
            <stop stop-color="#435518" offset="43.83%"></stop>
            <stop stop-color="#90B733" offset="86.49%"></stop>
            <stop stop-color="#AAD73C" offset="100%"></stop>
        </linearGradient>
        <linearGradient x1="-0.212443439%" y1="50.0148936%" x2="99.5993213%" y2="50.0148936%" id="linearGradient-6">
            <stop stop-color="#70A506" offset="41.64%"></stop>
            <stop stop-color="#79AC0E" offset="56.18%"></stop>
            <stop stop-color="#90C024" offset="79.38%"></stop>
            <stop stop-color="#AAD73C" offset="100%"></stop>
        </linearGradient>
        <linearGradient x1="0.274418605%" y1="50.2234177%" x2="100.026512%" y2="50.2234177%" id="linearGradient-7">
            <stop stop-color="#000000" offset="0%"></stop>
            <stop stop-color="#131807" offset="14.08%"></stop>
            <stop stop-color="#435518" offset="43.83%"></stop>
            <stop stop-color="#90B733" offset="86.49%"></stop>
            <stop stop-color="#AAD73C" offset="100%"></stop>
        </linearGradient>
        <linearGradient x1="-0.212443439%" y1="50%" x2="99.5993213%" y2="50%" id="linearGradient-8">
            <stop stop-color="#70A506" offset="41.64%"></stop>
            <stop stop-color="#79AC0E" offset="56.18%"></stop>
            <stop stop-color="#90C024" offset="79.38%"></stop>
            <stop stop-color="#AAD73C" offset="100%"></stop>
        </linearGradient>
        <linearGradient x1="0.274418605%" y1="50.2044304%" x2="100.026512%" y2="50.2044304%" id="linearGradient-9">
            <stop stop-color="#000000" offset="0%"></stop>
            <stop stop-color="#131807" offset="14.08%"></stop>
            <stop stop-color="#435518" offset="43.83%"></stop>
            <stop stop-color="#90B733" offset="86.49%"></stop>
            <stop stop-color="#AAD73C" offset="100%"></stop>
        </linearGradient>
    </defs>
    <g id="Page-1" stroke="none" stroke-width="1" fill="none" fill-rule="evenodd">
        <g id="20220-[преобразованный]" transform="translate(-309.000000, -296.000000)" fill-rule="nonzero">
            <g id="Group">
                <g id="6" transform="translate(309.235300, 296.000000)">
                    <path d="M32.0647003,49.1 C12.8647003,49.1 -11.7352997,74.9 6.26470026,74.9 L59.1647003,74.9 L65.2647003,49.1 L32.0647003,49.1 Z" id="Path" fill="#2A5C70"></path>
                    <g id="_x37__2_" transform="translate(39.764700, 0.000000)">
                        <g id="Group">
                            <path d="M36.6,22.2 C28.7,26.8 15.8,26.8 7.8,22.2 C3.8,19.9 1.7,13.7 1.7,13.7 L1.7,23.3 L1.5,27.2 L1.7,31.8 L1.7,39.8 L1.4,43.9 L1.7,48 L1.7,56.3 L1.6,59.4 L1.7,62.3 C1.7,65.3 3.7,67.6 7.7,69.9 C15.7,74.5 28.9,74.9 36.8,70.2 C39,68.9 41.9,65.7 42.4,64.2 L42.8,60.8 L42.4,56 L42.4,47.9 L42.8,44.7 L42.4,39.4 L42.4,30.6 L42.6,28.1 L42.4,23 L42.4,14 C42.3,14 40.5,19.9 36.6,22.2 Z" id="Path" fill="url(#linearGradient-1)"></path>
                            <g transform="translate(1.000000, 2.000000)" id="Path">
                                <path d="M35.4,3.5 C27.4,-1.1 14.5,-1.1 6.6,3.5 C-1.3,8.1 -1.3,15.6 6.7,20.2 C14.7,24.8 27.6,24.8 35.5,20.2 C43.5,15.6 43.4,8.1 35.4,3.5 Z" fill="#8CC329"></path>
                                <path d="M35,4.5 C27.3,0.1 14.8,0.1 7.1,4.5 C-0.6,8.9 -0.5,16 7.2,20.4 C14.9,24.8 27.4,24.8 35.1,20.4 C42.7,16 42.7,8.9 35,4.5 Z" fill="#84A82F" opacity="0.6"></path>
                            </g>
                            <g>
                                <path d="M37.3,4 C33.2,1.6 27.8,0.3 22,0.3 C16.3,0.3 10.8,1.6 6.8,4 C2.4,6.5 0,10 0,13.8 C0,17.6 2.4,21.1 6.9,23.6 C11,26 16.4,27.3 22.2,27.3 C27.9,27.3 33.4,26 37.4,23.6 C41.8,21.1 44.2,17.6 44.2,13.8 C44.2,10.1 41.7,6.6 37.3,4 Z M36.5,22.1 C32.5,24.4 27.3,25.5 22.1,25.5 C16.9,25.5 11.7,24.4 7.7,22.1 C-0.3,17.5 -0.3,10.1 7.6,5.5 C11.6,3.2 16.8,2.1 22,2.1 C27.2,2.1 32.4,3.2 36.4,5.5 C44.4,10.1 44.5,17.5 36.5,22.1 Z" id="Shape" fill="url(#linearGradient-2)"></path>
                                <path d="M22.2,26.3 C16.6,26.3 11.3,25 7.2,22.7 C3,20.3 0.6,17 0.6,13.4 C0.6,9.9 2.9,6.6 7.1,4.2 C11.1,1.9 16.4,0.6 22,0.6 C27.6,0.6 32.9,1.9 37,4.2 C41.2,6.6 43.6,9.9 43.6,13.5 C43.6,17 41.3,20.3 37.1,22.7 C33.1,25 27.8,26.3 22.2,26.3 Z M22,1.1 C16.5,1.1 11.2,2.3 7.3,4.6 C3.3,6.9 1.1,10.1 1.1,13.4 C1.1,16.8 3.3,19.9 7.4,22.3 C11.3,24.6 16.6,25.8 22.1,25.8 C27.6,25.8 32.9,24.5 36.8,22.3 C40.8,20 43,16.9 43,13.5 C43,10.1 40.8,7 36.7,4.6 C32.8,2.4 27.6,1.1 22,1.1 Z" id="Shape" fill="url(#linearGradient-3)" opacity="0.4"></path>
                                <path d="M42.4,56.2 L42.4,60.7 C42.7,64.2 40.9,67.3 36.6,69.8 C32.6,72.1 27.4,73.2 22.2,73.2 C17,73.2 11.8,72.1 7.8,69.8 C5.8,68.6 4.3,67.3 3.3,65.9 C3.2,65.8 3.2,65.7 3.1,65.6 C3.1,65.5 3,65.5 3,65.4 C2.2,64.1 1.8,62.7 1.8,61.4 L1.8,56.3 C0.7,57.9 0.1,59.7 0.1,61.5 C0.1,65.3 2.5,68.8 7,71.3 C11.1,73.7 16.5,75 22.3,75 C28,75 33.4,73.7 37.5,71.3 C41.9,68.8 44.3,65.3 44.3,61.5 C44.1,59.7 43.5,57.9 42.4,56.2 Z" id="Path" fill="url(#linearGradient-4)"></path>
                                <path d="M22.1,74 C16.5,74 11.2,72.7 7.1,70.4 C2.9,68 0.6,64.7 0.5,61.1 C0.5,60.2 0.7,59.3 1,58.4 L1,61 C1,62.5 1.4,63.9 2.3,65.3 C2.3,65.3 2.6,65.7 2.6,65.8 C3.7,67.4 5.3,68.7 7.3,69.9 C11.2,72.2 16.5,73.4 22,73.4 C27.5,73.4 32.7,72.1 36.7,69.9 C41,67.4 43.2,64 42.9,60.2 L42.9,58.1 C43.3,59.1 43.4,60 43.5,61 C43.5,64.5 41.2,67.8 37,70.2 C33.1,72.7 27.8,74 22.1,74 Z" id="Path" fill="url(#linearGradient-5)" opacity="0.4"></path>
                                <path d="M42.4,39.7 L42.4,44.2 C42.8,47.5 40.9,50.8 36.6,53.3 C32.6,55.6 27.4,56.7 22.2,56.7 C17,56.7 11.8,55.6 7.8,53.3 C5.8,52.1 4.3,50.8 3.3,49.4 C3.2,49.3 3.2,49.2 3.1,49.1 C3.1,49 3,49 3,48.9 C2.2,47.6 1.8,46.2 1.8,44.9 L1.8,39.8 C0.7,41.4 0.1,43.2 0.1,45 C0.1,48.8 2.5,52.3 7,54.8 C11.1,57.2 16.5,58.5 22.3,58.5 C28,58.5 33.4,57.2 37.5,54.8 C41.9,52.3 44.3,48.8 44.3,45 C44.1,43.2 43.5,41.4 42.4,39.7 Z" id="Path" fill="url(#linearGradient-6)"></path>
                                <path d="M22.1,57.5 C16.5,57.5 11.2,56.2 7.1,53.9 C2.9,51.5 0.6,48.2 0.5,44.6 C0.5,43.7 0.7,42.8 1,41.9 L1,44.5 C1,46 1.4,47.4 2.3,48.8 L2.6,49.3 C3.7,50.9 5.3,52.2 7.3,53.4 C11.2,55.7 16.5,56.9 22,56.9 C27.5,56.9 32.7,55.6 36.7,53.4 C41.1,50.9 43.3,47.3 42.9,43.7 L42.9,41.7 C43.3,42.7 43.5,43.6 43.5,44.6 C43.5,48.1 41.2,51.4 37,53.8 C33.1,56.2 27.8,57.5 22.1,57.5 Z" id="Path" fill="url(#linearGradient-7)" opacity="0.4"></path>
                                <path d="M42.4,23.2 L42.4,27.7 C42.8,31 40.9,34.3 36.6,36.8 C32.6,39.1 27.4,40.2 22.2,40.2 C17,40.2 11.8,39.1 7.8,36.8 C5.8,35.6 4.3,34.3 3.3,32.9 C3.2,32.8 3.2,32.7 3.1,32.6 C3.1,32.5 3,32.5 3,32.4 C2.2,31.1 1.8,29.7 1.8,28.4 L1.8,23.3 C0.7,24.9 0.1,26.7 0.1,28.5 C0.1,32.3 2.5,35.8 7,38.3 C11.1,40.7 16.5,42 22.3,42 C28,42 33.4,40.7 37.5,38.3 C41.9,35.8 44.3,32.3 44.3,28.5 C44.1,26.7 43.5,24.9 42.4,23.2 Z" id="Path" fill="url(#linearGradient-8)"></path>
                                <path d="M22.1,41 C16.5,41 11.2,39.7 7.1,37.4 C2.9,35 0.6,31.7 0.5,28.1 C0.5,27.2 0.7,26.3 1,25.4 L1,28 C1,29.5 1.4,30.9 2.3,32.3 C2.3,32.3 2.6,32.7 2.6,32.8 C3.7,34.4 5.3,35.7 7.3,36.9 C11.2,39.2 16.5,40.4 22,40.4 C27.5,40.4 32.7,39.1 36.7,36.9 C41.1,34.4 43.3,30.8 42.9,27.2 L42.9,25.2 C43.3,26.2 43.5,27.1 43.5,28.1 C43.5,31.6 41.2,34.9 37,37.3 C33.1,39.7 27.8,41 22.1,41 Z" id="Path" fill="url(#linearGradient-9)" opacity="0.4"></path>
                            </g>
                        </g>
                        <path d="M37.9,7.8 L10.6,23.5 C18.3,26.7 29.1,26.3 36,22.3 C43,18.4 43.6,12.2 37.9,7.8 Z" id="Path" fill="#84A82F" opacity="0.4"></path>
                        <g id="Group" transform="translate(27.000000, 17.000000)">
                            <path d="M5.4,0.8 C4.3,0.2 2.7,0.2 1.6,0.8 C0.6,1.4 0.6,2.4 1.6,3 C2.7,3.6 4.3,3.6 5.4,3 C6.4,2.4 6.4,1.5 5.4,0.8 Z" id="Path" fill="#687A45"></path>
                            <path d="M1.6,1.2 C2.6,0.6 4.3,0.6 5.4,1.2 C5.9,1.5 6.1,1.8 6.2,2.1 C6.3,1.6 6,1.2 5.4,0.8 C4.4,0.2 2.7,0.2 1.6,0.8 C1,1.1 0.8,1.6 0.8,2.1 C0.9,1.8 1.1,1.4 1.6,1.2 Z" id="Path" fill="#669606"></path>
                        </g>
                    </g>
                </g>
            </g>
        </g>
    </g>
</svg>