<?xml version="1.0" encoding="UTF-8"?>
<svg width="115px" height="101px" viewBox="0 0 115 101" version="1.1" xmlns="http://www.w3.org/2000/svg" xmlns:xlink="http://www.w3.org/1999/xlink">
    <!-- Generator: Sketch 54.1 (76490) - https://sketchapp.com -->
    <title>8</title>
    <desc>Created with Sketch.</desc>
    <defs>
        <linearGradient x1="-0.707272727%" y1="49.9152416%" x2="99.790303%" y2="49.9152416%" id="linearGradient-1">
            <stop stop-color="#DADADA" offset="0%"></stop>
            <stop stop-color="#ECECEC" offset="100%"></stop>
        </linearGradient>
        <linearGradient x1="0.0012987013%" y1="50.160401%" x2="100.316883%" y2="50.160401%" id="linearGradient-2">
            <stop stop-color="#DADADA" offset="0%"></stop>
            <stop stop-color="#ECECEC" offset="100%"></stop>
        </linearGradient>
        <linearGradient x1="-2.08245614%" y1="49.950139%" x2="97.8087719%" y2="49.950139%" id="linearGradient-3">
            <stop stop-color="#DADADA" offset="0%"></stop>
            <stop stop-color="#ECECEC" offset="100%"></stop>
        </linearGradient>
        <linearGradient x1="44.9188368%" y1="52.7448903%" x2="52.2242721%" y2="47.2971103%" id="linearGradient-4">
            <stop stop-color="#DADADA" offset="0%"></stop>
            <stop stop-color="#F3F3F3" offset="100%"></stop>
        </linearGradient>
        <linearGradient x1="62.7281551%" y1="12.6186527%" x2="25.6347822%" y2="76.3091021%" id="linearGradient-5">
            <stop stop-color="#F3F3F3" offset="0%"></stop>
            <stop stop-color="#EAEAEA" offset="19.74%"></stop>
            <stop stop-color="#DEDEDE" offset="60.07%"></stop>
            <stop stop-color="#DADADA" offset="100%"></stop>
        </linearGradient>
        <radialGradient cx="72.7043699%" cy="3.70942894%" fx="72.7043699%" fy="3.70942894%" r="122.114796%" gradientTransform="translate(0.727044,0.037094),scale(1.000000,0.884209),translate(-0.727044,-0.037094)" id="radialGradient-6">
            <stop stop-color="#FFFFFF" offset="0%"></stop>
            <stop stop-color="#DADADA" offset="100%"></stop>
        </radialGradient>
        <linearGradient x1="44.475954%" y1="123.577132%" x2="53.770427%" y2="-9.99651163%" id="linearGradient-7">
            <stop stop-color="#DADADA" offset="0%"></stop>
            <stop stop-color="#F3F3F3" offset="100%"></stop>
        </linearGradient>
        <linearGradient x1="92.2644321%" y1="17.040402%" x2="55.6044893%" y2="45.6281407%" id="linearGradient-8">
            <stop stop-color="#DADADA" offset="0%"></stop>
            <stop stop-color="#DDDDDD" offset="8.551061%"></stop>
            <stop stop-color="#EDEDED" offset="59.97%"></stop>
            <stop stop-color="#F3F3F3" offset="100%"></stop>
        </linearGradient>
        <linearGradient x1="27.8325725%" y1="102.036247%" x2="66.4075892%" y2="15.3695212%" id="linearGradient-9">
            <stop stop-color="#DADADA" offset="0%"></stop>
            <stop stop-color="#F3F3F3" offset="100%"></stop>
        </linearGradient>
        <linearGradient x1="-0.601212121%" y1="49.1107807%" x2="99.8963636%" y2="49.1107807%" id="linearGradient-10">
            <stop stop-color="#DADADA" offset="0%"></stop>
            <stop stop-color="#ECECEC" offset="100%"></stop>
        </linearGradient>
        <linearGradient x1="0.228571429%" y1="49.6170426%" x2="100.544156%" y2="49.6170426%" id="linearGradient-11">
            <stop stop-color="#DADADA" offset="0%"></stop>
            <stop stop-color="#ECECEC" offset="100%"></stop>
        </linearGradient>
        <linearGradient x1="-0.0210526316%" y1="49.9486673%" x2="99.8701754%" y2="49.9486673%" id="linearGradient-12">
            <stop stop-color="#DADADA" offset="0%"></stop>
            <stop stop-color="#ECECEC" offset="100%"></stop>
        </linearGradient>
        <linearGradient x1="45.0078716%" y1="52.6776107%" x2="52.3133069%" y2="47.2297323%" id="linearGradient-13">
            <stop stop-color="#DADADA" offset="0%"></stop>
            <stop stop-color="#F3F3F3" offset="100%"></stop>
        </linearGradient>
        <linearGradient x1="63.0639894%" y1="13.2198111%" x2="25.9706164%" y2="76.9102604%" id="linearGradient-14">
            <stop stop-color="#F3F3F3" offset="0%"></stop>
            <stop stop-color="#EAEAEA" offset="19.74%"></stop>
            <stop stop-color="#DEDEDE" offset="60.07%"></stop>
            <stop stop-color="#DADADA" offset="100%"></stop>
        </linearGradient>
        <radialGradient cx="73.22995%" cy="4.5485856%" fx="73.22995%" fy="4.5485856%" r="122.114796%" gradientTransform="translate(0.732300,0.045486),scale(1.000000,0.884209),translate(-0.732300,-0.045486)" id="radialGradient-15">
            <stop stop-color="#FFFFFF" offset="0%"></stop>
            <stop stop-color="#DADADA" offset="100%"></stop>
        </radialGradient>
        <linearGradient x1="44.4835782%" y1="123.699612%" x2="53.7780512%" y2="-9.87403101%" id="linearGradient-16">
            <stop stop-color="#DADADA" offset="0%"></stop>
            <stop stop-color="#F3F3F3" offset="100%"></stop>
        </linearGradient>
        <linearGradient x1="92.3183546%" y1="17.1674372%" x2="55.6584119%" y2="45.7551759%" id="linearGradient-17">
            <stop stop-color="#DADADA" offset="0%"></stop>
            <stop stop-color="#DDDDDD" offset="8.551061%"></stop>
            <stop stop-color="#EDEDED" offset="59.97%"></stop>
            <stop stop-color="#F3F3F3" offset="100%"></stop>
        </linearGradient>
        <linearGradient x1="28.730143%" y1="97.9020756%" x2="67.3051597%" y2="11.2413847%" id="linearGradient-18">
            <stop stop-color="#DADADA" offset="0%"></stop>
            <stop stop-color="#F3F3F3" offset="100%"></stop>
        </linearGradient>
    </defs>
    <g id="Page-1" stroke="none" stroke-width="1" fill="none" fill-rule="evenodd">
        <g id="20220-[преобразованный]" transform="translate(0.000000, -155.000000)" fill-rule="nonzero">
            <g id="Group">
                <g id="8" transform="translate(0.500000, 155.000000)">
                    <path d="M60,88.8 L60,82.8 L35.9,83.7 L40.7,76.2 C40.7,76 39.5,75.7 39.3,75.9 C39.3,75.9 39.3,75.9 39.3,75.9 L39.2,75.9 C39.2,75.9 39.2,75.9 39.2,75.9 L32.3,83.8 L25.9,84 L23.7,82.7 C22.9,82.2 21.8,82.2 21,82.7 L18.7,84 C18,84.4 18,85.4 18.7,85.8 L22.5,88 L22.4,88 C22.1,87.9 21.7,87.9 21.4,87.9 L0.3,89.3 C0.3,89.3 0.2,89.3 0.2,89.3 C0.2,89.3 0.2,89.3 0.2,89.3 L0.1,89.3 C3.55271368e-15,89.4 3.55271368e-15,89.5 3.55271368e-15,89.6 C3.55271368e-15,89.8 0.2,90 0.4,90 L28.2,89.6 L29.4,91.8 C29.5,92 29.7,92.1 29.9,92.3 L44.8,100.5 C45,100.6 45.5,100.5 45.8,100.3 L45.9,100.3 C45.9,100.3 45.9,100.3 45.9,100.3 C46,100.2 46.1,100.2 46.1,100.1 C46.1,100.1 46.1,100.1 46.1,100.1 L29.9,89.3 L30.3,89 C30.6,88.9 30.6,88.5 30.4,88.3 L31.8,87.7 L60,88.8 Z" id="Path" fill="#2A5C70"></path>
                    <path d="M64.6,75.3 L65,75 C65.3,74.9 65.3,74.5 65.1,74.3 L66.5,73.7 L87.8,74.5 L87.8,69 L70.7,69.7 L75.5,62.2 C75.5,62 74.3,61.7 74.1,61.9 C74.1,61.9 74.1,61.9 74.1,61.9 L74,61.9 C74,61.9 74,61.9 74,61.9 L67.1,69.8 L60.7,70 L58.5,68.7 C57.7,68.2 56.6,68.2 55.8,68.7 L53.5,70 C52.8,70.4 52.8,71.4 53.5,71.8 L57.2,73.9 L57.1,73.9 C56.8,73.8 56.4,73.8 56.1,73.8 L35,75.2 C35,75.2 34.9,75.2 34.9,75.2 C34.9,75.2 34.9,75.2 34.9,75.2 L34.8,75.2 C34.7,75.3 34.7,75.4 34.7,75.5 C34.7,75.7 34.9,75.9 35.1,75.9 L62.9,75.5 L64.1,77.7 C64.2,77.9 64.4,78 64.6,78.2 L79.5,86.4 C79.7,86.5 80.2,86.4 80.5,86.2 L80.6,86.2 C80.6,86.2 80.6,86.2 80.6,86.2 C80.7,86.1 80.8,86.1 80.8,86 C80.8,86 80.8,86 80.8,86 L64.6,75.3 Z" id="Path" fill="#2A5C70"></path>
                    <g id="_x34__2_" transform="translate(47.500000, 0.000000)">
                        <g id="Group" transform="translate(6.000000, 80.000000)">
                            <path d="M14.5,8.5 C11.3,10.4 6,10.4 2.8,8.5 C1.2,7.6 0.4,6.3 0.4,5.1 L0.4,7 C0.4,8.2 1.2,9.5 2.8,10.4 C6,12.3 11.3,12.3 14.5,10.4 C16.1,9.5 16.9,8.3 16.9,7 L16.9,5.1 C16.9,6.4 16.1,7.6 14.5,8.5 Z" id="Path" fill="url(#linearGradient-1)"></path>
                            <path d="M14.4,1.7 C17.6,3.6 17.7,6.6 14.4,8.5 C11.2,10.4 5.9,10.4 2.7,8.5 C-0.5,6.6 -0.6,3.6 2.7,1.7 C5.9,-0.1 11.2,-0.1 14.4,1.7 Z" id="Path" fill="#F3F3F3"></path>
                            <g opacity="0.7" fill="#DADADA" id="Path">
                                <path d="M8.9,0.4 C6.7,0.3 4.4,0.8 2.7,1.8 C0.7,3 5.55111512e-17,4.6 0.5,6.1 L9,6.1 L9,0.4 L8.9,0.4 Z"></path>
                            </g>
                        </g>
                        <g id="Group" transform="translate(10.000000, 73.000000)">
                            <path d="M7.3,4.7 C5.8,5.6 3.4,5.6 1.8,4.7 C1,4.3 0.7,3.7 0.7,3.1 L0.7,10.8 C0.7,11.4 1.1,12 1.8,12.4 C3.3,13.3 5.8,13.3 7.3,12.4 C8,12 8.4,11.4 8.4,10.8 L8.4,3.1 C8.4,3.7 8,4.3 7.3,4.7 Z" id="Path" fill="url(#linearGradient-2)"></path>
                            <path d="M7.3,1.6 C8.8,2.5 8.8,3.9 7.3,4.8 C5.8,5.7 3.4,5.7 1.8,4.8 C0.3,3.9 0.3,2.5 1.8,1.6 C3.3,0.7 5.8,0.7 7.3,1.6 Z" id="Path" fill="#F3F3F3"></path>
                            <g opacity="0.7" fill="#DADADA" id="Path">
                                <path d="M5.1,3.6 C5.1,3.3 5.1,3.1 5.2,2.8 C5.3,2.2 5.4,1.6 5.6,1 C4.3,0.8 2.9,1 1.9,1.6 C0.5,2.4 0.4,3.7 1.6,4.5 L4.9,4.5 C4.9,4.2 4.9,3.9 5.1,3.6 Z"></path>
                            </g>
                        </g>
                        <g id="Group" transform="translate(11.000000, 23.000000)">
                            <path d="M5.1,1.4 C5.1,1.2 5,1 4.8,0.9 C4.3,0.6 3.5,0.6 3.1,0.9 C2.9,1 2.7,1.2 2.7,1.4 C2.1,26.2 1.5,28.1 0.9,52.9 C0.9,53.3 1.2,53.7 1.7,54.1 C2.8,54.8 4.6,54.8 5.7,54.1 C6.3,53.8 6.6,53.3 6.6,52.9 C6,28.1 5.5,26.2 5.1,1.4 Z" id="Path" fill="url(#linearGradient-3)"></path>
                            <path d="M4.7,0.9 C4.2,0.6 3.4,0.6 3,0.9 C2.5,1.2 2.5,1.6 3,1.9 C3.5,2.2 4.3,2.2 4.7,1.9 C5.2,1.6 5.2,1.2 4.7,0.9 Z" id="Path" fill="#DADADA"></path>
                        </g>
                        <g id="Group">
                            <g transform="translate(7.000000, 18.000000)" id="Path">
                                <path d="M7.4,1.3 C6.5,0.8 5.6,0.7 5,1.1 L1.8,3 C2.4,2.6 3.3,2.7 4.2,3.2 L8.5,5.7 L11.7,3.8 L7.4,1.3 Z" fill="#F3F3F3"></path>
                                <path d="M11.7,3.8 L8.5,5.7 C9.3,6.2 10,7.4 10,8.4 L10,10.9 C10,11.3 9.8,11.6 9.6,11.8 L12.8,9.9 C13,9.8 13.2,9.5 13.2,9 L13.2,6.5 C13.3,5.5 12.6,4.3 11.7,3.8 Z" fill="#ECECEC"></path>
                                <path d="M11.7,3.8 L8.5,5.7 C9.3,6.2 10,7.4 10,8.4 L13.2,6.5 C13.3,5.5 12.6,4.3 11.7,3.8 Z" fill="#F3F3F3" opacity="0.6"></path>
                                <path d="M8.5,5.7 L4.2,3.2 C2.3,2.1 0.8,3 0.8,5.1 L0.8,5.5 C0.8,6.4 1.4,7.4 2.2,7.9 L8.7,11.6 C9.5,12 10.1,11.7 10.1,10.8 L10.1,8.3 C10,7.3 9.3,6.2 8.5,5.7 Z" fill="#DADADA"></path>
                            </g>
                            <path d="M17.4,27.8 C17.4,28.7 18,29.1 18.8,28.6 C19.6,28.1 20.2,27 20.2,26.1 C20.2,25.2 19.6,24.8 18.8,25.3 C18,25.8 17.4,26.9 17.4,27.8 Z" id="Path" fill="#DADADA"></path>
                            <path d="M11.9,24.7 L8.8,22.9 L8.8,22.5 L11.9,24.3 L11.9,24.7 Z M11.9,25.3 L8.8,23.5 L8.8,23.9 L11.9,25.7 L11.9,25.3 Z M13.2,24.9 C12.8,24.7 12.5,24.9 12.5,25.3 C12.5,25.7 12.8,26.3 13.2,26.6 C13.6,26.9 13.9,26.6 13.9,26.2 C13.9,25.7 13.6,25.1 13.2,24.9 Z" id="Shape" fill="#39393D" opacity="0.7"></path>
                            <path d="M41.2,28.1 C41.2,28.1 41.2,28.2 41.2,28.1 L41.2,28.1 C41.1,28.1 41.1,28.1 41.2,28.1 L21.9,27.3 L21.6,28.2 L24.8,30.9 C24.8,30.9 24.9,31 24.9,31 L25,31 C25,31 24.9,31 24.9,30.9 C25.1,31 25.3,31.1 25.5,31.1 L40.9,29.5 C41,29.4 41.4,28.2 41.2,28.1 Z" id="Path" fill="url(#linearGradient-4)"></path>
                            <g transform="translate(17.000000, 25.000000)" id="Path">
                                <path d="M5,1.5 C5,1.5 5,1.5 5,1.5 L2.9,0.3 C2.6,0.2 2.3,0.2 1.9,0.4 C1.1,0.8 0.5,1.9 0.6,2.8 C0.6,3.2 0.8,3.5 1,3.7 L3.1,4.9 C3.1,4.9 3.1,4.9 3.1,4.9 L3.9,5.4 C3.7,5.3 3.5,5 3.5,4.5 C3.5,3.6 4.1,2.6 4.8,2.1 C5.2,1.9 5.5,1.8 5.8,2 L5,1.5 Z" fill="url(#linearGradient-5)"></path>
                                <path d="M5.8,2 C5.5,1.9 5.2,1.9 4.8,2.1 C4,2.5 3.4,3.6 3.5,4.5 C3.5,4.9 3.7,5.2 3.9,5.4 C4.1,5.5 4.4,5.7 4.9,5.7 C5.3,5.7 5.6,5.6 5.9,5.4 C6.6,5 6.9,4.2 6.8,3.7 C6.8,3.2 6.6,2.5 5.8,2 Z" fill="url(#radialGradient-6)"></path>
                            </g>
                            <path d="M23,18.6 L21.3,0.6 C21.3,0.6 21.3,0.5 21.3,0.5 C21.3,0.5 21.3,0.5 21.3,0.5 L21.2,0.5 C21.1,0.5 20.9,0.5 20.7,0.6 C20.4,0.8 20.1,1.1 20.1,1.2 L20.2,26.3 L20.3,26.3 L21,25.9 L22.9,19.4 C23,19.2 23,18.9 23,18.6 Z" id="Path" fill="url(#linearGradient-7)"></path>
                            <path d="M19.2,29 L14.3,32.9 C14,33.1 13.8,33.4 13.6,33.7 L0.8,53.1 C0.6,53.3 0.9,53.7 1.1,53.8 L1.2,53.8 C1.2,53.8 1.2,53.8 1.2,53.8 C1.3,53.9 1.4,53.9 1.5,53.8 C1.5,53.8 1.6,53.8 1.6,53.7 L19.8,29.4 L19.2,29 L19.2,29 Z" id="Path" fill="url(#linearGradient-8)"></path>
                            <path d="M23.3,27.7 C23.5,28.1 23.4,28.6 23.1,28.8 C22.8,29 22.3,28.8 22.1,28.4 C21.9,28 22,27.5 22.3,27.3 C22.6,27.1 23.1,27.3 23.3,27.7 Z" id="Path" fill="url(#linearGradient-9)" opacity="0.6"></path>
                        </g>
                    </g>
                    <g id="_x34__3_" transform="translate(72.500000, 14.000000)">
                        <g id="Group" transform="translate(6.000000, 51.000000)">
                            <path d="M14.7,9.1 C11.5,11 6.2,11 3,9.1 C1.4,8.2 0.6,6.9 0.6,5.7 L0.6,7.6 C0.6,8.8 1.4,10.1 3,11 C6.2,12.9 11.5,12.9 14.7,11 C16.3,10.1 17.1,8.9 17.1,7.6 L17.1,5.7 C17.1,6.9 16.3,8.1 14.7,9.1 Z" id="Path" fill="url(#linearGradient-10)"></path>
                            <path d="M14.6,2.3 C17.8,4.2 17.9,7.2 14.6,9.1 C11.4,11 6.1,11 2.9,9.1 C-0.3,7.2 -0.4,4.2 2.9,2.3 C6.1,0.4 11.4,0.4 14.6,2.3 Z" id="Path" fill="#F3F3F3"></path>
                            <g opacity="0.7" fill="#DADADA" id="Path">
                                <path d="M9.1,0.9 C6.9,0.8 4.6,1.3 2.9,2.3 C0.9,3.5 0.2,5.1 0.7,6.6 L9.2,6.6 L9.2,0.9 L9.1,0.9 Z"></path>
                            </g>
                        </g>
                        <g id="Group" transform="translate(10.000000, 45.000000)">
                            <path d="M7.5,4.3 C6,5.2 3.6,5.2 2,4.3 C1.2,3.9 0.9,3.3 0.9,2.7 L0.9,10.4 C0.9,11 1.3,11.6 2,12 C3.5,12.9 6,12.9 7.5,12 C8.2,11.6 8.6,11 8.6,10.4 L8.6,2.7 C8.6,3.3 8.3,3.8 7.5,4.3 Z" id="Path" fill="url(#linearGradient-11)"></path>
                            <path d="M7.5,1.1 C9,2 9,3.4 7.5,4.3 C6,5.2 3.6,5.2 2,4.3 C0.5,3.4 0.5,2 2,1.1 C3.5,0.2 6,0.2 7.5,1.1 Z" id="Path" fill="#F3F3F3"></path>
                            <g opacity="0.7" fill="#DADADA" id="Path">
                                <path d="M5.3,3.1 C5.3,2.8 5.3,2.6 5.4,2.3 C5.5,1.7 5.6,1.1 5.8,0.5 C4.5,0.3 3.1,0.5 2.1,1.1 C0.7,1.9 0.6,3.2 1.8,4 L5.1,4 C5.1,3.7 5.2,3.4 5.3,3.1 Z"></path>
                            </g>
                        </g>
                        <path d="M12.8,23.8 C12.5,29.8 12.3,36.3 12,47.4 C12,47.8 12.3,48.2 12.8,48.6 C13.9,49.3 15.7,49.3 16.8,48.6 C17.4,48.3 17.7,47.8 17.7,47.4 C17.5,36.3 17.3,29.8 17.1,23.8 L12.8,23.8 Z" id="Path" fill="url(#linearGradient-12)"></path>
                        <g id="Group">
                            <g transform="translate(8.000000, 19.000000)" id="Path">
                                <path d="M6.6,0.5 C5.7,0 4.8,-0.1 4.2,0.3 L1,2.2 C1.6,1.8 2.5,1.9 3.4,2.4 L7.7,4.9 L10.9,3 L6.6,0.5 Z" fill="#F3F3F3"></path>
                                <path d="M10.9,3 L7.7,4.9 C8.5,5.4 9.2,6.6 9.2,7.6 L9.2,10.1 C9.2,10.5 9,10.8 8.8,11 L12,9.1 C12.2,9 12.4,8.7 12.4,8.2 L12.4,5.7 C12.5,4.7 11.8,3.5 10.9,3 Z" fill="#ECECEC"></path>
                                <path d="M10.9,3 L7.7,4.9 C8.5,5.4 9.2,6.6 9.2,7.6 L12.4,5.7 C12.5,4.7 11.8,3.5 10.9,3 Z" fill="#F3F3F3" opacity="0.6"></path>
                                <path d="M7.7,4.9 L3.4,2.4 C1.5,1.3 0,2.2 0,4.3 L0,4.7 C0,5.6 0.6,6.6 1.4,7.1 L7.9,10.8 C8.7,11.2 9.3,10.9 9.3,10 L9.3,7.5 C9.2,6.6 8.5,5.4 7.7,4.9 Z" fill="#DADADA"></path>
                            </g>
                            <path d="M17.6,28 C17.6,28.9 18.2,29.3 19,28.8 C19.8,28.3 20.4,27.2 20.4,26.3 C20.4,25.4 19.8,25 19,25.5 C18.3,26 17.6,27.1 17.6,28 Z" id="Path" fill="#DADADA"></path>
                            <path d="M12.1,24.9 L9,23.1 L9,22.7 L12.1,24.5 L12.1,24.9 Z M12.1,25.5 L9,23.7 L9,24.1 L12.1,25.9 L12.1,25.5 Z M13.4,25.1 C13,24.9 12.7,25.1 12.7,25.5 C12.7,25.9 13,26.5 13.4,26.8 C13.8,27 14.1,26.8 14.1,26.4 C14.1,25.9 13.8,25.3 13.4,25.1 Z" id="Shape" fill="#39393D" opacity="0.7"></path>
                            <path d="M41.4,28.4 C41.4,28.4 41.4,28.4 41.4,28.4 L41.4,28.4 C41.3,28.3 41.3,28.3 41.4,28.4 L22.1,27.6 L21.8,28.5 L25,31.2 C25,31.2 25.1,31.3 25.1,31.3 L25.2,31.3 C25.2,31.3 25.1,31.3 25.1,31.2 C25.3,31.3 25.5,31.4 25.7,31.4 L41.1,29.8 C41.2,29.7 41.6,28.4 41.4,28.4 Z" id="Path" fill="url(#linearGradient-13)"></path>
                            <g transform="translate(17.000000, 25.000000)" id="Path">
                                <path d="M5.2,1.7 C5.2,1.7 5.2,1.7 5.2,1.7 L3.1,0.5 C2.8,0.4 2.5,0.4 2.1,0.6 C1.3,1 0.7,2.1 0.8,3 C0.8,3.4 1,3.7 1.2,3.9 L3.3,5.1 C3.3,5.1 3.3,5.1 3.3,5.1 L4.1,5.6 C3.9,5.5 3.7,5.2 3.7,4.7 C3.7,3.8 4.3,2.8 5,2.3 C5.4,2.1 5.7,2 6,2.2 L5.2,1.7 Z" fill="url(#linearGradient-14)"></path>
                                <path d="M6,2.2 C5.7,2.1 5.4,2.1 5,2.3 C4.2,2.7 3.6,3.8 3.7,4.7 C3.7,5.1 3.9,5.4 4.1,5.6 C4.3,5.7 4.6,5.9 5.1,5.9 C5.5,5.9 5.8,5.8 6.1,5.6 C6.8,5.2 7.1,4.4 7,3.9 C7,3.4 6.8,2.7 6,2.2 Z" fill="url(#radialGradient-15)"></path>
                            </g>
                            <path d="M23.2,18.8 L21.5,0.8 C21.5,0.8 21.5,0.7 21.5,0.7 C21.5,0.7 21.5,0.7 21.5,0.7 L21.4,0.7 C21.3,0.7 21.1,0.7 20.9,0.8 C20.6,1 20.3,1.3 20.3,1.4 L20.4,26.5 L20.5,26.5 L21.2,26.1 L23.1,19.6 C23.2,19.5 23.2,19.1 23.2,18.8 Z" id="Path" fill="url(#linearGradient-16)"></path>
                            <path d="M19.4,29.2 L14.5,33.1 C14.2,33.3 14,33.6 13.8,33.9 L1,53.3 C0.8,53.5 1.1,53.9 1.3,54 L1.4,54 C1.4,54 1.4,54 1.4,54 C1.5,54.1 1.6,54.1 1.7,54 C1.7,54 1.8,54 1.8,53.9 L20,29.6 L19.4,29.2 L19.4,29.2 Z" id="Path" fill="url(#linearGradient-17)"></path>
                            <path d="M23.5,28 C23.7,28.4 23.6,28.9 23.3,29.1 C23,29.3 22.5,29.1 22.3,28.7 C22.1,28.3 22.2,27.8 22.5,27.6 C22.9,27.4 23.3,27.6 23.5,28 Z" id="Path" fill="url(#linearGradient-18)" opacity="0.6"></path>
                        </g>
                    </g>
                </g>
            </g>
        </g>
    </g>
</svg>