<svg xmlns="http://www.w3.org/2000/svg" viewBox="0 0 92.33 69.22"><defs><style>.cls-1{fill:none;}.cls-1,.cls-2,.cls-3,.cls-4{stroke:#6b8f7f;stroke-linecap:round;stroke-linejoin:round;stroke-width:4px;}.cls-2{fill:#ddede4;}.cls-3{fill:#fff;}.cls-4{fill:#9ecdbc;}</style></defs><title>Ресурс 1</title><g id="Слой_2" data-name="Слой 2"><g id="Layer_1" data-name="Layer 1"><path class="cls-1" d="M36.52,40.08c2.37-6.71,9.54-11.59,18-11.59s15.58,4.83,18,11.48"/><path class="cls-2" d="M32.28,60A9.85,9.85,0,0,1,26,50.8c0-5.43-1-9.84,4.41-9.84H77.49c5.44,0,12.83,4.41,12.83,9.84v2.49c-.88,5.26-8.94,6.56-8.94,6.56"/><line class="cls-1" x1="67.02" y1="60.65" x2="46.46" y2="60.65"/><circle class="cls-3" cx="39.5" cy="60.25" r="6.96"/><circle class="cls-3" cx="73.99" cy="60.25" r="6.96"/><line class="cls-1" x1="52.56" y1="41.82" x2="52.56" y2="54.6"/><line class="cls-1" x1="54.52" y1="28.71" x2="54.52" y2="40.52"/><line class="cls-1" x1="59.11" y1="48.71" x2="65.17" y2="48.71"/><path class="cls-1" d="M21.3,10.62s1.43-.67,6,.25c4.76,1,7.67,3.83,7.54,8.36-.27,9.26-22,15.38-21.93,30.44,0,4.91,3.54,10.32,8.82,10.57h9.62"/><path class="cls-4" d="M11.43,2H17a3.64,3.64,0,0,1,3.64,3.64v10A3.64,3.64,0,0,1,17,19.24H11.43A3.63,3.63,0,0,1,7.79,15.6v-10A3.64,3.64,0,0,1,11.43,2Z"/><line class="cls-1" x1="2" y1="14.45" x2="6.51" y2="14.45"/><line class="cls-1" x1="2" y1="6.76" x2="6.51" y2="6.76"/></g></g></svg>