<svg xmlns="http://www.w3.org/2000/svg" viewBox="0 0 89.01 58.81"><defs><style>.cls-1{fill:#ddede4;}.cls-2{fill:#fff;}.cls-3,.cls-5{fill:#9ecdbc;}.cls-4{fill:none;}.cls-4,.cls-5{stroke:#6b8f7f;stroke-linecap:round;stroke-linejoin:round;stroke-width:4px;}</style></defs><title>Ресурс 10</title><g id="Слой_2" data-name="Слой 2"><g id="Layer_1" data-name="Layer 1"><path class="cls-1" d="M75.75,15.24V49.56a7.62,7.62,0,0,1-7.59,7.59H2V15.24Z"/><polygon class="cls-2" points="22.61 46.9 12.71 29.64 28.59 2.43 48.48 2.43 64.88 29.77 54.9 46.97 22.61 46.9"/><path class="cls-3" d="M53.15,12.51,51,20.62l-7.74-2.08L34.85,3.43H47.91Z"/><path class="cls-3" d="M54.32,46l-10.48,0-5.92-6,5.69-5.66,17.5-.07Z"/><path class="cls-3" d="M19.14,20.58l8.11-2.14,2.05,7.77L20.78,41.7l-6.91-12Z"/><polyline class="cls-4" points="22.26 12.96 28.59 2 48.48 2 54.04 11.63"/><line class="cls-4" x1="36.18" y1="8.13" x2="42.55" y2="18.96"/><polyline class="cls-4" points="55.36 7.69 51.67 21.41 37.95 17.72"/><polyline class="cls-4" points="58.57 18.36 64.88 29.33 54.9 46.54 43.78 46.52"/><line class="cls-4" x1="55.76" y1="32.82" x2="43.2" y2="32.9"/><polyline class="cls-4" points="46.52 49.64 36.51 39.56 46.59 29.54"/><polyline class="cls-4" points="35.27 46.5 22.61 46.47 12.71 29.21 18.31 19.6"/><line class="cls-4" x1="24.16" y1="36.83" x2="30.38" y2="25.91"/><polyline class="cls-5" points="14.23 20.41 27.97 16.79 31.59 30.53"/><path class="cls-4" d="M66,14.9h9.75V49.22a7.62,7.62,0,0,1-7.59,7.59H2V14.9h8.17"/><rect class="cls-4" x="75.75" y="26.17" width="11.26" height="19.37"/></g></g></svg>