<svg xmlns="http://www.w3.org/2000/svg" viewBox="0 0 69.1 91.08"><defs><style>.cls-1{fill:#ddede4;}.cls-2{fill:none;}.cls-2,.cls-3{stroke:#6b8f7f;stroke-linecap:round;stroke-linejoin:round;stroke-width:4px;}.cls-3{fill:#fff;}</style></defs><title>Ресурс 11</title><g id="Слой_2" data-name="Слой 2"><g id="Layer_1" data-name="Layer 1"><path class="cls-1" d="M65.55,54.52a28.06,28.06,0,0,1-56.13,0c0-15.5,28.07-47,28.07-47S65.55,39,65.55,54.52Z"/><path class="cls-2" d="M67.1,56.55a32.55,32.55,0,0,1-65.1,0C2,38.57,34.56,2,34.56,2S67.1,38.57,67.1,56.55Z"/><path class="cls-3" d="M34.54,27.4a28,28,0,0,0,0,51.83,28,28,0,0,0,0-51.83Z"/><line class="cls-2" x1="34.55" y1="39" x2="34.56" y2="87.93"/><line class="cls-2" x1="42.98" y1="42.96" x2="34.55" y2="51.4"/><line class="cls-2" x1="42.99" y1="56.15" x2="34.55" y2="64.59"/><line class="cls-2" x1="26.13" y1="49.06" x2="34.56" y2="57.5"/><line class="cls-2" x1="26.12" y1="62.25" x2="34.56" y2="70.69"/></g></g></svg>