<svg xmlns="http://www.w3.org/2000/svg" viewBox="0 0 90.23 65.24"><defs><style>.cls-1,.cls-3{fill:#9ecdbc;}.cls-2{fill:#ddede4;}.cls-3,.cls-5{stroke:#6b8f7f;}.cls-3,.cls-4,.cls-5{stroke-linecap:round;stroke-linejoin:round;stroke-width:4px;}.cls-4,.cls-5{fill:none;}.cls-4{stroke:#fff;}</style></defs><title>Ресурс 12</title><g id="Слой_2" data-name="Слой 2"><g id="Layer_1" data-name="Layer 1"><polygon class="cls-1" points="25.45 3.32 17.35 3.32 17.35 19.09 25.45 13.85 25.45 3.32"/><polygon class="cls-2" points="45.11 9.42 17.34 27.38 17.34 62.23 72.89 62.23 72.89 27.39 45.11 9.42"/><path class="cls-3" d="M60.09,49.17a13.81,13.81,0,1,1-27.61,0c0-7.78,13.81-23.6,13.81-23.6S60.09,41.39,60.09,49.17Z"/><path class="cls-4" d="M41.58,53.81s4.71,3.77,9.42,0"/><line class="cls-5" x1="73.89" y1="62.91" x2="73.89" y2="21.17"/><line class="cls-5" x1="16.35" y1="19.4" x2="16.35" y2="62.91"/><polyline class="cls-5" points="2 29.9 45.11 2 88.23 29.9"/><polyline class="cls-5" points="26.45 14.08 26.45 2 16.35 2 16.35 19.4"/><line class="cls-5" x1="23.55" y1="62.91" x2="3.45" y2="62.91"/><line class="cls-5" x1="86.78" y1="62.91" x2="67.31" y2="62.91"/></g></g></svg>