<svg xmlns="http://www.w3.org/2000/svg" viewBox="0 0 72.94 87.88"><defs><style>.cls-1{fill:#ddede4;}.cls-1,.cls-2,.cls-3,.cls-4{stroke:#6b8f7f;stroke-linejoin:round;stroke-width:4px;}.cls-2,.cls-4{fill:none;}.cls-3{fill:#9ecdbc;}.cls-3,.cls-4{stroke-linecap:round;}</style></defs><title>Ресурс 13</title><g id="Слой_2" data-name="Слой 2"><g id="Layer_1" data-name="Layer 1"><path class="cls-1" d="M70.94,21.06V78.29a7.6,7.6,0,0,1-7.58,7.58H2V21.06Z"/><path class="cls-2" d="M17.45,33.83V17.35A15.35,15.35,0,0,1,32.8,2h7.34A15.35,15.35,0,0,1,55.48,17.35V33.83"/><path class="cls-3" d="M46.52,39a22.6,22.6,0,0,0-17.2,38.09A22.6,22.6,0,0,0,46.52,39Z"/><line class="cls-4" x1="42.22" y1="48.55" x2="26.42" y2="83.53"/><line class="cls-4" x1="47.56" y1="53.26" x2="38.56" y2="56.67"/><line class="cls-4" x1="43.18" y1="62.96" x2="34.18" y2="66.36"/><line class="cls-4" x1="33.14" y1="52.15" x2="36.54" y2="61.15"/><line class="cls-4" x1="28.76" y1="61.84" x2="32.15" y2="70.84"/></g></g></svg>