<svg xmlns="http://www.w3.org/2000/svg" viewBox="0 0 65.88 92.94"><defs><style>.cls-1{fill:#ddede4;}.cls-2{fill:#9ecdbc;}.cls-2,.cls-3{stroke:#6b8f7f;stroke-linecap:round;stroke-linejoin:round;stroke-width:4px;}.cls-3{fill:none;}</style></defs><title>Ресурс 14</title><g id="Слой_2" data-name="Слой 2"><g id="Layer_1" data-name="Layer 1"><path class="cls-1" d="M64.43,55.4a28.06,28.06,0,0,1-56.13,0c0-15.5,28.07-47,28.07-47S64.43,39.9,64.43,55.4Z"/><path class="cls-2" d="M32.95,26.66a22.7,22.7,0,0,0,0,42,22.7,22.7,0,0,0,0-42Z"/><line class="cls-3" x1="32.95" y1="37.15" x2="32.96" y2="72.28"/><line class="cls-3" x1="39.78" y1="39.26" x2="32.96" y2="46.09"/><line class="cls-3" x1="39.79" y1="49.95" x2="32.96" y2="56.78"/><line class="cls-3" x1="26.13" y1="44.2" x2="32.96" y2="51.04"/><line class="cls-3" x1="26.13" y1="54.89" x2="32.96" y2="61.72"/><polyline class="cls-3" points="13.87 11.3 28.27 7.41 28.3 20.98"/><polyline class="cls-3" points="46.25 90.94 32.94 84.8 42.63 74.59"/><path class="cls-3" d="M33,2S63.88,36.76,63.88,53.85A30.93,30.93,0,0,1,33,84.77"/><path class="cls-3" d="M25,83.76A30.93,30.93,0,0,1,2,53.85C2,41,19.66,18,28.29,7.48"/></g></g></svg>