<svg xmlns="http://www.w3.org/2000/svg" viewBox="0 0 62.71 87.99"><defs><style>.cls-1{fill:#ddede4;}.cls-2,.cls-4{fill:none;}.cls-2,.cls-3{stroke:#6b8f7f;}.cls-2,.cls-3,.cls-4{stroke-linecap:round;stroke-linejoin:round;stroke-width:4px;}.cls-3{fill:#9ecdbc;}.cls-4{stroke:#fff;}</style></defs><title>Ресурс 15</title><g id="Слой_2" data-name="Слой 2"><g id="Layer_1" data-name="Layer 1"><path class="cls-1" d="M2,31.36a29.36,29.36,0,0,1,58.71,0C60.71,47.57,31.35,78,31.35,78S2,47.57,2,31.36Z"/><path class="cls-2" d="M2,31.36a29.36,29.36,0,0,1,58.71,0C60.71,47.57,31.35,78,31.35,78S2,47.57,2,31.36Z"/><path class="cls-3" d="M45.73,38.65a14.38,14.38,0,1,1-28.76,0c0-8.1,14.38-24.58,14.38-24.58S45.73,30.55,45.73,38.65Z"/><path class="cls-4" d="M26.45,43.49s4.9,3.92,9.81,0"/><path class="cls-2" d="M37.35,72.21c8.81.86,15.25,3.55,15.25,6.75,0,3.88-9.51,7-21.24,7s-21.25-3.15-21.25-7c0-3.19,6.43-5.89,15.24-6.75"/></g></g></svg>