<svg xmlns="http://www.w3.org/2000/svg" viewBox="0 0 92.59 81"><defs><style>.cls-1{fill:#9ecdbc;}.cls-2{fill:#ddede4;}.cls-3,.cls-4{fill:none;stroke:#6b8f7f;stroke-linejoin:round;stroke-width:4px;}.cls-4{stroke-linecap:round;}</style></defs><title>Ресурс 16</title><g id="Слой_2" data-name="Слой 2"><g id="Layer_1" data-name="Layer 1"><path class="cls-1" d="M11.34,49.84a1.85,1.85,0,0,0,.44-1,2.65,2.65,0,0,0-.7-1.25c-.13-.17-.27-.34-.39-.51-2.26-3.2-1-7.66,1.34-10.41l.15-.17c.48-.55,1-1.11.94-1.59a1.19,1.19,0,0,0-.85-.88,4.44,4.44,0,0,0-2-.06,23.08,23.08,0,0,0-6.81,2,34.44,34.44,0,0,0-.31,4.41,33.67,33.67,0,0,0,4.5,17,19.24,19.24,0,0,1,3.49-7.25Z"/><path class="cls-2" d="M39.85,67.15a7.19,7.19,0,0,1,1.46-3l.36-.51A13.17,13.17,0,0,0,43.93,57c-1.12-1.35-3.47-.59-7.11.78s-7.74,2.92-10.44.42a1,1,0,0,1-.27-1.05,8.3,8.3,0,0,1,2.62-3.34c1.08-1,2-1.81,2-2.87a2.59,2.59,0,0,0-1.93-2.47c-6.2-.44-8.31-2.62-9-4.37A4,4,0,0,1,20.53,40a2.6,2.6,0,0,1,2.7-.82c2.61.84,5.2,1.41,6.46-.07,1.49-1.75-.34-4.86-.94-5.78L28.59,33c-1.39-2.11-3.12-4.74-2.27-7.5a7.7,7.7,0,0,1,3-3.68A26.43,26.43,0,0,1,36.4,18l.19-.07c2.5-.88,5.32-1.89,5.49-4,.09-1.15-.64-2.19-1.49-3.4a9.46,9.46,0,0,1-1.86-3.69,1,1,0,0,1,0-.14c-.52,0-1,0-1.56,0H37a33.9,33.9,0,0,0-33.18,27A25.09,25.09,0,0,1,10,32a6.26,6.26,0,0,1,2.9.15,3.13,3.13,0,0,1,2.19,2.64,4.26,4.26,0,0,1-1.43,3l-.14.17c-1.82,2.11-2.87,5.61-1.22,7.95l.33.44a4.14,4.14,0,0,1,1.12,2.45A3.72,3.72,0,0,1,13,51l-.18.26C11.38,53.25,9.47,56,9.35,60A33.86,33.86,0,0,0,36.91,74.4h.14a34,34,0,0,0,7.78-.9,8,8,0,0,1-2.89-1.58A5.24,5.24,0,0,1,39.85,67.15Z"/><path class="cls-2" d="M50.56,27.91a2.12,2.12,0,0,0,.87.32,19.45,19.45,0,0,0,3.59.39h.74c2.54,0,4,.81,4.89.86V16.14L59,14.72l-1.53,2.13L51.26,25.5C50.63,26.38,50.14,27.51,50.56,27.91Z"/><path class="cls-1" d="M60.65,58.17V28.74c-.88-.05-10.92,1.13-11.45.64-1.2-1.13-1-3,.44-5l6.22-8.65,1.6-2.22A34,34,0,0,0,40.83,6.86a9.42,9.42,0,0,0,1.41,2.51c.94,1.33,2,2.84,1.85,4.71-.27,3.42-4.06,4.77-6.82,5.75l-.19.07a24.42,24.42,0,0,0-6.58,3.55,5.94,5.94,0,0,0-2.26,2.67c-.57,1.86.75,3.88,2,5.82l.17.25c2.14,3.27,2.42,6.24.79,8.17-2.3,2.7-6.55,1.34-8.6.68-.2-.06-.46.1-.63.28a2,2,0,0,0-.33,2c.31.8,1.65,2.71,7.28,3.11,2.16.15,3.73,2.44,3.79,4.4s-1.38,3.28-2.65,4.42a9.7,9.7,0,0,0-1.75,1.84c1.88,1,4.88-.14,7.79-1.23,3.78-1.43,7.69-2.9,9.67.26a1,1,0,0,1,.15.56,15.19,15.19,0,0,1-2.62,8.07l-.38.55a5.54,5.54,0,0,0-1.12,2.13,3.3,3.3,0,0,0,1.38,2.89c1,.78,2,1.66,6,1.67a.87.87,0,0,1,.17,0,33.87,33.87,0,0,0,7-3.78c0-.23,0-.46,0-.69A12.7,12.7,0,0,1,60.65,58.17Z"/><path class="cls-2" d="M75.9,59.39a1,1,0,0,1-.36-.77V46.47a6.53,6.53,0,1,0-13.06,0V58.63a1,1,0,0,1-.36.77,10.78,10.78,0,1,0,13.78,0Z"/><path class="cls-3" d="M76.54,58.25V9.53a7.53,7.53,0,1,0-15.06,0V58.25a11.78,11.78,0,1,0,15.06,0Z"/><line class="cls-4" x1="68.97" y1="46.77" x2="68.97" y2="63.77"/><circle class="cls-3" cx="68.97" cy="67.3" r="3.53"/><line class="cls-4" x1="84.24" y1="57.04" x2="90.59" y2="57.04"/><line class="cls-4" x1="84.24" y1="7.74" x2="90.59" y2="7.74"/><line class="cls-4" x1="84.24" y1="32.39" x2="90.59" y2="32.39"/><line class="cls-4" x1="84.24" y1="20.06" x2="87.69" y2="20.06"/><line class="cls-4" x1="84.24" y1="44.71" x2="87.69" y2="44.71"/><path class="cls-4" d="M57.21,68.49a34.88,34.88,0,1,1,2-55.14"/><path class="cls-4" d="M2.57,34.82A24.13,24.13,0,0,1,10,32.62a5.31,5.31,0,0,1,2.44.1,2.15,2.15,0,0,1,1.52,1.76c.07,1-.7,1.75-1.33,2.49-2.17,2.52-3.2,6.46-1.28,9.18.52.74,1.25,1.43,1.27,2.33A2.75,2.75,0,0,1,12,50c-1.53,2.18-3.8,5.22-3.82,9.9"/><path class="cls-4" d="M39.56,6.27c.49,2.7,3.58,4.62,3.35,7.35s-3.66,4-6.34,5a25.49,25.49,0,0,0-6.85,3.7,6.72,6.72,0,0,0-2.61,3.18c-.74,2.41.94,4.81,2.32,6.92s2.5,5.05.86,7-5,1.2-7.53.38S17,46.27,28.71,47.1c1.56.11,2.81,1.86,2.86,3.43.09,2.76-3.78,3.94-4.66,6.56,4.52,4.18,14.8-5.66,17.87-.76a14.09,14.09,0,0,1-2.45,7.53,8.18,8.18,0,0,0-1.66,3.08,4.28,4.28,0,0,0,1.73,3.83c1.13.92,2.44,1.88,6.64,1.89"/><path class="cls-4" d="M58.32,13.35l-8,11.18c-.8,1.12-1.57,2.78-.57,3.73a2.81,2.81,0,0,0,1.33.57,20.47,20.47,0,0,0,3.79.42,3.09,3.09,0,0,1,1.39.24"/></g></g></svg>