<svg xmlns="http://www.w3.org/2000/svg" viewBox="0 0 97.26 56.2"><defs><style>.cls-1{fill:#9ecdbc;}.cls-1,.cls-2,.cls-3,.cls-4{stroke:#6b8f7f;stroke-linecap:round;stroke-linejoin:round;stroke-width:4px;}.cls-2{fill:none;}.cls-3{fill:#ddede4;}.cls-4{fill:#fff;}</style></defs><title>Ресурс 18</title><g id="Слой_2" data-name="Слой 2"><g id="Layer_1" data-name="Layer 1"><path class="cls-1" d="M26.11,45.31a9,9,0,0,1-10.32-1.9C11.4,39.25,14.49,33,11.38,28c0,0,19.49-1.58,16.84,11.8"/><path class="cls-2" d="M18,35.66s4.61,9,11.77,11.3"/><path class="cls-1" d="M24.11,13.3a12.14,12.14,0,0,1-5.29,8,11.19,11.19,0,0,1-2-9.14,12.11,12.11,0,0,1,5.29-8A11.18,11.18,0,0,1,24.11,13.3Z"/><path class="cls-1" d="M3.84,9.28A11.14,11.14,0,0,1,2.07,2,7,7,0,0,1,7.43,5.47a11.15,11.15,0,0,1,1.78,7.28A7,7,0,0,1,3.84,9.28Z"/><path class="cls-2" d="M47.31,30c2.11-6,8.5-10.33,16.05-10.33s13.88,4.3,16,10.23"/><path class="cls-3" d="M43.53,47.78a8.78,8.78,0,0,1-5.63-8.19c0-4.84-.92-8.77,3.93-8.77h42c4.85,0,11.44,3.93,11.44,8.77V41.8c-.78,4.69-8,5.84-8,5.84"/><line class="cls-2" x1="74.49" y1="48.35" x2="56.17" y2="48.35"/><circle class="cls-4" cx="49.97" cy="48" r="6.21"/><circle class="cls-4" cx="80.7" cy="48" r="6.21"/><line class="cls-2" x1="61.6" y1="31.58" x2="61.6" y2="42.96"/><line class="cls-2" x1="63.35" y1="19.9" x2="63.35" y2="30.42"/><line class="cls-2" x1="67.44" y1="37.71" x2="72.84" y2="37.71"/><line class="cls-2" x1="43.53" y1="49.28" x2="36.99" y2="49.28"/></g></g></svg>