<svg xmlns="http://www.w3.org/2000/svg" viewBox="0 0 95.13 92.57"><defs><style>.cls-1{fill:#ddede4;}.cls-2{fill:none;stroke:#6b8f7f;stroke-linecap:round;stroke-linejoin:round;stroke-width:4px;}</style></defs><title>Ресурс 2</title><g id="Слой_2" data-name="Слой 2"><g id="Layer_1" data-name="Layer 1"><path class="cls-1" d="M92.1,71.08l-35-60.65a5.23,5.23,0,0,0-9.05,0L13,71.08a5.23,5.23,0,0,0,4.53,7.84h70a5.23,5.23,0,0,0,4.53-7.84Z"/><polyline class="cls-2" points="2 55.7 16.82 51.56 20.96 66.38"/><polyline class="cls-2" points="75.4 90.57 64.53 79.69 75.41 68.81"/><polyline class="cls-2" points="69.97 9.42 66 24.28 51.13 20.31"/><path class="cls-2" d="M65.91,24.29l-11-19a6.57,6.57,0,0,0-11.38,0L21.67,43.23"/><path class="cls-2" d="M64.57,79.72h22a6.57,6.57,0,0,0,5.37-10.34L70.76,32.68"/><path class="cls-2" d="M16.83,51.6,6.29,69.87A6.57,6.57,0,0,0,12,79.72H54.83"/></g></g></svg>