<svg xmlns="http://www.w3.org/2000/svg" viewBox="0 0 79.57 90.81"><defs><style>.cls-1,.cls-4{fill:#ddede4;}.cls-1,.cls-2,.cls-3{stroke:#6b8f7f;stroke-linecap:round;stroke-linejoin:round;stroke-width:4px;}.cls-2{fill:none;}.cls-3{fill:#9ecdbc;}</style></defs><title>Ресурс 20</title><g id="Слой_2" data-name="Слой 2"><g id="Layer_1" data-name="Layer 1"><path class="cls-1" d="M31.72,55.5c.49-5.1,2.87-10.87,6.7-14.35l.25-.23.48-.42a22.16,22.16,0,1,0-29.92,0l.67.57c3.85,3.51,6.23,9.28,6.72,14.38"/><path class="cls-2" d="M9.87,25.74a6.61,6.61,0,0,0,5.86,3.61,6.6,6.6,0,0,0,5.79-3.73,4,4,0,0,0,.21-3.26A2.27,2.27,0,0,0,19,21.09a2.44,2.44,0,0,0-1.1,1A4.51,4.51,0,0,0,19,27.65a6.48,6.48,0,0,0,5.8,1.1c2-.52,4.26-1.26,5.72-2.68A3.62,3.62,0,0,0,31.58,23a2.8,2.8,0,0,0-3.1-2.38A3.47,3.47,0,0,0,26,23.34c-.3,1.79.62,3.07,1.62,4.33a4.27,4.27,0,0,0,3.82,1.17,11.2,11.2,0,0,0,7.05-3.47"/><line class="cls-2" x1="24.17" y1="50.13" x2="24.17" y2="34.61"/><path class="cls-3" d="M13.86,59.92c0,3.64,2.27,6.62,5,6.62H19l1.57,1.65a3.33,3.33,0,0,0,3.59,3.69,3.33,3.33,0,0,0,3.6-3.69l1.57-1.65h.1c2.77,0,5-3,5-6.62V56.39H13.86Z"/><path class="cls-4" d="M55,73.07a9.72,9.72,0,0,1,10.17-5.18c6.54.69,6.42,8.14,12.44,10.43,0,0-15.8,13.57-22.36.27"/><path class="cls-2" d="M55,73.07a9.72,9.72,0,0,1,10.17-5.18c6.54.69,6.42,8.14,12.44,10.43,0,0-15.8,13.57-22.36.27"/><path class="cls-2" d="M66.27,76.13c-11.3-6-21-2.31-23.8,3.76-2.46,5.26-6.92,11.32-14.21,8-8.56-3.95-4.78-15.29-4.78-15.29"/></g></g></svg>