<svg xmlns="http://www.w3.org/2000/svg" viewBox="0 0 87.22 62.58"><defs><style>.cls-1{fill:#9ecdbc;}.cls-2{fill:#ddede4;}.cls-2,.cls-3{stroke:#6b8f7f;}.cls-2,.cls-3,.cls-4{stroke-linecap:round;stroke-linejoin:round;stroke-width:4px;}.cls-3,.cls-4{fill:none;}.cls-4{stroke:#fff;}</style></defs><title>Ресурс 22</title><g id="Слой_2" data-name="Слой 2"><g id="Layer_1" data-name="Layer 1"><path class="cls-1" d="M67.83,18H84.22V8.49H3V18H19.55a1,1,0,1,1,0,2H7.73V59.27H72.89a6.6,6.6,0,0,0,6.59-6.59V20H67.83a1,1,0,0,1,0-2Z"/><path class="cls-2" d="M35.31,48s-6.83-6.66-2.25-17.27c4-9.2,13.94-5.48,19.83-13.15,0,0,10.93,29.47-10,32.7"/><path class="cls-3" d="M46.95,31.2S33.27,45.19,32.83,60"/><path class="cls-3" d="M6.73,20.11V60.58H72.89A7.62,7.62,0,0,0,80.48,53V20.11"/><polyline class="cls-3" points="19.55 19.34 2 19.34 2 7.8 85.22 7.8 85.22 19.34 67.83 19.34"/><rect class="cls-3" x="11.08" y="2" width="15.48" height="5.8"/><rect class="cls-3" x="60.66" y="2" width="15.48" height="5.8"/><line class="cls-4" x1="13.98" y1="36.01" x2="23.66" y2="36.01"/><line class="cls-4" x1="18.82" y1="31.17" x2="18.82" y2="40.85"/><line class="cls-4" x1="63.77" y1="36.01" x2="73.45" y2="36.01"/></g></g></svg>