<svg xmlns="http://www.w3.org/2000/svg" viewBox="0 0 82.91 98.68"><defs><style>.cls-1{fill:#ddede4;}.cls-1,.cls-2,.cls-3,.cls-4,.cls-6{stroke:#6b8f7f;}.cls-1,.cls-2{stroke-miterlimit:10;}.cls-1,.cls-2,.cls-3,.cls-4,.cls-5,.cls-6{stroke-width:4px;}.cls-2,.cls-6{fill:#9ecdbc;}.cls-3,.cls-4,.cls-5{fill:none;}.cls-3,.cls-6{stroke-linecap:round;}.cls-3,.cls-4,.cls-5,.cls-6{stroke-linejoin:round;}.cls-4{stroke-dasharray:7.21 7.21;}.cls-5{stroke:#fff;}</style></defs><title>Ресурс 23</title><g id="Слой_2" data-name="Слой 2"><g id="Layer_1" data-name="Layer 1"><polyline class="cls-1" points="48.46 57.32 59.12 57.32 59.12 96.68 20.68 96.68 20.68 57.32 31.34 57.32"/><path class="cls-2" d="M75.12,96.68h-16V68.29H80.91V90.88A5.81,5.81,0,0,1,75.12,96.68Z"/><line class="cls-3" x1="2" y1="39.9" x2="15.46" y2="39.9"/><line class="cls-3" x1="64.33" y1="39.9" x2="77.8" y2="39.9"/><line class="cls-3" x1="39.9" y1="15.46" x2="39.9" y2="2"/><line class="cls-3" x1="57.18" y1="22.62" x2="66.7" y2="13.1"/><line class="cls-3" x1="22.62" y1="22.62" x2="13.1" y2="13.1"/><line class="cls-3" x1="62.63" y1="30.93" x2="71.07" y2="27.6"/><line class="cls-3" x1="30.93" y1="17.17" x2="27.42" y2="8.31"/><line class="cls-3" x1="49.63" y1="17.49" x2="53.1" y2="9.47"/><line class="cls-3" x1="17.48" y1="30.18" x2="8.73" y2="26.38"/><line class="cls-3" x1="62.63" y1="48.87" x2="71.07" y2="52.2"/><line class="cls-3" x1="17.48" y1="49.63" x2="8.73" y2="53.42"/><line class="cls-4" x1="33.89" y1="69.26" x2="33.89" y2="91.49"/><line class="cls-4" x1="45.91" y1="69.26" x2="45.91" y2="91.49"/><line class="cls-5" x1="66.33" y1="77.59" x2="73.99" y2="77.59"/><line class="cls-5" x1="66.33" y1="87.2" x2="73.99" y2="87.2"/><path class="cls-6" d="M39.9,26.06a20.32,20.32,0,0,0,0,37.58,20.32,20.32,0,0,0,0-37.58Z"/><line class="cls-3" x1="39.9" y1="35.45" x2="39.91" y2="65.46"/><line class="cls-3" x1="46.02" y1="46.91" x2="39.91" y2="53.03"/><line class="cls-3" x1="33.8" y1="41.76" x2="39.91" y2="47.89"/><circle class="cls-6" cx="8.73" cy="79.79" r="6.61"/><line class="cls-3" x1="8.73" y1="86.41" x2="8.73" y2="95.41"/></g></g></svg>