<svg xmlns="http://www.w3.org/2000/svg" viewBox="0 0 88.17 79.15"><defs><style>.cls-1{fill:#ddede4;}.cls-2{fill:#9ecdbc;}.cls-2,.cls-3,.cls-4,.cls-5{stroke:#6b8f7f;stroke-linecap:round;stroke-width:4px;}.cls-2,.cls-4{stroke-linejoin:round;}.cls-3,.cls-4{fill:none;}.cls-5{fill:#fff;stroke-miterlimit:10;}</style></defs><title>Ресурс 24</title><g id="Слой_2" data-name="Слой 2"><g id="Layer_1" data-name="Layer 1"><path class="cls-1" d="M19.62,57.81V55h-6.8v2.79a1,1,0,0,1,0,.29L8,73.67v2.48H19.68v-4.9a1,1,0,0,1,0-.29l1.66-5.41L19.65,58A1,1,0,0,1,19.62,57.81Z"/><path class="cls-1" d="M69.56,34.81a1,1,0,0,1,0-.29V28.67H52.13v5.85a1,1,0,0,1,0,.29L45.66,55.71a1,1,0,0,1-.19.61l-4,13v6.84H80.18V69.31Z"/><path class="cls-2" d="M56.31,17.94S58.9,9.79,50.78,4c-7-5-14.87,1.08-22.79-1.88,0,0,5.26,27,23.23,19.55"/><path class="cls-3" d="M40.58,9.32s16.06,4.37,21.57,18"/><polygon class="cls-4" points="81.53 69.16 70.87 34.52 70.87 27.67 51.48 27.67 51.48 34.52 40.83 69.16 40.83 77.15 81.53 77.15 81.53 69.16"/><polyline class="cls-4" points="45.03 55.72 43.19 45.68 43.19 39.51 28.88 39.51 28.88 45.68 21.01 71.25 21.01 77.15"/><polyline class="cls-4" points="7.32 77.15 7.32 73.52 12.16 57.81 12.16 54.01 20.95 54.01 20.95 57.81 22.75 65.58"/><line class="cls-4" x1="37.79" y1="69.16" x2="67.32" y2="69.16"/><line class="cls-4" x1="48.45" y1="34.52" x2="61.99" y2="34.52"/><line class="cls-4" x1="86.17" y1="77.15" x2="2" y2="77.15"/><circle class="cls-5" cx="61.56" cy="54.57" r="4.92"/></g></g></svg>