<svg xmlns="http://www.w3.org/2000/svg" viewBox="0 0 59.96 89.96"><defs><style>.cls-1,.cls-3{fill:#ddede4;}.cls-2{fill:none;}.cls-2,.cls-3,.cls-4{stroke:#6b8f7f;stroke-linecap:round;stroke-linejoin:round;stroke-width:4px;}.cls-4{fill:#9ecdbc;}</style></defs><title>Ресурс 25</title><g id="Слой_2" data-name="Слой 2"><g id="Layer_1" data-name="Layer 1"><path class="cls-1" d="M52.38,59.6H7.59a10.79,10.79,0,0,0-4.28,8.75c0,5.38,3.67,9.89,8.53,10.48a8.2,8.2,0,0,0,1.07.07H47.06a8.72,8.72,0,0,0,1.06-.07c4.86-.59,8.53-5.1,8.53-10.48A10.79,10.79,0,0,0,52.38,59.6Z"/><path class="cls-2" d="M18.43,46.83C13,48.77,8.93,52.47,7.24,58.6a11.8,11.8,0,0,0-4.93,9.75c0,5.94,4.12,10.83,9.41,11.47a9.21,9.21,0,0,0,1.19.08H47.06a9.66,9.66,0,0,0,1.19-.08c5.29-.64,9.4-5.53,9.4-11.47a11.8,11.8,0,0,0-4.93-9.75c-1.78-6.45-6.21-10.2-12.05-12"/><line class="cls-2" x1="53.51" y1="56.53" x2="57.96" y2="56.53"/><line class="cls-2" x1="2" y1="56.53" x2="6.44" y2="56.53"/><path class="cls-2" d="M16.66,80.06v4A3.9,3.9,0,0,1,12.77,88H9.59a3.9,3.9,0,0,1-3.89-3.9V78.14"/><path class="cls-2" d="M54.26,78.14v5.92A3.89,3.89,0,0,1,50.37,88H47.19a3.89,3.89,0,0,1-3.89-3.9v-4"/><circle class="cls-2" cx="13.6" cy="69.28" r="1.21"/><circle class="cls-2" cx="46.15" cy="69.28" r="1.21"/><line class="cls-2" x1="7.24" y1="58.6" x2="52.72" y2="58.6"/><path class="cls-3" d="M36.48,9.51A23.35,23.35,0,0,0,31,27.42a20.19,20.19,0,0,0,16.15-7.49A23.33,23.33,0,0,0,52.63,2C47,1.73,40.93,4.29,36.48,9.51Z"/><path class="cls-4" d="M21.87,26.14A20.76,20.76,0,0,0,6.81,20.09c-.4,4.83,1.61,10.18,5.92,14.38a20.77,20.77,0,0,0,15.05,6.06C28.19,35.69,26.18,30.34,21.87,26.14Z"/><path class="cls-2" d="M42.37,14.59S25.71,26.17,30.29,49.76"/></g></g></svg>