<svg xmlns="http://www.w3.org/2000/svg" viewBox="0 0 58.37 90.36"><defs><style>.cls-1{fill:#ddede4;}.cls-1,.cls-2,.cls-3,.cls-4{stroke:#6b8f7f;stroke-linecap:round;stroke-linejoin:round;stroke-width:4px;}.cls-2{fill:#9ecdbc;}.cls-3{fill:#fff;}.cls-4{fill:none;}</style></defs><title>Ресурс 3</title><g id="Слой_2" data-name="Слой 2"><g id="Layer_1" data-name="Layer 1"><path class="cls-1" d="M38.44,66.06a24.68,24.68,0,0,1,8.21-16l.31-.28.59-.52a27.18,27.18,0,1,0-36.7.06l.82.7a24.78,24.78,0,0,1,8.24,16.08"/><path class="cls-2" d="M16.55,73.71c0,4.46,2.78,8.12,6.18,8.12h.12l1.93,2c0,3.18,2,4.52,4.41,4.52s4.41-1.34,4.41-4.52l1.93-2h.12c3.4,0,6.19-3.65,6.19-8.12V67.16H16.55Z"/><path class="cls-3" d="M29.18,11.16a22.35,22.35,0,0,0-14,20.9,22.34,22.34,0,0,0,14,20.89,22.34,22.34,0,0,0,14-20.9A22.34,22.34,0,0,0,29.18,11.16Z"/><line class="cls-4" x1="29.18" y1="21.6" x2="29.19" y2="64.34"/><line class="cls-4" x1="35.99" y1="23.7" x2="29.19" y2="30.51"/><line class="cls-4" x1="35.99" y1="34.34" x2="29.19" y2="41.15"/><line class="cls-4" x1="22.39" y1="28.62" x2="29.19" y2="35.43"/><line class="cls-4" x1="22.39" y1="39.26" x2="29.19" y2="46.06"/></g></g></svg>