<svg xmlns="http://www.w3.org/2000/svg" viewBox="0 0 82.38 97.1"><defs><style>.cls-1{fill:#ddede4;}.cls-2{fill:none;}.cls-2,.cls-3{stroke:#6b8f7f;stroke-linecap:round;stroke-linejoin:round;stroke-width:4px;}.cls-3{fill:#fff;}</style></defs><title>Ресурс 4</title><g id="Слой_2" data-name="Слой 2"><g id="Layer_1" data-name="Layer 1"><path class="cls-1" d="M79,52,65.35,71.19,54.24,88.27a1,1,0,0,0-.16.54v3.26c-17.39,10.32-29.59,1.83-31.79.09V89.26a1,1,0,0,0-.08-.4L15,72.26l-3.31-20a1,1,0,0,0,0-.17L3.44,28.61a3.29,3.29,0,0,1,1.88-4.25L6.16,24a3.3,3.3,0,0,1,4.25,1.88l0,.1L21.63,47.31l0,0a1,1,0,0,0,.22.27l0,0a1,1,0,0,0,.32.17l.11,0a1,1,0,0,0,.21,0h.19a.86.86,0,0,0,.14-.06.93.93,0,0,0,.14,0l0,0a1,1,0,0,0,.16-.13.93.93,0,0,0,.13-.13,1,1,0,0,0,.09-.16,1,1,0,0,0,.08-.18,1,1,0,0,0,0-.17.93.93,0,0,0,0-.21s0,0,0,0l-6.4-33.91a4.26,4.26,0,0,1,3.44-4.94l1.09-.19a4.26,4.26,0,0,1,4.94,3.45L32.27,42a.8.8,0,0,0,0,.08.89.89,0,0,0,.08.19.87.87,0,0,0,.1.16.89.89,0,0,0,.13.13.92.92,0,0,0,.16.12l.15.07a.88.88,0,0,0,.21.05l.07,0h.05l.09,0h.09l.09,0,.19-.08.15-.09a.9.9,0,0,0,.14-.14.92.92,0,0,0,.1-.14,1,1,0,0,0,.08-.18,1,1,0,0,0,0-.18s0-.05,0-.08L36.08,7.43a4.46,4.46,0,0,1,1.36-3.15A4.53,4.53,0,0,1,40.64,3h1.15a4.5,4.5,0,0,1,4.44,4.54l-1,32.86a.4.4,0,0,0,0,0,.89.89,0,0,0,0,.2,1,1,0,0,0,0,.18,1,1,0,0,0,.1.16,1,1,0,0,0,.12.15,1,1,0,0,0,.15.1.93.93,0,0,0,.18.11l0,0a.94.94,0,0,0,.15,0,1,1,0,0,0,.15,0h0a1,1,0,0,0,.29-.06h0a1,1,0,0,0,.51-.45l.05-.09,0-.06L56,15.51a4.5,4.5,0,0,1,5.74-2.74l1.09.38a4.52,4.52,0,0,1,2.73,5.78l-8.39,28c-.68,2.73-2.68,11.77.33,13.48a1,1,0,0,0,1.25-.21L70.12,47.11a1,1,0,0,0,.11-.15,4.51,4.51,0,0,1,6.15-1.61l1,.58A4.49,4.49,0,0,1,79,52Z"/><path class="cls-2" d="M46.05,40.44,54.8,15.17a5.51,5.51,0,0,1,7-3.35l1.09.38a5.51,5.51,0,0,1,3.35,7L57.88,47.15s-2.73,10.91-.15,12.37L69.15,46.45a5.5,5.5,0,0,1,7.51-2l1,.58a5.51,5.51,0,0,1,2,7.52L66,71.73,54.86,88.81v3.83"/><path class="cls-2" d="M33,41.82,34.86,7.42A5.51,5.51,0,0,1,40.43,2h1.16A5.51,5.51,0,0,1,47,7.58l-1,32.86"/><path class="cls-2" d="M22.3,46.85l-6.4-33.92a5.27,5.27,0,0,1,4.25-6.1l1.09-.19a5.27,5.27,0,0,1,6.1,4.25L33,41.82"/><path class="cls-2" d="M22.3,46.85,11.12,25.56A4.3,4.3,0,0,0,5.58,23.1l-.84.32A4.3,4.3,0,0,0,2.29,29l8.22,23.5,3.33,20.07,7.23,16.71v3.38"/><path class="cls-3" d="M44,45.34A21.92,21.92,0,0,0,29.22,83.09,21.92,21.92,0,0,0,44,45.34Z"/><line class="cls-2" x1="40.29" y1="54.77" x2="29.22" y2="83.09"/><line class="cls-2" x1="45.69" y1="59.07" x2="37.14" y2="62.82"/><line class="cls-2" x1="41.93" y1="68.68" x2="33.39" y2="72.42"/><line class="cls-2" x1="31.79" y1="58.39" x2="35.53" y2="66.94"/><line class="cls-2" x1="28.03" y1="68" x2="31.77" y2="76.55"/></g></g></svg>