<svg xmlns="http://www.w3.org/2000/svg" viewBox="0 0 98.9 88.98"><defs><style>.cls-1{fill:#fff;}.cls-2{fill:#efefee;}.cls-3{fill:#9ecdbc;}.cls-3,.cls-4,.cls-5{stroke:#6b8f7f;stroke-linecap:round;stroke-linejoin:round;stroke-width:4px;}.cls-4{fill:none;}.cls-5{fill:#ddede4;}</style></defs><title>Ресурс 5</title><g id="Слой_2" data-name="Слой 2"><g id="Layer_1" data-name="Layer 1"><polygon class="cls-1" points="2.99 59.62 2.99 82.37 48.26 82.37 48.26 59.45 25.67 31.32 2.99 59.62"/><rect class="cls-2" x="50.28" y="60.09" width="32.53" height="22.28"/><polygon class="cls-3" points="29.5 45.73 11.17 69.79 20.34 69.79 20.34 86.98 38.09 63.49 27.78 63.49 29.5 45.73"/><circle class="cls-3" cx="78.77" cy="20.13" r="8.13"/><line class="cls-4" x1="78.77" y1="2" x2="78.77" y2="6.71"/><line class="cls-4" x1="78.77" y1="33.55" x2="78.77" y2="38.26"/><line class="cls-4" x1="96.9" y1="20.13" x2="92.18" y2="20.13"/><line class="cls-4" x1="65.36" y1="20.13" x2="60.64" y2="20.13"/><line class="cls-4" x1="91.58" y1="7.31" x2="88.25" y2="10.64"/><line class="cls-4" x1="69.28" y1="29.62" x2="67.62" y2="31.28"/><line class="cls-4" x1="91.58" y1="32.95" x2="88.25" y2="29.62"/><line class="cls-4" x1="69.28" y1="10.64" x2="65.95" y2="7.31"/><polygon class="cls-5" points="83.8 59.09 49.27 59.09 25.63 29.65 60.15 29.65 83.8 59.09"/><line class="cls-4" x1="33.37" y1="39.3" x2="67.9" y2="39.3"/><line class="cls-4" x1="41.53" y1="49.45" x2="76.05" y2="49.45"/><line class="cls-4" x1="48.84" y1="29.65" x2="72.49" y2="59.09"/><line class="cls-4" x1="36.94" y1="29.65" x2="60.58" y2="59.09"/><polyline class="cls-4" points="25.74 29.65 2 59.27 2 83.37 13.05 83.37"/><polyline class="cls-4" points="49.27 59.09 49.27 83.37 32.15 83.37"/><polyline class="cls-4" points="83.8 59.09 83.8 83.37 49.27 83.37"/></g></g></svg>