<svg xmlns="http://www.w3.org/2000/svg" viewBox="0 0 66.72 91.08"><defs><style>.cls-1{fill:#ddede4;}.cls-1,.cls-2,.cls-3{stroke:#6b8f7f;stroke-linecap:round;stroke-linejoin:round;stroke-width:4px;}.cls-2{fill:#9ecdbc;}.cls-3{fill:none;}</style></defs><title>Ресурс 6</title><g id="Слой_2" data-name="Слой 2"><g id="Layer_1" data-name="Layer 1"><path class="cls-1" d="M13.94,30.87c-.59,5.65,4.52,15.49,10.56,13,7.2-2.91,3.36-11.74,2.43-16.71C24.39,13.75,29.78,6,42.71,2,34.9,20.61,45.79,27.19,56.49,40.18,65.27,50.81,68.79,68,58.1,79.57,44.71,94,18.41,91.58,7.36,75.05-3.91,58.18,4.7,35.12,13.94,30.87Z"/><path class="cls-2" d="M48.37,45A22.6,22.6,0,0,0,26,80.32,22.6,22.6,0,0,0,48.37,45Z"/><line class="cls-3" x1="42.79" y1="53.81" x2="22.5" y2="85.93"/><line class="cls-3" x1="47.42" y1="59.23" x2="38.03" y2="61.35"/><line class="cls-3" x1="41.73" y1="68.22" x2="32.35" y2="70.34"/><line class="cls-3" x1="33.3" y1="56.12" x2="35.41" y2="65.51"/><line class="cls-3" x1="27.61" y1="65.11" x2="29.72" y2="74.5"/></g></g></svg>