<svg xmlns="http://www.w3.org/2000/svg" viewBox="0 0 77.11 89.32"><defs><style>.cls-1{fill:#efefee;}.cls-2{fill:#ddede4;}.cls-2,.cls-3,.cls-4,.cls-5,.cls-6{stroke:#6b8f7f;stroke-linecap:round;stroke-width:4px;}.cls-2,.cls-3,.cls-4{stroke-linejoin:round;}.cls-3,.cls-5{fill:#9ecdbc;}.cls-4,.cls-6{fill:none;}.cls-5,.cls-6{stroke-miterlimit:10;}</style></defs><title>Ресурс 7</title><g id="Слой_2" data-name="Слой 2"><g id="Layer_1" data-name="Layer 1"><circle class="cls-1" cx="19.09" cy="70.23" r="19.09"/><path class="cls-2" d="M75.11,39.72a22.51,22.51,0,0,1-45,0C30.12,27.29,52.61,2,52.61,2S75.11,27.29,75.11,39.72Z"/><polygon class="cls-3" points="56.49 20.66 41.85 39.88 49.18 39.88 49.18 53.61 63.36 34.85 55.13 34.85 56.49 20.66"/><path class="cls-4" d="M23.75,70.64c5.78,0,7.28,1,10.11,7,2.46,5.26,6.92,11.32,14.21,8,8.57-3.95,4.78-21.09,4.78-21.09"/><rect class="cls-5" x="8.95" y="60.69" width="14.5" height="19.49" rx="4.11" ry="4.11"/><line class="cls-6" x1="2.4" y1="74.77" x2="7.5" y2="74.77"/><line class="cls-6" x1="2.4" y1="66.07" x2="7.5" y2="66.07"/></g></g></svg>