<svg xmlns="http://www.w3.org/2000/svg" viewBox="0 0 91.28 62.9"><defs><style>.cls-1{fill:#ddede4;}.cls-1,.cls-2,.cls-3{stroke:#6b8f7f;stroke-linecap:round;stroke-linejoin:round;stroke-width:4px;}.cls-2{fill:none;}.cls-3{fill:#9ecdbc;}</style></defs><title>Ресурс 8</title><g id="Слой_2" data-name="Слой 2"><g id="Layer_1" data-name="Layer 1"><path class="cls-1" d="M69.42,47.83H21.86a19.86,19.86,0,1,1,0-39.71H69.42a19.86,19.86,0,0,1,0,39.71Z"/><line class="cls-2" x1="51.66" y1="18.25" x2="72.55" y2="18.25"/><line class="cls-2" x1="51.66" y1="28.21" x2="72.55" y2="28.21"/><line class="cls-2" x1="51.66" y1="38.17" x2="72.55" y2="38.17"/><line class="cls-2" x1="67.65" y1="43.4" x2="67.65" y2="46.84"/><line class="cls-2" x1="67.65" y1="33.72" x2="67.65" y2="38.17"/><line class="cls-2" x1="67.65" y1="23.66" x2="67.65" y2="28.21"/><polyline class="cls-2" points="51.66 46.84 51.66 8.12 67.65 8.12 67.65 18.25"/><rect class="cls-2" x="51.78" y="2" width="15.77" height="6.12"/><rect class="cls-2" x="22.08" y="2" width="15.77" height="6.12"/><line class="cls-2" x1="4.56" y1="47.83" x2="86.71" y2="47.83"/><circle class="cls-2" cx="16.88" cy="56.4" r="4.5"/><circle class="cls-2" cx="56.31" cy="56.4" r="4.5"/><circle class="cls-2" cx="74.1" cy="56.4" r="4.5"/><line class="cls-2" x1="4.56" y1="56.4" x2="12.39" y2="56.4"/><line class="cls-2" x1="21.38" y1="56.4" x2="51.81" y2="56.4"/><line class="cls-2" x1="60.8" y1="56.4" x2="69.61" y2="56.4"/><line class="cls-2" x1="78.6" y1="56.4" x2="86.71" y2="56.4"/><path class="cls-3" d="M21.71,37.31s-5.53-6.16-.64-14.47c4.23-7.19,12.78-3.14,18.6-8.9-.05-.18,1.83,25.57-11.44,26"/><path class="cls-2" d="M33.33,24.64S20.12,34.83,18.57,47"/></g></g></svg>