<svg xmlns="http://www.w3.org/2000/svg" viewBox="0 0 93.39 93.39"><defs><style>.cls-1{fill:#ddede4;}.cls-2{fill:#9ecdbc;}.cls-2,.cls-4{stroke:#6b8f7f;}.cls-2,.cls-3,.cls-4{stroke-linecap:round;stroke-linejoin:round;stroke-width:4px;}.cls-3,.cls-4{fill:none;}.cls-3{stroke:#fff;}</style></defs><title>Ресурс 9</title><g id="Слой_2" data-name="Слой 2"><g id="Layer_1" data-name="Layer 1"><circle class="cls-1" cx="46.7" cy="46.99" r="20.64"/><path class="cls-2" d="M59.77,51.24a13.07,13.07,0,1,1-26.14,0c0-7.37,13.08-22.35,13.08-22.35S59.77,43.87,59.77,51.24Z"/><path class="cls-3" d="M42.24,55.64s4.46,3.57,8.92,0"/><circle class="cls-4" cx="46.7" cy="46.7" r="25.83"/><polyline class="cls-4" points="54.32 9.05 47.26 2 40.2 9.05"/><line class="cls-4" x1="47.26" y1="3.4" x2="47.26" y2="15.34"/><polyline class="cls-4" points="25.47 14.69 15.49 14.69 15.49 24.67"/><line class="cls-4" x1="16.48" y1="15.68" x2="24.92" y2="24.12"/><polyline class="cls-4" points="9.05 39.08 2 46.13 9.05 53.19"/><line class="cls-4" x1="3.4" y1="46.13" x2="15.33" y2="46.13"/><polyline class="cls-4" points="14.69 67.92 14.69 77.9 24.67 77.91"/><line class="cls-4" x1="15.68" y1="76.92" x2="24.12" y2="68.47"/><polyline class="cls-4" points="67.92 78.7 77.9 78.7 77.91 68.72"/><line class="cls-4" x1="76.91" y1="77.71" x2="68.47" y2="69.27"/><polyline class="cls-4" points="84.34 54.32 91.39 47.26 84.34 40.2"/><line class="cls-4" x1="90" y1="47.26" x2="78.06" y2="47.26"/><polyline class="cls-4" points="39.07 84.34 46.13 91.39 53.19 84.34"/><line class="cls-4" x1="46.13" y1="90" x2="46.13" y2="78.06"/><polyline class="cls-4" points="78.7 25.47 78.7 15.49 68.72 15.48"/><line class="cls-4" x1="77.71" y1="16.48" x2="69.27" y2="24.92"/></g></g></svg>