<?xml version="1.0" encoding="UTF-8"?>
<svg width="95px" height="120px" viewBox="0 0 95 120" version="1.1" xmlns="http://www.w3.org/2000/svg" xmlns:xlink="http://www.w3.org/1999/xlink">
    <!-- Generator: Sketch 54.1 (76490) - https://sketchapp.com -->
    <title>1</title>
    <desc>Created with Sketch.</desc>
    <defs>
        <linearGradient x1="0.221428571%" y1="49.9696751%" x2="101.310714%" y2="49.9696751%" id="linearGradient-1">
            <stop stop-color="#C2C4C4" offset="0%"></stop>
            <stop stop-color="#EDEDED" offset="100%"></stop>
        </linearGradient>
        <linearGradient x1="0.221428571%" y1="49.8764791%" x2="101.310714%" y2="49.8764791%" id="linearGradient-2">
            <stop stop-color="#C2C4C4" offset="0%"></stop>
            <stop stop-color="#EDEDED" offset="100%"></stop>
        </linearGradient>
        <linearGradient x1="0.457142857%" y1="50.0306458%" x2="101.55%" y2="50.0306458%" id="linearGradient-3">
            <stop stop-color="#C2C4C4" offset="0%"></stop>
            <stop stop-color="#EDEDED" offset="100%"></stop>
        </linearGradient>
        <linearGradient x1="0.457142857%" y1="50.0963925%" x2="101.55%" y2="50.0963925%" id="linearGradient-4">
            <stop stop-color="#C2C4C4" offset="0%"></stop>
            <stop stop-color="#EDEDED" offset="100%"></stop>
        </linearGradient>
    </defs>
    <g id="Page-1" stroke="none" stroke-width="1" fill="none" fill-rule="evenodd">
        <g id="19034-[преобразованный]" transform="translate(-297.000000, -141.000000)" fill-rule="nonzero">
            <g id="_x32_">
                <g id="1" transform="translate(297.725000, 141.000000)">
                    <path d="M93.775,110.9 L71.275,98 L72.475,97.3 L69.575,95.6 L68.375,96.3 L43.575,82 L44.775,81.3 L41.875,79.6 L40.675,80.3 L15.275,65.6 C15.175,65.5 14.975,65.5 14.875,65.6 C14.775,65.7 14.775,65.8 14.875,65.8 L40.175,80.4 L25.775,88.7 L0.475,74.1 C0.375,74 0.175,74 0.075,74.1 C-0.025,74.2 -0.025,74.3 0.075,74.3 L25.375,88.9 L23.275,90.1 L26.175,91.8 L28.275,90.6 L53.075,104.9 L50.975,106.1 L53.875,107.8 L55.975,106.6 L78.375,119.6 C78.475,119.7 78.675,119.7 78.775,119.6 C78.875,119.5 78.875,119.4 78.775,119.4 L56.375,106.4 L70.775,98.1 L93.175,111.1 C93.275,111.2 93.475,111.2 93.575,111.1 C93.875,111.1 93.875,111 93.775,110.9 Z M53.575,104.8 L28.775,90.5 L43.175,82.2 L67.975,96.5 L53.575,104.8 Z" id="Shape" fill="#0F5E70"></path>
                    <g id="Group" transform="translate(3.275000, 0.000000)">
                        <g transform="translate(39.000000, 22.000000)">
                            <g id="Axonometric_Cylinder_24_" transform="translate(18.000000, 17.000000)">
                                <path d="M2.6,1.9 C2,2.2 1.2,2.2 0.6,1.9 C0,1.6 0,1.1 0.6,0.7 C1.2,0.4 2,0.4 2.6,0.7 C3.2,1 3.2,1.5 2.6,1.9 Z" id="Cylinder_face_19_" fill="#F4F4F4"></path>
                                <path d="M3,1.3 L3,62.8 C3,63 2.9,63.2 2.6,63.4 C2,63.7 1.2,63.7 0.6,63.4 C0.3,63.2 0.2,63 0.2,62.8 L0.2,1.3 C0.2,1.5 0.3,1.7 0.6,1.9 C1.2,2.2 2,2.2 2.6,1.9 C2.9,1.7 3,1.5 3,1.3 Z" id="Cylinder_body_7_" fill="url(#linearGradient-1)"></path>
                            </g>
                            <path d="M21,18.9 L21,18.3 C21,18.5 20.9,18.7 20.6,18.9 C20,19.2 19.2,19.2 18.6,18.9 C18.3,18.7 18.2,18.5 18.2,18.3 L18.2,23.6 C18.5,21.8 18.9,20.1 21,18.9 Z" id="Path" fill="#3B3B3F" opacity="0.3"></path>
                            <g transform="translate(10.000000, 10.000000)" id="Path">
                                <polygon fill="#C2C4C4" points="16.6 4.9 14.4 3.6 14.4 1.8 16.6 3.1"></polygon>
                                <polygon fill="#F4F4F4" points="16.6 3.1 14.4 1.8 16.9 0.4 19.1 1.7"></polygon>
                                <polygon fill="#F4F4F4" points="4.7 11.8 2.5 10.5 14.4 3.6 16.6 4.9"></polygon>
                                <polygon fill="#F4F4F4" points="2.2 11.4 0 10.1 2.5 8.7 4.7 10"></polygon>
                                <polygon fill="#C2C4C4" points="2.2 14.3 0 13 0 10.1 2.2 11.4"></polygon>
                                <polygon fill="#D7D9D9" points="19.1 1.7 19.1 4.6 2.2 14.3 2.2 11.4 4.7 10 4.7 11.8 16.6 4.9 16.6 3.1"></polygon>
                            </g>
                            <g opacity="0.5" transform="translate(16.000000, 17.000000)" fill="#3B3B3F" id="Path">
                                <polygon opacity="0.7" points="3.1 1.1 2.6 0 0.6 1.1"></polygon>
                            </g>
                            <g transform="translate(0.000000, 9.000000)">
                                <g transform="translate(11.000000, 7.000000)">
                                    <path d="M2.2,3.5 C1.7,3.2 1,3.2 0.5,3.5 C0,3.8 0,4.2 0.5,4.5 C1,4.8 1.7,4.8 2.2,4.5 C2.7,4.2 2.7,3.8 2.2,3.5 Z M1.7,4.2 C1.5,4.3 1.1,4.3 0.9,4.2 C0.7,4.1 0.7,3.8 0.9,3.7 C1.1,3.6 1.5,3.6 1.7,3.7 C2,3.9 2,4.1 1.7,4.2 Z" id="Shape" fill="#D6CEBD"></path>
                                    <path d="M2.2,2.9 C1.7,2.6 1,2.6 0.5,2.9 C0,3.2 0,3.6 0.5,3.9 C1,4.2 1.7,4.2 2.2,3.9 C2.7,3.6 2.7,3.2 2.2,2.9 Z M1.7,3.6 C1.5,3.7 1.1,3.7 0.9,3.6 C0.7,3.5 0.7,3.2 0.9,3.1 C1.1,3 1.5,3 1.7,3.1 C2,3.3 2,3.5 1.7,3.6 Z" id="Shape" fill="#D6CEBD"></path>
                                    <path d="M2.2,2.9 C1.5,2.5 0.2,2.7 0.1,3.3 C-0.2,4.2 1.3,4.6 2.2,4.1 C2.2,4.1 2.2,4.1 2.2,4.1 L2.2,4.1 C2.3,4 2.6,3.9 2.6,3.5 C2.6,3.1 2.3,3 2.2,2.9 Z M2.2,3.9 C1.7,4.2 0.9,4.2 0.5,3.9 C0,3.6 0,3.2 0.5,2.9 C1,2.6 1.8,2.6 2.2,2.9 C2.7,3.2 2.7,3.6 2.2,3.9 Z" id="Shape" fill="#EFE9DC"></path>
                                    <path d="M2.2,2.3 C1.7,2 1,2 0.5,2.3 C0,2.6 0,3 0.5,3.3 C1,3.6 1.7,3.6 2.2,3.3 C2.7,3 2.7,2.6 2.2,2.3 Z M1.7,3 C1.5,3.1 1.1,3.1 0.9,3 C0.7,2.9 0.7,2.6 0.9,2.5 C1.1,2.4 1.5,2.4 1.7,2.5 C2,2.7 2,2.9 1.7,3 Z" id="Shape" fill="#D6CEBD"></path>
                                    <path d="M2.2,2.3 C1.5,1.9 0.2,2.1 0.1,2.7 C-0.2,3.6 1.3,4 2.2,3.5 C2.2,3.5 2.2,3.5 2.2,3.5 C2.3,3.4 2.6,3.3 2.6,2.9 C2.6,2.5 2.3,2.4 2.2,2.3 Z M2.2,3.3 C1.7,3.6 0.9,3.6 0.5,3.3 C0,3 0,2.6 0.5,2.3 C1,2 1.8,2 2.2,2.3 C2.7,2.6 2.7,3 2.2,3.3 Z" id="Shape" fill="#EFE9DC"></path>
                                    <path d="M2.2,1.7 C1.7,1.4 1,1.4 0.5,1.7 C0,2 0,2.4 0.5,2.7 C1,3 1.7,3 2.2,2.7 C2.7,2.4 2.7,2 2.2,1.7 Z M1.7,2.4 C1.5,2.5 1.1,2.5 0.9,2.4 C0.7,2.3 0.7,2 0.9,1.9 C1.1,1.8 1.5,1.8 1.7,1.9 C2,2.1 2,2.3 1.7,2.4 Z" id="Shape" fill="#D6CEBD"></path>
                                    <path d="M2.2,1.7 C1.5,1.3 0.2,1.5 0.1,2.1 C-0.2,3 1.3,3.4 2.2,2.9 C2.2,2.9 2.2,2.9 2.2,2.9 C2.3,2.8 2.6,2.7 2.6,2.3 C2.6,1.9 2.3,1.7 2.2,1.7 Z M2.2,2.7 L2.2,2.7 C1.7,3 0.9,3 0.5,2.7 C0,2.4 0,2 0.5,1.7 C1,1.4 1.8,1.4 2.2,1.7 C2.7,2 2.7,2.4 2.2,2.7 Z" id="Shape" fill="#EFE9DC"></path>
                                    <path d="M1.8,1.1 C1.6,1 1.2,1 1,1.1 C0.8,1.2 0.8,1.4 1,1.6 C1.2,1.7 1.6,1.7 1.8,1.6 C2,1.5 2,1.2 1.8,1.1 Z" id="Path" fill="#EFE9DC"></path>
                                    <path d="M2.2,1.1 C1.7,0.8 0.9,0.8 0.5,1.1 C0,1.4 0,1.8 0.5,2.1 C0.8,2.3 1.3,2.4 1.7,2.3 C1.8,2.3 1.9,2.3 2.1,2.2 C2.2,2.2 2.2,2.1 2.3,2.1 C2.7,1.8 2.7,1.4 2.2,1.1 Z M1.8,1.6 L1.8,1.6 C1.7,1.6 1.7,1.6 1.8,1.6 C1.7,1.7 1.6,1.7 1.5,1.7 C1.3,1.7 1.1,1.7 0.9,1.6 C0.7,1.5 0.7,1.2 0.9,1.1 C1.1,1 1.5,1 1.7,1.1 C2,1.2 2,1.5 1.8,1.6 Z" id="Shape" fill="#F9F4ED"></path>
                                    <path d="M2.2,1.1 L2.2,1.1 C1.5,0.7 0.3,0.9 0.1,1.5 C0.1,1.6 -0.1,2.2 0.6,2.4 C1,2.6 1.6,2.6 2.2,2.3 L2.2,2.3 L2.2,2.3 C2.3,2.2 2.6,2.1 2.6,1.7 C2.6,1.4 2.4,1.2 2.2,1.1 Z M2.2,2.1 C1.7,2.4 0.9,2.4 0.4,2.1 C-0.1,1.8 -0.1,1.4 0.4,1.1 C0.9,0.8 1.7,0.8 2.1,1.1 C2.7,1.4 2.7,1.8 2.2,2.1 Z" id="Shape" fill="#EFE9DC"></path>
                                    <path d="M1.7,1.6 C1.6,1.6 1.6,1.6 1.5,1.6 L1.7,2.2 C1.8,2.2 1.9,2.2 2.1,2.1 L1.7,1.6 Z" id="Path" fill="#FFFFFF"></path>
                                </g>
                                <path d="M35.9,21.5 C35.9,21.5 35.9,21.5 35.9,21.5 L12.6,8.1 L12.6,8.4 C12.6,8.5 12.5,8.6 12.4,8.6 C12.3,8.6 12.2,8.5 12.2,8.4 L12.2,7.9 C12.2,7.8 12.2,7.8 12.3,7.8 C12.3,7.8 12.4,7.8 12.5,7.8 L35.9,21.3 C36,21.3 36,21.4 36,21.5 C36,21.5 36,21.5 35.9,21.5 Z" id="Path" fill="#515151"></path>
                                <path d="M12.2,8.3 C12.1,8.3 12,8.2 12,8.1 L12,7.7 L0.3,0.9 C0.2,0.9 0.2,0.8 0.2,0.7 C0.2,0.6 0.3,0.6 0.4,0.6 L12.2,7.4 C12.2,7.4 12.3,7.5 12.3,7.5 L12.3,8 C12.4,8.3 12.3,8.3 12.2,8.3 Z" id="Path" fill="#515151"></path>
                            </g>
                            <g transform="translate(14.000000, 1.000000)">
                                <g transform="translate(11.000000, 7.000000)">
                                    <path d="M2.6,3.2 C2.1,2.9 1.4,2.9 0.9,3.2 C0.4,3.5 0.4,3.9 0.9,4.2 C1.4,4.5 2.1,4.5 2.6,4.2 C3,3.9 3,3.5 2.6,3.2 Z M2.1,4 C1.9,4.1 1.5,4.1 1.3,4 C1.1,3.9 1.1,3.6 1.3,3.5 C1.5,3.4 1.9,3.4 2.1,3.5 C2.3,3.6 2.3,3.8 2.1,4 Z" id="Shape" fill="#D6CEBD"></path>
                                    <path d="M2.6,2.6 C2.1,2.3 1.4,2.3 0.9,2.6 C0.4,2.9 0.4,3.3 0.9,3.6 C1.4,3.9 2.1,3.9 2.6,3.6 C3,3.3 3,2.9 2.6,2.6 Z M2.1,3.3 C1.9,3.4 1.5,3.4 1.3,3.3 C1.1,3.2 1.1,2.9 1.3,2.8 C1.5,2.7 1.9,2.7 2.1,2.8 C2.3,3 2.3,3.2 2.1,3.3 Z" id="Shape" fill="#D6CEBD"></path>
                                    <path d="M2.6,2.6 C1.9,2.2 0.6,2.4 0.5,3 C0.2,3.9 1.7,4.3 2.6,3.8 L2.6,3.8 L2.6,3.8 C2.7,3.7 3,3.6 3,3.2 C3,2.9 2.7,2.7 2.6,2.6 Z M2.5,3.6 C2,3.9 1.2,3.9 0.8,3.6 C0.3,3.3 0.3,2.9 0.8,2.6 C1.3,2.3 2.1,2.3 2.5,2.6 C3,2.9 3,3.3 2.5,3.6 Z" id="Shape" fill="#EFE9DC"></path>
                                    <path d="M2.6,2 C2.1,1.7 1.4,1.7 0.9,2 C0.4,2.3 0.4,2.7 0.9,3 C1.4,3.3 2.1,3.3 2.6,3 C3,2.7 3,2.3 2.6,2 Z M2.1,2.7 C1.9,2.8 1.5,2.8 1.3,2.7 C1.1,2.6 1.1,2.3 1.3,2.2 C1.5,2.1 1.9,2.1 2.1,2.2 C2.3,2.4 2.3,2.6 2.1,2.7 Z" id="Shape" fill="#D6CEBD"></path>
                                    <path d="M2.6,2 C1.9,1.6 0.6,1.8 0.5,2.4 C0.2,3.3 1.7,3.7 2.6,3.2 C2.6,3.2 2.6,3.2 2.6,3.2 C2.7,3.1 3,3 3,2.6 C3,2.2 2.7,2.1 2.6,2 Z M2.5,3 C2,3.3 1.2,3.3 0.8,3 C0.3,2.7 0.3,2.3 0.8,2 C1.3,1.7 2.1,1.7 2.5,2 C3,2.3 3,2.7 2.5,3 Z" id="Shape" fill="#EFE9DC"></path>
                                    <path d="M2.6,1.4 C2.1,1.1 1.4,1.1 0.9,1.4 C0.4,1.7 0.4,2.1 0.9,2.4 C1.4,2.7 2.1,2.7 2.6,2.4 C3,2.1 3,1.7 2.6,1.4 Z M2.1,2.1 C1.9,2.2 1.5,2.2 1.3,2.1 C1.1,2 1.1,1.7 1.3,1.6 C1.5,1.5 1.9,1.5 2.1,1.6 C2.3,1.8 2.3,2 2.1,2.1 Z" id="Shape" fill="#D6CEBD"></path>
                                    <path d="M2.6,1.4 C1.9,1 0.6,1.2 0.5,1.8 C0.2,2.7 1.7,3.1 2.6,2.6 C2.6,2.6 2.6,2.6 2.6,2.6 C2.7,2.5 3,2.4 3,2 C3,1.6 2.7,1.5 2.6,1.4 Z M2.5,2.4 L2.5,2.4 C2,2.7 1.2,2.7 0.8,2.4 C0.3,2.1 0.3,1.7 0.8,1.4 C1.3,1.1 2.1,1.1 2.5,1.4 C2.9,1.7 3,2.1 2.5,2.4 Z" id="Shape" fill="#EFE9DC"></path>
                                    <path d="M2.1,0.8 C1.9,0.7 1.5,0.7 1.3,0.8 C1.1,0.9 1.1,1.1 1.3,1.3 C1.5,1.4 1.9,1.4 2.1,1.3 C2.3,1.2 2.4,0.9 2.1,0.8 Z" id="Path" fill="#EFE9DC"></path>
                                    <path d="M2.6,0.8 C2.1,0.5 1.3,0.5 0.8,0.8 C0.3,1.1 0.3,1.5 0.8,1.8 C1.1,2 1.6,2.1 2,2 C2.1,2 2.2,2 2.4,1.9 C2.5,1.9 2.5,1.8 2.6,1.8 C3.1,1.5 3.1,1.1 2.6,0.8 Z M2.1,1.3 L2.1,1.3 C2.1,1.3 2.1,1.3 2.1,1.3 C2,1.4 1.9,1.4 1.8,1.4 C1.6,1.4 1.4,1.4 1.2,1.3 C1,1.2 1,0.9 1.2,0.8 C1.4,0.7 1.8,0.7 2,0.8 C2.4,0.9 2.3,1.2 2.1,1.3 Z" id="Shape" fill="#F9F4ED"></path>
                                    <path d="M2.6,0.8 L2.6,0.8 C1.9,0.4 0.7,0.6 0.5,1.2 C0.5,1.3 0.3,1.9 1,2.1 C1.4,2.3 2,2.3 2.6,2 C2.6,2 2.6,2 2.6,2 L2.6,2 C2.7,1.9 3,1.8 3,1.4 C3,1.1 2.8,0.9 2.6,0.8 Z M2.6,1.8 C2.1,2.1 1.3,2.1 0.8,1.8 C0.3,1.5 0.3,1.1 0.8,0.8 C1.3,0.5 2.1,0.5 2.6,0.8 C3.1,1.1 3.1,1.5 2.6,1.8 Z" id="Shape" fill="#EFE9DC"></path>
                                    <path d="M2,1.3 C1.9,1.3 1.9,1.3 1.8,1.3 L2,1.9 C2.1,1.9 2.2,1.9 2.4,1.8 L2,1.3 Z" id="Path" fill="#FFFFFF"></path>
                                </g>
                                <path d="M36.3,21.2 C36.3,21.2 36.2,21.2 36.3,21.2 L13,7.8 L13,8.1 C13,8.2 12.9,8.3 12.8,8.3 C12.7,8.3 12.6,8.2 12.6,8.1 L12.6,7.6 C12.6,7.5 12.6,7.5 12.7,7.5 C12.7,7.5 12.8,7.5 12.9,7.5 L36.3,21 C36.4,21 36.4,21.1 36.4,21.2 C36.4,21.2 36.3,21.2 36.3,21.2 Z" id="Path" fill="#515151"></path>
                                <path d="M12.6,8.1 C12.5,8.1 12.4,8 12.4,7.9 L12.4,7.5 L0.7,0.7 C0.6,0.7 0.6,0.6 0.6,0.5 C0.6,0.4 0.7,0.4 0.8,0.4 L12.6,7.2 C12.6,7.2 12.7,7.3 12.7,7.3 L12.7,7.8 C12.7,8 12.7,8.1 12.6,8.1 Z" id="Path" fill="#515151"></path>
                            </g>
                            <g id="Axonometric_Cylinder_23_" transform="translate(18.000000, 0.000000)">
                                <path d="M2.6,1.6 C2,1.9 1.2,1.9 0.6,1.6 C0,1.3 0,0.8 0.6,0.4 C1.2,0.1 2,0.1 2.6,0.4 C3.2,0.7 3.2,1.2 2.6,1.6 Z" id="Cylinder_face_18_" fill="#F4F4F4"></path>
                                <path d="M3,1 L3,17.5 C3,17.7 2.9,17.9 2.6,18.1 C2,18.4 1.2,18.4 0.6,18.1 C0.3,17.9 0.2,17.7 0.2,17.5 L0.2,1 C0.2,1.2 0.3,1.4 0.6,1.6 C1.2,1.9 2,1.9 2.6,1.6 C2.9,1.4 3,1.2 3,1 Z" id="Cylinder_body_6_" fill="url(#linearGradient-2)"></path>
                            </g>
                        </g>
                        <g>
                            <g id="Axonometric_Cylinder_22_" transform="translate(29.000000, 23.000000)">
                                <path d="M2.6,1.7 C2,2 1.2,2 0.6,1.7 C0,1.4 0,0.9 0.6,0.5 C1.2,0.2 2,0.2 2.6,0.5 C3.2,0.9 3.2,1.4 2.6,1.7 Z" id="Cylinder_face_17_" fill="#F4F4F4"></path>
                                <path d="M3,1.1 L3,62.6 C3,62.8 2.9,63 2.6,63.2 C2,63.5 1.2,63.5 0.6,63.2 C0.3,63 0.2,62.8 0.2,62.6 L0.2,1.1 C0.2,1.3 0.3,1.5 0.6,1.7 C1.2,2 2,2 2.6,1.7 C2.9,1.5 3,1.3 3,1.1 Z" id="Cylinder_body_5_" fill="url(#linearGradient-3)"></path>
                            </g>
                            <path d="M32,24.7 L32,24.1 C32,24.3 31.9,24.5 31.6,24.7 C31,25 30.2,25 29.6,24.7 C29.3,24.5 29.2,24.3 29.2,24.1 L29.2,29.4 C29.5,27.7 29.9,25.9 32,24.7 Z" id="Path" fill="#3B3B3F" opacity="0.3"></path>
                            <g transform="translate(21.000000, 16.000000)" id="Path">
                                <polygon fill="#C2C4C4" points="16.6 4.7 14.4 3.4 14.4 1.7 16.6 3"></polygon>
                                <polygon fill="#F4F4F4" points="16.6 3 14.4 1.7 16.9 0.2 19.1 1.5"></polygon>
                                <polygon fill="#F4F4F4" points="4.7 11.6 2.5 10.3 14.4 3.4 16.6 4.7"></polygon>
                                <polygon fill="#F4F4F4" points="2.2 11.3 0 10 2.5 8.5 4.7 9.8"></polygon>
                                <polygon fill="#C2C4C4" points="2.2 14.2 0 12.9 0 10 2.2 11.3"></polygon>
                                <polygon fill="#D7D9D9" points="19.1 1.5 19.1 4.4 2.2 14.2 2.2 11.3 4.7 9.8 4.7 11.6 16.6 4.7 16.6 3"></polygon>
                            </g>
                            <g opacity="0.5" transform="translate(27.000000, 22.000000)" fill="#3B3B3F" id="Path">
                                <polygon opacity="0.7" points="3.1 2 2.6 0.8 0.6 2"></polygon>
                            </g>
                            <g transform="translate(0.000000, 9.000000)">
                                <g transform="translate(22.000000, 13.000000)">
                                    <path d="M2.2,3.3 C1.7,3 1,3 0.5,3.3 C0,3.6 0,4 0.5,4.3 C1,4.6 1.7,4.6 2.2,4.3 C2.7,4.1 2.7,3.6 2.2,3.3 Z M1.7,4.1 C1.5,4.2 1.1,4.2 0.9,4.1 C0.7,4 0.7,3.7 0.9,3.6 C1.1,3.5 1.5,3.5 1.7,3.6 C2,3.7 2,4 1.7,4.1 Z" id="Shape" fill="#D6CEBD"></path>
                                    <path d="M2.2,2.7 C1.7,2.4 1,2.4 0.5,2.7 C0,3 0,3.4 0.5,3.7 C1,4 1.7,4 2.2,3.7 C2.7,3.5 2.7,3 2.2,2.7 Z M1.8,3.5 C1.6,3.6 1.2,3.6 1,3.5 C0.8,3.4 0.8,3.1 1,3 C1.2,2.9 1.6,2.9 1.8,3 C2,3.1 2,3.3 1.8,3.5 Z" id="Shape" fill="#D6CEBD"></path>
                                    <path d="M2.2,2.7 C1.5,2.3 0.2,2.5 0.1,3.1 C-0.2,4 1.3,4.4 2.2,3.9 C2.2,3.9 2.2,3.9 2.2,3.9 L2.2,3.9 C2.3,3.8 2.6,3.7 2.6,3.3 C2.6,3 2.3,2.8 2.2,2.7 Z M2.2,3.7 C1.7,4 0.9,4 0.5,3.7 C0,3.4 0,3 0.5,2.7 C1,2.4 1.8,2.4 2.2,2.7 C2.7,3 2.7,3.5 2.2,3.7 Z" id="Shape" fill="#EFE9DC"></path>
                                    <path d="M2.2,2.1 C1.7,1.8 1,1.8 0.5,2.1 C0,2.4 0,2.8 0.5,3.1 C1,3.4 1.7,3.4 2.2,3.1 C2.7,2.9 2.7,2.4 2.2,2.1 Z M1.8,2.9 C1.6,3 1.2,3 1,2.9 C0.8,2.8 0.8,2.5 1,2.4 C1.2,2.3 1.6,2.3 1.8,2.4 C2,2.5 2,2.7 1.8,2.9 Z" id="Shape" fill="#D6CEBD"></path>
                                    <path d="M2.2,2.1 C1.5,1.7 0.2,1.9 0.1,2.5 C-0.2,3.4 1.3,3.8 2.2,3.3 C2.2,3.3 2.2,3.3 2.2,3.3 C2.3,3.2 2.6,3.1 2.6,2.7 C2.6,2.4 2.3,2.2 2.2,2.1 Z M2.2,3.1 C1.7,3.4 0.9,3.4 0.5,3.1 C0,2.8 0,2.4 0.5,2.1 C1,1.8 1.8,1.8 2.2,2.1 C2.7,2.4 2.7,2.9 2.2,3.1 Z" id="Shape" fill="#EFE9DC"></path>
                                    <path d="M2.2,1.5 C1.7,1.2 1,1.2 0.5,1.5 C0,1.8 0,2.2 0.5,2.5 C1,2.8 1.7,2.8 2.2,2.5 C2.7,2.3 2.7,1.8 2.2,1.5 Z M1.8,2.3 C1.6,2.4 1.2,2.4 1,2.3 C0.8,2.2 0.8,1.9 1,1.8 C1.2,1.7 1.6,1.7 1.8,1.8 C2,1.9 2,2.1 1.8,2.3 Z" id="Shape" fill="#D6CEBD"></path>
                                    <path d="M2.2,1.5 C1.5,1.1 0.2,1.3 0.1,1.9 C-0.2,2.8 1.3,3.2 2.2,2.7 C2.2,2.7 2.2,2.7 2.2,2.7 C2.3,2.6 2.6,2.5 2.6,2.1 C2.6,1.8 2.3,1.6 2.2,1.5 Z M2.2,2.5 L2.2,2.5 C1.7,2.8 0.9,2.8 0.5,2.5 C0,2.2 0,1.8 0.5,1.5 C1,1.2 1.8,1.2 2.2,1.5 C2.7,1.8 2.7,2.3 2.2,2.5 Z" id="Shape" fill="#EFE9DC"></path>
                                    <path d="M1.8,0.9 C1.6,0.8 1.2,0.8 1,0.9 C0.8,1 0.8,1.2 1,1.4 C1.2,1.5 1.6,1.5 1.8,1.4 C2,1.3 2,1.1 1.8,0.9 Z" id="Path" fill="#EFE9DC"></path>
                                    <path d="M2.2,0.9 C1.7,0.6 0.9,0.6 0.4,0.9 C-0.1,1.2 -0.1,1.6 0.4,1.9 C0.7,2.1 1.2,2.2 1.6,2.1 C1.7,2.1 1.8,2.1 2,2 C2.1,2 2.1,1.9 2.2,1.9 C2.7,1.6 2.7,1.2 2.2,0.9 Z M1.8,1.4 L1.8,1.4 C1.7,1.4 1.7,1.5 1.8,1.4 C1.7,1.5 1.6,1.5 1.5,1.5 C1.3,1.5 1.1,1.5 0.9,1.4 C0.7,1.3 0.7,1 0.9,0.9 C1.1,0.8 1.5,0.8 1.7,0.9 C2,1.1 2,1.3 1.8,1.4 Z" id="Shape" fill="#F9F4ED"></path>
                                    <path d="M2.2,0.9 L2.2,0.9 C1.5,0.5 0.3,0.7 0.1,1.3 C0.1,1.4 -0.1,2 0.6,2.2 C1,2.4 1.6,2.4 2.2,2.1 C2.2,2.1 2.2,2.1 2.2,2.1 L2.2,2.1 C2.3,2 2.6,1.9 2.6,1.5 C2.6,1.2 2.4,1 2.2,0.9 Z M2.2,1.9 C1.7,2.2 0.9,2.2 0.5,1.9 C0,1.6 0,1.2 0.5,0.9 C1,0.6 1.8,0.6 2.3,0.9 C2.7,1.2 2.7,1.6 2.2,1.9 Z" id="Shape" fill="#EFE9DC"></path>
                                    <path d="M1.7,1.5 C1.6,1.5 1.6,1.5 1.5,1.5 L1.7,2.1 C1.8,2.1 1.9,2.1 2.1,2 L1.7,1.5 Z" id="Path" fill="#FFFFFF"></path>
                                </g>
                                <path d="M40,23.4 C40,23.4 40,23.4 40,23.4 L23.6,14 L23.6,14.3 C23.6,14.4 23.5,14.5 23.4,14.5 C23.3,14.5 23.2,14.4 23.2,14.3 L23.2,13.8 C23.2,13.7 23.2,13.7 23.3,13.7 C23.3,13.7 23.4,13.7 23.5,13.7 L40,23.2 C40.1,23.2 40.1,23.3 40.1,23.4 C40.1,23.3 40.1,23.4 40,23.4 Z" id="Path" fill="#515151"></path>
                                <path d="M23.2,14.2 C23.1,14.2 23,14.1 23,14 L23,13.6 L0.3,0.5 C0.2,0.5 0.2,0.4 0.2,0.3 C0.2,0.2 0.3,0.2 0.4,0.2 L23.2,13.4 C23.2,13.4 23.3,13.5 23.3,13.5 L23.3,14 C23.4,14.1 23.3,14.2 23.2,14.2 Z" id="Path" fill="#515151"></path>
                            </g>
                            <g transform="translate(14.000000, 0.000000)">
                                <g transform="translate(22.000000, 14.000000)">
                                    <path d="M2.6,3.1 C2.1,2.8 1.4,2.8 0.9,3.1 C0.4,3.4 0.4,3.8 0.9,4.1 C1.4,4.4 2.1,4.4 2.6,4.1 C3,3.8 3,3.3 2.6,3.1 Z M2.1,3.8 C1.9,3.9 1.5,3.9 1.3,3.8 C1.1,3.7 1.1,3.4 1.3,3.3 C1.5,3.2 1.9,3.2 2.1,3.3 C2.3,3.4 2.3,3.7 2.1,3.8 Z" id="Shape" fill="#D6CEBD"></path>
                                    <path d="M2.6,2.4 C2.1,2.1 1.4,2.1 0.9,2.4 C0.4,2.7 0.4,3.1 0.9,3.4 C1.4,3.7 2.1,3.7 2.6,3.4 C3,3.2 3,2.7 2.6,2.4 Z M2.1,3.2 C1.9,3.3 1.5,3.3 1.3,3.2 C1.1,3.1 1.1,2.8 1.3,2.7 C1.5,2.6 1.9,2.6 2.1,2.7 C2.4,2.8 2.3,3.1 2.1,3.2 Z" id="Shape" fill="#D6CEBD"></path>
                                    <path d="M2.6,2.4 C1.9,2 0.6,2.2 0.5,2.8 C0.2,3.7 1.7,4.1 2.6,3.6 C2.6,3.6 2.6,3.6 2.6,3.6 L2.6,3.6 C2.7,3.5 3,3.4 3,3 C3,2.7 2.7,2.5 2.6,2.4 Z M2.5,3.4 C2,3.7 1.2,3.7 0.8,3.4 C0.3,3.1 0.3,2.7 0.8,2.4 C1.3,2.1 2.1,2.1 2.5,2.4 C3,2.7 3,3.2 2.5,3.4 Z" id="Shape" fill="#EFE9DC"></path>
                                    <path d="M2.6,1.8 C2.1,1.5 1.4,1.5 0.9,1.8 C0.4,2.1 0.4,2.5 0.9,2.8 C1.4,3.1 2.1,3.1 2.6,2.8 C3,2.6 3,2.1 2.6,1.8 Z M2.1,2.6 C1.9,2.7 1.5,2.7 1.3,2.6 C1.1,2.5 1.1,2.2 1.3,2.1 C1.5,2 1.9,2 2.1,2.1 C2.4,2.2 2.3,2.4 2.1,2.6 Z" id="Shape" fill="#D6CEBD"></path>
                                    <path d="M2.6,1.8 C1.9,1.4 0.6,1.6 0.5,2.2 C0.2,3.1 1.7,3.5 2.6,3 C2.6,3 2.6,3 2.6,3 C2.7,2.9 3,2.8 3,2.4 C3,2.1 2.7,1.9 2.6,1.8 Z M2.6,2.8 C2.1,3.1 1.3,3.1 0.9,2.8 C0.4,2.5 0.4,2.1 0.9,1.8 C1.4,1.5 2.2,1.5 2.6,1.8 C3,2.1 3,2.6 2.6,2.8 Z" id="Shape" fill="#EFE9DC"></path>
                                    <path d="M2.6,1.2 C2.1,0.9 1.4,0.9 0.9,1.2 C0.4,1.5 0.4,1.9 0.9,2.2 C1.4,2.5 2.1,2.5 2.6,2.2 C3,2 3,1.5 2.6,1.2 Z M2.1,2 C1.9,2.1 1.5,2.1 1.3,2 C1.1,1.9 1.1,1.6 1.3,1.5 C1.5,1.4 1.9,1.4 2.1,1.5 C2.4,1.6 2.3,1.8 2.1,2 Z" id="Shape" fill="#D6CEBD"></path>
                                    <path d="M2.6,1.2 C1.9,0.8 0.6,1 0.5,1.6 C0.2,2.5 1.7,2.9 2.6,2.4 C2.6,2.4 2.6,2.4 2.6,2.4 C2.7,2.3 3,2.2 3,1.8 C3,1.5 2.7,1.3 2.6,1.2 Z M2.6,2.2 L2.6,2.2 C2.1,2.5 1.3,2.5 0.9,2.2 C0.4,1.9 0.4,1.5 0.9,1.2 C1.4,0.9 2.2,0.9 2.6,1.2 C3,1.5 3,2 2.6,2.2 Z" id="Shape" fill="#EFE9DC"></path>
                                    <path d="M2.1,0.6 C1.9,0.5 1.5,0.5 1.3,0.6 C1.1,0.7 1.1,0.9 1.3,1.1 C1.5,1.2 1.9,1.2 2.1,1.1 C2.4,1 2.4,0.8 2.1,0.6 Z" id="Path" fill="#EFE9DC"></path>
                                    <path d="M2.6,0.6 C2.1,0.3 1.3,0.3 0.9,0.6 C0.4,0.9 0.4,1.3 0.9,1.6 C1.2,1.8 1.7,1.9 2.1,1.8 C2.2,1.8 2.3,1.8 2.5,1.7 C2.6,1.7 2.6,1.6 2.7,1.6 C3.1,1.4 3.1,0.9 2.6,0.6 Z M2.1,1.1 L2.1,1.1 C2.1,1.1 2.1,1.2 2.1,1.1 C2,1.2 1.9,1.2 1.8,1.2 C1.6,1.2 1.4,1.2 1.2,1.1 C1,1 1,0.7 1.2,0.6 C1.4,0.5 1.8,0.5 2,0.6 C2.4,0.8 2.4,1 2.1,1.1 Z" id="Shape" fill="#F9F4ED"></path>
                                    <path d="M2.6,0.6 L2.6,0.6 C1.9,0.2 0.7,0.4 0.5,1 C0.5,1.1 0.3,1.7 1,1.9 C1.4,2.1 2,2.1 2.6,1.8 C2.6,1.8 2.6,1.8 2.6,1.8 L2.6,1.8 C2.7,1.7 3,1.6 3,1.2 C3,0.9 2.8,0.7 2.6,0.6 Z M2.6,1.6 C2.1,1.9 1.3,1.9 0.8,1.6 C0.3,1.3 0.3,0.9 0.8,0.6 C1.3,0.3 2.1,0.3 2.5,0.6 C3.1,0.9 3.1,1.4 2.6,1.6 Z" id="Shape" fill="#EFE9DC"></path>
                                    <path d="M2,1.2 C1.9,1.2 1.9,1.2 1.8,1.2 L2,1.8 C2.1,1.8 2.2,1.8 2.4,1.7 L2,1.2 Z" id="Path" fill="#FFFFFF"></path>
                                </g>
                                <path d="M40.4,24.1 C40.3,24.1 40.3,24.1 40.4,24.1 L24,14.7 L24,15 C24,15.1 23.9,15.2 23.8,15.2 C23.7,15.2 23.6,15.1 23.6,15 L23.6,14.5 C23.6,14.4 23.6,14.4 23.7,14.4 C23.7,14.4 23.8,14.4 23.9,14.4 L40.4,23.9 C40.5,23.9 40.5,24 40.5,24.1 C40.5,24 40.4,24.1 40.4,24.1 Z" id="Path" fill="#515151"></path>
                                <path d="M23.6,14.9 C23.5,14.9 23.4,14.8 23.4,14.7 L23.4,14.3 L0.7,1.2 C0.6,1.2 0.6,1.1 0.6,1 C0.6,0.9 0.7,0.9 0.8,0.9 L23.6,14.1 C23.6,14.1 23.7,14.2 23.7,14.2 L23.7,14.7 C23.7,14.8 23.7,14.9 23.6,14.9 Z" id="Path" fill="#515151"></path>
                            </g>
                            <g id="Axonometric_Cylinder_21_" transform="translate(29.000000, 5.000000)">
                                <path d="M2.6,2.4 C2,2.7 1.2,2.7 0.6,2.4 C0,2.1 0,1.6 0.6,1.2 C1.2,0.9 2,0.9 2.6,1.2 C3.2,1.6 3.2,2.1 2.6,2.4 Z" id="Cylinder_face_16_" fill="#F4F4F4"></path>
                                <path d="M3,1.8 L3,18.3 C3,18.5 2.9,18.7 2.6,18.9 C2,19.2 1.2,19.2 0.6,18.9 C0.3,18.7 0.2,18.5 0.2,18.3 L0.2,1.8 C0.2,2 0.3,2.2 0.6,2.4 C1.2,2.7 2,2.7 2.6,2.4 C2.9,2.2 3,2 3,1.8 Z" id="Cylinder_body_1_" fill="url(#linearGradient-4)"></path>
                            </g>
                        </g>
                    </g>
                </g>
            </g>
        </g>
    </g>
</svg>