<?xml version="1.0" encoding="UTF-8"?>
<svg width="70px" height="66px" viewBox="0 0 70 66" version="1.1" xmlns="http://www.w3.org/2000/svg" xmlns:xlink="http://www.w3.org/1999/xlink">
    <!-- Generator: Sketch 54.1 (76490) - https://sketchapp.com -->
    <title>10</title>
    <desc>Created with Sketch.</desc>
    <defs>
        <linearGradient x1="49.7271967%" y1="41.1679648%" x2="60.6196653%" y2="57.3604183%" id="linearGradient-1">
            <stop stop-color="#323236" offset="0%"></stop>
            <stop stop-color="#48484D" offset="100%"></stop>
        </linearGradient>
        <linearGradient x1="-0.316%" y1="49.6836158%" x2="99.9423333%" y2="49.6836158%" id="linearGradient-2">
            <stop stop-color="#27262A" offset="0%"></stop>
            <stop stop-color="#2F2F34" offset="59.63%"></stop>
            <stop stop-color="#37373D" offset="100%"></stop>
        </linearGradient>
        <linearGradient x1="41.0453333%" y1="10.4707416%" x2="56.9025925%" y2="142.450645%" id="linearGradient-3">
            <stop stop-color="#C4C4C4" offset="0%"></stop>
            <stop stop-color="#969696" offset="100%"></stop>
        </linearGradient>
        <linearGradient x1="81.2254665%" y1="44.7509744%" x2="19.5402948%" y2="53.7843541%" id="linearGradient-4">
            <stop stop-color="#A6A6A6" offset="0%"></stop>
            <stop stop-color="#969696" offset="100%"></stop>
        </linearGradient>
        <linearGradient x1="40.083241%" y1="101.281559%" x2="73.7038678%" y2="-34.436472%" id="linearGradient-5">
            <stop stop-color="#DFDFDF" offset="0%"></stop>
            <stop stop-color="#C4C4C4" offset="55.38%"></stop>
            <stop stop-color="#969696" offset="100%"></stop>
        </linearGradient>
        <linearGradient x1="83.8863328%" y1="107.465905%" x2="36.0201121%" y2="32.3766026%" id="linearGradient-6">
            <stop stop-color="#A6A6A6" offset="0%"></stop>
            <stop stop-color="#717171" offset="100%"></stop>
        </linearGradient>
    </defs>
    <g id="Page-1" stroke="none" stroke-width="1" fill="none" fill-rule="evenodd">
        <g id="19034-[преобразованный]" transform="translate(-217.000000, -228.000000)" fill-rule="nonzero">
            <g id="_x32_">
                <g id="10" transform="translate(217.100000, 228.000000)">
                    <polygon id="Path" fill="#0F5E70" points="67.5 49 62.3 46 63.5 45.3 35.4 29.1 1.42108547e-14 49.6 28 65.8 51.6 52.2 56.7 55.2"></polygon>
                    <g id="_x31_4" transform="translate(5.900000, 0.000000)">
                        <g id="Group">
                            <g id="Axonometric_Cube_30_" transform="translate(25.000000, 48.000000)">
                                <path d="M0.8,3 C0.6,3.1 0.5,3.2 0.3,3.4 L8.2,7.9 L8.2,7.2 L0.8,3 Z" id="Path" fill="#449995"></path>
                                <polygon id="Cube_face_-_right_71_" fill="#449995" points="11.9 5.8 8.2 7.9 8.2 7.3 11.9 5.1"></polygon>
                                <path d="M4.3,0.7 C3.1,1.4 2,2.2 0.9,3 L8.2,7.2 L11.9,5.1 L4.3,0.7 Z" id="Path" fill="#4FB2AA"></path>
                            </g>
                            <g id="Axonometric_Cube_31_" transform="translate(23.000000, 30.000000)">
                                <polygon id="Cube_face_-_left_71_" fill="#449995" points="25.5 16.5 0.8 2.2 0.8 2.9 25.5 17.1"></polygon>
                                <polygon id="Cube_face_-_right_72_" fill="#449995" points="29.2 15 25.5 17.1 25.5 16.5 29.2 14.3"></polygon>
                                <polygon id="Cube_face_-_top_71_" fill="#4FB2AA" points="25.5 16.5 0.8 2.2 4.5 0.1 29.2 14.3"></polygon>
                            </g>
                            <path d="M27.9,59 C27.5,59 27.1,58.9 26.7,58.7 C25.9,58.3 25.5,57.5 25.5,56.6 C25.5,56.2 25.8,55.9 26.2,55.9 C26.6,55.9 26.9,56.2 26.9,56.6 C26.9,57 27.1,57.3 27.4,57.5 C27.7,57.7 28.1,57.7 28.5,57.5 L52.6,43.6 C54.1,42.7 55,41.2 55,39.5 L55,18.4 C55,15.6 52.7,12 49.9,10.4 L36.1,2.4 C34.7,1.6 33.5,1.4 32.6,1.9 C31.8,2.4 31.6,3.4 31.6,4.1 L31.6,25.2 C31.6,27.4 30.4,29.4 28.5,30.5 L4.4,44.4 C3.7,44.8 2.8,44.8 2,44.4 C1.2,44 0.8,43.2 0.8,42.3 C0.8,41.9 1.1,41.6 1.5,41.6 C1.9,41.6 2.2,41.9 2.2,42.3 C2.2,42.7 2.4,43 2.7,43.2 C3,43.4 3.4,43.4 3.8,43.2 L27.9,29.3 C29.4,28.4 30.3,26.9 30.3,25.2 L30.3,4.1 C30.3,2.5 30.9,1.3 32,0.7 C33.3,-1.13686838e-13 35,0.2 36.8,1.2 L50.6,9.2 C53.8,11.1 56.4,15.1 56.4,18.4 L56.4,39.5 C56.4,41.7 55.2,43.7 53.3,44.8 L29.2,58.7 C28.7,58.9 28.3,59 27.9,59 Z" id="Path" fill="#4FB2AA"></path>
                            <g transform="translate(8.000000, 38.000000)" id="Path">
                                <path d="M14.9,11.4 C14.9,11.4 14.9,11.4 14.9,11.4 L0.5,3.1 L0.5,3.8 L14.3,11.8 C14.5,11.6 14.7,11.5 14.9,11.4 Z" fill="#449995"></path>
                                <path d="M18.3,9 L4.2,0.9 L0.5,3 L14.9,11.3 C16.1,10.6 17.2,9.8 18.3,9 Z" fill="#4FB2AA"></path>
                            </g>
                            <g id="Axonometric_Cube_34_" transform="translate(5.000000, 16.000000)">
                                <polygon id="Cube_face_-_left_152_" fill="#3B3B3F" points="8.6 33 0.7 28.5 0.7 13.8 8.6 18.3"></polygon>
                                <polygon id="Cube_face_-_right_154_" fill="#323236" points="31.7 19.7 8.6 33 8.6 18.3 31.7 5"></polygon>
                                <polygon id="Cube_face_-_top_152_" fill="#5F5F64" points="8.6 18.3 0.7 13.8 23.8 0.5 31.7 5"></polygon>
                            </g>
                            <g transform="translate(1.000000, 3.000000)" id="Path">
                                <polygon fill="#565757" points="1.1 26.7 0.3 26.2 0.3 17.5 1 17.9"></polygon>
                                <polygon fill="#5F5F64" points="1 17.9 0.3 17.5 29.2 0.8 29.9 1.3"></polygon>
                                <polygon fill="#48484D" points="29.9 1.3 29.9 10 1.1 26.7 1 17.9"></polygon>
                            </g>
                            <g id="Axonometric_Cylinder_7_" transform="translate(25.000000, 28.000000)">
                                <path d="M8.8,18.3 C8.8,21.1 6.8,22.2 4.4,20.8 C2,19.4 5.68434189e-14,16 5.68434189e-14,13.2 C5.68434189e-14,10.4 2,9.3 4.4,10.7 C6.9,12.1 8.8,15.5 8.8,18.3 Z" id="Cylinder_face_73_" fill="#B9BDBD"></path>
                                <path d="M1.3,10.4 L17.7,0.9 C18.5,0.4 19.6,0.5 20.8,1.2 C23.2,2.6 25.2,6 25.2,8.8 C25.2,10.2 24.7,11.2 23.9,11.6 L7.5,21.1 C8.3,20.6 8.8,19.7 8.8,18.3 C8.8,15.5 6.8,12.1 4.4,10.7 C3.2,10 2.1,9.9 1.3,10.4 Z" id="Cylinder_body_72_" fill="url(#linearGradient-1)"></path>
                            </g>
                            <polygon id="Path" fill="#D84C4B" opacity="0.8" points="49.2 37.6 31.4 47.9 31.4 48.2 49.2 37.9"></polygon>
                            <g transform="translate(14.000000, 34.000000)">
                                <g id="Path">
                                    <path d="M18.8,3.5 L13.9,0.7 C12.9,0.1 12.1,0.1 11.4,0.5 L1.6,6.2 C2.2,5.8 3.1,5.9 4.1,6.4 L9,9.2 C10.9,10.3 12.4,13 12.4,15.2 L12.4,18.9 C12.4,20 12,20.8 11.4,21.1 L21.2,15.4 C21.8,15 22.2,14.3 22.2,13.2 L22.2,9.5 C22.3,7.2 20.8,4.6 18.8,3.5 Z" fill="#CFD2D2"></path>
                                    <path d="M9,9.2 C10.9,10.3 12.4,13 12.4,15.2 L12.4,18.9 C12.4,21.1 10.8,22 8.9,20.9 L4,18.1 C2.1,17 0.6,14.3 0.6,12.1 L0.6,8.4 C0.6,6.2 2.2,5.3 4.1,6.4 L9,9.2 Z" fill="#B9BDBD"></path>
                                </g>
                                <path d="M18.8,3.5 L13.9,0.7 C12.9,0.1 12.1,0.1 11.4,0.5 L1.6,6.2 C2.2,5.8 3.1,5.9 4.1,6.4 L9,9.2 C10,9.8 10.9,10.8 11.5,11.9 L21.3,6.2 C20.8,5.1 19.9,4 18.8,3.5 Z" id="Path" fill="#838585" opacity="0.6"></path>
                                <g transform="translate(3.000000, 7.000000)" fill="#B9BDBD" id="Shape" opacity="0.5">
                                    <path d="M6.7,4.9 L0.1,1.1 L0.1,0.7 L6.7,4.5 L6.7,4.9 Z M6.7,5.3 L0.1,1.5 L0.1,1.9 L6.7,5.7 L6.7,5.3 Z M6.7,6 L0.1,2.2 L0.1,2.6 L6.7,6.4 L6.7,6 Z M6.7,6.7 L0.1,2.9 L0.1,3.3 L6.7,7.1 L6.7,6.7 Z"></path>
                                    <path d="M6.7,9.7 L0.1,5.9 L0.1,6.3 L6.7,10.1 L6.7,9.7 Z M6.7,10.4 L0.1,6.6 L0.1,7 L6.7,10.8 L6.7,10.4 Z M6.7,11.2 L0.1,7.4 L0.1,7.8 L6.7,11.6 L6.7,11.2 Z M6.7,11.9 L0.1,8.1 L0.1,8.5 L6.7,12.3 L6.7,11.9 Z"></path>
                                </g>
                            </g>
                            <g id="_x34__2_" transform="translate(3.000000, 4.000000)">
                                <g id="Group" transform="translate(29.000000, 0.000000)">
                                    <polygon id="Path" fill="#CFD2D2" points="6.1 4.1 7.4 3.3 7.4 3.8 6.1 4.6"></polygon>
                                    <path d="M2.5,0.5 C2.3,0.4 2,0.3 1.9,0.4 L0.5,1.2 C0.7,1.1 0.9,1.1 1.1,1.3 L6,4.2 L7.4,3.4 L2.5,0.5 Z" id="Path" fill="#F4F4F4"></path>
                                    <polygon id="Path" fill="#CCCFCE" points="6.1 4.6 7.4 3.8 8.1 4.2 6.7 5"></polygon>
                                    <polygon id="Path" fill="#F4F4F4" points="6.8 4.5 8.1 3.7 8.8 4.1 7.4 4.9"></polygon>
                                    <polygon id="Path" fill="#CFD2D2" points="7.4 4.9 8.8 4.1 8.8 4.6 7.4 5.4"></polygon>
                                    <polygon id="Path" fill="#CCCFCE" points="7.4 5.4 8.8 4.6 9.4 5 8.1 5.8"></polygon>
                                    <polygon id="Path" fill="#CFD2D2" points="12.7 8 14.1 7.2 14.1 7.7 12.7 8.5"></polygon>
                                    <polygon id="Path" fill="#CCCFCE" points="12.7 8.5 14.1 7.7 14.8 8.1 13.4 8.9"></polygon>
                                    <polygon id="Path" fill="#F4F4F4" points="13.4 8.3 14.8 7.6 15.4 7.9 14.1 8.7"></polygon>
                                    <polygon id="Path" fill="#CFD2D2" points="14.1 8.7 15.4 7.9 15.4 8.4 14.1 9.2"></polygon>
                                    <polygon id="Path" fill="#CCCFCE" points="14.1 9.2 15.4 8.4 16.1 8.8 14.7 9.6"></polygon>
                                    <path d="M20.8,13.6 L20.8,19.8 C20.8,20.1 20.7,20.3 20.5,20.4 L21.9,19.6 C22.1,19.5 22.2,19.3 22.2,19 L22.2,12.8 L20.8,13.6 Z" id="Path" fill="#CFD2D2"></path>
                                    <polygon id="Path" fill="#F4F4F4" points="14.7 9.1 16.1 8.3 21.3 11.3 19.9 12.1"></polygon>
                                    <path d="M22,12.2 C21.9,12 21.8,11.8 21.7,11.7 C21.6,11.6 21.5,11.5 21.3,11.4 L19.9,12.2 C20,12.3 20.2,12.4 20.3,12.5 C20.4,12.7 20.6,12.8 20.6,13 C20.7,13.2 20.8,13.4 20.8,13.7 L22.2,12.9 C22.1,12.6 22.1,12.4 22,12.2 Z" id="Path" fill="#CFD2D2"></path>
                                </g>
                                <g id="Group" transform="translate(2.000000, 1.000000)">
                                    <polygon id="Path" fill="#CFD2D2" points="6 18.7 33.1 3.1 33.1 3.6 6 19.2"></polygon>
                                    <path d="M28.2,0.2 C28,0.1 27.7,0 27.6,0.1 L0.5,15.7 C0.7,15.6 0.9,15.6 1.1,15.8 L6,18.6 L33.1,3 L28.2,0.2 Z" id="Path" fill="#5F5F64"></path>
                                    <polygon id="Path" fill="#CCCFCE" points="6 19.2 33.1 3.6 33.8 4 6.7 19.6"></polygon>
                                    <polygon id="Path" fill="#F4F4F4" points="6.7 19.1 33.8 3.5 34.5 3.9 7.4 19.5"></polygon>
                                    <polygon id="Path" fill="#CFD2D2" points="7.4 19.5 34.5 3.9 34.5 4.4 7.4 20"></polygon>
                                    <polygon id="Path" fill="#CCCFCE" points="7.4 20 34.5 4.4 35.1 4.8 8 20.4"></polygon>
                                    <polygon id="Path" fill="#CFD2D2" points="12.7 22.6 39.8 6.9 39.8 7.4 12.7 23.1"></polygon>
                                    <polygon id="Path" fill="#CCCFCE" points="12.7 23.1 39.8 7.4 40.5 7.8 13.4 23.5"></polygon>
                                    <polygon id="Path" fill="#F4F4F4" points="13.4 23 40.5 7.3 41.1 7.7 14 23.3"></polygon>
                                    <polygon id="Path" fill="#CFD2D2" points="14 23.3 41.1 7.7 41.1 8.2 14 23.8"></polygon>
                                    <polygon id="Path" fill="#CCCFCE" points="14 23.8 41.1 8.2 41.8 8.6 14.7 24.2"></polygon>
                                    <path d="M20.7,28.2 L20.7,34.4 C20.7,34.7 20.6,34.9 20.4,35 L47.5,19.4 C47.7,19.3 47.8,19.1 47.8,18.8 L47.8,12.6 L20.7,28.2 Z" id="Path" fill="#48484D"></path>
                                    <polygon id="Path" fill="#5F5F64" points="14.7 23.7 41.8 8.1 47 11.1 19.9 26.7"></polygon>
                                    <path d="M47.7,11.9 C47.6,11.7 47.5,11.5 47.4,11.4 C47.3,11.3 47.2,11.2 47,11.1 L19.9,26.7 C20,26.8 20.2,26.9 20.3,27 C20.4,27.2 20.6,27.3 20.6,27.5 C20.7,27.7 20.8,28 20.8,28.2 L47.9,12.6 C47.8,12.4 47.8,12.2 47.7,11.9 Z" id="Path" fill="#5F5F64"></path>
                                </g>
                                <g id="Group" transform="translate(0.000000, 4.000000)">
                                    <polygon id="Path" fill="#CFD2D2" points="6.7 16.5 8 15.7 8 16.2 6.7 17"></polygon>
                                    <path d="M3.1,12.9 C2.9,12.8 2.6,12.7 2.5,12.8 L1.1,13.6 C1.3,13.5 1.5,13.5 1.7,13.7 L6.6,16.6 L8,15.8 L3.1,12.9 Z" id="Path" fill="#F4F4F4"></path>
                                    <polygon id="Path" fill="#CCCFCE" points="6.7 17 8 16.2 8.7 16.6 7.4 17.4"></polygon>
                                    <polygon id="Path" fill="#F4F4F4" points="7.4 16.9 8.7 16.1 9.4 16.5 8 17.3"></polygon>
                                    <polygon id="Path" fill="#CFD2D2" points="8 17.3 9.4 16.5 9.4 17 8 17.8"></polygon>
                                    <polygon id="Path" fill="#CCCFCE" points="8 17.8 9.4 17 10 17.4 8.7 18.2"></polygon>
                                    <path d="M43.1,3.2 C42.2,2.7 38.4,0.5 38.4,0.5 L8.7,17.7 L13.4,20.4 L43.1,3.2 Z" id="Path" fill="#F4F4F4"></path>
                                    <polygon id="Path" fill="#CFD2D2" points="13.3 20.3 14.7 19.6 14.7 20.1 13.3 20.9"></polygon>
                                    <polygon id="Path" fill="#CCCFCE" points="13.3 20.9 14.7 20.1 15.4 20.5 14 21.2"></polygon>
                                    <polygon id="Path" fill="#F4F4F4" points="14 20.7 15.4 19.9 16 20.3 14.7 21.1"></polygon>
                                    <polygon id="Path" fill="#CFD2D2" points="14.7 21.1 16 20.3 16 20.8 14.7 21.6"></polygon>
                                    <polygon id="Path" fill="#CCCFCE" points="14.7 21.6 16 20.8 16.7 21.2 15.3 22"></polygon>
                                    <path d="M21.4,26 L21.4,32.2 C21.4,32.5 21.3,32.7 21.1,32.8 L22.5,32 C22.7,31.9 22.8,31.7 22.8,31.4 L22.8,25.2 L21.4,26 Z" id="Path" fill="#CFD2D2"></path>
                                    <polygon id="Path" fill="#F4F4F4" points="15.3 21.5 16.7 20.7 21.9 23.7 20.5 24.5"></polygon>
                                    <path d="M20.5,24.5 C21,24.8 21.4,25.5 21.4,26 L21.4,32.2 C21.4,32.8 21,33 20.5,32.7 L1.7,21.9 C1.2,21.6 0.8,20.9 0.8,20.4 L0.8,14.2 C0.8,13.6 1.2,13.4 1.7,13.7 L6.6,16.6 L6.6,17.1 L7.3,17.5 L7.3,17 L8,17.4 L8,17.9 L8.7,18.3 L8.7,17.8 L13.4,20.5 L13.4,21 L14.1,21.4 L14.1,20.9 L14.8,21.3 L14.8,21.8 L15.5,22.2 L15.5,21.7 L20.5,24.5 Z" id="Path" fill="#B9BDBD"></path>
                                    <path d="M22.6,24.6 C22.5,24.4 22.4,24.2 22.3,24.1 C22.2,24 22.1,23.9 21.9,23.8 L20.5,24.6 C20.6,24.7 20.8,24.8 20.9,24.9 C21,25.1 21.2,25.2 21.2,25.4 C21.3,25.6 21.4,25.8 21.4,26.1 L22.8,25.3 C22.8,25 22.7,24.8 22.6,24.6 Z" id="Path" fill="#CFD2D2"></path>
                                </g>
                                <path d="M51,12.2 C50.9,12 50.8,11.8 50.7,11.7 L21,28.9 C21.1,29.1 21.3,29.2 21.3,29.4 L51,12.2 Z" id="Path" fill="url(#linearGradient-2)"></path>
                            </g>
                            <g transform="translate(25.000000, 18.000000)" id="Path">
                                <polygon fill="#565757" points="1.7 25.9 1 25.5 1 16.8 1.7 17.2"></polygon>
                                <polygon fill="#5F5F64" points="1.7 17.2 1 16.8 29.9 0.1 30.6 0.5"></polygon>
                                <g transform="translate(1.000000, 0.000000)">
                                    <polygon fill="#48484D" points="29.6 0.5 29.6 9.2 0.7 25.9 0.7 17.2"></polygon>
                                    <polygon fill="#CFD2D2" points="1.6 17.3 22.5 5.3 22.5 11.7 1.6 23.7"></polygon>
                                </g>
                            </g>
                            <path d="M26.2,57.2 C25.8,57.2 25.5,56.9 25.5,56.5 L25.5,35.2 C25.5,32.4 23.2,28.8 20.4,27.2 L6.6,19.2 C5.2,18.4 4,18.2 3.1,18.7 C2.3,19.2 2.1,20.2 2.1,20.9 L2.1,42.2 C2.1,42.6 1.8,42.9 1.4,42.9 C1,42.9 0.7,42.6 0.7,42.2 L0.7,21 C0.7,19.4 1.3,18.2 2.4,17.6 C3.7,16.9 5.4,17.1 7.2,18.1 L21,26.1 C24.2,28 26.8,32 26.8,35.3 L26.8,56.6 C26.8,56.9 26.5,57.2 26.2,57.2 Z" id="Path" fill="#4FB2AA"></path>
                            <g transform="translate(28.000000, 25.000000)">
                                <g transform="translate(16.000000, 0.000000)" id="Path">
                                    <path d="M2.5,2.1 L3,2.4 C2.9,2.3 2.7,2.3 2.5,2.3 L2,2 C2.3,2 2.4,2 2.5,2.1 Z" fill="#449995"></path>
                                    <path d="M1.4,5.3 L0.9,5 C0.8,4.9 0.6,4.8 0.6,4.6 C0.4,3.9 0.8,3 1.4,2.5 L1.9,2.8 C1.3,3.3 0.9,4.3 1.1,4.9 C1.1,5.1 1.2,5.2 1.4,5.3 Z" fill="#449995"></path>
                                    <path d="M2,0.7 L2.5,1 C2.5,1 2.4,1 2.4,1 L2,0.7 C2,0.6 2,0.6 2,0.7 Z" fill="#449995"></path>
                                    <polygon fill="#449995" points="1.9 2.7 1.3 2.4 1.3 1.2 1.9 1.5"></polygon>
                                    <polygon fill="#449995" points="2 1.3 1.5 1 2 0.7 2.5 1"></polygon>
                                    <path d="M1.9,1.5 L1.4,1.2 C1.4,1.1 1.5,1 1.5,1 L2,1.3 C1.9,1.3 1.9,1.4 1.9,1.5 Z" fill="#449995"></path>
                                    <path d="M2.5,1 C2.6,1 2.6,1 2.6,1.1 L2.6,2.4 C3.1,2.3 3.4,2.6 3.4,3.2 C3.4,4 2.9,4.9 2.2,5.3 C2.1,5.4 2,5.4 1.9,5.4 C1.5,5.5 1.2,5.3 1.1,4.9 C0.9,4.2 1.3,3.3 1.9,2.8 L1.9,1.6 C1.9,1.5 2,1.4 2,1.4 L2.5,1 Z" fill="#4FB2AA"></path>
                                </g>
                                <g transform="translate(13.000000, 2.000000)" id="Path">
                                    <path d="M2,2.1 L2.5,2.4 C2.4,2.3 2.2,2.3 2,2.3 L1.5,2 C1.8,2 1.9,2 2,2.1 Z" fill="#449995"></path>
                                    <path d="M0.9,5.3 L0.4,5 C0.3,4.9 0.1,4.8 0.1,4.6 C-0.1,3.9 0.3,3 0.9,2.5 L1.4,2.8 C0.8,3.3 0.4,4.3 0.6,4.9 C0.6,5.1 0.7,5.2 0.9,5.3 Z" fill="#449995"></path>
                                    <path d="M1.5,0.7 L2,1 C2,1 1.9,1 1.9,1 L1.5,0.7 C1.5,0.7 1.5,0.7 1.5,0.7 Z" fill="#449995"></path>
                                    <polygon fill="#449995" points="1.4 2.8 0.8 2.4 0.8 1.2 1.4 1.5"></polygon>
                                    <polygon fill="#449995" points="1.5 1.3 0.9 1 1.5 0.7 2 1"></polygon>
                                    <path d="M1.4,1.5 L0.9,1.2 C0.9,1.1 1,1 1,1 L1.5,1.3 C1.4,1.3 1.4,1.4 1.4,1.5 Z" fill="#449995"></path>
                                    <path d="M2,1 C2.1,1 2.1,1 2.1,1.1 L2.1,2.4 C2.6,2.3 2.9,2.6 2.9,3.2 C2.9,4 2.4,4.9 1.7,5.3 C1.6,5.4 1.5,5.4 1.4,5.4 C1,5.5 0.7,5.3 0.6,4.9 C0.4,4.2 0.8,3.3 1.4,2.8 L1.4,1.6 C1.4,1.5 1.5,1.4 1.5,1.4 L2,1 Z" fill="#4FB2AA"></path>
                                </g>
                                <g transform="translate(9.000000, 6.000000)" id="Path">
                                    <polygon fill="#48484D" points="0.7 1.4 0.7 3.7 1.9 3 1.9 0.8"></polygon>
                                    <g>
                                        <polygon fill="#D84C4B" points="1.1 1.7 2.1 1.2 2.5 3 1.6 3.5"></polygon>
                                        <polygon fill="#ED6464" points="0.9 1.6 1.8 1 2.1 1.2 1.1 1.7"></polygon>
                                        <polygon fill="#9A3737" points="1.1 1.7 1.6 3.5 0.9 3.5 0.9 1.6"></polygon>
                                    </g>
                                </g>
                                <g transform="translate(7.000000, 8.000000)" id="Path">
                                    <polygon fill="#48484D" points="0.1 1 0.1 3.2 1.2 2.6 1.2 0.3"></polygon>
                                    <g>
                                        <polygon fill="#D84C4B" points="0.5 1.2 1.4 0.7 1.9 2.5 1 3.1"></polygon>
                                        <polygon fill="#ED6464" points="0.2 1.1 1.1 0.5 1.4 0.7 0.5 1.2"></polygon>
                                        <polygon fill="#9A3737" points="0.5 1.2 1 3.1 0.2 3 0.2 1.1"></polygon>
                                    </g>
                                </g>
                                <g transform="translate(4.000000, 9.000000)" id="Path">
                                    <polygon fill="#48484D" points="0.5 1.5 0.5 3.7 1.6 3.1 1.6 0.8"></polygon>
                                    <g>
                                        <polygon fill="#D84C4B" points="0.9 1.8 1.8 1.2 2.2 3 1.3 3.6"></polygon>
                                        <polygon fill="#ED6464" points="0.6 1.6 1.5 1.1 1.8 1.2 0.9 1.8"></polygon>
                                        <polygon fill="#9A3737" points="0.9 1.8 1.3 3.6 0.6 3.5 0.6 1.6"></polygon>
                                    </g>
                                </g>
                                <g transform="translate(1.000000, 11.000000)" id="Path">
                                    <polygon fill="#48484D" points="0.8 1 0.8 3.3 2 2.6 2 0.3"></polygon>
                                    <g>
                                        <polygon fill="#D84C4B" points="1.2 1.3 2.2 0.8 2.6 2.6 1.7 3.1"></polygon>
                                        <polygon fill="#ED6464" points="0.9 1.1 1.9 0.6 2.2 0.8 1.2 1.3"></polygon>
                                        <polygon fill="#9A3737" points="1.2 1.3 1.7 3.1 0.9 3 0.9 1.1"></polygon>
                                    </g>
                                </g>
                                <path d="M12.3,4.2 L0.3,11.1 L0.3,10.9 L12.3,4 L12.3,4.2 Z M12.3,4.7 L0.3,11.6 L0.3,11.8 L12.3,4.9 L12.3,4.7 Z" id="Shape" fill="#48484D"></path>
                            </g>
                        </g>
                        <g id="Group" transform="translate(48.000000, 34.000000)">
                            <g id="Path">
                                <path d="M1.9,6.8 C2.5,5.5 3.3,4.3 4.2,3.2 C5,2.3 5.9,1.6 6.8,1 C8.4,0.1 9.9,0 11,0.6 L14.2,2.5 C13.1,1.9 11.6,2 10,2.9 C9.1,3.4 8.2,4.2 7.4,5.1 C6.5,6.2 5.7,7.4 5.1,8.7 C4.5,10.2 4.1,11.7 4.1,13.1 C4.1,15 4.8,16.3 5.8,16.9 L2.6,15 C1.5,14.4 0.9,13.1 0.9,11.2 C0.9,9.8 1.2,8.3 1.9,6.8 Z" fill="#625E5C"></path>
                                <path d="M4.1,13.1 C4.1,11.7 4.5,10.1 5.1,8.7 L1.9,6.8 C1.3,8.3 0.9,9.8 0.9,11.2 C0.9,13.1 1.6,14.4 2.6,15 L5.8,16.9 C4.8,16.3 4.1,15 4.1,13.1 Z" fill="#2B2927" opacity="0.8"></path>
                                <path d="M10,3 C13.3,1.1 15.9,2.6 15.9,6.4 C15.9,10.1 13.3,14.7 10,16.6 C6.7,18.5 4.1,17 4.1,13.2 C4.1,9.4 6.7,4.8 10,3 Z" fill="#494644"></path>
                            </g>
                            <path d="M10,4.9 C12.3,3.6 14.2,4.6 14.2,7.3 C14.2,10 12.3,13.3 10,14.6 C7.7,15.9 5.8,14.9 5.8,12.2 C5.8,9.5 7.7,6.2 10,4.9 Z" id="Path" fill="#232221" opacity="0.5"></path>
                            <g transform="translate(5.000000, 4.000000)">
                                <g>
                                    <path d="M5.3,3.9 L5.3,4.1 C5.3,5 4.7,6.1 4,6.5 C4,6.5 4,6.5 4,6.5 L3.8,6.6 C3.8,6.6 3.8,6.6 3.8,6.6 C4.7,6.1 5.4,4.9 5.3,3.9 L5.3,3.9 Z" id="Path" fill="#DFDFDF"></path>
                                    <path d="M4,2.9 L4.2,3.2 C4.9,2.9 5.4,3.3 5.4,4.1 L5.4,3.9 C5.3,3 4.8,2.6 4,2.9 L4,2.9 Z" id="Path" fill="#C4C4C4"></path>
                                    <g transform="translate(2.000000, 2.000000)" id="Path">
                                        <path d="M1.8,4.7 L2,4.6 C1.2,5 0.6,4.7 0.6,3.8 C0.6,3.4 0.7,3 0.9,2.6 L0.6,2.4 C0.4,2.8 0.3,3.3 0.3,3.8 C0.2,4.8 0.9,5.2 1.8,4.7 L1.8,4.7 Z" fill="url(#linearGradient-3)"></path>
                                        <path d="M1.7,1 C1.8,0.9 1.9,0.9 2,0.9 L2.2,1.2 C2.1,1.2 2,1.3 2,1.3 C1.6,1.6 1.2,2 0.9,2.5 L0.6,2.3 C0.8,1.9 1.2,1.3 1.7,1 Z" fill="#DFDFDF"></path>
                                    </g>
                                    <path d="M3.9,3.4 C3.1,3.9 2.5,4.9 2.6,5.8 C2.6,6.7 3.3,7 4,6.6 C4.8,6.1 5.4,5.1 5.3,4.2 C5.2,3.3 4.7,2.9 3.9,3.4 Z" id="Path" fill="url(#linearGradient-4)"></path>
                                    <path d="M6.6,0.7 L5.7,0.7 C5.7,0.7 5.5,0.7 5.6,0.8 C6.4,1 6.9,1.8 6.9,2.9 C6.9,4.9 5.6,7.4 3.8,8.4 C2.7,9 1.8,9 1.2,8.4 C1.1,8.3 1.3,8.7 1.3,8.7 L1.7,9.3 C2.3,10.4 3.6,10.7 5.1,9.7 C7.2,8.5 8.8,5.5 8.7,3.1 C8.7,1.6 7.8,0.7 6.6,0.7 L6.6,0.7 Z" id="Path" fill="url(#linearGradient-5)"></path>
                                    <path d="M9,3.2 C9.1,5.7 7.3,8.8 5.1,10.2 C2.9,11.5 1.1,10.5 1,8 C0.9,5.5 2.7,2.4 4.9,1 C7.1,-0.3 8.9,0.6 9,3.2 Z M4.9,1.2 C2.8,2.4 1.2,5.4 1.3,7.8 C1.4,10.2 3.1,11.1 5.1,9.9 C7.2,8.7 8.8,5.7 8.7,3.3 C8.7,0.9 7,-4.4408921e-16 4.9,1.2 L4.9,1.2 Z" id="Shape" fill="#A3A3A3"></path>
                                </g>
                                <path d="M1.4,8.6 C2,9.1 2.9,9 3.9,8.5 C5.6,7.5 7,5 7,3 C7,1.9 6.5,1.2 5.9,0.9 C5.6,1 5.3,1.1 5.1,1.3 C3,2.5 1.4,5.5 1.5,7.9 C1.3,8.1 1.3,8.4 1.4,8.6 Z M2.2,5.8 C2.2,4.8 2.9,3.6 3.7,3 C4.6,2.5 5.3,2.9 5.3,3.9 C5.3,4.9 4.6,6.1 3.8,6.7 C2.9,7.2 2.2,6.8 2.2,5.8 Z" id="Shape" fill="url(#linearGradient-6)"></path>
                            </g>
                        </g>
                        <path d="M26.2,50.3 L2.1,36.4 C1.9,36.3 1.7,36.4 1.5,36.5 C1.4,36.7 1.5,36.9 1.6,37.1 L25.7,51 C25.8,51 25.8,51.1 25.9,51.1 C26,51.1 26.2,51 26.2,50.9 C26.5,50.7 26.4,50.4 26.2,50.3 Z" id="Path" fill="#4FB2AA"></path>
                        <g id="Group" transform="translate(24.000000, 5.000000)">
                            <g id="Axonometric_Cylinder_9_" transform="translate(1.000000, 1.000000)">
                                <path d="M5,3.2 C4,3.8 2.3,3.8 1.2,3.2 C0.2,2.6 0.2,1.6 1.2,1 C2.2,0.4 3.9,0.4 5,1 C6.1,1.6 6.1,2.6 5,3.2 Z" id="Cylinder_face_138_" fill="#5F5F64"></path>
                                <path d="M5.8,2.1 L5.8,4.6 C5.8,5 5.5,5.4 5,5.7 C4,6.3 2.3,6.3 1.2,5.7 C0.7,5.4 0.4,5 0.4,4.6 L0.4,2.1 C0.4,2.5 0.7,2.9 1.2,3.2 C2.2,3.8 3.9,3.8 5,3.2 C5.5,2.9 5.8,2.5 5.8,2.1 Z" id="Cylinder_body_134_" fill="#48484D"></path>
                            </g>
                            <g id="Path">
                                <path d="M7.4,2.3 C7.4,2.5 7,2.6 7,3 L7,3.9 C7,3.9 6.9,3.9 6.9,3.9 C6.3,4 5.8,4.2 5.7,4.6 C5.7,4.7 5.5,4.8 5.4,4.8 C4.9,4.9 4.8,4.6 4,4.6 C3.3,4.6 3.2,4.9 2.7,4.7 C2.6,4.7 2.6,4.7 2.5,4.6 C2.3,4.5 2.4,4.2 1.9,4 C1.7,3.9 1.5,3.8 1.2,3.8 C1.2,3.8 1.2,3.8 1.1,3.8 L1.1,2.8 C1.1,2.6 1,2.5 0.9,2.3 C0.9,2.3 0.8,2.2 0.8,2.1 L0.8,3.2 C0.8,3.3 0.8,3.3 0.9,3.4 C1,3.5 1.1,3.6 1.1,3.7 C1,3.7 1,3.7 0.9,3.6 C0.8,3.5 0.7,3.5 0.7,3.4 L0.7,4.5 C0.7,4.6 0.8,4.7 0.9,4.7 C1,4.7 1,4.8 1.1,4.8 C1.4,4.8 1.6,4.9 1.8,5 C2.3,5.3 2.2,5.5 2.4,5.6 C2.4,5.6 2.5,5.6 2.6,5.7 C3,5.8 3.1,5.6 3.9,5.6 C4.7,5.6 4.8,5.9 5.3,5.8 C5.5,5.8 5.6,5.7 5.6,5.6 C5.8,5.3 6.2,5 6.8,4.9 C7,4.9 7.1,4.8 7.2,4.7 C7.2,4.7 7.3,4.6 7.3,4.6 L7.3,3.5 C7.3,3.5 7.3,3.6 7.2,3.6 C7.2,3.7 7.1,3.7 7,3.7 C7.1,3.5 7.3,3.4 7.3,3.2 L7.4,2.3 Z" fill="#B9BDBD"></path>
                                <path d="M7.4,2.2 C7.4,2.2 7.3,2.1 7.3,2.1 C7.1,2 6.8,2 6.3,1.8 C5.8,1.5 6,1.3 5.7,1.2 C5.7,1.2 5.6,1.2 5.5,1.1 C5.1,1 5,1.2 4.2,1.2 C3.4,1.2 3.3,0.9 2.8,1 C2.4,1.1 2.6,1.3 2.1,1.6 C1.5,1.9 1.1,1.8 0.9,2 C0.8,2.1 0.8,2.2 0.9,2.3 C1.2,2.6 1.2,3 0.8,3.3 C0.7,3.4 0.7,3.6 0.9,3.7 C1,3.7 1,3.8 1.1,3.8 C1.4,3.8 1.6,3.9 1.8,4 C2.3,4.3 2.2,4.5 2.4,4.6 C2.4,4.6 2.5,4.6 2.6,4.7 C3,4.8 3.1,4.6 3.9,4.6 C4.7,4.6 4.8,4.9 5.3,4.8 C5.5,4.8 5.6,4.7 5.6,4.6 C5.8,4.3 6.2,4 6.8,3.9 C7,3.9 7.1,3.8 7.2,3.7 C7.4,3.4 7,3.4 7,3 C7.1,2.5 7.6,2.4 7.4,2.2 Z" fill="#F4F4F4"></path>
                            </g>
                        </g>
                        <g id="Group" transform="translate(50.000000, 22.000000)">
                            <path d="M2.3,4.9 C1.1,5.6 0.1,5.2 0.1,4 C0.1,2.8 1.1,1.2 2.3,0.5 C3.5,-0.2 4.5,0.2 4.5,1.4 C4.5,2.6 3.6,4.2 2.3,4.9 Z" id="Path" fill="#5F5F64"></path>
                            <path d="M4.4,1.5 C4.4,2.6 3.5,4.1 2.3,4.7 C1.2,5.4 0.2,5 0.2,3.8 C0.2,2.6 1.1,1.2 2.3,0.6 C3.5,0 4.4,0.4 4.4,1.5 Z" id="Path" fill="#FDCA01"></path>
                            <path d="M2.6,0.8 L2,1.1 C1.9,2 1.7,3.1 1.7,3.5 C2,3.1 2.3,2.8 2.6,2.4 L2.2,4.6 C2.9,2 2.8,2.2 2.9,1.7 C2.5,2.1 2.8,1.9 2,2.8 L2.6,0.8 Z" id="Path" fill="#5F5F64"></path>
                        </g>
                        <g id="Group" transform="translate(5.000000, 24.000000)">
                            <path d="M4.5,6.2 C4.6,6.3 4.8,6.3 4.8,6.2 C4.9,6.1 4.9,6 4.8,5.8 L2.9,1.3 C2.8,1.1 2.7,1 2.6,0.9 C2.5,0.8 2.3,0.8 2.3,0.9 L0.4,3.1 C0.3,3.2 0.3,3.3 0.4,3.5 C0.5,3.7 0.6,3.8 0.7,3.9 L4.5,6.2 Z" id="Path" fill="#363633"></path>
                            <path d="M4.5,5.7 L2.6,1.2 C2.6,1.1 2.5,1 2.4,1.1 L0.5,3.3 C0.5,3.3 0.5,3.5 0.6,3.5 L4.5,5.7 C4.5,5.9 4.6,5.8 4.5,5.7 Z" id="Path" fill="#DBAC16"></path>
                            <path d="M2.4,3.6 C2.4,3.6 2.3,3.5 2.3,3.5 L2.2,2.1 C2.2,1.7 2.9,2 2.8,2.5 L2.7,3.7 C2.7,3.7 2.7,3.8 2.6,3.7 L2.4,3.6 Z M2.2,4.1 C2.2,4.2 2.3,4.4 2.5,4.5 C2.6,4.6 2.8,4.5 2.8,4.4 C2.8,4.3 2.7,4.1 2.5,4 C2.3,3.9 2.2,3.9 2.2,4.1 Z" id="Shape" fill="#363633"></path>
                        </g>
                    </g>
                </g>
            </g>
        </g>
    </g>
</svg>