<?xml version="1.0" encoding="UTF-8"?>
<svg width="103px" height="85px" viewBox="0 0 103 85" version="1.1" xmlns="http://www.w3.org/2000/svg" xmlns:xlink="http://www.w3.org/1999/xlink">
    <!-- Generator: Sketch 54.1 (76490) - https://sketchapp.com -->
    <title>3</title>
    <desc>Created with Sketch.</desc>
    <defs>
        <linearGradient x1="35.9547337%" y1="3.34230769%" x2="63.6806213%" y2="89.45%" id="linearGradient-1">
            <stop stop-color="#F4F4F4" offset="0%"></stop>
            <stop stop-color="#DBDBDB" offset="100%"></stop>
        </linearGradient>
        <linearGradient x1="36.2550296%" y1="3.86538462%" x2="63.9809172%" y2="89.975%" id="linearGradient-2">
            <stop stop-color="#F4F4F4" offset="0%"></stop>
            <stop stop-color="#DBDBDB" offset="100%"></stop>
        </linearGradient>
        <linearGradient x1="34.934845%" y1="10.4730159%" x2="66.1995465%" y2="81.5460317%" id="linearGradient-3">
            <stop stop-color="#F4F4F4" offset="0%"></stop>
            <stop stop-color="#DBDBDB" offset="100%"></stop>
        </linearGradient>
        <linearGradient x1="36.0201553%" y1="2.44615385%" x2="63.7460429%" y2="88.5557692%" id="linearGradient-4">
            <stop stop-color="#F4F4F4" offset="0%"></stop>
            <stop stop-color="#DBDBDB" offset="100%"></stop>
        </linearGradient>
        <linearGradient x1="34.408768%" y1="11.0349206%" x2="65.7363568%" y2="82.2507937%" id="linearGradient-5">
            <stop stop-color="#F4F4F4" offset="0%"></stop>
            <stop stop-color="#DBDBDB" offset="100%"></stop>
        </linearGradient>
        <linearGradient x1="36.5531805%" y1="3.20384615%" x2="64.3348373%" y2="89.4865385%" id="linearGradient-6">
            <stop stop-color="#F4F4F4" offset="0%"></stop>
            <stop stop-color="#DBDBDB" offset="100%"></stop>
        </linearGradient>
        <linearGradient x1="34.2842026%" y1="10.6746032%" x2="65.610582%" y2="81.8904762%" id="linearGradient-7">
            <stop stop-color="#F4F4F4" offset="0%"></stop>
            <stop stop-color="#DBDBDB" offset="100%"></stop>
        </linearGradient>
        <linearGradient x1="36.4427145%" y1="2.76923077%" x2="64.2232988%" y2="89.0480769%" id="linearGradient-8">
            <stop stop-color="#F4F4F4" offset="0%"></stop>
            <stop stop-color="#DBDBDB" offset="100%"></stop>
        </linearGradient>
        <linearGradient x1="34.1596372%" y1="11.9%" x2="65.4860166%" y2="83.115873%" id="linearGradient-9">
            <stop stop-color="#F4F4F4" offset="0%"></stop>
            <stop stop-color="#DBDBDB" offset="100%"></stop>
        </linearGradient>
        <linearGradient x1="36.3322485%" y1="2.33076923%" x2="64.1128328%" y2="88.6115385%" id="linearGradient-10">
            <stop stop-color="#F4F4F4" offset="0%"></stop>
            <stop stop-color="#DBDBDB" offset="100%"></stop>
        </linearGradient>
        <linearGradient x1="34.0338624%" y1="11.5396825%" x2="65.3602419%" y2="82.7555556%" id="linearGradient-11">
            <stop stop-color="#F4F4F4" offset="0%"></stop>
            <stop stop-color="#DBDBDB" offset="100%"></stop>
        </linearGradient>
        <linearGradient x1="36.2207101%" y1="3.81730769%" x2="64.0012944%" y2="90.0961538%" id="linearGradient-12">
            <stop stop-color="#F4F4F4" offset="0%"></stop>
            <stop stop-color="#DBDBDB" offset="100%"></stop>
        </linearGradient>
        <linearGradient x1="33.9092971%" y1="11.1793651%" x2="65.2356765%" y2="82.3936508%" id="linearGradient-13">
            <stop stop-color="#F4F4F4" offset="0%"></stop>
            <stop stop-color="#DBDBDB" offset="100%"></stop>
        </linearGradient>
        <linearGradient x1="36.1091716%" y1="3.37884615%" x2="63.8908284%" y2="89.6596154%" id="linearGradient-14">
            <stop stop-color="#F4F4F4" offset="0%"></stop>
            <stop stop-color="#DBDBDB" offset="100%"></stop>
        </linearGradient>
        <linearGradient x1="34.9928949%" y1="10.8174603%" x2="66.3192744%" y2="82.0333333%" id="linearGradient-15">
            <stop stop-color="#F4F4F4" offset="0%"></stop>
            <stop stop-color="#DBDBDB" offset="100%"></stop>
        </linearGradient>
        <linearGradient x1="35.9987056%" y1="2.94230769%" x2="63.7792899%" y2="89.2211538%" id="linearGradient-16">
            <stop stop-color="#F4F4F4" offset="0%"></stop>
            <stop stop-color="#DBDBDB" offset="100%"></stop>
        </linearGradient>
        <linearGradient x1="34.8683296%" y1="10.4571429%" x2="66.194709%" y2="81.6714286%" id="linearGradient-17">
            <stop stop-color="#F4F4F4" offset="0%"></stop>
            <stop stop-color="#DBDBDB" offset="100%"></stop>
        </linearGradient>
        <linearGradient x1="34.5004617%" y1="10.2298246%" x2="66.1484765%" y2="84.622807%" id="linearGradient-18">
            <stop stop-color="#449CB7" offset="0%"></stop>
            <stop stop-color="#307C99" offset="100%"></stop>
        </linearGradient>
        <linearGradient x1="35.8871672%" y1="2.50384615%" x2="63.668824%" y2="88.7846154%" id="linearGradient-19">
            <stop stop-color="#F4F4F4" offset="0%"></stop>
            <stop stop-color="#DBDBDB" offset="100%"></stop>
        </linearGradient>
        <linearGradient x1="34.7437642%" y1="11.6825397%" x2="66.0701436%" y2="82.8984127%" id="linearGradient-20">
            <stop stop-color="#F4F4F4" offset="0%"></stop>
            <stop stop-color="#DBDBDB" offset="100%"></stop>
        </linearGradient>
        <linearGradient x1="34.367313%" y1="9.83157895%" x2="66.0153278%" y2="84.2245614%" id="linearGradient-21">
            <stop stop-color="#449CB7" offset="0%"></stop>
            <stop stop-color="#307C99" offset="100%"></stop>
        </linearGradient>
        <linearGradient x1="35.7767012%" y1="3.98846154%" x2="63.558358%" y2="90.2711538%" id="linearGradient-22">
            <stop stop-color="#F4F4F4" offset="0%"></stop>
            <stop stop-color="#DBDBDB" offset="100%"></stop>
        </linearGradient>
        <linearGradient x1="34.6179894%" y1="11.3222222%" x2="65.9443689%" y2="82.5380952%" id="linearGradient-23">
            <stop stop-color="#F4F4F4" offset="0%"></stop>
            <stop stop-color="#DBDBDB" offset="100%"></stop>
        </linearGradient>
        <linearGradient x1="34.099723%" y1="9.53684211%" x2="65.7477378%" y2="83.9298246%" id="linearGradient-24">
            <stop stop-color="#449CB7" offset="0%"></stop>
            <stop stop-color="#307C99" offset="100%"></stop>
        </linearGradient>
        <linearGradient x1="35.6662352%" y1="3.55384615%" x2="63.4468195%" y2="89.8346154%" id="linearGradient-25">
            <stop stop-color="#F4F4F4" offset="0%"></stop>
            <stop stop-color="#DBDBDB" offset="100%"></stop>
        </linearGradient>
        <radialGradient cx="50.1382353%" cy="49.9728758%" fx="50.1382353%" fy="49.9728758%" r="49.8441176%" id="radialGradient-26">
            <stop stop-color="#72C93F" offset="0%"></stop>
            <stop stop-color="#70C53E" offset="0.2161611%"></stop>
            <stop stop-color="#589C31" offset="2.544835%"></stop>
            <stop stop-color="#447725" offset="5.093718%"></stop>
            <stop stop-color="#31571B" offset="7.936674%"></stop>
            <stop stop-color="#223B13" offset="11.08%"></stop>
            <stop stop-color="#15250C" offset="14.63%"></stop>
            <stop stop-color="#0C1406" offset="18.77%"></stop>
            <stop stop-color="#050903" offset="23.89%"></stop>
            <stop stop-color="#010201" offset="31.08%"></stop>
            <stop stop-color="#000000" offset="51.02%"></stop>
        </radialGradient>
        <radialGradient cx="50.0372549%" cy="50.0754902%" fx="50.0372549%" fy="50.0754902%" r="49.8441176%" id="radialGradient-27">
            <stop stop-color="#72C93F" offset="0%"></stop>
            <stop stop-color="#70C53E" offset="0.2161611%"></stop>
            <stop stop-color="#589C31" offset="2.544835%"></stop>
            <stop stop-color="#447725" offset="5.093718%"></stop>
            <stop stop-color="#31571B" offset="7.936674%"></stop>
            <stop stop-color="#223B13" offset="11.08%"></stop>
            <stop stop-color="#15250C" offset="14.63%"></stop>
            <stop stop-color="#0C1406" offset="18.77%"></stop>
            <stop stop-color="#050903" offset="23.89%"></stop>
            <stop stop-color="#010201" offset="31.08%"></stop>
            <stop stop-color="#000000" offset="51.02%"></stop>
        </radialGradient>
        <radialGradient cx="49.9362745%" cy="49.8513072%" fx="49.9362745%" fy="49.8513072%" r="49.8441176%" id="radialGradient-28">
            <stop stop-color="#72C93F" offset="0%"></stop>
            <stop stop-color="#70C53E" offset="0.2161611%"></stop>
            <stop stop-color="#589C31" offset="2.544835%"></stop>
            <stop stop-color="#447725" offset="5.093718%"></stop>
            <stop stop-color="#31571B" offset="7.936674%"></stop>
            <stop stop-color="#223B13" offset="11.08%"></stop>
            <stop stop-color="#15250C" offset="14.63%"></stop>
            <stop stop-color="#0C1406" offset="18.77%"></stop>
            <stop stop-color="#050903" offset="23.89%"></stop>
            <stop stop-color="#010201" offset="31.08%"></stop>
            <stop stop-color="#000000" offset="51.02%"></stop>
        </radialGradient>
        <radialGradient cx="50.1617647%" cy="49.9539216%" fx="50.1617647%" fy="49.9539216%" r="49.8441176%" id="radialGradient-29">
            <stop stop-color="#72C93F" offset="0%"></stop>
            <stop stop-color="#70C53E" offset="0.2161611%"></stop>
            <stop stop-color="#589C31" offset="2.544835%"></stop>
            <stop stop-color="#447725" offset="5.093718%"></stop>
            <stop stop-color="#31571B" offset="7.936674%"></stop>
            <stop stop-color="#223B13" offset="11.08%"></stop>
            <stop stop-color="#15250C" offset="14.63%"></stop>
            <stop stop-color="#0C1406" offset="18.77%"></stop>
            <stop stop-color="#050903" offset="23.89%"></stop>
            <stop stop-color="#010201" offset="31.08%"></stop>
            <stop stop-color="#000000" offset="51.02%"></stop>
        </radialGradient>
        <radialGradient cx="50.0607843%" cy="50.0565359%" fx="50.0607843%" fy="50.0565359%" r="49.8441176%" id="radialGradient-30">
            <stop stop-color="#72C93F" offset="0%"></stop>
            <stop stop-color="#70C53E" offset="0.2161611%"></stop>
            <stop stop-color="#589C31" offset="2.544835%"></stop>
            <stop stop-color="#447725" offset="5.093718%"></stop>
            <stop stop-color="#31571B" offset="7.936674%"></stop>
            <stop stop-color="#223B13" offset="11.08%"></stop>
            <stop stop-color="#15250C" offset="14.63%"></stop>
            <stop stop-color="#0C1406" offset="18.77%"></stop>
            <stop stop-color="#050903" offset="23.89%"></stop>
            <stop stop-color="#010201" offset="31.08%"></stop>
            <stop stop-color="#000000" offset="51.02%"></stop>
        </radialGradient>
        <radialGradient cx="49.9598039%" cy="50.1594771%" fx="49.9598039%" fy="50.1594771%" r="49.8441176%" id="radialGradient-31">
            <stop stop-color="#72C93F" offset="0%"></stop>
            <stop stop-color="#70C53E" offset="0.2161611%"></stop>
            <stop stop-color="#589C31" offset="2.544835%"></stop>
            <stop stop-color="#447725" offset="5.093718%"></stop>
            <stop stop-color="#31571B" offset="7.936674%"></stop>
            <stop stop-color="#223B13" offset="11.08%"></stop>
            <stop stop-color="#15250C" offset="14.63%"></stop>
            <stop stop-color="#0C1406" offset="18.77%"></stop>
            <stop stop-color="#050903" offset="23.89%"></stop>
            <stop stop-color="#010201" offset="31.08%"></stop>
            <stop stop-color="#000000" offset="51.02%"></stop>
        </radialGradient>
        <radialGradient cx="49.8584967%" cy="49.9352941%" fx="49.8584967%" fy="49.9352941%" r="49.8441176%" id="radialGradient-32">
            <stop stop-color="#72C93F" offset="0%"></stop>
            <stop stop-color="#70C53E" offset="0.2161611%"></stop>
            <stop stop-color="#589C31" offset="2.544835%"></stop>
            <stop stop-color="#447725" offset="5.093718%"></stop>
            <stop stop-color="#31571B" offset="7.936674%"></stop>
            <stop stop-color="#223B13" offset="11.08%"></stop>
            <stop stop-color="#15250C" offset="14.63%"></stop>
            <stop stop-color="#0C1406" offset="18.77%"></stop>
            <stop stop-color="#050903" offset="23.89%"></stop>
            <stop stop-color="#010201" offset="31.08%"></stop>
            <stop stop-color="#000000" offset="51.02%"></stop>
        </radialGradient>
        <radialGradient cx="50.0843137%" cy="50.0379085%" fx="50.0843137%" fy="50.0379085%" r="49.8441176%" id="radialGradient-33">
            <stop stop-color="#72C93F" offset="0%"></stop>
            <stop stop-color="#70C53E" offset="0.2161611%"></stop>
            <stop stop-color="#589C31" offset="2.544835%"></stop>
            <stop stop-color="#447725" offset="5.093718%"></stop>
            <stop stop-color="#31571B" offset="7.936674%"></stop>
            <stop stop-color="#223B13" offset="11.08%"></stop>
            <stop stop-color="#15250C" offset="14.63%"></stop>
            <stop stop-color="#0C1406" offset="18.77%"></stop>
            <stop stop-color="#050903" offset="23.89%"></stop>
            <stop stop-color="#010201" offset="31.08%"></stop>
            <stop stop-color="#000000" offset="51.02%"></stop>
        </radialGradient>
        <linearGradient x1="48.5286972%" y1="47.8455034%" x2="52.2167254%" y2="51.8153092%" id="linearGradient-34">
            <stop stop-color="#72C9B2" offset="0%"></stop>
            <stop stop-color="#66C0B1" offset="32.8%"></stop>
            <stop stop-color="#51B1AF" offset="100%"></stop>
        </linearGradient>
    </defs>
    <g id="Page-1" stroke="none" stroke-width="1" fill="none" fill-rule="evenodd">
        <g id="19034-[преобразованный]" transform="translate(-106.000000, 0.000000)" fill-rule="nonzero">
            <g id="_x32_">
                <g id="3" transform="translate(106.900000, 0.000000)">
                    <polygon id="Path" fill="#0F5E70" points="81.5 45 13.3 84.5 0 76.8 68.3 37.4"></polygon>
                    <g id="_x31_6_1_" transform="translate(14.100000, 0.000000)">
                        <g id="Group">
                            <polygon id="Path" fill="#C2C4C4" points="64.5 43.5 65.7 44.2 2.4 80.7 4.4 78.2"></polygon>
                            <polygon id="Path" fill="#E0E0E0" points="64.5 4.5 65.7 1.5 65.7 44.2 64.5 43.5"></polygon>
                            <polygon id="Path" fill="#E6E6E6" points="64.5 4.5 64.5 43.5 4.4 78.2 4.4 39.2"></polygon>
                            <polygon id="Path" fill="#EBEBEB" points="4.4 39.2 2.4 38.1 65.7 1.5 64.5 4.5"></polygon>
                            <polygon id="Path" fill="#C2C4C4" points="2.4 80.7 0.6 79.7 0.6 37 2.4 38.1"></polygon>
                            <polygon id="Path" fill="#F4F4F4" points="2.4 38.1 0.6 37 63.9 0.5 65.7 1.5"></polygon>
                            <polygon id="Path" fill="#E0E0E0" points="4.4 78.2 2.4 80.7 2.4 38.1 4.4 39.2"></polygon>
                        </g>
                        <polygon id="Path" fill="#C2C4C4" points="62.4 11.9 6.9 43.9 6.9 74.2 62.4 42.1"></polygon>
                        <polygon id="Path" fill="#D7D9D9" points="59.6 13.5 59.6 40.5 6.9 70.9 6.9 74.2 62.4 42.1 62.4 11.9"></polygon>
                        <polygon id="Path" fill="#E0E0E0" points="59.6 13.5 59.6 40.5 62.4 42.1 62.4 11.9"></polygon>
                        <g id="Group" transform="translate(6.000000, 12.000000)">
                            <g>
                                <g transform="translate(48.000000, 19.000000)" id="Path">
                                    <g transform="translate(3.000000, 1.000000)">
                                        <path d="M1.1,0.9 L0.7,0.7 L0.2,1 L0.6,1.2 C1.7,1.8 2.6,3.4 2.6,4.6 C2.6,5.2 2.4,5.7 2,5.9 L2.5,5.6 C2.9,5.4 3.1,5 3.1,4.3 C3.1,3.1 2.2,1.5 1.1,0.9 Z" fill="url(#linearGradient-1)"></path>
                                        <path d="M0.6,1.2 C1.7,1.8 2.6,3.4 2.6,4.6 C2.6,5.9 1.7,6.4 0.6,5.7 L0.2,5.5 L0.2,0.9 L0.6,1.2 Z" fill="#CACACA"></path>
                                    </g>
                                    <g transform="translate(1.000000, 0.000000)">
                                        <path d="M2.5,2.4 L2.1,2.2 L0.2,3.3 L0.6,3.5 C0.8,3.6 1,3.7 1.1,3.9 L3,2.8 C2.9,2.7 2.7,2.5 2.5,2.4 Z" fill="#8C1F1F"></path>
                                        <path d="M3.8,6.9 L1.9,8 C2.2,7.8 2.4,7.4 2.4,6.8 C2.4,6.1 2.1,5.4 1.7,4.7 L3.6,3.6 C4,4.2 4.3,5 4.3,5.7 C4.4,6.2 4.1,6.7 3.8,6.9 Z" fill="#993230"></path>
                                        <polygon fill="#8C1F1F" points="2.9 2.5 4.9 1.3 3.7 3.6 1.7 4.7"></polygon>
                                        <polygon fill="#B74444" points="2.3 1.7 4.2 0.6 4.9 1.3 2.9 2.5"></polygon>
                                        <path d="M2.3,1.7 L2.9,2.4 L1.7,4.7 C2.1,5.3 2.4,6.1 2.4,6.8 C2.4,8 1.6,8.5 0.5,7.9 L0.1,7.7 L0.1,3.4 L0.5,3.6 C0.7,3.7 0.9,3.8 1,4 L2.3,1.7 Z" fill="#7F1414"></path>
                                    </g>
                                    <g transform="translate(0.000000, 3.000000)">
                                        <path d="M1.6,0.3 L1.2,0.1 L0.7,0.4 L1.1,0.6 C2.2,1.2 3.1,2.8 3.1,4 C3.1,4.6 2.9,5.1 2.5,5.3 L3,5 C3.4,4.8 3.6,4.4 3.6,3.7 C3.6,2.5 2.7,1 1.6,0.3 Z" fill="url(#linearGradient-2)"></path>
                                        <path d="M1.1,0.6 C2.2,1.2 3.1,2.8 3.1,4 C3.1,5.3 2.2,5.8 1.1,5.1 L0.7,4.9 L0.7,0.3 L1.1,0.6 Z" fill="#CACACA"></path>
                                    </g>
                                </g>
                                <g transform="translate(44.000000, 22.000000)" id="Path">
                                    <g transform="translate(2.000000, 0.000000)">
                                        <path d="M3.2,0.6 L2.8,0.4 L0.4,1.8 L0.8,2 C1.9,2.6 2.8,4.2 2.8,5.4 C2.8,6 2.6,6.5 2.2,6.7 L4.6,5.3 C5,5.1 5.2,4.7 5.2,4 C5.2,2.7 4.3,1.2 3.2,0.6 Z" fill="url(#linearGradient-3)"></path>
                                        <path d="M0.9,1.9 C2,2.5 2.9,4.1 2.9,5.3 C2.9,6.6 2,7.1 0.9,6.4 L0.5,6.2 L0.5,1.6 L0.9,1.9 Z" fill="#CACACA"></path>
                                    </g>
                                    <g>
                                        <path d="M2.8,2.2 L2.4,2 L0.5,3.1 L0.9,3.3 C1.1,3.4 1.3,3.5 1.4,3.7 L3.3,2.6 C3.1,2.4 3,2.3 2.8,2.2 Z" fill="#8C1F1F"></path>
                                        <path d="M4.1,6.6 L2.2,7.7 C2.5,7.5 2.7,7.1 2.7,6.5 C2.7,5.8 2.4,5.1 2,4.4 L3.9,3.3 C4.3,3.9 4.6,4.7 4.6,5.4 C4.6,6 4.4,6.4 4.1,6.6 Z" fill="#993230"></path>
                                        <polygon fill="#8C1F1F" points="3.2 2.2 5.2 1 3.9 3.3 2 4.4"></polygon>
                                        <polygon fill="#B74444" points="2.6 1.5 4.5 0.3 5.2 1 3.2 2.2"></polygon>
                                        <path d="M2.6,1.5 L3.2,2.2 L2,4.5 C2.4,5.1 2.7,5.9 2.7,6.6 C2.7,7.8 1.9,8.3 0.8,7.7 L0.4,7.5 L0.4,3.2 L0.8,3.4 C1,3.5 1.2,3.6 1.3,3.8 L2.6,1.5 Z" fill="#7F1414"></path>
                                    </g>
                                    <g transform="translate(0.000000, 2.000000)">
                                        <path d="M0.9,1.1 L0.5,0.9 L0,1.2 L0.4,1.4 C1.5,2 2.4,3.6 2.4,4.8 C2.4,5.4 2.2,5.9 1.8,6.1 L2.3,5.8 C2.7,5.6 2.9,5.2 2.9,4.5 C2.9,3.2 2,1.7 0.9,1.1 Z" fill="url(#linearGradient-4)"></path>
                                        <path d="M0.4,1.4 C1.5,2 2.4,3.6 2.4,4.8 C2.4,6.1 1.5,6.6 0.4,5.9 L0,5.7 L0,1.1 L0.4,1.4 Z" fill="#CACACA"></path>
                                    </g>
                                </g>
                                <g transform="translate(0.000000, 25.000000)" id="Path">
                                    <g transform="translate(39.000000, 0.000000)">
                                        <g transform="translate(2.000000, 0.000000)">
                                            <path d="M3.5,0.3 L3.1,0.1 L0.7,1.5 L1.1,1.7 C2.2,2.3 3.1,3.9 3.1,5.1 C3.1,5.7 2.9,6.2 2.5,6.4 L4.9,5 C5.3,4.8 5.5,4.4 5.5,3.7 C5.5,2.5 4.6,0.9 3.5,0.3 Z" fill="url(#linearGradient-5)"></path>
                                            <path d="M1.1,1.7 C2.2,2.3 3.1,3.9 3.1,5.1 C3.1,6.4 2.2,6.9 1.1,6.2 L0.7,6 L0.7,1.4 L1.1,1.7 Z" fill="#CACACA"></path>
                                        </g>
                                        <g>
                                            <path d="M3,1.9 L2.6,1.7 L0.7,2.8 L1.1,3 C1.3,3.1 1.5,3.2 1.6,3.4 L3.5,2.3 C3.4,2.1 3.2,2 3,1.9 Z" fill="#1F738C"></path>
                                            <path d="M4.3,6.3 L2.4,7.4 C2.7,7.2 2.9,6.8 2.9,6.2 C2.9,5.5 2.6,4.8 2.2,4.1 L4.1,3 C4.5,3.6 4.8,4.4 4.8,5.1 C4.9,5.7 4.7,6.1 4.3,6.3 Z" fill="#307C99"></path>
                                            <polygon fill="#1F738C" points="3.5 1.9 5.4 0.8 4.2 3 2.3 4.2"></polygon>
                                            <polygon fill="#449CB7" points="2.8 1.2 4.8 0.1 5.4 0.8 3.5 1.9"></polygon>
                                            <path d="M2.8,1.2 L3.4,1.9 L2.2,4.2 C2.6,4.8 2.9,5.6 2.9,6.3 C2.9,7.5 2.1,8 1,7.4 L0.6,7.2 L0.6,2.9 L1,3.1 C1.2,3.2 1.4,3.3 1.5,3.5 L2.8,1.2 Z" fill="#14667F"></path>
                                        </g>
                                        <g transform="translate(0.000000, 2.000000)">
                                            <path d="M1.1,0.8 L0.7,0.6 L0.2,0.9 L0.6,1.1 C1.7,1.7 2.6,3.3 2.6,4.5 C2.6,5.1 2.4,5.6 2,5.8 L2.5,5.5 C2.9,5.3 3.1,4.9 3.1,4.2 C3.1,3 2.2,1.4 1.1,0.8 Z" fill="url(#linearGradient-6)"></path>
                                            <path d="M0.6,1.1 C1.7,1.7 2.6,3.3 2.6,4.5 C2.6,5.8 1.7,6.3 0.6,5.6 L0.2,5.4 L0.2,0.8 L0.6,1.1 Z" fill="#CACACA"></path>
                                        </g>
                                    </g>
                                    <g transform="translate(34.000000, 2.000000)">
                                        <g transform="translate(2.000000, 0.000000)">
                                            <path d="M3.7,1.1 L3.3,0.9 L0.9,2.3 L1.3,2.5 C2.4,3.1 3.3,4.7 3.3,5.9 C3.3,6.5 3.1,7 2.7,7.2 L5.1,5.8 C5.5,5.6 5.7,5.2 5.7,4.5 C5.7,3.2 4.8,1.7 3.7,1.1 Z" fill="url(#linearGradient-7)"></path>
                                            <path d="M1.3,2.5 C2.4,3.1 3.3,4.7 3.3,5.9 C3.3,7.2 2.4,7.7 1.3,7 L0.9,6.8 L0.9,2.2 L1.3,2.5 Z" fill="#CACACA"></path>
                                        </g>
                                        <g>
                                            <path d="M3.2,2.7 L2.8,2.5 L0.9,3.6 L1.3,3.8 C1.5,3.9 1.7,4 1.8,4.2 L3.7,3.1 C3.6,2.9 3.4,2.8 3.2,2.7 Z" fill="#1F738C"></path>
                                            <path d="M4.5,7.1 L2.6,8.2 C2.9,8 3.1,7.6 3.1,7 C3.1,6.3 2.8,5.6 2.4,4.9 L4.3,3.8 C4.7,4.4 5,5.2 5,5.9 C5.1,6.5 4.9,6.9 4.5,7.1 Z" fill="#307C99"></path>
                                            <polygon fill="#1F738C" points="3.7 2.7 5.6 1.6 4.4 3.8 2.4 5"></polygon>
                                            <polygon fill="#449CB7" points="3 2 5 0.8 5.6 1.6 3.7 2.7"></polygon>
                                            <path d="M3,2 L3.6,2.7 L2.4,5 C2.8,5.6 3.1,6.4 3.1,7.1 C3.1,8.3 2.3,8.8 1.2,8.2 L0.8,8 L0.8,3.7 L1.2,3.9 C1.4,4 1.6,4.1 1.7,4.3 L3,2 Z" fill="#14667F"></path>
                                        </g>
                                        <g transform="translate(0.000000, 3.000000)">
                                            <path d="M1.3,0.6 L0.9,0.4 L0.4,0.7 L0.8,0.9 C1.9,1.5 2.8,3.1 2.8,4.3 C2.8,4.9 2.6,5.4 2.2,5.6 L2.7,5.3 C3.1,5.1 3.3,4.7 3.3,4 C3.3,2.8 2.4,1.2 1.3,0.6 Z" fill="url(#linearGradient-8)"></path>
                                            <path d="M0.8,0.9 C1.9,1.5 2.8,3.1 2.8,4.3 C2.8,5.6 1.9,6.1 0.8,5.4 L0.4,5.2 L0.4,0.6 L0.8,0.9 Z" fill="#CACACA"></path>
                                        </g>
                                    </g>
                                    <g transform="translate(29.000000, 5.000000)">
                                        <g transform="translate(3.000000, 0.000000)">
                                            <path d="M2.9,0.8 L2.5,0.6 L0.1,2 L0.5,2.2 C1.6,2.8 2.5,4.4 2.5,5.6 C2.5,6.2 2.3,6.7 1.9,6.9 L4.3,5.5 C4.7,5.3 4.9,4.9 4.9,4.2 C4.9,3 4,1.5 2.9,0.8 Z" fill="url(#linearGradient-9)"></path>
                                            <path d="M0.5,2.2 C1.6,2.8 2.5,4.4 2.5,5.6 C2.5,6.9 1.6,7.4 0.5,6.7 L0.1,6.5 L0.1,1.9 L0.5,2.2 Z" fill="#CACACA"></path>
                                        </g>
                                        <g transform="translate(1.000000, 0.000000)">
                                            <path d="M2.4,2.4 L2,2.2 L0.1,3.3 L0.5,3.5 C0.7,3.6 0.9,3.7 1,3.9 L2.9,2.8 C2.8,2.7 2.6,2.6 2.4,2.4 Z" fill="#1F738C"></path>
                                            <path d="M3.7,6.9 L1.8,8 C2.1,7.8 2.3,7.4 2.3,6.8 C2.3,6.1 2,5.4 1.6,4.7 L3.5,3.6 C3.9,4.2 4.2,5 4.2,5.7 C4.3,6.3 4.1,6.7 3.7,6.9 Z" fill="#307C99"></path>
                                            <polygon fill="#1F738C" points="2.9 2.5 4.8 1.3 3.6 3.6 1.6 4.7"></polygon>
                                            <polygon fill="#449CB7" points="2.2 1.8 4.2 0.6 4.8 1.3 2.9 2.5"></polygon>
                                            <path d="M2.2,1.8 L2.8,2.5 L1.6,4.8 C2,5.4 2.3,6.2 2.3,6.9 C2.3,8.1 1.5,8.6 0.4,8 L-2.84217094e-14,7.8 L-2.84217094e-14,3.5 L0.4,3.7 C0.6,3.8 0.8,3.9 0.9,4.1 L2.2,1.8 Z" fill="#14667F"></path>
                                        </g>
                                        <g transform="translate(0.000000, 3.000000)">
                                            <path d="M1.5,0.4 L1.1,0.2 L0.6,0.5 L1,0.7 C2.1,1.3 3,2.9 3,4.1 C3,4.7 2.8,5.2 2.4,5.4 L2.9,5.1 C3.3,4.9 3.5,4.5 3.5,3.8 C3.5,2.5 2.6,1 1.5,0.4 Z" fill="url(#linearGradient-10)"></path>
                                            <path d="M1,0.7 C2.1,1.3 3,2.9 3,4.1 C3,5.4 2.1,5.9 1,5.2 L0.6,5 L0.6,0.4 L1,0.7 Z" fill="#CACACA"></path>
                                        </g>
                                    </g>
                                    <g transform="translate(24.000000, 8.000000)">
                                        <g transform="translate(3.000000, 0.000000)">
                                            <path d="M3.1,0.6 L2.7,0.4 L0.3,1.8 L0.7,2 C1.8,2.6 2.7,4.2 2.7,5.4 C2.7,6 2.5,6.5 2.1,6.7 L4.5,5.3 C4.9,5.1 5.1,4.7 5.1,4 C5,2.8 4.2,1.3 3.1,0.6 Z" fill="url(#linearGradient-11)"></path>
                                            <path d="M0.7,2 C1.8,2.6 2.7,4.2 2.7,5.4 C2.7,6.7 1.8,7.2 0.7,6.5 L0.3,6.3 L0.3,1.7 L0.7,2 Z" fill="#CACACA"></path>
                                        </g>
                                        <g transform="translate(1.000000, 0.000000)">
                                            <path d="M2.6,2.2 L2.2,2 L0.3,3.1 L0.7,3.3 C0.9,3.4 1.1,3.5 1.2,3.7 L3.1,2.6 C3,2.5 2.8,2.3 2.6,2.2 Z" fill="#1F738C"></path>
                                            <path d="M3.9,6.7 L2,7.8 C2.3,7.6 2.5,7.2 2.5,6.6 C2.5,5.9 2.2,5.2 1.8,4.5 L3.7,3.4 C4.1,4 4.4,4.8 4.4,5.5 C4.5,6.1 4.3,6.5 3.9,6.7 Z" fill="#307C99"></path>
                                            <polygon fill="#1F738C" points="3 2.2 5 1.1 3.8 3.4 1.8 4.5"></polygon>
                                            <polygon fill="#449CB7" points="2.4 1.5 4.3 0.4 5 1.1 3 2.2"></polygon>
                                            <path d="M2.4,1.5 L3,2.2 L1.8,4.5 C2.2,5.1 2.5,5.9 2.5,6.6 C2.5,7.8 1.7,8.3 0.6,7.7 L0.2,7.5 L0.2,3.2 L0.6,3.4 C0.8,3.5 1,3.6 1.1,3.8 L2.4,1.5 Z" fill="#14667F"></path>
                                        </g>
                                        <g transform="translate(0.000000, 2.000000)">
                                            <path d="M1.7,1.1 L1.3,0.9 L0.8,1.2 L1.2,1.4 C2.3,2 3.2,3.6 3.2,4.8 C3.2,5.4 3,5.9 2.6,6.1 L3.1,5.8 C3.5,5.6 3.7,5.2 3.7,4.5 C3.7,3.3 2.8,1.8 1.7,1.1 Z" fill="url(#linearGradient-12)"></path>
                                            <path d="M1.2,1.4 C2.3,2 3.2,3.6 3.2,4.8 C3.2,6.1 2.3,6.6 1.2,5.9 L0.8,5.7 L0.8,1.1 L1.2,1.4 Z" fill="#CACACA"></path>
                                        </g>
                                    </g>
                                    <g transform="translate(20.000000, 11.000000)">
                                        <g transform="translate(2.000000, 0.000000)">
                                            <path d="M3.3,0.4 L2.9,0.2 L0.5,1.6 L0.9,1.8 C2,2.4 2.9,4 2.9,5.2 C2.9,5.8 2.7,6.3 2.3,6.5 L4.7,5.1 C5.1,4.9 5.3,4.5 5.3,3.8 C5.2,2.6 4.4,1 3.3,0.4 Z" fill="url(#linearGradient-13)"></path>
                                            <path d="M0.9,1.8 C2,2.4 2.9,4 2.9,5.2 C2.9,6.5 2,7 0.9,6.3 L0.5,6.1 L0.5,1.5 L0.9,1.8 Z" fill="#CACACA"></path>
                                        </g>
                                        <g>
                                            <path d="M2.8,2 L2.4,1.8 L0.5,2.9 L0.9,3.1 C1.1,3.2 1.3,3.3 1.4,3.5 L3.3,2.4 C3.2,2.2 3,2.1 2.8,2 Z" fill="#1F738C"></path>
                                            <path d="M4.1,6.4 L2.2,7.5 C2.5,7.3 2.7,6.9 2.7,6.3 C2.7,5.6 2.4,4.9 2,4.2 L3.9,3.1 C4.3,3.7 4.6,4.5 4.6,5.2 C4.7,5.8 4.4,6.2 4.1,6.4 Z" fill="#307C99"></path>
                                            <polygon fill="#1F738C" points="3.2 2 5.2 0.9 4 3.2 2 4.3"></polygon>
                                            <polygon fill="#449CB7" points="2.6 1.3 4.5 0.2 5.2 0.9 3.2 2"></polygon>
                                            <path d="M2.6,1.3 L3.2,2 L2,4.3 C2.4,4.9 2.7,5.7 2.7,6.4 C2.7,7.6 1.9,8.1 0.8,7.5 L0.4,7.3 L0.4,3 L0.8,3.2 C1,3.3 1.2,3.4 1.3,3.6 L2.6,1.3 Z" fill="#14667F"></path>
                                        </g>
                                        <g transform="translate(0.000000, 2.000000)">
                                            <path d="M0.9,0.9 L0.5,0.7 L0,1 L0.4,1.2 C1.5,1.8 2.4,3.4 2.4,4.6 C2.4,5.2 2.2,5.7 1.8,5.9 L2.3,5.6 C2.7,5.4 2.9,5 2.9,4.3 C2.9,3.1 2,1.5 0.9,0.9 Z" fill="url(#linearGradient-14)"></path>
                                            <path d="M0.4,1.2 C1.5,1.8 2.4,3.4 2.4,4.6 C2.4,5.9 1.5,6.4 0.4,5.7 L0,5.5 L0,0.9 L0.4,1.2 Z" fill="#CACACA"></path>
                                        </g>
                                    </g>
                                    <g transform="translate(15.000000, 14.000000)">
                                        <g transform="translate(2.000000, 0.000000)">
                                            <path d="M3.4,0.2 L3,0 L0.6,1.4 L1,1.6 C2.1,2.2 3,3.8 3,5 C3,5.6 2.8,6.1 2.4,6.3 L4.8,4.9 C5.2,4.7 5.4,4.3 5.4,3.6 C5.4,2.3 4.5,0.8 3.4,0.2 Z" fill="url(#linearGradient-15)"></path>
                                            <path d="M1.1,1.6 C2.2,2.2 3.1,3.8 3.1,5 C3.1,6.3 2.2,6.8 1.1,6.1 L0.7,5.9 L0.7,1.3 L1.1,1.6 Z" fill="#CACACA"></path>
                                        </g>
                                        <g>
                                            <path d="M3,1.8 L2.6,1.6 L0.7,2.7 L1.1,2.9 C1.3,3 1.5,3.1 1.6,3.3 L3.5,2.2 C3.3,2 3.2,1.9 3,1.8 Z" fill="#1F738C"></path>
                                            <path d="M4.3,6.2 L2.4,7.3 C2.7,7.1 2.9,6.7 2.9,6.1 C2.9,5.4 2.6,4.7 2.2,4 L4.1,2.9 C4.5,3.5 4.8,4.3 4.8,5 C4.8,5.6 4.6,6 4.3,6.2 Z" fill="#307C99"></path>
                                            <polygon fill="#1F738C" points="3.4 1.8 5.4 0.7 4.2 2.9 2.2 4.1"></polygon>
                                            <polygon fill="#449CB7" points="2.8 1.1 4.7 0 5.4 0.7 3.4 1.8"></polygon>
                                            <path d="M2.8,1.1 L3.4,1.8 L2.2,4.1 C2.6,4.7 2.9,5.5 2.9,6.2 C2.9,7.4 2.1,7.9 1,7.3 L0.6,7.1 L0.6,2.8 L1,3 C1.2,3.1 1.4,3.2 1.5,3.4 L2.8,1.1 Z" fill="#14667F"></path>
                                        </g>
                                        <g transform="translate(0.000000, 2.000000)">
                                            <path d="M1.1,0.7 L0.7,0.5 L0.2,0.8 L0.6,1 C1.7,1.6 2.6,3.2 2.6,4.4 C2.6,5 2.4,5.5 2,5.7 L2.5,5.4 C2.9,5.2 3.1,4.8 3.1,4.1 C3.1,2.9 2.2,1.3 1.1,0.7 Z" fill="url(#linearGradient-16)"></path>
                                            <path d="M0.6,1 C1.7,1.6 2.6,3.2 2.6,4.4 C2.6,5.7 1.7,6.2 0.6,5.5 L0.2,5.3 L0.2,0.7 L0.6,1 Z" fill="#CACACA"></path>
                                        </g>
                                    </g>
                                    <g transform="translate(10.000000, 16.000000)">
                                        <g transform="translate(2.000000, 0.000000)">
                                            <path d="M3.6,1 L3.2,0.8 L0.8,2.2 L1.2,2.4 C2.3,3 3.2,4.6 3.2,5.8 C3.2,6.4 3,6.9 2.6,7.1 L5,5.7 C5.4,5.5 5.6,5.1 5.6,4.4 C5.6,3.1 4.7,1.6 3.6,1 Z" fill="url(#linearGradient-17)"></path>
                                            <path d="M1.2,2.3 C2.3,2.9 3.2,4.5 3.2,5.7 C3.2,7 2.3,7.5 1.2,6.8 L0.8,6.6 L0.8,2 L1.2,2.3 Z" fill="#CACACA"></path>
                                        </g>
                                        <g transform="translate(0.000000, 2.000000)">
                                            <polygon fill="#449CB7" points="2.6 6.1 4.5 5 5.5 8.6 3.5 9.7"></polygon>
                                            <path d="M3.2,0.5 L2.8,0.3 L0.9,1.4 L1.3,1.6 C2.3,2.2 3.2,3.6 3.2,4.8 C3.2,5.4 3,5.8 2.7,6 L4.6,4.9 C4.9,4.7 5.1,4.3 5.1,3.7 C5.1,2.5 4.3,1.1 3.2,0.5 Z" fill="url(#linearGradient-18)"></path>
                                            <path d="M1.3,1.6 C2.3,2.2 3.2,3.6 3.2,4.8 C3.2,5.4 3,5.8 2.6,6 L3.6,9.6 L2.9,9.5 L2,6.1 C1.8,6.1 1.6,6 1.3,5.9 L0.9,5.7 L0.9,1.4 L1.3,1.6 Z" fill="#14667F"></path>
                                        </g>
                                        <g transform="translate(0.000000, 3.000000)">
                                            <path d="M1.3,0.5 L0.9,0.3 L0.4,0.6 L0.8,0.8 C1.9,1.4 2.8,3 2.8,4.2 C2.8,4.8 2.6,5.3 2.2,5.5 L2.7,5.2 C3.1,5 3.3,4.6 3.3,3.9 C3.3,2.6 2.4,1.1 1.3,0.5 Z" fill="url(#linearGradient-19)"></path>
                                            <path d="M0.8,0.8 C1.9,1.4 2.8,3 2.8,4.2 C2.8,5.5 1.9,6 0.8,5.3 L0.4,5.1 L0.4,0.5 L0.8,0.8 Z" fill="#CACACA"></path>
                                        </g>
                                    </g>
                                    <g transform="translate(5.000000, 19.000000)">
                                        <g transform="translate(3.000000, 0.000000)">
                                            <path d="M2.8,0.7 L2.4,0.5 L0,1.9 L0.4,2.1 C1.5,2.7 2.4,4.3 2.4,5.5 C2.4,6.1 2.2,6.6 1.8,6.8 L4.2,5.4 C4.6,5.2 4.8,4.8 4.8,4.1 C4.8,2.9 3.9,1.4 2.8,0.7 Z" fill="url(#linearGradient-20)"></path>
                                            <path d="M0.4,2.1 C1.5,2.7 2.4,4.3 2.4,5.5 C2.4,6.8 1.5,7.3 0.4,6.6 L0,6.4 L0,1.8 L0.4,2.1 Z" fill="#CACACA"></path>
                                        </g>
                                        <g transform="translate(1.000000, 2.000000)">
                                            <polygon fill="#449CB7" points="1.8 5.9 3.7 4.7 4.7 8.3 2.7 9.5"></polygon>
                                            <path d="M2.4,0.3 L2,0.1 L0.1,1.2 L0.5,1.4 C1.5,2 2.4,3.4 2.4,4.6 C2.4,5.2 2.2,5.6 1.9,5.8 L3.8,4.7 C4.1,4.5 4.3,4.1 4.3,3.5 C4.3,2.3 3.5,0.9 2.4,0.3 Z" fill="url(#linearGradient-21)"></path>
                                            <path d="M0.5,1.4 C1.5,2 2.4,3.4 2.4,4.6 C2.4,5.2 2.2,5.6 1.8,5.8 L2.8,9.4 L2.1,9.3 L1.2,5.9 C1,5.9 0.8,5.8 0.5,5.7 L0.1,5.5 L0.1,1.2 L0.5,1.4 Z" fill="#14667F"></path>
                                        </g>
                                        <g transform="translate(0.000000, 3.000000)">
                                            <path d="M1.5,0.2 L1.1,0 L0.6,0.3 L1,0.5 C2.1,1.1 3,2.7 3,3.9 C3,4.5 2.8,5 2.4,5.2 L2.9,4.9 C3.3,4.7 3.5,4.3 3.5,3.6 C3.5,2.4 2.6,0.9 1.5,0.2 Z" fill="url(#linearGradient-22)"></path>
                                            <path d="M1,0.5 C2.1,1.1 3,2.7 3,3.9 C3,5.2 2.1,5.7 1,5 L0.6,4.8 L0.6,0.2 L1,0.5 Z" fill="#CACACA"></path>
                                        </g>
                                    </g>
                                    <g transform="translate(0.000000, 22.000000)">
                                        <g transform="translate(3.000000, 0.000000)">
                                            <path d="M3,0.5 L2.6,0.3 L0.2,1.7 L0.6,1.9 C1.7,2.5 2.6,4.1 2.6,5.3 C2.6,5.9 2.4,6.4 2,6.6 L4.4,5.2 C4.8,5 5,4.6 5,3.9 C5,2.7 4.1,1.1 3,0.5 Z" fill="url(#linearGradient-23)"></path>
                                            <path d="M0.6,1.9 C1.7,2.5 2.6,4.1 2.6,5.3 C2.6,6.6 1.7,7.1 0.6,6.4 L0.2,6.2 L0.2,1.6 L0.6,1.9 Z" fill="#CACACA"></path>
                                        </g>
                                        <g transform="translate(1.000000, 1.000000)">
                                            <polygon fill="#449CB7" points="2 6.6 3.9 5.5 4.9 9.1 2.9 10.3"></polygon>
                                            <path d="M2.6,1.1 L2.2,0.9 L0.3,2 L0.7,2.2 C1.7,2.8 2.6,4.2 2.6,5.4 C2.6,6 2.4,6.4 2.1,6.6 L4,5.5 C4.3,5.3 4.5,4.9 4.5,4.3 C4.5,3.1 3.6,1.7 2.6,1.1 Z" fill="url(#linearGradient-24)"></path>
                                            <path d="M0.7,2.2 C1.7,2.8 2.6,4.2 2.6,5.4 C2.6,6 2.4,6.4 2,6.6 L3,10.2 L2.3,10.1 L1.4,6.7 C1.2,6.7 1,6.6 0.7,6.5 L0.3,6.3 L0.3,2 L0.7,2.2 Z" fill="#14667F"></path>
                                        </g>
                                        <g transform="translate(0.000000, 2.000000)">
                                            <path d="M1.7,1 L1.3,0.8 L0.8,1.1 L1.2,1.3 C2.3,1.9 3.2,3.5 3.2,4.7 C3.2,5.3 3,5.8 2.6,6 L3.1,5.7 C3.5,5.5 3.7,5.1 3.7,4.4 C3.6,3.2 2.8,1.7 1.7,1 Z" fill="url(#linearGradient-25)"></path>
                                            <path d="M1.1,1.3 C2.2,1.9 3.1,3.5 3.1,4.7 C3.1,6 2.2,6.5 1.1,5.8 L0.7,5.6 L0.7,1 L1.1,1.3 Z" fill="#CACACA"></path>
                                        </g>
                                    </g>
                                </g>
                                <g transform="translate(1.000000, 0.000000)">
                                    <g transform="translate(0.000000, 14.000000)" id="Path">
                                        <g transform="translate(48.000000, 0.000000)">
                                            <polygon fill="#48484D" points="2.4 4.7 0 6.1 0 3.9 2.4 2.5"></polygon>
                                            <g>
                                                <path d="M1.9,1 C1.9,1.4 1.6,2 1.1,2.2 C0.6,2.4 0.3,2.3 0.3,1.9 C0.3,1.5 0.6,0.9 1.1,0.7 C1.6,0.5 1.9,0.5 1.9,1 Z" fill="#48484D"></path>
                                                <path d="M1.6,1.1 C1.6,1.4 1.4,1.7 1.1,1.8 C0.8,1.9 0.6,1.9 0.6,1.6 C0.6,1.3 0.8,1 1.1,0.9 C1.4,0.8 1.6,0.9 1.6,1.1 Z" fill="#72C93F"></path>
                                            </g>
                                        </g>
                                        <g transform="translate(43.000000, 3.000000)">
                                            <polygon fill="#48484D" points="2.6 4.5 0.2 5.9 0.2 3.7 2.6 2.3"></polygon>
                                            <g>
                                                <path d="M2.2,0.7 C2.2,1.1 1.9,1.7 1.4,1.9 C1,2.1 0.6,2 0.6,1.6 C0.6,1.2 0.9,0.6 1.4,0.4 C1.8,0.1 2.2,0.3 2.2,0.7 Z" fill="#48484D"></path>
                                                <path d="M1.9,0.9 C1.9,1.2 1.7,1.5 1.4,1.6 C1.1,1.7 0.9,1.7 0.9,1.4 C0.9,1.1 1.1,0.8 1.4,0.7 C1.7,0.5 1.9,0.6 1.9,0.9 Z" fill="#72C93F"></path>
                                            </g>
                                        </g>
                                        <g transform="translate(38.000000, 6.000000)">
                                            <polygon fill="#48484D" points="2.9 4.2 0.5 5.6 0.5 3.4 2.9 2"></polygon>
                                            <g>
                                                <path d="M2.4,0.4 C2.4,0.8 2.1,1.4 1.6,1.6 C1.2,1.8 0.8,1.7 0.8,1.3 C0.8,0.9 1.1,0.3 1.6,0.1 C2.1,-0.1 2.4,0 2.4,0.4 Z" fill="#48484D"></path>
                                                <path d="M2.1,0.6 C2.1,0.9 1.9,1.2 1.6,1.3 C1.3,1.4 1.1,1.4 1.1,1.1 C1.1,0.8 1.3,0.5 1.6,0.4 C1.9,0.3 2.1,0.3 2.1,0.6 Z" fill="#72C93F"></path>
                                            </g>
                                        </g>
                                        <g transform="translate(33.000000, 8.000000)">
                                            <polygon fill="#48484D" points="3.1 4.9 0.7 6.3 0.7 4.1 3.1 2.7"></polygon>
                                            <g transform="translate(1.000000, 0.000000)">
                                                <path d="M1.7,1.2 C1.7,1.6 1.4,2.2 0.9,2.4 C0.4,2.6 0.1,2.5 0.1,2.1 C0.1,1.7 0.4,1.1 0.9,0.9 C1.4,0.7 1.7,0.8 1.7,1.2 Z" fill="#48484D"></path>
                                                <path d="M1.4,1.3 C1.4,1.6 1.2,1.9 0.9,2 C0.6,2.1 0.4,2.1 0.4,1.8 C0.4,1.5 0.6,1.2 0.9,1.1 C1.2,1 1.4,1.1 1.4,1.3 Z" fill="#72C93F"></path>
                                            </g>
                                        </g>
                                        <g transform="translate(29.000000, 11.000000)">
                                            <polygon fill="#48484D" points="2.4 4.7 0 6.1 0 3.9 2.4 2.5"></polygon>
                                            <g>
                                                <path d="M1.9,0.9 C1.9,1.3 1.6,1.9 1.1,2.1 C0.7,2.3 0.3,2.2 0.3,1.8 C0.3,1.4 0.6,0.8 1.1,0.6 C1.6,0.4 1.9,0.5 1.9,0.9 Z" fill="#48484D"></path>
                                                <path d="M1.6,1.1 C1.6,1.4 1.4,1.7 1.1,1.8 C0.8,1.9 0.6,1.9 0.6,1.6 C0.6,1.3 0.8,1 1.1,0.9 C1.4,0.7 1.6,0.8 1.6,1.1 Z" fill="#72C93F"></path>
                                            </g>
                                        </g>
                                        <g transform="translate(24.000000, 14.000000)">
                                            <polygon fill="#48484D" points="2.6 4.4 0.2 5.8 0.2 3.6 2.6 2.2"></polygon>
                                            <g>
                                                <path d="M2.2,0.7 C2.2,1.1 1.9,1.7 1.4,1.9 C1,2.1 0.6,2 0.6,1.6 C0.6,1.2 0.9,0.6 1.4,0.4 C1.9,0.1 2.2,0.2 2.2,0.7 Z" fill="#48484D"></path>
                                                <path d="M1.9,0.8 C1.9,1.1 1.7,1.4 1.4,1.5 C1.1,1.6 0.9,1.6 0.9,1.3 C0.9,1 1.1,0.7 1.4,0.6 C1.7,0.5 1.9,0.6 1.9,0.8 Z" fill="#72C93F"></path>
                                            </g>
                                        </g>
                                        <g transform="translate(19.000000, 16.000000)">
                                            <polygon fill="#48484D" points="2.9 5.2 0.5 6.6 0.5 4.4 2.9 3"></polygon>
                                            <g>
                                                <path d="M2.4,1.4 C2.4,1.8 2.1,2.4 1.6,2.6 C1.2,2.8 0.8,2.7 0.8,2.3 C0.8,1.9 1.1,1.3 1.6,1.1 C2.1,0.8 2.4,1 2.4,1.4 Z" fill="#48484D"></path>
                                                <path d="M2.1,1.6 C2.1,1.9 1.9,2.2 1.6,2.3 C1.3,2.4 1.1,2.4 1.1,2.1 C1.1,1.8 1.3,1.5 1.6,1.4 C1.9,1.2 2.1,1.3 2.1,1.6 Z" fill="#72C93F"></path>
                                            </g>
                                        </g>
                                        <g transform="translate(14.000000, 19.000000)">
                                            <polygon fill="#48484D" points="3.1 4.9 0.7 6.3 0.7 4.1 3.1 2.7"></polygon>
                                            <g transform="translate(1.000000, 0.000000)">
                                                <path d="M1.7,1.2 C1.7,1.6 1.4,2.2 0.9,2.4 C0.4,2.6 0.1,2.5 0.1,2.1 C0.1,1.7 0.4,1.1 0.9,0.9 C1.4,0.7 1.7,0.7 1.7,1.2 Z" fill="#48484D"></path>
                                                <path d="M1.4,1.3 C1.4,1.6 1.2,1.9 0.9,2 C0.6,2.1 0.4,2.1 0.4,1.8 C0.4,1.5 0.6,1.2 0.9,1.1 C1.2,1 1.4,1.1 1.4,1.3 Z" fill="#72C93F"></path>
                                            </g>
                                        </g>
                                        <g transform="translate(10.000000, 22.000000)">
                                            <polygon fill="#48484D" points="2.4 4.7 0 6 0 3.8 2.4 2.4"></polygon>
                                            <g>
                                                <path d="M1.9,0.9 C1.9,1.3 1.6,1.9 1.1,2.1 C0.7,2.3 0.3,2.2 0.3,1.8 C0.3,1.4 0.6,0.8 1.1,0.6 C1.6,0.3 1.9,0.5 1.9,0.9 Z" fill="#48484D"></path>
                                                <path d="M1.6,1.1 C1.6,1.4 1.4,1.7 1.1,1.8 C0.8,1.9 0.6,1.9 0.6,1.6 C0.6,1.3 0.8,1 1.1,0.9 C1.4,0.7 1.6,0.8 1.6,1.1 Z" fill="#B0F36E" opacity="0.2"></path>
                                            </g>
                                        </g>
                                        <g transform="translate(5.000000, 25.000000)">
                                            <polygon fill="#48484D" points="2.6 4.4 0.2 5.8 0.2 3.6 2.6 2.2"></polygon>
                                            <g>
                                                <path d="M2.2,0.6 C2.2,1 1.9,1.6 1.4,1.8 C1,2 0.6,1.9 0.6,1.5 C0.6,1.1 0.9,0.5 1.4,0.3 C1.9,0.1 2.2,0.2 2.2,0.6 Z" fill="#48484D"></path>
                                                <path d="M1.9,0.8 C1.9,1.1 1.7,1.4 1.4,1.5 C1.1,1.6 0.9,1.6 0.9,1.3 C0.9,1 1.1,0.7 1.4,0.6 C1.7,0.5 1.9,0.5 1.9,0.8 Z" fill="#B0F36E" opacity="0.2"></path>
                                            </g>
                                        </g>
                                        <g transform="translate(0.000000, 27.000000)">
                                            <polygon fill="#48484D" points="2.9 5.1 0.5 6.5 0.5 4.3 2.9 2.9"></polygon>
                                            <g>
                                                <path d="M2.4,1.4 C2.4,1.8 2.1,2.4 1.6,2.6 C1.2,2.8 0.8,2.7 0.8,2.3 C0.8,1.9 1.1,1.3 1.6,1.1 C2.1,0.8 2.4,1 2.4,1.4 Z" fill="#48484D"></path>
                                                <path d="M2.1,1.5 C2.1,1.8 1.9,2.1 1.6,2.2 C1.3,2.3 1.1,2.3 1.1,2 C1.1,1.7 1.3,1.4 1.6,1.3 C1.9,1.2 2.1,1.3 2.1,1.5 Z" fill="#B0F36E" opacity="0.2"></path>
                                            </g>
                                        </g>
                                    </g>
                                    <circle id="Oval" fill="url(#radialGradient-26)" cx="49.1" cy="15.4" r="15.3"></circle>
                                    <circle id="Oval" fill="url(#radialGradient-27)" cx="44.4" cy="18.1" r="15.3"></circle>
                                    <circle id="Oval" fill="url(#radialGradient-28)" cx="39.7" cy="20.9" r="15.3"></circle>
                                    <circle id="Oval" fill="url(#radialGradient-29)" cx="34.9" cy="23.6" r="15.3"></circle>
                                    <circle id="Oval" fill="url(#radialGradient-30)" cx="30.2" cy="26.3" r="15.3"></circle>
                                    <circle id="Oval" fill="url(#radialGradient-31)" cx="25.5" cy="29" r="15.3"></circle>
                                    <circle id="Oval" fill="url(#radialGradient-32)" cx="20.8" cy="31.8" r="15.3"></circle>
                                    <circle id="Oval" fill="url(#radialGradient-33)" cx="16" cy="34.5" r="15.3"></circle>
                                </g>
                            </g>
                            <polygon id="Path" fill="#48484D" points="51.1 11.9 1.4 40.6 1.4 33.9 51.1 5.2"></polygon>
                        </g>
                        <g id="Group" transform="translate(6.000000, 10.000000)" opacity="0.7">
                            <path d="M80,13.8 L57.7,1 C56.6,0.3 55.6,0.9 55.6,2.2 L82,17.4 C82,16 81.1,14.5 80,13.8 Z" id="Path" fill="#3E8C88"></path>
                            <path d="M56.2,0.8 L1.5,32.5 C1.9,32.3 2.4,32.3 3,32.6 L57.7,0.9 C57.1,0.6 56.6,0.6 56.2,0.8 Z" id="Path" fill="#51B1AF"></path>
                            <polygon id="Path" fill="#90E0CB" points="57.7 0.9 3 32.6 25.2 45.5 79.9 13.8"></polygon>
                            <path d="M79.9,13.8 L25.2,45.5 C26.3,46.2 27.3,47.8 27.3,49.1 L82,17.3 C82,16 81.1,14.4 79.9,13.8 Z" id="Path" fill="url(#linearGradient-34)"></path>
                            <path d="M25.2,45.5 L3,32.6 C1.9,31.9 0.9,32.5 0.9,33.8 L27.3,49 C27.3,47.7 26.3,46.1 25.2,45.5 Z" id="Path" fill="#3E8C88"></path>
                        </g>
                    </g>
                </g>
            </g>
        </g>
    </g>
</svg>