<?xml version="1.0" encoding="UTF-8"?>
<svg width="100px" height="116px" viewBox="0 0 100 116" version="1.1" xmlns="http://www.w3.org/2000/svg" xmlns:xlink="http://www.w3.org/1999/xlink">
    <!-- Generator: Sketch 54.1 (76490) - https://sketchapp.com -->
    <title>5</title>
    <desc>Created with Sketch.</desc>
    <defs>
        <linearGradient x1="4.23%" y1="49.4153846%" x2="103.1%" y2="49.4153846%" id="linearGradient-1">
            <stop stop-color="#27262A" offset="0%"></stop>
            <stop stop-color="#2F2F34" offset="59.63%"></stop>
            <stop stop-color="#37373D" offset="100%"></stop>
        </linearGradient>
        <linearGradient x1="-1.13928571%" y1="49.5458333%" x2="98.4178571%" y2="49.5458333%" id="linearGradient-2">
            <stop stop-color="#27262A" offset="0%"></stop>
            <stop stop-color="#2F2F34" offset="59.63%"></stop>
            <stop stop-color="#37373D" offset="100%"></stop>
        </linearGradient>
        <linearGradient x1="-4.24%" y1="52.3923077%" x2="94.63%" y2="52.3923077%" id="linearGradient-3">
            <stop stop-color="#27262A" offset="0%"></stop>
            <stop stop-color="#2F2F34" offset="59.63%"></stop>
            <stop stop-color="#37373D" offset="100%"></stop>
        </linearGradient>
        <linearGradient x1="0.72%" y1="46.6615385%" x2="99.59%" y2="46.6615385%" id="linearGradient-4">
            <stop stop-color="#27262A" offset="0%"></stop>
            <stop stop-color="#2F2F34" offset="59.63%"></stop>
            <stop stop-color="#37373D" offset="100%"></stop>
        </linearGradient>
        <linearGradient x1="1.17857143%" y1="52.2208333%" x2="100.735714%" y2="52.2208333%" id="linearGradient-5">
            <stop stop-color="#27262A" offset="0%"></stop>
            <stop stop-color="#2F2F34" offset="59.63%"></stop>
            <stop stop-color="#37373D" offset="100%"></stop>
        </linearGradient>
        <linearGradient x1="2.25%" y1="49.6384615%" x2="101.12%" y2="49.6384615%" id="linearGradient-6">
            <stop stop-color="#27262A" offset="0%"></stop>
            <stop stop-color="#2F2F34" offset="59.63%"></stop>
            <stop stop-color="#37373D" offset="100%"></stop>
        </linearGradient>
        <linearGradient x1="0.847272727%" y1="50.104001%" x2="101.387273%" y2="50.104001%" id="linearGradient-7">
            <stop stop-color="#C2C4C4" offset="0%"></stop>
            <stop stop-color="#EDEDED" offset="100%"></stop>
        </linearGradient>
        <linearGradient x1="45.044459%" y1="52.6586832%" x2="52.3242954%" y2="47.288223%" id="linearGradient-8">
            <stop stop-color="#DBDBDB" offset="0%"></stop>
            <stop stop-color="#F4F4F4" offset="100%"></stop>
        </linearGradient>
        <linearGradient x1="63.0326087%" y1="14.3682773%" x2="26.273913%" y2="76.1766558%" id="linearGradient-9">
            <stop stop-color="#EDEDED" offset="0%"></stop>
            <stop stop-color="#C2C4C4" offset="100%"></stop>
        </linearGradient>
        <radialGradient cx="75.6793103%" cy="3.46896318%" fx="75.6793103%" fy="3.46896318%" r="122.651724%" gradientTransform="translate(0.756793,0.034690),scale(1.000000,0.888022),translate(-0.756793,-0.034690)" id="radialGradient-10">
            <stop stop-color="#FFFFFF" offset="0%"></stop>
            <stop stop-color="#DBDBDB" offset="100%"></stop>
        </radialGradient>
        <linearGradient x1="44.4907456%" y1="123.414602%" x2="53.7878117%" y2="-9.97964602%" id="linearGradient-11">
            <stop stop-color="#DBDBDB" offset="0%"></stop>
            <stop stop-color="#F4F4F4" offset="100%"></stop>
        </linearGradient>
        <linearGradient x1="92.3221345%" y1="17.1779564%" x2="55.6062141%" y2="45.7469575%" id="linearGradient-12">
            <stop stop-color="#DBDBDB" offset="0%"></stop>
            <stop stop-color="#DEDEDE" offset="8.551061%"></stop>
            <stop stop-color="#EEEEEE" offset="59.97%"></stop>
            <stop stop-color="#F4F4F4" offset="100%"></stop>
        </linearGradient>
        <linearGradient x1="18.5990095%" y1="108.960504%" x2="68.1402845%" y2="13.6574588%" id="linearGradient-13">
            <stop stop-color="#DBDBDB" offset="0%"></stop>
            <stop stop-color="#F4F4F4" offset="100%"></stop>
        </linearGradient>
    </defs>
    <g id="Page-1" stroke="none" stroke-width="1" fill="none" fill-rule="evenodd">
        <g id="19034-[преобразованный]" transform="translate(-216.000000, -11.000000)" fill-rule="nonzero">
            <g id="_x32_">
                <g id="5" transform="translate(216.900000, 11.000000)">
                    <polygon id="Path" fill="#0F5E70" points="98 88.4 53 114.4 20.5 95.6 65.5 69.6"></polygon>
                    <path d="M28.9,100.3 L51.5,86.1 L51,85.8 L27.4,99.4 L26.8,99.1 L28.5,98.1 L14.5,90 L6.7,94.5 L20.7,102.6 L22.8,101.4 L23.4,101.7 L1.42108547e-14,115.2 L0.5,115.5 L25,102.6 L25.2,102.7 C26.1,103.2 27.2,103.2 28.2,102.7 L28.9,102.3 C29.6,101.9 29.6,100.8 28.9,100.3 Z" id="Path" fill="#0F5E70"></path>
                    <g id="_x31_1_1_" transform="translate(25.100000, 33.000000)">
                        <g id="Group">
                            <g id="Axonometric_Cube_25_" transform="translate(17.000000, 60.000000)">
                                <polygon id="Cube_face_-_left_3_" fill="#C2C4C4" points="6.9 11.1 0.8 7.5 0.8 4.6 6.9 8.2"></polygon>
                                <polygon id="Cube_face_-_right_3_" fill="#D7D9D9" points="13.7 7.2 6.9 11.1 6.9 8.2 13.7 4.3"></polygon>
                                <polygon id="Cube_face_-_top_3_" fill="#F4F4F4" points="6.9 8.2 0.8 4.6 7.5 0.7 13.7 4.3"></polygon>
                            </g>
                            <g id="Axonometric_Cube_2_" transform="translate(39.000000, 48.000000)">
                                <polygon id="Cube_face_-_left_1_" fill="#C2C4C4" points="6.9 10.4 0.8 6.8 0.8 3.9 6.9 7.5"></polygon>
                                <polygon id="Cube_face_-_right_1_" fill="#D7D9D9" points="13.7 6.5 6.9 10.4 6.9 7.5 13.7 3.6"></polygon>
                                <polygon id="Cube_face_-_top_1_" fill="#F4F4F4" points="6.9 7.5 0.8 3.9 7.6 0 13.7 3.6"></polygon>
                            </g>
                            <g transform="translate(20.000000, 19.000000)" id="Path">
                                <g transform="translate(22.000000, 0.000000)">
                                    <g transform="translate(3.000000, 27.000000)">
                                        <polygon fill="#48484D" points="4.3 3.8 4.3 5.9 4.6 5.8 4.6 3.7"></polygon>
                                        <path d="M4.3,2.3 C4.1,1.9 3.9,1.5 3.6,1.2 C3.4,0.9 3.1,0.7 2.8,0.5 C2.3,0.2 1.8,0.2 1.5,0.4 L1.2,0.6 C1.5,0.4 2,0.4 2.5,0.7 C2.8,0.9 3,1.1 3.3,1.4 C3.6,1.7 3.8,2.1 4,2.5 C4.2,2.9 4.3,3.4 4.3,3.9 L4.6,3.7 C4.6,3.2 4.5,2.8 4.3,2.3 Z" fill="#5F5F64"></path>
                                        <path d="M2.6,0.7 C1.6,0.1 0.8,0.6 0.8,1.7 L0.8,3.8 L4.4,5.9 L4.4,3.8 C4.4,2.7 3.6,1.3 2.6,0.7 Z" fill="#3B3B3F"></path>
                                        <path d="M3.6,1.2 L3.3,1.4 C3.6,1.7 3.8,2.1 4,2.5 L4.3,2.3 C4.2,1.9 3.9,1.5 3.6,1.2 Z" fill="url(#linearGradient-1)"></path>
                                    </g>
                                    <g>
                                        <polygon fill="#48484D" points="4.9 5.3 6.9 4.1 6.9 32.6 4.9 33.7"></polygon>
                                        <path d="M6.6,2.6 C6.4,2.2 6.1,1.7 5.8,1.4 C5.5,1.1 5.2,0.8 4.9,0.7 C4.3,0.4 3.8,0.4 3.5,0.6 L1.5,1.8 C1.9,1.6 2.4,1.6 2.9,1.9 C3.2,2.1 3.5,2.3 3.8,2.6 C4.1,3 4.4,3.4 4.6,3.8 C4.8,4.3 4.9,4.8 4.9,5.3 L6.9,4.1 C6.9,3.6 6.8,3.1 6.6,2.6 Z" fill="#5F5F64"></path>
                                        <path d="M3.8,2.6 L5.8,1.4 C6.1,1.8 6.4,2.2 6.6,2.6 L4.6,3.8 C4.3,3.3 4.1,2.9 3.8,2.6 L3.8,2.6 Z" fill="url(#linearGradient-2)"></path>
                                        <path d="M2.9,1.8 C4,2.4 4.9,4 4.9,5.2 L4.9,33.7 L0.9,31.4 L0.9,2.9 C0.9,1.7 1.8,1.2 2.9,1.8 Z" fill="#39393D"></path>
                                    </g>
                                    <g transform="translate(0.000000, 29.000000)">
                                        <polygon fill="#48484D" points="4.2 3.7 4.2 5.8 4.5 5.6 4.5 3.5"></polygon>
                                        <path d="M4.1,2.1 C3.9,1.7 3.7,1.3 3.4,1 C3.2,0.7 2.9,0.5 2.6,0.3 C2.1,6.9388939e-18 1.6,6.9388939e-18 1.3,0.2 L1,0.4 C1.3,0.2 1.8,0.2 2.3,0.5 C2.6,0.7 2.8,0.9 3.1,1.2 C3.4,1.5 3.6,1.9 3.8,2.3 C4,2.7 4.1,3.2 4.1,3.7 L4.4,3.5 C4.5,3.1 4.3,2.6 4.1,2.1 Z" fill="#5F5F64"></path>
                                        <path d="M2.4,0.6 C1.4,0 0.6,0.5 0.6,1.6 L0.6,3.7 L4.2,5.8 L4.2,3.7 C4.2,2.5 3.4,1.1 2.4,0.6 Z" fill="#3B3B3F"></path>
                                        <path d="M3.5,1 L3.2,1.2 C3.5,1.5 3.7,1.9 3.9,2.3 L4.2,2.1 C4,1.7 3.7,1.4 3.5,1 Z" fill="url(#linearGradient-3)"></path>
                                    </g>
                                </g>
                                <g transform="translate(0.000000, 13.000000)">
                                    <g transform="translate(3.000000, 26.000000)">
                                        <polygon fill="#48484D" points="4.4 4.5 4.4 6.6 4.7 6.4 4.7 4.3"></polygon>
                                        <path d="M4.4,3 C4.2,2.6 4,2.2 3.7,1.9 C3.5,1.6 3.2,1.4 2.9,1.2 C2.4,0.9 1.9,0.9 1.6,1.1 L1.3,1.3 C1.6,1.1 2.1,1.1 2.6,1.4 C2.9,1.6 3.1,1.8 3.4,2.1 C3.7,2.4 3.9,2.8 4.1,3.2 C4.3,3.6 4.4,4.1 4.4,4.6 L4.7,4.4 C4.7,3.9 4.6,3.4 4.4,3 Z" fill="#5F5F64"></path>
                                        <path d="M2.6,1.4 C1.6,0.8 0.8,1.3 0.8,2.4 L0.8,4.5 L4.4,6.6 L4.4,4.5 C4.4,3.3 3.6,2 2.6,1.4 Z" fill="#3B3B3F"></path>
                                        <path d="M3.7,1.9 L3.4,2.1 C3.7,2.4 3.9,2.8 4.1,3.2 L4.4,3 C4.2,2.6 4,2.2 3.7,1.9 Z" fill="url(#linearGradient-4)"></path>
                                    </g>
                                    <g transform="translate(1.000000, 0.000000)">
                                        <polygon fill="#48484D" points="3.9 4.9 6 3.8 6 32.2 3.9 33.4"></polygon>
                                        <path d="M5.6,2.3 C5.4,1.9 5.1,1.4 4.8,1.1 C4.5,0.8 4.2,0.5 3.9,0.4 C3.3,0.1 2.8,0.1 2.5,0.3 L0.5,1.5 C0.9,1.3 1.4,1.3 1.9,1.6 C2.2,1.8 2.5,2 2.8,2.3 C3.1,2.7 3.4,3.1 3.6,3.5 C3.8,4 3.9,4.5 3.9,5 L5.9,3.8 C6,3.3 5.8,2.8 5.6,2.3 Z" fill="#5F5F64"></path>
                                        <path d="M2.8,2.2 L4.8,1 C5.1,1.4 5.4,1.8 5.6,2.2 L3.6,3.4 C3.4,3 3.1,2.6 2.8,2.2 L2.8,2.2 Z" fill="url(#linearGradient-5)"></path>
                                        <path d="M2,1.5 C3.1,2.1 4,3.7 4,4.9 L4,33.4 L0,31.1 L0,2.6 C0,1.4 0.9,0.9 2,1.5 Z" fill="#39393D"></path>
                                    </g>
                                    <g transform="translate(0.000000, 28.000000)">
                                        <polygon fill="#48484D" points="4.2 4.3 4.2 6.4 4.5 6.3 4.5 4.2"></polygon>
                                        <path d="M4.2,2.8 C4,2.4 3.8,2 3.5,1.7 C3.3,1.4 3,1.2 2.7,1 C2.2,0.7 1.7,0.7 1.4,0.9 L1.1,1.1 C1.4,0.9 1.9,0.9 2.4,1.2 C2.7,1.4 2.9,1.6 3.2,1.9 C3.5,2.2 3.7,2.6 3.9,3 C4.1,3.4 4.2,3.9 4.2,4.4 L4.5,4.2 C4.5,3.7 4.4,3.3 4.2,2.8 Z" fill="#5F5F64"></path>
                                        <path d="M2.4,1.2 C1.4,0.6 0.6,1.1 0.6,2.2 L0.6,4.3 L4.2,6.4 L4.2,4.3 C4.2,3.2 3.4,1.8 2.4,1.2 Z" fill="#3B3B3F"></path>
                                        <path d="M3.5,1.7 L3.2,1.9 C3.5,2.2 3.7,2.6 3.9,3 L4.2,2.8 C4,2.4 3.8,2 3.5,1.7 Z" fill="url(#linearGradient-6)"></path>
                                    </g>
                                </g>
                            </g>
                            <g transform="translate(10.000000, 11.000000)" id="Path">
                                <polygon fill="#ADADAD" points="16.4 40.4 51.8 19.9 53.5 14.1 18.2 34.6"></polygon>
                                <polygon fill="#F4F4F4" points="37.7 0.4 53.5 14.1 18.2 34.6 2.4 20.9"></polygon>
                                <polygon fill="#345E7A" points="52.8 13.9 37.7 0.9 3.2 20.9 18.3 33.9"></polygon>
                                <polygon fill="#C2C4C4" points="2.4 20.9 0.6 26.7 16.4 40.4 18.2 34.6"></polygon>
                            </g>
                            <g>
                                <g id="Path">
                                    <polygon fill="#D7D9D9" points="35.1 53.8 73 31.7 73.4 30.5 35.5 52.6"></polygon>
                                    <polygon fill="#F4F4F4" points="38.6 0.4 73.4 30.5 35.5 52.6 0.7 22.5"></polygon>
                                    <polygon fill="#537A8C" points="71.7 30.2 38.6 1.5 2.5 22.5 35.7 51.2"></polygon>
                                    <polygon fill="#C2C4C4" points="0.7 22.5 0.3 23.7 35.1 53.8 35.5 52.6"></polygon>
                                </g>
                                <path d="M16,27.6 L18.4,29.6 C18.6,29.7 18.6,29.9 18.6,30 C18.6,30.1 18.5,30.2 18.4,30.3 L15.8,31.8 C15.7,31.9 15.5,31.9 15.3,31.9 C15,31.9 14.8,31.8 14.6,31.7 L12.2,29.7 C12.1,29.6 12,29.4 12,29.3 C12,29.2 12.1,29 12.2,29 L14.8,27.5 C14.9,27.4 15.1,27.4 15.3,27.4 C15.5,27.3 15.8,27.4 16,27.6 Z M23.6,22.5 C23.4,22.5 23.3,22.5 23.1,22.6 L20.5,24.1 C20.4,24.2 20.3,24.3 20.3,24.4 C20.3,24.5 20.4,24.7 20.5,24.8 L22.9,26.8 C23.1,27 23.4,27.1 23.6,27.1 L23.6,27.1 C23.8,27.1 23.9,27.1 24.1,27 L26.7,25.5 C26.8,25.4 26.9,25.3 26.9,25.2 C26.9,25.1 26.8,24.9 26.7,24.8 L24.3,22.8 C24.1,22.6 23.9,22.5 23.6,22.5 Z M19.4,24.9 C19.2,24.9 19.1,24.9 18.9,25 L16.3,26.5 C16.2,26.6 16.1,26.7 16.1,26.8 C16.1,26.9 16.2,27.1 16.3,27.2 L18.7,29.2 C18.9,29.4 19.2,29.4 19.4,29.4 C19.6,29.4 19.7,29.4 19.9,29.3 L22.5,27.8 C22.6,27.7 22.7,27.6 22.7,27.5 C22.7,27.4 22.6,27.2 22.5,27.1 L20.1,25.1 C20,25 19.7,24.9 19.4,24.9 Z M46.4,26.6 L46.4,26.6 C46.6,26.6 46.7,26.6 46.9,26.5 L49.5,25 C49.6,24.9 49.7,24.8 49.7,24.7 C49.7,24.6 49.6,24.4 49.5,24.3 L47.1,22.3 C46.9,22.1 46.7,22.1 46.4,22.1 C46.2,22.1 46.1,22.1 45.9,22.2 L43.3,23.7 C43.2,23.8 43.1,23.9 43.1,24 C43.1,24.1 43.2,24.3 43.3,24.4 L45.7,26.4 C45.9,26.5 46.1,26.6 46.4,26.6 Z M42.2,29 C42.4,29 42.5,29 42.7,28.9 L45.3,27.4 C45.4,27.3 45.5,27.2 45.5,27.1 C45.5,27 45.4,26.8 45.3,26.7 L42.9,24.7 C42.7,24.5 42.5,24.5 42.2,24.5 C42,24.5 41.9,24.5 41.7,24.6 L39.1,26.1 C39,26.2 38.9,26.3 38.9,26.4 C38.9,26.5 39,26.7 39.1,26.8 L41.5,28.8 C41.7,28.9 42,29 42.2,29 Z M27.7,20.1 C27.5,20.1 27.4,20.1 27.2,20.2 L24.6,21.7 C24.5,21.8 24.4,21.9 24.4,22 C24.4,22.1 24.5,22.3 24.6,22.4 L27,24.4 C27.2,24.6 27.5,24.7 27.7,24.7 C27.9,24.7 28,24.7 28.2,24.6 L30.8,23.1 C30.9,23 31,22.9 31,22.8 C31,22.7 30.9,22.5 30.8,22.4 L28.4,20.4 C28.3,20.2 28,20.1 27.7,20.1 Z M36.6,32.3 C36.8,32.3 36.9,32.3 37.1,32.2 L39.7,30.7 C39.8,30.6 39.9,30.5 39.9,30.4 C39.9,30.3 39.8,30.1 39.7,30 L37.3,28 C37.1,27.8 36.9,27.8 36.6,27.8 C36.4,27.8 36.3,27.8 36.1,27.9 L33.5,29.4 C33.4,29.5 33.3,29.6 33.3,29.7 C33.3,29.8 33.4,30 33.5,30.1 L35.9,32.1 C36.1,32.2 36.4,32.3 36.6,32.3 Z M33.3,16.8 C33.1,16.8 33,16.8 32.8,16.9 L30.2,18.4 C30.1,18.5 30,18.6 30,18.7 C30,18.8 30.1,19 30.2,19.1 L32.6,21.1 C32.8,21.3 33.1,21.4 33.3,21.4 C33.5,21.4 33.6,21.4 33.8,21.3 L36.4,19.8 C36.5,19.7 36.6,19.6 36.6,19.5 C36.6,19.4 36.5,19.2 36.4,19.1 L34,17.1 C33.9,16.9 33.6,16.8 33.3,16.8 Z M38.2,14.7 C38,14.5 37.8,14.5 37.5,14.5 C37.3,14.5 37.2,14.5 37,14.6 L34.4,16.1 C34.3,16.2 34.2,16.3 34.2,16.4 C34.2,16.5 34.3,16.7 34.4,16.8 L36.8,18.8 C37,19 37.3,19 37.5,19 C37.7,19 37.8,19 38,18.9 L40.6,17.4 C40.7,17.3 40.8,17.2 40.8,17.1 C40.8,17 40.7,16.8 40.6,16.7 L38.2,14.7 Z M42.1,18 C41.9,17.8 41.6,17.7 41.4,17.7 C41.2,17.7 41.1,17.7 40.9,17.8 L38.3,19.3 C38.2,19.4 38.1,19.5 38.1,19.6 C38.1,19.7 38.2,19.9 38.3,20 L40.7,22 C40.9,22.2 41.1,22.2 41.4,22.2 C41.6,22.2 41.7,22.2 41.9,22.1 L44.5,20.6 C44.6,20.5 44.7,20.4 44.7,20.3 C44.7,20.2 44.6,20 44.5,19.9 L42.1,18 Z M32.2,40.4 C32.4,40.4 32.5,40.4 32.7,40.3 L35.3,38.8 C35.4,38.7 35.5,38.6 35.5,38.5 C35.5,38.4 35.4,38.2 35.3,38.1 L32.9,36.1 C32.7,35.9 32.4,35.9 32.2,35.9 C32,35.9 31.9,35.9 31.7,36 L29.1,37.5 C29,37.6 28.9,37.7 28.9,37.8 C28.9,37.9 29,38.1 29.1,38.2 L31.5,40.2 C31.7,40.3 31.9,40.4 32.2,40.4 Z M28,42.8 L28,42.8 C28.2,42.8 28.3,42.8 28.5,42.7 L31.1,41.2 C31.2,41.1 31.3,41 31.3,40.9 C31.3,40.8 31.2,40.6 31.1,40.5 L28.7,38.5 C28.5,38.3 28.2,38.2 28,38.2 C27.8,38.2 27.7,38.2 27.5,38.3 L24.9,39.8 C24.8,39.9 24.7,40 24.7,40.1 C24.7,40.2 24.8,40.4 24.9,40.5 L27.3,42.5 C27.5,42.7 27.8,42.8 28,42.8 Z M37.3,24.8 C37.5,24.8 37.6,24.8 37.8,24.7 L40.4,23.2 C40.5,23.1 40.6,23 40.6,22.9 C40.6,22.8 40.5,22.6 40.4,22.5 L38,20.5 C37.8,20.3 37.5,20.2 37.3,20.2 C37.1,20.2 37,20.2 36.8,20.3 L34.2,21.8 C34.1,21.9 34,22 34,22.1 C34,22.2 34.1,22.4 34.2,22.5 L36.6,24.5 C36.7,24.7 37,24.8 37.3,24.8 Z M27.5,25.8 C27.3,25.8 27.2,25.8 27,25.9 L24.4,27.4 C24.3,27.5 24.2,27.6 24.2,27.7 C24.2,27.8 24.3,28 24.4,28.1 L26.8,30.1 C27,30.3 27.2,30.3 27.5,30.3 C27.7,30.3 27.8,30.3 28,30.2 L30.6,28.7 C30.7,28.6 30.8,28.5 30.8,28.4 C30.8,28.3 30.7,28.1 30.6,28 L28.2,26 C28,25.9 27.7,25.8 27.5,25.8 Z M31.6,23.4 C31.4,23.4 31.3,23.4 31.1,23.5 L28.5,25 C28.4,25.1 28.3,25.2 28.3,25.3 C28.3,25.4 28.4,25.6 28.5,25.7 L30.9,27.7 C31.1,27.9 31.3,27.9 31.6,27.9 C31.8,27.9 31.9,27.9 32.1,27.8 L34.7,26.3 C34.8,26.2 34.9,26.1 34.9,26 C34.9,25.9 34.8,25.7 34.7,25.6 L32.3,23.6 C32.2,23.5 31.9,23.4 31.6,23.4 Z M23.3,28.2 C23.1,28.2 23,28.2 22.8,28.3 L20.2,29.8 C20.1,29.9 20,30 20,30.1 C20,30.2 20.1,30.4 20.2,30.5 L22.6,32.5 C22.8,32.7 23,32.7 23.3,32.7 C23.5,32.7 23.6,32.7 23.8,32.6 L26.4,31.1 C26.5,31 26.6,30.9 26.6,30.8 C26.6,30.7 26.5,30.5 26.4,30.4 L24,28.4 C23.8,28.3 23.6,28.2 23.3,28.2 Z M19.1,30.6 C18.9,30.6 18.8,30.6 18.6,30.7 L16,32.2 C15.9,32.3 15.8,32.4 15.8,32.5 C15.8,32.6 15.9,32.8 16,32.9 L18.4,34.9 C18.6,35.1 18.8,35.1 19.1,35.1 C19.3,35.1 19.4,35.1 19.6,35 L22.2,33.5 C22.3,33.4 22.4,33.3 22.4,33.2 C22.4,33.1 22.3,32.9 22.2,32.8 L19.8,30.8 C19.7,30.7 19.4,30.6 19.1,30.6 Z M59.2,25.7 C59.2,25.8 59.3,26 59.4,26.1 L61.8,28.1 C62,28.3 62.2,28.3 62.5,28.3 C62.7,28.3 62.8,28.3 63,28.2 L65.6,26.7 C65.7,26.6 65.8,26.5 65.8,26.4 C65.8,26.3 65.7,26.1 65.6,26 L63.2,24 C63,23.8 62.7,23.8 62.5,23.8 C62.3,23.8 62.2,23.8 62,23.9 L59.4,25.4 C59.3,25.4 59.2,25.5 59.2,25.7 Z M28.3,37.1 C28.5,37.1 28.6,37.1 28.8,37 L31.4,35.5 C31.5,35.4 31.6,35.3 31.6,35.2 C31.6,35.1 31.5,34.9 31.4,34.8 L29,32.8 C28.8,32.6 28.6,32.6 28.3,32.6 C28.1,32.6 28,32.6 27.8,32.7 L25.2,34.2 C25.1,34.3 25,34.4 25,34.5 C25,34.6 25.1,34.8 25.2,34.9 L27.6,36.9 C27.8,37 28,37.1 28.3,37.1 Z M24.2,39.5 C24.4,39.5 24.5,39.5 24.7,39.4 L27.3,37.9 C27.4,37.8 27.5,37.7 27.5,37.6 C27.5,37.5 27.4,37.3 27.3,37.2 L24.9,35.2 C24.7,35 24.5,35 24.2,35 C24,35 23.9,35 23.7,35.1 L21.1,36.6 C21,36.7 20.9,36.8 20.9,36.9 C20.9,37 21,37.2 21.1,37.3 L23.5,39.3 C23.6,39.4 23.9,39.5 24.2,39.5 Z M36.4,38 C36.6,38 36.7,38 36.9,37.9 L39.5,36.4 C39.6,36.3 39.7,36.2 39.7,36.1 C39.7,36 39.6,35.8 39.5,35.7 L37.1,33.7 C36.9,33.5 36.6,33.5 36.4,33.5 C36.2,33.5 36.1,33.5 35.9,33.6 L33.3,35.1 C33.2,35.2 33.1,35.3 33.1,35.4 C33.1,35.5 33.2,35.7 33.3,35.8 L35.7,37.8 C35.8,37.9 36.1,38 36.4,38 Z M32.5,34.7 C32.7,34.7 32.8,34.7 33,34.6 L35.6,33.1 C35.7,33 35.8,32.9 35.8,32.8 C35.8,32.7 35.7,32.5 35.6,32.4 L33.2,30.4 C33,30.2 32.8,30.2 32.5,30.2 C32.3,30.2 32.2,30.2 32,30.3 L29.4,31.8 C29.3,31.9 29.2,32 29.2,32.1 C29.2,32.2 29.3,32.4 29.4,32.5 L31.8,34.5 C31.9,34.6 32.2,34.7 32.5,34.7 Z M37.4,7.4 C37.6,7.6 37.8,7.6 38.1,7.6 C38.3,7.6 38.4,7.6 38.6,7.5 L41.2,6 C41.3,5.9 41.4,5.8 41.4,5.7 C41.4,5.6 41.3,5.4 41.2,5.3 L38.8,3.3 C38.6,3.1 38.3,3.1 38.1,3.1 C37.9,3.1 37.8,3.1 37.6,3.2 L35,4.7 C34.9,4.8 34.8,4.9 34.8,5 C34.8,5.1 34.9,5.3 35,5.4 L37.4,7.4 Z M29.1,12.2 C29.3,12.4 29.5,12.4 29.8,12.4 C30,12.4 30.1,12.4 30.3,12.3 L32.9,10.8 C33,10.7 33.1,10.6 33.1,10.5 C33.1,10.4 33,10.2 32.9,10.1 L30.5,8.1 C30.3,7.9 30,7.8 29.8,7.8 C29.6,7.8 29.5,7.8 29.3,7.9 L26.7,9.4 C26.6,9.5 26.5,9.6 26.5,9.7 C26.5,9.8 26.6,10 26.7,10.1 L29.1,12.2 Z M33.2,9.8 C33.4,10 33.6,10 33.9,10 C34.1,10 34.2,10 34.4,9.9 L37,8.4 C37.1,8.3 37.2,8.2 37.2,8.1 C37.2,8 37.1,7.8 37,7.7 L34.6,5.7 C34.4,5.5 34.1,5.5 33.9,5.5 C33.7,5.5 33.6,5.5 33.4,5.6 L30.8,7.1 C30.7,7.2 30.6,7.3 30.6,7.4 C30.6,7.5 30.7,7.7 30.8,7.8 L33.2,9.8 Z M24.9,14.6 C25.1,14.8 25.3,14.8 25.6,14.8 C25.8,14.8 25.9,14.8 26.1,14.7 L28.7,13.2 C28.8,13.1 28.9,13 28.9,12.9 C28.9,12.8 28.8,12.6 28.7,12.5 L26.3,10.5 C26.1,10.3 25.8,10.2 25.6,10.2 C25.4,10.2 25.3,10.2 25.1,10.3 L22.5,11.8 C22.4,11.9 22.3,12 22.3,12.1 C22.3,12.2 22.4,12.4 22.5,12.5 L24.9,14.6 Z M11,22.7 C11.2,22.9 11.4,22.9 11.7,22.9 C11.9,22.9 12,22.9 12.2,22.8 L14.8,21.3 C14.9,21.2 15,21.1 15,21 C15,20.9 14.9,20.7 14.8,20.6 L12.4,18.6 C12.2,18.4 11.9,18.4 11.7,18.4 C11.5,18.4 11.4,18.4 11.2,18.5 L8.6,20 C8.5,20.1 8.4,20.2 8.4,20.3 C8.4,20.4 8.5,20.6 8.6,20.7 L11,22.7 Z M15.2,20.3 C15.4,20.5 15.6,20.5 15.9,20.5 C16.1,20.5 16.2,20.5 16.4,20.4 L19,18.9 C19.1,18.8 19.2,18.7 19.2,18.6 C19.2,18.5 19.1,18.3 19,18.2 L16.6,16.2 C16.4,16 16.1,16 15.9,16 C15.7,16 15.6,16 15.4,16.1 L12.8,17.6 C12.7,17.7 12.6,17.8 12.6,17.9 C12.6,18 12.7,18.2 12.8,18.3 L15.2,20.3 Z M19.3,17.9 C19.5,18.1 19.7,18.1 20,18.1 C20.2,18.1 20.3,18.1 20.5,18 L23.1,16.5 C23.2,16.4 23.3,16.3 23.3,16.2 C23.3,16.1 23.2,15.9 23.1,15.8 L20.7,13.8 C20.5,13.6 20.2,13.6 20,13.6 C19.8,13.6 19.7,13.6 19.5,13.7 L16.9,15.2 C16.8,15.3 16.7,15.4 16.7,15.5 C16.7,15.6 16.8,15.8 16.9,15.9 L19.3,17.9 Z M46.4,14.8 C46.4,14.9 46.5,15.1 46.6,15.2 L49,17.2 C49.2,17.4 49.4,17.4 49.7,17.4 C49.9,17.4 50,17.4 50.2,17.3 L52.8,15.8 C52.9,15.7 53,15.6 53,15.5 C53,15.4 52.9,15.2 52.8,15.1 L50.4,13.1 C50.2,12.9 49.9,12.8 49.7,12.8 C49.5,12.8 49.4,12.8 49.2,12.9 L46.6,14.4 C46.5,14.6 46.4,14.7 46.4,14.8 Z M55.3,22.4 C55.3,22.5 55.4,22.7 55.5,22.8 L57.9,24.8 C58.1,25 58.3,25 58.6,25 C58.8,25 58.9,25 59.1,24.9 L61.7,23.4 C61.8,23.3 61.9,23.2 61.9,23.1 C61.9,23 61.8,22.8 61.7,22.7 L59.3,20.7 C59.1,20.5 58.8,20.4 58.6,20.4 C58.4,20.4 58.3,20.4 58.1,20.5 L55.5,22 C55.4,22.1 55.3,22.2 55.3,22.4 Z M51.4,19.1 C51.4,19.2 51.5,19.4 51.6,19.5 L54,21.5 C54.2,21.7 54.5,21.8 54.7,21.8 C54.9,21.8 55,21.8 55.2,21.7 L57.8,20.2 C57.9,20.1 58,20 58,19.9 C58,19.8 57.9,19.6 57.8,19.5 L55.4,17.5 C55.2,17.3 55,17.3 54.7,17.3 C54.5,17.3 54.4,17.3 54.2,17.4 L51.6,18.9 C51.5,18.8 51.4,18.9 51.4,19.1 Z M58.3,30.8 C58.5,30.8 58.6,30.8 58.8,30.7 L61.4,29.2 C61.5,29.1 61.6,29 61.6,28.9 C61.6,28.8 61.5,28.6 61.4,28.5 L59,26.5 C58.8,26.3 58.5,26.3 58.3,26.3 C58.1,26.3 58,26.3 57.8,26.4 L55.2,27.9 C55.1,28 55,28.1 55,28.2 C55,28.3 55.1,28.5 55.2,28.6 L57.6,30.6 C57.8,30.7 58,30.8 58.3,30.8 Z M38.7,8.2 C38.7,8.3 38.8,8.5 38.9,8.6 L41.3,10.6 C41.5,10.8 41.8,10.9 42,10.9 C42.2,10.9 42.3,10.9 42.5,10.8 L45.1,9.3 C45.2,9.2 45.3,9.1 45.3,9 C45.3,8.9 45.2,8.7 45.1,8.6 L42.7,6.6 C42.5,6.4 42.3,6.4 42,6.4 C41.8,6.4 41.7,6.4 41.5,6.5 L38.9,8 C38.8,8 38.7,8.1 38.7,8.2 Z M42.6,11.5 C42.6,11.6 42.7,11.8 42.8,11.9 L45.2,13.9 C45.4,14.1 45.7,14.2 45.9,14.2 C46.1,14.2 46.2,14.2 46.4,14.1 L49,12.6 C49.1,12.5 49.2,12.4 49.2,12.3 C49.2,12.2 49.1,12 49,11.9 L46.6,9.9 C46.4,9.7 46.2,9.7 45.9,9.7 C45.7,9.7 45.6,9.7 45.4,9.8 L42.8,11.3 C42.7,11.3 42.6,11.4 42.6,11.5 Z M6.8,25.1 C7,25.3 7.2,25.3 7.5,25.3 C7.7,25.3 7.8,25.3 8,25.2 L10.6,23.7 C10.7,23.6 10.8,23.5 10.8,23.4 C10.8,23.3 10.7,23.1 10.6,23 L8.2,21 C8,20.8 7.7,20.7 7.5,20.7 C7.3,20.7 7.2,20.7 7,20.8 L4.4,22.3 C4.3,22.4 4.2,22.5 4.2,22.6 C4.2,22.7 4.3,22.9 4.4,23 L6.8,25.1 Z M58.7,32.1 C58.5,31.9 58.2,31.8 58,31.8 C57.8,31.8 57.7,31.8 57.5,31.9 L54.9,33.4 C54.8,33.5 54.7,33.6 54.7,33.7 C54.7,33.8 54.8,34 54.9,34.1 L57.3,36.1 C57.5,36.3 57.8,36.3 58,36.3 L58,36.3 C58.2,36.3 58.3,36.3 58.5,36.2 L61.1,34.7 C61.2,34.6 61.3,34.5 61.3,34.4 C61.3,34.3 61.2,34.1 61.1,34 L58.7,32.1 Z M40.6,42.6 C40.4,42.4 40.1,42.4 39.9,42.4 C39.7,42.4 39.6,42.4 39.4,42.5 L36.8,44 C36.7,44.1 36.6,44.2 36.6,44.3 C36.6,44.4 36.7,44.6 36.8,44.7 L39.2,46.7 C39.4,46.9 39.7,46.9 39.9,46.9 C40.1,46.9 40.2,46.9 40.4,46.8 L43,45.3 C43.1,45.2 43.2,45.1 43.2,45 C43.2,44.9 43.1,44.7 43,44.6 L40.6,42.6 Z M44.8,40.2 C44.6,40 44.3,40 44.1,40 C43.9,40 43.8,40 43.6,40.1 L41,41.6 C40.9,41.7 40.8,41.8 40.8,41.9 C40.8,42 40.9,42.2 41,42.3 L43.4,44.3 C43.6,44.5 43.9,44.6 44.1,44.6 C44.3,44.6 44.4,44.6 44.6,44.5 L47.2,43 C47.3,42.9 47.4,42.8 47.4,42.7 C47.4,42.6 47.3,42.4 47.2,42.3 L44.8,40.2 Z M48.9,37.8 C48.7,37.6 48.4,37.6 48.2,37.6 C48,37.6 47.9,37.6 47.7,37.7 L45.1,39.2 C45,39.3 44.9,39.4 44.9,39.5 C44.9,39.6 45,39.8 45.1,39.9 L47.5,41.9 C47.7,42.1 48,42.2 48.2,42.2 C48.4,42.2 48.5,42.2 48.7,42.1 L51.3,40.6 C51.4,40.5 51.5,40.4 51.5,40.3 C51.5,40.2 51.4,40 51.3,39.9 L48.9,37.8 Z M69.4,29.3 L67,27.3 C66.8,27.1 66.5,27.1 66.3,27.1 C66.1,27.1 66,27.1 65.8,27.2 L63.2,28.7 C63.1,28.8 63,28.9 63,29 C63,29.1 63.1,29.3 63.2,29.4 L65.6,31.4 C65.8,31.6 66.1,31.7 66.3,31.7 C66.5,31.7 66.6,31.7 66.8,31.6 L69.4,30.1 C69.5,30 69.6,29.9 69.6,29.8 C69.6,29.6 69.5,29.4 69.4,29.3 Z M62.9,29.7 C62.7,29.5 62.4,29.5 62.2,29.5 C62,29.5 61.9,29.5 61.7,29.6 L59.1,31.1 C59,31.2 58.9,31.3 58.9,31.4 C58.9,31.5 59,31.7 59.1,31.8 L61.5,33.8 C61.7,34 62,34.1 62.2,34.1 C62.4,34.1 62.5,34.1 62.7,34 L65.3,32.5 C65.4,32.4 65.5,32.3 65.5,32.2 C65.5,32.1 65.4,31.9 65.3,31.8 L62.9,29.7 Z M54.1,33.2 C54.3,33.2 54.4,33.2 54.6,33.1 L57.2,31.6 C57.3,31.5 57.4,31.4 57.4,31.3 C57.4,31.2 57.3,31 57.2,30.9 L54.8,28.9 C54.6,28.7 54.3,28.6 54.1,28.6 C53.9,28.6 53.8,28.6 53.6,28.7 L51,30.2 C50.9,30.3 50.8,30.4 50.8,30.5 C50.8,30.6 50.9,30.8 51,30.9 L53.4,32.9 C53.6,33.1 53.9,33.2 54.1,33.2 Z M54.5,34.5 C54.3,34.3 54,34.2 53.8,34.2 C53.6,34.2 53.5,34.2 53.3,34.3 L50.7,35.8 C50.6,35.9 50.5,36 50.5,36.1 C50.5,36.2 50.6,36.4 50.7,36.5 L53.1,38.5 C53.3,38.7 53.6,38.7 53.8,38.7 C54,38.7 54.1,38.7 54.3,38.6 L56.9,37.1 C57,37 57.1,36.9 57.1,36.8 C57.1,36.7 57,36.5 56.9,36.4 L54.5,34.5 Z M36.5,45 C36.3,44.8 36,44.7 35.8,44.7 C35.6,44.7 35.5,44.7 35.3,44.8 L32.7,46.3 C32.6,46.4 32.5,46.5 32.5,46.6 C32.5,46.7 32.6,46.9 32.7,47 L35.1,49 C35.3,49.2 35.6,49.2 35.8,49.2 C36,49.2 36.1,49.2 36.3,49.1 L38.9,47.6 C39,47.5 39.1,47.4 39.1,47.3 C39.1,47.2 39,47 38.9,46.9 L36.5,45 Z M29.5,13.5 C29.3,13.5 29.2,13.5 29,13.6 L26.4,15.1 C26.3,15.2 26.2,15.3 26.2,15.4 C26.2,15.5 26.3,15.7 26.4,15.8 L28.8,17.8 C29,18 29.3,18 29.5,18 C29.7,18 29.8,18 30,17.9 L32.6,16.4 C32.7,16.3 32.8,16.2 32.8,16.1 C32.8,16 32.7,15.8 32.6,15.7 L30.2,13.7 C30,13.6 29.7,13.5 29.5,13.5 Z M38.5,9 C38.3,8.8 38.1,8.8 37.8,8.8 C37.6,8.8 37.5,8.8 37.3,8.9 L34.7,10.4 C34.6,10.5 34.5,10.6 34.5,10.7 C34.5,10.8 34.6,11 34.7,11.1 L37.1,13.1 C37.3,13.3 37.6,13.4 37.8,13.4 C38,13.4 38.1,13.4 38.3,13.3 L40.9,11.8 C41,11.7 41.1,11.6 41.1,11.5 C41.1,11.4 41,11.2 40.9,11.1 L38.5,9 Z M23.9,16.8 C23.7,16.8 23.6,16.8 23.4,16.9 L20.8,18.4 C20.7,18.5 20.6,18.6 20.6,18.7 C20.6,18.8 20.7,19 20.8,19.1 L23.2,21.1 C23.4,21.3 23.7,21.4 23.9,21.4 C24.1,21.4 24.2,21.4 24.4,21.3 L27,19.8 C27.1,19.7 27.2,19.6 27.2,19.5 C27.2,19.4 27.1,19.2 27,19.1 L24.6,17.1 C24.4,16.9 24.1,16.8 23.9,16.8 Z M33.6,11.1 C33.4,11.1 33.3,11.1 33.1,11.2 L30.5,12.7 C30.4,12.8 30.3,12.9 30.3,13 C30.3,13.1 30.4,13.3 30.5,13.4 L32.9,15.4 C33.1,15.6 33.4,15.6 33.6,15.6 C33.8,15.6 33.9,15.6 34.1,15.5 L36.7,14 C36.8,13.9 36.9,13.8 36.9,13.7 C36.9,13.6 36.8,13.4 36.7,13.3 L34.3,11.3 C34.2,11.2 33.9,11.1 33.6,11.1 Z M19.7,19.2 C19.5,19.2 19.4,19.2 19.2,19.3 L16.6,20.8 C16.5,20.9 16.4,21 16.4,21.1 C16.4,21.2 16.5,21.4 16.6,21.5 L19,23.5 C19.2,23.7 19.5,23.8 19.7,23.8 C19.9,23.8 20,23.8 20.2,23.7 L22.8,22.2 C22.9,22.1 23,22 23,21.9 C23,21.8 22.9,21.6 22.8,21.5 L20.4,19.5 C20.2,19.3 20,19.2 19.7,19.2 Z M11.4,24 C11.2,24 11.1,24 10.9,24.1 L8.3,25.6 C8.2,25.7 8.1,25.8 8.1,25.9 C8.1,26 8.2,26.2 8.3,26.3 L10.7,28.3 C10.9,28.5 11.2,28.5 11.4,28.5 C11.6,28.5 11.7,28.5 11.9,28.4 L14.5,26.9 C14.6,26.8 14.7,26.7 14.7,26.6 C14.7,26.5 14.6,26.3 14.5,26.2 L12.1,24.2 C11.9,24.1 11.7,24 11.4,24 Z M15.6,21.6 C15.4,21.6 15.3,21.6 15.1,21.7 L12.5,23.2 C12.4,23.3 12.3,23.4 12.3,23.5 C12.3,23.6 12.4,23.8 12.5,23.9 L14.9,25.9 C15.1,26.1 15.4,26.1 15.6,26.1 C15.8,26.1 15.9,26.1 16.1,26 L18.7,24.5 C18.8,24.4 18.9,24.3 18.9,24.2 C18.9,24.1 18.8,23.9 18.7,23.8 L16.3,21.8 C16.1,21.7 15.8,21.6 15.6,21.6 Z M54.4,27.5 C54.6,27.5 54.7,27.5 54.9,27.4 L57.5,25.9 C57.6,25.8 57.7,25.7 57.7,25.6 C57.7,25.5 57.6,25.3 57.5,25.2 L55.1,23.2 C54.9,23 54.6,23 54.4,23 C54.2,23 54.1,23 53.9,23.1 L51.3,24.6 C51.2,24.7 51.1,24.8 51.1,24.9 C51.1,25 51.2,25.2 51.3,25.3 L53.7,27.3 C53.9,27.4 54.2,27.5 54.4,27.5 Z M50.3,29.9 C50.5,29.9 50.6,29.9 50.8,29.8 L53.4,28.3 C53.5,28.2 53.6,28.1 53.6,28 C53.6,27.9 53.5,27.7 53.4,27.6 L51,25.6 C50.8,25.4 50.5,25.3 50.3,25.3 C50.1,25.3 50,25.3 49.8,25.4 L47.2,26.9 C47.1,27 47,27.1 47,27.2 C47,27.3 47.1,27.5 47.2,27.6 L49.6,29.6 C49.7,29.8 50,29.9 50.3,29.9 Z M46.1,32.3 C46.3,32.3 46.4,32.3 46.6,32.2 L49.2,30.7 C49.3,30.6 49.4,30.5 49.4,30.4 C49.4,30.3 49.3,30.1 49.2,30 L46.8,28 C46.6,27.8 46.3,27.7 46.1,27.7 C45.9,27.7 45.8,27.7 45.6,27.8 L43,29.3 C42.9,29.4 42.8,29.5 42.8,29.6 C42.8,29.7 42.9,29.9 43,30 L45.4,32 C45.6,32.2 45.8,32.3 46.1,32.3 Z M46.3,15.6 C46.1,15.4 45.8,15.4 45.6,15.4 C45.4,15.4 45.3,15.4 45.1,15.5 L42.5,17 C42.4,17.1 42.3,17.2 42.3,17.3 C42.3,17.4 42.4,17.6 42.5,17.7 L44.9,19.7 C45.1,19.9 45.3,19.9 45.6,19.9 C45.8,19.9 45.9,19.9 46.1,19.8 L48.7,18.3 C48.8,18.2 48.9,18.1 48.9,18 C48.9,17.9 48.8,17.7 48.7,17.6 L46.3,15.6 Z M42.4,12.3 C42.2,12.1 42,12.1 41.7,12.1 C41.5,12.1 41.4,12.1 41.2,12.2 L38.6,13.7 C38.5,13.8 38.4,13.9 38.4,14 C38.4,14.1 38.5,14.3 38.6,14.4 L41,16.4 C41.2,16.6 41.5,16.7 41.7,16.7 C41.9,16.7 42,16.7 42.2,16.6 L44.8,15.1 C44.9,15 45,14.9 45,14.8 C45,14.7 44.9,14.5 44.8,14.4 L42.4,12.3 Z M51.2,19.8 C51,19.6 50.8,19.6 50.5,19.6 C50.3,19.6 50.2,19.6 50,19.7 L47.4,21.2 C47.3,21.3 47.2,21.4 47.2,21.5 C47.2,21.6 47.3,21.8 47.4,21.9 L49.8,23.9 C50,24.1 50.3,24.2 50.5,24.2 C50.7,24.2 50.8,24.2 51,24.1 L53.6,22.6 C53.7,22.5 53.8,22.4 53.8,22.3 C53.8,22.2 53.7,22 53.6,21.9 L51.2,19.8 Z M36.1,43.7 C36.3,43.7 36.4,43.7 36.6,43.6 L39.2,42.1 C39.3,42 39.4,41.9 39.4,41.8 C39.4,41.7 39.3,41.5 39.2,41.4 L36.8,39.4 C36.6,39.2 36.3,39.2 36.1,39.2 C35.9,39.2 35.8,39.2 35.6,39.3 L33,40.8 C32.9,40.9 32.8,41 32.8,41.1 C32.8,41.2 32.9,41.4 33,41.5 L35.4,43.5 C35.5,43.6 35.8,43.7 36.1,43.7 Z M50,35.6 C50.2,35.6 50.3,35.6 50.5,35.5 L53,34 C53.1,33.9 53.2,33.8 53.2,33.7 C53.2,33.6 53.1,33.4 53,33.3 L50.6,31.3 C50.4,31.1 50.1,31 49.9,31 C49.7,31 49.6,31 49.4,31.1 L46.8,32.6 C46.7,32.7 46.6,32.8 46.6,32.9 C46.6,33 46.7,33.2 46.8,33.3 L49.2,35.3 C49.5,35.5 49.7,35.6 50,35.6 Z M44.4,38.9 C44.6,38.9 44.7,38.9 44.9,38.8 L47.5,37.3 C47.6,37.2 47.7,37.1 47.7,37 C47.7,36.9 47.6,36.7 47.5,36.6 L45.1,34.6 C44.9,34.4 44.6,34.4 44.4,34.4 C44.2,34.4 44.1,34.4 43.9,34.5 L41.3,36 C41.2,36.1 41.1,36.2 41.1,36.3 C41.1,36.4 41.2,36.6 41.3,36.7 L43.7,38.7 C43.9,38.8 44.1,38.9 44.4,38.9 Z M40.2,41.3 C40.4,41.3 40.5,41.3 40.7,41.2 L43.3,39.7 C43.4,39.6 43.5,39.5 43.5,39.4 C43.5,39.3 43.4,39.1 43.3,39 L40.9,37 C40.7,36.8 40.4,36.8 40.2,36.8 C40,36.8 39.9,36.8 39.7,36.9 L37.1,38.4 C37,38.5 36.9,38.6 36.9,38.7 C36.9,38.8 37,39 37.1,39.1 L39.5,41.1 C39.7,41.2 40,41.3 40.2,41.3 Z M31.9,46.1 C32.1,46.1 32.2,46.1 32.4,46 L35,44.5 C35.1,44.4 35.2,44.3 35.2,44.2 C35.2,44.1 35.1,43.9 35,43.8 L32.6,41.8 C32.4,41.6 32.1,41.5 31.9,41.5 C31.7,41.5 31.6,41.5 31.4,41.6 L28.8,43.1 C28.7,43.2 28.6,43.3 28.6,43.4 C28.6,43.5 28.7,43.7 28.8,43.8 L31.2,45.8 C31.4,46 31.6,46.1 31.9,46.1 Z M40.5,35.6 C40.7,35.6 40.8,35.6 41,35.5 L43.6,34 C43.7,33.9 43.8,33.8 43.8,33.7 C43.8,33.6 43.7,33.4 43.6,33.3 L41.2,31.3 C41,31.1 40.7,31 40.5,31 C40.3,31 40.2,31 40,31.1 L37.4,32.6 C37.3,32.7 37.2,32.8 37.2,32.9 C37.2,33 37.3,33.2 37.4,33.3 L39.8,35.3 C40,35.5 40.2,35.6 40.5,35.6 Z" id="Shape" fill="#B1DBE0" opacity="0.5"></path>
                            </g>
                        </g>
                        <g id="Axonometric_Cylinder_1_" transform="translate(21.000000, 62.000000)" fill="#C2C4C4">
                            <path d="M1.9,1.3 C1.9,1.7 1.6,1.9 1.2,1.7 C0.8,1.5 0.5,1 0.5,0.6 C0.5,0.2 0.8,2.84217094e-14 1.2,0.2 C1.6,0.4 1.9,0.9 1.9,1.3 Z" id="Cylinder_face_102_"></path>
                        </g>
                        <g id="Axonometric_Cylinder_5_" transform="translate(43.000000, 49.000000)" fill="#C2C4C4">
                            <path d="M1.9,1.6 C1.9,2 1.6,2.2 1.2,2 C0.8,1.8 0.5,1.3 0.5,0.9 C0.5,0.5 0.8,0.3 1.2,0.5 C1.6,0.7 1.9,1.2 1.9,1.6 Z" id="Cylinder_face_104_"></path>
                        </g>
                    </g>
                    <g id="_x31_2_1_" transform="translate(7.100000, 0.000000)">
                        <path d="M15.8,95.1 C17.8,96.2 17.8,98.1 15.8,99.2 C13.8,100.3 10.6,100.3 8.6,99.2 C6.6,98.1 6.6,96.2 8.6,95.1 C10.6,94 13.8,94 15.8,95.1 Z" id="Path" fill="#F4F4F4"></path>
                        <g id="Group" transform="translate(9.000000, 24.000000)">
                            <path d="M4.6,0.8 C4.6,0.6 4.5,0.5 4.3,0.3 C3.8,-1.38777878e-17 3.1,-1.38777878e-17 2.6,0.3 C2.4,0.4 2.2,0.6 2.2,0.8 C1.6,24.9 1,48.9 0.4,72.9 C0.4,73.3 0.6,73.7 1.2,74 C2.3,74.6 4,74.7 5.1,74 C5.7,73.7 5.9,73.3 5.9,72.8 C5.5,48.9 5.1,24.9 4.6,0.8 Z" id="Path" fill="url(#linearGradient-7)"></path>
                            <path d="M4.3,0.3 C3.8,0 3.1,0 2.6,0.3 C2.1,0.6 2.1,1 2.6,1.3 C3.1,1.6 3.8,1.6 4.3,1.3 C4.7,1.1 4.7,0.6 4.3,0.3 Z" id="Path" fill="#C2C4C4"></path>
                        </g>
                        <g id="Group">
                            <g transform="translate(6.000000, 16.000000)" id="Path">
                                <path d="M6.6,1.3 C5.8,0.8 5,0.8 4.5,1.1 L1.7,2.8 C2.2,2.5 3,2.5 3.8,3 L7.6,5.2 L10.4,3.5 L6.6,1.3 Z" fill="#F4F4F4"></path>
                                <path d="M10.3,3.5 L7.5,5.2 C8.2,5.6 8.8,6.7 8.8,7.5 L8.8,9.7 C8.8,10.1 8.7,10.3 8.4,10.5 L11.2,8.8 C11.4,8.7 11.6,8.4 11.6,8 L11.6,5.8 C11.7,5 11.1,3.9 10.3,3.5 Z" fill="#D7D9D9"></path>
                                <path d="M10.3,3.5 L7.5,5.2 C8.2,5.6 8.8,6.7 8.8,7.5 L11.6,5.8 C11.7,5 11.1,3.9 10.3,3.5 Z" fill="#F4F4F4" opacity="0.6"></path>
                                <path d="M7.5,5.2 L3.7,3 C2.1,2.1 0.7,2.8 0.7,4.7 L0.7,5.1 C0.7,5.9 1.2,6.8 1.9,7.2 L7.6,10.5 C8.3,10.9 8.8,10.6 8.8,9.8 L8.8,7.6 C8.8,6.6 8.2,5.6 7.5,5.2 Z" fill="#C2C4C4"></path>
                            </g>
                            <path d="M15.2,24.8 C15.2,25.6 15.8,25.9 16.4,25.5 C17.1,25.1 17.6,24.1 17.6,23.3 C17.6,22.5 17,22.2 16.4,22.6 C15.7,23 15.2,24 15.2,24.8 Z" id="Path" fill="#C2C4C4"></path>
                            <path d="M10.3,22.1 L7.6,20.5 L7.6,20.1 L10.3,21.7 L10.3,22.1 Z M10.3,22.6 L7.6,21 L7.6,21.4 L10.3,23 L10.3,22.6 Z M11.5,22.2 C11.2,22 10.9,22.2 10.9,22.6 C10.9,23 11.2,23.5 11.5,23.7 C11.8,23.9 12.1,23.7 12.1,23.3 C12.1,22.9 11.8,22.4 11.5,22.2 Z" id="Shape" fill="#39393D" opacity="0.7"></path>
                            <path d="M36,25.1 C36,25.1 36,25.1 36,25.1 L36,25.1 C35.9,25.1 35.9,25.1 36,25.1 L19.1,24.4 L18.8,25.2 L21.6,27.5 C21.6,27.5 21.7,27.6 21.7,27.6 L21.8,27.6 C21.8,27.6 21.7,27.6 21.7,27.5 C21.8,27.6 22,27.7 22.2,27.7 L35.6,26.3 C35.8,26.2 36.2,25.1 36,25.1 Z" id="Path" fill="url(#linearGradient-8)"></path>
                            <g transform="translate(15.000000, 22.000000)" id="Path">
                                <path d="M4.2,1.7 C4.2,1.7 4.2,1.7 4.2,1.7 L2.4,0.6 C2.2,0.5 1.9,0.5 1.5,0.7 C0.8,1.1 0.3,2 0.3,2.8 C0.3,3.2 0.4,3.4 0.7,3.6 L2.5,4.6 C2.5,4.6 2.5,4.6 2.5,4.6 L3.2,5 C3,4.9 2.9,4.6 2.8,4.2 C2.8,3.4 3.3,2.5 4,2.1 C4.3,1.9 4.6,1.9 4.9,2 L4.2,1.7 Z" fill="url(#linearGradient-9)"></path>
                                <path d="M4.9,2.1 C4.7,2 4.4,2 4,2.2 C3.3,2.6 2.8,3.5 2.8,4.3 C2.8,4.7 2.9,4.9 3.2,5.1 C3.4,5.2 3.6,5.3 4,5.3 C4.3,5.3 4.6,5.2 4.9,5.1 C5.5,4.7 5.7,4.1 5.7,3.6 C5.7,3.1 5.6,2.5 4.9,2.1 Z" fill="url(#radialGradient-10)"></path>
                            </g>
                            <path d="M20,16.7 L18.5,1 C18.5,1 18.5,0.9 18.5,0.9 C18.5,0.9 18.5,0.9 18.5,0.9 L18.4,0.9 C18.3,0.9 18.2,0.9 18,1 C17.7,1.2 17.5,1.4 17.5,1.6 L17.6,23.5 L17.7,23.5 L18.3,23.1 L20,17.5 C20,17.3 20.1,17 20,16.7 Z" id="Path" fill="url(#linearGradient-11)"></path>
                            <path d="M16.7,25.8 L12.4,29.2 C12.2,29.4 12,29.6 11.8,29.9 L0.6,46.9 C0.5,47.1 0.7,47.4 0.9,47.5 L1,47.5 C1,47.5 1,47.5 1,47.5 C1.1,47.6 1.2,47.6 1.3,47.5 C1.3,47.5 1.3,47.5 1.4,47.4 L17.3,26.1 L16.7,25.8 L16.7,25.8 Z" id="Path" fill="url(#linearGradient-12)"></path>
                            <path d="M20.4,24.7 C20.6,25.1 20.5,25.5 20.2,25.6 C19.9,25.7 19.5,25.6 19.3,25.3 C19.1,24.9 19.2,24.5 19.5,24.4 C19.8,24.2 20.2,24.4 20.4,24.7 Z" id="Path" fill="url(#linearGradient-13)" opacity="0.6"></path>
                        </g>
                    </g>
                </g>
            </g>
        </g>
    </g>
</svg>