<?xml version="1.0" encoding="UTF-8"?>
<svg width="99px" height="92px" viewBox="0 0 99 92" version="1.1" xmlns="http://www.w3.org/2000/svg" xmlns:xlink="http://www.w3.org/1999/xlink">
    <!-- Generator: Sketch 54.1 (76490) - https://sketchapp.com -->
    <title>6</title>
    <desc>Created with Sketch.</desc>
    <defs>
        <linearGradient x1="0.107617723%" y1="49.9079291%" x2="100.031033%" y2="49.9079291%" id="linearGradient-1">
            <stop stop-color="#3B3B3F" offset="0%"></stop>
            <stop stop-color="#48484D" offset="100%"></stop>
        </linearGradient>
        <linearGradient x1="-0.0268867925%" y1="49.9649774%" x2="99.8641509%" y2="49.9649774%" id="linearGradient-2">
            <stop stop-color="#C2C2C2" offset="0%"></stop>
            <stop stop-color="#AEAEAE" offset="100%"></stop>
        </linearGradient>
        <linearGradient x1="0.278680203%" y1="50.6164635%" x2="100.060406%" y2="50.6164635%" id="linearGradient-3">
            <stop stop-color="#D6D6D6" offset="0%"></stop>
            <stop stop-color="#B9B9B9" offset="100%"></stop>
        </linearGradient>
        <linearGradient x1="9.92530563%" y1="50.234569%" x2="90.3949918%" y2="50.234569%" id="linearGradient-4">
            <stop stop-color="#B9B9B9" offset="0%"></stop>
            <stop stop-color="#DDDDDD" offset="84.5%"></stop>
            <stop stop-color="#E4E4E4" offset="100%"></stop>
        </linearGradient>
        <linearGradient x1="-0.136641249%" y1="50.2700922%" x2="99.8823961%" y2="50.2700922%" id="linearGradient-5">
            <stop stop-color="#3B3B3F" offset="0%"></stop>
            <stop stop-color="#48484D" offset="100%"></stop>
        </linearGradient>
        <linearGradient x1="0.0287735849%" y1="50.1745551%" x2="99.9188679%" y2="50.1745551%" id="linearGradient-6">
            <stop stop-color="#C2C2C2" offset="0%"></stop>
            <stop stop-color="#AEAEAE" offset="100%"></stop>
        </linearGradient>
        <linearGradient x1="0.338071066%" y1="49.8230242%" x2="100.119797%" y2="49.8230242%" id="linearGradient-7">
            <stop stop-color="#D6D6D6" offset="0%"></stop>
            <stop stop-color="#B9B9B9" offset="100%"></stop>
        </linearGradient>
        <linearGradient x1="9.95994605%" y1="50.1264101%" x2="90.4296322%" y2="50.1264101%" id="linearGradient-8">
            <stop stop-color="#B9B9B9" offset="0%"></stop>
            <stop stop-color="#DDDDDD" offset="84.5%"></stop>
            <stop stop-color="#E4E4E4" offset="100%"></stop>
        </linearGradient>
        <linearGradient x1="-0.409756098%" y1="49.7983699%" x2="98.5121951%" y2="49.7983699%" id="linearGradient-9">
            <stop stop-color="#B9B9B9" offset="0%"></stop>
            <stop stop-color="#DDDDDD" offset="84.5%"></stop>
            <stop stop-color="#E4E4E4" offset="100%"></stop>
        </linearGradient>
        <linearGradient x1="-1.925%" y1="49.2421053%" x2="99.496875%" y2="49.2421053%" id="linearGradient-10">
            <stop stop-color="#C2C2C2" offset="0%"></stop>
            <stop stop-color="#AEAEAE" offset="100%"></stop>
        </linearGradient>
        <linearGradient x1="-0.404878049%" y1="50.020423%" x2="98.5121951%" y2="50.020423%" id="linearGradient-11">
            <stop stop-color="#615F5F" offset="0%"></stop>
            <stop stop-color="#787676" offset="100%"></stop>
        </linearGradient>
        <linearGradient x1="-0.434146341%" y1="49.9824451%" x2="98.4878049%" y2="49.9824451%" id="linearGradient-12">
            <stop stop-color="#B9B9B9" offset="0%"></stop>
            <stop stop-color="#DDDDDD" offset="84.5%"></stop>
            <stop stop-color="#E4E4E4" offset="100%"></stop>
        </linearGradient>
        <linearGradient x1="-1.95625%" y1="51.1780822%" x2="99.465625%" y2="51.1780822%" id="linearGradient-13">
            <stop stop-color="#C2C2C2" offset="0%"></stop>
            <stop stop-color="#AEAEAE" offset="100%"></stop>
        </linearGradient>
        <linearGradient x1="-0.429268293%" y1="49.9428155%" x2="98.4878049%" y2="49.9428155%" id="linearGradient-14">
            <stop stop-color="#615F5F" offset="0%"></stop>
            <stop stop-color="#787676" offset="100%"></stop>
        </linearGradient>
        <linearGradient x1="0.183412322%" y1="49.9648515%" x2="99.9184834%" y2="49.9648515%" id="linearGradient-15">
            <stop stop-color="#72C9B2" offset="0%"></stop>
            <stop stop-color="#61BDB0" offset="57.04%"></stop>
            <stop stop-color="#51B1AF" offset="100%"></stop>
        </linearGradient>
        <linearGradient x1="0.222580645%" y1="49.9292208%" x2="100.191613%" y2="49.9292208%" id="linearGradient-16">
            <stop stop-color="#72C9B2" offset="0%"></stop>
            <stop stop-color="#61BDB0" offset="57.04%"></stop>
            <stop stop-color="#51B1AF" offset="100%"></stop>
        </linearGradient>
        <linearGradient x1="-0.0487179487%" y1="49.8454414%" x2="100.888462%" y2="49.8454414%" id="linearGradient-17">
            <stop stop-color="#B9B9B9" offset="0%"></stop>
            <stop stop-color="#DDDDDD" offset="84.5%"></stop>
            <stop stop-color="#E4E4E4" offset="100%"></stop>
        </linearGradient>
        <linearGradient x1="-0.0666666667%" y1="50.1458755%" x2="100.869231%" y2="50.1458755%" id="linearGradient-18">
            <stop stop-color="#B9B9B9" offset="0%"></stop>
            <stop stop-color="#DDDDDD" offset="84.5%"></stop>
            <stop stop-color="#E4E4E4" offset="100%"></stop>
        </linearGradient>
    </defs>
    <g id="Page-1" stroke="none" stroke-width="1" fill="none" fill-rule="evenodd">
        <g id="19034-[преобразованный]" transform="translate(-277.000000, -297.000000)" fill-rule="nonzero">
            <g id="_x32_">
                <g id="6" transform="translate(277.000000, 297.000000)">
                    <path d="M99,58.1 L74.5,44 L38.4,64.9 C40.7,60.1 37.2,54.9 29.4,52.3 C20.1,49.2 8.3,51 2.9,56.4 C-1.4,60.7 -0.2,66 5.3,69.5 L1.2,71.9 C0.6,72.2 0.3,72.8 0.3,73.4 C0.3,74 0.6,74.6 1.2,74.9 L23,87.5 C23,87.5 23,87.5 23,87.5 L29.5,91.2 C30,91.5 30.6,91.7 31.2,91.7 C31.8,91.7 32.4,91.5 32.9,91.2 L36.4,89.2 L39.8,91.1 L46.6,87.2 L50.8,89.6 L65.4,81.1 L64.1,78.4 L79.5,68.8 L83.1,70.9 L93,65.2 L89.9,63.4 L99,58.1 Z M6.1,69.8 C7.3,70.5 8.6,71.1 10,71.6 C18.1,74.3 28,73.2 34,69.4 L35.3,70.1 L26.1,75.4 L27.3,76.1 L22.4,78.9 C21.3,79.5 20,79.5 18.9,78.9 L4.5,70.6 L6.1,69.8 Z M23.4,86.8 L8.1,78 C8.1,78 8.1,78 8.1,78 L1.6,74.3 C1.3,74.1 1.1,73.8 1.1,73.4 C1.1,73 1.3,72.7 1.6,72.5 L3.9,71.2 L18.7,79.7 C19.4,80.1 20.1,80.3 20.8,80.3 C21.5,80.3 22.3,80.1 22.9,79.7 L28.2,76.6 L33.2,79.5 L26.4,83.4 L29.2,85 L26.1,86.8 C25.2,87.2 24.2,87.2 23.4,86.8 Z M32.5,90.5 C31.7,91 30.7,91 29.9,90.5 L25.2,87.8 C25.6,87.7 26,87.6 26.4,87.4 L29.9,85.4 L33.3,87.4 L33.3,87.4 L35.6,88.7 L32.5,90.5 Z" id="Shape" fill="#0F5E70"></path>
                    <g id="_x31_0_3_">
                        <g id="_x31_0_1_">
                            <g id="Group" transform="translate(28.000000, 0.000000)">
                                <path d="M36.7,44.9 L36.3,42.6 C36.9,45.6 35.1,48.8 31.1,51.1 C24.1,55 13,54.9 6.2,50.8 C2.4,48.5 0.7,45.4 1.3,42.5 C1.1,43.3 1,44 0.8,44.8 C0.2,47.8 1.8,51 5.8,53.3 C12.8,57.5 24.2,57.6 31.4,53.6 C35.6,51.2 37.4,48 36.7,44.9 Z" id="Path" fill="url(#linearGradient-1)"></path>
                                <path d="M31.4,36.6 C24.6,32.5 13.5,32.4 6.5,36.3 C-0.5,40.2 -0.6,46.7 6.1,50.7 C12.8,54.7 24,54.9 31,51 C38,47.1 38.2,40.7 31.4,36.6 Z" id="Path" fill="#5F5F64"></path>
                                <path d="M28.9,25.9 C28.9,24.4 28,22.9 26,21.7 C22.1,19.4 15.7,19.3 11.7,21.6 C9.6,22.8 8.6,24.3 8.6,25.9 C8.5,22.6 8.4,19.3 8.4,16 C8.4,15.7 8.4,15.4 8.4,15.1 C8.4,14.6 8.4,13.8 8.4,13.3 C8.4,13 8.4,12.7 8.4,12.4 C8.4,11.5 8.4,10.6 8.3,9.7 C8.3,9.2 8.3,8.4 8.3,7.9 C8.3,6.3 9.3,4.6 11.5,3.4 C15.7,1 22.4,1.1 26.5,3.6 C28.5,4.8 29.5,6.4 29.5,8 C29.3,13.9 29.1,19.9 28.9,25.9 Z" id="Path" fill="url(#linearGradient-2)"></path>
                                <path d="M28.7,7.8 C28.7,6.4 27.8,4.9 25.9,3.8 C22.1,1.5 15.9,1.5 12,3.7 C10,4.8 9,6.3 9,7.8 L9,7.3 C9,5.8 10,4.3 12,3.2 C15.9,1 22.1,1.1 25.9,3.3 C27.8,4.4 28.7,5.8 28.7,7.3 C28.7,7.5 28.7,7.7 28.7,7.8 Z" id="Path" fill="url(#linearGradient-3)"></path>
                                <path d="M35,40.4 C34.5,39.4 34.1,38.5 33.5,37.1 C32.8,35.3 32.3,33.9 32.3,33.9 C31.9,32.7 31.6,31.7 31.4,30.8 C31.2,29.9 30.9,28.7 30.7,27.8 C30.6,27.3 30.5,26.7 30.4,26.2 C30.1,24.3 29.8,22 29.7,18.3 C29.6,15.5 29.7,12.6 29.9,7.4 C29.8,9 28.7,10.6 26.5,11.8 C22.1,14.3 15.1,14.2 10.8,11.6 C8.8,10.4 7.7,8.8 7.7,7.3 C7.9,12.1 8,15.1 7.9,18.2 C7.8,21.9 7.5,24.2 7.2,26.1 C7.1,26.6 7,27.2 6.9,27.7 C6.7,28.6 6.4,29.8 6.2,30.6 C6,31.5 5.6,32.7 5.3,33.7 C5.3,33.7 4.8,35.1 4,37 C3.3,38.6 2.7,39.9 2.5,40.3 C0.9,43.6 2.2,47.2 6.6,49.8 C13.1,53.7 23.7,53.8 30.4,50 C35.1,47.5 36.6,43.8 35,40.4 Z" id="Path" fill="url(#linearGradient-4)"></path>
                                <path d="M26.6,12 C22.2,14.5 15.2,14.4 10.9,11.8 C6.6,9.3 6.7,5.2 11.1,2.7 C15.5,0.2 22.5,0.3 26.8,2.9 C31.1,5.4 31,9.5 26.6,12 Z M25.7,11.4 C29.6,9.2 29.7,5.6 25.9,3.4 C22.1,1.1 15.9,1.1 12,3.3 C8.1,5.5 8,9.1 11.8,11.3 C15.6,13.6 21.8,13.6 25.7,11.4 L25.7,11.4 Z" id="Shape" fill="#F1F1F1"></path>
                            </g>
                            <g id="Group" transform="translate(2.000000, 16.000000)">
                                <path d="M36.2,44.2 L35.8,41.9 C36.4,44.9 34.6,48.1 30.6,50.4 C23.6,54.3 12.5,54.2 5.7,50.1 C1.9,47.8 0.2,44.7 0.8,41.8 C0.6,42.6 0.5,43.3 0.3,44.1 C-0.3,47.1 1.3,50.3 5.3,52.6 C12.3,56.8 23.7,56.9 30.9,52.9 C35,50.6 36.8,47.3 36.2,44.2 Z" id="Path" fill="url(#linearGradient-5)"></path>
                                <path d="M30.8,36 C24,31.9 12.9,31.8 5.9,35.7 C-1.1,39.6 -1.2,46.1 5.5,50.1 C12.2,54.1 23.4,54.3 30.4,50.4 C37.5,46.5 37.6,40 30.8,36 Z" id="Path" fill="#5F5F64"></path>
                                <path d="M28.3,25.2 C28.3,23.7 27.4,22.2 25.4,21 C21.5,18.7 15.1,18.6 11.1,20.9 C9,22.1 8,23.6 8,25.2 C7.9,21.9 7.8,18.6 7.8,15.3 C7.8,15 7.8,14.7 7.8,14.4 C7.8,13.9 7.8,13.1 7.8,12.6 C7.8,12.3 7.8,12 7.8,11.7 C7.8,10.8 7.8,9.9 7.7,9 C7.7,8.5 7.7,7.7 7.7,7.2 C7.7,5.6 8.7,3.9 10.9,2.7 C15.1,0.3 21.8,0.4 25.9,2.9 C27.9,4.1 28.9,5.7 28.9,7.3 C28.7,13.3 28.5,19.2 28.3,25.2 Z" id="Path" fill="url(#linearGradient-6)"></path>
                                <path d="M28.1,7.2 C28.1,5.8 27.2,4.3 25.3,3.2 C21.5,0.9 15.3,0.9 11.4,3.1 C9.4,4.2 8.4,5.7 8.4,7.2 L8.4,6.7 C8.4,5.2 9.4,3.7 11.4,2.6 C15.3,0.4 21.5,0.5 25.3,2.7 C27.2,3.8 28.1,5.2 28.1,6.7 C28.1,6.9 28.1,7 28.1,7.2 Z" id="Path" fill="url(#linearGradient-7)"></path>
                                <path d="M34.4,39.8 C33.9,38.8 33.5,37.9 32.9,36.5 C32.2,34.7 31.7,33.3 31.7,33.3 C31.3,32.1 31,31.1 30.8,30.2 C30.6,29.3 30.3,28.1 30.1,27.2 C30,26.7 29.9,26.1 29.8,25.6 C29.5,23.7 29.2,21.4 29.1,17.7 C29,14.9 29.1,12 29.3,6.8 C29.2,8.4 28.1,10 25.9,11.2 C21.5,13.7 14.5,13.6 10.2,11 C8.2,9.8 7.1,8.2 7.1,6.7 C7.3,11.5 7.4,14.5 7.3,17.6 C7.2,21.3 6.9,23.6 6.6,25.5 C6.5,26 6.4,26.6 6.3,27.1 C6.1,28 5.8,29.2 5.6,30 C5.4,30.9 5,32.1 4.7,33.1 C4.7,33.1 4.2,34.5 3.4,36.4 C2.7,38 2.1,39.3 1.9,39.7 C0.3,43 1.6,46.6 6,49.2 C12.5,53.1 23.1,53.2 29.8,49.4 C34.5,46.9 36,43.1 34.4,39.8 Z" id="Path" fill="url(#linearGradient-8)"></path>
                                <path d="M26,11.3 C21.6,13.8 14.6,13.7 10.3,11.1 C6,8.6 6.1,4.5 10.5,2 C14.9,-0.5 21.9,-0.4 26.2,2.2 C30.5,4.8 30.4,8.8 26,11.3 Z M25.1,10.8 C29,8.6 29.1,5 25.3,2.8 C21.5,0.5 15.3,0.5 11.4,2.7 C7.5,4.9 7.4,8.5 11.2,10.7 C15,12.9 21.3,13 25.1,10.8 L25.1,10.8 Z" id="Shape" fill="#F1F1F1"></path>
                            </g>
                            <g id="Group" transform="translate(74.000000, 2.000000)">
                                <g transform="translate(0.000000, 35.000000)" id="Path">
                                    <polygon fill="#3B3B3F" points="0.3 5.3 0.3 17.2 15.4 25.9 15.4 14"></polygon>
                                    <polygon fill="#48484D" points="15.4 14 15.4 25.9 24.3 20.8 24.4 8.9"></polygon>
                                    <polygon fill="#5F5F64" points="0.3 5.3 15.4 14 24.4 8.9 9.2 0.1"></polygon>
                                </g>
                                <g transform="translate(13.000000, 4.000000)">
                                    <g id="Path">
                                        <g>
                                            <path d="M0.9,2.1 C1.7,2.6 3,2.6 3.8,2.1 C4.2,1.9 4.4,1.6 4.4,1.3 L4.4,40 C4.4,40.3 4.2,40.6 3.8,40.8 C3,41.3 1.7,41.3 0.9,40.8 C0.5,40.6 0.3,40.3 0.3,40 L0.3,1.3 C0.3,1.5 0.5,1.8 0.9,2.1 Z" fill="url(#linearGradient-9)"></path>
                                            <path d="M0.9,0.4 C0.1,0.9 0.1,1.6 0.9,2.1 C1.7,2.6 3,2.6 3.8,2.1 C4.6,1.6 4.6,0.9 3.8,0.4 C3,-0.1 1.7,-0.1 0.9,0.4 Z" fill="#F1F1F1"></path>
                                        </g>
                                        <path d="M1.2,0.6 C0.6,1 0.6,1.6 1.2,1.9 C1.8,2.3 2.9,2.3 3.5,1.9 C4.1,1.5 4.1,0.9 3.5,0.6 C2.8,0.2 1.8,0.2 1.2,0.6 Z" fill="url(#linearGradient-10)" opacity="0.9"></path>
                                    </g>
                                    <path d="M0.3,6.7 C0.3,7 0.5,7.3 0.9,7.5 C1.7,8 3,8 3.8,7.5 C4.2,7.3 4.4,7 4.4,6.7 L4.4,5.2 C4.4,5.5 4.2,5.8 3.8,6 C3,6.5 1.7,6.5 0.9,6 C0.5,5.8 0.3,5.5 0.3,5.2 L0.3,6.7 Z M0.3,10.6 C0.3,10.9 0.5,11.2 0.9,11.4 C1.7,11.9 3,11.9 3.8,11.4 C4.2,11.2 4.4,10.9 4.4,10.6 L4.4,9.1 C4.4,9.4 4.2,9.7 3.8,9.9 C3,10.4 1.7,10.4 0.9,9.9 C0.5,9.7 0.3,9.4 0.3,9.1 L0.3,10.6 Z M0.3,14.6 C0.3,14.9 0.5,15.2 0.9,15.4 C1.7,15.9 3,15.9 3.8,15.4 C4.2,15.2 4.4,14.9 4.4,14.6 L4.4,13.1 C4.4,13.4 4.2,13.7 3.8,13.9 C3,14.4 1.7,14.4 0.9,13.9 C0.5,13.7 0.3,13.4 0.3,13.1 L0.3,14.6 Z M0.3,18.6 C0.3,18.9 0.5,19.2 0.9,19.4 C1.7,19.9 3,19.9 3.8,19.4 C4.2,19.2 4.4,18.9 4.4,18.6 L4.4,17.1 C4.4,17.4 4.2,17.7 3.8,17.9 C3,18.4 1.7,18.4 0.9,17.9 C0.5,17.7 0.3,17.4 0.3,17.1 L0.3,18.6 Z M0.3,22.5 C0.3,22.8 0.5,23.1 0.9,23.3 C1.7,23.8 3,23.8 3.8,23.3 C4.2,23.1 4.4,22.8 4.4,22.5 L4.4,21 C4.4,21.3 4.2,21.6 3.8,21.8 C3,22.3 1.7,22.3 0.9,21.8 C0.5,21.6 0.3,21.3 0.3,21 L0.3,22.5 Z M0.3,26.5 C0.3,26.8 0.5,27.1 0.9,27.3 C1.7,27.8 3,27.8 3.8,27.3 C4.2,27.1 4.4,26.8 4.4,26.5 L4.4,25 C4.4,25.3 4.2,25.6 3.8,25.8 C3,26.3 1.7,26.3 0.9,25.8 C0.5,25.6 0.3,25.3 0.3,25 L0.3,26.5 Z M0.3,30.4 C0.3,30.7 0.5,31 0.9,31.2 C1.7,31.7 3,31.7 3.8,31.2 C4.2,31 4.4,30.7 4.4,30.4 L4.4,28.9 C4.4,29.2 4.2,29.5 3.8,29.7 C3,30.2 1.7,30.2 0.9,29.7 C0.5,29.5 0.3,29.2 0.3,28.9 L0.3,30.4 Z M0.3,34.4 C0.3,34.7 0.5,35 0.9,35.2 C1.7,35.7 3,35.7 3.8,35.2 C4.2,35 4.4,34.7 4.4,34.4 L4.4,32.9 C4.4,33.2 4.2,33.5 3.8,33.7 C3,34.2 1.7,34.2 0.9,33.7 C0.5,33.5 0.3,33.2 0.3,32.9 L0.3,34.4 Z M0.3,38.3 C0.3,38.6 0.5,38.9 0.9,39.1 C1.7,39.6 3,39.6 3.8,39.1 C4.2,38.9 4.4,38.6 4.4,38.3 L4.4,36.8 C4.4,37.1 4.2,37.4 3.8,37.6 C3,38.1 1.7,38.1 0.9,37.6 C0.5,37.4 0.3,37.1 0.3,36.8 L0.3,38.3 Z" id="Shape" fill="url(#linearGradient-11)"></path>
                                </g>
                                <g transform="translate(6.000000, 0.000000)">
                                    <g id="Path">
                                        <g>
                                            <path d="M1.1,2.1 C1.9,2.6 3.2,2.6 4,2.1 C4.4,1.9 4.6,1.6 4.6,1.3 L4.6,40 C4.6,40.3 4.4,40.6 4,40.8 C3.2,41.3 1.9,41.3 1.1,40.8 C0.7,40.6 0.5,40.3 0.5,40 L0.5,1.3 C0.5,1.6 0.7,1.9 1.1,2.1 Z" fill="url(#linearGradient-12)"></path>
                                            <path d="M1.1,0.5 C0.3,1 0.3,1.7 1.1,2.2 C1.9,2.7 3.2,2.7 4,2.2 C4.8,1.7 4.8,1 4,0.5 C3.2,0 1.9,0 1.1,0.5 Z" fill="#F1F1F1"></path>
                                        </g>
                                        <path d="M1.4,0.6 C0.8,1 0.8,1.6 1.4,1.9 C2,2.3 3.1,2.3 3.7,1.9 C4.3,1.5 4.3,0.9 3.7,0.6 C3,0.3 2,0.3 1.4,0.6 Z" fill="url(#linearGradient-13)" opacity="0.9"></path>
                                    </g>
                                    <path d="M0.5,6.8 C0.5,7.1 0.7,7.4 1.1,7.6 C1.9,8.1 3.2,8.1 4,7.6 C4.4,7.4 4.6,7.1 4.6,6.8 L4.6,5.3 C4.6,5.6 4.4,5.9 4,6.1 C3.2,6.6 1.9,6.6 1.1,6.1 C0.7,5.9 0.5,5.6 0.5,5.3 L0.5,6.8 Z M0.5,10.7 C0.5,11 0.7,11.3 1.1,11.5 C1.9,12 3.2,12 4,11.5 C4.4,11.3 4.6,11 4.6,10.7 L4.6,9.2 C4.6,9.5 4.4,9.8 4,10 C3.2,10.5 1.9,10.5 1.1,10 C0.7,9.8 0.5,9.5 0.5,9.2 L0.5,10.7 Z M0.5,14.7 C0.5,15 0.7,15.3 1.1,15.5 C1.9,16 3.2,16 4,15.5 C4.4,15.3 4.6,15 4.6,14.7 L4.6,13.2 C4.6,13.5 4.4,13.8 4,14 C3.2,14.5 1.9,14.5 1.1,14 C0.7,13.8 0.5,13.5 0.5,13.2 L0.5,14.7 Z M0.5,18.6 C0.5,18.9 0.7,19.2 1.1,19.4 C1.9,19.9 3.2,19.9 4,19.4 C4.4,19.2 4.6,18.9 4.6,18.6 L4.6,17.1 C4.6,17.4 4.4,17.7 4,17.9 C3.2,18.4 1.9,18.4 1.1,17.9 C0.7,17.7 0.5,17.4 0.5,17.1 L0.5,18.6 Z M0.5,22.6 C0.5,22.9 0.7,23.2 1.1,23.4 C1.9,23.9 3.2,23.9 4,23.4 C4.4,23.2 4.6,22.9 4.6,22.6 L4.6,21.1 C4.6,21.4 4.4,21.7 4,21.9 C3.2,22.4 1.9,22.4 1.1,21.9 C0.7,21.7 0.5,21.4 0.5,21.1 L0.5,22.6 Z M0.5,26.5 C0.5,26.8 0.7,27.1 1.1,27.3 C1.9,27.8 3.2,27.8 4,27.3 C4.4,27.1 4.6,26.8 4.6,26.5 L4.6,25 C4.6,25.3 4.4,25.6 4,25.8 C3.2,26.3 1.9,26.3 1.1,25.8 C0.7,25.6 0.5,25.3 0.5,25 L0.5,26.5 Z M0.5,30.5 C0.5,30.8 0.7,31.1 1.1,31.3 C1.9,31.8 3.2,31.8 4,31.3 C4.4,31.1 4.6,30.8 4.6,30.5 L4.6,29 C4.6,29.3 4.4,29.6 4,29.8 C3.2,30.3 1.9,30.3 1.1,29.8 C0.7,29.6 0.5,29.3 0.5,29 L0.5,30.5 Z M0.5,34.5 C0.5,34.8 0.7,35.1 1.1,35.3 C1.9,35.8 3.2,35.8 4,35.3 C4.4,35.1 4.6,34.8 4.6,34.5 L4.6,33 C4.6,33.3 4.4,33.6 4,33.8 C3.2,34.3 1.9,34.3 1.1,33.8 C0.7,33.6 0.5,33.3 0.5,33 L0.5,34.5 Z M0.5,38.4 C0.5,38.7 0.7,39 1.1,39.2 C1.9,39.7 3.2,39.7 4,39.2 C4.4,39 4.6,38.7 4.6,38.4 L4.6,36.9 C4.6,37.2 4.4,37.5 4,37.7 C3.2,38.2 1.9,38.2 1.1,37.7 C0.7,37.5 0.5,37.2 0.5,36.9 L0.5,38.4 Z" id="Shape" fill="url(#linearGradient-14)"></path>
                                </g>
                            </g>
                            <g id="Group" transform="translate(34.000000, 32.000000)">
                                <polygon id="Path" fill="#3B3B3F" points="0.6 23 0.6 45.1 16.8 54.5 16.8 32.4"></polygon>
                                <polygon id="Path" fill="#48484D" points="16.8 32.4 16.8 54.5 56.1 31.8 56.1 9.7"></polygon>
                                <g id="Path">
                                    <polygon fill="#5F5F64" points="0.6 23 16.8 32.4 56.1 9.7 40 0.3"></polygon>
                                    <polygon fill="#A09595" points="54.6 9.7 40 1.2 2.2 23 16.8 31.5"></polygon>
                                </g>
                            </g>
                            <g id="Group" transform="translate(50.000000, 62.000000)">
                                <g transform="translate(5.000000, 0.000000)" id="Path">
                                    <polygon fill="#3B3B3F" points="0.5 1.8 0.5 21.7 2.4 22.9 2.4 2.9"></polygon>
                                    <polygon fill="#48484D" points="2.4 2.9 2.4 22.9 5.6 21.1 5.6 1.1"></polygon>
                                    <polygon fill="#5F5F64" points="0.5 1.8 2.4 2.9 5.6 1.1 3.6 0"></polygon>
                                </g>
                                <g transform="translate(0.000000, 2.000000)" id="Path">
                                    <polygon fill="#3B3B3F" points="0.8 2.5 0.7 22.4 2.7 23.6 2.7 3.7"></polygon>
                                    <polygon fill="#48484D" points="2.7 3.7 2.7 23.6 5.9 21.8 5.9 1.8"></polygon>
                                    <polygon fill="#5F5F64" points="0.8 2.5 2.7 3.7 5.9 1.8 3.9 0.7"></polygon>
                                </g>
                            </g>
                            <g id="Group" transform="translate(82.000000, 43.000000)">
                                <g transform="translate(4.000000, 0.000000)" id="Path">
                                    <polygon fill="#3B3B3F" points="0.9 2.6 0.9 22.6 2.9 23.7 2.9 3.8"></polygon>
                                    <polygon fill="#48484D" points="2.9 3.8 2.9 23.7 6.1 21.9 6.1 1.9"></polygon>
                                    <polygon fill="#5F5F64" points="0.9 2.6 2.9 3.8 6.1 1.9 4.1 0.8"></polygon>
                                </g>
                                <g transform="translate(0.000000, 3.000000)" id="Path">
                                    <polygon fill="#3B3B3F" points="0.2 2.3 0.2 22.3 2.2 23.4 2.2 3.5"></polygon>
                                    <polygon fill="#48484D" points="2.2 3.5 2.2 23.4 5.4 21.6 5.4 1.7"></polygon>
                                    <polygon fill="#5F5F64" points="0.2 2.3 2.2 3.5 5.4 1.7 3.4 0.5"></polygon>
                                </g>
                            </g>
                            <g id="Group" transform="translate(62.000000, 57.000000)">
                                <polygon id="Path" fill="#3B3B3F" points="0 10.9 0.1 23 4.2 25.4 4.2 13.3"></polygon>
                                <polygon id="Path" fill="#3B3B3F" points="17.5 0.8 17.5 12.9 21.6 15.3 21.7 3.2"></polygon>
                                <polygon id="Path" fill="#5F5F64" points="0 10.9 4.2 13.3 21.7 3.2 17.5 0.8"></polygon>
                            </g>
                            <polygon id="Path" fill="#8C8080" points="74 33.2 36.2 55 37.1 55.5 74 34.2 87.7 42.2 88.6 41.7"></polygon>
                            <g id="Group" transform="translate(41.000000, 36.000000)">
                                <g transform="translate(28.000000, 0.000000)" id="Path">
                                    <polygon fill="#8C8080" points="3.1 1 0.9 2.3 2.5 3.3 3.9 3.3"></polygon>
                                    <g transform="translate(1.000000, 0.000000)">
                                        <g>
                                            <polygon fill="#C2C4C4" points="0.9 1.3 0.9 2.1 2.9 3.3 2.9 2.4"></polygon>
                                            <polygon fill="#D7D9D9" points="2.9 2.4 2.9 3.3 4.9 2.1 4.9 1.3"></polygon>
                                            <polygon fill="#F4F4F4" points="0.9 1.3 2.9 2.4 4.9 1.3 2.9 0.1"></polygon>
                                        </g>
                                        <g transform="translate(1.000000, 0.000000)">
                                            <path d="M1.1,0.8 C0.6,1.1 0.6,1.5 1.1,1.8 C1.6,2.1 2.3,2.1 2.8,1.8 C3.3,1.5 3.3,1.1 2.8,0.8 C2.3,0.5 1.5,0.5 1.1,0.8 Z" fill="#A09595"></path>
                                            <path d="M1.6,1.1 C1.4,1.2 1.4,1.4 1.6,1.5 C1.8,1.6 2.1,1.6 2.3,1.5 C2.5,1.4 2.5,1.2 2.3,1.1 C2,1 1.7,1 1.6,1.1 Z" fill="#F4F4F4"></path>
                                        </g>
                                    </g>
                                </g>
                                <g transform="translate(24.000000, 2.000000)" id="Path">
                                    <polygon fill="#8C8080" points="2.3 1.8 0.1 3.1 1.8 4 3.1 4"></polygon>
                                    <g transform="translate(1.000000, 0.000000)">
                                        <g>
                                            <polygon fill="#C2C4C4" points="0.1 2.1 0.1 2.9 2.1 4 2.1 3.2"></polygon>
                                            <polygon fill="#D7D9D9" points="2.1 3.2 2.1 4 4.1 2.9 4.1 2.1"></polygon>
                                            <polygon fill="#F4F4F4" points="0.1 2.1 2.1 3.2 4.1 2.1 2.1 0.9"></polygon>
                                        </g>
                                        <g transform="translate(0.000000, 1.000000)">
                                            <path d="M1.3,0.5 C0.8,0.8 0.8,1.2 1.3,1.5 C1.8,1.8 2.5,1.8 3,1.5 C3.5,1.2 3.5,0.8 3,0.5 C2.5,0.2 1.7,0.3 1.3,0.5 Z" fill="#A09595"></path>
                                            <path d="M1.8,0.8 C1.6,0.9 1.6,1.1 1.8,1.2 C2,1.3 2.3,1.3 2.5,1.2 C2.7,1.1 2.7,0.9 2.5,0.8 C2.3,0.7 2,0.7 1.8,0.8 Z" fill="#F4F4F4"></path>
                                        </g>
                                    </g>
                                </g>
                                <g transform="translate(19.000000, 5.000000)" id="Path">
                                    <polygon fill="#8C8080" points="2.5 1.6 0.3 2.8 2 3.8 3.3 3.8"></polygon>
                                    <g transform="translate(1.000000, 0.000000)">
                                        <g>
                                            <polygon fill="#C2C4C4" points="0.3 1.8 0.3 2.6 2.3 3.8 2.3 3"></polygon>
                                            <polygon fill="#D7D9D9" points="2.3 3 2.3 3.8 4.3 2.6 4.3 1.8"></polygon>
                                            <polygon fill="#F4F4F4" points="0.3 1.8 2.3 3 4.3 1.8 2.3 0.7"></polygon>
                                        </g>
                                        <g transform="translate(1.000000, 1.000000)">
                                            <path d="M0.5,0.3 C0,0.6 0,1 0.5,1.3 C1,1.6 1.7,1.6 2.2,1.3 C2.7,1 2.7,0.6 2.2,0.3 C1.7,0 0.9,0 0.5,0.3 Z" fill="#A09595"></path>
                                            <path d="M1,0.6 C0.8,0.7 0.8,0.9 1,1 C1.2,1.1 1.5,1.1 1.7,1 C1.9,0.9 1.9,0.7 1.7,0.6 C1.5,0.5 1.2,0.5 1,0.6 Z" fill="#F4F4F4"></path>
                                        </g>
                                    </g>
                                </g>
                                <g transform="translate(14.000000, 8.000000)" id="Path">
                                    <polygon fill="#8C8080" points="2.8 1.3 0.5 2.6 2.2 3.6 3.5 3.6"></polygon>
                                    <g transform="translate(1.000000, 0.000000)">
                                        <g>
                                            <polygon fill="#C2C4C4" points="0.6 1.6 0.6 2.4 2.5 3.6 2.5 2.7"></polygon>
                                            <polygon fill="#D7D9D9" points="2.5 2.7 2.5 3.6 4.5 2.4 4.5 1.6"></polygon>
                                            <polygon fill="#F4F4F4" points="0.6 1.6 2.5 2.7 4.5 1.6 2.6 0.4"></polygon>
                                        </g>
                                        <g transform="translate(1.000000, 0.000000)">
                                            <path d="M0.7,1.1 C0.2,1.4 0.2,1.8 0.7,2.1 C1.2,2.4 1.9,2.4 2.4,2.1 C2.9,1.8 2.9,1.4 2.4,1.1 C1.9,0.8 1.2,0.8 0.7,1.1 Z" fill="#A09595"></path>
                                            <path d="M1.2,1.4 C1,1.5 1,1.7 1.2,1.8 C1.4,1.9 1.7,1.9 1.9,1.8 C2.1,1.7 2.1,1.5 1.9,1.4 C1.7,1.2 1.4,1.2 1.2,1.4 Z" fill="#F4F4F4"></path>
                                        </g>
                                    </g>
                                </g>
                                <g transform="translate(9.000000, 11.000000)" id="Path">
                                    <polygon fill="#8C8080" points="3 1.1 0.7 2.4 2.4 3.3 3.8 3.3"></polygon>
                                    <g transform="translate(1.000000, 0.000000)">
                                        <g>
                                            <polygon fill="#C2C4C4" points="0.8 1.4 0.8 2.2 2.8 3.3 2.8 2.5"></polygon>
                                            <polygon fill="#D7D9D9" points="2.8 2.5 2.8 3.3 4.8 2.2 4.7 1.4"></polygon>
                                            <polygon fill="#F4F4F4" points="0.8 1.4 2.8 2.5 4.7 1.4 2.8 0.2"></polygon>
                                        </g>
                                        <g transform="translate(1.000000, 0.000000)">
                                            <path d="M0.9,0.8 C0.4,1.1 0.4,1.5 0.9,1.8 C1.4,2.1 2.1,2.1 2.6,1.8 C3.1,1.5 3.1,1.1 2.6,0.8 C2.1,0.6 1.4,0.6 0.9,0.8 Z" fill="#A09595"></path>
                                            <path d="M1.4,1.1 C1.2,1.2 1.2,1.4 1.4,1.5 C1.6,1.6 1.9,1.6 2.1,1.5 C2.3,1.4 2.3,1.2 2.1,1.1 C1.9,1 1.6,1 1.4,1.1 Z" fill="#F4F4F4"></path>
                                        </g>
                                    </g>
                                </g>
                                <g transform="translate(5.000000, 14.000000)" id="Path">
                                    <polygon fill="#8C8080" points="2.2 0.9 0 2.1 1.6 3.1 3 3.1"></polygon>
                                    <g transform="translate(1.000000, 0.000000)">
                                        <g>
                                            <polygon fill="#C2C4C4" points="0 1.1 0 1.9 2 3.1 2 2.3"></polygon>
                                            <polygon fill="#D7D9D9" points="2 2.3 2 3.1 4 1.9 4 1.1"></polygon>
                                            <polygon fill="#F4F4F4" points="0 1.1 2 2.3 4 1.1 2 0"></polygon>
                                        </g>
                                        <g>
                                            <path d="M1.1,0.6 C0.6,0.9 0.6,1.3 1.1,1.6 C1.6,1.9 2.3,1.9 2.8,1.6 C3.3,1.3 3.3,0.9 2.8,0.6 C2.3,0.3 1.6,0.3 1.1,0.6 Z" fill="#A09595"></path>
                                            <path d="M1.6,0.9 C1.4,1 1.4,1.2 1.6,1.3 C1.8,1.4 2.1,1.4 2.3,1.3 C2.5,1.2 2.5,1 2.3,0.9 C2.1,0.8 1.8,0.8 1.6,0.9 Z" fill="#F4F4F4"></path>
                                        </g>
                                    </g>
                                </g>
                                <g transform="translate(0.000000, 16.000000)" id="Path">
                                    <polygon fill="#8C8080" points="2.4 1.6 0.2 2.9 1.8 3.9 3.2 3.9"></polygon>
                                    <g transform="translate(1.000000, 0.000000)">
                                        <g>
                                            <polygon fill="#C2C4C4" points="0.2 1.9 0.2 2.7 2.2 3.9 2.2 3"></polygon>
                                            <polygon fill="#D7D9D9" points="2.2 3 2.2 3.9 4.2 2.7 4.2 1.9"></polygon>
                                            <polygon fill="#F4F4F4" points="0.2 1.9 2.2 3 4.2 1.9 2.2 0.7"></polygon>
                                        </g>
                                        <g transform="translate(0.000000, 1.000000)">
                                            <path d="M1.3,0.4 C0.8,0.7 0.8,1.1 1.3,1.4 C1.8,1.7 2.5,1.7 3,1.4 C3.5,1.1 3.5,0.7 3,0.4 C2.5,0.1 1.8,0.1 1.3,0.4 Z" fill="#A09595"></path>
                                            <path d="M1.8,0.6 C1.6,0.7 1.6,0.9 1.8,1 C2,1.1 2.3,1.1 2.5,1 C2.7,0.9 2.7,0.7 2.5,0.6 C2.3,0.5 2,0.5 1.8,0.6 Z" fill="#F4F4F4"></path>
                                        </g>
                                    </g>
                                </g>
                            </g>
                            <g id="Group" transform="translate(44.000000, 38.000000)">
                                <g transform="translate(29.000000, 0.000000)" id="Path">
                                    <polygon fill="#8C8080" points="2.5 1 0.2 2.3 1.9 3.2 3.3 3.2"></polygon>
                                    <g transform="translate(1.000000, 0.000000)">
                                        <g>
                                            <polygon fill="#C2C4C4" points="0.3 1.2 0.3 2.1 2.3 3.2 2.3 2.4"></polygon>
                                            <polygon fill="#D7D9D9" points="2.3 2.4 2.3 3.2 4.2 2.1 4.2 1.2"></polygon>
                                            <polygon fill="#F4F4F4" points="0.3 1.2 2.3 2.4 4.2 1.2 2.3 0.1"></polygon>
                                        </g>
                                        <g transform="translate(1.000000, 0.000000)">
                                            <path d="M0.4,0.7 C-0.1,1 -0.1,1.4 0.4,1.7 C0.9,2 1.6,2 2.1,1.7 C2.6,1.4 2.6,1 2.1,0.7 C1.6,0.4 0.9,0.4 0.4,0.7 Z" fill="#A09595"></path>
                                            <path d="M0.9,1 C0.7,1.1 0.7,1.3 0.9,1.4 C1.1,1.5 1.4,1.5 1.6,1.4 C1.8,1.3 1.8,1.1 1.6,1 C1.4,0.9 1.1,0.9 0.9,1 Z" fill="#F4F4F4"></path>
                                        </g>
                                    </g>
                                </g>
                                <g transform="translate(24.000000, 2.000000)" id="Path">
                                    <polygon fill="#8C8080" points="2.7 1.7 0.5 3 2.1 4 3.5 4"></polygon>
                                    <g transform="translate(1.000000, 0.000000)">
                                        <g>
                                            <polygon fill="#C2C4C4" points="0.5 2 0.5 2.8 2.5 4 2.5 3.1"></polygon>
                                            <polygon fill="#D7D9D9" points="2.5 3.1 2.5 4 4.5 2.8 4.5 2"></polygon>
                                            <polygon fill="#F4F4F4" points="0.5 2 2.5 3.1 4.5 2 2.5 0.8"></polygon>
                                        </g>
                                        <g transform="translate(1.000000, 1.000000)">
                                            <path d="M0.6,0.5 C0.1,0.8 0.1,1.2 0.6,1.5 C1.1,1.8 1.8,1.8 2.3,1.5 C2.8,1.2 2.8,0.8 2.3,0.5 C1.8,0.2 1.1,0.2 0.6,0.5 Z" fill="#A09595"></path>
                                            <path d="M1.1,0.8 C0.9,0.9 0.9,1.1 1.1,1.2 C1.3,1.3 1.6,1.3 1.8,1.2 C2,1.1 2,0.9 1.8,0.8 C1.6,0.6 1.3,0.6 1.1,0.8 Z" fill="#F4F4F4"></path>
                                        </g>
                                    </g>
                                </g>
                                <g transform="translate(19.000000, 5.000000)" id="Path">
                                    <polygon fill="#8C8080" points="2.9 1.5 0.7 2.8 2.3 3.7 3.7 3.7"></polygon>
                                    <g transform="translate(1.000000, 0.000000)">
                                        <g>
                                            <polygon fill="#C2C4C4" points="0.7 1.8 0.7 2.6 2.7 3.7 2.7 2.9"></polygon>
                                            <polygon fill="#D7D9D9" points="2.7 2.9 2.7 3.7 4.7 2.6 4.7 1.8"></polygon>
                                            <polygon fill="#F4F4F4" points="0.7 1.8 2.7 2.9 4.7 1.8 2.7 0.6"></polygon>
                                        </g>
                                        <g transform="translate(1.000000, 1.000000)">
                                            <path d="M0.8,0.2 C0.3,0.5 0.3,0.9 0.8,1.2 C1.3,1.5 2,1.5 2.5,1.2 C3,0.9 3,0.5 2.5,0.2 C2,0 1.3,0 0.8,0.2 Z" fill="#A09595"></path>
                                            <path d="M1.3,0.5 C1.1,0.6 1.1,0.8 1.3,0.9 C1.5,1 1.8,1 2,0.9 C2.2,0.8 2.2,0.6 2,0.5 C1.8,0.4 1.5,0.4 1.3,0.5 Z" fill="#F4F4F4"></path>
                                        </g>
                                    </g>
                                </g>
                                <g transform="translate(14.000000, 8.000000)" id="Path">
                                    <polygon fill="#8C8080" points="3.1 1.3 0.9 2.5 2.5 3.5 3.9 3.5"></polygon>
                                    <g transform="translate(1.000000, 0.000000)">
                                        <g>
                                            <polygon fill="#C2C4C4" points="0.9 1.5 0.9 2.3 2.9 3.5 2.9 2.7"></polygon>
                                            <polygon fill="#D7D9D9" points="2.9 2.7 2.9 3.5 4.9 2.3 4.9 1.5"></polygon>
                                            <polygon fill="#F4F4F4" points="0.9 1.5 2.9 2.7 4.9 1.5 2.9 0.4"></polygon>
                                        </g>
                                        <g transform="translate(1.000000, 0.000000)">
                                            <path d="M1,1 C0.5,1.3 0.5,1.7 1,2 C1.5,2.3 2.2,2.3 2.7,2 C3.2,1.7 3.2,1.3 2.7,1 C2.2,0.7 1.5,0.7 1,1 Z" fill="#A09595"></path>
                                            <path d="M1.5,1.3 C1.3,1.4 1.3,1.6 1.5,1.7 C1.7,1.8 2,1.8 2.2,1.7 C2.4,1.6 2.4,1.4 2.2,1.3 C2,1.2 1.7,1.2 1.5,1.3 Z" fill="#F4F4F4"></path>
                                        </g>
                                    </g>
                                </g>
                                <g transform="translate(10.000000, 11.000000)" id="Path">
                                    <polygon fill="#8C8080" points="2.3 1 0.1 2.3 1.7 3.3 3.1 3.3"></polygon>
                                    <g transform="translate(1.000000, 0.000000)">
                                        <g>
                                            <polygon fill="#C2C4C4" points="0.1 1.3 0.1 2.1 2.1 3.3 2.1 2.4"></polygon>
                                            <polygon fill="#D7D9D9" points="2.1 2.4 2.1 3.3 4.1 2.1 4.1 1.3"></polygon>
                                            <polygon fill="#F4F4F4" points="0.1 1.3 2.1 2.4 4.1 1.3 2.1 0.1"></polygon>
                                        </g>
                                        <g>
                                            <path d="M1.3,0.8 C0.8,1.1 0.8,1.5 1.3,1.8 C1.8,2.1 2.5,2.1 3,1.8 C3.5,1.5 3.5,1.1 3,0.8 C2.5,0.5 1.7,0.5 1.3,0.8 Z" fill="#A09595"></path>
                                            <path d="M1.7,1 C1.5,1.1 1.5,1.3 1.7,1.4 C1.9,1.5 2.2,1.5 2.4,1.4 C2.6,1.3 2.6,1.1 2.4,1 C2.2,0.9 1.9,0.9 1.7,1 Z" fill="#F4F4F4"></path>
                                        </g>
                                    </g>
                                </g>
                                <g transform="translate(5.000000, 13.000000)" id="Path">
                                    <polygon fill="#8C8080" points="2.5 1.8 0.3 3.1 2 4 3.3 4"></polygon>
                                    <g transform="translate(1.000000, 0.000000)">
                                        <g>
                                            <polygon fill="#C2C4C4" points="0.3 2 0.3 2.9 2.3 4 2.3 3.2"></polygon>
                                            <polygon fill="#D7D9D9" points="2.3 3.2 2.3 4 4.3 2.9 4.3 2.1"></polygon>
                                            <polygon fill="#F4F4F4" points="0.3 2 2.3 3.2 4.3 2.1 2.3 0.9"></polygon>
                                        </g>
                                        <g transform="translate(1.000000, 1.000000)">
                                            <path d="M0.5,0.5 C0,0.8 0,1.2 0.5,1.5 C1,1.8 1.7,1.8 2.2,1.5 C2.7,1.2 2.7,0.8 2.2,0.5 C1.7,0.3 0.9,0.3 0.5,0.5 Z" fill="#A09595"></path>
                                            <path d="M1,0.8 C0.8,0.9 0.8,1.1 1,1.2 C1.2,1.3 1.5,1.3 1.7,1.2 C1.9,1.1 1.9,0.9 1.7,0.8 C1.5,0.7 1.2,0.7 1,0.8 Z" fill="#F4F4F4"></path>
                                        </g>
                                    </g>
                                </g>
                                <g transform="translate(0.000000, 16.000000)" id="Path">
                                    <polygon fill="#8C8080" points="2.7 1.6 0.5 2.8 2.2 3.8 3.5 3.8"></polygon>
                                    <g transform="translate(1.000000, 0.000000)">
                                        <g>
                                            <polygon fill="#C2C4C4" points="0.5 1.8 0.5 2.6 2.5 3.8 2.5 3"></polygon>
                                            <polygon fill="#D7D9D9" points="2.5 3 2.5 3.8 4.5 2.6 4.5 1.8"></polygon>
                                            <polygon fill="#F4F4F4" points="0.5 1.8 2.5 3 4.5 1.8 2.5 0.7"></polygon>
                                        </g>
                                        <g transform="translate(1.000000, 1.000000)">
                                            <path d="M0.7,0.3 C0.2,0.6 0.2,1 0.7,1.3 C1.2,1.6 1.9,1.6 2.4,1.3 C2.9,1 2.9,0.6 2.4,0.3 C1.9,0 1.1,0 0.7,0.3 Z" fill="#A09595"></path>
                                            <path d="M1.2,0.6 C1,0.7 1,0.9 1.2,1 C1.4,1.1 1.7,1.1 1.9,1 C2.1,0.9 2.1,0.7 1.9,0.6 C1.7,0.5 1.4,0.5 1.2,0.6 Z" fill="#F4F4F4"></path>
                                        </g>
                                    </g>
                                </g>
                            </g>
                            <polygon id="Path" fill="#776B6B" points="88.6 41.7 87.7 42.2 74 34.2 74 33.2"></polygon>
                            <g id="Group" transform="translate(63.000000, 63.000000)">
                                <polygon id="Path" fill="#A09595" opacity="0.6" points="1.7 19 4 19 4.1 18.9 1.7 18.9"></polygon>
                                <polygon id="Path" fill="#A09595" opacity="0.6" points="1.7 18.1 5.4 18.1 5.5 18.1"></polygon>
                                <path d="M22.4,8.3 L22.9,8 L19.9,1.6 C19.9,1.6 2.9,11.3 1.7,12.1 C1.7,12.1 1.7,12.1 1.7,12.1 L1.7,17.6 L2.2,17.3 L2.2,17.3 L6.9,17.3 L7,17.2 L2.3,17.2 L3.6,16.4 L8.3,16.4 L8.4,16.3 L3.8,16.3 L5.1,15.5 L9.7,15.5 L9.8,15.4 L5.6,15.4 L7.7,14.2 L11.9,14.2 L11.9,14.2 L7.7,14.2 L9.9,13 L14.1,13 L14.2,12.9 L9.6,12.9 L10.9,12.1 L15.5,12.1 L15.6,12 L11,12 L12.3,11.2 L16.9,11.2 L17,11.1 L12.4,11.1 L13.7,10.3 L18.3,10.3 L18.4,10.2 L13.8,10.2 L15.1,9.4 L19.7,9.4 L19.8,9.3 L15.2,9.3 L16.5,8.5 L21.1,8.5 L21.2,8.4 L16.6,8.4 L17.7,7.8 L22.4,8.3 Z M5.5,15.6 L5.2,15.6 L7.3,14.4 L7.6,14.4 L5.5,15.6 Z M9.8,13.1 L7.6,14.3 L7.3,14.3 L9.5,13.1 L9.8,13.1 Z" id="Shape" fill="#A09595" opacity="0.6"></path>
                                <g id="_x31_0_4_">
                                    <g id="Group">
                                        <polygon id="Path" fill="url(#linearGradient-15)" opacity="0.7" points="1.5 12.5 22.5 0.3 22.5 8.3 1.4 20.5"></polygon>
                                        <path d="M22.5,5.1 L21.4,5.7 C21.4,4.6 21.4,3.6 21.4,2.5 L22.5,1.9 L22.5,1.8 L21.4,2.4 C21.4,1.7 21.4,1.3 21.4,0.9 L21.3,1 C21.3,1.5 21.3,1.9 21.3,2.5 L19.9,3.3 C19.9,2.6 19.9,2.2 19.9,1.8 L19.8,1.9 C19.8,2.3 19.8,2.7 19.8,3.4 L18.4,4.2 L18.4,4.2 C18.4,3.5 18.4,3.1 18.4,2.7 L18.3,2.8 C18.3,3.2 18.3,3.6 18.3,4.3 L17,5 C17,4.5 17,4 17,3.5 L16.9,3.6 C16.9,4.1 16.9,4.6 16.9,5.1 L15.5,5.9 C15.5,5.8 15.5,5.1 15.5,4.4 L15.4,4.5 C15.4,5 15.4,5.5 15.4,6 L14,6.8 L14,6.8 C14,6.6 14,6 14,5.3 L13.9,5.4 C13.9,5.8 13.9,6.2 13.9,6.9 L12.5,7.7 C12.5,7.2 12.5,6.7 12.5,6.2 L12.4,6.3 C12.4,6.8 12.4,7.2 12.4,7.8 L11,8.6 C11,7.9 11,7.5 11,7.1 L10.9,7.2 C10.9,7.6 10.9,8 10.9,8.7 L9.5,9.5 L9.5,9.5 C9.5,8.9 9.5,8.5 9.5,8 L9.4,8.1 C9.4,8.5 9.4,9 9.4,9.6 L8,10.4 C8,9.9 8,9.4 8,8.9 L7.9,9 C7.9,9.5 7.9,9.9 7.9,10.5 L6.5,11.3 C6.5,10.6 6.5,10.2 6.5,9.8 L6.4,9.9 C6.4,10.3 6.4,10.7 6.4,11.4 L5,12.2 L5,12.2 C5,12 5,11.4 5,10.7 L4.9,10.8 C4.9,11.2 4.9,11.6 4.9,12.3 L3.5,13.1 C3.5,12.6 3.5,12.1 3.5,11.6 L3.4,11.7 C3.4,12.2 3.4,12.6 3.4,13.2 L2,14 C2,13.3 2,12.9 2,12.5 L1.9,12.6 C1.9,13 1.9,13.4 1.9,14.1 L0.9,14.7 L0.9,14.8 L1.9,14.2 C1.9,15.4 1.9,14.6 1.9,17.3 L1.9,17.4 L0.9,18 L0.9,18.1 L1.9,17.5 L1.9,20.6 L2,20.5 L2,17.4 L3.4,16.6 L3.4,19.7 L3.5,19.6 L3.5,16.5 L4.9,15.7 L4.9,18.8 L5,18.7 L5,15.6 L5,15.6 L6.4,14.8 L6.4,17.9 L6.5,17.8 L6.5,14.7 L7.9,13.9 L7.9,17 L8,16.9 L8,13.8 L9.4,13 L9.4,16.1 L9.5,16 L9.5,13.6 L11.6,12.4 L11.6,14.8 L11.7,14.8 L11.7,12 L13.8,10.8 L13.8,13.2 L13.9,13.1 L13.9,10.1 L13.9,10.1 L15.3,9.3 L15.3,12.3 L15.4,12.2 L15.4,9.2 L16.8,8.4 L16.8,11.4 L16.9,11.3 L16.9,8.3 L18.3,7.5 L18.3,10.5 L18.4,10.4 L18.4,7.4 L18.4,7.4 L19.8,6.6 L19.8,9.6 L19.9,9.5 L19.9,6.5 L21.3,5.7 L21.3,8.7 L21.4,8.6 L21.4,5.6 L22.5,5 L22.5,5.1 Z M3.9,15.8 L3.9,15.8 L2.5,16.6 L2.5,16.5 C2.5,12.9 2.5,14.2 2.5,13.4 L3.9,12.6 C3.9,13.4 3.9,12.1 3.9,15.8 Z M5.4,15 L5.4,15 L4,15.8 L4,15.7 C4,12 4,13.7 4,12.5 L5.4,11.7 C5.4,13.2 5.4,10.8 5.4,15 Z M6.8,14.1 L6.8,14.1 L5.4,14.9 L5.4,14.9 L5.4,14.9 L5.4,14.9 C5.4,12.2 5.4,12.6 5.4,11.8 L5.4,11.8 L6.8,11 C6.8,12.2 6.8,11.4 6.8,14.1 Z M8.3,13.3 L6.9,14.1 L6.9,14 C6.9,10.4 6.9,11.7 6.9,10.9 L8.3,10.1 C8.3,11.3 8.3,12.2 8.3,13.3 Z M9.7,12.5 L8.3,13.3 C8.3,12.2 8.3,11.2 8.3,10.1 L9.7,9.3 C9.7,10.7 9.7,11.1 9.7,12.5 Z M11.3,8.4 L12.7,7.6 C12.7,8.8 12.7,9.6 12.7,10.8 L11.3,11.6 C11.3,11.3 11.3,8.9 11.3,8.4 Z M9.8,9.3 L9.8,9.3 L11.2,8.5 C11.2,9.6 11.2,10.6 11.2,11.7 L9.8,12.5 L9.8,12.5 C9.8,11.8 9.8,10 9.8,9.3 Z M14.1,10.7 L9.8,13.2 L9.8,12.6 L9.8,12.6 C10.3,12.3 13.3,10.5 14.1,10.1 L14.1,10.7 Z M14.1,10 L12.7,10.8 C12.7,9.7 12.7,8.7 12.7,7.6 L14.1,6.8 C14.1,8.2 14.1,8.5 14.1,10 Z M15.5,9.2 L14.1,10 L14.1,10 C14.1,8.7 14.1,8.4 14.1,6.8 L14.1,6.8 L15.5,6 C15.5,7.1 15.5,8 15.5,9.2 Z M17,8.3 L15.6,9.1 C15.6,8.8 15.6,6.3 15.6,5.9 L17,5.1 C17,6.3 17,7.2 17,8.3 Z M18.4,7.5 L17,8.3 C17,7.2 17,6.2 17,5.1 L18.4,4.3 C18.4,5.7 18.4,6 18.4,7.5 Z M19.9,6.7 L18.5,7.5 L18.5,7.5 C18.5,6.8 18.5,5 18.5,4.3 L18.5,4.3 L19.9,3.5 C19.9,4.6 19.9,5.5 19.9,6.7 Z M21.3,5.8 L19.9,6.6 C19.9,6.3 19.9,3.8 19.9,3.4 L21.3,2.6 C21.3,3.8 21.3,4.6 21.3,5.8 Z" id="Shape" fill="#489B8D"></path>
                                    </g>
                                </g>
                            </g>
                            <g id="Group" transform="translate(62.000000, 49.000000)">
                                <g id="_x31_0_2_">
                                    <g id="Group">
                                        <polygon id="Path" fill="#FFFFFF" points="0.8 10.5 0.8 16.9 16.3 7.9 16.3 1.5"></polygon>
                                        <path d="M14.2,7.9 L13,8.6 L14.9,8.6 L14.9,8.7 L12.8,8.7 L11.5,9.4 L13.4,9.4 L13.4,9.5 L11.3,9.5 L10,10.2 L11.9,10.2 L11.9,10.3 L9.8,10.3 L8.5,11 L10.4,11 L10.4,11.1 L8.3,11.1 L7,11.8 L8.9,11.8 L8.9,11.9 L7,11.9 L5.7,12.6 L7.6,12.6 L7.6,12.7 L5.5,12.7 L4.2,13.4 L6.1,13.4 L6.1,13.5 L4,13.5 L2.7,14.2 L4.6,14.2 L4.6,14.3 L2.5,14.3 L1.2,15 L3.1,15 L3.1,15.1 L3.1,15.1 L3.1,15.1 L1,15.1 L0.3,15.5 L0.3,10 L16.2,0.9 L16,7.6 L14.2,7.6 L14.2,7.9 Z M0.6,16.3 L1.9,16.3 L1.9,16.2 L0.6,16.2 L0.6,16.3 Z" id="Shape" fill="#A09595" opacity="0.6"></path>
                                        <polygon id="Path" fill="url(#linearGradient-16)" opacity="0.7" points="0.8 10.5 16.3 1.5 16.3 7.9 0.8 16.9"></polygon>
                                        <polygon id="Path" fill="#48484D" points="0.4 10.1 0.3 17.1 0.8 16.9 0.8 10.5 16.3 1.5 16.3 7.9 16.8 7.6 16.8 0.6"></polygon>
                                    </g>
                                </g>
                                <path d="M16.3,4.7 L15,5.5 L15,2.4 L14.9,2.5 L14.9,5.6 L13.5,6.4 L13.5,6.4 L13.5,3.3 L13.4,3.4 L13.4,6.5 L12,7.3 L12,4 L11.9,4.1 L11.9,7.2 L10.5,8 L10.5,4.9 L10.4,5 L10.4,8.1 L9,8.9 L9,8.9 L9,5.8 L8.9,5.9 L8.9,9 L7.5,9.8 L7.5,6.7 L7.4,6.8 L7.4,9.9 L6,10.7 L6,7.6 L5.9,7.7 L5.9,10.8 L4.5,11.6 L4.5,11.6 L4.5,8.5 L4.4,8.6 L4.4,11.7 L3,12.5 L3,9.4 L2.9,9.5 L2.9,12.6 L2,13 L2,9.9 L1.9,10 L1.9,13.1 L0.9,13.7 L0.9,13.8 L1.9,13.2 C1.9,14.4 1.9,13.6 1.9,16.3 L2,16.2 C2,12.6 2,13.9 2,13.1 L3.4,12.3 C3.4,13 3.4,11.7 3.4,15.4 L3.5,15.3 C3.5,11.6 3.5,13.3 3.5,12.2 L4.9,11.4 C4.9,12.8 4.9,10.4 4.9,14.6 L5,14.5 C5,11.8 5,12.2 5,11.4 L5,11.4 L6.4,10.6 C6.4,11.8 6.4,11 6.4,13.7 L6.5,13.6 C6.5,10 6.5,11.3 6.5,10.5 L7.9,9.7 L7.9,12.8 L8,12.7 L8,9.6 L9.4,8.8 L9.4,12 L9.5,11.9 L9.5,8.8 L9.5,8.8 L10.9,8 L10.9,11.1 L11,11 L11,8 L12.4,7.2 L12.4,10.3 L12.5,10.2 L12.5,7.1 L13.9,6.3 L13.9,9.5 L14,9.4 L14,6.3 L14,6.3 L15.4,5.5 L15.4,8.6 L15.5,8.5 L15.5,5.4 L16.8,4.6 L16.8,4.7 L16.3,4.7 Z" id="Path" fill="#489B8D"></path>
                            </g>
                            <polygon id="Path" fill="#48484D" points="66.2 70.3 66.2 82.4 67.1 81.9 67.1 74 82.8 64.8 82.8 72.8 83.6 72.3 83.7 60.2"></polygon>
                            <path d="M21.2,79.8 C20.5,79.8 19.7,79.6 19.1,79.2 L4.3,70.6 C4.1,70.5 4.1,70.3 4.2,70.1 C4.3,69.9 4.5,69.9 4.7,70 L19.5,78.6 C20.6,79.2 21.9,79.2 23,78.6 L36.8,70.6 C37,70.5 37.2,70.6 37.3,70.7 C37.4,70.9 37.3,71.1 37.2,71.2 L23.4,79.2 C22.7,79.6 21.9,79.8 21.2,79.8 Z" id="Path" fill="#5F5F64"></path>
                            <g id="Group" transform="translate(28.000000, 64.000000)">
                                <g transform="translate(0.000000, 14.000000)" id="Path">
                                    <polygon fill="#3B3B3F" points="0.4 3.7 0.4 5.2 5.8 8.3 5.8 6.9"></polygon>
                                    <polygon fill="#48484D" points="5.8 6.9 5.8 8.3 11.3 5.2 11.3 3.7"></polygon>
                                    <polygon fill="#5F5F64" points="0.4 3.7 5.8 6.9 11.3 3.7 5.9 0.6"></polygon>
                                </g>
                                <g transform="translate(1.000000, 0.000000)" id="Path">
                                    <g>
                                        <path d="M2,3.9 C3.5,4.8 6,4.8 7.5,3.9 C8.3,3.5 8.7,2.9 8.7,2.3 L8.7,17.3 C8.7,17.9 8.3,18.5 7.5,18.9 C6,19.8 3.5,19.8 2,18.9 C1.2,18.5 0.9,17.9 0.9,17.3 L0.9,2.3 C0.9,2.9 1.3,3.4 2,3.9 Z" fill="url(#linearGradient-17)"></path>
                                        <path d="M2.1,0.7 C0.6,1.6 0.6,3 2.1,3.9 C3.6,4.8 6.1,4.8 7.6,3.9 C9.1,3 9.1,1.6 7.6,0.7 C6.1,-0.2 3.6,-0.2 2.1,0.7 Z" fill="#F1F1F1"></path>
                                    </g>
                                    <path d="M3.6,0.4 C4.3,0 5.4,0 6,0.4 C6.7,0.8 6.7,1.4 6,1.8 C5.3,2.2 4.2,2.2 3.6,1.8 C2.9,1.4 2.9,0.8 3.6,0.4 Z" fill="#FAFAFA"></path>
                                </g>
                            </g>
                            <g id="Group" transform="translate(34.000000, 67.000000)">
                                <g transform="translate(0.000000, 15.000000)" id="Path">
                                    <polygon fill="#3B3B3F" points="0.9 3.5 0.9 5 6.3 8.1 6.3 6.6"></polygon>
                                    <polygon fill="#48484D" points="6.3 6.6 6.3 8.1 11.8 5 11.8 3.5"></polygon>
                                    <polygon fill="#5F5F64" points="0.9 3.5 6.3 6.6 11.8 3.5 6.4 0.3"></polygon>
                                </g>
                                <g transform="translate(2.000000, 0.000000)" id="Path">
                                    <g>
                                        <path d="M1.5,4.6 C3,5.5 5.5,5.5 7,4.6 C7.8,4.2 8.2,3.6 8.2,3 L8.2,18 C8.2,18.6 7.8,19.2 7,19.6 C5.5,20.5 3,20.5 1.5,19.6 C0.7,19.2 0.4,18.6 0.4,18 L0.4,3 C0.4,3.6 0.8,4.2 1.5,4.6 Z" fill="url(#linearGradient-18)"></path>
                                        <path d="M1.6,1.4 C0.1,2.3 0.1,3.7 1.6,4.6 C3.1,5.5 5.6,5.5 7.1,4.6 C8.6,3.7 8.6,2.3 7.1,1.4 C5.6,0.5 3.1,0.5 1.6,1.4 Z" fill="#F1F1F1"></path>
                                    </g>
                                    <path d="M3.1,1.1 C3.8,0.7 4.9,0.7 5.5,1.1 C6.2,1.5 6.2,2.1 5.5,2.5 C4.8,2.9 3.7,2.9 3.1,2.5 C2.4,2.2 2.4,1.5 3.1,1.1 Z" fill="#FAFAFA"></path>
                                </g>
                            </g>
                            <path d="M25.1,87.5 C24.5,87.5 23.9,87.3 23.4,87 L1.6,74.4 C1,74.1 0.7,73.5 0.7,72.9 C0.7,72.3 1,71.7 1.6,71.4 L7.6,67.9 C7.8,67.8 8,67.9 8.1,68 C8.2,68.2 8.1,68.4 8,68.5 L2,72 C1.7,72.2 1.5,72.5 1.5,72.9 C1.5,73.3 1.7,73.6 2,73.8 L23.8,86.4 C24.6,86.9 25.6,86.9 26.4,86.4 L30.8,83.8 C31,83.7 31.2,83.8 31.3,83.9 C31.4,84.1 31.3,84.3 31.2,84.4 L26.8,87 C26.3,87.4 25.7,87.5 25.1,87.5 Z" id="Path" fill="#5F5F64"></path>
                            <path d="M31.6,91.3 C31,91.3 30.4,91.1 29.9,90.8 L8.1,78.2 C7.9,78.1 7.9,77.9 8,77.7 C8.1,77.5 8.3,77.5 8.5,77.6 L30.3,90.2 C31.1,90.7 32.1,90.7 32.9,90.2 L37.3,87.6 C37.5,87.5 37.7,87.6 37.8,87.7 C37.9,87.9 37.8,88.1 37.7,88.2 L33.3,90.8 C32.8,91.1 32.2,91.3 31.6,91.3 Z" id="Path" fill="#5F5F64"></path>
                            <path d="M17,33.2 C15.7,33.1 14.7,34.3 14.8,35.8 C14.9,37.3 15.9,38.6 17.2,38.7 C18.5,38.8 19.5,37.6 19.4,36.1 C19.4,34.6 18.3,33.3 17,33.2 Z" id="Path" fill="#646262"></path>
                            <path d="M43.9,17.5 C42.6,17.4 41.6,18.6 41.7,20.1 C41.8,21.6 42.8,22.9 44.1,23 C45.4,23.1 46.4,21.9 46.3,20.4 C46.2,18.9 45.2,17.6 43.9,17.5 Z" id="Path" fill="#646262"></path>
                        </g>
                    </g>
                </g>
            </g>
        </g>
    </g>
</svg>