<?xml version="1.0" encoding="UTF-8"?>
<svg width="41px" height="76px" viewBox="0 0 41 76" version="1.1" xmlns="http://www.w3.org/2000/svg" xmlns:xlink="http://www.w3.org/1999/xlink">
    <!-- Generator: Sketch 54.1 (76490) - https://sketchapp.com -->
    <title>7</title>
    <desc>Created with Sketch.</desc>
    <defs>
        <linearGradient x1="-0.111640212%" y1="50.152901%" x2="100.02619%" y2="50.152901%" id="linearGradient-1">
            <stop stop-color="#C2C4C4" offset="0%"></stop>
            <stop stop-color="#EDEDED" offset="100%"></stop>
        </linearGradient>
        <linearGradient x1="-0.248580122%" y1="50.4057502%" x2="100.012343%" y2="50.4057502%" id="linearGradient-2">
            <stop stop-color="#7C7C80" offset="0%"></stop>
            <stop stop-color="#929296" offset="58.05%"></stop>
            <stop stop-color="#BDBDC5" offset="100%"></stop>
        </linearGradient>
        <linearGradient x1="-0.399607081%" y1="49.7034272%" x2="100.060584%" y2="49.7034272%" id="linearGradient-3">
            <stop stop-color="#C0C0C4" offset="0%"></stop>
            <stop stop-color="#D7D7DD" offset="100%"></stop>
        </linearGradient>
        <linearGradient x1="-0.873840952%" y1="50.5504917%" x2="99.5153027%" y2="50.5504917%" id="linearGradient-4">
            <stop stop-color="#7C7C80" offset="0%"></stop>
            <stop stop-color="#929296" offset="58.05%"></stop>
            <stop stop-color="#BDBDC5" offset="100%"></stop>
        </linearGradient>
        <linearGradient x1="-0.439751454%" y1="50.1350025%" x2="99.9957154%" y2="50.1350025%" id="linearGradient-5">
            <stop stop-color="#D6D6DD" offset="0%"></stop>
            <stop stop-color="#DFDFE5" offset="100%"></stop>
        </linearGradient>
        <linearGradient x1="0.308695652%" y1="49.7903173%" x2="99.6536232%" y2="49.7903173%" id="linearGradient-6">
            <stop stop-color="#51B1AF" offset="0%"></stop>
            <stop stop-color="#66C0B1" offset="67.2%"></stop>
            <stop stop-color="#72C9B2" offset="100%"></stop>
        </linearGradient>
        <linearGradient x1="-0.418978102%" y1="49.9698206%" x2="99.6510949%" y2="49.9698206%" id="linearGradient-7">
            <stop stop-color="#51B1AF" offset="0%"></stop>
            <stop stop-color="#66C0B1" offset="67.2%"></stop>
            <stop stop-color="#72C9B2" offset="100%"></stop>
        </linearGradient>
        <linearGradient x1="-0.418978102%" y1="49.6065223%" x2="99.6510949%" y2="49.6065223%" id="linearGradient-8">
            <stop stop-color="#51B1AF" offset="0%"></stop>
            <stop stop-color="#66C0B1" offset="67.2%"></stop>
            <stop stop-color="#72C9B2" offset="100%"></stop>
        </linearGradient>
        <linearGradient x1="-0.418978102%" y1="50.13144%" x2="99.6510949%" y2="50.13144%" id="linearGradient-9">
            <stop stop-color="#51B1AF" offset="0%"></stop>
            <stop stop-color="#66C0B1" offset="67.2%"></stop>
            <stop stop-color="#72C9B2" offset="100%"></stop>
        </linearGradient>
        <linearGradient x1="-0.418978102%" y1="50.1618299%" x2="99.6510949%" y2="50.1618299%" id="linearGradient-10">
            <stop stop-color="#51B1AF" offset="0%"></stop>
            <stop stop-color="#66C0B1" offset="67.2%"></stop>
            <stop stop-color="#72C9B2" offset="100%"></stop>
        </linearGradient>
        <linearGradient x1="-0.418978102%" y1="49.4407044%" x2="99.6510949%" y2="49.4407044%" id="linearGradient-11">
            <stop stop-color="#51B1AF" offset="0%"></stop>
            <stop stop-color="#66C0B1" offset="67.2%"></stop>
            <stop stop-color="#72C9B2" offset="100%"></stop>
        </linearGradient>
        <linearGradient x1="-0.418978102%" y1="49.3951739%" x2="99.6510949%" y2="49.3951739%" id="linearGradient-12">
            <stop stop-color="#51B1AF" offset="0%"></stop>
            <stop stop-color="#66C0B1" offset="67.2%"></stop>
            <stop stop-color="#72C9B2" offset="100%"></stop>
        </linearGradient>
        <linearGradient x1="-0.418978102%" y1="49.6079037%" x2="99.6510949%" y2="49.6079037%" id="linearGradient-13">
            <stop stop-color="#51B1AF" offset="0%"></stop>
            <stop stop-color="#66C0B1" offset="67.2%"></stop>
            <stop stop-color="#72C9B2" offset="100%"></stop>
        </linearGradient>
        <linearGradient x1="53.0845604%" y1="6.24632035%" x2="46.6642178%" y2="98.1374459%" id="linearGradient-14">
            <stop stop-color="#8ED7DB" offset="0%"></stop>
            <stop stop-color="#D4FCFF" offset="100%"></stop>
        </linearGradient>
        <linearGradient x1="0.750687669%" y1="48.9540623%" x2="100.775144%" y2="48.9540623%" id="linearGradient-15">
            <stop stop-color="#D6D6DD" offset="0%"></stop>
            <stop stop-color="#DFDFE5" offset="100%"></stop>
        </linearGradient>
    </defs>
    <g id="Page-1" stroke="none" stroke-width="1" fill="none" fill-rule="evenodd">
        <g id="19034-[преобразованный]" transform="translate(-333.000000, -32.000000)" fill-rule="nonzero">
            <g id="_x32_">
                <g id="7" transform="translate(333.401521, 32.000000)">
                    <path d="M25.2984787,53.1 C35.9984787,54.8 42.3984787,61.1 39.4984787,67.3 C36.5984787,73.5 25.5984787,77.2 14.8984787,75.5 C4.19847873,73.8 -2.20152127,67.5 0.698478732,61.3 C3.59847873,55.1 14.5984787,51.4 25.2984787,53.1 Z" id="Path" fill="#0F5E70"></path>
                    <g id="Group" transform="translate(2.598479, 0.000000)">
                        <g>
                            <g>
                                <path d="M32.2,19.7 L32.2,19.7 C24.7,23.9 12.8,23.8 5.5,19.4 C1.9,17.3 0.1,14.5 0.2,11.7 L0.1,63.1 C0.1,65.9 1.9,68.6 5.4,70.8 C12.7,75.1 24.6,75.3 32.1,71.1 C35.9,69 37.8,66.1 37.8,63.3 L37.9,11.9 C37.9,14.8 36,17.6 32.2,19.7 Z" id="Path" fill="url(#linearGradient-1)"></path>
                                <path d="M32.6,4.3 C25.3,-4.4408921e-16 13.4,-0.2 5.9,4 C-1.6,8.2 -1.8,15.1 5.5,19.5 C12.8,23.8 24.7,24 32.2,19.8 C39.7,15.5 39.8,8.6 32.6,4.3 Z M27.5,16.9 C22.7,19.6 15,19.5 10.3,16.7 C5.6,13.9 5.7,9.4 10.5,6.7 C15.3,4 23,4.1 27.7,6.9 C32.4,9.8 32.3,14.2 27.5,16.9 Z" id="Shape" fill="#F4F4F4"></path>
                                <path d="M27.5,14.8 C22.7,17.5 15,17.4 10.3,14.6 C8,13.2 6.8,11.4 6.9,9.7 L6.9,11.8 C6.9,13.6 8,15.4 10.3,16.7 C15,19.5 22.7,19.6 27.5,16.9 C30,15.5 31.2,13.7 31.2,11.9 L31.2,9.8 C31.2,11.6 30,13.5 27.5,14.8 Z" id="Path" fill="url(#linearGradient-2)"></path>
                                <path d="M27.8,4.9 C23.1,2.1 15.4,2 10.6,4.7 C5.8,7.4 5.7,11.9 10.4,14.7 C15.1,17.5 22.8,17.6 27.6,14.9 C32.3,12.1 32.4,7.7 27.8,4.9 Z M22.6,11.9 C20.6,13 17.3,13 15.4,11.8 C13.4,10.6 13.5,8.7 15.5,7.6 C17.5,6.5 20.8,6.5 22.7,7.7 C24.7,8.9 24.6,10.8 22.6,11.9 Z" id="Shape" fill="url(#linearGradient-3)"></path>
                                <path d="M19.4,7.7 C18.5,7.2 17.3,6.9 16.1,6.8 C16,6.8 15.9,6.8 15.8,6.8 C14.5,6.8 13.2,7.1 12.2,7.6 C10.2,8.7 10.1,10.6 12.1,11.8 C13.1,12.4 14.4,12.7 15.7,12.7 C15.8,12.7 19.6,12.7 19.7,12.7 L19.4,7.7 Z" id="Path" fill="#9B9BA0"></path>
                                <path d="M22.6,9.8 C20.6,10.9 17.3,10.9 15.4,9.7 C14.4,9.1 13.9,8.4 14,7.6 L14,9.7 C14,10.4 14.5,11.2 15.4,11.8 C17.4,13 20.6,13 22.6,11.9 C23.6,11.3 24.2,10.6 24.2,9.8 L24.2,7.7 C24.1,8.4 23.6,9.2 22.6,9.8 Z" id="Path" fill="url(#linearGradient-4)"></path>
                                <path d="M22.7,5.6 C20.7,4.4 17.5,4.4 15.5,5.5 C13.5,6.6 13.4,8.5 15.4,9.7 C17.4,10.9 20.6,10.9 22.6,9.8 C24.6,8.7 24.7,6.8 22.7,5.6 Z" id="Path" fill="url(#linearGradient-5)"></path>
                            </g>
                            <path d="M20.7,27.6 L20.7,69.2 C25.4,69 30.7,67.6 34.4,64.6 L34.4,23 C32.5,24.6 30.2,25.7 27.7,26.4 C25.4,27.1 23,27.5 20.7,27.6 Z" id="Path" fill="#5B5B5B"></path>
                            <g transform="translate(20.000000, 24.000000)" id="Path">
                                <path d="M11.8,6 C6.9,8.9 2.9,8.6 0.8,8.9 L0.8,11.7 C6.4,11.3 12.3,8.9 14.5,6.9 L14.5,4.5 C13.7,4.5 12.8,5.4 11.8,6 Z" fill="#656568"></path>
                                <path d="M14.5,15 L14.5,12.6 C13.7,12.5 12.8,13.5 11.8,14 C10.7,14.7 9.1,15.4 7.4,15.9 C4.2,16.9 2.1,16.8 0.7,17 L0.7,19.8 C6.1,19.4 12.2,17 14.5,15 Z" fill="url(#linearGradient-6)"></path>
                                <path d="M0.7,7.7 C5.3,7.4 10.4,5.9 14.4,2.8 L14.4,0.5 C14.1,0.4 13.8,0.5 13.5,0.7 C9.7,3.6 5.5,4.5 0.7,4.9 L0.7,7.7 Z" fill="#656568"></path>
                                <path d="M13.6,32.9 C12,34.1 10.1,35.2 7.5,36 C4.4,36.9 2.2,36.9 0.8,37.1 L0.8,39.9 C5.4,39.6 10.6,38.1 14.5,35 L14.5,32.7 C14.2,32.6 13.8,32.7 13.6,32.9 Z" fill="url(#linearGradient-7)"></path>
                                <path d="M14.5,10.9 L14.5,8.6 C14.2,8.5 13.9,8.6 13.6,8.8 C8.1,13 3.2,12.5 0.8,13 L0.8,15.8 C5.3,15.5 10.5,14 14.5,10.9 Z" fill="url(#linearGradient-8)"></path>
                                <path d="M14.5,39 L14.5,36.7 C14.2,36.6 13.9,36.7 13.6,36.9 C12,38.1 10.1,39.2 7.5,40 C4.3,41 2.2,40.9 0.8,41.1 L0.8,43.9 C5.4,43.6 10.5,42.1 14.5,39 Z" fill="url(#linearGradient-9)"></path>
                                <path d="M13.6,16.8 C10,19.6 5.1,20.8 0.8,21 L0.8,23.8 C5.5,23.5 10.6,21.9 14.5,18.9 L14.5,16.6 C14.2,16.5 13.9,16.6 13.6,16.8 Z" fill="url(#linearGradient-10)"></path>
                                <path d="M14.5,20.6 C13.8,20.5 13,21.4 11.8,22.1 C8.4,24.1 4.5,24.8 0.8,25.1 L0.8,27.9 C6.3,27.5 12.3,25.1 14.5,23.1 L14.5,20.6 Z" fill="url(#linearGradient-11)"></path>
                                <path d="M3.1,31.6 C7.3,31 11.2,29.6 14.5,27 L14.5,24.7 C14.2,24.6 13.9,24.7 13.6,24.9 C12,26.1 10.2,27.2 7.5,28 C4.3,29 2.1,29 0.8,29.1 L0.8,31.9 C1.4,31.9 2.3,31.7 3.1,31.6 Z" fill="url(#linearGradient-12)"></path>
                                <path d="M13.6,28.9 C9.9,31.8 5.5,32.7 0.8,33.1 L0.8,35.9 C1,35.9 1.9,35.8 3.1,35.6 C7.2,35 11.1,33.6 14.5,31 L14.5,28.7 C14.2,28.6 13.9,28.7 13.6,28.9 Z" fill="url(#linearGradient-13)"></path>
                            </g>
                            <path d="M33.6,23.6 L33.6,64 C30.2,66.8 25.3,68.1 20.8,68.5 L20.8,69.1 C25.5,68.9 30.8,67.5 34.5,64.5 L34.5,23 C34.2,23.2 33.9,23.4 33.6,23.6 Z" id="Path" fill="#5B5B5B"></path>
                        </g>
                        <path d="M20.7,27.6 L20.7,69.2 C25.4,69 30.7,67.6 34.4,64.6 L34.4,23 C32.5,24.6 30.2,25.7 27.7,26.4 C25.4,27.1 23,27.5 20.7,27.6 Z" id="Path" fill="url(#linearGradient-14)" opacity="0.2"></path>
                        <path d="M23.4,6.8 C24.1,7.2 23.7,8.6 22.1,9.5 C20.5,10.4 18.4,10.5 17.7,10.1 C17,9.7 17.7,8.6 19.2,7.7 C20.9,6.8 22.7,6.4 23.4,6.8 Z" id="Path" fill="url(#linearGradient-15)" opacity="0.9"></path>
                    </g>
                </g>
            </g>
        </g>
    </g>
</svg>