<?xml version="1.0" encoding="UTF-8"?>
<svg width="96px" height="102px" viewBox="0 0 96 102" version="1.1" xmlns="http://www.w3.org/2000/svg" xmlns:xlink="http://www.w3.org/1999/xlink">
    <!-- Generator: Sketch 54.1 (76490) - https://sketchapp.com -->
    <title>8</title>
    <desc>Created with Sketch.</desc>
    <defs>
        <linearGradient x1="13.63%" y1="50.1890909%" x2="86.47%" y2="50.1890909%" id="linearGradient-1">
            <stop stop-color="#D6D6DD" offset="0%"></stop>
            <stop stop-color="#DFDFE5" offset="100%"></stop>
        </linearGradient>
        <linearGradient x1="-0.0679245283%" y1="50.2376812%" x2="100.06934%" y2="50.2376812%" id="linearGradient-2">
            <stop stop-color="#D6D6DD" offset="0%"></stop>
            <stop stop-color="#DFDFE5" offset="100%"></stop>
        </linearGradient>
        <linearGradient x1="14.71%" y1="50.4945455%" x2="87.54%" y2="50.4945455%" id="linearGradient-3">
            <stop stop-color="#D6D6DD" offset="0%"></stop>
            <stop stop-color="#DFDFE5" offset="100%"></stop>
        </linearGradient>
        <linearGradient x1="-0.0169811321%" y1="50.3759834%" x2="100.119811%" y2="50.3759834%" id="linearGradient-4">
            <stop stop-color="#D6D6DD" offset="0%"></stop>
            <stop stop-color="#DFDFE5" offset="100%"></stop>
        </linearGradient>
        <linearGradient x1="54.8452736%" y1="39.8149845%" x2="40.6860697%" y2="57.6764072%" id="linearGradient-5">
            <stop stop-color="#5F5F64" offset="0%"></stop>
            <stop stop-color="#3B3B3F" offset="100%"></stop>
        </linearGradient>
    </defs>
    <g id="Page-1" stroke="none" stroke-width="1" fill="none" fill-rule="evenodd">
        <g id="19034-[преобразованный]" transform="translate(-3.000000, -161.000000)" fill-rule="nonzero">
            <g id="_x32_">
                <g id="8" transform="translate(3.700000, 161.000000)">
                    <path d="M91.8,99.6 L75.5,90.2 L76.7,89.5 L65.2,77.5 L68.4,75.6 C69.3,75.1 69.3,74.3 68.4,73.8 L66.6,72.7 C65.7,72.2 64.4,72.2 63.5,72.7 L58.8,75.4 L48.4,69.4 L47.3,70 L57.7,76 L48.7,81.2 L38.3,75.2 L37.1,75.9 L47.5,81.9 L40.4,86 C39.5,86.5 39.5,87.3 40.4,87.8 L42.2,88.9 C43.1,89.4 44.4,89.4 45.3,88.9 L49.1,86.7 L70,93.4 L71.5,92.6 L87.7,102 L91.8,99.6 Z" id="Path" fill="#0F5E70"></path>
                    <polygon id="Path" fill="#0F5E70" points="54.2 47.2 9.2 73.2 0 67.9 45 41.9"></polygon>
                    <g id="_x34__3_" transform="translate(10.300000, 0.000000)">
                        <g id="Group">
                            <g>
                                <g id="Path">
                                    <polygon fill="#C2C4C4" points="40.1 46.1 41.3 46.8 1.9 69.6 4 66.9"></polygon>
                                    <polygon fill="#E0E0E0" points="40.1 4.7 41.3 1.6 41.3 46.8 40.1 46.1"></polygon>
                                    <polygon fill="#E6E6E6" points="40.1 4.7 40.1 46.1 4 66.9 4 25.5"></polygon>
                                    <polygon fill="#EBEBEB" points="4 25.5 1.9 24.3 41.3 1.6 40.1 4.7"></polygon>
                                    <polygon fill="#C2C4C4" points="1.9 69.6 0 68.5 0 23.2 1.9 24.3"></polygon>
                                    <polygon fill="#F4F4F4" points="1.9 24.3 0 23.2 39.4 0.5 41.3 1.6"></polygon>
                                    <polygon fill="#E0E0E0" points="4 66.9 1.9 69.6 1.9 24.3 4 25.5"></polygon>
                                </g>
                                <path d="M35.5,24.5 C35.5,20.6 32.7,19 29.3,21 L15,29.3 C11.6,31.3 8.9,36 8.9,39.9 L8.9,47.7 C8.9,51.6 11.7,53.2 15.1,51.2 L29.5,42.9 C32.9,40.9 35.6,36.2 35.6,32.3 L35.5,24.5 Z" id="Path" fill="#E0E0E0"></path>
                                <path d="M35.5,24.5 C35.5,22.1 34.4,20.6 32.8,20.2 C33.5,20.9 33.9,22.1 33.9,23.6 L33.9,31.4 C33.9,35.3 31.2,40 27.8,42 L13.4,50.3 C12.1,51.1 10.9,51.3 9.9,51.1 C11,52.3 12.9,52.5 15,51.2 L29.4,42.9 C32.8,40.9 35.5,36.2 35.5,32.3 L35.5,24.5 Z" id="Path" fill="#D7D9D9"></path>
                                <path d="M33.3,39 C34.7,36.9 35.5,34.5 35.5,32.3 L35.5,24.5 C35.5,22.1 34.4,20.6 32.8,20.2 C33.5,20.9 33.9,22.1 33.9,23.6 L33.9,31.4 C33.9,33.6 33,36.1 31.7,38.1 L33.3,39 Z" id="Path" fill="#C2C4C4"></path>
                                <g transform="translate(16.000000, 29.000000)" id="Shape">
                                    <path d="M0.1,6.4 L1.9,5.4 L1.9,12 L0.1,13 L0.1,6.4 Z M8.7,1.4 L10.5,0.4 L10.5,7 L8.7,8 L8.7,1.4 Z" fill="#DBDBDB" opacity="0.8"></path>
                                    <path d="M1.2,11.7 L0.1,12.3 L0.1,6.5 L1.2,5.9 L1.2,11.7 Z M9.8,0.9 L8.7,1.5 L8.7,7.3 L9.8,6.7 L9.8,0.9 Z" fill="#272B25" opacity="0.9"></path>
                                </g>
                            </g>
                            <path d="M22,18.6 C22.8,18.2 23.4,18.5 23.4,19.4 C23.4,20.3 22.8,21.3 22,21.8 C21.2,22.2 20.6,21.9 20.6,21 C20.7,20.1 21.3,19 22,18.6 Z" id="Path" fill="#E0E0E0"></path>
                            <path d="M22,50.3 C22.8,49.9 23.4,50.2 23.4,51.1 C23.4,52 22.8,53 22,53.5 C21.2,54 20.6,53.6 20.6,52.7 C20.7,51.8 21.3,50.7 22,50.3 Z" id="Path" fill="#E0E0E0"></path>
                        </g>
                        <g id="Group" transform="translate(21.000000, 36.000000)">
                            <g>
                                <g transform="translate(8.000000, 0.000000)">
                                    <path d="M4.6,5.3 C3.9,4.9 3.4,3.9 3.4,3.2 C3.4,2.8 3.5,2.5 3.8,2.4 L3.1,2.8 C2.9,2.9 2.7,3.2 2.7,3.6 C2.7,4.4 3.3,5.4 3.9,5.7 C4.2,5.9 4.6,5.9 4.8,5.8 L5.5,5.4 C5.2,5.5 4.9,5.5 4.6,5.3 Z" id="Path" fill="#B6B6BC"></path>
                                    <polygon id="Path" fill="url(#linearGradient-1)" points="21.9 12.1 21.9 17.2 22.6 16.8 22.6 11.7"></polygon>
                                    <path d="M2.5,0.1 C2.4,-3.46944695e-18 2.2,-3.46944695e-18 2.1,0.1 L1.4,0.5 C1.5,0.4 1.6,0.4 1.8,0.5 L21.9,12.1 L22.6,11.7 L2.5,0.1 Z" id="Path" fill="url(#linearGradient-2)"></path>
                                    <path d="M1.8,0.5 C0.6,-0.2 0.6,4.9 1.8,5.6 L21.9,17.2 L21.9,12.1 L1.8,0.5 Z M3.9,5.7 C3.2,5.3 2.7,4.3 2.7,3.6 C2.7,2.8 3.3,2.5 3.9,2.9 C4.6,3.3 5.1,4.3 5.1,5 C5.1,5.8 4.5,6.1 3.9,5.7 Z" id="Shape" fill="#99999E"></path>
                                </g>
                                <g transform="translate(0.000000, 5.000000)">
                                    <path d="M3.9,5.3 C3.2,4.9 2.7,3.9 2.7,3.2 C2.7,2.8 2.8,2.5 3.1,2.4 L2.4,2.8 C2.2,2.9 2,3.2 2,3.6 C2,4.4 2.6,5.4 3.2,5.7 C3.5,5.9 3.9,5.9 4.1,5.8 L4.8,5.4 C4.5,5.5 4.2,5.5 3.9,5.3 Z" id="Path" fill="#B6B6BC"></path>
                                    <polygon id="Path" fill="url(#linearGradient-3)" points="21.2 12.2 21.2 17.2 21.9 16.8 21.9 11.7"></polygon>
                                    <path d="M1.8,0.1 C1.7,-3.46944695e-18 1.5,-3.46944695e-18 1.4,0.1 L0.7,0.5 C0.8,0.4 0.9,0.4 1.1,0.5 L21.2,12.1 L21.9,11.7 L1.8,0.1 Z" id="Path" fill="url(#linearGradient-4)"></path>
                                    <path d="M1.1,0.5 C-0.1,-0.2 -0.1,4.9 1.1,5.6 L21.2,17.2 L21.2,12.1 L1.1,0.5 Z M3.2,5.7 C2.5,5.3 2,4.3 2,3.6 C2,2.8 2.6,2.5 3.2,2.9 C3.9,3.3 4.4,4.3 4.4,5 C4.4,5.8 3.9,6.1 3.2,5.7 Z" id="Shape" fill="#99999E"></path>
                                </g>
                            </g>
                            <g transform="translate(12.000000, 1.000000)">
                                <g id="Path">
                                    <path d="M8.4,12.2 L4.8,10.1 C2.4,11.5 0.4,14.9 0.4,17.8 L0.4,26.3 C0.4,27.7 0.9,28.7 1.7,29.1 L5.3,31.2 C4.5,30.7 4,29.8 4,28.4 L4,19.9 C4,17.1 5.9,13.6 8.4,12.2 Z" fill="#3B3B3F"></path>
                                    <path d="M23.6,3.5 C26.1,2.1 28,3.2 28.1,6 L28.1,14.5 C28.1,17.3 26.1,20.7 23.7,22.2 L8.5,31 C6.1,32.4 4.1,31.3 4,28.5 L4,20 C4,17.2 6,13.7 8.4,12.3 L23.6,3.5 Z" fill="#48484D"></path>
                                    <path d="M23.2,1.1 C22.4,0.6 21.3,0.7 20,1.4 L4.8,10.2 C3.7,10.8 2.7,11.9 1.9,13.1 L5.5,15.2 C6.3,14 7.3,13 8.4,12.3 L23.6,3.5 C24.8,2.8 26,2.7 26.8,3.2 L23.2,1.1 Z" fill="#5F5F64"></path>
                                </g>
                                <path d="M8.4,30.9 L16.2,26.4 L8.3,17.3 L3.9,22.3 L3.9,28.4 C4,31.2 6,32.3 8.4,30.9 Z" id="Path" fill="#3B3B3F" opacity="0.7"></path>
                                <g transform="translate(8.000000, 8.000000)" id="Path">
                                    <polygon fill="#48484D" points="26.8 12.6 26.8 20.3 21.1 23.6 21.1 15.9"></polygon>
                                    <polygon fill="#3B3B3F" opacity="0.7" points="24.1 16.4 21.1 19.9 21.1 23.6 24.6 21.5"></polygon>
                                    <polygon fill="#3B3B3F" points="21.1 15.9 21.1 23.6 0.3 17 0.3 9.3"></polygon>
                                    <polygon fill="#5F5F64" points="15.3 0.6 26.8 12.6 21.1 15.9 0.3 9.3"></polygon>
                                </g>
                                <g id="Axonometric_Cylinder_12_" transform="translate(30.000000, 23.000000)">
                                    <path d="M17.2,14.2 C17.2,15.5 18.1,16 19.2,15.4 C20.3,14.8 21.2,13.2 21.2,11.9 C21.2,10.6 20.3,10.1 19.2,10.7 C18.1,11.4 17.2,12.9 17.2,14.2 Z" id="Cylinder_face_191_" fill="#3B3B3F"></path>
                                    <path d="M20.7,10.6 L4,1 C3.6,0.8 3.1,0.8 2.6,1.1 C1.5,1.7 0.6,3.3 0.6,4.6 C0.6,5.2 0.8,5.7 1.2,5.9 L17.9,15.5 C17.5,15.3 17.3,14.8 17.3,14.2 C17.3,12.9 18.2,11.4 19.3,10.7 C19.8,10.4 20.3,10.4 20.7,10.6 Z" id="Cylinder_body_191_" fill="url(#linearGradient-5)"></path>
                                </g>
                            </g>
                        </g>
                    </g>
                </g>
            </g>
        </g>
    </g>
</svg>