<?xml version="1.0" encoding="UTF-8"?>
<svg width="84px" height="108px" viewBox="0 0 84 108" version="1.1" xmlns="http://www.w3.org/2000/svg" xmlns:xlink="http://www.w3.org/1999/xlink">
    <!-- Generator: Sketch 54.1 (76490) - https://sketchapp.com -->
    <title>9</title>
    <desc>Created with Sketch.</desc>
    <defs>
        <linearGradient x1="32.3101202%" y1="32.2495687%" x2="67.7291587%" y2="67.6901644%" id="linearGradient-1">
            <stop stop-color="#7E7E82" offset="0%"></stop>
            <stop stop-color="#87878B" offset="18.12%"></stop>
            <stop stop-color="#9F9FA3" offset="47.65%"></stop>
            <stop stop-color="#C5C5CB" offset="84.71%"></stop>
            <stop stop-color="#D7D7DD" offset="100%"></stop>
        </linearGradient>
        <linearGradient x1="-0.194121407%" y1="50.0561608%" x2="100.000935%" y2="50.0561608%" id="linearGradient-2">
            <stop stop-color="#7C7C80" offset="0%"></stop>
            <stop stop-color="#929296" offset="58.05%"></stop>
            <stop stop-color="#BDBDC5" offset="100%"></stop>
        </linearGradient>
        <linearGradient x1="32.3464427%" y1="32.2219972%" x2="67.7650588%" y2="67.6625929%" id="linearGradient-3">
            <stop stop-color="#7E7E82" offset="0%"></stop>
            <stop stop-color="#87878B" offset="18.12%"></stop>
            <stop stop-color="#9F9FA3" offset="47.65%"></stop>
            <stop stop-color="#C5C5CB" offset="84.71%"></stop>
            <stop stop-color="#D7D7DD" offset="100%"></stop>
        </linearGradient>
        <linearGradient x1="-0.159357729%" y1="49.9824653%" x2="100.035698%" y2="49.9824653%" id="linearGradient-4">
            <stop stop-color="#7C7C80" offset="0%"></stop>
            <stop stop-color="#929296" offset="58.05%"></stop>
            <stop stop-color="#BDBDC5" offset="100%"></stop>
        </linearGradient>
        <linearGradient x1="32.3823428%" y1="32.1946697%" x2="67.8013812%" y2="67.6350214%" id="linearGradient-5">
            <stop stop-color="#7E7E82" offset="0%"></stop>
            <stop stop-color="#87878B" offset="18.12%"></stop>
            <stop stop-color="#9F9FA3" offset="47.65%"></stop>
            <stop stop-color="#C5C5CB" offset="84.71%"></stop>
            <stop stop-color="#D7D7DD" offset="100%"></stop>
        </linearGradient>
        <linearGradient x1="-0.124185066%" y1="50.2333344%" x2="100.070871%" y2="50.2333344%" id="linearGradient-6">
            <stop stop-color="#7C7C80" offset="0%"></stop>
            <stop stop-color="#929296" offset="58.05%"></stop>
            <stop stop-color="#BDBDC5" offset="100%"></stop>
        </linearGradient>
        <linearGradient x1="-0.0894213873%" y1="50.4872469%" x2="100.105635%" y2="50.4872469%" id="linearGradient-7">
            <stop stop-color="#7C7C80" offset="0%"></stop>
            <stop stop-color="#929296" offset="58.05%"></stop>
            <stop stop-color="#BDBDC5" offset="100%"></stop>
        </linearGradient>
        <linearGradient x1="32.0979594%" y1="32.2991607%" x2="67.629096%" y2="67.9650492%" id="linearGradient-8">
            <stop stop-color="#7E7E82" offset="0%"></stop>
            <stop stop-color="#87878B" offset="18.12%"></stop>
            <stop stop-color="#9F9FA3" offset="47.65%"></stop>
            <stop stop-color="#C5C5CB" offset="84.71%"></stop>
            <stop stop-color="#D7D7DD" offset="100%"></stop>
        </linearGradient>
        <linearGradient x1="-0.153191489%" y1="49.6166504%" x2="100.178723%" y2="49.6166504%" id="linearGradient-9">
            <stop stop-color="#515254" offset="0%"></stop>
            <stop stop-color="#6F7173" offset="53.17%"></stop>
            <stop stop-color="#8E9194" offset="100%"></stop>
        </linearGradient>
        <linearGradient x1="32.1519552%" y1="32.127186%" x2="67.6774947%" y2="67.8013197%" id="linearGradient-10">
            <stop stop-color="#D6D6DD" offset="0%"></stop>
            <stop stop-color="#DFDFE5" offset="100%"></stop>
        </linearGradient>
        <linearGradient x1="0.0698259537%" y1="49.7447508%" x2="100.227781%" y2="49.7447508%" id="linearGradient-11">
            <stop stop-color="#7C7C80" offset="0%"></stop>
            <stop stop-color="#929296" offset="58.05%"></stop>
            <stop stop-color="#BDBDC5" offset="100%"></stop>
        </linearGradient>
        <radialGradient cx="70.1832177%" cy="7.35607545%" fx="70.1832177%" fy="7.35607545%" r="123.39666%" gradientTransform="translate(0.701832,0.073561),scale(0.909215,1.000000),translate(-0.701832,-0.073561)" id="radialGradient-12">
            <stop stop-color="#DFDFE5" offset="0%"></stop>
            <stop stop-color="#D5D5DB" offset="9.260767%"></stop>
            <stop stop-color="#BABABF" offset="25.13%"></stop>
            <stop stop-color="#8F8F93" offset="45.7%"></stop>
            <stop stop-color="#535355" offset="70.15%"></stop>
            <stop stop-color="#070707" offset="97.63%"></stop>
            <stop stop-color="#000000" offset="100%"></stop>
        </radialGradient>
        <radialGradient cx="49.9918072%" cy="49.9853012%" fx="49.9918072%" fy="49.9853012%" r="49.9526506%" id="radialGradient-13">
            <stop stop-color="#FFE888" offset="0%"></stop>
            <stop stop-color="#D7C473" offset="10.5%"></stop>
            <stop stop-color="#978950" offset="29.18%"></stop>
            <stop stop-color="#615834" offset="47.02%"></stop>
            <stop stop-color="#37321D" offset="63.51%"></stop>
            <stop stop-color="#19170D" offset="78.33%"></stop>
            <stop stop-color="#070603" offset="91%"></stop>
            <stop stop-color="#000000" offset="100%"></stop>
        </radialGradient>
    </defs>
    <g id="Page-1" stroke="none" stroke-width="1" fill="none" fill-rule="evenodd">
        <g id="19034-[преобразованный]" transform="translate(0.000000, -16.000000)" fill-rule="nonzero">
            <g id="_x32_">
                <g id="9" transform="translate(0.000000, 16.000000)">
                    <path d="M45.4,92.9 C52.1,93.9 56.1,97.9 54.3,101.8 C52.5,105.7 45.6,108 38.8,107 C32.1,106 28.1,102 29.9,98.1 C31.7,94.1 38.6,91.8 45.4,92.9 Z" id="Path" fill="#0F5E70"></path>
                    <g id="_x31__4_">
                        <g id="Group" transform="translate(27.000000, 55.000000)">
                            <path d="M19.3,32.3 C17.1,31 13.6,31 11.3,32.2 C10.1,32.9 9.5,33.8 9.6,34.7 C10.2,39 15.4,40 18.4,38.3 C19.9,37.4 20.6,36.3 20.8,34.8 C21,33.9 20.4,33 19.3,32.3 Z" id="Path" fill="#262628"></path>
                            <path d="M23,33.3 C18.6,35.8 11.6,35.7 7.3,33.1 C5.2,31.8 4.2,30.2 4.2,28.6 C4.2,29.8 4.4,33.6 8.8,36.3 C9.8,36.9 15.1,39.8 21.5,36.5 L21.5,36.5 C26.1,33.8 26.3,30 26.4,28.7 C26.3,30.4 25.2,32 23,33.3 Z" id="Path" fill="#68686B"></path>
                            <path d="M23.7,22.4 C19.1,19.7 11.7,19.6 7,22.2 C2.3,24.8 2.2,29.2 6.8,31.9 C11.4,34.6 18.8,34.7 23.5,32.1 C28.2,29.4 28.3,25.1 23.7,22.4 Z M23,31.8 C18.6,34.3 11.6,34.2 7.3,31.6 C3,29.1 3.1,25 7.5,22.5 C11.9,20 18.9,20.1 23.2,22.7 C27.5,25.2 27.4,29.3 23,31.8 Z" id="Shape" fill="url(#linearGradient-1)"></path>
                            <path d="M23.9,22.4 C17.7,18.5 5.2,20.1 3.3,26.3 C1.1,33.8 14.2,38.5 23.6,33.6 C23.6,33.6 23.6,33.6 23.6,33.6 C29.3,30.1 28.2,25.1 23.9,22.4 Z M23.5,32.1 C18.8,34.7 11.3,34.7 6.8,31.9 C2.2,29.2 2.4,24.8 7,22.2 C11.7,19.6 19.2,19.6 23.7,22.4 C28.3,25.1 28.2,29.4 23.5,32.1 Z" id="Shape" fill="url(#linearGradient-2)"></path>
                            <path d="M23,30.3 C18.6,32.8 11.6,32.7 7.3,30.1 C5.2,28.9 4.2,27.2 4.2,25.6 L4.2,27.1 C4.2,28.7 5.2,30.3 7.3,31.6 C11.6,34.1 18.6,34.2 23,31.8 C25.2,30.6 26.3,28.9 26.4,27.2 L26.4,25.7 C26.3,27.4 25.2,29 23,30.3 Z" id="Path" fill="#68686B"></path>
                            <path d="M23.7,19.4 C19.1,16.7 11.7,16.6 7,19.2 C2.3,21.8 2.2,26.2 6.8,28.9 C11.4,31.6 18.8,31.7 23.5,29.1 C28.2,26.4 28.3,22.1 23.7,19.4 Z M23,28.7 C18.6,31.2 11.6,31.1 7.3,28.5 C3,25.9 3.1,21.9 7.5,19.4 C11.9,16.9 18.9,17 23.2,19.6 C27.5,22.2 27.4,26.3 23,28.7 Z" id="Shape" fill="url(#linearGradient-3)"></path>
                            <path d="M23.9,19.4 L23.9,19.4 C17.7,15.5 5.2,17.1 3.3,23.3 C1.1,30.8 14.2,35.5 23.6,30.6 C23.6,30.6 23.6,30.6 23.6,30.6 C29.3,27.1 28.2,22.1 23.9,19.4 Z M23.5,29.1 C18.8,31.7 11.3,31.7 6.8,28.9 C2.2,26.2 2.4,21.8 7,19.2 C11.7,16.6 19.2,16.6 23.7,19.4 C28.3,22.1 28.2,26.4 23.5,29.1 Z" id="Shape" fill="url(#linearGradient-4)"></path>
                            <path d="M23,27.3 C18.6,29.8 11.6,29.7 7.3,27.1 C5.2,25.8 4.2,24.2 4.2,22.6 L4.2,24.1 C4.2,25.7 5.2,27.3 7.3,28.6 C11.6,31.2 18.6,31.2 23,28.8 C25.2,27.5 26.4,25.9 26.4,24.2 L26.4,22.7 C26.4,24.4 25.2,26 23,27.3 Z" id="Path" fill="#68686B"></path>
                            <path d="M23.7,16.4 C19.1,13.7 11.7,13.6 7,16.2 C2.3,18.8 2.2,23.2 6.8,25.9 C11.4,28.6 18.8,28.7 23.5,26.1 C28.2,23.4 28.3,19.1 23.7,16.4 Z M23,25.7 C18.6,28.2 11.6,28.1 7.3,25.5 C3,22.9 3.1,18.9 7.5,16.4 C11.9,13.9 18.9,14 23.2,16.6 C27.5,19.2 27.4,23.3 23,25.7 Z" id="Shape" fill="url(#linearGradient-5)"></path>
                            <path d="M23.9,16.4 C17.7,12.5 5.2,14.1 3.3,20.3 C1.1,27.8 14.2,32.5 23.6,27.6 C23.6,27.6 23.6,27.6 23.6,27.6 C29.3,24.1 28.2,19 23.9,16.4 Z M23.5,26 C18.8,28.6 11.3,28.6 6.8,25.8 C2.2,23.1 2.4,18.7 7,16.1 C11.7,13.5 19.2,13.5 23.7,16.3 C28.3,19.1 28.2,23.4 23.5,26 Z" id="Shape" fill="url(#linearGradient-6)"></path>
                            <path d="M23,24.3 C18.6,26.8 11.6,26.7 7.3,24.1 C5.2,22.8 4.2,21.2 4.2,19.6 L4.2,21.1 C4.2,22.7 5.2,24.3 7.3,25.6 C11.6,28.2 18.6,28.2 23,25.8 C25.2,24.6 26.3,22.9 26.4,21.2 L26.4,19.7 C26.4,21.4 25.2,23 23,24.3 Z" id="Path" fill="#68686B"></path>
                            <path d="M23.9,13.3 C17.7,9.4 5.2,11 3.3,17.2 C1.1,24.7 14.2,29.4 23.6,24.5 C23.6,24.5 23.7,24.5 23.7,24.4 C23.7,24.4 23.7,24.5 23.6,24.5 C29.3,21.1 28.2,16 23.9,13.3 Z M23.5,23 C18.8,25.6 11.3,25.6 6.8,22.8 C2.2,20.1 2.4,15.7 7,13.1 C11.7,10.5 19.2,10.5 23.7,13.3 C28.3,16.1 28.2,20.4 23.5,23 Z" id="Shape" fill="url(#linearGradient-7)"></path>
                            <path d="M23.8,13.3 C19.2,10.6 11.8,10.5 7.1,13.1 C2.4,15.7 2.3,20.1 6.9,22.8 C11.5,25.5 18.9,25.6 23.6,23 C28.2,20.4 28.3,16.1 23.8,13.3 Z M23,22.7 C18.6,25.2 11.6,25.1 7.3,22.5 C3,19.9 3.1,15.9 7.5,13.4 C11.9,10.9 18.9,11 23.2,13.6 C27.5,16.2 27.4,20.3 23,22.7 Z" id="Shape" fill="url(#linearGradient-8)"></path>
                            <path d="M7.3,20.5 C5.2,19.2 4.2,17.6 4.2,16 L4.2,18.1 C4.2,19.7 5.2,21.3 7.3,22.6 C11.6,25.2 18.6,25.2 23,22.8 L23,20.7 C18.6,23.1 11.6,23 7.3,20.5 Z" id="Path" fill="url(#linearGradient-9)"></path>
                            <path d="M25.9,20.9 C19.9,24.3 10.2,24.2 4.3,20.7 C1.8,19.2 0.4,17.4 0.1,15.5 C0.4,17.2 1.3,19.4 4.7,21.4 C8.5,23.7 17.5,25.8 25.6,21.6 C29.4,19.4 30.3,16.9 30.5,15.4 C30.1,17.5 28.6,19.4 25.9,20.9 Z" id="Path" fill="#68686B"></path>
                            <path d="M26.3,3.3 C20.4,-0.2 10.8,-0.3 4.7,3.1 C-1.3,6.5 -1.5,12.1 4.4,15.6 C10.3,19.1 19.9,19.2 26,15.8 C32,12.4 32.1,6.8 26.3,3.3 Z" id="Path" fill="url(#linearGradient-10)"></path>
                            <path d="M24.5,4.3 C19.6,1.3 11.4,1.3 6.4,4.1 C1.4,6.9 1.2,11.7 6.1,14.6 C11,17.6 19.2,17.6 24.2,14.8 C29.3,11.9 29.4,7.2 24.5,4.3 Z" id="Path" fill="#262628"></path>
                            <path d="M25.9,15.8 C19.9,19.2 10.2,19.1 4.3,15.6 C1.4,13.9 7.10542736e-15,11.6 7.10542736e-15,9.4 L7.10542736e-15,14.6 C7.10542736e-15,16.8 1.4,19.1 4.3,20.8 C10.2,24.3 19.8,24.4 25.9,21 C29,19.3 30.5,17 30.5,14.7 L30.5,9.5 C30.6,11.8 29,14.1 25.9,15.8 Z" id="Path" fill="url(#linearGradient-11)"></path>
                        </g>
                        <path d="M48.6,7 C26.7,1.6 9.1,24.6 20.3,44.1 C21.6,46.2 22.7,47.9 23.6,49.6 C22.6,48 21.5,46.2 20.3,44.1 C26.5,54.4 27,55.2 27.3,63.9 C27.5,71.4 43.2,75.3 52.6,70 C54.3,69 55.5,67.9 56.3,66.7 C56.8,65.8 57.1,64.9 57.1,63.9 C57.5,55 58.1,54.4 64.3,44.2 C73.4,28.8 64.4,10.9 48.6,7 Z" id="Path" fill="#CBCBD4" opacity="0.6"></path>
                        <path d="M55.4,12.3 C63,17 66.1,25.7 62.3,31.9 C58.5,38.1 49.3,39.3 41.7,34.6 C34.1,30 31,21.2 34.8,15.1 C38.6,8.9 47.8,7.7 55.4,12.3 Z" id="Path" fill="url(#radialGradient-12)" opacity="0.8"></path>
                        <path d="M37,44.8 C37,44.8 36.9,44.8 36.9,44.7 C36.9,44.6 36.8,44.6 36.8,44.5 C36.8,44.4 36.7,44.3 36.7,44.2 C36.7,44.2 36.7,44.2 36.7,44.2 C36.7,44.2 36.7,44.2 36.7,44.2 C36.7,44.2 36.6,44.2 36.6,44.3 C36.6,44.3 36.6,44.3 36.6,44.3 C36.6,44.3 36.6,44.3 36.6,44.3 C36.6,44.2 36.7,44.2 36.7,44.1 C36.7,44.1 36.7,44.1 36.7,44.1 C36.7,44.1 36.8,44.1 36.8,44.2 C36.8,44.3 36.9,44.4 36.9,44.5 C36.9,44.6 36.9,44.6 37,44.7 C37,44.7 37,44.7 37,44.8 L37,44.8 C37,44.7 37,44.7 37.1,44.7 C37.1,44.6 37.2,44.4 37.2,44.3 C37.2,44.2 37.2,44.1 37.3,44.1 C37.3,43.9 37.4,43.8 37.5,43.8 C37.5,43.8 37.5,43.8 37.5,43.8 C37.6,43.8 37.6,44 37.7,44.1 C37.7,44.2 37.8,44.4 37.8,44.4 L37.8,44.4 C37.8,44.4 37.8,44.4 37.8,44.4 C37.9,44.3 37.9,44.1 38,43.9 C38.1,43.6 38.1,43.4 38.2,43.4 C38.2,43.4 38.2,43.4 38.2,43.4 C38.3,43.4 38.3,43.5 38.4,43.7 C38.4,43.7 38.4,43.8 38.4,43.8 C38.4,43.9 38.5,44 38.5,44 C38.5,44 38.6,43.9 38.6,43.7 C38.6,43.6 38.6,43.6 38.6,43.5 C38.6,43.3 38.7,43.2 38.7,43.1 C38.7,43.1 38.8,43 38.8,43 C38.8,43 38.8,43 38.8,43 C38.9,43 38.9,43 38.9,43.1 C38.9,43.2 38.9,43.2 39,43.3 C39,43.4 39.1,43.5 39.1,43.6 C39.1,43.6 39.1,43.6 39.1,43.6 C39.1,43.6 39.2,43.5 39.2,43.5 C39.2,43.4 39.3,43.3 39.3,43.2 C39.3,43.1 39.4,43 39.4,42.9 C39.4,42.8 39.5,42.7 39.6,42.7 C39.6,42.7 39.7,42.7 39.7,42.7 C39.8,42.8 39.8,42.9 39.9,43 C39.9,43.1 40,43.2 40,43.2 C40,43.2 40,43.2 40,43.2 C40.1,43 40.1,42.8 40.2,42.6 C40.3,42.4 40.3,42.2 40.4,42.2 C40.4,42.2 40.4,42.2 40.4,42.2 C40.5,42.2 40.6,42.4 40.6,42.6 C40.6,42.7 40.6,42.8 40.7,42.9 C40.7,42.9 40.7,42.9 40.7,42.9 C40.8,42.8 40.8,42.6 40.9,42.4 C40.9,42.2 41,42 41.1,41.8 C41.1,41.8 41.1,41.8 41.2,41.8 C41.3,41.8 41.3,41.9 41.3,42.1 C41.3,42.2 41.4,42.4 41.5,42.5 C41.5,42.5 41.6,42.3 41.6,42.1 C41.6,41.9 41.7,41.7 41.8,41.6 C41.8,41.5 41.9,41.5 41.9,41.5 C41.9,41.5 41.9,41.5 41.9,41.5 C41.9,41.5 42,41.5 42,41.6 C42,41.7 42.1,41.8 42.1,41.8 C42.1,41.9 42.2,42 42.2,42 C42.2,42 42.2,42 42.2,42 C42.2,42 42.2,42 42.2,42 C42.2,42 42.3,42 42.3,41.9 C42.3,41.8 42.4,41.6 42.4,41.5 C42.4,41.4 42.4,41.3 42.5,41.2 C42.5,41.1 42.6,40.9 42.7,40.9 C42.7,40.9 42.7,40.9 42.8,40.9 C42.9,41 42.9,41.1 42.9,41.2 C42.9,41.2 42.9,41.3 42.9,41.3 C42.9,41.4 43,41.5 43,41.5 C43,41.5 43,41.5 43,41.5 C43.1,41.4 43.1,41.2 43.2,41 C43.3,40.7 43.3,40.5 43.4,40.5 C43.4,40.5 43.4,40.5 43.5,40.5 C43.6,40.5 43.6,40.7 43.7,40.8 C43.7,40.9 43.8,41.1 43.8,41.1 C43.8,41.1 43.8,41.1 43.8,41.1 C43.8,41.1 43.9,40.8 44,40.6 C44,40.4 44.1,40.2 44.1,40.1 C44.1,40.1 44.2,40.1 44.2,40.1 C44.2,40.1 44.2,40.1 44.2,40.1 C44.3,40.1 44.3,40.2 44.3,40.3 C44.3,40.4 44.3,40.4 44.4,40.5 C44.4,40.6 44.5,40.7 44.5,40.8 C44.5,40.8 44.5,40.8 44.5,40.8 C44.5,40.8 44.6,40.7 44.6,40.6 C44.6,40.5 44.7,40.4 44.7,40.3 C44.7,40.2 44.8,40 44.8,39.9 C44.8,39.8 44.9,39.7 44.9,39.7 C44.9,39.7 45,39.7 45,39.8 C45,39.9 45.1,40 45.1,40.1 C45.1,40.2 45.1,40.2 45.2,40.3 C45.2,40.4 45.3,40.4 45.3,40.4 L45.3,40.4 C45.3,40.4 45.3,40.4 45.3,40.4 C45.4,40.2 45.4,40 45.5,39.8 C45.6,39.5 45.6,39.4 45.7,39.4 C45.7,39.4 45.7,39.4 45.7,39.4 C45.8,39.5 45.9,39.7 45.9,39.8 C45.9,39.9 46,40 46,40 C46,40 46,40 46,40 C46.1,39.9 46.1,39.7 46.2,39.5 C46.2,39.3 46.3,39.1 46.4,39 C46.4,39 46.5,39 46.5,39 C46.6,39 46.6,39.1 46.6,39.3 C46.6,39.5 46.7,39.6 46.8,39.7 C46.8,39.7 46.9,39.5 46.9,39.3 C46.9,39.1 47,38.9 47.1,38.7 C47.1,38.7 47.2,38.6 47.2,38.6 C47.2,38.6 47.2,38.6 47.2,38.6 C47.3,38.6 47.3,38.6 47.3,38.7 C47.3,38.8 47.3,38.8 47.4,38.9 C47.4,39 47.5,39.1 47.5,39.2 C47.5,39.2 47.5,39.2 47.5,39.2 C47.5,39.2 47.6,39.1 47.6,39.1 C47.6,39 47.7,38.9 47.7,38.7 C47.7,38.6 47.7,38.5 47.8,38.4 C47.8,38.4 47.8,38.4 47.8,38.4 C47.8,38.4 47.8,38.4 47.8,38.4 C47.8,38.5 47.7,38.6 47.7,38.7 C47.7,38.8 47.6,38.9 47.6,39.1 C47.6,39.2 47.5,39.3 47.5,39.3 C47.5,39.3 47.5,39.3 47.5,39.3 C47.5,39.3 47.5,39.3 47.4,39.3 C47.4,39.2 47.3,39.1 47.3,39 C47.3,38.9 47.3,38.9 47.2,38.8 C47.2,38.7 47.1,38.7 47.1,38.7 L47.1,38.7 C47.1,38.7 47.1,38.7 47.1,38.7 C47,38.9 47,39.1 46.9,39.3 C46.8,39.6 46.8,39.7 46.7,39.7 C46.7,39.7 46.7,39.7 46.7,39.7 C46.6,39.6 46.5,39.4 46.5,39.3 C46.5,39.2 46.5,39.1 46.4,39.1 C46.4,39.1 46.4,39.1 46.4,39.1 C46.3,39.2 46.3,39.4 46.2,39.6 C46.2,39.8 46.1,40 46,40.1 C46,40.1 45.9,40.1 45.9,40.1 C45.8,40.1 45.8,40 45.8,39.8 C45.8,39.7 45.7,39.5 45.6,39.4 C45.6,39.4 45.5,39.6 45.5,39.8 C45.5,40 45.4,40.2 45.3,40.4 C45.3,40.5 45.2,40.5 45.2,40.5 L45.2,40.5 C45.2,40.5 45.1,40.5 45.1,40.4 C45.1,40.3 45,40.3 45,40.2 C45,40.1 44.9,40 44.9,39.9 C44.9,39.9 44.9,39.9 44.9,39.9 C44.9,39.9 44.8,39.9 44.8,40 C44.8,40.1 44.7,40.2 44.7,40.4 C44.7,40.5 44.7,40.6 44.6,40.7 C44.6,40.8 44.5,40.9 44.4,40.9 C44.4,40.9 44.4,40.9 44.3,40.9 C44.2,40.8 44.2,40.7 44.2,40.6 C44.2,40.5 44.2,40.5 44.1,40.4 C44.1,40.3 44,40.3 44,40.3 C44,40.3 44,40.3 44,40.3 C44,40.3 44,40.3 44,40.3 C44,40.4 43.9,40.6 43.9,40.8 C43.8,41.2 43.8,41.4 43.7,41.4 C43.7,41.4 43.7,41.4 43.7,41.4 C43.6,41.4 43.6,41.2 43.5,41 C43.5,40.9 43.4,40.7 43.4,40.7 C43.4,40.7 43.4,40.7 43.4,40.7 C43.3,40.7 43.3,41 43.2,41.2 C43.2,41.4 43.1,41.6 43,41.7 C43,41.7 42.9,41.7 42.9,41.7 C42.8,41.7 42.8,41.6 42.7,41.5 C42.7,41.5 42.7,41.4 42.7,41.4 C42.7,41.3 42.6,41.2 42.6,41.1 C42.6,41.1 42.5,41.2 42.5,41.3 C42.5,41.4 42.5,41.5 42.4,41.6 C42.4,41.7 42.3,41.9 42.3,42 C42.3,42.1 42.2,42.1 42.2,42.1 C42.2,42.1 42.2,42.1 42.2,42.1 C42.2,42.1 42.1,42.1 42.1,42 C42.1,41.9 42,41.8 42,41.8 C42,41.7 41.9,41.6 41.9,41.6 C41.9,41.6 41.9,41.6 41.8,41.6 C41.8,41.6 41.8,41.6 41.8,41.6 C41.8,41.6 41.8,41.6 41.7,41.7 C41.6,41.9 41.6,42.1 41.5,42.2 C41.4,42.5 41.4,42.6 41.3,42.6 C41.3,42.6 41.3,42.6 41.3,42.6 C41.2,42.5 41.2,42.3 41.1,42.2 C41.1,42.1 41,42 41,42 C41,42 41,42 41,42 C41,41.8 41,42 40.9,42.2 C40.9,42.4 40.8,42.6 40.7,42.7 C40.7,42.7 40.6,42.7 40.6,42.7 C40.5,42.7 40.5,42.5 40.5,42.4 C40.5,42.2 40.4,42.1 40.4,42 C40.4,42 40.4,42 40.4,42 C40.4,42 40.3,42.2 40.3,42.4 C40.3,42.6 40.2,42.8 40.1,43 C40.1,43 40.1,43 40,43 C40,43 40,43 40,43 C39.9,43 39.9,42.9 39.8,42.7 C39.8,42.6 39.7,42.5 39.6,42.4 C39.6,42.4 39.6,42.4 39.6,42.4 C39.6,42.4 39.5,42.5 39.5,42.6 C39.5,42.7 39.4,42.8 39.4,42.9 C39.4,43 39.3,43.1 39.3,43.3 C39.3,43.4 39.2,43.5 39.2,43.5 C39.2,43.5 39.1,43.5 39.1,43.5 C39.1,43.4 39,43.3 39,43.2 C39,43.1 39,43.1 38.9,43 C38.9,42.9 38.8,42.9 38.8,42.9 C38.8,42.9 38.8,42.9 38.8,42.9 C38.8,42.9 38.8,42.9 38.8,42.9 C38.7,43 38.7,43.2 38.7,43.3 C38.7,43.4 38.7,43.4 38.7,43.5 C38.7,43.6 38.6,43.8 38.5,43.9 C38.5,43.9 38.5,43.9 38.5,43.9 C38.4,43.9 38.4,43.8 38.3,43.6 C38.3,43.6 38.3,43.5 38.3,43.5 C38.2,43.3 38.2,43.3 38.2,43.3 L38.2,43.3 C38.1,43.3 38.1,43.6 38,43.8 C37.9,44 37.9,44.3 37.8,44.4 C37.8,44.4 37.7,44.4 37.7,44.4 C37.6,44.4 37.6,44.3 37.5,44.1 C37.5,44 37.4,43.8 37.4,43.8 C37.4,43.8 37.3,43.9 37.3,44.1 C37.3,44.2 37.3,44.3 37.2,44.3 C37.2,44.5 37.1,44.6 37.1,44.7 C37.1,44.8 37.1,44.8 37,44.8 L37,44.8 Z" id="Path" fill="#B29A32"></path>
                        <g id="Group" transform="translate(36.000000, 37.000000)">
                            <path d="M8.4,15.8 C8.4,15.8 8.4,15.8 8.4,15.8 C8.4,15.7 8.4,15.6 8.4,15.6 L7.4,12.7 C7.5,12.9 7.4,13.2 7.1,13.3 C6.6,13.6 5.9,13.6 5.4,13.3 C5.1,13.1 5,12.9 5.1,12.7 L4.1,15.6 C4.1,15.7 4.1,15.8 4.1,15.9 C4.1,15.9 4.1,15.9 4.1,15.9 L4.1,28.1 C4.1,28.4 4.3,28.7 4.7,29 C5.5,29.5 6.9,29.5 7.8,29 C8.2,28.8 8.5,28.4 8.5,28.1 L8.4,15.8 Z" id="Path" fill="#A3A3AD" opacity="0.6"></path>
                            <path d="M7.1,12.3 C6.6,12 5.9,12 5.4,12.3 C4.9,12.6 4.9,13 5.4,13.3 C5.9,13.6 6.6,13.6 7.1,13.3 C7.5,13 7.5,12.6 7.1,12.3 Z" id="Path" fill="#C4C4CC" opacity="0.6"></path>
                            <g fill="#333333" id="Path">
                                <path d="M5.7,13.2 C5.6,13.2 5.5,13.1 5.5,13 L5.5,10.5 L1,10.3 C0.9,10.3 0.9,10.2 0.8,10.2 L0.2,7.1 C0.2,7 0.2,6.9 0.3,6.9 C0.4,6.9 0.5,6.9 0.5,7 L1,10 L5.5,10.2 C5.6,10.2 5.7,10.3 5.7,10.4 L5.7,13 C5.9,13.1 5.8,13.2 5.7,13.2 Z"></path>
                                <path d="M6.7,12.7 C6.6,12.7 6.5,12.6 6.5,12.5 L6.5,9.8 C6.5,9.8 6.5,9.7 6.5,9.7 L11.1,4.1 L11.7,0.4 C11.7,0.3 11.8,0.2 11.9,0.3 C12,0.3 12.1,0.4 12,0.5 L11.4,4.3 C11.4,4.3 11.4,4.4 11.4,4.4 L6.8,10 L6.8,12.6 C6.8,12.6 6.8,12.7 6.7,12.7 Z"></path>
                            </g>
                        </g>
                        <circle id="Oval" fill="url(#radialGradient-13)" cx="42.3" cy="41.7" r="41.5"></circle>
                    </g>
                </g>
            </g>
        </g>
    </g>
</svg>