<svg xmlns="http://www.w3.org/2000/svg" viewBox="0 0 56.68 88.02"><defs><style>.cls-1{isolation:isolate;}.cls-2{fill:#d2ebeb;}.cls-10,.cls-3{fill:#fff;}.cls-4{fill:#969696;}.cls-5{fill:#505050;}.cls-6{fill:#b4b4b4;}.cls-7{fill:#78b400;}.cls-8{fill:#469600;}.cls-9{fill:#783200;}.cls-10{opacity:0.2;mix-blend-mode:screen;}</style></defs><title>Ресурс 1</title><g class="cls-1"><g id="Слой_2" data-name="Слой 2"><g id="Layer_1" data-name="Layer 1"><path class="cls-2" d="M56,34.24a28.33,28.33,0,1,0-55.42,0C4,50.52,20.33,60.45,20.33,65.83v6h16v-6C36.33,60.45,52.65,50.52,56,34.24Z"/><path class="cls-3" d="M51.66,29.33a1,1,0,0,1-1-1A22.36,22.36,0,0,0,28.33,6a1,1,0,0,1,0-2A24.36,24.36,0,0,1,52.66,28.33,1,1,0,0,1,51.66,29.33Z"/><path class="cls-4" d="M36.33,82.77a2,2,0,0,1-2,2h-12a2,2,0,0,1-2-2V73.5h16Z"/><path class="cls-5" d="M33.27,86.61A2,2,0,0,1,31.35,88h-6a2,2,0,0,1-1.91-1.41l-.57-1.84h11Z"/><rect class="cls-6" x="20.33" y="81.8" width="16" height="0.85"/><rect class="cls-6" x="20.33" y="79.25" width="16" height="0.85"/><rect class="cls-6" x="20.33" y="76.7" width="16" height="0.85"/><path class="cls-7" d="M15,14.5C9.21,21.58,4.37,44.91,25.37,46.75c-2.5-5.58.08-10.5-1.5-17.92S15,14.5,15,14.5Z"/><path class="cls-7" d="M33.37,14.5c2.15,3,3.5,13.17-4.58,17.25C26.21,28.25,26.71,18.41,33.37,14.5Z"/><path class="cls-7" d="M44.12,27.16c-6.17.5-15.79,7.58-15.79,23.67C43.37,47.5,44.12,27.16,44.12,27.16Z"/><path class="cls-8" d="M15.37,20.58s0,.62,0,1.69c0,.54.08,1.19.15,1.93s.2,1.58.4,2.48.42,1.87.7,2.89.65,2.07,1.05,3.14l.66,1.62L19.08,36c.52,1.09,1.08,2.18,1.68,3.25a56.4,56.4,0,0,0,3.91,6,22.66,22.66,0,0,1,1.87,2.82,19.35,19.35,0,0,1,1.24,2.79,19,19,0,0,1,1,4.47c.05.55.06,1,.06,1.29s0,.48,0,.48l-1-.08s0-.13,0-.41,0-.69,0-1.21a18,18,0,0,0-.84-4.26,18.47,18.47,0,0,0-1.13-2.68c-.24-.46-.5-.9-.8-1.37l-1-1.4a57,57,0,0,1-3.78-6.22c-.57-1.1-1.1-2.22-1.6-3.33L18,34.5l-.61-1.66c-.37-1.1-.7-2.17-1-3.2s-.49-2-.62-2.93-.24-1.76-.33-2.51-.07-1.41-.1-1.94Z"/><path class="cls-8" d="M38.79,34.91s-.35.46-1,1.22l-1.21,1.38c-.46.53-1,1.13-1.52,1.81s-1.11,1.42-1.67,2.23a27.63,27.63,0,0,0-1.62,2.64c-.25.47-.52.95-.73,1.46a16,16,0,0,0-.64,1.54,23.48,23.48,0,0,0-1,3.25,26.48,26.48,0,0,0-.5,3.35c0,1.12-.08,2.21-.05,3.31,0,2.17,0,4.2,0,5.94,0,3.48,0,5.79,0,5.79h-1s0-2.32,0-5.79c0-1.74,0-3.77,0-5.94,0-1.08.06-2.23.12-3.39a27.4,27.4,0,0,1,.59-3.47,20.89,20.89,0,0,1,1.1-3.34,16.74,16.74,0,0,1,.72-1.56c.24-.52.52-1,.8-1.47a23.76,23.76,0,0,1,1.77-2.63c.61-.8,1.22-1.52,1.81-2.17,1.17-1.3,2.23-2.29,3-3S38.79,34.91,38.79,34.91Z"/><rect class="cls-9" x="21.02" y="65.83" width="14.52" height="4.75"/><rect class="cls-6" x="19.58" y="70.58" width="17.5" height="4"/><path class="cls-10" d="M31.35,88a2,2,0,0,0,1.91-1.41l.57-1.84h.5a2,2,0,0,0,2-2V74.58h.75v-4h-.75V65.83c0-5.38,16.32-15.31,19.71-31.59L56.1,34c.05-.27.1-.55.15-.83s.09-.57.13-.86.06-.44.09-.66.07-.72.1-1.08c0-.18,0-.36,0-.55,0-.55.05-1.11.05-1.67A28.33,28.33,0,0,0,28.33,0V88Z"/></g></g></g></svg>