<svg xmlns="http://www.w3.org/2000/svg" viewBox="0 0 90.75 93.19"><defs><style>.cls-1{isolation:isolate;}.cls-2{fill:#ebebeb;}.cls-3{fill:#006482;}.cls-4{fill:#e1e1e1;}.cls-5{fill:#fff;opacity:0.2;mix-blend-mode:screen;}.cls-6{fill:#00506e;}.cls-7{fill:#783200;}.cls-8{fill:#78b400;}.cls-9{fill:#969696;}.cls-10{fill:#ffdc00;}</style></defs><title>Ресурс 10</title><g class="cls-1"><g id="Слой_2" data-name="Слой 2"><g id="Layer_1" data-name="Layer 1"><rect class="cls-2" x="35.46" y="53.82" width="49.25" height="36.68"/><polygon class="cls-3" points="19.21 23.37 70.21 23.37 88.52 54.34 37.52 54.34 19.21 23.37"/><polygon class="cls-4" points="35.46 90.49 2.96 90.49 2.96 53.82 19.21 26.32 35.46 53.82 35.46 90.49"/><polygon class="cls-5" points="38.66 52.34 22.72 25.37 69.07 25.37 85.01 52.34 38.66 52.34"/><polygon class="cls-6" points="19.21 29.27 34.03 54.34 37.52 54.34 19.21 23.37 0.91 54.34 4.39 54.34 19.21 29.27"/><rect class="cls-3" x="41.78" y="22.69" width="1" height="32.33" transform="translate(-13.89 26.91) rotate(-30.58)"/><rect class="cls-3" x="53.37" y="22.69" width="1" height="32.33" transform="translate(-12.28 32.81) rotate(-30.58)"/><rect class="cls-3" x="64.95" y="22.69" width="1" height="32.33" transform="translate(-10.66 38.7) rotate(-30.58)"/><rect class="cls-3" x="26.2" y="31.61" width="47.35" height="1"/><rect class="cls-3" x="30.19" y="38.36" width="47.35" height="1"/><rect class="cls-3" x="34.17" y="45.1" width="47.35" height="1"/><rect class="cls-7" y="90.49" width="88.52" height="2.7"/><rect class="cls-8" x="42.26" y="67.98" width="9.25" height="22.51"/><rect class="cls-9" x="58.34" y="65.15" width="8.92" height="16.83"/><rect class="cls-9" x="71.26" y="65.15" width="8.92" height="16.83"/><rect class="cls-9" x="8.3" y="65.15" width="8.92" height="16.83"/><rect class="cls-9" x="21.21" y="65.15" width="8.92" height="16.83"/><path class="cls-9" d="M18.26,46.32a4.75,4.75,0,0,0-4.75,4.75H23A4.75,4.75,0,0,0,18.26,46.32Z"/><circle class="cls-10" cx="70.99" cy="19.76" r="9.74"/><path class="cls-10" d="M71,8.43a11.32,11.32,0,0,1,2.36.25h0A21.87,21.87,0,0,1,71,0a21.87,21.87,0,0,1-2.36,8.67h0A11.32,11.32,0,0,1,71,8.43Z"/><path class="cls-10" d="M82.32,19.76a11.32,11.32,0,0,1-.25,2.36h0a21.87,21.87,0,0,1,8.67-2.36,21.87,21.87,0,0,1-8.67-2.36h0A11.32,11.32,0,0,1,82.32,19.76Z"/><path class="cls-10" d="M71,31.09a11.32,11.32,0,0,1-2.36-.25h0A21.87,21.87,0,0,1,71,39.52a21.87,21.87,0,0,1,2.36-8.67h0A11.32,11.32,0,0,1,71,31.09Z"/><path class="cls-10" d="M59.66,19.76a11.39,11.39,0,0,1,.25-2.36h0a21.88,21.88,0,0,1-8.68,2.36,21.88,21.88,0,0,1,8.68,2.36h0A11.39,11.39,0,0,1,59.66,19.76Z"/><path class="cls-10" d="M63,11.75a11.26,11.26,0,0,1,1.84-1.49h0A21.89,21.89,0,0,1,57,5.79a21.88,21.88,0,0,1,4.47,7.8h0A11.26,11.26,0,0,1,63,11.75Z"/><path class="cls-10" d="M79,11.75a11.31,11.31,0,0,1,1.49,1.84h0A21.88,21.88,0,0,1,85,5.79a21.88,21.88,0,0,1-7.8,4.47h0A11.31,11.31,0,0,1,79,11.75Z"/><path class="cls-10" d="M79,27.77a11.3,11.3,0,0,1-1.84,1.49h0A21.88,21.88,0,0,1,85,33.73a21.88,21.88,0,0,1-4.47-7.8h0A11.31,11.31,0,0,1,79,27.77Z"/><path class="cls-10" d="M63,27.77a11.26,11.26,0,0,1-1.49-1.84h0A21.88,21.88,0,0,1,57,33.73a21.88,21.88,0,0,1,7.8-4.47h0A11.26,11.26,0,0,1,63,27.77Z"/></g></g></g></svg>