<svg xmlns="http://www.w3.org/2000/svg" viewBox="0 0 49.64 83.62"><defs><style>.cls-1{isolation:isolate;}.cls-2{fill:#505050;}.cls-3{fill:#469600;}.cls-4{fill:#006482;}.cls-5{fill:#78b400;}.cls-6,.cls-8{fill:#ffdc00;}.cls-7{fill:#f0c800;}.cls-8,.cls-9{opacity:0.2;mix-blend-mode:screen;}.cls-9{fill:#fff;}</style></defs><title>Ресурс 11</title><g class="cls-1"><g id="Слой_2" data-name="Слой 2"><g id="Layer_1" data-name="Layer 1"><path class="cls-2" d="M32,83.62a11.74,11.74,0,0,1-9-4.24c-2.6-3-4-7.26-4-12.29h2c0,10,5.66,14.53,10.93,14.53s10.82-4.55,10.82-14.53v-15h2v15C44.83,78.44,38.19,83.62,32,83.62Z"/><rect class="cls-3" x="17.6" y="65.26" width="4.97" height="4.97"/><path class="cls-4" d="M49.64,45.57l-.45-11.94v-.35l-4.68-5-.36-8.86L33.75,10.53l-1.42,1.66L42,20.42l.35,8.69-2.18.06a1.47,1.47,0,0,0-1.43,1.48l.14,10.25a1.46,1.46,0,0,1-.65,1.23l-2.92,2a1.47,1.47,0,0,0-.64,1.22l0,2.79v.39a1.51,1.51,0,0,0,.44,1,1.5,1.5,0,0,0,1,.42l1.59,0,.09,7.58A1.46,1.46,0,0,0,39.34,59l3.88,0h.91a1.48,1.48,0,0,0,1.45-1.48l-.1-7.58h.26a1.45,1.45,0,0,0,1.44-1.47l0-2.74ZM39.33,57.71l-.07-4.88a2.93,2.93,0,0,1,2.88-3h.28l.1,7.8Z"/><path class="cls-3" d="M36.5,6.5c-4.37,0-9.88,7.07-9.88,7.07s-2,9,2.2,11.78C28.5,17.88,36.5,6.5,36.5,6.5Z"/><path class="cls-3" d="M7.5,3.63a9.59,9.59,0,0,1,7.1,6.29c2.27,3.08-2.41,10.57-2.41,10.57S11.37,6.63,7.5,3.63Z"/><path class="cls-5" d="M25,63.33a3,3,0,0,1-3,3H18.15a3,3,0,0,1-3-3v-1H25Z"/><path class="cls-6" d="M20.12,63.75c18,0,7.12-63.75,0-63.75S2.12,63.75,20.12,63.75Z"/><path class="cls-7" d="M20.12,0a.85.85,0,0,0-.61.36,5.71,5.71,0,0,0-.88,1.84,45.55,45.55,0,0,0-1.42,7.23c-.43,3-.74,6.58-1,10.39s-.5,7.88-.46,12-.06,8.17,0,12,.23,7.39.59,10.42a21.67,21.67,0,0,0,1.71,7.11,3.25,3.25,0,0,0,1.36,1.47,1.89,1.89,0,0,0,.52.15l.19,0h-.19a2,2,0,0,1-.54-.12,3.25,3.25,0,0,1-1.51-1.43,20.57,20.57,0,0,1-2.1-7.13,94.12,94.12,0,0,1-.9-10.46c-.14-3.84-.16-7.93-.17-12s.27-8.2.59-12,.83-7.38,1.34-10.41a40.61,40.61,0,0,1,1.79-7.21,5.46,5.46,0,0,1,1-1.82A.87.87,0,0,1,20.12,0Z"/><path class="cls-7" d="M20.12,0a.87.87,0,0,1,.65.32,5.46,5.46,0,0,1,1,1.82,40.62,40.62,0,0,1,1.79,7.21c.51,3,1,6.58,1.34,10.41s.59,7.92.59,12,0,8.18-.17,12a94.12,94.12,0,0,1-.9,10.46,20.57,20.57,0,0,1-2.1,7.13,3.25,3.25,0,0,1-1.51,1.43,2,2,0,0,1-.54.12h-.19l.19,0a1.88,1.88,0,0,0,.52-.15,3.24,3.24,0,0,0,1.36-1.47,21.67,21.67,0,0,0,1.71-7.11c.37-3,.49-6.6.59-10.42s.06-7.9,0-12-.18-8.14-.46-12-.6-7.37-1-10.39A45.55,45.55,0,0,0,21.61,2.2,5.71,5.71,0,0,0,20.73.36.85.85,0,0,0,20.12,0Z"/><path class="cls-7" d="M20.12,0l.1,2.7c0,1.72.14,4.18.18,7.13s.13,6.39.15,10.08,0,7.62.07,11.55,0,7.87-.07,11.55-.11,7.13-.15,10.08-.14,5.41-.18,7.13l-.1,2.7s0-1-.1-2.7-.14-4.18-.18-7.13-.14-6.39-.15-10.08,0-7.62-.07-11.55,0-7.87.07-11.55.11-7.13.15-10.08S20,4.42,20,2.7Z"/><path class="cls-7" d="M15.71,6.5l.37.14.43.13a4.23,4.23,0,0,0,.55.15l.67.12a4.47,4.47,0,0,0,.75.11l.81,0,.81.06c.57,0,1.14-.08,1.68-.11A4.24,4.24,0,0,0,22.52,7l.66-.12a4.24,4.24,0,0,0,.56-.15l.43-.13.37-.14a2.55,2.55,0,0,1-.33.23l-.4.21a2.34,2.34,0,0,1-.54.24l-.68.21a3.3,3.3,0,0,1-.77.19c-.53.06-1.1.11-1.67.17l-.89-.08-.84-.09a3.21,3.21,0,0,1-.76-.19L17,7.18a2.42,2.42,0,0,1-.54-.24L16,6.73A2.53,2.53,0,0,1,15.71,6.5Z"/><path class="cls-7" d="M14.55,10.08a9.5,9.5,0,0,0,1.7.56,8.18,8.18,0,0,0,.84.18c.3,0,.62.11.95.13s.67.08,1,.09l1.06,0,1.07,0c.36,0,.68-.06,1-.09s.64-.09.95-.13a8,8,0,0,0,.84-.18,9.59,9.59,0,0,0,1.7-.56,3.45,3.45,0,0,1-.41.29,7,7,0,0,1-1.19.58,8.37,8.37,0,0,1-.85.28,7,7,0,0,1-1,.23c-.34,0-.71.13-1.06.14l-1.09.06L19,11.58A10.6,10.6,0,0,1,18,11.44a7.09,7.09,0,0,1-1-.22,8.35,8.35,0,0,1-.85-.28,7.07,7.07,0,0,1-1.2-.58A3.34,3.34,0,0,1,14.55,10.08Z"/><path class="cls-7" d="M13.23,14.87s.21.08.58.18.9.26,1.55.35l1,.16a7.48,7.48,0,0,0,1.16.14c.82,0,1.69.08,2.55.13l1.29-.08,1.27-.06a7.53,7.53,0,0,0,1.16-.14l1-.16c.65-.09,1.17-.27,1.55-.35s.58-.18.58-.18l-.14.08a3.07,3.07,0,0,1-.4.21,11.88,11.88,0,0,1-1.51.59L23.92,16a6.1,6.1,0,0,1-1.19.23l-1.27.11-1.33.1c-.89-.07-1.79-.13-2.62-.21A6.11,6.11,0,0,1,16.32,16l-1-.27a12.2,12.2,0,0,1-1.51-.59,3,3,0,0,1-.4-.21Z"/><path class="cls-7" d="M12.44,19.48s.23.09.65.21,1,.29,1.72.4l1.17.18a9.11,9.11,0,0,0,1.3.16c.85,0,1.74.09,2.64.14l1.44-.07,1.43-.06a9.28,9.28,0,0,0,1.31-.15l1.18-.18c.68-.1,1.23-.28,1.64-.37s.74-.22.8-.24,0,0,0,0a4.17,4.17,0,0,1-.46.26,12.81,12.81,0,0,1-1.68.66l-1.18.31A7.33,7.33,0,0,1,23,21l-1.42.13-1.49.11c-.93-.07-1.85-.13-2.72-.21a7.5,7.5,0,0,1-1.34-.24l-1.19-.3a13.68,13.68,0,0,1-1.61-.61,4.52,4.52,0,0,1-.61-.3Z"/><path class="cls-7" d="M11.71,24.09s.25.1.71.24,1.09.33,1.88.46c.4.07.82.15,1.28.21a10.92,10.92,0,0,0,1.43.18c.86,0,1.77.1,2.69.15l1.59-.05,1.57-.07A11.23,11.23,0,0,0,24.3,25l1.31-.19c.7-.1,1.28-.29,1.72-.38s.91-.26,1-.31.15,0,.07,0a4.84,4.84,0,0,1-.53.3,13.63,13.63,0,0,1-1.84.73c-.4.11-.83.23-1.29.34a8.31,8.31,0,0,1-1.46.29c-.5,0-1,.11-1.56.15l-1.63.11c-.94-.07-1.89-.13-2.77-.21a9.17,9.17,0,0,1-1.49-.25c-.47-.1-.92-.22-1.33-.32a15.3,15.3,0,0,1-1.69-.62,5.9,5.9,0,0,1-.85-.4Z"/><path class="cls-7" d="M11.07,28.72s.27.11.76.26a20.47,20.47,0,0,0,2,.51c.42.08.88.17,1.37.23a12.3,12.3,0,0,0,1.54.19c.86,0,1.77.11,2.68.16l1.71,0,1.7-.07a13.64,13.64,0,0,0,1.58-.17c.5-.06,1-.14,1.43-.21.71-.1,1.3-.29,1.77-.39.63-.16,1.07-.3,1.26-.37s.26-.09.19-.05a5.26,5.26,0,0,1-.59.34,14.06,14.06,0,0,1-2,.8c-.43.12-.89.25-1.38.37a9.31,9.31,0,0,1-1.57.31c-.54.05-1.11.13-1.68.17l-1.75.11c-.94-.06-1.89-.12-2.78-.2a10.84,10.84,0,0,1-1.61-.26c-.51-.1-1-.23-1.45-.34a15.48,15.48,0,0,1-1.74-.62,7.43,7.43,0,0,1-1.09-.5C11.2,28.81,11.07,28.72,11.07,28.72Z"/><path class="cls-7" d="M10.65,33.37s.28.12.79.28a21.71,21.71,0,0,0,2.12.54c.44.08.92.18,1.44.25a14.1,14.1,0,0,0,1.61.21c.84,0,1.72.12,2.6.16l1.79,0,1.78-.07a15.76,15.76,0,0,0,1.67-.17c.54-.06,1-.15,1.52-.22.7-.09,1.29-.28,1.77-.38.7-.18,1.21-.34,1.47-.43s.37-.14.31-.1a6.15,6.15,0,0,1-.64.37,14.3,14.3,0,0,1-2.07.84c-.45.13-.93.27-1.45.39a10.3,10.3,0,0,1-1.64.33c-.57.06-1.17.15-1.76.18l-1.84.11-2.7-.19a12.31,12.31,0,0,1-1.71-.26c-.55-.09-1.06-.24-1.54-.35a16.79,16.79,0,0,1-1.75-.61,8.71,8.71,0,0,1-1.32-.59A4.86,4.86,0,0,1,10.65,33.37Z"/><path class="cls-7" d="M10.68,38.07s.28.12.79.29a20.2,20.2,0,0,0,2.11.56c.44.09.92.19,1.43.26a15.54,15.54,0,0,0,1.6.21c.77,0,1.58.12,2.4.16H20.8l1.78-.07c.59,0,1.13-.11,1.67-.16s1.05-.15,1.54-.22c.66-.09,1.22-.26,1.69-.36a16.19,16.19,0,0,0,1.61-.47,3.26,3.26,0,0,1,.41-.15,6.65,6.65,0,0,1-.65.38,14,14,0,0,1-2.06.85c-.44.13-.92.28-1.44.4a10.9,10.9,0,0,1-1.64.33c-.57.06-1.17.16-1.76.19l-1.83.1-2.5-.16A13.52,13.52,0,0,1,15.91,40c-.55-.08-1.07-.23-1.56-.35A16.38,16.38,0,0,1,12.68,39a9.86,9.86,0,0,1-1.48-.65A4.87,4.87,0,0,1,10.68,38.07Z"/><path class="cls-7" d="M10.52,42.76s.29.12.8.3a20.66,20.66,0,0,0,2.15.58c.45.09.93.2,1.45.27s1.06.19,1.63.21c.73,0,1.49.13,2.25.16h1.82l1.82-.07c.61,0,1.16-.11,1.72-.16s1.08-.15,1.58-.22,1.18-.24,1.65-.35A17.56,17.56,0,0,0,29.16,43l.52-.19a6.72,6.72,0,0,1-.68.4,14,14,0,0,1-2.09.87c-.45.13-.94.29-1.46.41a11.41,11.41,0,0,1-1.66.33c-.58.06-1.19.17-1.79.2l-1.86.1L17.77,45A15.07,15.07,0,0,1,16,44.71c-.57-.08-1.1-.23-1.6-.35a16.37,16.37,0,0,1-1.64-.53,10.9,10.9,0,0,1-1.66-.72A5.53,5.53,0,0,1,10.52,42.76Z"/><path class="cls-7" d="M10.72,47.49s.28.12.78.29a19.1,19.1,0,0,0,2.1.58c.44.09.91.21,1.42.27s1,.18,1.6.21,1.34.13,2,.15l1.78,0L22.23,49c.59,0,1.14-.1,1.69-.15s1.07-.15,1.57-.22,1.09-.22,1.55-.32a17.62,17.62,0,0,0,1.86-.54l.61-.23a6.61,6.61,0,0,1-.69.41,13.45,13.45,0,0,1-2,.86c-.44.13-.91.29-1.43.4a12,12,0,0,1-1.63.33c-.57.06-1.17.18-1.76.2l-1.82.09L18,49.68a16.45,16.45,0,0,1-1.74-.23,15.79,15.79,0,0,1-1.59-.34c-.58-.13-1.09-.34-1.54-.48a11.52,11.52,0,0,1-1.77-.76A5.7,5.7,0,0,1,10.72,47.49Z"/><path class="cls-7" d="M11.31,52.26s.26.12.73.28a18,18,0,0,0,2,.55c.41.09.85.2,1.33.26s1,.17,1.5.2,1.16.12,1.76.14l1.67,0,1.68-.06c.56,0,1.08-.09,1.6-.14s1-.14,1.48-.2a13.88,13.88,0,0,0,1.39-.28,17.21,17.21,0,0,0,1.86-.53c.43-.15.66-.26.65-.25a5.87,5.87,0,0,1-.66.4,12.25,12.25,0,0,1-1.91.81c-.41.13-.86.28-1.34.38a11.74,11.74,0,0,1-1.53.31c-.53.06-1.1.18-1.66.19l-1.71.08-1.86-.09c-.56,0-1.11-.14-1.64-.21a13.26,13.26,0,0,1-1.51-.32,14.22,14.22,0,0,1-1.39-.42,11.4,11.4,0,0,1-1.79-.77A5.38,5.38,0,0,1,11.31,52.26Z"/><path class="cls-7" d="M11.07,56.94s.27.12.75.29a18,18,0,0,0,2,.58,13.72,13.72,0,0,0,1.37.27c.49.07,1,.17,1.54.21s1.09.13,1.66.14l1.72.05,1.73-.06c.58,0,1.11-.1,1.65-.14s1-.14,1.54-.21a13.77,13.77,0,0,0,1.37-.27,18.21,18.21,0,0,0,2-.58c.48-.17.75-.29.75-.29a5.78,5.78,0,0,1-.69.42,12.46,12.46,0,0,1-2,.84c-.42.13-.88.29-1.37.4a12.61,12.61,0,0,1-1.57.32c-.55.06-1.13.19-1.7.2l-1.75.08-1.76-.08c-.58,0-1.15-.14-1.7-.2a12.69,12.69,0,0,1-1.57-.32,14.1,14.1,0,0,1-1.37-.4,12.49,12.49,0,0,1-2-.83A5.85,5.85,0,0,1,11.07,56.94Z"/><path class="cls-5" d="M0,18.83c15,5.38,14.34,45.11,20.72,45.11C8.89,63.94,5.5,55.67,5.5,43,5.5,24.58,0,18.83,0,18.83Z"/><path class="cls-8" d="M20.12,0V63.75C38.12,63.75,27.25,0,20.12,0Z"/><path class="cls-5" d="M19.12,63.94c10.37,0,12.5-7.48,12.5-20s5.75-17,5.75-17a21.14,21.14,0,0,0-10.5,14.43C24.75,51.83,24,62.92,19.12,63.94Z"/><path class="cls-9" d="M49.19,33.63,34.7,48.12l0-2.79a1.47,1.47,0,0,1,.64-1.22l2.92-2a1.46,1.46,0,0,0,.65-1.23l-.14-10.25a1.47,1.47,0,0,1,1.43-1.48l2.18-.06L42,20.42l-9.66-8.23,1.42-1.66,10.39,8.85.36,8.86,4.68,5Z"/></g></g></g></svg>