<svg xmlns="http://www.w3.org/2000/svg" viewBox="0 0 75.44 92.39"><defs><style>.cls-1{fill:#969696;}.cls-2{fill:#505050;}.cls-3{fill:#78b400;}.cls-4{fill:#006482;}.cls-5{fill:#469600;}.cls-6{fill:#ffdc00;}</style></defs><title>Ресурс 12</title><g id="Слой_2" data-name="Слой 2"><g id="Layer_1" data-name="Layer 1"><rect class="cls-1" x="63.22" y="60.99" width="7.3" height="2.32" transform="translate(-24.16 55.18) rotate(-38.52)"/><path class="cls-1" d="M57.57,56.33a5.5,5.5,0,0,1,.87-7.73l4.91-3.91-4-5L48,48.77l2.11,2.65L52,53.74,60.88,64.9a2.75,2.75,0,0,0,3.86.44Z"/><path class="cls-2" d="M69.44,61.59,57.88,47.07l4.5-3.59,9.85,12.36a2.75,2.75,0,0,1-.44,3.86Z"/><polygon class="cls-1" points="4.98 4.12 5.17 0 26.24 0.97 39.96 17.27 36.8 19.92 24.25 5 4.98 4.12"/><path class="cls-3" d="M36.79,13.71l13,2.12L64.62,33.57,61,36.5l3.21,4a2.75,2.75,0,0,1-.44,3.86L49.66,55.6a2.75,2.75,0,0,1-3.86-.44L42.08,50.5a2.75,2.75,0,0,1-.46-2.57l2.07-6.3a2.75,2.75,0,0,0-.46-2.57L31.2,24a2.75,2.75,0,0,1,.4-3.84l3.48-2.87Z"/><rect class="cls-4" x="48.57" y="14.55" width="3.35" height="32.78" transform="translate(-8.33 38.05) rotate(-38.54)"/><path class="cls-4" d="M55.68,92.39,54,90.24C69.32,78,76.91,69.3,70.25,60.94l2.15-1.71C81.32,70.43,69,81.76,55.68,92.39Z"/><circle class="cls-5" cx="50.18" cy="47.05" r="4.24" transform="translate(-18.39 41.51) rotate(-38.54)"/><path class="cls-6" d="M10,19.29a5,5,0,1,1-10,0c0-2.75,5-9.41,5-9.41S10,16.54,10,19.29Z"/></g></g></svg>