<svg xmlns="http://www.w3.org/2000/svg" viewBox="0 0 93.84 93.84"><defs><style>.cls-1{isolation:isolate;}.cls-2{fill:#ebebeb;}.cls-3{fill:#e1e1e1;}.cls-4{fill:#505050;}.cls-5,.cls-7{fill:#fff;}.cls-6{fill:#78b400;}.cls-7{opacity:0.2;mix-blend-mode:screen;}</style></defs><title>Ресурс 13</title><g class="cls-1"><g id="Слой_2" data-name="Слой 2"><g id="Layer_1" data-name="Layer 1"><circle class="cls-2" cx="46.92" cy="46.92" r="23.12"/><circle class="cls-3" cx="46.92" cy="46.92" r="15.73"/><circle class="cls-4" cx="39.76" cy="46.92" r="2.47"/><circle class="cls-4" cx="53.85" cy="46.92" r="2.47"/><path class="cls-5" d="M46.92,63.14A16.22,16.22,0,1,1,63.14,46.92,16.24,16.24,0,0,1,46.92,63.14Zm0-31.46A15.23,15.23,0,1,0,62.15,46.92,15.25,15.25,0,0,0,46.92,31.69Z"/><path class="cls-6" d="M46.92,20a26.93,26.93,0,0,1,5.6.59h0c-3-5-5.6-15.49-5.6-20.6,0,5.11-2.58,15.65-5.6,20.6h0A26.93,26.93,0,0,1,46.92,20Z"/><path class="cls-6" d="M73.82,46.92a26.94,26.94,0,0,1-.59,5.6h0c5-3,15.49-5.6,20.6-5.6-5.11,0-15.65-2.58-20.6-5.6h0A26.94,26.94,0,0,1,73.82,46.92Z"/><path class="cls-6" d="M46.92,73.82a26.94,26.94,0,0,1-5.6-.59h0c3,5,5.6,15.49,5.6,20.6,0-5.11,2.58-15.65,5.6-20.6h0A26.94,26.94,0,0,1,46.92,73.82Z"/><path class="cls-6" d="M20,46.92a27,27,0,0,1,.59-5.6h0c-5,3-15.49,5.6-20.6,5.6,5.11,0,15.65,2.58,20.6,5.6h0A27,27,0,0,1,20,46.92Z"/><path class="cls-6" d="M27.9,27.9a27,27,0,0,1,4.38-3.54h0c-5.64-1.37-14.91-7-18.53-10.61C17.36,17.36,23,26.63,24.35,32.27h0A27,27,0,0,1,27.9,27.9Z"/><path class="cls-6" d="M65.94,27.9a27,27,0,0,1,3.54,4.38h0c1.37-5.64,7-14.91,10.61-18.53C76.48,17.36,67.21,23,61.57,24.35h0A27,27,0,0,1,65.94,27.9Z"/><path class="cls-6" d="M65.94,65.94a27,27,0,0,1-4.38,3.54h0c5.64,1.37,14.91,7,18.53,10.61-3.62-3.62-9.24-12.89-10.61-18.53h0A27,27,0,0,1,65.94,65.94Z"/><path class="cls-6" d="M27.9,65.94a26.93,26.93,0,0,1-3.55-4.38h0c-1.37,5.64-7,14.91-10.61,18.53,3.62-3.62,12.89-9.24,18.53-10.61h0A26.93,26.93,0,0,1,27.9,65.94Z"/><path class="cls-7" d="M70,46.92A23.12,23.12,0,0,0,46.92,23.8V70A23.12,23.12,0,0,0,70,46.92Z"/></g></g></g></svg>