<svg xmlns="http://www.w3.org/2000/svg" viewBox="0 0 109.4 51.59"><defs><style>.cls-1{isolation:isolate;}.cls-2{fill:#969696;}.cls-3,.cls-6{fill:#b4b4b4;}.cls-4{fill:#e1e1e1;}.cls-5{fill:#78b400;}.cls-6{opacity:0.2;}.cls-10,.cls-14,.cls-6,.cls-8{mix-blend-mode:screen;}.cls-7,.cls-8{fill:#006482;}.cls-14,.cls-8{opacity:0.1;}.cls-9{fill:#d2ebeb;}.cls-10,.cls-14{fill:#fff;}.cls-10{opacity:0.4;}.cls-11{fill:#ebebeb;}.cls-12{fill:#a9c5cc;opacity:0.56;mix-blend-mode:multiply;}.cls-13{fill:#414042;}</style></defs><title>Ресурс 14</title><g class="cls-1"><g id="Слой_2" data-name="Слой 2"><g id="Layer_1" data-name="Layer 1"><polygon class="cls-2" points="80.81 23.65 79.7 23.65 79.7 0 89.53 0 89.53 4.43 88.43 4.43 88.43 1.1 80.81 1.1 80.81 23.65"/><rect class="cls-3" x="87.84" y="3.6" width="2.28" height="1.65"/><path class="cls-4" d="M92.6,7.09v24H85.36v-24A2.66,2.66,0,0,1,88,4.43h1.92A2.66,2.66,0,0,1,92.6,7.09Z"/><polygon class="cls-2" points="98.1 4.43 97 4.43 97 1.1 88.98 1.1 88.98 0 98.1 0 98.1 4.43"/><rect class="cls-5" x="85.36" y="9.12" width="7.24" height="3.21"/><path class="cls-6" d="M92.6,31.05v-24a2.66,2.66,0,0,0-2.66-2.66H89V31.05Z"/><rect class="cls-3" x="96.41" y="3.6" width="2.28" height="1.65"/><path class="cls-4" d="M101.17,7.09v24H93.92v-24a2.66,2.66,0,0,1,2.66-2.66H98.5A2.66,2.66,0,0,1,101.17,7.09Z"/><rect class="cls-5" x="93.92" y="9.12" width="7.24" height="3.21"/><path class="cls-6" d="M101.17,31.05v-24A2.66,2.66,0,0,0,98.5,4.43h-1V31.05Z"/><polygon class="cls-7" points="9.9 32.54 103.27 33.08 99.41 45.75 9.9 45.75 9.9 32.54"/><path class="cls-7" d="M109.15,35.11a3.83,3.83,0,0,0-.13-.45l0-.13c-.07-.16-.13-.28-.19-.4l-.07-.12c-.07-.12-.13-.2-.19-.29s-.05-.05-.05-.08a2.93,2.93,0,0,1-.4-.57h0s0-.09-.07-.13a2.48,2.48,0,0,1-.07-.59c0-.12,0-.25,0-.43l0-.17a5.78,5.78,0,0,0-.11-.61c0-.08,0-.16-.05-.23-.05-.3-.16-.64-.24-1l-.08-.33-.2-.68c0-.16-.09-.33-.15-.49-.2-.71-.4-1.34-.53-1.77-.09-.24-.15-.41-.17-.48-.2-.44-6.35-.64-9.55-1.85a88.37,88.37,0,0,0-23.35-6.91,82.44,82.44,0,0,0-9.58-.85l-1,0H61.46c-9.29-.05-9.88.09-12,.73-4,1.25-17.13,8.21-18.82,8.92C27.37,27.57,5.32,28,3.26,31l-.52.72-.34.48c-.19.27-.36.49-.51.75,0,.07-.09.15-.13.23a.69.69,0,0,0-.13.24A6.07,6.07,0,0,0,1,35.59H1c0,.19,0,.37-.07.58a3.42,3.42,0,0,0,0,.37,4.22,4.22,0,0,0,0,.43c0,.15,0,.31,0,.45s0,.33,0,.49,0,.3,0,.48v.41a1.31,1.31,0,0,1,0,.21c0,.2,0,.4,0,.61,0,.63,0,1.32,0,2.09a1.47,1.47,0,0,1-.06.41c0,.09-.07.19-.11.29l-.13.27a.73.73,0,0,1-.09.19h0l0,.05a1.82,1.82,0,0,0-.13.27c0,.05-.05.12-.07.19a.21.21,0,0,0,0,.09.25.25,0,0,0,0,.09,1.74,1.74,0,0,0,0,.9,2,2,0,0,0,.13.29,1,1,0,0,0,.32.36.77.77,0,0,1,.13.09,2.48,2.48,0,0,0,.95.32l.52.05h.5c.45,0,.81.05,1.12.07,1.16.07,1.24.07,2.44.07H11a10.87,10.87,0,0,1-.24-2.18,9.9,9.9,0,1,1,19.55,2.18H80.1a9.9,9.9,0,1,1,19.55-2.18,9.68,9.68,0,0,1-.25,2.17h0a1,1,0,0,1,.21,0l.61-.09c.61-.09,1.45-.23,2.29-.4l.27-.05.52-.11a9.3,9.3,0,0,0,2.1-.69c.4-.2.75-.38,1.05-.57,0,0,.08,0,.11-.07a4.92,4.92,0,0,0,.47-.3c.09-.05.17-.12.25-.17a2.26,2.26,0,0,0,.28-.2l.43-.31a2.6,2.6,0,0,1,.84-.48h0a.46.46,0,0,0,.13-.21,1.49,1.49,0,0,0,.12-.43A20.19,20.19,0,0,0,109.15,35.11Zm-69-7.67-2.3,0a15.65,15.65,0,0,1-4-.41.53.53,0,0,1-.21-.13.18.18,0,0,1,0-.28,2.3,2.3,0,0,1,.23-.24A12.57,12.57,0,0,1,36,24.87c.72-.44,1.53-.9,2.42-1.37,0,0,0,0,0,0,.67-.35,1.37-.69,2.09-1.05A82.53,82.53,0,0,1,51.31,17.9,105.09,105.09,0,0,1,63,17.67a65,65,0,0,1,.58,8.84h0l-4.72.27c-.53,0-1.07.05-1.58.08-2.1.12-4.19.21-6.2.31l-3,.11C45.14,27.39,42.42,27.44,40.16,27.44Zm45.08-2.58-.37.05a3.42,3.42,0,0,1-.48.05l-.32,0c-.23,0-.48.06-.76.07-1.4.14-3.47.3-6,.5-.76.07-1.56.13-2.4.19l-.85.07c-2.86.21-6.09.42-9.44.62V26A66.48,66.48,0,0,0,64,17.68h1.68c.76,0,1.88.07,3.14.2s2.38.29,3.61.52c.85.15,1.7.32,2.49.52.21.05.43.11.63.17C78.83,20,86.39,24.46,85.24,24.86Z"/><path class="cls-8" d="M73.45,17.41,45.08,45.77H30.31a9.9,9.9,0,1,0-19.55-2.18A10.87,10.87,0,0,0,11,45.75H6.15c-1.2,0-1.28,0-2.44-.07-.31,0-.67,0-1.12-.07h-.5l-.52-.05a2.48,2.48,0,0,1-.95-.32.77.77,0,0,0-.13-.09,1,1,0,0,1-.32-.36A2,2,0,0,1,0,44.5a1.74,1.74,0,0,1,0-.9.25.25,0,0,1,0-.09.21.21,0,0,1,0-.09c0-.07.05-.13.07-.19A1.82,1.82,0,0,1,.34,43l0-.05h0a.73.73,0,0,0,.09-.19l.13-.27c0-.11.07-.2.11-.29a1.47,1.47,0,0,0,.06-.41c0-.77,0-1.46,0-2.09,0-.21,0-.41,0-.61a1.31,1.31,0,0,0,0-.21v-.41c0-.17,0-.32,0-.48s0-.33,0-.49,0-.31,0-.45a4.22,4.22,0,0,1,0-.43,3.42,3.42,0,0,1,0-.37c0-.21,0-.4.07-.58H1a6.07,6.07,0,0,1,.63-2.21.69.69,0,0,1,.13-.24c0-.08.09-.16.13-.23.15-.25.32-.48.51-.75l.34-.48L3.26,31c2.05-2.93,24.11-3.39,27.42-4.8,1.69-.71,14.79-7.67,18.82-8.92,2.08-.64,2.66-.78,12-.73h1.38l1,0A82.44,82.44,0,0,1,73.45,17.41Z"/><path class="cls-9" d="M63.58,26.52c-5.16.31-10.54.58-15.31.76-3,.11-5.82.16-8.12.16l-2.29,0a15.46,15.46,0,0,1-4-.41c-.29-.11-.38-.25-.24-.41C35.81,24,49.73,18.16,51.31,17.9a52.84,52.84,0,0,1,6.62-.27c1.8,0,3.61,0,5.07,0A64.89,64.89,0,0,1,63.58,26.52Z"/><path class="cls-9" d="M85.24,24.85c-.27.09-3.35.38-7.89.73-2,.16-4.3.32-6.75.48l-6,.4A65.94,65.94,0,0,0,64,17.68h1.68a43.3,43.3,0,0,1,9.86,1.41c.43.12.93.31,1.48.52a41.65,41.65,0,0,1,4.19,2.08C83.78,23.13,85.88,24.62,85.24,24.85Z"/><path class="cls-10" d="M57.93,17.63l-9.65,9.65c-3,.11-5.82.16-8.12.16l-2.29,0a15.46,15.46,0,0,1-4-.41c-.29-.11-.38-.25-.24-.41C35.81,24,49.73,18.16,51.31,17.9A52.84,52.84,0,0,1,57.93,17.63Z"/><path class="cls-7" d="M41,23.88c0,.67-.09,1.52-.15,2.17-.17,1.58-1.55.09-1.86.31s.92.77,1.12,1.08a35.4,35.4,0,0,1-4,.21c-2-.05-2.27-.33-2.22-.65a27.26,27.26,0,0,1,3.9-2.94c.32-.18.6-.34.89-.48h0A3.48,3.48,0,0,1,40,23.22C40.36,23.18,41,23.32,41,23.88Z"/><path class="cls-11" d="M8.22,31.79c-.44,1.68-1,3.2-2.85,3.65a19.23,19.23,0,0,1-4.4.16,7,7,0,0,1,1.76-3.91C4.56,31.67,6.42,31.65,8.22,31.79Z"/><path class="cls-12" d="M108.83,42.28a8.12,8.12,0,0,0-1.54,1c-2.06,1.4-2.79,1.72-7.67,2.45l-.2,0a9.9,9.9,0,1,0-19.31,0H30.31a9.63,9.63,0,0,0,.25-2.2A9.9,9.9,0,1,0,11,45.75h0c-8.32,0-11.64.46-10.9-2.26a2.11,2.11,0,0,1,.26-.6h0c.42-.54.62-6.67.62-7.3,4.67.15,6.18.18,7.22-3.79h0l98.3-5.14a28.89,28.89,0,0,1,1.56,6.4h0a2.9,2.9,0,0,0,.4.58,4.4,4.4,0,0,1,.5.89C109.34,35.89,109.77,42.28,108.83,42.28Z"/><circle class="cls-13" cx="89.75" cy="43.56" r="8.03"/><circle class="cls-14" cx="89.75" cy="43.56" r="6.27"/><path class="cls-3" d="M96.08,42.48a6.32,6.32,0,0,0-.15-.66,5.31,5.31,0,0,0-.17-.52,5,5,0,0,0-.28-.63,6.43,6.43,0,0,0-4.78-3.47,6.07,6.07,0,0,0-.67-.06h-.56a6.18,6.18,0,0,0-.67.06,6.48,6.48,0,0,0-5.07,4.09,3.93,3.93,0,0,0-.17.52,3.83,3.83,0,0,0-.15.66,5.83,5.83,0,0,0-.1,1.08,6.39,6.39,0,0,0,1.92,4.57l.5.45a5.46,5.46,0,0,0,.44.32,4.86,4.86,0,0,0,.59.35,6.37,6.37,0,0,0,5.95,0l.59-.35c.15-.1.3-.2.43-.31h0l.47-.42,0,0a6.4,6.4,0,0,0,1.92-4.57A6.22,6.22,0,0,0,96.08,42.48Zm-.82-1c.06.15.11.31.15.47s0,0,0,0l-3.68,1.2-.68.22s0,0,0,0a1.28,1.28,0,0,0-.16-.46v0l.69-.22,3.69-1.2ZM90.7,37.75A5.88,5.88,0,0,1,95,40.84l-2.72.88-1.1.36-.44.14Zm-1.22-.07H90v4.61h0a1.16,1.16,0,0,0-.25,0,1.07,1.07,0,0,0-.27,0h0Zm.27,5.3a.58.58,0,1,1-.58.58A.58.58,0,0,1,89.75,43Zm-.94-5.23v4.48l-.45-.14-1.1-.36-2.74-.89A5.89,5.89,0,0,1,88.81,37.75ZM84.08,42a4.2,4.2,0,0,1,.15-.46l0,0,3.69,1.2.71.23h0a1.25,1.25,0,0,0-.17.5v0l-.69-.23L84.08,42Zm1.48,5.73a5.83,5.83,0,0,1-1.7-4.14,5.18,5.18,0,0,1,.08-.92l2.75.9,1.09.35.43.14-.27.38-.67.93Zm.94.79h0c-.16-.1-.28-.2-.42-.3h0L88.36,45l.42-.58,0,0a1,1,0,0,0,.38.29l0,0-.41.58Zm3.24,1a5.68,5.68,0,0,1-2.65-.64l1.71-2.35.67-.94.28-.37.28.38.67.93,1.7,2.34A5.71,5.71,0,0,1,89.75,49.46Zm3.66-1.28a3.76,3.76,0,0,1-.38.27l0,0-2.3-3.16-.4-.56,0,0a1.1,1.1,0,0,0,.37-.27l0,0,.41.56,2.29,3.16Zm.54-.48-1.7-2.34-.68-.93L91.3,44l.44-.14,1.09-.35,2.74-.89a5.91,5.91,0,0,1,.08.91A5.85,5.85,0,0,1,93.95,47.69Z"/><path class="cls-13" d="M20.68,51.59a8,8,0,1,1,8-8A8,8,0,0,1,20.68,51.59Z"/><circle class="cls-14" cx="20.69" cy="43.56" r="6.27"/><path class="cls-3" d="M27,42.48a5.65,5.65,0,0,0-.15-.66c0-.18-.11-.35-.17-.52a5,5,0,0,0-.28-.63,6.43,6.43,0,0,0-4.78-3.47,6,6,0,0,0-.67-.06h-.55a6.38,6.38,0,0,0-5.47,3.53c-.1.2-.2.41-.28.62a4.24,4.24,0,0,0-.16.52,3.92,3.92,0,0,0-.15.66,6.09,6.09,0,0,0-.1,1.08,6.38,6.38,0,0,0,1.92,4.57l.5.45.44.32a5.06,5.06,0,0,0,.59.35,6.37,6.37,0,0,0,5.95,0l.6-.35.43-.31h0l.47-.42,0,0A6.37,6.37,0,0,0,27,42.48Zm-.82-1c.06.15.11.31.15.47s0,0,0,0l-3.69,1.2L22,43.4s0,0,0,0a1.4,1.4,0,0,0-.16-.46l0,0,.69-.22,3.69-1.2Zm-4.57-3.74a5.87,5.87,0,0,1,4.27,3.09l-2.72.88-1.1.36-.45.14Zm-1.22-.07H21v4.61h0a1.18,1.18,0,0,0-.25,0,1,1,0,0,0-.27,0h0Zm.27,5.3a.58.58,0,1,1-.58.58A.58.58,0,0,1,20.68,43Zm-.94-5.23v4.48l-.44-.14-1.09-.36-2.74-.89A5.89,5.89,0,0,1,19.74,37.75ZM15,42a4.22,4.22,0,0,1,.16-.46l0,0,3.69,1.2.71.23h0a1.16,1.16,0,0,0-.17.5v0l-.69-.23L15,42ZM16.5,47.7a5.82,5.82,0,0,1-1.7-4.14,5.27,5.27,0,0,1,.07-.92l2.75.9,1.1.35.43.14-.27.38-.67.93Zm.94.79h0l-.42-.3h0L19.29,45l.42-.58,0,0a1.14,1.14,0,0,0,.38.29l0,0-.42.58Zm3.25,1A5.7,5.7,0,0,1,18,48.82l1.71-2.35.67-.94.28-.37.27.38.67.93,1.71,2.34A5.74,5.74,0,0,1,20.68,49.46Zm3.67-1.28a3.71,3.71,0,0,1-.39.27l0,0-2.31-3.16-.4-.56,0,0a1.14,1.14,0,0,0,.37-.27l0,0,.41.56,2.29,3.16Zm.53-.48-1.69-2.34-.68-.93L22.24,44l.44-.14,1.1-.35,2.73-.89a5.67,5.67,0,0,1,.07.91A5.85,5.85,0,0,1,24.88,47.69Z"/><path class="cls-10" d="M81.22,21.71l-3.87,3.87c-2,.16-4.3.32-6.75.48L77,19.63A41.65,41.65,0,0,1,81.22,21.71Z"/><path class="cls-4" d="M60.76,31.39l4.3-.08,0,1.8h-.66l.09,5h.66l0,1.8-4.3.08,0-1.8h.56l0-1.82-1.65,0,0,1.82h.56l0,1.8-4.3.08,0-1.8h.66l-.09-5H56l0-1.8,4.3-.08,0,1.8H59.7l0,1.67,1.65,0,0-1.67h-.56Z"/><path class="cls-4" d="M65.5,42.54c.33-.29.63-.56.9-.82s.51-.5.71-.72a4.93,4.93,0,0,0,.46-.58.79.79,0,0,0,.16-.4.51.51,0,0,0-.12-.36.44.44,0,0,0-.33-.11.43.43,0,0,0-.32.12.51.51,0,0,0-.1.36v.32l-1.28,0,0-1.52a2.92,2.92,0,0,1,.36-.16l.46-.14a4.81,4.81,0,0,1,.57-.11,5.32,5.32,0,0,1,.62,0,2.11,2.11,0,0,1,1.37.34,1.32,1.32,0,0,1,.47,1.08,1.61,1.61,0,0,1-.17.75,3.37,3.37,0,0,1-.45.69,5.79,5.79,0,0,1-.61.62l-.63.55h.78V42l1.25,0,0,1.42-4.07.08Z"/><path class="cls-4" d="M78.08,35.35a6.18,6.18,0,0,1-.26,2.06A3.48,3.48,0,0,1,77,38.79a3.26,3.26,0,0,1-1.31.79,6.37,6.37,0,0,1-3.47.06,3.24,3.24,0,0,1-1.34-.75A3.47,3.47,0,0,1,70,37.55a7.23,7.23,0,0,1-.08-4.1,3.49,3.49,0,0,1,.82-1.39,3.25,3.25,0,0,1,1.31-.79,6.35,6.35,0,0,1,3.47-.06,3.24,3.24,0,0,1,1.34.75,3.47,3.47,0,0,1,.87,1.36A6.21,6.21,0,0,1,78.08,35.35ZM73.92,37.9a.74.74,0,0,0,.56-.2.86.86,0,0,0,.18-.62l-.06-3.32a.87.87,0,0,0-.2-.62.75.75,0,0,0-.57-.18.75.75,0,0,0-.56.2.87.87,0,0,0-.17.62l.06,3.32a.88.88,0,0,0,.2.62A.75.75,0,0,0,73.92,37.9Z"/></g></g></g></svg>