<svg xmlns="http://www.w3.org/2000/svg" viewBox="0 0 31.75 78.44"><defs><style>.cls-1{isolation:isolate;}.cls-2{fill:#969696;}.cls-3{fill:#b4b4b4;}.cls-4{fill:#505050;}.cls-5{fill:#e1e1e1;}.cls-6{fill:#ebebeb;}.cls-7{opacity:0.2;}.cls-7,.cls-9{mix-blend-mode:screen;}.cls-8{fill:#fff;}.cls-9{opacity:0.1;}</style></defs><title>Ресурс 15</title><g class="cls-1"><g id="Слой_2" data-name="Слой 2"><g id="Layer_1" data-name="Layer 1"><path class="cls-2" d="M23.65,73.72a1.8,1.8,0,0,1-1.8,1.8H11a1.8,1.8,0,0,1-1.8-1.8V65.37h14.4Z"/><rect class="cls-3" x="8.57" y="62.75" width="15.75" height="3.6"/><path class="cls-4" d="M20.89,77.17a1.8,1.8,0,0,1-1.72,1.27H13.72A1.8,1.8,0,0,1,12,77.17l-.51-1.65h9.9Z"/><rect class="cls-3" x="9.24" y="72.84" width="14.4" height="0.76"/><rect class="cls-3" x="9.24" y="70.55" width="14.4" height="0.76"/><rect class="cls-3" x="9.24" y="68.26" width="14.4" height="0.76"/><polygon class="cls-5" points="23.42 62.75 9.47 62.75 1.15 53.07 31.75 53.07 23.42 62.75"/><rect class="cls-6" x="1.15" y="42.61" width="30.6" height="10.46"/><path class="cls-5" d="M8.6,42.61H4c0-3.28,0-7.76-2.58-10l3-3.46C8.6,32.75,8.6,38.69,8.6,42.61Z"/><path class="cls-5" d="M27.94,35.13a3.14,3.14,0,0,1-.67-.07L11.58,31.64a3.15,3.15,0,1,1,1.34-6.16L28.61,28.9a3.15,3.15,0,0,1-.67,6.23Z"/><path class="cls-6" d="M3.15,33.7a3.15,3.15,0,0,1-.67-6.23l24.79-5.4a3.15,3.15,0,0,1,1.34,6.16L3.82,33.62A3.12,3.12,0,0,1,3.15,33.7Z"/><path class="cls-6" d="M3.56,25.56a3.15,3.15,0,0,1-.67-6.23l24-5.22a3.15,3.15,0,0,1,1.34,6.16l-24,5.22A3.18,3.18,0,0,1,3.56,25.56Z"/><path class="cls-6" d="M3.89,17.56a3.15,3.15,0,0,1-.67-6.23l23.3-5.07a3.15,3.15,0,0,1,1.34,6.16L4.56,17.49A3.18,3.18,0,0,1,3.89,17.56Z"/><path class="cls-6" d="M5.3,9.61a3.15,3.15,0,0,1-.67-6.23L19.84.07a3.15,3.15,0,1,1,1.34,6.16L6,9.54A3.18,3.18,0,0,1,5.3,9.61Z"/><path class="cls-6" d="M30.68,33.44a2.38,2.38,0,0,0-4-2.6c-2.4,3.69-2.4,8.36-2.4,11.77H29C29,39.79,29,35.94,30.68,33.44Z"/><g class="cls-7"><path class="cls-8" d="M31.75,42.62H29c0-2.66,0-6.24,1.39-8.74A3.23,3.23,0,0,0,31,32.65a3.16,3.16,0,0,0-2.41-3.75l-1.56-.33,1.56-.34a3.15,3.15,0,1,0-1.34-6.16L16.45,24.43v8.28l8.6,1.87a30.28,30.28,0,0,0-.77,8H16.45V78.44h2.72a1.81,1.81,0,0,0,1.72-1.27l.51-1.66h.45a1.81,1.81,0,0,0,1.8-1.8V66.35h.67v-3.6h-.9l8.33-9.67Z"/><path class="cls-8" d="M28.2,20.27,16.45,22.83V16.38l10.41-2.27a3.15,3.15,0,0,1,1.34,6.16Z"/><path class="cls-8" d="M27.87,12.41,16.45,14.9V8.45l10.08-2.2a3.15,3.15,0,0,1,1.34,6.16Z"/><path class="cls-8" d="M21.18,6.23l-4.73,1V.81L19.84.07a3.15,3.15,0,0,1,1.34,6.16Z"/></g><g class="cls-9"><path class="cls-8" d="M21.18,6.23l-4.73,1V.81L19.84.07a3.15,3.15,0,0,1,1.34,6.16Z"/><path class="cls-8" d="M27.87,12.41,16.45,14.9V8.45l10.08-2.2a3.15,3.15,0,0,1,1.34,6.16Z"/><path class="cls-8" d="M28.2,20.27,16.45,22.83V16.38l10.41-2.27a3.15,3.15,0,0,1,1.34,6.16Z"/><path class="cls-8" d="M31.75,53.07l-8.33,9.67h.9v3.6h-.67v7.37a1.81,1.81,0,0,1-1.8,1.8H21.4l-.51,1.66a1.81,1.81,0,0,1-1.72,1.27H16.45V42.62h7.84a30.28,30.28,0,0,1,.77-8l-8.6-1.87V24.43l10.82-2.36a3.15,3.15,0,1,1,1.34,6.16l-1.56.34,1.56.33A3.16,3.16,0,0,1,31,32.65a3.23,3.23,0,0,1-.58,1.22C29.07,36.38,29,40,29,42.62h2.7Z"/></g></g></g></g></svg>