<svg xmlns="http://www.w3.org/2000/svg" viewBox="0 0 89.07 86.73"><defs><style>.cls-1{isolation:isolate;}.cls-2{fill:#006482;}.cls-3,.cls-6{fill:#fff;mix-blend-mode:screen;}.cls-3{opacity:0.2;}.cls-4{fill:#414042;}.cls-5{fill:#505050;}.cls-6{opacity:0.1;}.cls-7{fill:#ffdc00;}</style></defs><title>Ресурс 2</title><g class="cls-1"><g id="Слой_2" data-name="Слой 2"><g id="Layer_1" data-name="Layer 1"><polygon class="cls-2" points="76.17 74.9 0 74.9 5.5 27.88 70.67 27.88 76.17 74.9"/><polygon class="cls-3" points="3.71 71.6 8.44 31.18 67.74 31.18 72.47 71.6 3.71 71.6"/><rect class="cls-2" x="37.54" y="31.17" width="1.1" height="40.43"/><rect class="cls-2" x="48.21" y="31.16" width="1.1" height="40.46" transform="translate(-1.97 1.94) rotate(-2.23)"/><rect class="cls-2" x="58.88" y="31.11" width="1.1" height="40.55" transform="translate(-3.82 4.78) rotate(-4.46)"/><rect class="cls-2" x="7.19" y="50.84" width="40.46" height="1.1" transform="translate(-25 76.78) rotate(-87.76)"/><rect class="cls-2" x="-3.53" y="50.84" width="40.55" height="1.1" transform="translate(-35.8 64.06) rotate(-85.52)"/><rect class="cls-2" x="7.49" y="38.71" width="61.19" height="1.1"/><rect class="cls-2" x="6.54" y="46.8" width="63.08" height="1.1"/><rect class="cls-2" x="5.6" y="54.88" width="64.98" height="1.1"/><rect class="cls-2" x="4.65" y="62.96" width="66.87" height="1.1"/><rect class="cls-4" x="32.13" y="74.44" width="11.92" height="9.9"/><rect class="cls-5" x="28.74" y="81.96" width="18.7" height="4.77"/><polygon class="cls-6" points="76.17 74.9 70.67 27.88 38.09 27.88 38.09 86.73 47.44 86.73 47.44 81.96 44.05 81.96 44.05 74.9 76.17 74.9"/><circle class="cls-7" cx="67.33" cy="21.74" r="10.71"/><path class="cls-7" d="M67.33,9.27a12.42,12.42,0,0,1,2.59.27h0A24.06,24.06,0,0,1,67.33,0a24.06,24.06,0,0,1-2.59,9.54h0A12.43,12.43,0,0,1,67.33,9.27Z"/><path class="cls-7" d="M79.79,21.74a12.43,12.43,0,0,1-.27,2.59h0a24.06,24.06,0,0,1,9.54-2.59,24.06,24.06,0,0,1-9.54-2.59h0A12.43,12.43,0,0,1,79.79,21.74Z"/><path class="cls-7" d="M67.33,34.2a12.42,12.42,0,0,1-2.6-.27h0a24.06,24.06,0,0,1,2.59,9.54,24.05,24.05,0,0,1,2.59-9.54h0A12.41,12.41,0,0,1,67.33,34.2Z"/><path class="cls-7" d="M54.87,21.74a12.49,12.49,0,0,1,.27-2.6h0a24.07,24.07,0,0,1-9.54,2.59,24.07,24.07,0,0,1,9.54,2.59h0A12.49,12.49,0,0,1,54.87,21.74Z"/><path class="cls-7" d="M58.52,12.92a12.46,12.46,0,0,1,2-1.64h0A24.08,24.08,0,0,1,52,6.37a24.07,24.07,0,0,1,4.91,8.58h0A12.47,12.47,0,0,1,58.52,12.92Z"/><path class="cls-7" d="M76.14,12.92a12.46,12.46,0,0,1,1.64,2h0A24.07,24.07,0,0,1,82.7,6.37a24.06,24.06,0,0,1-8.58,4.91h0A12.51,12.51,0,0,1,76.14,12.92Z"/><path class="cls-7" d="M76.14,30.55a12.46,12.46,0,0,1-2,1.64h0A24.06,24.06,0,0,1,82.7,37.1a24.06,24.06,0,0,1-4.91-8.58h0A12.46,12.46,0,0,1,76.14,30.55Z"/><path class="cls-7" d="M58.52,30.55a12.47,12.47,0,0,1-1.64-2h0A24.06,24.06,0,0,1,52,37.1a24.07,24.07,0,0,1,8.58-4.91h0A12.41,12.41,0,0,1,58.52,30.55Z"/></g></g></g></svg>