<svg xmlns="http://www.w3.org/2000/svg" viewBox="0 0 95.08 96.93"><defs><style>.cls-1{isolation:isolate;}.cls-2{fill:#006482;}.cls-3{fill:#d2ebeb;}.cls-4{fill:#fff;opacity:0.2;mix-blend-mode:screen;}.cls-5{fill:#78b400;}.cls-6{fill:#414042;}</style></defs><title>Ресурс 3</title><g class="cls-1"><g id="Слой_2" data-name="Слой 2"><g id="Layer_1" data-name="Layer 1"><polygon class="cls-2" points="67.94 44.16 69.3 80.65 64.4 80.65 65.75 44.16 67.94 44.16"/><path class="cls-3" d="M67,45.36a13.3,13.3,0,0,1,1.5.18c.46.08,1,.18,1.65.35s1.31.35,2,.6,1.51.54,2.32.89A20.37,20.37,0,0,1,77,48.61a27.32,27.32,0,0,1,2.41,1.67c.8.61,1.62,1.21,2.46,1.78,1.67,1.15,3.36,2.28,4.91,3.4s3,2.15,4.23,3c2.47,1.81,4.09,3.06,4.09,3.06l-.23.4s-1.89-.78-4.69-2c-1.4-.62-3-1.34-4.76-2.15s-3.56-1.68-5.4-2.55c-.92-.44-1.85-.85-2.78-1.24a27.09,27.09,0,0,1-2.66-1.26,20,20,0,0,1-2.29-1.51c-.7-.52-1.35-1-1.93-1.56s-1.1-1-1.54-1.47S68,47.33,67.67,47a13.41,13.41,0,0,1-.91-1.21Z"/><path class="cls-3" d="M67,45.76A12.71,12.71,0,0,1,66.05,47c-.3.36-.67.8-1.12,1.25s-1,1-1.55,1.47-1.23,1-1.93,1.56a20.16,20.16,0,0,1-2.29,1.51A26.82,26.82,0,0,1,56.5,54c-.92.39-1.86.8-2.78,1.24-1.83.87-3.66,1.77-5.4,2.55S45,59.34,43.57,60c-2.8,1.23-4.69,2-4.69,2l-.23-.4s1.62-1.25,4.09-3.06c1.23-.9,2.68-2,4.24-3s3.24-2.25,4.91-3.4c.83-.57,1.66-1.18,2.46-1.78a27.33,27.33,0,0,1,2.42-1.67,20.19,20.19,0,0,1,2.46-1.23c.8-.35,1.58-.65,2.32-.89s1.42-.45,2-.6,1.18-.26,1.65-.35a13.3,13.3,0,0,1,1.5-.18Z"/><path class="cls-3" d="M66.58,45.56a13.17,13.17,0,0,1-.59-1.4c-.16-.44-.35-1-.52-1.6s-.35-1.31-.5-2.07-.29-1.58-.38-2.46a20.34,20.34,0,0,1-.16-2.74,27.15,27.15,0,0,1,.25-2.93c.13-1,.24-2,.32-3,.16-2,.31-4.05.5-6s.37-3.67.53-5.19c.33-3,.61-5.06.61-5.06h.46s.27,2,.59,5.07c.16,1.52.34,3.29.51,5.19s.32,3.93.48,6c.08,1,.19,2,.31,3a27.9,27.9,0,0,1,.24,2.93A20.26,20.26,0,0,1,69.07,38c-.1.87-.24,1.69-.39,2.45s-.33,1.46-.5,2.07-.36,1.16-.53,1.6a13.32,13.32,0,0,1-.6,1.39Z"/><path class="cls-4" d="M68.69,29.35c-.16-2-.29-4.05-.48-6s-.36-3.67-.51-5.19c-.32-3-.59-5.07-.59-5.07H67V45.56H67a13.32,13.32,0,0,0,.6-1.39c.16-.44.36-1,.53-1.6s.36-1.31.5-2.07.29-1.58.39-2.45a20.26,20.26,0,0,0,.17-2.74A27.9,27.9,0,0,0,69,32.37C68.88,31.38,68.77,30.36,68.69,29.35Z"/><path class="cls-4" d="M51.86,52c-1.68,1.15-3.37,2.28-4.92,3.39s-3,2.14-4.24,3c-2.47,1.8-4.09,3-4.09,3l.08.13L66.76,45.43l0-.07a12.79,12.79,0,0,0-1.5.18c-.46.08-1,.18-1.65.34s-1.31.35-2,.6-1.52.54-2.32.89a20,20,0,0,0-2.46,1.22,27.11,27.11,0,0,0-2.42,1.67C53.53,50.86,52.7,51.46,51.86,52Z"/><polygon class="cls-4" points="69.3 80.65 67.94 44.16 66.77 44.16 66.77 80.65 69.3 80.65"/><path class="cls-4" d="M81.75,52c1.68,1.15,3.37,2.28,4.92,3.39s3,2.14,4.24,3c2.47,1.8,4.09,3,4.09,3l-.07.13L66.84,45.43l0-.07a12.8,12.8,0,0,1,1.5.18c.46.08,1,.18,1.65.34s1.31.35,2,.6,1.52.54,2.32.89a20,20,0,0,1,2.45,1.22,27.17,27.17,0,0,1,2.42,1.67C80.08,50.86,80.91,51.46,81.75,52Z"/><circle class="cls-5" cx="66.85" cy="45.56" r="3.59"/><rect class="cls-6" x="61.76" y="79.27" width="10.18" height="2.77"/><circle class="cls-4" cx="66.85" cy="45.56" r="2.55"/><polygon class="cls-2" points="41.25 43.65 43.16 94.98 36.27 94.98 38.18 43.65 41.25 43.65"/><path class="cls-3" d="M39.93,45.33a18.39,18.39,0,0,1,2.12.25c.65.11,1.45.26,2.32.49s1.85.5,2.88.85,2.13.76,3.26,1.25A28.26,28.26,0,0,1,54,49.9a37.68,37.68,0,0,1,3.4,2.35c1.13.85,2.28,1.7,3.46,2.51,2.36,1.62,4.73,3.21,6.91,4.78s4.22,3,6,4.29c3.47,2.54,5.75,4.3,5.75,4.3l-.32.56s-2.66-1.09-6.6-2.83c-2-.87-4.26-1.89-6.69-3s-5-2.36-7.6-3.59c-1.29-.62-2.6-1.19-3.9-1.74a38.28,38.28,0,0,1-3.74-1.77,28.5,28.5,0,0,1-3.22-2.13c-1-.73-1.9-1.47-2.72-2.2S43.09,50,42.46,49.36s-1.15-1.25-1.58-1.76a18.38,18.38,0,0,1-1.28-1.71Z"/><path class="cls-3" d="M39.88,45.89A18.39,18.39,0,0,1,38.6,47.6c-.43.51-.94,1.12-1.58,1.76s-1.35,1.35-2.18,2.07-1.73,1.46-2.72,2.2a28.34,28.34,0,0,1-3.22,2.13,38.36,38.36,0,0,1-3.74,1.77c-1.3.55-2.62,1.13-3.91,1.74-2.58,1.23-5.15,2.49-7.6,3.59S8.94,65,7,65.87C3,67.6.38,68.7.38,68.7l-.32-.56s2.28-1.76,5.75-4.3c1.74-1.26,3.76-2.74,6-4.29s4.55-3.16,6.91-4.78c1.18-.81,2.33-1.66,3.46-2.51a38,38,0,0,1,3.4-2.35A28.36,28.36,0,0,1,29,48.17c1.13-.49,2.23-.91,3.26-1.25s2-.63,2.88-.85,1.66-.37,2.32-.49a18.34,18.34,0,0,1,2.12-.25Z"/><path class="cls-3" d="M39.35,45.61a18.45,18.45,0,0,1-.83-2c-.23-.62-.5-1.38-.73-2.25s-.49-1.85-.7-2.92-.4-2.23-.54-3.45a28.55,28.55,0,0,1-.22-3.85,39,39,0,0,1,.35-4.12c.17-1.4.34-2.83.45-4.25.23-2.85.43-5.7.7-8.37s.52-5.17.75-7.3C39,2.85,39.44,0,39.44,0h.65s.38,2.85.84,7.13c.22,2.14.48,4.63.71,7.31s.45,5.52.67,8.37c.11,1.43.27,2.85.44,4.26a38.11,38.11,0,0,1,.33,4.12A28.47,28.47,0,0,1,42.84,35c-.14,1.22-.33,2.38-.55,3.45s-.46,2-.71,2.92-.51,1.63-.74,2.25a18,18,0,0,1-.84,2Z"/><path class="cls-4" d="M42.31,22.81c-.22-2.85-.4-5.7-.67-8.37s-.5-5.17-.71-7.31C40.47,2.85,40.09,0,40.09,0h-.21V45.61H40a18,18,0,0,0,.84-2c.23-.62.5-1.38.74-2.25s.5-1.85.71-2.92.41-2.23.55-3.45a28.47,28.47,0,0,0,.24-3.85,38.11,38.11,0,0,0-.33-4.12C42.58,25.66,42.42,24.24,42.31,22.81Z"/><path class="cls-4" d="M18.64,54.72c-2.36,1.61-4.74,3.2-6.92,4.77s-4.23,3-6,4.27C2.28,66.3,0,68.05,0,68.05l.1.18L39.6,45.43l-.06-.1a18.09,18.09,0,0,0-2.12.25c-.66.11-1.45.25-2.32.48s-1.85.49-2.88.84-2.13.76-3.26,1.25a28.2,28.2,0,0,0-3.46,1.72,38.4,38.4,0,0,0-3.4,2.35C21,53.07,19.82,53.92,18.64,54.72Z"/><polygon class="cls-4" points="43.16 94.98 41.25 43.65 39.6 43.65 39.6 94.98 43.16 94.98"/><path class="cls-4" d="M60.68,54.72c2.36,1.61,4.73,3.2,6.92,4.77s4.23,3,6,4.27c3.48,2.53,5.75,4.29,5.75,4.29l-.1.18L39.71,45.43l.06-.1a18.14,18.14,0,0,1,2.12.25c.65.11,1.45.25,2.32.48s1.85.49,2.88.84,2.13.76,3.26,1.25a28.13,28.13,0,0,1,3.46,1.72,38.08,38.08,0,0,1,3.4,2.35C58.34,53.07,59.49,53.92,60.68,54.72Z"/><circle class="cls-5" cx="39.72" cy="45.61" r="5.05"/><rect class="cls-6" x="32.56" y="93.02" width="14.32" height="3.9"/><circle class="cls-4" cx="39.72" cy="45.61" r="3.59"/></g></g></g></svg>