<svg xmlns="http://www.w3.org/2000/svg" viewBox="0 0 68.46 85.31"><defs><style>.cls-1{isolation:isolate;}.cls-2{fill:#469600;}.cls-3{fill:#414042;}.cls-4{fill:#006482;}.cls-5{fill:#fff;opacity:0.2;mix-blend-mode:screen;}.cls-6{fill:#e1e1e1;}.cls-7{fill:#b4b4b4;}.cls-8{fill:#78b400;}</style></defs><title>Ресурс 4</title><g class="cls-1"><g id="Слой_2" data-name="Слой 2"><g id="Layer_1" data-name="Layer 1"><path class="cls-2" d="M29.92,85.31c-11.11-13.59-16.39-26.39-15.29-37a22.93,22.93,0,0,1,8.51-15.86L25,34.77a20,20,0,0,0-7.41,13.83c-1,9.81,4,21.84,14.63,34.8Z"/><polygon class="cls-3" points="23.89 36.34 24.94 35.48 25.89 36.66 26.88 35.85 25.93 34.68 26.99 33.83 27.93 35 36.64 27.95 32.13 22.39 23.43 29.44 24.38 30.61 23.32 31.47 22.37 30.3 21.39 31.1 22.34 32.27 21.28 33.13 20.33 31.96 19.31 32.78 23.81 38.35 24.84 37.51 23.89 36.34"/><path class="cls-4" d="M57.24,26.19,38.11,2.59,27,11.61a5.61,5.61,0,0,1-1,7.86l-.44.36a6,6,0,0,0-1.1,8.42l4.9,6a6,6,0,0,0,8.47.66l.44-.36a5.61,5.61,0,0,1,7.9.62Z"/><rect class="cls-5" x="35.6" y="3.48" width="13.58" height="30.38" transform="translate(-2.29 30.86) rotate(-39.03)"/><path class="cls-6" d="M44.35,11.22l-2.44-3L51.55.39A1.75,1.75,0,0,1,54,.65l.23.28A1.75,1.75,0,0,1,54,3.4Z"/><rect class="cls-5" x="40.39" y="16.97" width="13.58" height="15.19" transform="translate(-4.94 35.19) rotate(-39.02)"/><path class="cls-6" d="M52.53,21.31l-2.44-3,9.65-7.81a1.75,1.75,0,0,1,2.46.26l.23.28a1.75,1.75,0,0,1-.26,2.47Z"/><rect class="cls-4" x="45.47" y="-2.28" width="2.48" height="34.9" transform="translate(0.87 32.8) rotate(-39.03)"/><path class="cls-7" d="M54.25.93,54,.65A1.75,1.75,0,0,0,51.55.39L47.41,3.75l2.44,3L54,3.4A1.75,1.75,0,0,0,54.25.93Z"/><path class="cls-7" d="M62.43,11l-.23-.29a1.76,1.76,0,0,0-2.47-.26l-4.14,3.36,2.44,3,4.14-3.35A1.75,1.75,0,0,0,62.43,11Z"/><path class="cls-8" d="M68.46,50c-4.37.63-14.24-6.52-23.25-5.62C27.55,46.11,22.54,70.43,29.13,81.89c1.58-8.79,5-15.08,14.83-14.16C61.46,69.36,68.46,50,68.46,50Z"/><path class="cls-2" d="M28.7,83.78l-.31-.51a9.63,9.63,0,0,1-.41-.9,8.79,8.79,0,0,1-.33-1.1,17.67,17.67,0,0,1-.07-6.46A34.18,34.18,0,0,1,30,66.4,30.78,30.78,0,0,1,35.27,58a19.4,19.4,0,0,1,3.85-3.34c.35-.21.73-.47,1.08-.65s.7-.38,1.09-.56a19.25,19.25,0,0,1,2.25-.9,20.69,20.69,0,0,1,8.51-.86A24.65,24.65,0,0,1,57.91,53,17.25,17.25,0,0,1,60,53.9a17.28,17.28,0,0,0-2.13-.77,24.37,24.37,0,0,0-5.85-1,20,20,0,0,0-8.15,1.29,18.25,18.25,0,0,0-2.07,1c-.33.17-.67.38-1,.59s-.63.43-1,.65a18.05,18.05,0,0,0-3.4,3.3,29,29,0,0,0-4.5,8.22A31.87,31.87,0,0,0,30.1,75.1a15,15,0,0,0,.34,5.44,6,6,0,0,0,.26.73l.19.39.33.49Z"/><path class="cls-8" d="M0,79.65C2.83,71.9,13.22,66,23.15,80.4c-4-1.17-10.65,4-14.65,4S0,79.65,0,79.65Z"/><path class="cls-2" d="M23.15,80.4,22.36,80c-.49-.25-1.22-.56-2.08-1s-1.86-.82-3-1.2c-.54-.22-1.12-.36-1.7-.55a16.87,16.87,0,0,0-1.78-.4,12.68,12.68,0,0,0-1.8-.22,14.9,14.9,0,0,0-1.76,0,14.88,14.88,0,0,0-1.64.22,11.84,11.84,0,0,0-1.45.35c-.45.12-.85.27-1.21.4a7.47,7.47,0,0,0-.92.37l-.8.34s.25-.19.71-.51a7.67,7.67,0,0,1,.85-.54A8.13,8.13,0,0,1,7,76.75l.7-.3.78-.24a10.73,10.73,0,0,1,1.72-.37,11.67,11.67,0,0,1,1.89-.09,13.15,13.15,0,0,1,1.94.2,17.49,17.49,0,0,1,1.88.46,17.56,17.56,0,0,1,1.75.65,16.72,16.72,0,0,1,1.56.75c.5.24.93.53,1.34.77.82.5,1.46,1,1.91,1.29S23.15,80.4,23.15,80.4Z"/></g></g></g></svg>