<svg xmlns="http://www.w3.org/2000/svg" viewBox="0 0 82.19 90.82"><defs><style>.cls-1{isolation:isolate;}.cls-2{fill:#783200;}.cls-3,.cls-5{fill:#7aa600;}.cls-4{fill:#ffdc00;}.cls-5{opacity:0.15;}.cls-13,.cls-5,.cls-7,.cls-9{mix-blend-mode:screen;}.cls-6,.cls-7{fill:#006482;}.cls-13,.cls-7{opacity:0.1;}.cls-8{fill:#d2ebeb;}.cls-13,.cls-9{fill:#fff;}.cls-9{opacity:0.4;}.cls-10{fill:#ebebeb;}.cls-11{fill:#a9c5cc;opacity:0.56;mix-blend-mode:multiply;}.cls-12{fill:#414042;}.cls-14{fill:#b4b4b4;}</style></defs><title>Ресурс 5</title><g class="cls-1"><g id="Слой_2" data-name="Слой 2"><g id="Layer_1" data-name="Layer 1"><path class="cls-2" d="M40.85,48.58c-2.75-2.2-5.08-5-4.16-7.79.82-2.47,7.49-16.79,8.09-18.07l1.22.75c-1.28,2.74-7.34,15.82-7.67,17.32C37.64,44,43.49,48,47.71,49.3l-1.84,4.83C45.4,54,43.48,50.69,40.85,48.58Z"/><path class="cls-2" d="M51.76,48.58c2.75-2.2,5.08-5,4.16-7.79C55.1,38.33,48.43,24,47.83,22.72l-1.22.75c1.28,2.74,7.34,15.82,7.67,17.32C55,44,49.12,48,44.9,49.3l1.84,4.83C47.21,54,49.13,50.69,51.76,48.58Z"/><path class="cls-2" d="M44.79,29.18s2.94-1.3,3,.53c.33,7,.38,28.1,2.56,40a11.36,11.36,0,0,0,2.49,4.58H39.75a10.19,10.19,0,0,0,2.9-4.55C45.91,55.12,44.79,29.18,44.79,29.18Z"/><path class="cls-3" d="M69.06,26a11.24,11.24,0,0,0-6.54-10.46,11.17,11.17,0,0,0,.4-2.81c0-5.46-3.86-9.89-8.62-9.89a7.63,7.63,0,0,0-3.54.89A12.51,12.51,0,0,0,42,0C36.26,0,31.38,4.08,29.4,9.83a11.62,11.62,0,0,0-8.34,11.36,12.17,12.17,0,0,0,1.54,5.95,9,9,0,0,0-3.39,6.76c0,6.56,6.06,10.24,13.53,10.24H60.47c7.47,0,12.28-4.59,12.28-10.24C72.75,30.71,72.07,27.86,69.06,26Z"/><circle class="cls-4" cx="36.84" cy="4.34" r="0.93"/><circle class="cls-4" cx="56.8" cy="8.36" r="0.93"/><circle class="cls-4" cx="43.44" cy="10.1" r="0.93"/><circle class="cls-4" cx="49.03" cy="17.77" r="0.93"/><circle class="cls-4" cx="34.65" cy="16.44" r="0.93"/><circle class="cls-4" cx="26.6" cy="13.57" r="0.93"/><circle class="cls-4" cx="26.12" cy="22.66" r="0.93"/><circle class="cls-4" cx="41.25" cy="25.56" r="0.93"/><circle class="cls-4" cx="62.55" cy="18.16" r="0.93"/><circle class="cls-4" cx="58.94" cy="25.6" r="0.93"/><circle class="cls-4" cx="69.44" cy="30.12" r="0.93"/><circle class="cls-4" cx="62.08" cy="39.72" r="0.93"/><circle class="cls-4" cx="51.2" cy="33.23" r="0.93"/><circle class="cls-4" cx="37.68" cy="36.62" r="0.93"/><circle class="cls-4" cx="32.13" cy="30.54" r="0.93"/><circle class="cls-4" cx="27.49" cy="40.16" r="0.93"/><circle class="cls-4" cx="45.65" cy="41.45" r="0.93"/><circle class="cls-4" cx="22.62" cy="32.24" r="0.93"/><path class="cls-5" d="M69.06,26a11.24,11.24,0,0,0-6.54-10.46,11.17,11.17,0,0,0,.4-2.81c0-5.46-3.86-9.89-8.62-9.89a7.63,7.63,0,0,0-3.54.89A13.28,13.28,0,0,0,46.58.93v43.2H60.47c7.47,0,12.28-4.59,12.28-10.24C72.75,30.71,72.07,27.86,69.06,26Z"/><polygon class="cls-6" points="7.44 76.5 77.59 76.91 74.69 86.43 7.44 86.43 7.44 76.5"/><path class="cls-6" d="M82,78.43a2.73,2.73,0,0,0-.1-.34l0-.1c-.05-.12-.1-.21-.14-.3l0-.09c0-.09-.1-.15-.14-.22s0,0,0-.06a2.2,2.2,0,0,1-.3-.43h0s0-.07-.05-.1a1.81,1.81,0,0,1,0-.44c0-.09,0-.19,0-.32l0-.13a4.31,4.31,0,0,0-.08-.46c0-.06,0-.12,0-.17,0-.23-.12-.48-.18-.73l-.06-.25-.15-.51c0-.12-.07-.25-.11-.37-.15-.53-.3-1-.4-1.33s-.11-.31-.13-.36c-.15-.33-4.77-.48-7.18-1.39a66.36,66.36,0,0,0-17.54-5.19,62,62,0,0,0-7.2-.64l-.77,0h-1c-7,0-7.42.07-9,.55-3,.94-12.87,6.17-14.14,6.7C20.56,72.77,4,73.12,2.45,75.32l-.39.54-.26.36c-.14.2-.27.37-.38.56l-.1.17a.54.54,0,0,0-.1.18,4.57,4.57,0,0,0-.47,1.66h0c0,.14,0,.28,0,.44a2.54,2.54,0,0,0,0,.28,3.09,3.09,0,0,0,0,.32c0,.11,0,.23,0,.34s0,.25,0,.37,0,.23,0,.36v.31a1,1,0,0,1,0,.16c0,.15,0,.3,0,.46,0,.47,0,1,0,1.57a1.16,1.16,0,0,1,0,.31c0,.07-.05.14-.08.22l-.1.2a.61.61,0,0,1-.07.14h0l0,0a1.52,1.52,0,0,0-.1.2s0,.09-.05.14a.15.15,0,0,0,0,.07.19.19,0,0,0,0,.07,1.3,1.3,0,0,0,0,.68,1.47,1.47,0,0,0,.1.22A.76.76,0,0,0,.37,86l.1.07a1.84,1.84,0,0,0,.71.24l.39,0H2l.84,0c.87,0,.93,0,1.83,0H8.26a8.09,8.09,0,0,1-.18-1.64,7.44,7.44,0,1,1,14.69,1.64H60.18a7.44,7.44,0,1,1,14.69-1.64,7.34,7.34,0,0,1-.19,1.63h0l.16,0,.46-.07c.46-.07,1.09-.17,1.72-.3l.2,0,.39-.08a6.94,6.94,0,0,0,1.58-.52c.3-.15.56-.29.79-.43l.08,0a3.64,3.64,0,0,0,.35-.23l.19-.13a1.56,1.56,0,0,0,.21-.15l.32-.23a2,2,0,0,1,.63-.36h0a.34.34,0,0,0,.1-.16,1.1,1.1,0,0,0,.09-.32A15.19,15.19,0,0,0,82,78.43ZM30.17,72.67l-1.73,0a11.76,11.76,0,0,1-3-.31.41.41,0,0,1-.16-.1.13.13,0,0,1,0-.21,1.4,1.4,0,0,1,.17-.18A9.4,9.4,0,0,1,27,70.74c.54-.33,1.15-.68,1.82-1,0,0,0,0,0,0l1.57-.79a62.21,62.21,0,0,1,8.13-3.41,79.16,79.16,0,0,1,8.78-.17A48.69,48.69,0,0,1,47.77,72h0l-3.55.2c-.4,0-.8,0-1.19.06-1.58.09-3.15.16-4.66.23l-2.22.08C33.91,72.63,31.87,72.67,30.17,72.67ZM64,70.73l-.28,0-.36,0-.24,0-.57,0c-1,.11-2.61.23-4.53.38l-1.8.14-.64.05c-2.15.16-4.58.32-7.09.47v-.32a49.94,49.94,0,0,0-.44-6.27h1.26c.57,0,1.41.05,2.36.15s1.79.22,2.71.39c.64.11,1.28.24,1.87.39l.47.13C59.22,67.11,64.9,70.43,64,70.73Z"/><path class="cls-7" d="M55.18,65.13,33.87,86.44H22.77A7.44,7.44,0,1,0,8.08,84.79a8.09,8.09,0,0,0,.18,1.64H4.62c-.9,0-1,0-1.83,0l-.84,0H1.57l-.39,0a1.84,1.84,0,0,1-.71-.24L.37,86a.76.76,0,0,1-.24-.27,1.47,1.47,0,0,1-.1-.22,1.3,1.3,0,0,1,0-.68.19.19,0,0,1,0-.07.15.15,0,0,1,0-.07c0-.05,0-.1.05-.14a1.52,1.52,0,0,1,.1-.2l0,0h0a.61.61,0,0,0,.07-.14l.1-.2c0-.08,0-.15.08-.22a1.16,1.16,0,0,0,0-.31c0-.58,0-1.1,0-1.57,0-.16,0-.31,0-.46a1,1,0,0,0,0-.16v-.31c0-.13,0-.24,0-.36s0-.25,0-.37,0-.23,0-.34a3.09,3.09,0,0,1,0-.32,2.54,2.54,0,0,1,0-.28c0-.16,0-.3,0-.44h0a4.57,4.57,0,0,1,.47-1.66.54.54,0,0,1,.1-.18l.1-.17c.11-.19.24-.36.38-.56l.26-.36.39-.54c1.54-2.2,18.11-2.55,20.6-3.61C24.32,71.18,34.16,66,37.19,65c1.56-.48,2-.59,9-.55h1l.77,0A62,62,0,0,1,55.18,65.13Z"/><path class="cls-8" d="M47.77,72c-3.88.23-7.92.44-11.5.57-2.28.08-4.37.12-6.1.12l-1.72,0a11.63,11.63,0,0,1-3-.31c-.22-.08-.29-.19-.18-.31,1.6-1.91,12.06-6.33,13.25-6.53a39.9,39.9,0,0,1,5-.2c1.35,0,2.71,0,3.81,0A48.63,48.63,0,0,1,47.77,72Z"/><path class="cls-8" d="M64,70.72c-.2.07-2.52.29-5.93.55-1.51.12-3.23.24-5.07.36l-4.51.3a49.52,49.52,0,0,0-.44-6.59h1.26a32.54,32.54,0,0,1,7.41,1.06c.32.09.7.23,1.11.39A31.58,31.58,0,0,1,61,68.36C62.94,69.43,64.52,70.55,64,70.72Z"/><path class="cls-9" d="M43.52,65.3l-7.25,7.25c-2.28.08-4.37.12-6.1.12l-1.72,0a11.63,11.63,0,0,1-3-.31c-.22-.08-.29-.19-.18-.31,1.6-1.91,12.06-6.33,13.25-6.53A39.9,39.9,0,0,1,43.52,65.3Z"/><path class="cls-6" d="M30.84,70c0,.5-.07,1.15-.12,1.63-.13,1.18-1.17.07-1.39.23s.69.58.84.81a26.73,26.73,0,0,1-3,.16c-1.48,0-1.7-.25-1.67-.49a20.28,20.28,0,0,1,2.93-2.21c.24-.14.46-.26.67-.36h0a2.62,2.62,0,0,1,1-.27C30.32,69.47,30.84,69.58,30.84,70Z"/><path class="cls-10" d="M6.17,75.94c-.33,1.27-.73,2.41-2.14,2.74a14.51,14.51,0,0,1-3.3.12,5.27,5.27,0,0,1,1.32-2.94C3.42,75.85,4.82,75.84,6.17,75.94Z"/><path class="cls-11" d="M81.76,83.82a6.09,6.09,0,0,0-1.16.75c-1.55,1.05-2.09,1.29-5.76,1.84h-.15a7.44,7.44,0,1,0-14.51,0H22.77A7.25,7.25,0,0,0,23,84.79,7.44,7.44,0,1,0,8.27,86.43h0c-6.25,0-8.75.34-8.19-1.7a1.6,1.6,0,0,1,.2-.45h0c.32-.41.47-5,.47-5.49,3.51.12,4.65.14,5.42-2.85h0L80,72.08a21.72,21.72,0,0,1,1.17,4.8h0a2.17,2.17,0,0,0,.3.44,3.33,3.33,0,0,1,.37.67C82.15,79,82.47,83.82,81.76,83.82Z"/><circle class="cls-12" cx="67.43" cy="84.78" r="6.03"/><circle class="cls-13" cx="67.43" cy="84.78" r="4.71"/><path class="cls-14" d="M72.19,84a4.47,4.47,0,0,0-.11-.49,3.78,3.78,0,0,0-.12-.39,3.56,3.56,0,0,0-.21-.47A4.83,4.83,0,0,0,68.15,80a4.76,4.76,0,0,0-.5,0h-.42a4.79,4.79,0,0,0-4.11,2.65,5,5,0,0,0-.21.47,2.86,2.86,0,0,0-.12.39,3,3,0,0,0-.11.5,4.38,4.38,0,0,0-.07.81A4.8,4.8,0,0,0,64,88.22l.38.34.33.24a3.76,3.76,0,0,0,.44.26,4.8,4.8,0,0,0,4.47,0l.45-.27.33-.23h0l.35-.32,0,0a4.81,4.81,0,0,0,1.44-3.43A4.69,4.69,0,0,0,72.19,84Zm-.62-.74c0,.12.08.23.12.35v0l-2.77.9-.51.16v0a1,1,0,0,0-.12-.35v0l.52-.16,2.77-.9Zm-3.43-2.81a4.42,4.42,0,0,1,3.21,2.33l-2,.66-.83.27-.33.11Zm-.92,0h.42v3.46h0l-.19,0a.81.81,0,0,0-.21,0h0Zm.2,4a.44.44,0,1,1-.43.43A.43.43,0,0,1,67.43,84.35Zm-.71-3.93v3.37l-.33-.11-.82-.27-2.06-.67A4.42,4.42,0,0,1,66.72,80.42Zm-3.55,3.17a3.1,3.1,0,0,1,.11-.35v0l2.77.9.53.17h0a1,1,0,0,0-.13.37h0l-.52-.17-2.78-.9Zm1.11,4.3A4.38,4.38,0,0,1,63,84.78a3.81,3.81,0,0,1,.06-.69l2.07.67.82.26.32.11-.2.29-.51.7Zm.71.59h0l-.31-.23h0l1.73-2.38.32-.43,0,0a.79.79,0,0,0,.28.21h0l-.31.43Zm2.44.73a4.27,4.27,0,0,1-2-.48L66.72,87l.5-.7.21-.28.21.29.5.7,1.28,1.76A4.3,4.3,0,0,1,67.43,89.21Zm2.75-1a2.87,2.87,0,0,1-.29.21h0L68.15,86.1l-.3-.42,0,0a.84.84,0,0,0,.28-.2l0,0,.31.42,1.72,2.38Zm.4-.36-1.27-1.76-.51-.7-.2-.29.33-.11.82-.26,2.06-.67a4.3,4.3,0,0,1,.06.69A4.39,4.39,0,0,1,70.58,87.89Z"/><circle class="cls-12" cx="15.54" cy="84.78" r="6.03"/><circle class="cls-13" cx="15.54" cy="84.78" r="4.71"/><path class="cls-14" d="M20.3,84a5.64,5.64,0,0,0-.24-.88,3.61,3.61,0,0,0-.21-.47A4.83,4.83,0,0,0,16.25,80a4.69,4.69,0,0,0-.5,0h-.42a5,5,0,0,0-.51,0,4.83,4.83,0,0,0-3.6,2.61c-.08.15-.15.31-.21.47a3.2,3.2,0,0,0-.12.39,3,3,0,0,0-.11.5,4.6,4.6,0,0,0-.07.81,4.79,4.79,0,0,0,1.45,3.44l.38.34.33.24a3.9,3.9,0,0,0,.44.26,4.79,4.79,0,0,0,4.47,0l.45-.27.32-.23h0l.35-.32v0A4.79,4.79,0,0,0,20.3,84Zm-.61-.74c0,.12.08.23.12.35v0L17,84.5l-.51.16v0a1,1,0,0,0-.12-.35v0l.52-.16,2.77-.9Zm-3.43-2.81a4.42,4.42,0,0,1,3.21,2.33l-2,.66-.83.27-.33.11Zm-.92,0h.42v3.46h0l-.19,0a.79.79,0,0,0-.2,0h0Zm.2,4a.44.44,0,1,1-.44.43A.43.43,0,0,1,15.54,84.35Zm-.71-3.93v3.37l-.33-.11-.82-.27-2.06-.67A4.42,4.42,0,0,1,14.83,80.42Zm-3.55,3.17a3.36,3.36,0,0,1,.12-.35v0l2.77.9.53.17h0a.89.89,0,0,0-.13.37h0l-.52-.17-2.79-.9Zm1.12,4.3a4.37,4.37,0,0,1-1.28-3.11,4,4,0,0,1,.06-.69l2.07.67.82.26.32.11-.21.29-.5.7Zm.71.59h0l-.31-.23h0l1.73-2.38.32-.43,0,0a.85.85,0,0,0,.29.21h0l-.31.43Zm2.44.73a4.29,4.29,0,0,1-2-.48L14.83,87l.51-.7.21-.28.21.29.5.7,1.28,1.76A4.31,4.31,0,0,1,15.54,89.21Zm2.75-1a2.73,2.73,0,0,1-.29.21h0L16.25,86.1l-.3-.42,0,0a.84.84,0,0,0,.28-.2l0,0,.31.42,1.72,2.38Zm.4-.36-1.27-1.76-.51-.7-.2-.29L17,85l.82-.26,2.05-.67a4.3,4.3,0,0,1,.06.69A4.38,4.38,0,0,1,18.69,87.89Z"/><path class="cls-9" d="M61,68.36l-2.91,2.91c-1.51.12-3.23.24-5.07.36l4.83-4.83A31.58,31.58,0,0,1,61,68.36Z"/></g></g></g></svg>