<svg xmlns="http://www.w3.org/2000/svg" viewBox="0 0 101.53 102.28"><defs><style>.cls-1{isolation:isolate;}.cls-2{fill:#006482;}.cls-3,.cls-7,.cls-9{fill:#fff;mix-blend-mode:screen;}.cls-3{opacity:0.15;}.cls-4{fill:#505050;}.cls-5{fill:#78b400;}.cls-6{fill:#414042;}.cls-7{opacity:0.1;}.cls-8{fill:#d2ebeb;}.cls-9{opacity:0.2;}.cls-10{fill:#469600;}</style></defs><title>Ресурс 6</title><g class="cls-1"><g id="Слой_2" data-name="Слой 2"><g id="Layer_1" data-name="Layer 1"><path class="cls-2" d="M73,93.67H45.67V34.2a13.5,13.5,0,0,1,13.5-13.5h.3A13.5,13.5,0,0,1,73,34.2Z"/><path class="cls-3" d="M73,93.67V34.2a13.5,13.5,0,0,0-13.5-13.5h-.3v73Z"/><polygon class="cls-4" points="5.25 95.03 3.45 95.03 3.45 67.13 11.03 67.13 11.03 68.92 5.25 68.92 5.25 95.03"/><polygon class="cls-4" points="8.59 95.03 6.79 95.03 6.79 72 11.03 72 11.03 73.8 8.59 73.8 8.59 95.03"/><polygon class="cls-4" points="94.65 94.25 92.85 94.25 92.85 50.59 86.63 50.59 86.63 48.79 94.65 48.79 94.65 94.25"/><polygon class="cls-5" points="54.63 54.3 40.11 64.31 25.6 54.3 11.03 64.35 11.03 95.03 69.19 95.03 69.19 64.35 69.19 64.35 54.63 54.3"/><rect class="cls-6" y="93.68" width="97.42" height="2.7"/><polygon class="cls-4" points="17.1 60.16 17.1 54.3 14.85 54.3 14.85 61.71 17.1 60.16"/><path class="cls-4" d="M88.42,93.67H76.58V16.05a5.4,5.4,0,0,1,5.4-5.4h1a5.4,5.4,0,0,1,5.4,5.4Z"/><path class="cls-7" d="M88.42,93.67V16.05a5.4,5.4,0,0,0-5.4-5.4H82v83Z"/><rect class="cls-5" x="43.89" y="30.71" width="30.86" height="1.8"/><rect class="cls-5" x="43.89" y="28.69" width="30.86" height="0.9"/><rect class="cls-5" x="43.89" y="46.46" width="30.86" height="1.8"/><rect class="cls-5" x="43.89" y="49.89" width="30.86" height="0.9"/><rect class="cls-5" x="74.72" y="16.93" width="15.56" height="1.8"/><rect class="cls-5" x="74.72" y="20.25" width="15.56" height="0.9"/><rect class="cls-5" x="74.72" y="34.71" width="15.56" height="1.8"/><rect class="cls-5" x="74.72" y="38.02" width="15.56" height="0.9"/><rect class="cls-5" x="74.72" y="52.2" width="15.56" height="1.8"/><rect class="cls-5" x="74.72" y="55.52" width="15.56" height="0.9"/><rect class="cls-5" x="74.72" y="60.47" width="15.56" height="1.8"/><rect class="cls-6" x="22.42" y="80.21" width="6.13" height="14.81"/><rect class="cls-8" x="33.21" y="85.11" width="5.85" height="5.85"/><rect class="cls-8" x="41.54" y="85.11" width="5.85" height="5.85"/><rect class="cls-8" x="49.87" y="85.11" width="5.85" height="5.85"/><rect class="cls-8" x="58.2" y="85.11" width="5.85" height="5.85"/><rect class="cls-8" x="33.21" y="77.21" width="5.85" height="5.85"/><rect class="cls-8" x="41.54" y="77.21" width="5.85" height="5.85"/><rect class="cls-8" x="49.87" y="77.21" width="5.85" height="5.85"/><rect class="cls-8" x="58.2" y="77.21" width="5.85" height="5.85"/><rect class="cls-8" x="61.13" y="65.02" width="4.05" height="9"/><rect class="cls-8" x="55.38" y="65.02" width="4.05" height="9"/><rect class="cls-8" x="49.64" y="65.02" width="4.05" height="9"/><rect class="cls-8" x="43.89" y="65.02" width="4.05" height="9"/><rect class="cls-8" x="32.08" y="65.02" width="4.05" height="9"/><rect class="cls-8" x="26.34" y="65.02" width="4.05" height="9"/><rect class="cls-8" x="20.59" y="65.02" width="4.05" height="9"/><rect class="cls-8" x="14.85" y="65.02" width="4.05" height="9"/><rect class="cls-8" x="15.08" y="78.08" width="3.6" height="11.7"/><rect class="cls-4" x="81.53" y="1.58" width="0.9" height="9.08"/><circle class="cls-5" cx="81.98" cy="1.35" r="1.35"/><rect class="cls-9" x="45.67" y="38.66" width="27.3" height="3.68"/><polygon class="cls-6" points="40.11 64.31 41.68 63.23 41.68 37.41 45.67 37.41 45.67 35.61 39.88 35.61 39.88 64.15 40.11 64.31"/><path class="cls-5" d="M101.08,78c-2.58,2.58-12.44,5-15.92,8.58C79.5,92.49,82,100.07,82,100.07c8.75,4.75,14.71.84,16.92-2.5C103,91.41,101.08,78,101.08,78Z"/><path class="cls-10" d="M96.83,87.85c-1.13,1.66-2.37,3.41-3.75,5.09a34.93,34.93,0,0,1-3.18,3.47,20.77,20.77,0,0,1-6.45,4.35c-5.83,2.19-10.79,1.27-14.87-3.7L68,96.41h2.71a10.49,10.49,0,0,0,6.54,3.38c3.52.54,7.54-1.42,10.45-3.38a22.9,22.9,0,0,0,3.65-3l1.69-1.62C94.25,90.71,93.86,91,96.83,87.85Z"/></g></g></g></svg>