<svg xmlns="http://www.w3.org/2000/svg" viewBox="0 0 47.3 90.63"><defs><style>.cls-1{fill:#006482;}.cls-2{fill:#78b400;}.cls-3{fill:#469600;}</style></defs><title>Ресурс 7</title><g id="Слой_2" data-name="Слой 2"><g id="Layer_1" data-name="Layer 1"><polygon class="cls-1" points="16.13 41.09 42.46 2.95 44.5 0 32.45 0 4.36 43 0 49.68 7.93 49.7 30.91 49.73 7.93 90.63 41.92 47.82 47.3 41.04 38.31 41.05 16.13 41.09"/><path class="cls-2" d="M15,1.79c3,2.63,20.84,8.88,13.84,24.75-4.25-1.37-12.32-6.25-13.72-12.87A29.31,29.31,0,0,1,15,1.79Z"/><path class="cls-2" d="M30.81,37.33C30.48,23.17,44,28.83,47.3,28.42,46,35,39,42.08,30.81,37.33Z"/><path class="cls-3" d="M29.36,28.4A16.46,16.46,0,0,1,28.84,32a19,19,0,0,1-1.21,3.27A23,23,0,0,1,26,38.07a25.41,25.41,0,0,1-1.81,2.29c-.23.26-.47.5-.69.72H22.07c.44-.4.91-.86,1.39-1.39a24.58,24.58,0,0,0,1.72-2.18,21.07,21.07,0,0,0,1.55-2.69,19.26,19.26,0,0,0,1.15-3.09A15.56,15.56,0,0,0,28.1,25c-.06-.31-.13-.61-.22-.92a16.09,16.09,0,0,0-.81-2.21,24.07,24.07,0,0,0-1.48-2.77c-.54-.84-1.07-1.63-1.61-2.33S23,15.55,22.63,15s-1-1.16-1.31-1.59c-.67-.79-1-1.26-1-1.26l0,0s.38.44,1.08,1.2c.37.4.84.89,1.36,1.47s1,1.08,1.49,1.71S25.42,18,26,18.81a24.44,24.44,0,0,1,1.67,2.76c.27.54.53,1.1.76,1.69a11.3,11.3,0,0,1,.5,1.56,12.76,12.76,0,0,1,.37,1.76A15.89,15.89,0,0,1,29.36,28.4Z"/><path class="cls-3" d="M43.76,32.06l-.2.14a3.46,3.46,0,0,1-.6.39,18,18,0,0,1-2.39,1,48.49,48.49,0,0,0-7.2,2.81,17.26,17.26,0,0,0-1.76,1.08c-.28.2-.57.37-.82.58l-.75.63A12.91,12.91,0,0,0,28.77,40c-.29.38-.54.76-.78,1.11H26.8l.15-.3c.33-.45.65-1,1.05-1.45a14.5,14.5,0,0,1,1.43-1.39,11.76,11.76,0,0,1,1.71-1.22,16.48,16.48,0,0,1,1.91-1,47.5,47.5,0,0,1,7.44-2.43,17.71,17.71,0,0,0,2.43-.77,2.52,2.52,0,0,0,.63-.33A1,1,0,0,1,43.76,32.06Z"/></g></g></svg>