<svg xmlns="http://www.w3.org/2000/svg" viewBox="0 0 40.64 84.83"><defs><style>.cls-1{isolation:isolate;}.cls-2{fill:#969696;}.cls-3{fill:#b4b4b4;}.cls-4{fill:#006482;}.cls-5{opacity:0.2;mix-blend-mode:screen;}.cls-6{fill:#fff;}.cls-7{fill:#78b400;}.cls-8{fill:#469600;}</style></defs><title>Ресурс 8</title><g class="cls-1"><g id="Слой_2" data-name="Слой 2"><g id="Layer_1" data-name="Layer 1"><path class="cls-2" d="M0,6.32v72H31.35v-72ZM28,75.07H3.3V9.62H28Z"/><rect class="cls-3" x="6" width="19.34" height="6.32"/><rect class="cls-4" x="6" y="65.72" width="19.34" height="6.46"/><rect class="cls-4" x="6" y="56.9" width="19.34" height="6.46"/><rect class="cls-4" x="6" y="48.07" width="19.34" height="6.46"/><rect class="cls-4" x="6" y="39.25" width="19.34" height="6.46"/><rect class="cls-4" x="6" y="30.43" width="19.34" height="6.46"/><g class="cls-5"><rect class="cls-6" x="15.68" y="65.72" width="9.67" height="6.46"/><rect class="cls-6" x="15.68" y="56.9" width="9.67" height="6.46"/><rect class="cls-6" x="15.68" y="48.07" width="9.67" height="6.46"/><rect class="cls-6" x="15.68" y="39.25" width="9.67" height="6.46"/><rect class="cls-6" x="15.68" y="30.43" width="9.67" height="6.46"/></g><path class="cls-7" d="M40.15,58.11C37.31,61,26.47,63.56,22.64,67.55c-6.23,6.51-3.48,14.85-3.48,14.85,9.63,5.22,16.18.92,18.61-2.75C42.26,72.87,40.15,58.11,40.15,58.11Z"/><path class="cls-8" d="M35.47,69c-1.24,1.83-2.61,3.75-4.12,5.6a38.25,38.25,0,0,1-3.5,3.82,22.87,22.87,0,0,1-7.09,4.79c-6.41,2.41-11.87,1.4-16.36-4.07l-.59-.72h3A11.53,11.53,0,0,0,14,82.09c3.87.59,8.29-1.56,11.5-3.72a25.14,25.14,0,0,0,4-3.25l1.86-1.78C32.63,72.1,32.2,72.45,35.47,69Z"/></g></g></g></svg>