<svg xmlns="http://www.w3.org/2000/svg" viewBox="0 0 90.1 93.24"><defs><style>.cls-1{fill:#d2ebeb;}.cls-2{fill:#783200;}.cls-3{fill:#969696;}.cls-4{fill:#505050;}.cls-5{fill:#78b400;}.cls-6{fill:#006482;}.cls-7{fill:#414042;}</style></defs><title>Ресурс 9</title><g id="Слой_2" data-name="Слой 2"><g id="Layer_1" data-name="Layer 1"><rect class="cls-1" x="4" y="20.56" width="20.7" height="70.13"/><polygon class="cls-2" points="59.57 90.69 24.7 90.69 24.64 41.97 28.41 39.51 45.7 46.59 54.17 68.76 59.57 90.69"/><path class="cls-1" d="M24.64,20.88c-1.22,0-1.53-2.14-3.31-2.14s-2.48,2.14-3.57,2.14-1.53-2.14-3.31-2.14-2.35,2.14-3.57,2.14-1.53-2.14-3.31-2.14S5.24,20.88,4,20.88Z"/><rect class="cls-3" x="24.64" y="14.64" width="5.01" height="20.86"/><polygon class="cls-4" points="45.7 41.99 29.65 35.51 29.65 10.06 37.45 10.06 45.7 41.99"/><path class="cls-1" d="M74.87,90.58c-18.58,0-22.37-13.45-25.71-25.31C45.64,52.77,42.6,42,24.64,42v-7.2c23.41,0,27.87,15.82,31.45,28.54s6.26,20.06,18.78,20.06Z"/><polygon class="cls-5" points="77.31 74.41 77.31 66.71 69.61 74.41 69.61 66.71 61.9 74.41 52.05 74.41 52.05 90.69 85.02 90.69 85.02 74.41 85.02 66.71 77.31 74.41"/><rect class="cls-6" x="77.59" y="77.28" width="4.05" height="9"/><rect class="cls-6" x="70.6" y="77.28" width="4.05" height="9"/><rect class="cls-6" x="63.6" y="77.28" width="4.05" height="9"/><rect class="cls-4" x="33.48" y="1.56" width="0.89" height="8.98"/><circle class="cls-5" cx="33.92" cy="1.34" r="1.34"/><polygon class="cls-3" points="52.06 80.22 52.06 81.83 49.86 81.83 49.86 90.69 48.24 90.69 48.24 80.22 52.06 80.22"/><rect class="cls-7" y="90.57" width="90.1" height="2.67"/></g></g></svg>